<svg xmlns="http://www.w3.org/2000/svg" viewBox="0 0 56.67 74.1"><defs><style>.cls-1{opacity:0.8;}.cls-2{fill:#fff9ea;}.cls-3{fill:#fffbf3;}.cls-4{opacity:0.7;}.cls-5{fill:#467ab7;}.cls-6{opacity:0.3;}.cls-7{fill:#cec2a1;}</style></defs><g id="Layer_2" data-name="Layer 2"><g id="Layer_1-2" data-name="Layer 1"><g class="cls-1"><path class="cls-2" d="M13.39,52.85c1.5.31,2.89.93,4.45.8,1.05-.08,1.54-.8,1-1.77a3.71,3.71,0,0,0-3.06-1.76c-.34,0-.67,0-1,.06s-1.2-.17-.45.11l1.78,3.08a7.07,7.07,0,0,0,.93-.7,1,1,0,0,0,.33-1.1A3.79,3.79,0,0,0,15,49.16a5.29,5.29,0,0,0-1.25-.29q-1.56-.24,1.82,1.38a4,4,0,0,0,0-.5A6.36,6.36,0,0,0,14,44.62c-.81-.85-3.53-2.3-4-.41a5.92,5.92,0,0,0,0,2.22l4.47.89a7.11,7.11,0,0,0-.69-1.54,2.2,2.2,0,0,0-.23-.46c-.38-.35.24-.11-.34.06,1.11-.32.8-1.49.21-2.17A3.63,3.63,0,0,0,10.17,42l-.3,0h1l-.3-.07,2.75,2.58c0-.14.57-.46.7-.61a1.59,1.59,0,0,0,0-1.86,4.91,4.91,0,0,0-1.94-1.79A6.08,6.08,0,0,0,11,39.77c-1.77-.56-.05-.11.33.67l.24.88c0-.5.36-.9.51-1.36a2.45,2.45,0,0,0-.41-2.24,4.35,4.35,0,0,0-2.36-1.6A15.18,15.18,0,0,0,7.63,36l2.75,2.59s.29-.15.48-.27a1.7,1.7,0,0,0,.84-1.1c.3-1.31-.89-2.23-1.8-3l.9,2.12c.27-.42,1.37-.46,1.84-.61,1-.31,1.81-.79,2.82-1a29,29,0,0,0,3-1.29,12.26,12.26,0,0,0,3.39-1.5A5.42,5.42,0,0,1,23,31a10.68,10.68,0,0,0,1.71-.56,11.36,11.36,0,0,0,1.15-1c.4-.33.89-.53,1.28-.87,1-.83,1.73-1.9,2.66-2.78a5.22,5.22,0,0,0,1.08-1.17,6.5,6.5,0,0,0,.37-2l-1.26.9c-.06,0-2.14-1-2.15-1.07,0,.13.21.36.26.48s.24.53.35.79a9.66,9.66,0,0,0,1.85,2.71c.74.82.75,1.69,1.29,2.63a4.45,4.45,0,0,0,1.17,1.31c.14.12.63.4.64.44s-.61-1-.18-.05c.91,2,2.82,3.25,4.21,4.9.77.93,1.65,1.76,2.5,2.61s1.95,1.62,2.84,2.5l.69-2.22c-.79.09-1.56.06-2.36.17a1,1,0,0,0-.77.84,3.26,3.26,0,0,0,1.3,2.4l-.45-1.7c-.18.35-.74.52-1,.92a2.13,2.13,0,0,0,.35,2.16A4.54,4.54,0,0,0,43,44.94a5.65,5.65,0,0,0,1.06.2l.55,0c.42,0,.36,0-.19,0l-1.77-3.08a9.7,9.7,0,0,1-2.43.36c-1.18.25-.71,1.52-.21,2.16-.42-.53.29-.94-.28-.4a2.24,2.24,0,0,0-.48.7,1.94,1.94,0,0,0,.16,1.78,5,5,0,0,0,1.81,1.65c.18.11.38.2.56.3s.79.54.34.16l-.89-2.13a2.59,2.59,0,0,1-1.42.65c-1.76.55-.09,2.46.79,3a8.86,8.86,0,0,0,1.36.64c.25.09,1.1.57.53.11l-.62-2.41c-.92.84-2.79.61-2.91,2.24a2.75,2.75,0,0,0,.87,1.92l.27.26a1.41,1.41,0,0,1-.22-.57c.19.06-.79.47-.81.47a16.62,16.62,0,0,0-2.28.69c-.95.43-1.9.82-2.88,1.19a25.23,25.23,0,0,1-3.56,1.29,16.35,16.35,0,0,1-2.8,0,11.61,11.61,0,0,1-2.7-.1L24,55.78c-.5-.12-.58-.13-.22,0-.5-.23-1-.55-1.48-.76-.7-.29-1.29-.34-1.93-.67a11.49,11.49,0,0,0-3.23-1,7,7,0,0,1-2.45-1.08,3.74,3.74,0,0,0-1-.49c1.2,1.67,1.71,2.05,1.5,1.12,0-.28,0-.55.06-.82.08-2-.64-3.75-.79-5.71L12,47c-.93-.72-1.16-.83-.69-.32l.42.56c.22.27.45.52.69.77a14.39,14.39,0,0,0,2.71,2.27c.67.43,1.23,1,1.88,1.43s1.66.84,2.46,1.32l.84-2.8c.27.11,0,0-.13-.06s-.45-.28-.67-.42c-.43-.28-.84-.57-1.28-.82a6.74,6.74,0,0,0-3.34-1c-1.9,0-1.17,1.85-.25,2.65a14.76,14.76,0,0,0,3.8,2c1.07.5,2,1.27,3.09,1.76a20.46,20.46,0,0,0,4.14,1.2c.2,0,.72.21,1.19.36a6.46,6.46,0,0,0,2.08.37c.82,0,1.38-.48,1.22-1.33-.37-1.91-3-3.35-4.57-4.17-1.74-.9-4.33-1.85-6.28-1.24-1.79.55-.08,2.45.78,3,2.92,1.74,6.42,1.21,9.66,1.19,1.63,0,3.27,0,4.9,0,1.38,0,2.68.19,3.94-.52s-.6-2.44-1.18-2.79C35.2,49,32,50,29.63,50.35a23.82,23.82,0,0,0-3.8,1c-.83.28-2,.29-2.64.91-1.62,1.49,1.74,3.26,2.92,3.31,2.07.08,4.35-.67,6.36-1.13.79-.19,1.55-.42,2.33-.63.33-.09.65-.17,1-.23.18,0,.63.07.37-.05l-1.78-3.08a4.81,4.81,0,0,1-1.85.37,26.83,26.83,0,0,0-2.81.42c-1.12.23-2.19.6-3.3.9a5.49,5.49,0,0,0-2.57,1c-1,1,.33,2.22,1.18,2.79,2.39,1.59,4.92.26,7.42-.18a20.25,20.25,0,0,0,4.22-1.32c1-.42,2.5-.77,3-1.92.68-1.71-1.89-2.89-3.19-3-1.75-.16-6.68-.49-7.29,1.9-.38,1.49,2.24,2.61,3.3,2.64a12.24,12.24,0,0,0,4.45-1,8.58,8.58,0,0,0,3.39-1.82,1,1,0,0,0,.34-1.09c-1.55-4.2-9.22-3.27-12.39-1.93-2.31,1,1.09,3.65,2.53,3.48,1.65-.2,3.28-.51,4.93-.73.92-.12,2.62-.19,3-1.22.59-1.46-1.46-2.74-2.64-3a39.15,39.15,0,0,0-7.58-.33,1.12,1.12,0,0,0-1,1.78,3.79,3.79,0,0,0,3.07,1.76c1.51,0,3,0,4.54,0a20,20,0,0,0,4.09-.1,1,1,0,0,0,.72-1.26c-1.49-3.5-5.84-3.58-9-4.36l2,3.42a18.24,18.24,0,0,1,3.38-.31A3.7,3.7,0,0,0,39,46.76a1,1,0,0,0,.34-1.09c-.78-2-2.54-3-4.39-3.73A37.27,37.27,0,0,0,30,39.69c-.81-.23-1.85.09-1.79,1.05s1.28,1.86,2.14,2.2a31.43,31.43,0,0,0,4.26,1.23,8.51,8.51,0,0,0,3.71.37c.9-.18.84-1.08.54-1.71-.77-1.59-2.45-2.42-4-3.08,0,0-.72-.33-.49-.19s-.36-.3-.42-.34A5.55,5.55,0,0,0,30.78,38a1.07,1.07,0,0,0-1.24,1.11,2.81,2.81,0,0,0,1.54,1.92,14.56,14.56,0,0,0,3.3,1.28,12.07,12.07,0,0,1,2.51.74c.59.31,2.51,1,2.89,0,.63-1.76-.73-3.22-2-4.28-.66-.55-1.4-1-2.11-1.5.42.29-.35-.3-.48-.36-.29-.13,0-.08.08.1s.48.74.27,1.09l-2.28.29c.38.15-.45-.28,0,0,.2.13.43.24.65.36.53.3,1.06.6,1.6.87,1.08.53,2.57,1.28,3.8.85,1-.36.91-1.49.21-2.17a27.38,27.38,0,0,0-5.08-3.74c-1.62-1-3-2.28-4.7-3.15-1.25-.65-3.66-.78-2.77,1.26a6.33,6.33,0,0,0,3.92,3c.66.22,1.84.48,2.29-.3s-.37-1.65-.9-2.12a13.69,13.69,0,0,1-1.91-2.55l-3.76.46c1.71,1.83,3.41,4.36,6.11,4.7.72.08,2.25-.1,1.77-1.27-1-2.34-1.86-4.49-4.09-5.89-.59-.37-3-1.09-3,.38,0,1.91,1,3.5,1.78,5.18,1,2,1.89,4.1,3,6.08l.14-1.54c.76-.42.93,0,.81-.15s-.06,0-.29-.14c-.39-.21-.77-.45-1.16-.66a12,12,0,0,0-3.12-1.42c-3.17-.73-3.93,2.46-3.26,4.94a10,10,0,0,1,.75,3.39c0,.14.32-.14,0,0a7.21,7.21,0,0,1-.7.25,4.22,4.22,0,0,1-1.95-.21,21.57,21.57,0,0,0-4.45-.68,2,2,0,0,1-2-1.16H12.85c1,1.34,1.17,3,2,4.43a3.77,3.77,0,0,0,2.79,1.74c.7,0,1.91-.3,1.49-1.3-.9-2.12-1.89-4.2-2.71-6.35-.72-1.91-1.75-3.78-3.82-4.47-.7-.23-1.81-.46-2.29.3A3.84,3.84,0,0,0,10,40.59a11.53,11.53,0,0,1,1,3l4.33.86a8.08,8.08,0,0,1-.85-3.25,18.11,18.11,0,0,1-.35-3.94l-4.32-.87c1.15,2.25,1.6,4.77,2.45,7.13a32.79,32.79,0,0,0,1.41,3.42,8.14,8.14,0,0,0,2,3.2c.84.7,3.94,1.66,3.51-.44-.37-1.77-.8-3.54-1.31-5.27-.37-1.28-1.11-3-.57-4.34l-3.44-.36A3.79,3.79,0,0,1,14.44,41l1,2.44a32.6,32.6,0,0,0,2.42,5c.58.94,2.34,2.22,3.55,1.71,2.32-1,.88-4.75.37-6.51-.74-2.53-1.74-5-2.52-7.49l-4.47-.88c.88,2.21,2.08,4.24,3.13,6.37s2.15,4.48,3.15,6.74c.52,1.16,3.92,2.9,4.33.87A5.7,5.7,0,0,0,24.78,46c-.47-1.12-.87-2.24-1.24-3.41-.89-2.75-2.16-5.34-2.53-8.25l-4,0a1.9,1.9,0,0,1,.55,1.12,16.55,16.55,0,0,0,.68,2.06c.55,1.45,1.17,2.87,1.72,4.31s1.06,2.84,1.56,4.26a27.72,27.72,0,0,0,2,3.86,3.79,3.79,0,0,0,2.51,1.71c.57.11,1.89,0,1.81-.84A59.29,59.29,0,0,0,26,42.1c-.32-1.33-.7-2.63-1-4a27.54,27.54,0,0,0-.73-3.68H20.27c1.34,1.58,1.46,4.28,2.07,6.21.95,3,1.89,6.05,2.65,9.13.34,1.35,3.36,3.27,4.4,1.69.7-1,.06-3.24-.1-4.36a20.39,20.39,0,0,0-.64-3.72,3.37,3.37,0,0,0-1.81-1.84c-.57-.26-1.77-.68-2.32-.14a1.11,1.11,0,0,0-.34,1.16l4.47.89c-.19-1.54-.36-3.08-.53-4.63s-.16-3.14-.28-4.72l-4.52-1.31c.55,1.76,1.05,3.54,1.63,5.29a36.23,36.23,0,0,0,1.61,4.74,3.77,3.77,0,0,0,2.51,1.71c.6.11,1.84,0,1.81-.85a17.84,17.84,0,0,0-.4-2.3,22.8,22.8,0,0,1,0-2.48c0-.91-.2-1.82-.31-2.74s0-1.88-.05-2.83c-.13-1.52-1.86-2.63-3.31-2.63a13,13,0,0,0-5.12,1.38c-1.21.5-3,1.57-4.33,1.22l2.64,3a3.61,3.61,0,0,1,1.53-.82,3.76,3.76,0,0,0,1.74-1.36c1-1.41-2.09-3.14-3.19-3a8.8,8.8,0,0,0-3.76,1.33A13.82,13.82,0,0,1,13,34.24l3.4,3.25a35.35,35.35,0,0,1,3.77-2.17c1.28-.56,2.62-1,3.91-1.47a17.31,17.31,0,0,0,3.41-1.31,5.4,5.4,0,0,0,1.39-1.47c.23-.36.3-.92.61-1.19l-3.62-1.09c2.68,3.4,4.48,8,8.2,10.46.62.4,1.93.81,2.62.28s.3-1.47-.18-2a16.5,16.5,0,0,1-1.37-2.44c-.6-1-1.25-1.88-1.89-2.81-1.17-1.71-2.5-3.24-3.67-4.94l-3.76.46c1.42,1.56,3,3,4.37,4.6,1.17,1.41,1.95,2.75,3.51,3.81.68.46,3.7.94,3-.81-1.12-2.64-2.18-5.68-5-6.9-.69-.3-2.35-.46-2.4.67-.09,1.81,1.53,3.31,2.2,4.89a16.55,16.55,0,0,0,1.42,2.82,25,25,0,0,1,1.72,2.73l-.12-1.25a2.64,2.64,0,0,0-.46,2.34c.24.72.89,1.18,1.13,1.85l.34-1.09c.44-.27-.26-.12-.51-.14-.5,0-1-.14-1.5-.16-1.08-.05-1.49.9-1,1.78a3.8,3.8,0,0,0,3.07,1.76h-.09l.48.06c.44.05.89.1,1.34.13a3.38,3.38,0,0,0,2-.35,1,1,0,0,0,.34-1.09,7.49,7.49,0,0,0-.95-1.79s-.48-.58-.47-.6l.21.35c0,.16,0,.15.09,0,1.32-.75-.62-3.15-1.09-3.82a22.5,22.5,0,0,1-1.94-3.66,14.44,14.44,0,0,0-1-1.77c-.22-.32-.71-.8-.69-1.2l-2.4.68c-1.54-.67-1-1-.84-.37a7.64,7.64,0,0,0,.42.92c.39.8.82,1.56,1.17,2.37l3-.81c.56.39,0-.05-.08-.2s-.4-.6-.61-.89a16.07,16.07,0,0,0-1.42-1.76c-1.25-1.33-2.55-2.61-3.78-4a3.66,3.66,0,0,0-3-1.28,1.06,1.06,0,0,0-.78,1.74,32.76,32.76,0,0,0,1.91,2.79,30.83,30.83,0,0,1,2,2.52c.68,1,1.37,2,2,3a15.22,15.22,0,0,0,1.67,2.77l2.44-1.71a5.72,5.72,0,0,1-1.14-1.51c-.5-.74-1-1.47-1.49-2.21-1.15-1.74-2.28-3.49-3.57-5.13-.58-.75-2.67-1.94-3.62-1.09s-1,1.85-1.83,2.54a4.74,4.74,0,0,1-1.63.66c-.67.21-1.32.5-2,.75-1.23.46-2.48.86-3.68,1.41a37.78,37.78,0,0,0-4,2.26c-.89.53-.09,1.74.4,2.2a3.44,3.44,0,0,0,3,1,12.05,12.05,0,0,0,3.2-1.57,7.36,7.36,0,0,1,2.91-1.44l-3.19-3a3.08,3.08,0,0,1-1.51.88,4,4,0,0,0-1.76,1.3c-1,1.31,1.81,2.74,2.63,3,3.87,1,6.86-2.49,10.56-2.49l-3.31-2.63c.08.93,0,1.85.05,2.79s.27,1.85.32,2.78-.09,1.67,0,2.51.4,1.5.42,2.26l4.32.87a33.27,33.27,0,0,1-1.36-4.28c-.53-1.61-1-3.24-1.49-4.86a3.49,3.49,0,0,0-2.41-2.07c-.59-.16-2.19-.3-2.11.76.13,1.71.13,3.4.32,5.11s.38,3.4.59,5.09,4.76,3.43,4.47.89l0,.36-.38.66h0l-4.13-2a18,18,0,0,1,.57,3.25c.1.69.21,1.38.26,2.07,0,.32,0,.63,0,.94s-.13.43,0,.22l4.4,1.69c-.83-3.34-1.92-6.58-2.88-9.88-.74-2.54-1.11-5.18-2.87-7.26A3.78,3.78,0,0,0,21,32.26c-.67,0-1.56.5-1.22,1.32a21.94,21.94,0,0,1,.62,3.25c.32,1.31.71,2.61,1,3.92s.63,2.62.94,3.94a33.26,33.26,0,0,1,1,4.37l4.32.86c-.35-.65-.82-1.23-1.17-1.9a17.55,17.55,0,0,1-.81-2.08c-.55-1.5-1.08-3-1.7-4.47s-1.23-2.88-1.71-4.36a8,8,0,0,0-1.79-3.7c-.81-.81-4.27-2.45-3.95,0,.35,2.75,1.5,5.22,2.39,7.82.4,1.18.74,2.36,1.23,3.51a4.65,4.65,0,0,1,.67,2.7l4.32.86c-.94-2.12-1.93-4.23-2.95-6.32s-2.13-3.86-2.95-5.9a3.67,3.67,0,0,0-2.7-2.15c-.83-.16-2.12.13-1.77,1.27.67,2.16,1.52,4.27,2.2,6.44a31.33,31.33,0,0,1,1,3.69,5.88,5.88,0,0,1,.11,1.15,2.64,2.64,0,0,1,0,.28q-.06.27,0,0a.76.76,0,0,1-.09.18.56.56,0,0,1,.39-.25l3.55,1.7a38.21,38.21,0,0,1-2.72-5.79,11.33,11.33,0,0,0-2.83-4.65c-.56-.49-2.94-1.62-3.44-.37-.7,1.73-.27,3.54.23,5.27.57,2,1.09,3.94,1.51,5.94l3.5-.43c.29.42.37.41.23,0a5.73,5.73,0,0,0-.39-.83c-.25-.5-.5-1-.72-1.51a32.82,32.82,0,0,1-1.13-3.2,39.6,39.6,0,0,0-2.3-6.42c-.51-1-4.11-3-4.33-.86A22.77,22.77,0,0,0,10,40.27a10.36,10.36,0,0,0,1.24,4.15,3.87,3.87,0,0,0,2.51,1.71c.62.12,1.83,0,1.82-.84a7.93,7.93,0,0,0-.72-2.87c-.36-.9-.71-1.7-.15-2.58l-2.29.3c-1.54-.51-.92-1-.79-.41,0,.09.25.54.29.63.2.48.35,1,.55,1.47.69,1.74,1.53,3.43,2.26,5.15l4.28.44c-.87-1.39-1.07-3.08-2-4.43a3.82,3.82,0,0,0-3.06-1.77,1.11,1.11,0,0,0-1,1.78,9.33,9.33,0,0,0,3.67,3.57,12,12,0,0,0,5.11,1.15c1.74.16,3.4,1,5.16.93,1.21,0,3.2-.33,3.7-1.62s-.11-2.81-.5-4a4.87,4.87,0,0,1-.35-2.16,5.29,5.29,0,0,0,.22-.87c-.06-.3-1.49-.57-.48,0,1.86,1,4.59,3.16,6.74,2,.57-.31.39-1.09.14-1.54-.94-1.7-1.77-3.46-2.59-5.23-.6-1.3-1.67-2.82-1.69-4.28l-3,.39c-.64-.41-.22-.23-.08,0s.33.58.48.89c.25.5.45,1,.67,1.56l1.76-1.27c.34,0,.51.45.2,0a6.54,6.54,0,0,0-.57-.61c-.46-.51-.89-1.05-1.36-1.56a3.66,3.66,0,0,0-3-1.28,1.06,1.06,0,0,0-.78,1.74,22,22,0,0,0,3.45,4.3l1.39-2.42-.59-.22c.33.47.51.56.52.27L28.31,34c1.41.73,2.59,1.87,3.95,2.69a21.42,21.42,0,0,1,3.84,2.6l.22-2.16h.24c.64.15.8.18.5.07,0,0-.47-.18-.27-.09l-1.06-.57a18.79,18.79,0,0,0-2.23-1.15c-.66-.27-1.84-.45-2.29.29-.84,1.38,1.13,2.88,2.09,3.55s.94.61,1.75,1.23c0,0,.5.41.3.24s.26.23.22.24-.19-.26-.16-.28-.07.28,0,0h2.89A15.58,15.58,0,0,0,35,39.32a10.87,10.87,0,0,1-2.51-.76l.3,3c-1.17-.57-1.47-.63-.9-.2.26.19.53.38.8.55a9.26,9.26,0,0,0,1.22.61,6.13,6.13,0,0,0,1,.42c-.11-.08,0,0,.24.13-.5-.61-.62-.69-.38-.25l.54-1.72a5.7,5.7,0,0,1-1.87-.43,19.82,19.82,0,0,1-2.85-.83L31,43.11c-.43-.12.19.14.33.22l.65.4a14,14,0,0,0,1.73.87c.39.17.79.3,1.17.48,0,0,.42.17.23.11.48.16.07.3-.21-.41l.33-1.09c-.38.32-1.63.08-2.16.12-1.06.07-2.11.24-3.16.4-.89.14-.85,1.12-.53,1.72a3.89,3.89,0,0,0,2.51,1.71c1,.25,2.13.36,3.18.62.27.06.54.13.76.2s.4.16.4.13-.7-.74-.3-.2l-.52-.9.08.19.73-1.27a19.36,19.36,0,0,1-3.57,0H28.52l2.05,3.54a34.08,34.08,0,0,1,6.47.21l-2.63-3c.07-.18.14,0,0,0s-.32.09-.48.12c-.5.1-1,.16-1.51.23-1.24.16-2.45.42-3.7.57l2.53,3.48a12.58,12.58,0,0,1,4.29-.88,12,12,0,0,1,1.34,0c-.12,0,.74,0,.51,0l.49.08a2.72,2.72,0,0,1-1.24-.8l-.52-.9,0,.12.34-1.09a6.57,6.57,0,0,1-2.61,1.47,9.68,9.68,0,0,1-3.48.86l3.3,2.64c-.14.56,0,.27.47.13A7.36,7.36,0,0,1,35.31,53a13,13,0,0,1,3.18,0L35.3,50c-.27.68-1.44.91-2.06,1.16a19.76,19.76,0,0,1-2.93,1c-.88.21-1.79.28-2.66.54-.39.11-.78.25-1.18.36a4.29,4.29,0,0,1-.62.14c-.38,0-.17.07.62.22l1.18,2.79c.55-.55,1.85-.61,2.6-.84a27.54,27.54,0,0,1,3.34-.81c.82-.15,1.32-.17,2.33-.31a5.56,5.56,0,0,0,2.25-.68c1.56-.93-1.09-2.76-1.77-3.08-1.77-.84-3.73-.31-5.5.21-1.1.31-2.22.54-3.34.77a15,15,0,0,1-3.49.61L27,55.31c.4-.36,1.16-.34,1.67-.49a28.5,28.5,0,0,1,2.9-.87c1.09-.2,2.21-.36,3.32-.5.51-.06,1-.11,1.54-.18.9-.1.69.25-.43-.42L34.8,50.06c-.62.35-2,0-2.67,0H28.21c-1.27,0-2.53.06-3.8.08A6.16,6.16,0,0,1,21.54,50l.79,3a2.61,2.61,0,0,1,1.3.18l.5.15c.41.12-.54-.33,0,0s.93.51,1.37.81c-.28-.19.29.24.34.28.45.28-.11-.06-.16-.32l1.21-1.32c-.29,0-1.45-.46-1.95-.57a14.72,14.72,0,0,1-2.91-.78c-.85-.39-1.57-1-2.41-1.45a10.66,10.66,0,0,1-2.44-1.13l-.26,2.65c-.21,0-.21-.13.14.16s.58.37.85.55a11.73,11.73,0,0,0,2.15,1.16c.73.27,2,.46,2.35-.49s-.81-1.89-1.51-2.31a18.09,18.09,0,0,1-2.2-1.24c-.73-.59-1.58-1-2.3-1.61A8.94,8.94,0,0,1,15,46a6.85,6.85,0,0,0-2.72-2.13c-.58-.26-2.49-.48-2.4.67a17.43,17.43,0,0,0,.29,2.49,11.13,11.13,0,0,1,.5,2.62c0,1.85-.11,3.34,1.59,4.51a10.84,10.84,0,0,0,1.17.61c-.43-.22.38.27.49.35a10.18,10.18,0,0,0,2.83,1.28,16.7,16.7,0,0,1,2.47.55A11.1,11.1,0,0,0,21.78,58c.39.07.06-.08,0-.11a2.3,2.3,0,0,1,.43.25,10.86,10.86,0,0,0,1.37.67,15.12,15.12,0,0,0,2.9.69,14.14,14.14,0,0,0,2.76.1c1,0,1.92.09,2.88,0,2.05-.12,4.06-1.17,6-1.88.8-.31,1.56-.7,2.35-1s1.44-.32,2.14-.57c1.73-.59,2.43-2.21,1.3-3.73-.1-.13-.18-.24-.29-.36L43.4,52c-.5-.51-.58-.57-.24-.19,0,0,.38,1,.25.95,0,0,.19-.15.26-.16a4,4,0,0,0,2-.91c.84-.76.08-1.85-.62-2.41a7.26,7.26,0,0,0-1.87-1.12A8.36,8.36,0,0,1,42,47.73l.79,3a4.79,4.79,0,0,0,2.73-1.57c.53-.69-.44-1.74-.89-2.13a7.45,7.45,0,0,0-1.21-.8L43,46c-.68-.29,0-.4.42.51l.24.87c0-.46.62-.81.77-1.27.28-.9-.47-1.76-1-2.42l-.21,2.17c1.16-.25,2.13-.12,3.21-.71,1.58-.86-1.11-2.8-1.78-3.08a4.92,4.92,0,0,0-1.57-.36c-1.5-.13.79,0,1.33,1.18l.24.88c0-.2.71-.7.88-1a1.56,1.56,0,0,0-.45-1.7c-.17-.18-.82-1.08-.42-.37l.24.88v-.26l-.77.84c.45-.06.93,0,1.39-.05,1.29-.15,1.67-1.26.69-2.23s-2-1.7-3-2.65-1.8-1.8-2.62-2.78a18.58,18.58,0,0,0-1.47-1.6,16.34,16.34,0,0,1-1.32-1.16c-.74-.91-1-1.95-2-2.72l-.39-.28c-.37-.27-.37-.24,0,.09s.35.36.18-.07l-.09-.33a5.79,5.79,0,0,0-.78-1.67,14.18,14.18,0,0,0-1.23-1.46,4.73,4.73,0,0,1-.66-.9c-.93-2.06-2.18-4.44-4.85-4.35-.63,0-1.13.25-1.26.9s0,1.1-.38,1.58-1,.91-1.41,1.38A13.09,13.09,0,0,1,22.55,26c-.49.32-.82.82-1.3,1.15a6.35,6.35,0,0,1-1.45.49C18.72,28,18,29,17,29.44s-2,.66-3,1.17-2,.65-3,1.07a18.86,18.86,0,0,1-2.26.88,3.59,3.59,0,0,0-2.23,1.29c-.47.71.39,1.72.9,2.12s.55.74.07-.08L7.19,35c0,.28-.49.34-.73.52a1.44,1.44,0,0,0-.65,1.27c.11,1.38,1.5,2.3,2.75,2.58a5,5,0,0,0,1,.12c.44,0,.73.2-.09-.14l-1.6-1.09c-.47-.45-.19-.73-.53-.05a3,3,0,0,0-.36.87,2.35,2.35,0,0,0,.49,1.83,4.82,4.82,0,0,0,2.14,1.61,5.53,5.53,0,0,0,1.11.36c.64.11,0,.17-.45-.39l-.52-.9c-.13-.29.61-.6,0-.37a1.45,1.45,0,0,0-.39.3,1.78,1.78,0,0,0-.61,1.24c-.13,1.36,1.7,2.33,2.75,2.59a3.89,3.89,0,0,0,1.63,0l-3-3.42A1.66,1.66,0,0,0,9,44.21a6.67,6.67,0,0,0,.57,1.35l.42.87c.4,1.67,4.76,3.49,4.47.89A3.5,3.5,0,0,1,14.51,46l-4-.42c1,1.1.17,2.75.54,4.08A3.91,3.91,0,0,0,13.43,52a5,5,0,0,0,1,.29c1.51.29-.29,0-1-.88l-.52-.9,0,.2.34-1.1a5.86,5.86,0,0,1-.93.71c-1.49.92,1,2.79,1.78,3.07a9.09,9.09,0,0,0,3.74.28l-2-3.53a12.57,12.57,0,0,1-3.35-.69c-.92-.19-2,.16-1.77,1.27s1.7,1.95,2.71,2.15Z"/></g><g class="cls-1"><path class="cls-2" d="M37.54,53.69a5.13,5.13,0,0,1-1.55.86l-.66.24c-.39.14-.87.15.06.17l2.5.35-.16,0,1.06.66a6.38,6.38,0,0,1,1-.53c.45-.32-1.28-.71-1.36-.73a7.51,7.51,0,0,0-3.12-.26,13.06,13.06,0,0,0-2.1.82l-1.06.43a4.21,4.21,0,0,1-.94.38l4.47,1a8.44,8.44,0,0,1,2.07-1.28,3.47,3.47,0,0,0,1.63-1.09c.22-.34-3-.86-3.07-.87a7,7,0,0,0-3.14.34c-.69.26-1.35.71-2.05.91l1.17-.1h-.13l3.57,1c.39-.22.83-.37,1.22-.6a10,10,0,0,0,1.3-.94c.59-.46,1.32-1,.33-1.43a11.3,11.3,0,0,0-4.24-.77c-.66,0-1.88-.17-2.45.28q-.2.09,0,.24a3.51,3.51,0,0,0,1.89.69,10.42,10.42,0,0,0,2.78.22,2.49,2.49,0,0,0,1.87-.92,3.38,3.38,0,0,0,.75-1.88c0-.4.19-1.15-.21-1.42a5.94,5.94,0,0,0-2.34-.66c-.63-.08-1.85-.38-2.43,0s-.42,1.14-.38,1.72.12,1,.14,1.46c0,.32-.06.65.24.87a6,6,0,0,0,2.67.7c.44.05,1.93.36,2.21-.12a2.14,2.14,0,0,0,.11-1.23c0-.59,0-1.19,0-1.79a13.66,13.66,0,0,1,.6-3.74l-4.95-.7c.34.91.06,2.09.14,3.05,0,.51.06,1,.07,1.52s.15,1,.15,1.53,2.06.74,2.42.79a9.52,9.52,0,0,0,1.77.12c.22,0,.64,0,.76-.21a5.85,5.85,0,0,0,.46-2.2c.11-.92.16-1.84.34-2.74.31-1.61.16-3.45.78-5,.15-.39-4.35-1.33-4.95-.71-.41.43-.48,1.3-.7,1.86-.29.77-.63,1.53-.87,2.33A37,37,0,0,1,34,50.81l5,.7c.63-1.57.81-3.26,1.3-4.87a22.72,22.72,0,0,1,1.71-4.32c.17-.31-2-.73-2.09-.74a5.73,5.73,0,0,0-2.76-.07c-.57.21-1,1-1.41,1.42a8.59,8.59,0,0,0-1.2,2.13,15.21,15.21,0,0,0-.72,2,14.49,14.49,0,0,0-.24,2.55c0,.72,4.87,1.3,5,.7.15-1.15.38-2.31.55-3.46a8.4,8.4,0,0,1,.66-3l-5-.7a42.73,42.73,0,0,1-.67,4.9l-.42,2.6c-.12.75-.15,1.53-.3,2.27s-.5.64-1.1.72c-.82.1-1.64.23-2.46.37l-1.34.26c-.37.08-.93.11-1.17.41s1.75.68,1.75.69a10,10,0,0,0,2.83.19c.59-.06,1.18-.14,1.76-.22.92-.13-.31-.59-.55-.66a10,10,0,0,0-3.26-.42c-1.3.06-2.59.26-3.9.27,0,0-.74,0-.76.21s.37.29.49.34a9.31,9.31,0,0,0,3.18.57A11.94,11.94,0,0,0,32,55.5a11.07,11.07,0,0,0,2.58-.88c.12-.06.14-.14,0-.23a3.34,3.34,0,0,0-1.28-.91,5.81,5.81,0,0,0-.86-.36c-.12,0-.27-.16-.2-.08l-.3.31c1-.22-1.78-.23-.82-.07.36,0,.72.1,1.09.13s.75.06,1.13.07,1.54.14.18,0a10.53,10.53,0,0,0,1.77.07,2.15,2.15,0,0,0,1.23-.25c.7-.58-.56-1.24-.95-1.55-.73-.57-1.45-1.17-2.14-1.78l-4.81-.45a8.17,8.17,0,0,0,3.55,1.28,13.19,13.19,0,0,0,3,.29,2.42,2.42,0,0,0,1.63-.56c.65-.69.26-2.09,0-2.86-.17-.5-.43-1-.63-1.45a3.89,3.89,0,0,0-.22-.6c-.1-.18-.29-.22-.27-.43L31.88,45c-.85-.23-.65-.23-.29,0l.41.28a5.82,5.82,0,0,0,1.32.66,14.18,14.18,0,0,0,4.08.73c1,0,1.72-.14,2.06-1.14a8.19,8.19,0,0,0,.35-2.7l-5-.7a1.77,1.77,0,0,0,.15.38c.27.62,1.84.72,2.41.79a9.52,9.52,0,0,0,1.77.12c.08,0,.84,0,.77-.2a1.85,1.85,0,0,1-.15-.39c-.27-.86-5-1.12-5-.7a13.22,13.22,0,0,1-.24,2.17c-.07.48-.25,1.21-.79,1.36l1.17-.1h-.12l1.91.22c.29.07.3.07,0,0,.32.13.35.12.09,0s-.39-.26-.58-.4a5.21,5.21,0,0,0-1.84-.83c-.33-.09-3.72-.77-3.78-.15,0,.25.17.35.29.54a6.29,6.29,0,0,1,.35.79,8.91,8.91,0,0,1,.75,2.08c.1.53.24,1.39-.16,1.82a1.92,1.92,0,0,1-.35.23c-.62.42,1.29.06,1.82.17.7.13.37.13,0-.14a6,6,0,0,0-3-.74,4.78,4.78,0,0,0-1.51,0c-.12,0-.53.09-.3.3.59.51,1.2,1,1.78,1.49.29.26.61.48.92.72a1.83,1.83,0,0,1,.43.35c.07.14,0,.29,0,.35s.71-.18.77,0a3.29,3.29,0,0,0-.59,0,7,7,0,0,0-.92,0c-.83,0,.9.14.38.05a9.39,9.39,0,0,0-3.62-.12c-.14,0-.5.08-.3.3A1.64,1.64,0,0,0,28,53c-.06,0,.94.34.59.2a2.59,2.59,0,0,1,1.14.78l0-.23a8.93,8.93,0,0,1-1.84.65,4,4,0,0,1-1.55.17l2.91,1.12c1.3,0,2.59-.21,3.89-.28l-3.81-1.08c-.59.08-1.17.16-1.76.22l4.58.88c-.07.08.22,0,.28,0l.57-.11c.61-.12,1.23-.23,1.85-.33s1.43-.17,2.14-.29,1.09-.31,1.23-1,.17-1.44.28-2.14l.42-2.6a42.69,42.69,0,0,0,.69-5c0-.52-2.07-.74-2.41-.79a9.52,9.52,0,0,0-1.77-.12c-.22,0-.63,0-.77.21a8.4,8.4,0,0,0-.66,3c-.17,1.15-.4,2.3-.55,3.46l5,.7A18.15,18.15,0,0,1,38.65,48a12.75,12.75,0,0,1,.68-2,8.8,8.8,0,0,1,1-1.94c.37-.52.91-1.41,1.52-1.64L37,41.61a22.81,22.81,0,0,0-1.71,4.33c-.49,1.61-.67,3.3-1.3,4.87-.15.39,2.19.76,2.42.79a9.41,9.41,0,0,0,1.76.12c.21,0,.67,0,.77-.21A36.56,36.56,0,0,0,40.09,47c.22-.75.54-1.47.83-2.21.22-.57.31-1.53.74-2l-4.95-.71c-.62,1.53-.48,3.38-.78,5-.17.87-.22,1.74-.32,2.61A6.39,6.39,0,0,1,35.13,52l4.95.7c0-.47-.13-.93-.15-1.4s0-1.1-.07-1.65a12.4,12.4,0,0,0-.14-3c-.23-.6-1.88-.72-2.41-.79-.35,0-2.38-.43-2.54.09a13.54,13.54,0,0,0-.6,3.74c0,.56,0,1.13,0,1.7a2.33,2.33,0,0,1-.11,1.31l4.88.58c-.2-.15-.1-.62-.12-.86,0-.41-.1-.8-.12-1.22s-.21-1.28.17-1.51L34.14,49c.27.18.06,1.6,0,1.87A4.64,4.64,0,0,1,33.45,52a1.49,1.49,0,0,1-.47.39c-.42.22-.81.08.3.13l3.36.64h0l0,.23c.3-.24,0-.09-.33-.11,1.07.07-1.65-.93-2.14-.38a6.6,6.6,0,0,1-.54.51,13.76,13.76,0,0,1-1.31,1c-.42.26-.89.42-1.32.66s.74.57.82.59a12.13,12.13,0,0,0,2.74.43,4.09,4.09,0,0,0,2.24-.53,9.64,9.64,0,0,1,.93-.4c.66-.25,1.31-.17-.22-.3L34.43,54c-.34.53-1,.68-1.59,1a8.71,8.71,0,0,0-1.9,1.2c-.39.38,1.2.69,1.36.72a9.66,9.66,0,0,0,3.12.26,8.56,8.56,0,0,0,2-.75,18.33,18.33,0,0,1,2.05-.88l-4.47-1c-.32.22-.71.27-1,.54s.94.62,1.07.66a8.25,8.25,0,0,0,4.67.12,8.08,8.08,0,0,0,2.49-1.2c.47-.37-1.48-.75-1.65-.78a12.3,12.3,0,0,0-1.91-.23c-.31,0-.93-.1-1.18.1Z"/></g><g class="cls-1"><path class="cls-2" d="M17.35,40.21a6.46,6.46,0,0,0-1.66-1.37c-.36-.22-2.08-1.35-2.49-.75-.22.33-.15.54-.09.91s.06.86.14,1.27c.19,1,.73,1.88,1,2.82s.55,1.85.75,2.79a10.44,10.44,0,0,0,.43,2.24,5.36,5.36,0,0,0,2.47,1.93c.23.11,1.82.8,1.68.07s-.4-1.49-.55-2.25-.26-1.77-.5-2.65a9.93,9.93,0,0,0-1.44-3.78,6.54,6.54,0,0,0-2.22-1.6c-.14-.07-1.56-.72-1.65-.27-.28,1.5.21,3.09.39,4.58a21.27,21.27,0,0,0,1,5.08,4.76,4.76,0,0,0,2.31,2.09c.23.12,2.09,1,1.95.19s-.36-1.45-.45-2.19a20.83,20.83,0,0,1,0-2.5l-4.26-2.28a21.85,21.85,0,0,0,.47,4c.13.66.19,1.33.31,2a5.11,5.11,0,0,1,.29,1.57l.92-.24-.25-.07,1.6.78c.16.13.1.08-.2-.13l-.49-.34-.58-.34c-.46-.25-.28-.13.53.35l1,1.68a5.25,5.25,0,0,1,2.11.63,6.68,6.68,0,0,0,2.08.55c1.5,0-.91-1.86-1.23-2.08a15,15,0,0,0-3-1.34c-.9-.34-1.7-.82-2.62-1.1-.08,0-.81-.23-.89,0-.24.78.88,1.58,1.39,2A15.94,15.94,0,0,0,18,53.92l.78.41.3.15c-.11,0-.28-.17.08.07a8.35,8.35,0,0,0,3.78,1.53.49.49,0,0,0,.49-.12c.41-1-1.13-2.55-1.65-3.27s-1-1.33-1.44-2a9.51,9.51,0,0,1-1.19-1.73l-.92.24.14,0-1.6-.78c-1.59-1.07,0,.09.42.39s1.06.73,1.6,1.09a11.85,11.85,0,0,0,3.48,1.79c.17,0,.74.22.89,0,.4-.63-1-2.24-1.3-2.72s-.55-.83-.84-1.24-.59-.8-.88-1.2-.58-.61-.62-.95l-.52.33a7.73,7.73,0,0,1-1-.42l.21.14.34.23c.23.16.45.31.69.45a4.91,4.91,0,0,0,3.05,1.05.25.25,0,0,0,.2-.32c-.12-1.09-1.38-2.27-2-3.11l-1.27-1.67c-.19-.25-.38-.51-.59-.76a2.35,2.35,0,0,0-.26-.29c-.45-.45-.48-.49-.09-.11l-.92.24c-.4-.13-.58-.34-.11,0a14,14,0,0,0,1.21.79,4.29,4.29,0,0,0,2.5.81.25.25,0,0,0,.2-.33,5.78,5.78,0,0,0-1.64-2.47c-.35-.34-.73-.67-1.12-1-.23-.19-.47-.38-.72-.56-.47-.37-.54-.77.16.26L16,38.9c-1.3-.75-.17-.08.11.1a9,9,0,0,0,1.26.68,5.23,5.23,0,0,0,1.7.51c1,0,.66-1,.39-1.58-.13-.27-.31-.51-.44-.78-.25-.49-.16-.52.4-.65a3.17,3.17,0,0,0,1.43-.49,7.18,7.18,0,0,0,1.07-1.2c.56-.67-3.45-3.62-4.21-2.7-.56.67-.92,1.26-1.81,1.42-.52.1-1.19.06-1.31.7s1.28,1.9.75,2.45l.89,0c-1.06-.25,1.59,1.09.53.37-.37-.24-.75-.47-1.13-.69-.2-.11-2.59-1-1.83.09a8.69,8.69,0,0,0,2,1.91,2.51,2.51,0,0,1,1.08,1.28l.21-.32h-.13l.71.08a5.18,5.18,0,0,1,1.25.67l-.15-.11a12,12,0,0,0-1.11-.75,12.77,12.77,0,0,0-2.74-1.31c-.23-.08-1-.27-.92.24a3.18,3.18,0,0,0,1,1.55c-.14-.16.34.44.36.46.23.3.45.61.69.92.42.55.85,1.09,1.26,1.65.27.37.84.89.89,1.36l.2-.33a3.41,3.41,0,0,1,1.53.66l-.72-.5-.66-.44a7.6,7.6,0,0,0-2.83-1.19c-.24,0-.55,0-.51.33a4.77,4.77,0,0,0,1.16,1.92c.39.52.75,1.06,1.12,1.6s.6.87.88,1.32c.16.25.29.5.45.75s0,.21.1.11l.89,0c.23.07.73.48.23.12l-.51-.35-.73-.49a8.81,8.81,0,0,0-3-1.8c-.14,0-1.11-.27-.92.24A14.3,14.3,0,0,0,17,50c.47.64.93,1.28,1.38,1.94.15.21.9,1,.78,1.31l.48-.12c-.63,0,.51.44.1.11a5.4,5.4,0,0,0-.7-.42c-.25-.15-.51-.29-.77-.43l-.8-.41c-.26-.14-.11-.14,0,0-.22-.13-.23-.14-.06,0a2.54,2.54,0,0,1,.94,1.15l-.89,0c-1.13-.34.32.22.63.36s.7.27,1.05.4c.7.27,1.4.55,2.12.78l-1.6-.78.2.13L18.67,52l.25.12-.48-.18c-.2-.07-.4-.11-.6-.17-.46-.15-.9-.33-1.35-.49a5.42,5.42,0,0,0-2.62-.44c-.85.14,1,1.65,1,1.68a7.83,7.83,0,0,0,1.29.86c.7.39-.84-.57,0,0a8.51,8.51,0,0,0,2.37,1.19c.36.1.85.24.92-.24a5.79,5.79,0,0,0-.29-1.58c-.13-.66-.19-1.33-.31-2a22.08,22.08,0,0,1-.48-4c0-.85-1.68-1.75-2.31-2.08-.32-.17-1.95-1-1.95-.2a19,19,0,0,0,0,2.5c.09.74.31,1.46.45,2.19l4.26,2.28a20.76,20.76,0,0,1-1-4.7c-.17-1.41-.74-3.13-.48-4.54l-3.86-1.88a3.92,3.92,0,0,1,.34,1.25c.16.68.39,1.33.54,2,.3,1.39.58,2.81.86,4.19l4.15,2a4.69,4.69,0,0,1-.08-1.07c-.05-.31-.11-.61-.18-.91q-.32-1.26-.69-2.49c-.24-.84-.66-1.64-.91-2.48a5.82,5.82,0,0,1-.14-1c0-.33-.26-.79-.06-1.08l-2.49-.74.16.09L13.7,39l.12.14a6.32,6.32,0,0,0,3,1.91c.86.25,1.15-.13.55-.85Z"/></g><g class="cls-1"><path class="cls-3" d="M4.5,11.83A10.71,10.71,0,0,0,2.58,16.2a28.28,28.28,0,0,0-.69,5.12c0,1.76-.33,4,.47,5.65.16.34.14.28,0-.18a4.94,4.94,0,0,0,.14.75c.08.34.21.68.31,1,.22.85.09,1.67.23,2.51a4.32,4.32,0,0,0,1.24,2.22c.33.34,1.32,1.35,1.9,1.1A8.9,8.9,0,0,0,7.86,33.3a7.86,7.86,0,0,1,2.73-1.24,10.77,10.77,0,0,0,2.23-.91,15.84,15.84,0,0,0,2.45-1.28c1.7-1.19,2.87-2.95,4.71-3.93,1.58-.84,3.54-.1,5-1.37a17.09,17.09,0,0,0,3.4-3.85,10.37,10.37,0,0,0,1.09-2.34,3.25,3.25,0,0,0-1.15-3,4.66,4.66,0,0,0-1.3-1,1.43,1.43,0,0,0-.62-.19s.64.43.25.15a4.22,4.22,0,0,0-2.73-.6c-2.17-.09-4.43.06-6.58-.19a11,11,0,0,0-3.08.19c-1.09.16-2.23-.1-3.32,0-1.79.17-3.88.5-5.52-.37l1.38,1.15-.09-.1L7.53,17c.61-.46,2.05-.16,2.77-.16a27,27,0,0,1,3.14.51l-2.36-4c-1.07,0-1.89-.51-3-.22a4,4,0,0,0-2.24,1.43,10.63,10.63,0,0,0-1.38,2.57A18.06,18.06,0,0,1,3,20.49L6.4,24.06c.6-2.15,2.08-3.79,3-5.78l-3.56-3A18.36,18.36,0,0,1,5,19.77c-.34,1.23-.5,2.54-.92,3.74l3.54,3.32a44.17,44.17,0,0,1,2.21-6.35c.62-1.24-2.77-4.76-3.54-3.32a20.93,20.93,0,0,0-1.36,4.37A22.49,22.49,0,0,0,4.18,26c0,.85.9,1.93,1.47,2.46.29.26,1.55,1.32,1.95.75.83-1.19,1-3.1,1.29-4.48a47.66,47.66,0,0,1,2-5.72L7.32,15.68a40.34,40.34,0,0,1-1.78,6.11l.77-.32.78.4,1.33,1.4c.12.17.26.93.34.63a2.85,2.85,0,0,0-.08-.28c0-.18-.11-.61-.16-.88-.12-.76-.21-1.53-.3-2.29-.2-1.76-.43-3.5-.73-5.24A4.56,4.56,0,0,0,6,12.75c-.36-.33-1.44-1.26-1.95-.75a6.2,6.2,0,0,0-1,2A20.57,20.57,0,0,0,1.88,16.5,14,14,0,0,0,1,21.38l3.29,1.69a3.74,3.74,0,0,1,.5-2.28L1.33,17.57c.26,2.06-.12,4.16.19,6.22A21.89,21.89,0,0,0,3,29.62c.33.71,1.81,2.7,2.85,2.4S7,29.73,7.24,28.83A17,17,0,0,1,9,24.39L6.17,22.62c-.57-.83-.39-1-.36-.14,0,.44,0,.88,0,1.32,0,.84-.12,1.68-.17,2.52-.05,1,2.87,4.5,3.57,3,.53-1.16.77-2.5,1.22-3.7.54-1.41,1-2.86,1.53-4.27l-3.56-3a9.8,9.8,0,0,1-.3,3.23c-.23,1.2-.38,2.41-.59,3.61l3.54,3.32a26.45,26.45,0,0,1,1.44-5c.23-.63.49-1.26.7-1.9a3.12,3.12,0,0,1,.48-1.24l-3.42-3.21a18.3,18.3,0,0,1-.42,3.53c-.17,1.18-.3,2.35-.54,3.52l3.54,3.32A21.51,21.51,0,0,1,14.13,23c.2-.61.42-1.22.61-1.84.12-.38.16-.95.52-1.16l-3.39-3.57a49.73,49.73,0,0,1-.74,6.23l3.56,3a12.73,12.73,0,0,1,.74-2.43,6.67,6.67,0,0,1,1.09-2.41L13.1,17.58a30.18,30.18,0,0,1,0,4.94c0,1,2.94,4.51,3.56,3a17.3,17.3,0,0,0,.59-2.81,23.27,23.27,0,0,1,.77-3l-3.57-3a11.08,11.08,0,0,1,.17,3.34l3.56,3c.08-1.24.27-2.47.42-3.7l-3.26-2c0,.05.06.92.1,1.2a11.2,11.2,0,0,0,.34,1.5,6.06,6.06,0,0,0,2.69,3.32c.43.26.93.32,1.18-.16a8.63,8.63,0,0,0,.55-3.05,7.85,7.85,0,0,1,.32-1.53,7.54,7.54,0,0,0,.1-1.57l-.18.6.14-.22c.9-1.39-2.61-4.77-3.24-3.81A2.31,2.31,0,0,0,17,14.83c-.06.59-.33,1.1-.38,1.7a9,9,0,0,1-.53,3.32l1.18-.16-.13-.09,1.77,1.69c.42.63.14.24.13,0a10.41,10.41,0,0,0-.16-1.12,5.62,5.62,0,0,0-.57-2.12A5.35,5.35,0,0,0,16.47,16c-.28-.17-1.32-.68-1.41,0-.18,1.47-.37,2.93-.47,4.4-.06.95,1.05,2.13,1.7,2.65.34.28,1.64,1.21,1.87.32a12.75,12.75,0,0,0-.12-4,4.45,4.45,0,0,0-1.7-2.66c-.39-.31-1.56-1.16-1.87-.31a25,25,0,0,0-.76,3,18.18,18.18,0,0,1-.59,2.81l3.57,3a30.18,30.18,0,0,0,0-4.94,4.4,4.4,0,0,0-1.47-2.46c-.3-.28-1.51-1.3-1.94-.75a8.24,8.24,0,0,0-1.39,2.91A13.31,13.31,0,0,0,11.1,23c0,1,1,2.1,1.7,2.65.33.27,1.66,1.21,1.87.31a49.57,49.57,0,0,0,.74-6.22c.11-1.18-1.92-4.4-3.39-3.56-.79.45-1,2.29-1.29,3.07A23.58,23.58,0,0,0,9.3,24.21,3.72,3.72,0,0,0,10.74,27c.29.27,1.89,1.5,2.1.51.27-1.31.4-2.64.61-4a18.62,18.62,0,0,0,.4-3.79c0-.87-2.34-4.28-3.41-3.22-.74.73-1,2.25-1.32,3.19a28,28,0,0,0-1.6,5.44c-.16,1,.73,2.15,1.44,2.81.28.26,1.92,1.51,2.1.51.24-1.33.41-2.67.68-4A11.26,11.26,0,0,0,12,21a4.47,4.47,0,0,0-1.7-2.65C9.89,18,8.75,17.15,8.43,18c-.53,1.42-1,2.86-1.53,4.27-.46,1.21-.69,2.54-1.22,3.7l3.56,3c.11-2.21.63-4.63-.7-6.58-.17-.26-2.21-2.68-2.8-1.77a14.79,14.79,0,0,0-1.65,3.7c-.23.71-.46,1.41-.65,2.13,0,0-.35,1.6-.3,1.58L6,30.39a15.62,15.62,0,0,1-1-4.93c-.13-1.74.14-3.55-.08-5.27a4.46,4.46,0,0,0-1.47-2.46C3.11,17.41,2,16.46,1.51,17A4.46,4.46,0,0,0,.7,19.4a5,5,0,0,0,.55,2.9,5,5,0,0,0,2.09,2.2c.57.27,1.23.29,1.21-.51a11.86,11.86,0,0,1,.87-4.17,14.13,14.13,0,0,1,.88-1.89,8.38,8.38,0,0,1,1-2.13L3.9,12.59c.4,2.3.61,4.6.94,6.91a15.78,15.78,0,0,0,.54,2.72c.4,1.22,1.56,3,2.94,3.21.36.05.6,0,.76-.32A40.68,40.68,0,0,0,10.86,19c.36-1.34-3-4.78-3.54-3.32A52.38,52.38,0,0,0,5.45,21c-.22.9-.4,1.82-.64,2.72a7.12,7.12,0,0,1-.45,1.72L7.77,28.6a19.14,19.14,0,0,1,.83-4.17,20.38,20.38,0,0,1,1.24-3.95L6.3,17.16a43.39,43.39,0,0,0-2.21,6.35c-.43,1.38,3.05,4.73,3.54,3.32s.69-2.8,1-4.16a20.19,20.19,0,0,0,.75-4.74c0-1-2.85-4.53-3.57-3-.91,2-2.39,3.62-3,5.78-.3,1.07,2.64,4.68,3.39,3.56,1.16-1.73,1.47-3.93,2.64-5.65a3.41,3.41,0,0,1,1.9-1.5c1-.29,2,.19,3,.22s.14-1.63,0-1.89c-.44-.75-1.39-2-2.34-2.11A9.49,9.49,0,0,1,9.85,13a8.16,8.16,0,0,0-2.26-.17c-1.06,0-2.39-.3-3.3.38-.73.55.52,2.21.83,2.57a7.74,7.74,0,0,0,5,2.28,15.33,15.33,0,0,0,3.1-.19c1.09-.12,2.18,0,3.27,0a17.06,17.06,0,0,1,3.12-.24c1.11.11,2.21.08,3.32.08s2.43.08,3.64.12a4,4,0,0,0,.77,0c-.42-.31-.44-.33-.06-.07a2.92,2.92,0,0,0,1.28.49l-1.33-.83.16.13L26,15a4.92,4.92,0,0,1-.57,1.34,9.31,9.31,0,0,1-1,1.66,18.34,18.34,0,0,1-2.26,2.4,4.28,4.28,0,0,1-3.25,1,5.9,5.9,0,0,0-3.35,1.43c-1,.84-1.86,1.89-2.9,2.73a13.05,13.05,0,0,1-3.06,1.75c-1.09.46-2.2.76-3.29,1.23a8.77,8.77,0,0,0-1.64.91,8.4,8.4,0,0,1-1.18.88l3.15,3.32c-.13-.76,0-1.52-.16-2.29S6,29.86,5.86,29.09A9.1,9.1,0,0,0,5.45,28c.37,1.07.07-.24,0-.52-.06-.88,0-1.78,0-2.66a21.37,21.37,0,0,1,.57-5.05,14.36,14.36,0,0,1,.56-2.09,10.64,10.64,0,0,1,1.12-2c.95-1.33-2.54-4.78-3.24-3.8Z"/></g><g class="cls-1"><path class="cls-3" d="M24.67,15.42c0,.21,0,.42,0,.63l0-.29a10.6,10.6,0,0,1-.16,1.11,10.71,10.71,0,0,0-.11,1.39,2.42,2.42,0,0,0,.13.65,5.5,5.5,0,0,0,.27.81,9,9,0,0,0,.88,1.72l.3.41a1.64,1.64,0,0,0,.5.48h.18a.43.43,0,0,0,.12-.43,2.62,2.62,0,0,1,0-.28l0,.29c0-.45.11-.89.18-1.33a8.63,8.63,0,0,0,.1-1.52,2.88,2.88,0,0,0-.13-.65,5.5,5.5,0,0,0-.27-.81,9,9,0,0,0-.89-1.72l-.29-.42A1.76,1.76,0,0,0,25,15h-.18a.45.45,0,0,0-.11.43Z"/></g><g class="cls-1"><path class="cls-3" d="M32.19,16.44a2.07,2.07,0,0,0-1,1.44.25.25,0,0,1-.1.38l-.11.18a3.12,3.12,0,0,0-.3.89,3.69,3.69,0,0,0,.23,3.11,3.6,3.6,0,0,0,2.56,1.32c.62.07,2,0,2.11-.77s-.07-1.14.32-1.73.46-.54,1.07-.64a5.68,5.68,0,0,0,1.23-.23l.3-.08c-1.59-.78-2.07-.89-1.44-.31a13,13,0,0,0,1.16,1.5,5.51,5.51,0,0,1,.94,3.83c0,.52.1,1.36-.42,1.7a1,1,0,0,1-.5.12c-1,.07-.8-.37.61.28l1,.62a5.27,5.27,0,0,1-.95-1.13l-4.21.56c1.25,1.13,3.43,1.76,4.89.69l-1,.24a6.06,6.06,0,0,0,.71,0,3.5,3.5,0,0,0,1.23-.28c.37-.17.66-.71.93-.82l-4.34-1.49c.4,1.13-.55,1.1-1.12,1.73-.77.85-.06,1.65.53,2.33a33.37,33.37,0,0,0,3.18,3.84A16.85,16.85,0,0,0,42,35.36a5.26,5.26,0,0,0,.71.36l.41.15c.56.2.43.13-.4-.2.06.25,1,.69,1.26.83l.54.28c-.36-.2-.38-.2-.07,0a5.08,5.08,0,0,0,.61.42,8.35,8.35,0,0,1,.93.62,5.88,5.88,0,0,0,2.52,1.58c.75.19,2,.34,2.59-.33a6.58,6.58,0,0,0,1.12-1.85c.34-.82.84-1.55,1.16-2.37A36.2,36.2,0,0,0,55,29.93a10.75,10.75,0,0,0,.16-1.39,11.15,11.15,0,0,1,.3-1.27,14.31,14.31,0,0,0,.44-2.67c0-.92,0-1.83,0-2.75a2.35,2.35,0,0,0-1.29-2.28l.74.7c-1.56-2.66-5.17-2.09-7.69-1.77-2.77.34-5.66-.32-8.44.09a1,1,0,0,0-.79,1.47A26.29,26.29,0,0,0,40.19,23a4.14,4.14,0,0,1,.91,2.82A13,13,0,0,1,40,28.3c-.46.95-1.2,1.85-1.15,2.94.07,1.41,2.89,1.94,3.88,1.65,1.51-.44,2.09-2.34,2.72-3.6.95-1.87,1.79-4.53,1.13-6.6l-4.84-.56a18.54,18.54,0,0,1,.62,6.25c0,1.95-.57,4-.41,5.91.14,1.63,4.18,2.51,4.84.92a36.53,36.53,0,0,0,3-14.42l-4.84-.55a29.18,29.18,0,0,1,.18,7.35c-.15,1.15-.4,2.28-.6,3.41a9.7,9.7,0,0,1-.4,2.71L48.93,35a13.57,13.57,0,0,1,1-3.08c.43-1.26.82-2.55,1.13-3.84a36,36,0,0,0,.67-3.87,22,22,0,0,0,.37-3.62l-4.68-.18A3.78,3.78,0,0,1,47.33,22l1-.24c1.3-.05,1.86.53.85,0-.29-.15-.59-.29-.9-.43-.57-.26-1.13-.51-1.71-.74a32.46,32.46,0,0,0-3.92-1.36c-.62-.17-1.25-.27-1.87-.38-.3-.05-.59-.08-.88-.14.19,0,.6.29,0,0a15.24,15.24,0,0,0-3.54-1.26c-2.15-.58-5.06-.58-5.79,2a9.78,9.78,0,0,0-.15,3.37,6.7,6.7,0,0,0,.92,2.54l1.34-1.54-.2,0c-.84.08-1.91.53-1.34,1.54a3.71,3.71,0,0,0,3.18,1.34l.2,0c.87-.08,1.88-.49,1.34-1.54,0-.09-.5-.85-.32-.4a3.5,3.5,0,0,1-.15-.64,7.64,7.64,0,0,1-.14-1.72,6.63,6.63,0,0,1,.15-1.66c.07-.26.42-.76.27-.68s-.11,0,.15.06.61.2.92.29c.08,0,.95.27.53.12s.53.3.69.37a21.4,21.4,0,0,0,4,1,23.29,23.29,0,0,1,3.53,1.29,13.68,13.68,0,0,0,3.86,1.54c1.23.13,2.56-.22,2.83-1.58a3.45,3.45,0,0,0-.27-2.85A3.79,3.79,0,0,0,49,18.88c-.8,0-1.85.15-1.81,1.15a20.82,20.82,0,0,1-.44,3.49,32.38,32.38,0,0,1-.68,3.64c-.3,1.16-.65,2.33-1,3.47a12.5,12.5,0,0,0-1,3.08c-.15,1.92,4,3,4.83,1.29a9.7,9.7,0,0,0,.4-2.71c.22-1.26.5-2.51.65-3.79a33.74,33.74,0,0,0-.22-7.71c-.19-1.69-4.89-2.66-4.84-.55a28.65,28.65,0,0,1-.87,6.89A41,41,0,0,1,42,33.92l4.83.93A15.75,15.75,0,0,1,47,32.12c.1-1.06.15-2.12.17-3.18a19.07,19.07,0,0,0-.63-6.25c-.34-1.08-1.7-1.59-2.73-1.7-.6-.07-2.46.06-2.11,1.14.53,1.66-.17,3.82-.86,5.37-.36.77-.75,1.57-1.17,2.31.33-.57-.08.09-.14.19a2.57,2.57,0,0,1-.45.53l.77-.41-.08,0,3.88,1.65c0-.34.5-.92.64-1.19.28-.53.54-1.07.78-1.61A6.54,6.54,0,0,0,46,26.14c-.07-2.43-2.15-4.18-3.07-6.27l-.8,1.46a10.78,10.78,0,0,1,1.38.06h1.81c1.15,0,2.3,0,3.45,0,.91,0,1.76-.26,2.66-.28a3.94,3.94,0,0,0,.77,0h.33l-1.78-.72c0,.37.74.75,1,.94L51,20.61a3.13,3.13,0,0,1,0,.81c0,.41,0,.83,0,1.24a11.63,11.63,0,0,1-.3,2.56c-.3,1.49-.45,3-.87,4.46s-.84,2.6-1.34,3.9c-.27.69-.69,1.29-1,2a5.88,5.88,0,0,1-.93,1.61l2.58-.33c1.11.69,1.43.81,1,.37l-.27-.28a8.1,8.1,0,0,0-1.14-.86c-.66-.45-1.33-.89-2-1.29-.33-.2-.65-.48-1-.68s-.51-.28-.77-.41c-.83-.31-.84-.29,0,.06-.05-.17-.61-.4-.74-.48a6.5,6.5,0,0,1-.84-.65A8.13,8.13,0,0,1,42,31.16a16.36,16.36,0,0,0-1.41-2c-.65-.64-.28.31-.22.33.25.1.89-.58,1-.72a2.46,2.46,0,0,0,.49-2.42c-.55-1.55-2.95-2.05-4.34-1.49a1.71,1.71,0,0,0-.66.47c-.68.78,1.22.23.32.16a2.85,2.85,0,0,0-2.2.74l.77-.41-.25,0,1.81.08-.24-.08,1.61.83-.19-.17a4,4,0,0,0-3.15-.95c-.8.13-1.56.61-1.07,1.51a6.19,6.19,0,0,0,7.51,2.61A2.93,2.93,0,0,0,44,26.62a8.94,8.94,0,0,0-.64-4.41A14.45,14.45,0,0,0,42,20.49,17.15,17.15,0,0,0,40.82,19a5.6,5.6,0,0,0-4.7-1.5c-.64.08-1.25.27-1.89.37a4.77,4.77,0,0,0-2.07.67,3.67,3.67,0,0,0-1.09,1.29c-.44.7-.22,1.13-.36,1.88l4.68.55c-.31-.47,0-1.11.08-1.62a2.46,2.46,0,0,1,.25-.69,2.55,2.55,0,0,0,.25-.59c0-.13-.09-.39,0-.48,2-1.3-2.4-3.34-3.82-2.42Z"/></g><g class="cls-4"><path class="cls-5" d="M22.39,17.69a6.14,6.14,0,0,0-1.05,0c-.5.06-.8.63-1,1.06A5.28,5.28,0,0,0,20.16,20a4.78,4.78,0,0,0,0,1,1.81,1.81,0,0,0,.52,1.25.78.78,0,0,0,.4.19.93.93,0,0,0,.64-.19,2.3,2.3,0,0,0,.71-.89,5.38,5.38,0,0,0,.34-.95c0-.21.07-.43.1-.65a4.92,4.92,0,0,0-.05-1.38,1.91,1.91,0,0,0-.52-1.05.44.44,0,0,0-.58,0,1.75,1.75,0,0,0-.52.81A2.78,2.78,0,0,0,21,19.34a1.18,1.18,0,0,0,.29.77l.08.09L21.25,20a1,1,0,0,1,.12.23l-.1-.26a1.67,1.67,0,0,1,.08.32L21.3,20a1.87,1.87,0,0,1,0,.34V20a2.43,2.43,0,0,1,0,.38l.06-.4a1.89,1.89,0,0,1-.05.23l.11-.39a1.07,1.07,0,0,1-.07.19l.15-.34a1.62,1.62,0,0,1-.1.18l.18-.27a1,1,0,0,1-.13.16l.2-.2a.79.79,0,0,1-.15.12l.2-.11-.16.05.2,0a.57.57,0,0,1-.18,0l.18.09a.7.7,0,0,1-.19-.16l.14.19a.91.91,0,0,1-.07-.14l.1.26a.65.65,0,0,1,0-.2l0,.32a1.51,1.51,0,0,1,0-.3v.36a6.48,6.48,0,0,1,.06-.76l-.06.4s0,0,0-.07l-.1.38a.06.06,0,0,1,0,0l-.15.33,0,0-.17.27v0l-.19.2,0,0-.21.11a1.07,1.07,0,0,1,.35-.06h-.2c.22,0,.44,0,.66,0a.36.36,0,0,0,.3-.07.72.72,0,0,0,.3-.25,2.58,2.58,0,0,0,.43-1,2.51,2.51,0,0,0,0-1.09l-.1-.26a.48.48,0,0,0-.32-.27Z"/></g><g class="cls-4"><path class="cls-5" d="M37.67,21a1.05,1.05,0,0,0-.34-.2.86.86,0,0,0-.23-.06,1.24,1.24,0,0,0-.82.23,2,2,0,0,0-.49.62,3.18,3.18,0,0,0-.34,1.11,6.47,6.47,0,0,0,0,1.08V23.4a6.65,6.65,0,0,0,0,1.89,1.77,1.77,0,0,0,.21.49,1.11,1.11,0,0,0,1.15.47,2.09,2.09,0,0,0,1.22-.8,3.09,3.09,0,0,0,.46-.71,4.85,4.85,0,0,0,.41-1.18,2.52,2.52,0,0,0-.56-2.43.45.45,0,0,0-.58,0,1.8,1.8,0,0,0-.52.81,2.8,2.8,0,0,0-.17,1.15,1.11,1.11,0,0,0,.29.76,1.21,1.21,0,0,1,.16.16l-.14-.19a.94.94,0,0,1,.12.22l-.1-.26a.61.61,0,0,1,0,.18l0-.32a1,1,0,0,1,0,.17v-.36a1,1,0,0,1,0,.17l.06-.39c0,.06,0,.11,0,.17l.11-.38a2,2,0,0,1-.08.22l.15-.34a2.49,2.49,0,0,1-.15.28l.18-.28a2,2,0,0,1-.26.32l.2-.2a1.93,1.93,0,0,1-.36.28l.2-.11a1.21,1.21,0,0,1-.42.13l.2,0a.85.85,0,0,1-.42-.08l.18.09a.43.43,0,0,1-.17-.13l.15.19-.1-.17.1.26a1.46,1.46,0,0,1-.05-.2l.05.32c0-.11,0-.21,0-.31v.36c0-.19,0-.37,0-.56s0-.6,0-.9v.37a1,1,0,0,1,0-.17l-.06.4a.44.44,0,0,0,0-.1l-.11.38,0-.06-.15.34,0-.09-.17.28a.1.1,0,0,1,0-.05l-.19.19.1-.07-.21.11a.89.89,0,0,1,.28-.07h-.21a.63.63,0,0,1,.36.07l-.18-.09a.27.27,0,0,1,.12.09c.16.18.44.08.59,0a1.73,1.73,0,0,0,.51-.81A2.62,2.62,0,0,0,38,21.76a1.34,1.34,0,0,0-.28-.77Z"/></g><g class="cls-6"><path class="cls-7" d="M26,55.86a48.42,48.42,0,0,0,5.1-.53,28.19,28.19,0,0,0,6.47-1.45l0-2.8c-.61.47-1.31.73-1.95,1.14s-1.44.64-2.11,1.1c-1.82,1.23-3.86,1.55-5.91,2.21-.91.29-1.29,3.2-.22,2.91,2.34-.64,4.7-1.08,7-1.63a10.34,10.34,0,0,0,2.6-.87,16.38,16.38,0,0,0,2.64-1.44c.46-.41,1.27-2.61.22-2.81a8.6,8.6,0,0,1-2-.47c-.66-.29-1.29-.64-2-.88C35,50,33.6,49.7,33,49l-.6,2.83c.69-.17,1.45.13,2.15,0A2,2,0,0,0,36,50c.11-.52.16-1.36-.41-1.62-.73-.34-1.41-.8-2.12-1.17L33,50.12c1.47-.75,3.5.68,4.24-1.36a2.54,2.54,0,0,0-.11-2.17,5.46,5.46,0,0,0-.53-.64,2.52,2.52,0,0,0-.33-.39c-.18-.14-.12-.49-.06.11l-.89,2.06c.72-.24,1.43.17,2.13-.17s1-1.59.84-2.39c-.18-1.12-1.17-1.34-1.58-2.26l-.34,2.34c-.19.08-.14.1.16,0l.52.05a1.94,1.94,0,0,0,.83-.11,2.22,2.22,0,0,0,.74-2.65c-.14-.32-.63-.64-.71-.94l-.64,2.27a6.61,6.61,0,0,1,1.46-.42c.77-.28,1.07-1.7.84-2.39a2.78,2.78,0,0,0-1.21-1.51l-.6,2.83c.45-.21,1-.19,1.36-.52a2.51,2.51,0,0,0,.71-1.9c0-1.62-1.78-2.54-3-3.32l-.8,2.84c1,.26,2,1,3.09.63.83-.3,1.39-2.53.42-2.92a16.23,16.23,0,0,1-3.47-1.71,16.3,16.3,0,0,1-2.86-2.89,41,41,0,0,1-4.29-7L27.71,28a38.29,38.29,0,0,0,6.45,6.4c1.23,1,2.38,2.16,3.59,3.21s2.53,1.88,3.64,3l1-2.75c-1.91-1.8-3.71-3.8-5.48-5.73-.86-.93-1.69-1.88-2.48-2.87-.41-.52-.81-1-1.26-1.53-.23-.24-1-.68-1.14-1L30.79,29c2.54,2.53,4.63,5.5,7.25,8,1.35,1.26,2.77,2.47,4.1,3.74.59.57,1.12,1.2,1.75,1.72s1.37.76,1.91,1.3c.72.72,1.7-2,1-2.75A17.76,17.76,0,0,0,45,39.78c-.69-.55-1.27-1.23-1.91-1.84-1.33-1.28-2.74-2.49-4.09-3.75-2.62-2.45-4.72-5.42-7.25-7.94-.82-.82-1.37,1.85-1.22,2.3.33,1,1.21,1.44,1.89,2.21,1,1.12,1.86,2.31,2.85,3.41,2,2.17,4,4.39,6.09,6.4.76.71,1.7-2.06,1-2.75-1-1-2.21-1.76-3.28-2.67-1.23-1-2.39-2.16-3.61-3.22-2.3-2-4.69-3.83-6.51-6.32-.84-1.15-1.66,1.63-1.26,2.38a43.27,43.27,0,0,0,4.57,7.39,15.38,15.38,0,0,0,3,3A18.44,18.44,0,0,0,39,40.16l.43-2.92c-.83.3-1.89-.44-2.69-.65-1-.25-1.49,2.38-.8,2.84s2.17,1.13,2.44,1.92V40.27l0,.14.63-1.2c-.21.17-.7.18-.95.3-.75.33-1.37,2.24-.6,2.83.17.13.67.41.74.62L39,40.58a7.8,7.8,0,0,0-1.87.64,2.41,2.41,0,0,0-.63,2.28c.17.64.66.89.91,1.46l.74-2.64c-.5.23-1.09-.1-1.62.08a1.86,1.86,0,0,0-1.06,1.36,2.16,2.16,0,0,0,.28,2c.33.46,1,.74,1.13,1.31l.84-2.38c-.64.31-1.43-.07-2.13.17s-.95,1.45-.89,2.06a2.44,2.44,0,0,0,.55,1.33c.13.17.28.32.42.48.64.79,0,.33.39-.95l.51-.81c-.29.29-1.2,0-1.59,0a3.44,3.44,0,0,0-1.71.25c-.8.42-1.4,2.42-.42,2.93.72.37,1.39.82,2.13,1.16l-.41-1.62,0,.16.43-1c-.15.21-1.91-.08-2.33,0-1,.25-1.13,2.2-.6,2.83a6.77,6.77,0,0,0,2.93,1.47,15.39,15.39,0,0,1,1.93.8,9.44,9.44,0,0,0,2.38.65l.22-2.81a15.8,15.8,0,0,1-2.3,1.24,10.54,10.54,0,0,1-2.91.94c-2.23.52-4.45.93-6.67,1.54l-.22,2.91c2.05-.66,4.2-1,6-2.22,1.38-.93,3-1.41,4.36-2.46.49-.39,1.14-3.17,0-2.8a27.65,27.65,0,0,1-6.27,1.42,42.68,42.68,0,0,1-4.9.54c-1.08,0-1.56,2.91-.62,2.94Z"/></g><g class="cls-6"><path class="cls-7" d="M9.17,35.2c.38-.33,1.07-.23,1.55-.33a11.7,11.7,0,0,0,2.07-.77,20,20,0,0,0,2-.84c.52-.28.95-.86,1.52-1l-.18-2.6a2.82,2.82,0,0,1-1.13.86c-.62.33-1.23.69-1.85,1-1.11.59-2.28,1.08-3.4,1.65a1.91,1.91,0,0,0-.86,1.51c0,.29-.1,1.43.44,1.42A11.13,11.13,0,0,0,11.73,36c.65-.15,1.29-.33,1.93-.49.42-.11.84-.24,1.27-.33a4.41,4.41,0,0,1,.81-.13c.18,0,.46.1.62.07q.55-2.34-.09-1.44a3.83,3.83,0,0,1-.28.29,6.56,6.56,0,0,1-.67.62,11,11,0,0,1-1.79.88c-1.32.65-2.45,1.68-4,1.82l-.22,2.91a8.16,8.16,0,0,1,3.37-.5c.5,0,1.84-.34,2.23.05l-.12-1.91c.37-.43.4-.56.08-.41l-.33.1c-.28.12-.51.29-.78.43a10.61,10.61,0,0,1-2.24.7c-.79.24-1.18,2-.74,2.65a2.48,2.48,0,0,0,1.77,1c.49.08,1.46-.22,1.78.18l.21-2.51c-.35.39-1.26.36-1.73.52-.85.28-1,1.68-.84,2.39.16,1,1.18,1.32,1.92,1.77.38.23.69.57,1.07.81a6.07,6.07,0,0,0,.79.34c.09.05.32.23.37.24-.33-1.07-.18-1.74.46-2l-.09,0-.45.12a7.61,7.61,0,0,1-1,.08,11.33,11.33,0,0,0-1.65.06c-.83.19-1.29,2.33-.61,2.83a8,8,0,0,0,2.66.87l.22-2.81c-1,.6-2.39.24-3.47.69-.69.29-1,1.41-.89,2.07A3.77,3.77,0,0,0,13,50.38c.76.71,1.72-2.07,1-2.75-.17-.16-1-.71-1-1L12,48.74c1.26-.53,2.65-.19,3.88-.91.64-.38,1.15-2.52.22-2.81a6.9,6.9,0,0,1-2.3-.69l-.6,2.83c1.39-.31,3.5.45,4.21-1.5a2.71,2.71,0,0,0,0-2,1.89,1.89,0,0,0-1.17-.93c-.57-.25-1-.71-1.55-1-.27-.15-.55-.29-.82-.46L13.59,41c-.13-.1-.16-.26-.13-.1l-.84,2.38c1-.32,1.8-.32,2.52-1.14a2.23,2.23,0,0,0,.21-2.52c-.43-.53-1-.33-1.62-.33s-1.38-.06-1.65-.45l-.75,2.64c.57-.16,1.16-.25,1.72-.45a12.83,12.83,0,0,0,1.22-.64c.87-.39,1.41-.56,1.77-1.56A2,2,0,0,0,15.92,37c-.57-.6-1.91-.31-2.63-.25-1.28.1-2.55-.07-3.73.53-.74.37-1.51,3-.22,2.91a5.92,5.92,0,0,0,2.49-.95c.87-.51,1.73-.92,2.63-1.36,1.5-.73,3.11-2.22,3.29-4s-1.18-2-2.6-1.65c-.6.13-1.18.31-1.77.44s-1.05.3-1.59.42a9.22,9.22,0,0,1-1.82.09L9.55,36.1c1.28-.66,2.6-1.21,3.86-1.91,1.1-.6,2.6-1.15,3.32-2.25.25-.38,1-2.91-.18-2.6-.63.16-1,.68-1.55,1a14.26,14.26,0,0,1-2.31,1,8.25,8.25,0,0,1-2.16.69,2.68,2.68,0,0,0-1.55.5,2.43,2.43,0,0,0-.68,2c0,.41.33,1.2.87.73Z"/></g><g class="cls-6"><path class="cls-7" d="M16.35,31.86c1.71-1.21,3.56-2.18,5.36-3.24a32.72,32.72,0,0,0,5-3.79,2.45,2.45,0,0,0,.69-2c0-.46-.32-1.14-.87-.73s-1,.57-1.48.95-.83.87-1.3,1.26a14,14,0,0,0-1.31,1.11c-.46.49-.87,1-1.33,1.54-.88,1-1.74,1.89-2.56,2.9a37,37,0,0,0-2.54,2.78,2.68,2.68,0,0,0-.49,1.57c0,.31,0,1,.46,1a3.92,3.92,0,0,0,2.45-.77c1.06-.6,2.09-1.25,3.15-1.84A22.33,22.33,0,0,0,27,29.18a2.5,2.5,0,0,0,.49-1.76c0-.28-.21-1.06-.66-.84-1.07.5-2,1.18-3,1.78a11.54,11.54,0,0,0-2.64,1.52,2.53,2.53,0,0,0-.68,1.95c0,.37.36,1.25.87.73a12,12,0,0,1,3.42-2.17c.62-.3,1.21-.65,1.82-1a10.64,10.64,0,0,0,1.81-.84c.62-.46,1.06-2.12.4-2.72a3.73,3.73,0,0,0-2.3-.68c-1.09,0-1.55,2.93-.63,2.94a8.42,8.42,0,0,1,1.42.24,7.21,7.21,0,0,0,1.54,0c.73,0,1.64.21,2.2-.37a2.88,2.88,0,0,0,.56-2.93c-.24-.55-.76-.9-1-1.43s-.89-.06-1.1.32a2.41,2.41,0,0,0-.17,2.06A7.14,7.14,0,0,0,30,27c.08.1.14.23.22.33q1.39-1.95.3-1.89l-.33,0c-.61,0-1.22.06-1.83,0s-1.26-.3-1.91-.3l-.63,2.94a3.11,3.11,0,0,1,1.94.49l.4-2.72a12.65,12.65,0,0,1-1.75.8c-.63.35-1.26.68-1.91,1a11.81,11.81,0,0,0-3.39,2.19l.19,2.68a10.32,10.32,0,0,1,2.42-1.38c1-.55,1.84-1.22,2.85-1.69l-.18-2.6a19.83,19.83,0,0,1-4.75,3c-1,.53-1.9,1.11-2.85,1.66-.59.35-1.42.94-2.13.82l0,2.61A32.17,32.17,0,0,1,19,32.39c.83-1,1.66-2,2.55-2.91.41-.44.78-.91,1.18-1.35a13.06,13.06,0,0,1,1.43-1.25c.39-.35.72-.77,1.11-1.11s1-.59,1.48-.94l-.18-2.69a33.3,33.3,0,0,1-5.05,3.79c-1.8,1.06-3.65,2-5.35,3.25a2.33,2.33,0,0,0-.69,1.95c0,.47.32,1.13.87.73Z"/></g><g class="cls-1"><path class="cls-3" d="M21.44,49.07a22.44,22.44,0,0,1,2.6.57c.53.06,1.06.15,1.58.22s1,0,1.56.07c1.07.09,1.57-2.52.63-2.93s-1.71-.83-2.58-1.18-1.95-.67-2.91-1l-.63,2.93c1,.2,2,.59,3,.87a15.26,15.26,0,0,0,3,.63c.95.05,1.59-2.38.81-2.84-1.11-.66-2.33-1.19-3.48-1.78-.56-.28-1.11-.57-1.67-.84A5.27,5.27,0,0,1,22,43.11l-.4,2.72a9.86,9.86,0,0,1,1.6.44c.76.21,1.52.44,2.28.67l1.94.56A5.66,5.66,0,0,0,29,48c.57,0,.85-.65,1-1.12s.3-1.44-.17-1.72c-1.13-.66-2.36-1.16-3.53-1.76-.62-.32-1.25-.62-1.87-.93a7.25,7.25,0,0,1-1.73-.89l-.6,2.83c.51-.13,1.38.36,1.86.49.79.23,1.58.42,2.36.66s1.45.36,2.18.54a2,2,0,0,0,1.14.13,2.11,2.11,0,0,0,.6-2.83,14.1,14.1,0,0,0-3.25-2c-.55-.31-1.11-.61-1.67-.91-.31-.16-.61-.34-.92-.52,0,0-.61-.35-.5-.18L23,42.39a4.09,4.09,0,0,1,1.22.37c.58.19,1.12.42,1.68.66a9.73,9.73,0,0,0,2.73.9c.86.07,1.14-1.48,1.09-2.08-.11-1.23-1.39-1.57-2.28-2.19-.57-.4-1.11-.86-1.7-1.23A10,10,0,0,1,24,37.67l-.39,2.72.13-.09-.41.13a14,14,0,0,1,2.55.82,12.5,12.5,0,0,0,2.66.79c1,.06,1.2-1.74,1-2.4-.23-1-1.29-1.61-2.07-2.15a24.32,24.32,0,0,0-2.76-1.87l.42.54,0-.14-1,2.39a9.33,9.33,0,0,1,2.32.78c.45.16,1.31.69,1.78.51.75-.28,1.09-1.7.84-2.38A2.94,2.94,0,0,0,28,36c-.32-.26-.66-.51-1-.77a4.07,4.07,0,0,1-.89-.76l-.74,2.64c.48-.17,1.3.25,1.78.38a2.38,2.38,0,0,0,1.39.15c.83-.31,1.13-1.92.74-2.64-.73-1.36-2.1-2.11-3.05-3.27l-.8,2.84a1.79,1.79,0,0,1,.62.48l-.23-.45,0,.14c.1.62.66.63,1,.21a2.66,2.66,0,0,0,.44-2.07,1.81,1.81,0,0,0-1.25-1.24c-.51-.18-.89.81-1,1.12a1.9,1.9,0,0,0,.17,1.72c.84,1,2.12,1.7,2.76,2.9l.75-2.65c-.36.14-1.17-.23-1.52-.33a2.78,2.78,0,0,0-1.65-.2c-.82.29-1.15,2-.74,2.65a5.45,5.45,0,0,0,1.49,1.38l.89.69c.07.06.46.43.38.23l.84-2.39c-.07,0-.44-.2-.52-.23-.37-.15-.76-.27-1.14-.41a7.87,7.87,0,0,0-2-.67c-1-.08-1.19,1.74-1,2.39s.44.65.87,1,.88.65,1.33,1,.87.59,1.29.91c.17.13.92.6,1,.8l1-2.4A5.38,5.38,0,0,1,28,38.76c-.6-.2-1.21-.37-1.81-.56-.79-.26-1.92-1-2.69-.5a2.17,2.17,0,0,0-.4,2.72,24.26,24.26,0,0,0,2.82,2,16.91,16.91,0,0,0,1.52,1l.46.25c.46.26.32.45.26-.23l1.09-2.08a9.92,9.92,0,0,1-2.73-.89c-.51-.22-1-.45-1.53-.62a5.56,5.56,0,0,0-1.37-.42c-1,0-1.37,2-.94,2.66.26.41.8.58,1.22.81.63.36,1.28.68,1.91,1l1.91,1.1a7.44,7.44,0,0,1,1.58,1.07l.6-2.83A4.73,4.73,0,0,1,28.72,43c-.79-.17-1.55-.39-2.32-.61s-1.49-.39-2.23-.61a3.52,3.52,0,0,0-1.85-.35c-.9.22-1.19,2.24-.6,2.82a6.08,6.08,0,0,0,1.64.85l1.78.9c1.23.61,2.53,1.15,3.7,1.84L29.65,45a6.16,6.16,0,0,1-1.77-.5c-.79-.22-1.58-.44-2.36-.7s-1.62-.48-2.43-.69c-.54-.14-1.26-.4-1.73,0-.62.53-1.05,2.07-.4,2.72a3.87,3.87,0,0,0,1.19.58c.6.26,1.18.56,1.77.85,1.19.61,2.46,1.16,3.61,1.85l.81-2.85a13.88,13.88,0,0,1-3-.63c-1-.27-2-.66-3-.86s-1.6,2.58-.63,2.93,2,.64,2.91,1,1.72.8,2.58,1.18L27.81,47c-.53,0-1,0-1.56-.08l-1.58-.21a21.14,21.14,0,0,0-2.61-.58c-1.1,0-1.53,2.94-.62,2.94Z"/></g><g class="cls-1"><path class="cls-3" d="M20.14,40.39a4.51,4.51,0,0,1-.53-.54l-.81,2.84c.78.25,1.53.55,2.32.77s1.7.44,2.55.68,1.6.5,2.4.74l1.23.35a1.57,1.57,0,0,0,.95.15c.86-.23,1.35-2.54.42-2.92a13.9,13.9,0,0,1-2.15-1C25.76,41,25,40.54,24.27,40s-1.39-1-2.08-1.47a10,10,0,0,1-.87-.74c-.16-.15-.62-.35-.72-.54L19.66,40a4.6,4.6,0,0,1,1.41.55c.48.22,1,.43,1.43.69.93.51,1.88,1,2.81,1.51S27,43.61,27.93,44c.48.23,1,.44,1.44.69a1.43,1.43,0,0,0,1,.31c.42-.06.68-.79.77-1.11a2.07,2.07,0,0,0,0-1.53,8.1,8.1,0,0,0-1.74-1.56c-.63-.54-1.31-1-1.95-1.55a42.54,42.54,0,0,0-3.71-3c-1-.61-1.78,2.21-1,2.75.52.35,1.09.62,1.61,1s1.1.8,1.68,1.17,1.18.7,1.77,1a10.93,10.93,0,0,0,1.57,1c.38.15.75-.54.85-.76a2.65,2.65,0,0,0,.19-1.64,3.83,3.83,0,0,0-1.21-1.66c-.61-.57-1.21-1.14-1.83-1.7a18.57,18.57,0,0,0-1.68-1.37c-.11-.08-.22-.15-.33-.24l-.24-.2c-.14-.09,0,0-.06-.05l.14.58v0l-.49,1.75,0,0-.6.32a14.71,14.71,0,0,1,2.7,1.54c.4.27.81.5,1.22.73a2.27,2.27,0,0,0,.87.39c.77.06,1-1.18,1.09-1.71.17-1.23-.76-1.64-1.55-2.29s-1.76,2.11-1,2.74c.32.27,1,.54,1.13.92l-.15-.94v.06l1.09-1.71a2.34,2.34,0,0,1-.85-.39c-.42-.23-.81-.5-1.21-.77a14.44,14.44,0,0,0-2.72-1.5c-.21-.08-.51.18-.6.32a2.27,2.27,0,0,0-.1,2.77,11.7,11.7,0,0,0,1.19.91c.71.55,1.36,1.16,2,1.77l1,1c.17.15.61.5.66.7l1-2.4a10.08,10.08,0,0,1-1.39-.87c-.59-.35-1.2-.68-1.77-1s-1.06-.75-1.59-1.12-1-.6-1.52-.93l-1,2.75a34.58,34.58,0,0,1,3.54,2.86c.59.49,1.22.92,1.8,1.41.33.27.65.55,1,.8a3.11,3.11,0,0,1,.78.66l.75-2.65s-.2-.12-.25-.15l-.72-.36L28.37,41c-.91-.43-1.76-.89-2.64-1.37L23,38.15c-.41-.22-.84-.39-1.26-.59A4.5,4.5,0,0,0,20.28,37c-.48,0-.78.56-.92.93a2.3,2.3,0,0,0,0,1.73c.2.39.48.48.81.73s.52.5.8.73c.76.58,1.56,1.11,2.34,1.65s1.54,1,2.32,1.5a16.33,16.33,0,0,0,2.44,1.12l.42-2.93c-.17.05-.6-.19-.76-.23l-1.22-.35c-.8-.24-1.59-.52-2.4-.74s-1.63-.42-2.44-.65-1.48-.5-2.22-.74c-.52-.17-.89.8-1,1.12a1.9,1.9,0,0,0,.17,1.72,5.5,5.5,0,0,0,.54.54c.47.45,1-.51,1.1-.84.19-.52.35-1.46-.12-1.91Z"/></g><g class="cls-1"><path class="cls-3" d="M20,46c1.22.44,2.41,1,3.64,1.41.58.2,1.14.4,1.72.56s1.08-.41,1.29-1a2.58,2.58,0,0,0-.09-2.09,8.39,8.39,0,0,0-1.21-1.32c-.43-.45-.93-.83-1.37-1.28-.23-.23-.82-.53-.92-.74l.08,1.35,0-.07-1,1.32a11,11,0,0,1,3,1.08c.44.21.9.34,1.34.51a2.08,2.08,0,0,0,1.23.25c.81-.23,1-1.73.84-2.39-.25-.93-1.32-1.67-2-2.25a28.48,28.48,0,0,0-2.77-2.11L23,42.09c1,.5,1.79,1.28,2.79,1.76.59.29,1.69,1,2.38.78s1-1.73.83-2.38a6.6,6.6,0,0,0-1.93-2.7c-.42-.43-.86-.84-1.3-1.26-.19-.18-.36-.36-.54-.54a7.33,7.33,0,0,1-.64-.59l-.95,2.66a2.83,2.83,0,0,1,1.24.66c.52.34,1.05.65,1.59,1,.79.46,1.64,1.28,2.6,1.22.8-.06,1-1.86.84-2.39a8,8,0,0,0-2.13-2.67c-.78-.82-1.7-1.61-2.41-2.48l-.61,2.82c.18-.07,1.18.63,1.45.75.83.37,1.61.84,2.47,1.14.22.08.49-.18.6-.32a2.6,2.6,0,0,0,.32-2.59,6,6,0,0,0-1-1.29c-.33-.36-.69-.7-1-1.05s-.45-.47-.68-.71-.34-.37-.52-.55S26,33,26,33l-.64,2.28s.55.29.64.33l1.11.55a7.4,7.4,0,0,0,2.09.77c.49.06.78-.57.92-.93,1-2.59-2.34-4-3.82-5.49l-.8,2.84a6.57,6.57,0,0,1,1.61.81,11.46,11.46,0,0,1,1.43.85c.82.69,1.75-2.11,1-2.75a13.75,13.75,0,0,0-1.61-1,7.6,7.6,0,0,0-1.79-.87c-.52-.15-.88.79-1,1.12-.14.52-.26,1.3.17,1.72.61.6,1.37,1.1,2,1.67.32.29.67.55,1,.85.11.11.5.52.5.54l.12-1.47,0,.07.92-.93a8.41,8.41,0,0,1-2.58-1c-.69-.34-1.32-.82-2.07-.39a2.37,2.37,0,0,0-.63,2.27,4.8,4.8,0,0,0,1.31,1.7c.33.34.65.68,1,1s.62.63.92,1a6.19,6.19,0,0,1,.47.55c.4.54-.13.32.13-.86l.43-1,0,0,.6-.32a9.23,9.23,0,0,1-1.39-.65c-.43-.24-.9-.39-1.33-.64s-1.1-.78-1.6-.58a2.12,2.12,0,0,0-.6,2.83c.61.75,1.38,1.41,2.05,2.1.37.39.74.76,1.1,1.16.18.19.35.38.51.58s.45.59.41.43l.84-2.38c-.31,0-.73-.37-1-.53-.49-.34-1-.62-1.56-.93s-1-.62-1.44-.92a2.39,2.39,0,0,0-1.06-.49c-1,0-1.4,2-.94,2.66a17.67,17.67,0,0,0,2.21,2.2q.57.55,1.11,1.14a3.65,3.65,0,0,1,.91,1.23l.83-2.39c-.15,0-.62-.22-.77-.28a13,13,0,0,1-1.47-.67c-.86-.51-1.62-1.16-2.51-1.61s-1.54,2.37-.81,2.84a27.87,27.87,0,0,1,2.47,1.85,15,15,0,0,1,2.07,1.91l-.24-.45,0,.16L28,43.09c-.24.07-.8-.27-1-.36-.46-.18-.92-.32-1.37-.53a9.74,9.74,0,0,0-2.82-1c-.61-.08-.95.89-1,1.32a1.88,1.88,0,0,0,.33,1.76c.29.28.66.46.94.75s.87.78,1.29,1.19c.22.22.4.48.63.69s.39.54.35.13l.17-1.15,0,.09.72-.91a5.28,5.28,0,0,1-1.25-.35c-.45-.17-.9-.33-1.34-.51s-1-.31-1.45-.5-1-.45-1.46-.63C19.76,42.78,19,45.67,20,46Z"/></g><path d="M5,11.05c-.29.13-.49.22-.33.46s0,.42-.2.55a7.59,7.59,0,0,0-2.56,3,7.07,7.07,0,0,0-.7,2.82c0,.67-.19,1.35-.25,2,0,.39-.34.88,0,1.3a.29.29,0,0,1,0,.21,6.63,6.63,0,0,0,.23,2.3c0,.29.21.56,0,.86a.28.28,0,0,0,0,.22,5.06,5.06,0,0,1,.55,1.74A16.2,16.2,0,0,1,2,28.59a9.65,9.65,0,0,1,.16,1.61c0,.08.1.18.18.24a.47.47,0,0,1,.21.47,5,5,0,0,0,.54,2.53c.15.35.55.56.59,1,0,0,.13.1.19.09.54-.1,1.08.19,1.59.06a2.84,2.84,0,0,0,1.45-.74,1.66,1.66,0,0,1,.87-.47,3.45,3.45,0,0,0,1.32-.56,2.43,2.43,0,0,1,1.65-.6,1.58,1.58,0,0,0,1.06-.58,9.27,9.27,0,0,1,2-1.27c.23-.13.52-.17.63-.46,0-.08.08-.12.17-.07s.27,0,.29-.19a.61.61,0,0,1,.44-.51,3.49,3.49,0,0,0,1.24-1c.31-.38.89-.45,1.22-.8s1.08-.37,1.4-.88a.21.21,0,0,1,.16-.08c.61,0,1-.47,1.6-.63a6.48,6.48,0,0,0,1.5-.73,16.13,16.13,0,0,0,2.81-1.9c.16-.15.31-.34.58-.22a.19.19,0,0,0,.26-.11c.3-.61.79-1.1,1.12-1.69a.66.66,0,0,1,.44-.36c.07,0,.18-.06.18-.1.11-.68.8-1,1-1.64a.56.56,0,0,1,.21-.29c.63-.4.68-1.08.82-1.71a.6.6,0,0,0-.36-.76,17.78,17.78,0,0,0-2.31-1.05,3.83,3.83,0,0,1-.73-.42,1.21,1.21,0,0,0-.78-.17,1.4,1.4,0,0,1-1-.23c-.07,0-.18-.13-.24-.07-.45.44-.92-.21-1.42.07s-1-.08-1.48-.15A4,4,0,0,0,20,14.06c-.08,0-.17,0-.22,0-.5.45-1,.25-1.55.06a1,1,0,0,0-.86-.06.5.5,0,0,1-.55-.07,3.42,3.42,0,0,0-2.11-.6c-.73-.11-1.45-.24-2.19-.32a13.48,13.48,0,0,0-1.69-.24.2.2,0,0,1-.13,0c-.34-.37-.7-.18-1.09-.09a6.84,6.84,0,0,1-3.39-.1.39.39,0,0,1-.32-.26,1.2,1.2,0,0,0-.39-.48c-.21-.16-.28-.4-.09-.58A.41.41,0,0,1,6,11.4c.47.73,1.22.63,1.92.78a4.15,4.15,0,0,0,1.89-.11.71.71,0,0,1,.69.17c.17.16.47,0,.73,0,.64.16,1.31.25,2,.36a1.09,1.09,0,0,1,.46.15c.09,0,.19.16.28,0,.35-.45.61-.1.88.09.11.07.25.25.34.08.22-.45.58-.27.84-.16a10.69,10.69,0,0,0,1.45.24c1.4.4,2.81-.09,4.21,0,.49,0,1,.16,1.46.21.28,0,.54-.11.79,0,.62.2,1.34,0,1.88.53.15.15.33-.09.51,0,.58.24,1.2.34,1.76.63a2.58,2.58,0,0,0,.46.18c.26.08.46.2.46.52s.17.35.42.34a2.69,2.69,0,0,1,1,.16c.1,0,.23.07.24.18.07.49.3.39.61.21a.56.56,0,0,1,.44,0c.38.19.8,0,1.16.15.56.17,1.14-.1,1.63.06a23.19,23.19,0,0,0,2.31.3,4.07,4.07,0,0,1,.92.49,8.58,8.58,0,0,0,1.54.31l.8.22c.82.22,1.66.13,2.48.3a7.71,7.71,0,0,0,2.15,0c.52,0,1-.07,1.55-.15a9.45,9.45,0,0,1,1.76-.06c.7,0,1.41.07,2.11,0,.41,0,.8.05,1.2.05a11,11,0,0,1,1.6.29c.21,0,.39.21.65,0s.44,0,.66,0a3,3,0,0,1,1.27.48,2.11,2.11,0,0,1,1.05,1.58c0,.74,0,1.49.06,2.24a12.71,12.71,0,0,1-.33,2.53A15.1,15.1,0,0,1,55.89,27c-.15.53,0,1.15-.25,1.7a6.4,6.4,0,0,1-.3,1.07c-.34.65-.45,1.38-.8,2A10.87,10.87,0,0,0,54.16,33a29.27,29.27,0,0,1-1.06,2.74,6.82,6.82,0,0,0-.23.77A13,13,0,0,1,51,39.77c-.17.24-.47.18-.58.35a1.16,1.16,0,0,1-.42.35,2.37,2.37,0,0,1-1.11.19,4.73,4.73,0,0,1-1.67-.24.44.44,0,0,1-.34-.38c0-.35-.29-.48-.57-.58a4.18,4.18,0,0,1-1.2-.54c-.34-.28-.8-.36-1.14-.67a11.32,11.32,0,0,1-2.09-2.33c0-.06-.08-.15-.13-.16-.83-.22-1.28-.95-1.92-1.4-.38-.26-.5-.76-1-.88-.13,0-.15-.2-.16-.34s-.11-.24-.28-.18a.29.29,0,0,1-.42-.3c0-.25-.13-.27-.25-.39a4.47,4.47,0,0,1-1-1.24,3,3,0,0,0-1.05-1.09c-.17-.13-.34-.22-.37-.46a.38.38,0,0,0-.14-.27.57.57,0,0,1-.3-.73.17.17,0,0,0,0-.17c-.7-.42-.78-1.28-1.3-1.84a7.18,7.18,0,0,1-1-1.28c-.6-1-1.41-1.88-1.94-3-.23-.47-.64-.85-.63-1.43,0-.29.08-.56.32-.63a.5.5,0,0,1,.57.33,4.57,4.57,0,0,1,.36,1c.05.37.39.63.63.89a.89.89,0,0,1,.34.76c0,.21-.06.42.31.47.19,0,.44.36.49.6.12.58.66.76,1,1.16s.56.69.83,1.05a2,2,0,0,1,.39,1c0,.19-.09.53.32.49a.09.09,0,0,1,.07,0c0,.7.78.82,1.06,1.33.43.79,1.24,1.28,1.76,2,.33.46.82.79,1.1,1.21a2.27,2.27,0,0,0,.83.75c.35.2.47.63.79.85A16.72,16.72,0,0,1,44.2,37c.35.37.64.88,1.25.93.09,0,.18.11.24.19a2.55,2.55,0,0,0,1.34.67c.23.06.4-.15.59-.26s.43-.22.57,0a.43.43,0,0,1-.11.66c-.11.09-.28.18-.23.35s.26.15.41.21a1.34,1.34,0,0,0,1.63-.38,5.43,5.43,0,0,0,1.36-1.93c.14-.39.58-.6.64-1.05a.73.73,0,0,1,.33-.64.27.27,0,0,0,.09-.2,5.59,5.59,0,0,1,.78-2.35,9.46,9.46,0,0,0,.57-1.65,10.57,10.57,0,0,1,.64-1.84,12.46,12.46,0,0,1,.56-1.43c.41-.66.06-1.41.29-2s0-.95.13-1.43.32-.92.41-1.4a6.92,6.92,0,0,0,0-1.64,4.72,4.72,0,0,0-.09-1.44,1.35,1.35,0,0,0-.79-.77,3.21,3.21,0,0,0-2.23-.38,1,1,0,0,1-.45,0,3.35,3.35,0,0,0-1.51-.3c-.17,0-.65.06-.5-.49a9.65,9.65,0,0,1-.89.39c-.24.13-.47-.1-.67-.22s-.26-.15-.31.08-.09.22-.22.16c-.52-.25-1.11,0-1.63-.2a.22.22,0,0,0-.21,0,2.34,2.34,0,0,1-2.14,0s-.11,0-.12,0c-.33.51-.86.21-1.12.08s-.61.11-.93-.05a4.08,4.08,0,0,0-1.07-.12c-.35,0-.72-.05-1-.4a.31.31,0,0,0-.43-.11.67.67,0,0,1-.75-.1.9.9,0,0,0-.84-.15c-.2.06-.43.08-.56-.16,0-.07-.11-.13-.14,0-.09.34-.27.12-.41.07s-.49-.32-.76-.45a3.33,3.33,0,0,0-1.2-.13,2.43,2.43,0,0,1-.94-.28.39.39,0,0,0-.56.05.27.27,0,0,1-.33.08c-.4-.19-.87-.08-1.27-.35s-.65,0-.73.46a5.39,5.39,0,0,1-.81,2,23.75,23.75,0,0,1-2.81,3.57.93.93,0,0,1-.74.31c-.18,0-.08.11-.11.17a2.21,2.21,0,0,1-1.6,1.38.36.36,0,0,0-.25.18,2.13,2.13,0,0,1-1,.72c-.6.27-1.11.68-1.71.95a6.52,6.52,0,0,1-1.24.49,9.33,9.33,0,0,0-2.62,1.31,13.61,13.61,0,0,0-1.79,1.33c-.43.34-1,.54-1.29,1.06-.18.32-.58.34-.87.5-.64.35-1.09,1-1.91,1a.13.13,0,0,0-.07.05c-.46.7-1.24.78-1.94,1a7.11,7.11,0,0,0-1.6.82,7.92,7.92,0,0,1-4,1.46c-.19,0-.4,0-.47-.23a.27.27,0,0,0-.22-.2c-.89-.19-1.27-1-1.77-1.59-.26-.32-.14-.81-.25-1.22A7.88,7.88,0,0,0,1.3,29.7a1,1,0,0,1,0-.83.8.8,0,0,0-.11-.77.51.51,0,0,1-.13-.37,4,4,0,0,0-.53-2.45A2.37,2.37,0,0,1,.35,24C.4,23.29.17,22.67.18,22c0-.31.13-.66-.16-.93,0,0,0-.07,0-.08.43-.7.07-1.58.52-2.28a.49.49,0,0,0,0-.63.39.39,0,0,1-.06-.49.78.78,0,0,0,.06-.4,4.25,4.25,0,0,1,.87-2.61A3.77,3.77,0,0,0,1.59,14a3.2,3.2,0,0,1,1.22-1.46c.45-.28.61-.87,1-1.23A1.11,1.11,0,0,1,5,11.05Z"/><path d="M19.37,57.1c-.33.44-.57.26-.9,0s-.48-.75-1-.79a1.06,1.06,0,0,1-.84-.31s0,0,0,0c-.51.23-.88-.16-1.3-.31a1.89,1.89,0,0,1-.92-.38,1.4,1.4,0,0,0-.83-.27,12.53,12.53,0,0,0-2.14-.28c-.49.06-.91-.46-1.33-.76a2.5,2.5,0,0,1-.68-.91,4.13,4.13,0,0,0-.92-1c-.37-.36-.36-.61.1-.83a.67.67,0,0,1,.52-.08.89.89,0,0,0,.9-.24c.11-.1.19-.18.14-.34a.6.6,0,0,1,.06-.43c.2-.38,0-.73-.41-.68a2.34,2.34,0,0,1-1.33-.34c-.25-.12-.27-.33,0-.41.44-.17.35-.67.65-.92.09-.08.05-.38-.16-.29s-.57-.09-.87-.09-.32-.2-.3-.45.08-.3-.08-.37-.12.25-.29.27a.44.44,0,0,1,.18-.74c.53-.22.37-.69.46-1.06.05-.19-.09-.26-.27-.28s-.42-.1-.36-.3-.14-.56.26-.7A.4.4,0,0,0,8,43.26c-.07-.25-.23-.32-.48-.3s-.39.19-.41,0a.82.82,0,0,1,.16-.75A2.41,2.41,0,0,0,8,41.27c.12-.37.07-.58-.3-.69l-.48-.13c-.38-.1-.48-.33-.28-.65a1.81,1.81,0,0,0-.25-1.51c-.2-.22-.45-.4-.44-.74,0,0,0-.07,0-.08s-.45-.19-.36-.32c.18-.29.11-.65.33-.92s.31-.3.47,0a3.64,3.64,0,0,1,.2.77,5.45,5.45,0,0,0,.77,1.27,1.28,1.28,0,0,1,.21,1c-.1.32,0,.47.3.56s.53.21.8.28.26.13.25.26c-.05.43.05.89-.32,1.23a3.08,3.08,0,0,0-.24.27c-.16.21-.1.34.15.37a1.74,1.74,0,0,1,.7.29.43.43,0,0,1,0,.74c-.06.06-.13.12-.19.19s-.48.26-.56.55.26.41.32.65a1.2,1.2,0,0,1-.24,1.37c-.24.22-.16.46-.11.71S9,47,9.19,47c.36,0,.63.2.93.31s.18.38,0,.56a1.38,1.38,0,0,1-.58.48,3.1,3.1,0,0,0,1.08.86c.51.17.6.71.41,1.45a5.54,5.54,0,0,1-.65,1.52c-.1.15-.19.34,0,.49.41.41.61,1,1.15,1.28a.59.59,0,0,0,.61.06c.12,0,.32-.17.36-.13.42.4,1,.12,1.41.26a2.62,2.62,0,0,1,1,.44,1,1,0,0,0,.44.18c.24.05.47.1.58.41s.44.32.7.3a.66.66,0,0,1,.54.18,2.27,2.27,0,0,0,1.2.51,1.73,1.73,0,0,1,1.31.62c.2.23.37.34.65.2a.37.37,0,0,1,.38,0,8.05,8.05,0,0,1,1.73.88c.29.28.73.09,1.05.3.05,0,.17,0,.17,0,.2.58.65.21,1,.27s.37,0,.54,0a6.76,6.76,0,0,0,2.49.21,3.2,3.2,0,0,1,.75.14,5.67,5.67,0,0,0,1.38-.13,5.28,5.28,0,0,1,.58,0c1.2,0,2.4,0,3.59-.09a6.08,6.08,0,0,0,2.34-.91,5.76,5.76,0,0,1,1.63-.58c.28-.06.5-.23.78-.3a9.18,9.18,0,0,1,1.16-.24,1.25,1.25,0,0,0,.81-.41,2.11,2.11,0,0,1,2,0c.24.28-.08.48-.26.54-1,.34-2,.66-3,.94-.35.1-.73,0-1,.32s-.59.12-.89.24c-.87.36-1.69.84-2.59,1.13a1.57,1.57,0,0,1-1.24,0c-.08,0-.14,0-.22,0a6.17,6.17,0,0,1-2.1.18,9.59,9.59,0,0,0-2.14.07,19.25,19.25,0,0,1-2.75-.21,4.71,4.71,0,0,0-1.5-.07c-.29.07-.61-.14-.88-.26-.44-.19-1-.27-1.28-.75,0,0-.08-.07-.11-.06-.82.15-1.48-.38-2.24-.51C20,57.82,19.46,57.74,19.37,57.1Z"/><path d="M9.4,6.54c0,.5.06.93-.3,1.26a.24.24,0,0,0,0,.36c.45.27.83.64,1.28.92a.87.87,0,0,0,.6.05,3.09,3.09,0,0,0,1.83-.87c.42-.54,1.08-.92,1.26-1.65A.7.7,0,0,0,14,5.94c-.26-.35-.17-.79-.22-1.18a4.65,4.65,0,0,0-.38-1.32,1.1,1.1,0,0,1-.1-.34c0-.42.15-.89-.29-1.21.21-.63-.28-1.07-.42-1.6,0-.18,0-.25.16-.28A.64.64,0,0,1,13.4.2a3.62,3.62,0,0,1,.66,2A12.08,12.08,0,0,0,14.47,4a5.22,5.22,0,0,1,.14.79.28.28,0,0,0,.21.26c.15,0,.17-.11.21-.2a.94.94,0,0,1,.23-.26c.21-.2.5-.33.62-.65a.44.44,0,0,1,.46-.35c.06,0,.14,0,.19-.1.9-.86,1.42-.78,2.08.25a13.62,13.62,0,0,1,1.1,2.58,3.29,3.29,0,0,0,.72,1.26.47.47,0,0,1,.1.67.53.53,0,0,1-.82,0c-.26-.26-.58-.74-.51-.9.25-.56-.2-.7-.42-1a.43.43,0,0,1-.07-.25,4,4,0,0,0-.86-2.18A.71.71,0,0,0,16.71,4a5.07,5.07,0,0,0-1.09,2.17,3.48,3.48,0,0,0,0,1,.62.62,0,0,1-.38.77c-.34.14-.51-.13-.66-.38s-.24-.33-.62,0c-.64.51-.89,1.36-1.61,1.78a1.6,1.6,0,0,1-1,.39c-.23,0-.49-.19-.67.14-.05.09-.75-.23-.79-.37s-.06-.33-.32-.16-.86-.52-.84-.79c.05-.64-.17-1.27-.1-1.91a1.31,1.31,0,0,1,.33-.85.33.33,0,0,0,0-.51.44.44,0,0,1,0-.61c.32-.47.74-.87,1.1-1.32s1.48-.14,1.71.32a.46.46,0,0,1-.07.51c-.14.16-.33.08-.5.06s-.36-.35-.6-.12-.79.55-.83,1.1c0,.1,0,.25-.06.3C9.26,5.79,9.43,6.23,9.4,6.54Z"/><path d="M20.8,7.31V7.19c.34-.63.13-1.38.45-2a1,1,0,0,1,.68-.58.36.36,0,0,0,.25-.16A1.35,1.35,0,0,1,23.94,4a1.07,1.07,0,0,0,1-.2c.31-.28.31,0,.39.15a5.84,5.84,0,0,1,.22,1.81,3.77,3.77,0,0,0,.72,1.79,2.23,2.23,0,0,1,.36.56c.06.2.19.24.38.22l1.54-.09A.54.54,0,0,0,29,8c.11-.2-.11-.24-.22-.32a.14.14,0,0,1,0-.2c.35-.55,0-1.09,0-1.63,0-.31-.09-.3.26-.43,0,0,0,0,0,0,.4-.3.4-.3.58.24.09.29.16.4.48.14s.65-.2.67-.65c0-.08.15-.08.24-.09l.76,0a.28.28,0,0,1,.28.1c.25.55.82.88.92,1.53a9.05,9.05,0,0,0,.94,2.75.35.35,0,0,1,0,.45,1.26,1.26,0,0,1-.59.38.13.13,0,0,1-.14-.15c.07-.4-.25-.66-.34-1s-.32-.47-.1-.75a.26.26,0,0,0-.06-.21,4.81,4.81,0,0,1-.75-1.48c-.24-.65-.62-.71-1.13-.25a2.32,2.32,0,0,0-.65,1,8.84,8.84,0,0,1-.58,1.15c-.12.24-.29.26-.47.1s-.51-.17-.82,0a3.3,3.3,0,0,1-1.89.27c-.47-.06-.67-.51-.94-.81a2.68,2.68,0,0,1-.75-1.24c-.07-.32-.24-.34-.46-.09a13.53,13.53,0,0,1-1.55,1.38l0,0c-.49.36-.92,0-1.34-.16A.68.68,0,0,1,20.8,7.31Zm.93-1.08a1.82,1.82,0,0,0,.09.86c0,.2.19.36.38.31a3,3,0,0,0,1.36-.75c.28-.3.27-.84.7-1.09,0,0,0-.14,0-.21a.68.68,0,0,0-.45-.75,1.42,1.42,0,0,0-1.24.07A1.77,1.77,0,0,0,21.73,6.23Z"/><path d="M46,52.15c-.23.4,0,.69.33,1a1.08,1.08,0,0,1,.1,1.07,1.66,1.66,0,0,0,0,1.18.36.36,0,0,1-.16.47c-.49.32-1,.62-1.48,1a1.06,1.06,0,0,1-1-.11c-.23-.11-.1-.36,0-.5s.23-.27.16-.48a.19.19,0,0,1,.06-.24c.47-.24.66-.8,1.2-1,.35-.11.29-.58.52-.82l-.58-.39c-.09,0-.19-.08-.28-.14-.3-.21-.38-.45-.12-.75a1.22,1.22,0,0,0,.12-.19c.56-.84.45-1.16-.52-1.51-.24-.09-.65-.06-.67-.34a2.19,2.19,0,0,1,.1-1,3.73,3.73,0,0,1,.86-1.15s.13-.08.12-.17-.09-.11-.17-.1c-.37.05-.51-.33-.8-.43,0,0,0,0,0,0s-.06-.12,0-.16c.44-.29-.3-.78.25-1.14a18.88,18.88,0,0,0,1.54-1.32c.18-.14.17-.34-.05-.48A5,5,0,0,1,45,44c-.21-.16-.34-.34-.2-.61a.43.43,0,0,1,.58-.26.51.51,0,0,0,.64-.16,1,1,0,0,1,.47-.33c.29-.09.36-.24.3-.53s.4-.51.57-.8.29.06.32.12a1.2,1.2,0,0,1,.11,1,1.52,1.52,0,0,1-1,1.11.27.27,0,0,0-.2.39c.09.24,0,.47,0,.7,0,.73-.49,1.08-1,1.4-.18.11-.37.19-.54.31-.43.3-.39.69.1.91.72.34.82.72.35,1.41a3.17,3.17,0,0,1-.61.66c-.43.35-.39.67.13.82a1.88,1.88,0,0,1,1.1,1c.13.22,0,.4-.05.59A.77.77,0,0,0,46,52.15Z"/><path d="M11.23,57.44a3.35,3.35,0,0,1-.22.68c-.31.57-.53,1.19-.88,1.75a2.78,2.78,0,0,0-.44,1.05c-.07.47-.35.83-.42,1.29a8.76,8.76,0,0,1-.66,2c-.32.73-.46,1.51-.73,2.24-.09.25,0,.5.08.75,0,.08.1.18.15.14.29-.27.68.13,1-.15a.13.13,0,0,1,.2,0c.06.06,0,.12,0,.19a1.43,1.43,0,0,1-1.9.66.73.73,0,0,1-.45-.83c.06-.53.19-1,.25-1.56a1.81,1.81,0,0,0,0-.23c0-.16.29-.32.08-.46s-.25.18-.4.23c-.34.1-.57.54-1,.31,0,0-.06,0-.09.08-.58.69-1.07.68-1.67,0-.14-.17-.42-.27-.38-.52A4.3,4.3,0,0,1,4,63.87c.2-.4.42-.85.93-1a.31.31,0,0,0,.14-.11c.29-.62.9-.94,1.31-1.46A2,2,0,0,1,8.24,61a.43.43,0,0,1,.27.42c0,.1,0,.24.11.26s.17-.1.23-.19.24-.33.08-.57,0-.25.18-.25.26,0,.31-.13-.09-.16-.17-.22a.18.18,0,0,1-.08-.23,4.5,4.5,0,0,1,.77-1.64,3,3,0,0,0,.45-.89c0-.12,0-.26.16-.36s.18-.34.42-.25S11.21,57.23,11.23,57.44ZM5.41,65.21a5.39,5.39,0,0,0,1.11-.45c.22-.08.67.14.53-.41a.38.38,0,0,1,.14-.06c.16,0,.23-.13.31-.23a2,2,0,0,0,.21-1.66c0-.34-.22-.65-.73-.43a3.48,3.48,0,0,0-1.08.81,7.91,7.91,0,0,0-.68.85,4.59,4.59,0,0,0-.47.71C4.5,64.89,4.75,65.22,5.41,65.21Z"/><path d="M52,13.09a4.89,4.89,0,0,1,.17-.87.45.45,0,0,0-.11-.54c-.14-.09-.33.1-.4.2a5.07,5.07,0,0,1-1,.74.79.79,0,0,1-1.13,0,1,1,0,0,1-.32-1.14A6.52,6.52,0,0,0,49.67,10c0-.2.19-.3.27-.44.3-.5.5-1.1,1.11-1.33a.82.82,0,0,0,.22-.16,1.77,1.77,0,0,1,2.6.67.47.47,0,0,1,0,.35,8.65,8.65,0,0,0-.44,1.77,10.23,10.23,0,0,1-.37,2.06,5.49,5.49,0,0,1-1.42,3,2.69,2.69,0,0,1-1.15.62,3.62,3.62,0,0,1-2.43,0c-.38-.17-.77,0-1.15-.1-.15,0-.4.07-.4-.16a.48.48,0,0,1,.32-.49,1.09,1.09,0,0,1,.83,0,2.69,2.69,0,0,0,2.64-.12c.5-.3,1.18-.64,1.33-1.39C51.69,13.9,52.09,13.62,52,13.09Zm.11-4.55c-.19,0-.38-.1-.5.11a.61.61,0,0,1-.57.37.23.23,0,0,0-.21.2c-.15.7-.6,1.3-.72,2,0,.2-.11.45.06.59s.37,0,.55-.06a1.37,1.37,0,0,0,.51-.26,3.1,3.1,0,0,0,1.31-2.42C52.56,8.75,52.61,8.45,52.15,8.54Z"/><path d="M24.23,69.11a9.15,9.15,0,0,0-.13,2,4.33,4.33,0,0,0,0,1.72A1.46,1.46,0,0,1,24,73.87c-.11.27-.39.31-.53,0s-.4-.61-.23-1a.38.38,0,0,0-.07-.46.43.43,0,0,1-.11-.37,2.34,2.34,0,0,0-.06-1,1.14,1.14,0,0,1,0-.66s.05-.1,0-.13c-.31-.69.08-1.41-.13-2.1a1.08,1.08,0,0,1,.22-.89.71.71,0,0,0,.16-.52,2,2,0,0,1,.3-1.26c.12-.24.31-.22.49-.23s.14.17.14.3a.6.6,0,0,0,.28.43c.09.08.19.11.29-.06a1.4,1.4,0,0,1,1.55-.62c.21,0,.26.19.33.37.15.4.06.92.55,1.16,0,.62.53,1.2.15,1.84-.16.27-.11.57-.26.85a2.06,2.06,0,0,1-2,1.19.51.51,0,0,1-.42-.39c-.1-.22.19-.32.23-.51,0,0,.06,0,.07,0,.65.43.83-.53,1.36-.47,0,0,.11-.12.11-.18a4.69,4.69,0,0,0-.11-2.11c-.32-.64-.64-.68-1.09-.15-.25.3-.51.58-.77.86s-.13.77-.23,1.16A1.08,1.08,0,0,0,24.23,69.11Z"/><path d="M39.72,7c.22.51-.12,1-.16,1.52a3.28,3.28,0,0,0,.08.84,4.71,4.71,0,0,1-.47,2.52,5.22,5.22,0,0,1-.87,1.83,1.72,1.72,0,0,1-2.45.27c-.29-.23-.72-.31-.84-.75,0-.14-.13-.24,0-.36s.28-.2.44,0a3,3,0,0,0,.86.51,1,1,0,0,0,1.41-.4,8.3,8.3,0,0,0,.68-1.45,2.43,2.43,0,0,0,.08-.53.85.85,0,0,1,.29-.71.67.67,0,0,0-.11-1,.24.24,0,0,0-.38.07,1.08,1.08,0,0,1-.88.67c-.16,0-.2.21-.32.28a1.25,1.25,0,0,1-1.89-.72A1.35,1.35,0,0,1,35.6,8.3a2.36,2.36,0,0,0,.7-1.1,1.23,1.23,0,0,1,.81-1.07,3.67,3.67,0,0,0,.77-.51c.17-.1.33-.32.57-.06.09.1.2,0,.23-.11s.18-.2.29-.09A1.75,1.75,0,0,1,39.72,7ZM36.25,8.73a1.79,1.79,0,0,0,0,.31c0,.46.15.53.61.46.76-.11,1-.83,1.44-1.29a1.22,1.22,0,0,0,.3-1.39c-.09-.19-.06-.46-.31-.51a.56.56,0,0,0-.69.26c-.24.4-.48.81-.74,1.21S36,8.23,36.25,8.73Z"/><path d="M20.42,69.7c-.49.35-1.08.07-1.57.37-.28.16-.87-.17-1-.49,0-.06,0-.17-.08-.2-.68-.47-.57-1.22-.66-1.9a.51.51,0,0,0-.06-.21c-.08-.15-.19-.24-.27,0-.25.74-1,.9-1.54,1.27a.71.71,0,0,1-.87-.15c-.23-.26-.61-.5-.32-1,.1-.17,0-.42.12-.66.21-.52.51-1,.72-1.52s.58-1.3,1.47-1.27c.44,0,.78-.42,1.27-.29a1.52,1.52,0,0,1,.53.18c.84.59,1,1.1.42,2A2.92,2.92,0,0,0,18.3,68c0,.07,0,.14.05.21.19.94.5,1.19,1.47,1.19C20.07,69.43,20.34,69.4,20.42,69.7ZM15.15,67a.82.82,0,0,0,0,.22c0,.18-.06.42.23.47s.34-.17.41-.34a.84.84,0,0,1,.67-.53c.32,0,.31-.22.3-.43s.43,0,.45-.35a1.6,1.6,0,0,1,.46-1.08c.12-.13.22-.33,0-.45a3.15,3.15,0,0,0-1.81.56A3.38,3.38,0,0,0,15.15,67Z"/><path d="M32.65,71.3c-.42.06-.69-.29-1-.57A2.48,2.48,0,0,1,30.85,69c0-.25-.09-.45-.42-.44a.67.67,0,0,1-.29-.1c-.16-.08-.36-.16-.29-.39s.29-.21.49-.18c.82.15,1-.07,1.29-.83.23-.6.4-1.38,1.27-1.52.34,0,.62-.27,1-.3.88-.07,1.29.46,1.22,1.32s-.77,1-1.21,1.52c-.48-.18-.73.46-1.25.3-.31-.09-.75.81-.6,1.25a1.33,1.33,0,0,0,.82.94c.27.08.5.17.71-.12a.56.56,0,0,1,.4-.18.45.45,0,0,0,.41-.28.37.37,0,0,1,.26-.24,1.06,1.06,0,0,0,.78-.66.48.48,0,0,1,.43-.29c.12,0,.3,0,.33.16s-.1.21-.22.24-.24.17-.24.36a.38.38,0,0,1-.26.39c-.55.16-.82.66-1.2,1a.7.7,0,0,1-.44.17A4.28,4.28,0,0,1,32.65,71.3Zm.23-3.82a3.47,3.47,0,0,0,1.37-1,.28.28,0,0,0-.37-.34c-.53.17-1.08.32-1.21,1C32.63,67.44,32.73,67.47,32.88,67.48Z"/><path d="M45.18,70.13A2.75,2.75,0,0,1,44.12,70a.55.55,0,0,1-.31-.34c-.15-.45-.08-.52.4-.47a2.77,2.77,0,0,1,1,.18c.24.12.84-.25.9-.49a.92.92,0,0,0-.58-1.12,6.13,6.13,0,0,1-1.93-.83l-.24-.1a1.72,1.72,0,0,1-1-2.25,2.52,2.52,0,0,1,1-1.08,11.05,11.05,0,0,1,1.83-.89,3.65,3.65,0,0,1,.8-.1.36.36,0,0,1,.39.39c0,.25.12.56-.17.75a.18.18,0,0,1-.21,0c-.15-.09-.28-.29-.47-.2-.48.23-1,.29-1.41.74-.9,1.09-.81,1.46.38,2.27.67.45,1.44.71,2.12,1.14A1.29,1.29,0,0,1,47,69.12,1.8,1.8,0,0,1,45.18,70.13Z"/><path d="M39.55,23.51a2.36,2.36,0,0,1-1.24,1.8s-.09.05-.12,0c-.55-.33-.57.18-.73.46s-.27.57-.64.53-1,.07-1.26-.52a.44.44,0,0,0-.1-.15c-.7-.36-.56-1.07-.71-1.66a2.88,2.88,0,0,1,.11-1.52c.14-.44.28-1,.91-1.19a1.87,1.87,0,0,0,.7-.39c.68-.58,1-.44,1.76,0,.56.36.68,1,1.12,1.37C39.6,22.55,39.52,23,39.55,23.51Zm-.92-.19a2.43,2.43,0,0,0-1-1.73c-.66-.38-1-.29-1.29.39a.27.27,0,0,1-.21.15c-.11,0-.22,0-.23.17a11.13,11.13,0,0,0-.25,1.8,1.33,1.33,0,0,0,.42,1,1.25,1.25,0,0,0,1.5-.14c.4-.27.58-.72,1-1,.2-.14.19-.13.09-.4A1.07,1.07,0,0,1,38.63,23.32Z"/><path d="M47.39,10.79c0-.2.06-.35.09-.49s.09-.18.06-.21c-.44-.47-.22-1.18-.61-1.67-.16-.2-.3-.28-.52-.1a1.57,1.57,0,0,0-.55.8,4.2,4.2,0,0,1-.56,1.07c-.19.33-.45.31-.77.21s-.32-.37-.3-.62.13-.71-.16-1a.22.22,0,0,1,0-.32.9.9,0,0,0,.25-.82.58.58,0,0,1,.19-.49c.14-.12.25-.32.49-.19s.15.32.1.51,0,.18-.06.26,0,.4.19.47.31-.13.38-.29a1.06,1.06,0,0,1,1.25-.73,1,1,0,0,1,.82.92c0,.14.1.21.16.31a2.3,2.3,0,0,1,.39,1.16,5.68,5.68,0,0,0,.36,2.07.38.38,0,0,1-.06.51c-.21.22-.26-.05-.39-.07C47.4,11.92,47.64,11.2,47.39,10.79Z"/><path d="M38.42,64.78a2,2,0,0,1,1.72-.26c.07,0,.14.06.12.16a.2.2,0,0,1-.14.16c-.5.17-.91.59-1.51.54-.22,0-.47.63-.42,1a7,7,0,0,0,.61,2.17A2.25,2.25,0,0,1,39,70.08a.56.56,0,0,1-.43.41c-.21.06-.29-.12-.38-.25-.41-.63-1-1.19-.83-2.06-.33-.32-.19-.79-.35-1.16a.59.59,0,0,1,0-.56,1,1,0,0,0,0-.69c-.09-.4.18-.77.24-1.16a2.23,2.23,0,0,1,1.09-.16A1.14,1.14,0,0,1,38.42,64.78Z"/><path d="M21.45,17.5c.29.08.52.13.65-.16,0,0,.11-.06.16-.06.32,0,.55.24.86.32s.32.43.25.67c-.2.62,0,1.27-.24,1.89a2.63,2.63,0,0,1-.82,1.39c-.1.07-.11.17-.14.27a.6.6,0,0,1-1.05.24C21,22,21,21.9,20.85,22c-.43.39-.66-.06-.83-.27a1.7,1.7,0,0,1-.24-1.16s0-.09,0-.13a2.39,2.39,0,0,1,.85-2.29A1.84,1.84,0,0,1,21.45,17.5Zm0,.46a1.48,1.48,0,0,1-.36.79A2.37,2.37,0,0,0,20.55,21a1,1,0,0,0,.95.52c.35,0,.32-.24.36-.46a.66.66,0,0,1,.18-.35,3.12,3.12,0,0,0,.63-1.81,1.07,1.07,0,0,0-.12-.56c-.1-.21-.27-.41-.56-.21S21.57,18.31,21.45,18Z"/><path d="M40.43,53.08c0-.16,0-.23-.15-.35a.64.64,0,0,1-.15-.81,1.55,1.55,0,0,0-.07-1.42A.88.88,0,0,1,40,50a3.74,3.74,0,0,0,.1-2c-.14-.42.21-.81.22-1.24a1.21,1.21,0,0,1,.46-1.13c.11-.08,0-.31,0-.53a15.58,15.58,0,0,1,1.5-2.4c.21-.33.58-.63.61-1.09,0-.25.26-.27.42-.33s.19.15.27.24.08.15,0,.19c-.51.27-.49.93-.91,1.25-.64.51-.75,1.34-1.17,2a12.92,12.92,0,0,0-.46,1.29c-.19.39-.16.84-.36,1.25a2.12,2.12,0,0,0,0,.81c0,1-.19,2.06-.14,3.08,0,.57,0,1.2.53,1.63.21.16.08.45.12.68s-.1.09-.17.09A.68.68,0,0,1,40.43,53.08Z"/><path d="M10.87,66.92c0-.36,0-.74,0-1.13a.67.67,0,0,1,.32-.66.41.41,0,0,0,.18-.43,4.32,4.32,0,0,1,.72-2c.11-.26.46-.36.73-.45s.38,0,.26.32a9.23,9.23,0,0,1-.42.83c-.06.1-.12.22-.27.19-.33-.06-.3.17-.17.29a.41.41,0,0,1,.11.52c-.23.42-.16,1-.63,1.28-.13.09-.1.22-.07.33.17.53-.21,1-.07,1.59,0,.11-.1.25-.25.27a.34.34,0,0,1-.37-.19A1.27,1.27,0,0,1,10.87,66.92Z"/><path d="M12.77,43.62a1.26,1.26,0,0,0,0,.65,1.73,1.73,0,0,1-.26,1.29s-.07,0-.11,0-.14-.1-.16-.2a1.71,1.71,0,0,1,0-1,1.05,1.05,0,0,0-.05-.72A3.55,3.55,0,0,1,12,42.39c0-.12.09-.25-.08-.3s-.31-.29-.44-.47c-.26-.39-.37-.84-.6-1.25a.87.87,0,0,1,0-1A.35.35,0,0,0,11,39.1c0-.1-.15-.26,0-.3a.3.3,0,0,1,.37.25,5,5,0,0,1,.1.92,1,1,0,0,0,.2.73,7.45,7.45,0,0,1,.73,1.92C12.52,43,12.94,43.24,12.77,43.62Z"/><path d="M43.12,7.2c0,.08,0,.18,0,.22-.56.5-.13,1.19-.35,1.77a7.11,7.11,0,0,0-.26,1.39c0,.18-.17.24-.34.23a.22.22,0,0,1-.23-.27,1,1,0,0,0-.2-.67.33.33,0,0,1,0-.38c.2-.31.06-.81.58-1,.15,0,0-.23,0-.34a1.54,1.54,0,0,1,0-1.26.51.51,0,0,1,.52-.36C43.06,6.64,43.15,6.9,43.12,7.2Z"/><path d="M14.43,50.38a5.82,5.82,0,0,0-.22,2.08c0,.3-.38.45-.63.62-.09.06-.34.12-.37-.08s-.09-.41.18-.48.26-.17.1-.33-.14-.16-.07-.24c.38-.43.27-1,.3-1.45,0-.16-.05-.36.23-.3a.1.1,0,0,0,.12-.11c0-.12-.24-.35.11-.32s.27.24.25.46Z"/><path d="M13,45.8c.32.2.36.57.57.82s.64.46.83.85a1.1,1.1,0,0,1,.19.66c-.1.48-.05,1-.57,1.35-.14.08-.18.06-.24,0A.63.63,0,0,1,14,48.6c.33-.09.31-.39.34-.6s-.17-.33-.4-.33-.17-.15-.18-.28a.6.6,0,0,0-.48-.55C12.69,46.67,12.61,46.38,13,45.8Z"/><path d="M43.32,5.67c0,.31-.29.24-.47.29s-.64-.65-.58-.8a.73.73,0,0,1,.58-.36C43.1,4.74,43.34,5.21,43.32,5.67Z"/><path d="M14.12,60.5c.09-.16,0-.42.28-.46s.66.37.63.59c-.06.43-.48.1-.69.29C14.29,61,14.21,60.65,14.12,60.5Z"/></g></g></svg>