<svg xmlns="http://www.w3.org/2000/svg" viewBox="0 0 84.68 57.76"><defs><style>.cls-1{opacity:0.7;}.cls-2{fill:#23343f;}.cls-3{fill:#fffbf3;}.cls-4{opacity:0.8;}.cls-5{fill:#f5cb31;}</style></defs><g id="Layer_2" data-name="Layer 2"><g id="Layer_1-2" data-name="Layer 1"><g class="cls-1"><path class="cls-2" d="M52.85,29.66A5,5,0,0,0,54,25.75c-.06-1.31.1-2.61,0-3.91-.12-1.66-1-2.71-1.66-4.13a10.8,10.8,0,0,0-.94-1.78,17.45,17.45,0,0,1-1.3-1.88,13.79,13.79,0,0,0-6.69-5.73,18.73,18.73,0,0,0-4.32-1.43,13,13,0,0,0-2.41-.07,15.14,15.14,0,0,1-2.4-.37A39.09,39.09,0,0,0,29.37,6a18.3,18.3,0,0,0-2.22.07,18.79,18.79,0,0,0-2.66.76,14.5,14.5,0,0,0-4.5,2c-1.34.89-2.91,1.21-4.16,2.24-1,.86-2.23,1.43-3.31,2.22A14.86,14.86,0,0,0,9.07,17c-.79,1.13-1.45,2.35-2.21,3.5-.35.54-.79,1-1.12,1.59a19.18,19.18,0,0,0-.72,2c-1.3,2.91-1.52,6.11-1.81,9.25C2.9,36.74,3.06,40,4.67,43a23.29,23.29,0,0,0,2.44,3.47c1,1.25,2,2.57,3.1,3.72a33,33,0,0,0,3.08,2.71,32.39,32.39,0,0,0,4.4,2.6,19.89,19.89,0,0,0,9.59,2.12c3.34,0,6.87.2,10-1a36.21,36.21,0,0,0,3.87-1.86A20.32,20.32,0,0,0,45.27,52a25,25,0,0,0,2.85-3.31A44.7,44.7,0,0,0,51.27,45a31,31,0,0,0,1.44-3.22,7,7,0,0,0,.51-2.86c0-.77.28-1.52.34-2.3.12-1.55,0-3.12,0-4.67,0-1.78.18-3.65,0-5.42-.07-.74-.34-1.36-.46-2.08s0-1.16-.12-1.74a11.09,11.09,0,0,0-2.48-4.58c-2-2.52-3.88-5.27-6.69-7-1.15-.7-2.48-1-3.65-1.64a14.9,14.9,0,0,0-2.07-1.05,10.62,10.62,0,0,0-2.49-.36C35,8,34.47,7.71,33.82,7.64a13.35,13.35,0,0,0-2.19,0,18.48,18.48,0,0,0-4.89.88,30,30,0,0,0-4.38,2.13A44.42,44.42,0,0,0,18.13,13c-.55.38-1.05.83-1.6,1.2s-1.25.68-1.85,1.06a7.68,7.68,0,0,0-1.88,1.62,13.85,13.85,0,0,1-1.31,1.64,10.22,10.22,0,0,0-3.05,3.29,15.11,15.11,0,0,0-1.67,4.88,31.61,31.61,0,0,0,.68,9.69,19.69,19.69,0,0,0,1.32,4.58c.57,1.23.89,2.57,1.41,3.83a20.83,20.83,0,0,0,1.27,2c-.24-.44.2.7.18.63a7.85,7.85,0,0,0,.54,1.31A11.41,11.41,0,0,0,15.06,52c1.34,1.06,2.73,1.13,4.31,1.52a20.72,20.72,0,0,0,5.16.16c1.78,0,3.57,0,5.35,0a19.85,19.85,0,0,0,5.05-.32,25.86,25.86,0,0,0,4.31-1.73c1.23-.56,2.58-.89,3.75-1.57a15,15,0,0,0,5.52-6.35,19.06,19.06,0,0,0,1.55-9.2c-.07-3.15.42-6.4-.13-9.53a6.13,6.13,0,0,0-.79-2.15,4.52,4.52,0,0,1-.73-1.32,11.24,11.24,0,0,0-1.86-4.14,22.13,22.13,0,0,0-2.86-3.51,16.26,16.26,0,0,0-4.22-2.64,19.15,19.15,0,0,0-9.8-1.07,26.17,26.17,0,0,0-4.75,1.25,18.47,18.47,0,0,0-4.4,1.9,49.92,49.92,0,0,0-7.3,5.83,12,12,0,0,0-3.07,4.07,13.24,13.24,0,0,0-.68,4.88c0,1.66.32,3.32.47,5a11,11,0,0,0,.41,2.21c.25.82.33,1.67.66,2.47a2.58,2.58,0,0,0,2.41,1.83c2.5-.14,3.71-2.7,4.77-4.63A12.35,12.35,0,0,1,21,31.84a19,19,0,0,1,2.77-2.35,7,7,0,0,0,2.9-2.42c.72-1.27.49-2.63.42-4a13.58,13.58,0,0,0-.08-2c.15.06-.78,1-.88.91a4,4,0,0,0,.8-.19c1.24-.3,2.34-1.08,3.56-1.32a5.7,5.7,0,0,1,3,.14C34.4,21,35,22,35.64,22.71a10,10,0,0,0,3,1.79,14,14,0,0,0,1.58,1,16.94,16.94,0,0,1,1.94.88A7.27,7.27,0,0,1,44.55,28c.17.33.08.7.19,1,0,0-.27.88.21.09-.19.31-.72.48-1,.75-.46.49-.72,1.1-1.18,1.57s-1,.83-1.4,1.32a17.68,17.68,0,0,0-2.68,3.92,17.69,17.69,0,0,1-2.83,3.78c.42-.49-.29.44-.22.37a8.2,8.2,0,0,1-.81.5c-.51.35-.94,1.09-1.31,1.37-1,.78-2.65.61-3.82.55a17.33,17.33,0,0,1-2-.14c-.58-.1-1.76-.23-2-.3l1.11.65c-.42-.33-.67-.79-1.06-1.15s-.72-.49-1.07-.77c-.08-.06-.32-.3-.13-.08-.36-.41-.73-1.12-1.13-1.61s-1-1-1.39-1.55c-1.37-1.91-.31-4.12-.84-6.2a3.19,3.19,0,0,0-3.31-2.38,5.62,5.62,0,0,0-.71,0H16.8c-.5,0-.14.13,1.06.38,0,.05-.18-.65-.18-.63a7.17,7.17,0,0,1,.7-3.11c.42-1.15.93-2.28,1.28-3.46L15.49,24h0L14.86,23c-.13-.49-.09-.78-.09-.42,0-.78.07-.43,0-.17s-.14.67-.21,1c-.2.94-.43,1.88-.65,2.82-.4,1.69-.85,3.37-1.08,5.09-.29,2.2,2.9,3.22,4.27,1.77a21.37,21.37,0,0,0,4.16-6.23c.51-1.18.89-2.41,1.38-3.6.24-.61.52-1.21.74-1.83.08-.23.15-.45.21-.68.11-.44.37-.5-.07,0l-4.18-1.11a5.05,5.05,0,0,1-.29,2.12,11.45,11.45,0,0,1-.4,2.38L23.23,26A36.13,36.13,0,0,1,25,22a11.59,11.59,0,0,1,2.23-3.47A3.82,3.82,0,0,1,30,17.75a29.64,29.64,0,0,1,4.42,0,5.66,5.66,0,0,1,3.12,1.58,13.81,13.81,0,0,0,3.82,2.35,8.72,8.72,0,0,1,4.94,5.4A13.54,13.54,0,0,1,46.65,31c0,1.19-1.13,2-1.88,2.87-1.92,2.11-4,4-5.24,6.58a10,10,0,0,1-1.08,2,10.19,10.19,0,0,1-1.12.88,6.84,6.84,0,0,1-2.52,1.54c-2.92.86-6,0-9,.74a9.59,9.59,0,0,1-4.05.34,10.29,10.29,0,0,1-3.86-2.11,9.67,9.67,0,0,1-3-2.76,5.14,5.14,0,0,1-.51-1.61c0-.2-.06-.4-.11-.6s-.11-.34-.17-.51c-.13-.58-.22-.35-.25.71l-.9.9.22-.16-3-.39a10.37,10.37,0,0,1,2.12,2.41c.74,1.1,1.59,2.09,2.38,3.14.62.82,1,1.8,1.62,2.64a9.36,9.36,0,0,0,2.8,2.7,2.52,2.52,0,0,0,3.77-2.15c-.11-2.86-1.38-5.62-2.33-8-.12-.3-.46-1.26-.62-1.79s-.25-.87-.35-1.32c-.06-.26-.14-.23,0,0,0-.1,0-.2,0-.29,0-.56-.18-.17-.57,1.19l-4.18-1.11a43.69,43.69,0,0,0,2,5.15,12,12,0,0,0,2.82,4.33c1.28,1.09,3.2,2.07,4.84,1.17,1.47-.79,1.57-2.27,1.51-3.75l-1.24,2.16c-1.08.74-1.53-.08-.78.25.21.09.44.15.66.24-.44-.17.33.15.56.23a4.38,4.38,0,0,0,.67.21,10.18,10.18,0,0,0,2.27.17,3.74,3.74,0,0,1,.82,0c-.44-.12.49.34.48.33,1.27.63,2.64.5,4,.71A13.46,13.46,0,0,0,38,48a20.65,20.65,0,0,0,4-1.43c1.26-.53,2.62-.81,3.85-1.39a7.06,7.06,0,0,0,2.55-2.31,33.32,33.32,0,0,1,2.8-2.9c2.3-2.26-1.24-5.79-3.53-3.54a45.06,45.06,0,0,0-3.39,3.66c0,.05-.68.66-.45.52a8,8,0,0,1-1.55.51c-1.43.49-2.79,1.2-4.22,1.68a8,8,0,0,1-4,.26c-.74-.11-1.6-.06-2.31-.23-.55-.14-1.07-.54-1.65-.7a9,9,0,0,0-2.48-.2,4.85,4.85,0,0,1-.76,0c-.15,0-.55-.17-.17,0-1.28-.46-2.43-1.08-3.84-.68A2.76,2.76,0,0,0,21.07,43,3.33,3.33,0,0,0,21,44.19c.06.73-.33.38.18-.3l.9-.89-.14.07,1.26-.34c.31,0,.15.15-.22-.2a4.52,4.52,0,0,1-.48-.5,11.73,11.73,0,0,1-1.09-2A37.77,37.77,0,0,1,19.6,35.4c-.54-1.66-2.88-2.6-4.18-1.1-1.58,1.83-.67,4.4.05,6.42.86,2.4,2.31,4.75,2.41,7.36l3.76-2.16c-1.68-1-2.33-3.35-3.61-4.8-1.53-1.72-2.48-3.85-4.31-5.32a2.56,2.56,0,0,0-3-.39C8.94,36.75,9,38.18,9.5,40.12a10.89,10.89,0,0,0,1.89,4.47,18.75,18.75,0,0,0,4.19,3.6,13.6,13.6,0,0,0,4.71,2.45,12.77,12.77,0,0,0,5.67,0,19.54,19.54,0,0,1,2.39-.51,27.67,27.67,0,0,1,3,0,14.53,14.53,0,0,0,5.51-.81A15,15,0,0,0,41,46.67a11.14,11.14,0,0,0,3-4.17A14.27,14.27,0,0,1,47,38.84a33.37,33.37,0,0,0,3.65-4.23c1.16-1.7,1.08-3.67,1-5.65a13.19,13.19,0,0,0-4.86-9.74,29.26,29.26,0,0,0-4.66-2.62,11.39,11.39,0,0,1-1.75-1.43,10.28,10.28,0,0,0-2.86-1.72,15.52,15.52,0,0,0-6.21-.72c-2.09,0-4,0-5.93,1-3.74,2-5.52,7.16-6.92,10.9-1,2.66,3.26,4.41,4.57,1.93a14.74,14.74,0,0,0,1-3.88,8.53,8.53,0,0,0,.22-4.48A2.53,2.53,0,0,0,20,17.14a7.3,7.3,0,0,0-1.42,2.92c-.44,1.24-1,2.44-1.44,3.68a16.11,16.11,0,0,1-3.55,5.77l4.26,1.77c-.14,1.08,0-.1.11-.35.09-.46.2-.92.31-1.38.25-1.07.51-2.13.76-3.2.4-1.73,1.45-4.37,0-5.85a2.53,2.53,0,0,0-4.18,1.11c-.79,2.67-2.32,5.17-2.15,8.05a6.4,6.4,0,0,0,1.8,4.18,3.28,3.28,0,0,0,2.22.91c.18,0,.37,0,.55,0s.91.09.53-.05l-1.1-.64.19.2-.65-1.1c.08.18,0,.23.05,0a3.23,3.23,0,0,0,0,.44c0,.35,0,.7-.06,1.06a11.92,11.92,0,0,0,.14,2.73,9.89,9.89,0,0,0,2.71,5.2c.58.62,1,1.31,1.5,2A14.43,14.43,0,0,0,22.38,46c.71.67,1.06,1.35,2.1,1.63a7.62,7.62,0,0,0,1.15.09c.48.06,1,.22,1.45.3a18.08,18.08,0,0,0,6.14,0,10,10,0,0,0,2.54-.91,5.07,5.07,0,0,0,1.2-.81c.11-.11.22-.21.32-.33-.17.19.88-1,.46-.67s.13,0,.18,0a3.11,3.11,0,0,0,.52-.34,4.24,4.24,0,0,0,1-.93c.59-.75,1.23-1.39,1.84-2.13,1.33-1.58,2-3.5,3.27-5.12A17.47,17.47,0,0,1,46.33,35a7.88,7.88,0,0,0,.91-1.08c.14-.19.26-.48.41-.67-.21.26-.19.18.06,0,1.88-1.14,2.23-3.79,1.87-5.75A7.18,7.18,0,0,0,46.25,23a20.82,20.82,0,0,0-2.42-1.4,9.5,9.5,0,0,0-1.51-.64s-.62-.23-.26-.05-.91-.72-.62-.53c-.59-.39-1.57-.56-2-.88a14.55,14.55,0,0,1-1.34-1.55A7.76,7.76,0,0,0,33,15.46a10.06,10.06,0,0,0-5.52.81c-1.4.68-3.2.72-4.34,1.88-1.52,1.54-1.09,4.05-.94,6a3.16,3.16,0,0,0,0,.69c.14.42.17-.33.17-.32s-.34.22-.57.35a11.66,11.66,0,0,0-2.29,1.58,34.8,34.8,0,0,0-5,4.92c-.53.74-.9,1.57-1.36,2.35a9.64,9.64,0,0,1-.55.86c-.17.23-.07.1,0,.05-.58.72-.47,0,.83-.05l2.41,1.84a16.24,16.24,0,0,1-.89-3.35,43,43,0,0,1-.45-4.52,8.46,8.46,0,0,1,.35-3.64,9.82,9.82,0,0,1,2.55-2.83c3.8-3.49,8.1-6.47,13.39-7.06,2.34-.26,5.41-.1,7.48,1.16A9.78,9.78,0,0,1,40.76,18a20,20,0,0,1,2.35,3.21c.53,1,.46,2.18,1,3.18a11.64,11.64,0,0,1,.76,1.08,4.59,4.59,0,0,1,.24,1.61c.12,2.67-.13,5.37-.08,8A12.82,12.82,0,0,1,43.79,42,8.76,8.76,0,0,1,39.85,46c-1.17.48-2.34.92-3.5,1.45a13,13,0,0,1-3.24,1.18,26.76,26.76,0,0,1-4.2,0c-1.61,0-3.22,0-4.83,0a13.28,13.28,0,0,1-3.78-.11c-.69-.18-1.58-.12-2.22-.35.68.24-.49-.63-.61-.77A6.61,6.61,0,0,1,16.07,45a15,15,0,0,0-1.13-1.79,11.78,11.78,0,0,1-.56-1.43c-.46-1.25-1-2.46-1.46-3.69a20.79,20.79,0,0,1-.82-3.93,26.75,26.75,0,0,1-.38-3.78,13.87,13.87,0,0,1,.11-3.81,9.25,9.25,0,0,1,1.44-3.14c.75-.88,1.84-1.35,2.56-2.29a8.78,8.78,0,0,1,1.07-1.36,8.45,8.45,0,0,1,1.48-.87c1.11-.62,2-1.49,3.12-2.14s2.26-1.18,3.38-1.78a19.79,19.79,0,0,1,3.77-1.81A13.86,13.86,0,0,1,32,12.62c1.29-.06,2.34.4,3.61.44a1.9,1.9,0,0,1,1.23.26c.49.27,1,.57,1.47.82a20.73,20.73,0,0,1,3.32,1.51c2.1,1.49,3.63,3.8,5.19,5.81A5.46,5.46,0,0,1,48.13,24a33,33,0,0,1,.5,3.8c0,1.37,0,2.74,0,4.12a34.65,34.65,0,0,1,0,4.67c-.07.55-.26,1.09-.31,1.67a7.92,7.92,0,0,1,0,1.29c-.16.57-.61,1.18-.81,1.75a4.91,4.91,0,0,1-.57,1.28c-.7,1-1.67,1.8-2.43,2.75a25,25,0,0,1-2.69,3.12A16.84,16.84,0,0,1,39,50.28,18.9,18.9,0,0,1,35.61,52c-2.58.9-5.41.72-8.1.69s-5.14-.21-7.47-1.55c-1.05-.6-2.2-1.08-3.21-1.75A20.38,20.38,0,0,1,14,47a31.48,31.48,0,0,1-4.64-5.77C8,38.92,8,36.46,8.17,33.85c.19-2.32.25-5,1.17-7.18a8.89,8.89,0,0,0,.75-1.84c0-.11.16-.67,0-.21a3.44,3.44,0,0,1,.44-.6c.78-1.07,1.44-2.21,2.13-3.33a14,14,0,0,1,2-2.66,23.66,23.66,0,0,1,3.21-2.2,16.48,16.48,0,0,1,1.42-1.11,10.33,10.33,0,0,1,1.22-.42c1.46-.54,2.57-1.71,4-2.3.5-.2,1-.26,1.53-.41s1-.45,1.5-.57a15.19,15.19,0,0,1,4.56.14c1.28.13,2.52.51,3.79.63.58.05,1.15,0,1.73,0a7.36,7.36,0,0,1,2.1.44,11.43,11.43,0,0,1,5.46,3.29c.76,1,1.27,2.1,2,3.08.64.83.93,1.85,1.52,2.74s.28,2.06.27,3.14c0,.43,0,.86.06,1.3a4.47,4.47,0,0,0,0,.63c.1.48-.23.25.26-.26-2.23,2.33,1.3,5.87,3.53,3.54Z"/></g><g class="cls-1"><path class="cls-2" d="M54.14,35c.55-.61,1.45-.5,2.19-.61,1-.16,1.93-.43,2.9-.59a21.3,21.3,0,0,1,2.88,0c.91,0,1.78-.3,2.67-.39a12,12,0,0,1,2.94,0,10.42,10.42,0,0,1,2.79,1.08,13.24,13.24,0,0,0,5.95.86c1.41,0,3.26.46,4.6,0s2-2.13,2.37-3.41.79-3-.25-4.08-2.82-1-4.06-1c-2.05.08-3.81,1.22-5.73,1.8-.89.26-1.76.73-2.67.92a19.72,19.72,0,0,1-3.92,0c-1.09,0-1.54,2.93-.62,2.94,1.17,0,2.36.07,3.53,0a10.23,10.23,0,0,0,2.7-.8c1.81-.62,3.71-1.63,5.61-1.92a8.34,8.34,0,0,1,2.86.14c.34.06,1,.14,1.22.45s.11.43,0,.79c-.66,2-2.89,1.14-4.53,1.17a14.61,14.61,0,0,1-6.77-1,10,10,0,0,0-6-.88,15.37,15.37,0,0,1-3.1.3,11.32,11.32,0,0,0-3.12.25c-1.74.35-3.77.28-5,1.66-.63.7-.55,3.53.58,2.29Z"/></g><g class="cls-1"><path class="cls-2" d="M81,30.18l-.24.39a2.17,2.17,0,0,0-.21.53,2.36,2.36,0,0,0-.11.59v.36a1.51,1.51,0,0,0,.15.59l.24.39a.37.37,0,0,0,.23.23.28.28,0,0,0,.29,0,.61.61,0,0,0,.3-.21,1.17,1.17,0,0,0,.28-.38l.14-.33a2.94,2.94,0,0,0,.17-.78v-.37a1.65,1.65,0,0,0-.14-.58l-.25-.39-.17,2.06.25-.4a1.93,1.93,0,0,0,.2-.52,2.36,2.36,0,0,0,.11-.59,1.89,1.89,0,0,0,0-.53,1.2,1.2,0,0,0-.12-.42L82,29.68a.37.37,0,0,0-.39-.08l-.2.11a1.4,1.4,0,0,0-.37.47Z"/></g><g class="cls-1"><path class="cls-2" d="M9.59,36a9.92,9.92,0,0,1,.16-3,24.76,24.76,0,0,0,.69-2.56,12,12,0,0,1,2.3-5.28,15.13,15.13,0,0,1,4.1-3.84c1.43-.78,2.86-1.23,4-2.42.49-.52.88-2.27,0-2.62-1.24-.5-2.4.35-3.36,1.05a5.12,5.12,0,0,1-1.7,1,5.9,5.9,0,0,0-1.88.8,11.2,11.2,0,0,0-3.23,4c-.25.5-.34,1.21-.52,1.62a7.63,7.63,0,0,0-.92,2.17c-.26,1.7-.4,3.38-.64,5.09a53,53,0,0,0-.2,5.91,9.42,9.42,0,0,0,.62,4.71c.62,1.27.92,2.48,2.27,3.11.32.16.66-.4.77-.59,1.56-2.56-1.14-4.46-.92-7l-1.55.49a8.27,8.27,0,0,0,1.43,4.72c.83,1.44,1.55,3,2.52,4.31a11.91,11.91,0,0,0,3.78,3.53,12.51,12.51,0,0,0,2.19,1.18c.91.31,1.87.48,2.79.79a36.5,36.5,0,0,0,6.32,1.19,12.61,12.61,0,0,0,5.93-.74c.94-.34,1.93-.6,2.85-1s1.63-.94,2.47-1.35a21.44,21.44,0,0,0,4.82-3.24,20.06,20.06,0,0,0,2.15-2.45c.49-.62,1.11-1.13,1.63-1.73.92-1,1.83-3,.71-4.21-.68-.73-1.68,2-1,2.75.32-1.31.31-1.7,0-1.15-.12.15-.24.29-.37.43s-.42.4-.63.61c-.68.67-1.19,1.46-1.81,2.19a16.56,16.56,0,0,1-5.27,3.89c-.84.41-1.62,1-2.47,1.35s-1.91.64-2.85,1a12.83,12.83,0,0,1-6.61.55c-3.88-.58-8.23-1.21-11.36-3.77a14.57,14.57,0,0,1-3.44-4.57c-.71-1.35-2.33-3.2-2.22-4.76,0-.43,0-1.33-.66-1.21s-.85,1.23-.89,1.7A8.84,8.84,0,0,0,10.08,42a7.46,7.46,0,0,0,.47,1.09c.09.17.19.34.27.52.39.84-.09.42.34-.31l.78-.59A1.66,1.66,0,0,1,11,41.64c-.28-.63-.68-1.25-.91-1.89-.44-1.22-.14-2.84-.13-4.12a52.89,52.89,0,0,1,.75-8.71c.13-.71.13-.05,0,0a1.87,1.87,0,0,0,.57-.87c.22-.55.25-1.13.51-1.65a6.57,6.57,0,0,1,2.87-3,11.17,11.17,0,0,0,2.63-1.15c.86-.62,1.79-1.54,2.91-1.08l0-2.62c-1.32,1.37-3.44,1.62-4.86,2.9a22.94,22.94,0,0,0-4.38,5,19.25,19.25,0,0,0-2.15,6.25c-.19.95-.66,1.81-.8,2.78A25.65,25.65,0,0,0,8,37.19c0,.54.33,1,.88.74s.68-1.39.68-2Z"/></g><g class="cls-1"><path class="cls-2" d="M21,17.49A3.59,3.59,0,0,0,22.24,17a8.18,8.18,0,0,1,1.44-.58,4.37,4.37,0,0,1,1.53-.07,6.63,6.63,0,0,0,1.66-.21c2.3-.56,4.94-1.15,7.13.11,1,.58,1.81-2.27,1-2.75-2.33-1.35-5-1-7.47-.38a6.8,6.8,0,0,1-1.67.29,6.75,6.75,0,0,0-1.62,0,6.79,6.79,0,0,0-1.6.58,3.92,3.92,0,0,1-1.45.6c-.93.08-1.39,3-.22,2.91Z"/></g><g class="cls-1"><path class="cls-2" d="M61.44,34.49c1.54,0,3.09-.06,4.63-.06.76,0,1.53,0,2.29.07a10.83,10.83,0,0,1,2,.5,23.31,23.31,0,0,0,8.24,1.09c1.31-.13,2.59-.4,3.88-.62a2.23,2.23,0,0,0,1.9-1.7,7.55,7.55,0,0,0,.31-3,4.3,4.3,0,0,0-.41-1.62c-.21-.39-.79-.74-.87-1.16v1.09l0-.26c.07-.42.2-1.49-.41-1.62s-1,.93-1,1.32A2.68,2.68,0,0,0,82.55,31a1.78,1.78,0,0,1,.56,1.11c0,.18-.14,1,.11.46.19-.41,0-.16-.3-.1s-.42.07-.63.1c-.49.08-1,.19-1.47.28a19.42,19.42,0,0,1-4.1.35,31.42,31.42,0,0,1-6.82-1.52,13.76,13.76,0,0,0-3.63-.22c-1.4,0-2.8.05-4.21.06-1.09,0-1.53,2.94-.62,2.93Z"/></g><g class="cls-1"><path class="cls-2" d="M45.85,20.57a4.89,4.89,0,0,1,.49,2.08c.18.9.58,1.72.84,2.6a22.91,22.91,0,0,1,1.15,6c0,2-.06,4.08,0,6.11,0,1.1.1,1.22-.4,2s-.53,1.75-1.1,2.35-.6,3.5.57,2.29c.79-.82.85-1.83,1.37-2.77a7,7,0,0,0,1.13-3c.1-1.2,0-2.42,0-3.63v-4a26.87,26.87,0,0,0-1.19-7.11,28.13,28.13,0,0,1-1-3.21,5.26,5.26,0,0,0-.9-2.56c-.41-.52-1,.58-1.11.84a2,2,0,0,0,.12,1.91Z"/></g><g class="cls-1"><path class="cls-3" d="M35.51,23.06c-.32-.32,0,0,0,0l-.23-.37a6,6,0,0,0-.84-1.11,3.91,3.91,0,0,0-2.72-1.1C29.9,20.45,27.8,21,27,22.82a3.88,3.88,0,0,0-.32,1.58,9.21,9.21,0,0,0,.12,1.07s0,.49,0,.15c0,.32,0,.64.06.95s.32.22.18-.36c.05.19-.4.67-.43.92l0,.11c.41-.72.38-.74-.11,0a1.94,1.94,0,0,0-.39.79c-.15.55,0-.57.24-.36,0,0-.59.76-.52.78s.75-.57.17-.12a7.46,7.46,0,0,0-.7.56c-.37.37,0,.05,0,0,.53-.25-1.17.49-.71.28a5.06,5.06,0,0,0-3.05,4.57A7.4,7.4,0,0,0,23.32,39c1.15,1.3,2.49,3,4.25,3.38a7.87,7.87,0,0,0,3,0c.34,0,.53,0,1,0a6.34,6.34,0,0,0,1.72-.3,8.25,8.25,0,0,0,2.3-1.24c.45-.34.89-.69,1.32-1.06.13-.12.25-.24.39-.35-.25.2.21-.13.29-.18a17.1,17.1,0,0,0,2.23-1.85,8.09,8.09,0,0,0,.78-.77c.19-.22.35-.46.53-.69.42-.54-.31.21.22-.22,0,0,.9-1.11.81-1.16l-.28.25c-.45.39-.37.34.22-.14a2.89,2.89,0,0,0,.46-.64,11.9,11.9,0,0,0,.84-2.72c.27-1,.8-1.91.52-3-.33-1.3-1.27-1.78-2.4-2.27-.34-.15-1.16-.7-1.68-1a8.29,8.29,0,0,0-2.51-1.24,10.61,10.61,0,0,0-3-.07,3.62,3.62,0,0,0-1.42.44c-.08.05-.45.22-.12.09s-.13,0-.2,0c-2.26.6-3.51,2.9-1.91,4.9A15.83,15.83,0,0,0,32.58,31c.13.12.92.93,1.15.87-.11,0-.31-.34-.34-.33s.21.46.23.49.27.52.27.52,0-.67-.09-.27,0,.79,0,1.16c.08-.45,0,0-.06.07.21-.29-.19.28-.23.34-.18.29-.17.29-.44.44-.79.44-1.63.76-2.4,1.25a1.62,1.62,0,0,1-.87.3c.3,0-.17,0-.19,0-.55,0-.12,0,.07.12-.4-.14-.17-.06-.05,0-.18-.2-.22-.23-.12-.11s.08.08-.07-.14a3.07,3.07,0,0,1-.31-1c0,.13.05.33,0-.18v-.3c-.05.23-.05.26,0,.08s-.2.22,0,0-.21.16.12-.14.57-.55.87-.81a4,4,0,0,1,.38-.34l.07-.05c.05,0,.47-.1.12-.07s.36.12.45.15c.42.15.83.32,1.25.45l-1.1-.64c.21.18.23.19.06,0,.07.13.14.26.22.39,1.62,2.79,5.94.27,4.32-2.52a4.69,4.69,0,0,0-1.57-1.82A10.34,10.34,0,0,0,32,28a5.51,5.51,0,0,0-5,1.32,8.14,8.14,0,0,0-2.68,3.28,6.52,6.52,0,0,0,.21,4.46,5.53,5.53,0,0,0,3.45,3.51,6.8,6.8,0,0,0,5-.7,18.31,18.31,0,0,0,3.67-2.2,6.75,6.75,0,0,0,2.07-4.42,6.55,6.55,0,0,0-.17-2.38,10.21,10.21,0,0,0-1-2,4,4,0,0,0-1-1.05l-.44-.33c-.69-.5.13.14-.23-.19s-.57-.51-.86-.75l-.33-.28c-.42-.35-.07.08-.21-.23L35,27.32l-.25.93-.9.89c.25-.18-.11,0-.2.05a3.17,3.17,0,0,0,.41-.12,4,4,0,0,0,1.18-.45c.35-.24-.08,0-.08,0l-.1.05H36.1c.18,0,.53.12.18,0s0,0,.1.08l.49.31c.37.23.75.44,1.11.68a7.84,7.84,0,0,0,1.12.66c.33.15.68.25,1,.42s-.27-.2.11.08l-.9-.9c-.53-.84,0-1.77-.48-.6a7.76,7.76,0,0,0-.32,1.07c-.07.3-.11.6-.2.9,0,.15-.38.86-.08.29l.89-.9a4.27,4.27,0,0,0-.89.8,4,4,0,0,0-.34.5c0,.07-.26.43,0,.14-.23.29-.5.53-.72.84-.1.13-.18.28-.28.4.18-.23,0-.08-.07,0-.51.42-1,.93-1.47,1.35s-1.18.82-1.7,1.27a8.07,8.07,0,0,1-1.23,1l-.36.22c.27-.14-.11,0-.15,0s-.42.12-.19.08-.52,0-.52,0c-.86,0-1.19.12-1.91.15h-.44c-.59.06.07.14.15.1-.11.05-.41-.35-.5-.44-.46-.47-.89-1-1.35-1.42a3.57,3.57,0,0,1-.27-.28c0,.05.2.28.07,0a2.46,2.46,0,0,1-.31-.68c-.13-.42,0,.28-.05-.18,0-.14,0-.28,0-.42s0-.28,0-.42.07-.1,0-.14.21-.1,0,0c-.08,0-.82.67-.15.17-.05,0,.77-.51.39-.31s.34-.09.08,0,.17-.06.17-.06a7.47,7.47,0,0,0,.83-.36,5,5,0,0,0,.83-.63c.33-.3.12-.16.05-.09.14-.13.31-.24.46-.36A4,4,0,0,0,30.06,31a8.33,8.33,0,0,0,.7-1.25c0-.15.2-.52-.07.06-.36.75.17-.1.24-.21.18-.28.18-.4.38-.77,0,0,.18-.37.07-.14s.09-.13.09-.14a2.83,2.83,0,0,0,.33-1.14,8.54,8.54,0,0,0,0-2c0-.31-.11-.62-.13-.93,0,.3,0-.12,0-.16s-.72,1.41-.79,1.31c-.16.07-.12.07.11,0l.2,0c.07,0,.32,0,0,0s.3,0,.3,0c.18,0,.28.1.08,0s-.35-.12-.5-.21-.23-.37-.17-.13a1.2,1.2,0,0,0,.23.37A6.66,6.66,0,0,0,32,26.59c2.29,2.27,5.82-1.26,3.54-3.53Z"/></g><g class="cls-4"><path class="cls-5" d="M30.23,31.51a3.79,3.79,0,0,0-1.14,1.15,4.41,4.41,0,0,0-.47,1,4.47,4.47,0,0,0-.2,1.14,1.61,1.61,0,0,0,0,.22c0,.24.06.5.1.74a.56.56,0,0,0,0,.12,4.06,4.06,0,0,0,.27.65,3.59,3.59,0,0,0,.25.33,3.49,3.49,0,0,0,.25.32,3.06,3.06,0,0,0,.27.21c.14.1.18.15.28.21l.6.25h0l.07,0a5.7,5.7,0,0,0,.83.1,5.8,5.8,0,0,0,1.44-.11,3.08,3.08,0,0,0,1-.36,3.36,3.36,0,0,0,.6-.47,3.06,3.06,0,0,0,.72-1.23,4.12,4.12,0,0,0,.15-.58,2.74,2.74,0,0,0,0-.28,7.52,7.52,0,0,0,.11-.94,6.37,6.37,0,0,0-.11-.89A3.51,3.51,0,0,0,35,32.3a3.35,3.35,0,0,0-.52-.73,1.61,1.61,0,0,0-.23-.22,11.7,11.7,0,0,0-1-.73,5.59,5.59,0,0,0-1.13-.54,1.35,1.35,0,0,0-.34-.11,7,7,0,0,0-.8-.12h-.15a4.27,4.27,0,0,0-.79.1l-.17,0-.06,0-.59.25a1.91,1.91,0,0,0-.71.64l-.19.26-.25.59,0,.13a7.71,7.71,0,0,0-.13,1.44c0,.28,0,.57,0,.86a2.58,2.58,0,0,0,.74,1.76,1.77,1.77,0,0,0,.8.52,1.88,1.88,0,0,0,1,.22,2.51,2.51,0,0,0,2.5-2.5,11.6,11.6,0,0,1,0-1.56l-.09.67a1.55,1.55,0,0,1,0-.21l-1.75,1.75a1,1,0,0,1,.25-.06l-.66.08a1.51,1.51,0,0,1,.3,0l-.67-.09a2.13,2.13,0,0,1,.43.13l-.59-.25a4.12,4.12,0,0,1,.93.58l-.51-.39a1.53,1.53,0,0,1,.3.27l-.39-.51a1.59,1.59,0,0,1,.13.22l-.26-.6a.9.9,0,0,1,.08.28l-.09-.67a1.77,1.77,0,0,1,0,.46l.09-.66a3.89,3.89,0,0,1-.21.88l.25-.6-.06.11.39-.5-.05,0,.5-.39-.08,0,.6-.25a1.39,1.39,0,0,1-.35.09l.67-.09a3.32,3.32,0,0,1-.89,0l.67.09a.4.4,0,0,1-.15,0l.6.25h0l.51.39-.08-.08.39.5a.33.33,0,0,1-.06-.1l.25.6a.83.83,0,0,1-.06-.21l.09.66a1.63,1.63,0,0,1,0-.31l-.09.67a1.93,1.93,0,0,1,.13-.47l-.25.6a1.94,1.94,0,0,1,.22-.4l-.39.51a1.45,1.45,0,0,1,.17-.18l-.51.4,0,0a1.83,1.83,0,0,0,.71-.64,1.78,1.78,0,0,0,.44-.85,1.89,1.89,0,0,0,.05-1,2,2,0,0,0-.3-.93,2.51,2.51,0,0,0-1.49-1.14,2.46,2.46,0,0,0-1.93.25Z"/></g><g class="cls-1"><path class="cls-3" d="M38.09,29.76c.24.16.29.18.13.06.22.23.26.24.12.05l.15.21a1,1,0,0,1-.08-1c-.14,0-.59.67-.76.86a5.64,5.64,0,0,0-1.54,3.78,2.72,2.72,0,0,0,1.66,2.23,2.13,2.13,0,0,0,2.43-.51,7.26,7.26,0,0,0,1.88-4.91,8.5,8.5,0,0,0-.17-3.17,7.14,7.14,0,0,0-1.7-2.63,6.34,6.34,0,0,0-5.1-1.92h-.42l.54.11c.17,0,.16.17,0-.07s-.88-1.11-.42-.38.11-.18.2.38c0-.13,0-.26-.05-.39a4.72,4.72,0,0,0-.59-1.7,2.53,2.53,0,0,0-2.67-1.13,2.67,2.67,0,0,0-2,3.38,6.61,6.61,0,0,0,1.45,2.74A15.33,15.33,0,0,0,34,28.37c-.21-.16.32.26.37.3a11.51,11.51,0,0,0,1.23.83,6,6,0,0,1,1.31.81q.2.17.39.36a.79.79,0,0,1-.14-.23.53.53,0,0,1-.08-.17c0,.19,0,.37,0,.56,0,.37,0,.75,0,1.12,0,.17,0,.92,0,.79,0,.35.11.08-.17.4s-.41.45-.61.68c-.5.57-1,1.16-1.48,1.75-.28.34-.57.68-.86,1,0,0-.48.65-.29.31a.32.32,0,0,1,.27-.06c-.29,0-.57.06-.86.1s-.52.13-.78.2a10.53,10.53,0,0,0-1.71.29q-.55.13.18.06c.28.13.13.07-.47-.19A4.84,4.84,0,0,0,29,37a2.1,2.1,0,0,0-2,2.4,2.74,2.74,0,0,0,2.53,2.43c-.58,0,.4.23.61.28a3.42,3.42,0,0,0,1.68.07c.24,0,.46-.14.7-.19q-.25.06.12,0l.82-.1a6.73,6.73,0,0,0,3.77-1.55c1.13-1.12,2.12-2.43,3.15-3.64,1.21-1.42,1.31-2.83,1.32-4.61s-.12-3.38-1.38-4.73a10.18,10.18,0,0,0-1.78-1.5c-.28-.18-.57-.33-.87-.49L37,25.06a16.76,16.76,0,0,1-1.59-1.22s-.95-.84-.91-.94c.27.33.32.38.14.16l-.21-.27c-.1-.14-.18-.31-.29-.44s-.12-.2,0,.15a2.47,2.47,0,0,1-.1-.29,1.72,1.72,0,0,1-.63,1.95q-.53.21-.12.12l-2.67-1.14c-.25-.82-.34-1-.26-.54,0,.12,0,.23.05.34a5.89,5.89,0,0,0,.33,1.18,7.06,7.06,0,0,0,1.6,2.14,4.43,4.43,0,0,0,2,1.24,17.67,17.67,0,0,0,2.42.13c-.25,0,.36.18,0,0,.08.06.68.7.45.42a4.21,4.21,0,0,0,.43.64c-.18-.57-.24-.64-.18-.19,0-.25,0-.05,0,.57,0,.32,0,.38,0,.19l0,.53a6.23,6.23,0,0,1-.16,1,2.71,2.71,0,0,1-.77,1.2l4.1,1.71-.08.59.08-.2c.36-.35,0,0,.13-.22a9.08,9.08,0,0,1,.62-.77,5.28,5.28,0,0,0,1.35-2.2c.56-2.26-1-4.27-2.88-5.35a2.11,2.11,0,0,0-3,.89,2.72,2.72,0,0,0,1.21,3.3Z"/></g><g class="cls-1"><path class="cls-3" d="M34.82,27.4a4.76,4.76,0,0,0-1.1,1.86l4.43-1.35c0-.75.82-1.3.82-2.13s-1.34-.57-1.83-.42a4.63,4.63,0,0,0-2.61,1.77,15.12,15.12,0,0,0-1.15,2.13c-.33.87.46,1,1.17.89a5.24,5.24,0,0,0,2.89-1.55c.21-.22.79-.66,1.08-1a2.77,2.77,0,0,0,.41-.6c.13-.27,0,0-.15.12l-1.67,1,.12-.06-1.1.27h.14l-1-.6a7,7,0,0,1-.43,1.09c-.07.24-.12.48-.17.72s-.07.31-.1.47c.05-.14.05-.16,0-.06-.22.61-.76,1.42-.43,2.08.17.33.69.32,1,.31a6.74,6.74,0,0,0,4.53-2.42c.26-.3.5-.63.75-.95s.27-.37.42-.55a3.36,3.36,0,0,1,.24-.29,3.49,3.49,0,0,1-1.41.85l-2.08-.05c.11.48-.44,1.12-.67,1.49a8.54,8.54,0,0,0-1,2c-.21.66,1,.59,1.27.55a5.39,5.39,0,0,0,2.52-1.18c.61-.47,1.16-1,1.77-1.48L40.4,31c.39-.22.8-.41,1.19-.66.22-.15.43-.3.64-.47.51-.39.17-.21-1,.55l-2.12-.33A5.34,5.34,0,0,1,38.19,32c-.17.28-.36.56-.53.84s-.25.38-.35.57-.49.39.26-.15L40.88,33a9.48,9.48,0,0,0-.1-1.68A3.61,3.61,0,0,0,39.92,30c-.43-.48-.9-.95-1.38-1.39s-.9-.65-1.34-1A8.68,8.68,0,0,0,36,26.66a4.5,4.5,0,0,1-1.28-.88,3.76,3.76,0,0,1-.68-1.2c-.19-.43-.47-.75-.36-1.23l-4.31,2.16a35.66,35.66,0,0,0,4.36,2.82,5.45,5.45,0,0,1,1.53,1.57A11.11,11.11,0,0,0,37,31.36c1.2,1-.32,3-.92,3.89-.41.65-.71,1.4-1.16,2-.26.34-.61.64-.89,1s.32-.25-.15.15l-.51.42c-.5.41-1.26,1.46-.18,1.65a4.67,4.67,0,0,0,3.22-1.21,21.31,21.31,0,0,0,2.14-2.11,14.49,14.49,0,0,0,1.59-2.5c.84-1.38,2.48-3.39,1.64-5.12-.37-.78-1.25-1-1.83-1.58A21.67,21.67,0,0,0,38.26,26c-.77-.6-1.73-1-2.56-1.53a24.88,24.88,0,0,1-2.3-1.61c-.57-.46-2,.15-2.49.41-.71.37-1.62.92-1.82,1.75a2.08,2.08,0,0,0,.26,1.42A8.82,8.82,0,0,0,30,27.73a5.76,5.76,0,0,0,1.13,1.13c.42.32.93.47,1.34.79a28.41,28.41,0,0,1,2.67,2.23,5.56,5.56,0,0,1,1,1.27c.27.5.12,1,.19,1.5.18,1.37,2.72.15,3.31-.26a10.46,10.46,0,0,0,2.67-3.14,8,8,0,0,0,1.32-2.88c.18-1-1.8-.45-2.12-.34a7.37,7.37,0,0,0-2,1.13c-.52.4.76-.41.29-.18a7.41,7.41,0,0,0-.88.49c-.8.55-1.49,1.25-2.26,1.85l3.8-.62c.43-1.42,2-2.43,1.58-4.06-.17-.67-1.77-.16-2.08-.05a6.65,6.65,0,0,0-3.12,2.31l-.57.75-.36.44c-.07.08-.13.16-.2.23a3.2,3.2,0,0,1,1.93-.9l1,.32c0-.09,0-.29.12-.49a9.42,9.42,0,0,0,.36-.93c.12-.39.13-.84.29-1.23s.42-.62.43-1.09-.58-.62-1-.59a5.48,5.48,0,0,0-3.7,1.91c-.14.18-.27.38-.39.57l-.09.14c-.11.17-.1.17,0,0s.14-.19-.08,0l-.19.15c-.25.23-.5.47-.73.72l4.06-.67a14.09,14.09,0,0,1,1.15-2.13l-4.43,1.35c0,.75-.83,1.29-.82,2.13,0,1.67,4.11-.44,4.44-1.35a5.8,5.8,0,0,1,.28-.73c.1-.17.11-.21,0-.11a2.62,2.62,0,0,1,.28-.3c.2-.2.49-.66.33-1s-.69-.33-1-.32a5.17,5.17,0,0,0-3.16,1.59Z"/></g><g id="pTvyC8.tif"><path d="M35.31,8c.45-.63.43-.56,1.1-.43a4.91,4.91,0,0,0,1.71,0c.53-.09.81-.57,1-1l.3-.74s.07-.08.07-.11c-.09-.5-.19-1-.31-1.6a2.18,2.18,0,0,1-.4.52,12.63,12.63,0,0,1-1.4.76,1.52,1.52,0,0,1-1.29-.49,3.14,3.14,0,0,1-.21-2.27A4.39,4.39,0,0,1,38,.22c.65-.36,1.35-.08,1.94.61a3,3,0,0,1,.61,2.1c0,.54-.12,1.08-.15,1.63a13.14,13.14,0,0,1,0,1.54,7.39,7.39,0,0,1-.56,1.64c-.08.18-.37.31-.6.39a3.28,3.28,0,0,1-1.62.41.68.68,0,0,0-.2.08c.16.51.64.58,1,.71a26.92,26.92,0,0,0,3.76,1.2c1.15.24,1.88,1.11,2.9,1.5a3.73,3.73,0,0,1,1.65,1.25,15.9,15.9,0,0,1,2.14,2.89,13.64,13.64,0,0,1,.77,1.59c.11.37.1.76.43,1,0,0,0,.14,0,.21a1.69,1.69,0,0,0,.18.65A4.86,4.86,0,0,1,51,21.27c.09.31.36.58.48.89.2.48.35,1,.52,1.49a4,4,0,0,0,.41,1.18c.46.61.33,1.31.48,2a12.33,12.33,0,0,0,.68,2.85A2.32,2.32,0,0,0,56.34,31a1.61,1.61,0,0,1,1.18,0c.09.05.32-.13.48-.21a2.77,2.77,0,0,1,.56-.3c.76-.21,1.52-.41,2.3-.56a7.31,7.31,0,0,1,2.55-.28,1.15,1.15,0,0,0,.54-.16,16.66,16.66,0,0,1,3.76-.66c1-.11,1.92-.26,2.87-.39.74-.11,1.48-.2,2.21-.35s1.52-.38,2.29-.53a14.46,14.46,0,0,1,1.75-.25c1.06-.08,2.13-.17,3.2-.17a12.3,12.3,0,0,1,2.27.22c.28.06.5.39.75.59a2.75,2.75,0,0,1,1.29,2.09A16.73,16.73,0,0,1,84,32.58a2.7,2.7,0,0,1-.38,1.15,3.87,3.87,0,0,1-3,1.69c-1,0-2,.08-3,0a29.47,29.47,0,0,1-3.51-.28C73.09,35,72,35,71,34.87c-1.76-.18-3.54-.18-5.3-.23-.86,0-1.7-.19-2.56-.25a28.54,28.54,0,0,0-3.33-.15,27.45,27.45,0,0,0-3.73.41A2.5,2.5,0,0,0,53.83,37c0,.24-.18.47-.24.71a2.19,2.19,0,0,0-.08.72c0,.33.19.67-.3.84a.63.63,0,0,0-.29.38c-.18.49-.31,1-.48,1.48-.11.34-.25.67-.39,1s-.34.79-.48,1.2a15.16,15.16,0,0,1-1.74,3.12,16.55,16.55,0,0,1-1,1.49A19.29,19.29,0,0,1,47,50c-.65.58-1.41,1-2.09,1.58-.38.3-.69.71-1.09,1a12.37,12.37,0,0,1-1.68.92c-.76.39-1.55.73-2.32,1.12a18.21,18.21,0,0,1-1.77,1c-.91.36-1.68,1.08-2.71,1.16l-.58,0c-.06,0-.15,0-.17,0a1.12,1.12,0,0,1-1,.37,2.21,2.21,0,0,0-.66.1.56.56,0,0,0-.13,0l-1.7.3a7.5,7.5,0,0,1-1.23.2,18.7,18.7,0,0,1-4.29-.23c-.31-.08-.66,0-1-.14-.62-.19-1.22-.43-1.83-.64a13.64,13.64,0,0,1-1.8-.62c-.72-.37-1.44-.72-2.2-1-.61-.25-1.2-.56-1.8-.84a3,3,0,0,1-.59-.31,7.34,7.34,0,0,0-2.32-1.29A10.31,10.31,0,0,1,12.76,52a8.66,8.66,0,0,1-1.14-.57,4.59,4.59,0,0,1-1.08-1C9.7,49.29,8.88,48.15,8.13,47a8.63,8.63,0,0,1-1.19-2.44c-.15-.65-.67-1.13-.7-1.83a3.84,3.84,0,0,0-.35-1.09c-.1-.28-.25-.54,0-.84,0,0,0-.17-.09-.26a5.89,5.89,0,0,1-.35-.77c-.11-.49-.16-1-.24-1.48,0,0,0,0,0-.08,0-1.34-.29-2.65-.21-4,0-.69-.07-1.39,0-2.08a19.43,19.43,0,0,1,.18-2c.08-.58.23-1.14.36-1.71a1.72,1.72,0,0,1,.11-.29c.35-.85.69-1.71,1.07-2.55a9,9,0,0,1,1.31-2.85c.24-.26.24-.73.43-1.06s.6-.85.89-1.29c.1-.14.1-.34.19-.49.34-.54.69-1.08,1-1.61s.9-1.35,1.37-2c.15-.21.41-.34.58-.54s.52-.66.81-.95a2.14,2.14,0,0,1,.58-.31l1.93-1c.26-.12.53-.2.79-.32s.74-.36,1.1-.55a7.82,7.82,0,0,1,2.91-1.11A4.32,4.32,0,0,0,21.67,11a6.27,6.27,0,0,1,2.44-.64,1.24,1.24,0,0,0,.44-.18,9.14,9.14,0,0,1,1.36-.61,14.36,14.36,0,0,1,1.62-.23c.54-.09,1.08-.22,1.62-.33a.6.6,0,0,1,.23,0,22.71,22.71,0,0,0,4.2-.3,6.94,6.94,0,0,1,2,.29c.38.09.71,0,.73-.3a.37.37,0,0,0-.14-.29C35.88,8.23,35.61,8.11,35.31,8ZM73.19,29.12v-.07a2.58,2.58,0,0,1-.58.28q-1.6.33-3.24.6c-1.06.17-2.12.3-3.19.44-.32,0-.65,0-1,0-.67.12-1.33.3-2,.42a33.47,33.47,0,0,0-3.77.73,31.51,31.51,0,0,1-3.14.7,2.44,2.44,0,0,1-1.66-.13.74.74,0,0,0-.64-.06.38.38,0,0,1-.58-.1,7.31,7.31,0,0,1-1.09-1.66,21.61,21.61,0,0,1-.74-3.68c-.16-.75-.4-1.48-.63-2.22a8.34,8.34,0,0,0-.41-.92,7.76,7.76,0,0,1-.3-.72c-.1-.27-.15-.57-.26-.84-.26-.62-.56-1.22-.82-1.84-.09-.22-.08-.5-.18-.73-.29-.63-.62-1.23-.92-1.86a10,10,0,0,0-1.54-2.7,8,8,0,0,0-.83-.91c-.66-.54-1.39-1-2-1.54A9.21,9.21,0,0,0,40.4,11c-.52-.17-1.09-.16-1.63-.3s-1-.33-1.47-.5a4.52,4.52,0,0,0-.8-.22c-.74-.13-1.49-.26-2.24-.33A5.55,5.55,0,0,0,33,9.67c-.52.07-1,.24-1.54.26s-.87-.16-1.3-.13a15,15,0,0,0-1.73.31l-2.53.49a3.09,3.09,0,0,0-.59.18,5.7,5.7,0,0,1-1.39.54,13.81,13.81,0,0,0-4.4,1.36c-.31.14-.65.21-.95.36-1.17.58-2.35,1.15-3.48,1.78-.47.26-1.08.32-1.39.84a2.71,2.71,0,0,1-.36.4,21.41,21.41,0,0,0-1.74,2.09c-.77,1.17-1.37,2.45-2.13,3.62a24.19,24.19,0,0,0-2.19,4.77c-.29.78-.67,1.54-.9,2.33a23.46,23.46,0,0,0-.48,2.5,3.88,3.88,0,0,0,0,.9c.06.64.17,1.28.22,1.92s.07,1.41.1,2.11c0,.2,0,.39,0,.58a11.57,11.57,0,0,0,0,1.32c.09.59.24,1.18.38,1.76a5.16,5.16,0,0,0,.23.66A1.22,1.22,0,0,1,7,41a3,3,0,0,0,.29,1.57A12.23,12.23,0,0,0,8.5,44.88a.8.8,0,0,1,.21.48,1.2,1.2,0,0,0,.39,1,1.38,1.38,0,0,1,.52,1.08.41.41,0,0,0,.17.3c.21.21.48.38.67.6s.23.5.42.67c.47.45,1,.84,1.5,1.27a2.27,2.27,0,0,1,.31.31c.18.26.31.58.74.51.09,0,.26.11.32.21.18.36.52.4.85.48a5.49,5.49,0,0,1,1.06.35c.42.21.8.49,1.2.73.74.45,1.63.54,2.36,1.07a8.14,8.14,0,0,0,1.79.75c1,.4,2,.82,3,1.19a8.18,8.18,0,0,0,2.46.63c.41,0,.95-.11,1.28.35,0,0,.13,0,.2,0,.87-.14,1.73-.3,2.6-.42s1.68-.18,2.51-.3c.46-.07.9-.21,1.35-.3A10.87,10.87,0,0,0,38,54.39a14.12,14.12,0,0,1,1.76-.94,32,32,0,0,0,3.32-1.77A17.9,17.9,0,0,0,45,50.17c.09-.07.16-.19.26-.22a3.48,3.48,0,0,0,1.51-1.19c.81-.84,1.51-1.79,2.25-2.69a.57.57,0,0,0,.1-.19,6.57,6.57,0,0,1,.26-.61c.3-.58.63-1.15.92-1.73.14-.26.21-.56.34-.82a12.18,12.18,0,0,0,.74-1.55,17.47,17.47,0,0,0,1.15-3.68c0-.16.11-.31.13-.47.06-.44.05-.9.14-1.34.17-.89,1-1.22,1.62-1.65a4,4,0,0,1,3.31-.68c.12,0,.28-.05.43-.07a8.79,8.79,0,0,1,1.5-.28c.51,0,1,.08,1.54.09,1.12,0,2.25.19,3.37.31.57.06,1.14.16,1.72.18s1.2,0,1.8,0c.1,0,.21,0,.31,0a7,7,0,0,0,1.36.12,5.62,5.62,0,0,1,2.16.11,3,3,0,0,0,.79,0,15.15,15.15,0,0,1,3,.14c.77.1,1.53.24,2.3.33a7.37,7.37,0,0,0,2.48-.11A6.85,6.85,0,0,0,82,33.78c.77-.36.75-1.21,1-1.89a1.22,1.22,0,0,0,.15-.63,5.36,5.36,0,0,0-.45-1.6,2.26,2.26,0,0,0-1.06-1,4.06,4.06,0,0,0-1.89-.2,24.31,24.31,0,0,0-2.55.12,17,17,0,0,1-2.69.31C74.05,29,73.62,29.05,73.19,29.12ZM36.93,3.4c0,.7.16.94.52.84a9.22,9.22,0,0,0,1.35-.53.14.14,0,0,0,.08-.1,11.74,11.74,0,0,0,.41-1.18c.05-.22-.06-.49,0-.71A.6.6,0,0,0,39,1c-.16-.09-.46,0-.66.1C37.27,1.62,37.14,2.62,36.93,3.4Z"/><path d="M14.63,6.22a5.85,5.85,0,0,1,1.06-1.37c.5-.35.76-1.13,1.69-1a3,3,0,0,1-.29.57c-.21.29-.46.55-.69.83a1.19,1.19,0,0,0-.09.15c-.11.19-.36.44-.3.55a1.75,1.75,0,0,0,.6.72,5.64,5.64,0,0,0,1.17.54,2.69,2.69,0,0,0,1.79,0c.33-.1.75,0,1-.43,0-.07.3,0,.46,0A.58.58,0,0,1,21,7c-.54.31-.87.89-1.54,1.06a5.21,5.21,0,0,1-3.1-.22A2.32,2.32,0,0,0,16,7.76a1.87,1.87,0,0,0,0,.41c.09.39.24.77.31,1.16,0,.19,0,.51-.15.58a.66.66,0,0,1-.62-.08,3,3,0,0,1-.63-.78c-.18-.28-.26-.63-.44-.92a2.25,2.25,0,0,1-.35-1.31c0-.06,0-.16,0-.17-.61-.27-.41-1-.75-1.39a.67.67,0,0,1-.16-.73c.08-.22-.08-.52-.07-.78s.18-.22.27-.34c.11.11.27.2.31.33.12.43.17.88.31,1.29a5.33,5.33,0,0,0,.46.8A2.42,2.42,0,0,1,14.63,6.22Z"/><path d="M29.16,3.18c.13-.18.25-.33.35-.49L30.59.86s.05-.1.07-.1c.5,0,.69-.52,1.09-.69a.93.93,0,0,1,1.11.3,3.22,3.22,0,0,1,.41.93c.15.71.24,1.44.36,2.16.07.44.17.87.21,1.31a1.71,1.71,0,0,1-.14.55c-.2-.07-.49-.08-.57-.22a2.3,2.3,0,0,1-.27-.9c0-.22,0-.46,0-.65a5.12,5.12,0,0,1-.25-.65c-.08-.43-.1-.88-.21-1.31A2.87,2.87,0,0,0,31.94,1c-.36.24-.78.27-.87.84a2.23,2.23,0,0,1-.64,1C30,3.35,30.1,4,30,4.6a3.73,3.73,0,0,1,0,.48.67.67,0,0,1-.77.53.63.63,0,0,1-.53-.76.55.55,0,0,0-.18-.58,3.23,3.23,0,0,1-.64-1.77,3.26,3.26,0,0,1-.14-.6,13.27,13.27,0,0,1,0-1.41c0-.06.31-.18.34-.15a1.76,1.76,0,0,1,.44.63c.2.66.35,1.35.53,2C29,3.05,29.09,3.1,29.16,3.18Z"/><path d="M8.77,14.8c-.1.26-.19.52-.29.77l-.27.78s0,.11-.05.12c-.6.17-.63,1-1.36,1.09A1.9,1.9,0,0,1,5.1,17l-.54-.67a1.36,1.36,0,0,1-.24-1.08A6.89,6.89,0,0,1,4.41,14a1.19,1.19,0,0,1,1.07-1A1.54,1.54,0,0,0,6,12.83a2,2,0,0,1,1.89.08,1.76,1.76,0,0,1,.82,1.51c0,.11,0,.23,0,.35Zm-.83,0a.88.88,0,0,0-.49-.95,3.67,3.67,0,0,0-1.06-.27s-.13.06-.17.12c-.13.22-.2.49-.57.43-.07,0-.24.22-.27.35a1.85,1.85,0,0,0,.29,1.72c.21.24.43.26.63.4s.47.05.65-.16c0-.05.11-.06.15-.09A3.08,3.08,0,0,0,7.94,14.77Z"/><path d="M10.4,9.14l-.14-.42A1.7,1.7,0,0,1,12,8.7a1.17,1.17,0,0,1,.71,1.06c0,.17.09.33.09.48a5.38,5.38,0,0,1-.12.7,3.26,3.26,0,0,1-.23.75c-.27.54-.57,1.08-.88,1.6a1.3,1.3,0,0,1-1.58.55l-.54-.17c-.57-.12-.82-.33-.87-.85s0-1.19,0-1.79A1,1,0,0,1,9,10c.26-.17.42-.5.68-.68A2.28,2.28,0,0,1,10.4,9.14Zm-.67.46c0,.35,0,.67-.06,1-.09.62-.22,1.22-.31,1.84a.32.32,0,0,0,.13.29c.36.09.72.54,1.11.05.06-.08.2-.08.28-.14a3.42,3.42,0,0,0,.36-.4c.09-.14.11-.35.23-.43.4-.27.38-.67.4-1.07a3.37,3.37,0,0,0,0-.44.82.82,0,0,0-1.28-.75C10.26,9.7,10,9.8,9.73,9.6Z"/><path d="M4.18,19.77a.75.75,0,0,1-.39.81,8.68,8.68,0,0,0-.92.9l-.14.11a2,2,0,0,1-2.34-1,7.09,7.09,0,0,1-.33-3.26,2.88,2.88,0,0,1,.2-.63c0-.07.1-.14.09-.19a2.71,2.71,0,0,1,.58-1.95c.26-.41.66-.36,1-.52.05.12.17.32.13.36a4.26,4.26,0,0,0-.93,2.51c0,.11,0,.24,0,.35A3.21,3.21,0,0,1,1,17.9a3.41,3.41,0,0,1,0,.55,2.15,2.15,0,0,0,.85,1.93,1,1,0,0,0,1.38-.05,1.87,1.87,0,0,0,.72-.73A9.12,9.12,0,0,1,5,18C5.42,18.31,4.73,19.59,4.18,19.77Z"/><path d="M25.44,5.73,25,6.56a12.68,12.68,0,0,1-1.26-.35,1.47,1.47,0,0,1-.54-.45c-.41-.53-1-1-1-1.73,0-.05-.11-.15-.18-.16-.34,0-.36-.31-.33-.53a.79.79,0,0,1,.33-.46.37.37,0,0,1,.57.14c.24.38.49.76.7,1.16A2.62,2.62,0,0,0,25.44,5.73Z"/><path d="M22.34.88c.44-.69.59-.74,1.19-.38.21.13.4.32.22.59s-.33.37-.63.17A4.72,4.72,0,0,0,22.34.88Z"/><path d="M12.22,44.15l-.24.51a1.86,1.86,0,0,1,1.37,1,14.65,14.65,0,0,0,1.64,2,6.9,6.9,0,0,0,1.21.81c.12.08.3.14.36.25.41.8,1.23,1.09,1.92,1.52.39.24.87.34,1.28.55a8.54,8.54,0,0,1,.78.56,2.66,2.66,0,0,0,.58.3c.7.23,1.41.44,2.12.66.25.07.52.12.77.2a2,2,0,0,0,.85.22c.41,0,.84.11,1.25.1s.49,0,.5.26a7.41,7.41,0,0,0,1.42,0c1-.19,1.94.33,2.93.27a2.7,2.7,0,0,0,.47-.12l.51-.14.55-.17s.07,0,.11-.07c.44-.19.88-.36,1.3-.56s.78-.39,1.17-.57c.22-.11.44-.18.67-.27.52-.2,1.06-.39,1.58-.6.22-.1.41-.41.64,0-.06,0-.11.12-.17.13a11.52,11.52,0,0,0-3.31,1.55c-.57.3-1.16.57-1.75.83-.43.2-.87.36-1.31.54a.56.56,0,0,1-.22,0c-.73-.09-1.46-.23-2.2-.29a7.59,7.59,0,0,0-1.58,0,2.68,2.68,0,0,1-1.78-.21,2.75,2.75,0,0,0-1-.19c-.13,0-.28,0-.4,0a9.29,9.29,0,0,1-1.84-.42c-.74-.32-1.51-.44-2.25-.69-.12,0-.2-.17-.31-.23s-.31-.16-.46-.24-.23,0-.26-.1a1.23,1.23,0,0,0-.82-.62,2.87,2.87,0,0,1-.59-.39c-.09-.06-.19-.18-.26-.16-.42.1-.65-.15-.89-.43a3.8,3.8,0,0,0-.52-.32,4.93,4.93,0,0,1-.4-.39,2,2,0,0,0-.24-.26c-.29-.23-.8-.41-.83-.66,0-.43-.56-.42-.55-.8,0-.06-.08-.16-.13-.16-.63-.08-.77-.61-1-1.06a2,2,0,0,0-.42-.5c-.47-.45-1-.88-1.43-1.34-.11-.12-.13-.32-.23-.46a15.19,15.19,0,0,0-1-1.27,1.9,1.9,0,0,1-.51-1.23,2,2,0,0,0-.45-.89,5,5,0,0,1-.55-2.07c-.11-.55-.23-1.1-.33-1.66a.74.74,0,0,1,0-.39.64.64,0,0,0,0-.7c-.09-.12.11-.43.18-.66s0-.5,0-.76c0-.42,0-.83.05-1.25,0-.6.11-1.21.14-1.81,0-.4,0-.8,0-1.19a.92.92,0,0,1,.14-.38c0-.33-.07-.59-.08-.85a10.09,10.09,0,0,1,0-1.65c.1-.67-.13-1.41.36-2A2.18,2.18,0,0,1,9,25c.07,0,.17-.09.2-.16.14-.4.25-.8.39-1.2a.71.71,0,0,1,.18-.28c.34-.35.69-.68,1-1s.45-.39.66-.6a1.56,1.56,0,0,0,.44-.49,6.54,6.54,0,0,1,1.83-2.15,5.8,5.8,0,0,0,.62-.77c.23-.31.45-.62.69-.91a.42.42,0,0,1,.28-.12c.68.05,1.08-.43,1.59-.76s.84-.86,1.5-.88a.36.36,0,0,0,.23-.09c.55-.62,1.29-.44,1.95-.43a2.15,2.15,0,0,0,.81-.13,8.87,8.87,0,0,1,1.05-.12c.7-.11,1.39-.25,2.13-.39.13.17.15.31-.19.39-.65.16-1.28.39-1.93.5a12.64,12.64,0,0,1-1.51,0,4.57,4.57,0,0,0-2.11.52c.37.56.34.67-.26,1a3.19,3.19,0,0,1-.66.28,6.15,6.15,0,0,0-2.75,1.54,4.45,4.45,0,0,0-1.43,3.06,9.23,9.23,0,0,0,.89-.6c.45-.4.76-1,1.45-1.05.07,0,.11-.17.19-.23.24-.18.49-.33.74-.5.42-.29.86-.56,1.25-.89s.49-.59.79-.81a14.18,14.18,0,0,1,1.35-.81l.37-.23c.09-.05.18-.16.26-.15.86.1,1.4-.72,2.21-.75a1.14,1.14,0,0,1,.3.09V16c-.65.3-1.31.57-1.95.9-.38.19-.72.47-1.09.69a1.52,1.52,0,0,1-.64.31c-.53,0-.77.45-1.12.71s-.5.46-.77.67c-.49.38-1,.72-1.5,1.11s-.7.68-1.07,1-.68.45-1,.72c-.51.44-1.12.75-1.36,1.48s-.67,1.49-1,2.24c-.21.53-.35,1.1-.52,1.64-.32,1-.67,2-.95,3a14.7,14.7,0,0,0-.22,1.64c0,.3-.15.6-.2.9a23.3,23.3,0,0,0-.36,4.25c0,.75.09,1.49.13,2.24a2.35,2.35,0,0,1,0,.75A2.84,2.84,0,0,0,10.34,42a2.26,2.26,0,0,0,1,1.32.29.29,0,0,1,.12.18C11.59,43.83,11.67,44.21,12.22,44.15Zm1-23.39H13c-.19.27-.37.55-.58.81s-.89.48-1,1.05c0,.05-.08.09-.12.13a9.9,9.9,0,0,0-1.93,2.66,2.46,2.46,0,0,0-.22,1c-.05.65,0,1.3-.05,1.95a6.43,6.43,0,0,1,0,.76c-.07.44.2,1-.18,1.24,0,.44.06.8,0,1.15s-.17.93-.19,1.39c0,.87,0,1.74,0,2.6a.29.29,0,0,1,0,.09A3.64,3.64,0,0,0,9,38a.92.92,0,0,0,.11-.38,15.44,15.44,0,0,1,.21-2.26c.16-.69.06-1.39.28-2.09a14.2,14.2,0,0,1,.4-1.52A1.85,1.85,0,0,0,10,31a1.61,1.61,0,0,0,0-.44c-.19-.68.43-1.18.39-1.87a5.67,5.67,0,0,1,.38-1.72.8.8,0,0,1,.16-.26c.49-.53.44-1.3.86-1.86,0,0,0-.06,0-.09.13-.57.06-1.21.58-1.65.11-.1.23-.34.19-.43-.19-.39.07-.57.28-.8a1.88,1.88,0,0,0,.4-.58A1.21,1.21,0,0,0,13.19,20.76Z"/><path d="M42.66,48.2a6.23,6.23,0,0,1,.75-.93c.5-.43,1.09-.77,1.6-1.19.26-.22.42-.57.68-.82a.88.88,0,0,1,.57-.23c.28,0,.38-.07.38-.3a4,4,0,0,1,.92-2,4.35,4.35,0,0,0,.57-1.5,4.17,4.17,0,0,1,.25-.67,6.06,6.06,0,0,0,.54-1.23c.18-.87.25-1.75.37-2.63a2.19,2.19,0,0,1,.12-.33c0-.1.11-.21.09-.29-.31-1,0-2,0-3,0-.15.15-.33.18-.39a13.07,13.07,0,0,0-.27-1.78c-.12-.4.16-.83-.15-1.21-.09-.11,0-.34,0-.51a1.31,1.31,0,0,0,0-.28,3,3,0,0,1-.11-.65A11.72,11.72,0,0,0,48.7,25c-.09-.6-.24-1.2-.37-1.79a3.76,3.76,0,0,1-.42-.58c-.32-.63-.6-1.28-.9-1.92a10.64,10.64,0,0,0-2-2.53c-.31-.35-.54-.78-.86-1.12A12.65,12.65,0,0,0,42.88,16a14.68,14.68,0,0,1-1.6-1.18A3.09,3.09,0,0,0,39.34,14a20.18,20.18,0,0,0-2.43-.31,19.86,19.86,0,0,0-2-.06c-.46,0-.92.17-1.38.19s-1.13,0-1.7,0c-.27,0-.53,0-.8,0a5.19,5.19,0,0,1-.77-.14,2.63,2.63,0,0,1-.37-.19,8.7,8.7,0,0,1,1.46-.24c.91,0,1.83.09,2.75.13a2.08,2.08,0,0,0,.48-.11,5.69,5.69,0,0,1,.89-.2,4.92,4.92,0,0,1,2,0,5.47,5.47,0,0,0,1.22,0c.43.05.85.16,1.27.22a2.82,2.82,0,0,1,1.27.66c.09.07.27,0,.41,0s.53,0,.52.47c0,.23.32.56.58.69s.51.06.64.37c.05.12.23.17.35.26.29.22.59.43.85.67.54.5,1.06,1,1.58,1.53,0,0,0,0,0,0,0,.61.68.72,1,1.11a13.36,13.36,0,0,1,1,1.72c.23.43.42.88.62,1.32s.25.64.37,1a3.93,3.93,0,0,1,.46,2.08.51.51,0,0,0,.08.38,2.2,2.2,0,0,1,.2,1.31c0,.11.07.23.08.34L50,28.65c0,.32.07.64.11,1,0,.09,0,.18,0,.27,0,.42.06.85.1,1.27a15.31,15.31,0,0,1,.18,1.66c0,.72-.15,1.44-.14,2.16s-.29,1.51-.22,2.31a3.41,3.41,0,0,1-.33,1.4c-.16.46-.31.87.07,1.31s.18.52-.21.72A1.79,1.79,0,0,0,48.54,42a5.65,5.65,0,0,1-1.26,2.53c-.05.07-.14.16-.13.22.11.65-.42.63-.77.67-.61.06-.87.49-1.2.89a2.22,2.22,0,0,1-.4.41c-.59.45-1.19.88-1.78,1.32a1.31,1.31,0,0,0-.19.27Z"/><path d="M25.25,29.47c0-.06,0-.14.08-.16.67-.3.86-.95,1.15-1.53A1.56,1.56,0,0,0,26.6,27c-.06-.88-.13-1.76-.24-2.64a3.62,3.62,0,0,1,1-3.08c.93-.91,2-1.77,3.51-1.51.08,0,.21,0,.25,0,.28-.38.57-.14.88-.06a5.35,5.35,0,0,1,2.51,2.19,4.21,4.21,0,0,0,1.64,1.46c.59.25,1.09.7,1.68.9a14.91,14.91,0,0,1,3.31,1.34,17.42,17.42,0,0,1,2.16,1.56,1.83,1.83,0,0,1,.34,2.23,13.23,13.23,0,0,1-.77,2,10.79,10.79,0,0,1-1.77,2.55,6.12,6.12,0,0,0-.91,1.48c0,.06-.06.16-.11.19-.54.31-.66.9-.87,1.41a8.68,8.68,0,0,1-3.9,4.55,6.78,6.78,0,0,1-3.62.88c-1-.07-2-.22-3-.29-.53,0-1.06,0-1.59,0a2.92,2.92,0,0,1-1.77-.61,12.06,12.06,0,0,1-1.62-1.26A5.81,5.81,0,0,1,22,37.15,10.89,10.89,0,0,0,21.54,36a5.58,5.58,0,0,1-.22-2.72c.11-.41.2-.84.32-1.24,0-.13.19-.23.29-.34l.13,0a1.42,1.42,0,0,1,0,.36,5.9,5.9,0,0,0-.27,2.25,7.32,7.32,0,0,0,.67,2.77A7.53,7.53,0,0,0,25,40.63a5.18,5.18,0,0,0,2.64,1c.34,0,.68-.07,1,0,.91.08,1.81.21,2.72.29a7.16,7.16,0,0,0,2.63-.4c.28-.08.56-.18.84-.28a2.57,2.57,0,0,0,1.1-.64,7.19,7.19,0,0,1,1-.82,2.14,2.14,0,0,0,.55-.53c.58-1,1.2-2,1.7-3.12a19.27,19.27,0,0,1,2-2.89,11.39,11.39,0,0,0,1-1.59c.41-.87.78-1.78,1.11-2.7s.11-1.17-.6-1.67-1.37-1-2.05-1.5a6.27,6.27,0,0,0-2.07-.86A15.63,15.63,0,0,1,36,23.7a7,7,0,0,1-2.36-2.38,2.15,2.15,0,0,0-.88-.71A4.7,4.7,0,0,0,29,20.47a3.52,3.52,0,0,0-2.28,3.6c0,.32.08.64.13,1,.1.67.2,1.34.29,2a.14.14,0,0,1,0,.09,5.36,5.36,0,0,1-1.31,2.33.4.4,0,0,1-.59,0Z"/><path d="M79,33.07c-1.1,0-2.07.13-3,.12A11,11,0,0,1,73,33c-.6-.18-1.2-.56-1.89-.33,0,0-.11,0-.13,0-.32-.42-.72-.18-1.09-.14s-.53-.09-.58-.41.13-.45.44-.45c.11,0,.27,0,.32-.12a2,2,0,0,1,2-.71,5.53,5.53,0,0,0,1.44-.36l2.8-.62c.48-.1.95-.22,1.43-.3s1.19-.21,1.79-.26a1.29,1.29,0,0,1,1.16,1.53A4,4,0,0,1,80,32.48,2,2,0,0,1,79,33.07ZM73,32a2.92,2.92,0,0,0,.53.19c.64.07,1.27.13,1.91.16.42,0,.84,0,1.27-.06l1.06-.09a4.66,4.66,0,0,0,.65,0,1.38,1.38,0,0,0,1.07-1.07c.11-.34,0-.51-.32-.54h-.44a2.55,2.55,0,0,0-1.48.21,3.32,3.32,0,0,1-1,.17c-.4.07-.8.15-1.19.24a4.58,4.58,0,0,1-.85.21A1.54,1.54,0,0,0,73,32Z"/><path d="M34.71,33.91a10.51,10.51,0,0,0-.47-1.75c-.27-.59-1-.75-1.48-1.09-.15-.09-.4-.26-.38-.31.11-.29.31-.08.5-.05a2.48,2.48,0,0,1,1.89,1.39A3.36,3.36,0,0,1,34,36.31a8.44,8.44,0,0,1-1.61,1.09,2.11,2.11,0,0,1-2.32-.3,6.67,6.67,0,0,1-1.94-2.29,2.06,2.06,0,0,1,0-1.75,5.77,5.77,0,0,1,1.6-2.34,1,1,0,0,1,.59-.18,12.34,12.34,0,0,1,1.36,0c.13,0,.25.16.37.25-.15,0-.31.15-.44.12a2.38,2.38,0,0,0-2.44,1,2.82,2.82,0,0,0-.68,1.91,1.51,1.51,0,0,0,.15.69,4.7,4.7,0,0,0,1.62,2,2,2,0,0,0,2.72,0,3.75,3.75,0,0,0,1.61-1.92A4,4,0,0,0,34.71,33.91Z"/><path d="M25.25,29.46c-.11.12-.2.33-.33.35a5.13,5.13,0,0,0-2.26,1.38,2.21,2.21,0,0,1-.47.33c.2-.51.36-1,1-1.22s1.06-.58,1.61-.84c.13-.07.32,0,.48,0Z"/><path d="M29.68,13.93a3.88,3.88,0,0,0-.48,0c-.38.07-.86-.16-1.11.35a.11.11,0,0,1-.12,0c-.41-.18-.83,0-1.25,0-.09,0-.22-.05-.25,0-.35.5-.86.24-1.34.33C25.62,14.16,29.16,13.56,29.68,13.93Z"/><path d="M41.28,49.25c0-.48.47-.39.69-.6l.11.13-.69.58Z"/><path d="M38.13,50.66l.44-.3.14.21-.46.29Z"/></g></g></g></svg>