<svg xmlns="http://www.w3.org/2000/svg" viewBox="0 0 75.47 50.92"><defs><style>.cls-1{opacity:0.8;}.cls-2{fill:#f5cb31;}.cls-3{opacity:0.3;}.cls-4{fill:#8195a5;}</style></defs><g id="Layer_2" data-name="Layer 2"><g id="Layer_1-2" data-name="Layer 1"><g class="cls-1"><path class="cls-2" d="M9.54,12.17C7.91,12,6.93,13.62,6.36,14.92c-.73,1.63-.75,3.36-1.25,5-.29,1-.64,1.52-.28,2.61a4.68,4.68,0,0,0,2.45,2.59,11.36,11.36,0,0,0,1.29.55s.92.3.45.07a11,11,0,0,1,2.32,2,43.16,43.16,0,0,1,4.5,4.47c.68.86,1.41,1.72,2,2.63s.92,1.64,1.51,2.38A40.1,40.1,0,0,0,24,41.56a20.34,20.34,0,0,1,2.13,2,10.2,10.2,0,0,1,1.45,2.55c.67,1.54,3.7,2.75,3.66.2a5.55,5.55,0,0,1,.37-2.28A11.38,11.38,0,0,1,33,41.52c-.22.08-.18,0,.14-.09a5.44,5.44,0,0,0,.67-.37,9.72,9.72,0,0,0,1-.47c.91-.63.73-1.92.29-2.76-.92-1.77-2.85-2.44-4.19-3.78.32.32-.37-.58-.46-.68a12,12,0,0,0-1.16-1.21,20.94,20.94,0,0,0-2.4-1.91,17.92,17.92,0,0,1-1.77-1.4c-.1-.09-1.13-.73-1.13-.77.61.78.65.79.12,0-.25-.28-.51-.54-.77-.79-1.39-1.28-2.8-2.48-4.1-3.84A49.62,49.62,0,0,1,16,19.19a7.16,7.16,0,0,0-.95-1l-.78-.57c-.31-.23-.37-.26-.2-.07s.13.14-.11-.15-.44-.47-.67-.7a6,6,0,0,0-.49-.39c-.85-.7-.74-.42.34.82a3.34,3.34,0,0,0-2.59-2.31C8.68,14.61,8.42,17,8,18.26c.13-.38-.11.21-.16.32-.17.39-.33.79-.46,1.19A3.29,3.29,0,0,0,8,23c.73.83,2.25,1.85,3.12.59.5-.71,1-1.43,1.44-2.19.24-.39.51-1.08.93-1.17L10.3,17.45a6.13,6.13,0,0,1-.15.62c0,.29,0,.58-.06.87-.09.52-.29,1-.38,1.54a4.33,4.33,0,0,0,1.09,3.8c.94,1,2.37,1.51,3.33.31a13.16,13.16,0,0,1,1.69-2.24l-3.56-2.62c.25,1.53-.18,3,.17,4.58.26,1.13,2.87,3.55,3.74,1.72a6.35,6.35,0,0,1,1-1.74l-2.84-.94c-1.1-1.46-.34-1.27-.45-.65,0,.26,0,.51-.1.77A6.16,6.16,0,0,0,13.39,26c.21,1.37,2,3.72,3.56,2.62.84-.58.95-1.68,1.69-2.26l-2.84-.93c-.67-.94-.33-1-.48-.44-.08.35-.1.73-.17,1.08a8.65,8.65,0,0,0-.28,3c.24,1.56,1.89,3.49,3.57,2.62.58-.3.75-1,1.11-1.49.21-.29.47-.52.66-.81l.15-.23c.12-.3.17-.35.13-.16l-2.81-1.7c-.36-.67-.17-.3-.28.25-.06.33-.14.67-.22,1a6.59,6.59,0,0,0-.4,2.88c.25,1.41,1.92,3.64,3.56,2.61a6.44,6.44,0,0,0,1.39-1.71c.25-.34.48-.7.75-1-.05.06.28-.35.26-.31.19-.36.72-.05-.37-.05l-1-.34.05,0-1.67-3c-.11,2.69-1.84,6,0,8.37.5.66,2,1.75,2.84.93,1.06-1.07,1.77-2.46,3.1-3.24l-3.57-2.62c.23,1.8-1.07,3.45-1.24,5.2C20.67,37.83,22.24,40,24,39.59c.89-.2,1.46-1.15,2-1.82.26-.35.5-.73.79-1.06a4.4,4.4,0,0,0,.37-.38c.28-.42.17.22-.52-.1L24.4,33c-.1,1.42-.92,2.7-1.15,4.11A3.74,3.74,0,0,0,25.6,41.4c.35.1,1.07.19,1.36-.15.7-.84,1.43-1.67,2.08-2.55l.32-.48c.37-.51.52-.35-.06-.4l-2.59-2.31a12.74,12.74,0,0,1-.36,1.37c-.09.51-.13,1-.24,1.52a6.93,6.93,0,0,0,0,3.17c.29,1.33,2.09,2.89,3.44,2.07,1-.6,1.24-1.89,2-2.73L28.64,40c-.84-.92-.38-1.81-.63-.7-.05.23-.12.45-.15.69a16.43,16.43,0,0,0,0,2.53c0,2.11,4.06,4.36,4,1.32,0-2,.87-4.2-.67-5.88-.51-.55-2-1.86-2.84-.94a10.91,10.91,0,0,0-1.15,1.55c-.24.41-.38.92-.8,1.18l3.45,2.06c-.07-.29.22-.93.27-1.23.1-.52.14-1.05.24-1.57a6.92,6.92,0,0,0,.13-3.26,3.28,3.28,0,0,0-2.59-2.31c-1-.09-1.56.65-2.08,1.36-.64.87-1.29,1.73-2,2.56l1.36-.15-.12,0,1.48,1.08c1.06,1.41.46,2,.73.8.05-.24.11-.47.18-.7a13.45,13.45,0,0,0,.9-3A3.4,3.4,0,0,0,26.2,32c-1.29-.59-2.27.39-3,1.3-.37.46-.71,1-1.08,1.42l-.28.35a1.84,1.84,0,0,1-.25.23c.21-.06.23-.08.08,0l3.15,3.33c.21-2.16,1.56-4,1.28-6.22-.19-1.5-1.95-3.56-3.57-2.62-1.34.78-2,2.17-3.09,3.24l2.83.94s.62,1.28.61,1.29A4.69,4.69,0,0,0,23,34.6c.07-.31.16-.61.22-.92A24.54,24.54,0,0,0,23.72,30a3.37,3.37,0,0,0-1.67-3c-1.43-.89-2.33,0-3.18,1.07a13.23,13.23,0,0,1-1.65,2.14l3.57,2.62c-.15-.84.43-2,.59-2.85a5.1,5.1,0,0,0-.4-3.52,2.86,2.86,0,0,0-2.81-1.69c-.88.17-1.18.8-1.64,1.47a7.05,7.05,0,0,1-1.21,1.62l3.57,2.62a13.53,13.53,0,0,1,.43-3.2,5.24,5.24,0,0,0-1-3.8c-.55-.76-1.94-1.64-2.84-.94s-.93,1.73-1.69,2.26l3.57,2.61a4.09,4.09,0,0,1,.34-1.52,6.66,6.66,0,0,0,.13-1.33,4.89,4.89,0,0,0-1-3.18c-.48-.63-2.06-1.79-2.84-.93a9.43,9.43,0,0,0-1.55,2.42l3.74,1.72c-.25-1.09.24-2.33.05-3.47s-2.07-3.89-3.56-2.61a8.3,8.3,0,0,0-1.43,1.64c-.16.21-.29.43-.43.65l-.13.23c-.21.29-.18.29.11,0l1.48.29-.14-.1,1.33,1.41c.1.69.16.78.2.26,0-.21.09-.43.14-.65s.18-.58.23-.88a10.71,10.71,0,0,0,.24-2.52c-.12-1.43-1.62-3.14-3.17-2.82a3.47,3.47,0,0,0-2,1.8c-.55.9-1.11,1.78-1.71,2.65l3.13.59.5.9.1,1.07a9.34,9.34,0,0,1,.76-2.19c.11-.34.18-.7.3-1a3.9,3.9,0,0,1,.19-.5c0-.41.38,0-.42,0L9.38,16.89a9.34,9.34,0,0,0,2.48,3c.46.48,1.15.79,1.57,1.25a16.61,16.61,0,0,1,1,1.5,50.34,50.34,0,0,0,6,6.54c.26.25.54.48.81.71l.49.43-.33-.41c.35.21.74,1,1.1,1.31a5.44,5.44,0,0,0,.83.46c-.39-.2.46.46.61.6a12.52,12.52,0,0,0,1.09.83c.46.32.93.61,1.37,1A10.85,10.85,0,0,1,28,35.5a14.35,14.35,0,0,0,1.5,1.71c.46.38,1,.68,1.4,1.09a8.11,8.11,0,0,0,1,.83c.6.4.71.85-.08-.37l-.35-1.64v.15l.43-.78a8.31,8.31,0,0,1-1.22.66,7.41,7.41,0,0,0-.74.4,6.81,6.81,0,0,0-1.48,2.27A9.73,9.73,0,0,0,27.22,45l3.66.2a19.77,19.77,0,0,0-5.55-6.93c-1-.89-2.13-1.74-3.08-2.72a33.61,33.61,0,0,1-2.32-3.38,50.93,50.93,0,0,0-6.14-6.66,39.88,39.88,0,0,0-3.35-2.89,5.94,5.94,0,0,0-1.65-1A8.06,8.06,0,0,0,8,21.42c-.84-.19.12-.86.6,1.1l.1,1.07c.15-.81.47-1.65.65-2.48.14-.66.32-1.87.41-2.15a9.31,9.31,0,0,1,.71-1.58,3.11,3.11,0,0,1,.44-.69c.23-.23.28-.09.08-.11,1.19.13,1.47-1.21,1.19-2.1a3.31,3.31,0,0,0-2.59-2.31Z"/></g><g class="cls-1"><path class="cls-2" d="M13.29,14A10.91,10.91,0,0,0,15,16.23a17.51,17.51,0,0,1,1.67,2.32,22.8,22.8,0,0,0,4.25,4.19c1.65,1.45,3.11,3.09,4.85,4.43.83.63,1.57,1.38,2.35,2.07a5.33,5.33,0,0,0,.62.54c.44.28-.36-.33-.26-.33a15.13,15.13,0,0,1,.9,1.47,23.66,23.66,0,0,0,2,2.27,7.62,7.62,0,0,1,1,1c-.14-.24-.25-.4-.2,0a3,3,0,0,0,.51,1,16.66,16.66,0,0,0,1.12,2,10.74,10.74,0,0,0,2.5,2.4,4,4,0,0,0,3,.59c1.06-.22,2.15-.17,3.22-.41a32.19,32.19,0,0,1,7.08-.31c1.18,0,2.38.12,3.56,0a9.94,9.94,0,0,1,3.22,0,31.63,31.63,0,0,1,3.21.87c1.23.42,2.27,1,3.52.29.81-.43.28-1.57-.11-2.06a13.78,13.78,0,0,0-2.05-2c-.72-.59-1.34-1.3-2.07-1.88-.22-.17-.88-.85-.51-.33s0-.11,0-.18A11.07,11.07,0,0,0,57.62,33c-.64-.94-1.29-1.87-1.9-2.83-1-1.54-1.68-3.17-2.55-4.75a23.58,23.58,0,0,0-3.76-5c-.68-.71-1.36-1.42-2-2.19s-.78-1.37-1.3-2c-1.66-1.9-4.19-1.44-6.43-1.44a53.26,53.26,0,0,1-5.5-.36c-2.06-.21-4.12,0-6.18-.11-2.24-.11-4.49-.18-6.73-.41-1.15-.12-2.36-.06-3.49-.26-.45-.07-.89-.24-1.33-.34-1.18-.29.16.05.35.47l.2.91,0-.14-.82.87a10,10,0,0,1,2.45,0,6.93,6.93,0,0,1,1,.24,2.79,2.79,0,0,0,.4.07q1.16.22-1-.78l-.49-.93c-.07-.22.09-.15-.14.12a5.74,5.74,0,0,0-.36.5A1.93,1.93,0,0,0,18,16.24a3.42,3.42,0,0,0,2.65,2.23,19.61,19.61,0,0,0,3.25.08,12.52,12.52,0,0,1,2.52,0l-2.55-3.05a12.37,12.37,0,0,1-2.16,1.92l3.73,3.17A7.16,7.16,0,0,1,28,19H26.91l.16,0-2.69-2.66c-.33,1.5-1.92,2.38-2.22,3.89C21.81,22,25,23.45,26.3,22.72a18.35,18.35,0,0,0,2.57-2,7.43,7.43,0,0,1,1-.79c.11-.06.27-.09.37-.16.53-.38.87.42-.7-.26l-1.57-1.12.13.14-.49-.92a10.27,10.27,0,0,1-.63,1c-.13.26-.24.53-.37.79s-.57.84-.33.74l3.32,3.35c1.09-.77,2.24-1.46,3.27-2.31.29-.25.57-.51.87-.75s.38-.25.53-.4.31-.05,0-.08l-1.74-.53.11.07-1.29-1.29.05.11-.21-.91c0,.7-.58,1.41-.88,2a17.55,17.55,0,0,1-2,3.53c-.87,1.05,1.22,2.65,2,2.87,1.94.58,2.61-.19,3.71-1.6a22.06,22.06,0,0,1,1.85-2.13,4.73,4.73,0,0,1,1.52-1.2L33.8,19.17l.06.13-.21-.9a4.46,4.46,0,0,1-.6,1.74,13.16,13.16,0,0,1-1.14,2.64c-.56.85.48,1.95,1.1,2.39a2.87,2.87,0,0,0,2.91.48c1-.51,1.67-1.89,2.43-2.71.55-.58,1.13-1.11,1.69-1.66.39-.38.75-.94,1.25-1.16l-4.11-2c.19.93-.58,2-.91,2.79A33.22,33.22,0,0,0,35,24c-.29.95,1.12,2,1.79,2.33.85.41,1.95.65,2.63-.16.93-1.11,1.76-2.3,2.69-3.43a13.69,13.69,0,0,1,2-2.22l-3.7-2.21c0,.29-.57,1.23-.68,1.56a9.36,9.36,0,0,1-.92,2A4.74,4.74,0,0,0,38,25.37c.38,1.3,2.76,3.1,4.11,2A17.07,17.07,0,0,0,44.81,24l.69-.9c.14-.18.31-.34.43-.53.22-.34.68-.25-.21-.21L42.51,20a3.51,3.51,0,0,1-.42,1.75,17.1,17.1,0,0,1-.94,2.26c-.95,1.78,2.61,3.81,4,2.87a8.5,8.5,0,0,0,2.45-4c.47-1.46-2.18-2.73-3.24-2.72-1.41,0-2.15.94-3.21,1.68A12.19,12.19,0,0,1,37,23.34c-.73.17-1.48.37-2.21.49a6.47,6.47,0,0,1-.76.05c-.57,0-.54-.11-.1.15a14.12,14.12,0,0,0-4.13-2,5.17,5.17,0,0,0-2-.11q-.72,0,.12.15c.53.19.6.18.2,0a4.05,4.05,0,0,0-1.17-.5c-1.34-.39-2.77-.11-3.32,1.3-.64,1.63.51,3.16,2,3.76a3,3,0,0,0,2,.14,4.08,4.08,0,0,0,.85-.45c.15-.1.54-.21.28-.23l-1.75-.53c-1.11-.7-.47-.68-.26.11.1.35.08.71.15,1.05a4,4,0,0,0,2.08,2.55c.65.37,1.94.87,2.64.29A5.4,5.4,0,0,0,33,28a7.76,7.76,0,0,1,.7-1.3l-3.53-1.75c.3.44-.18,1.86-.31,2.5a3.41,3.41,0,0,0,.48,3.14c.74.95,2.46,1.8,3.61,1.12a4.84,4.84,0,0,0,1.74-2.4c.46-1,1.25-1.76,1.73-2.74l-2.92,0,.08.05-1.29-1.28c-.19-.32,0-.24-.05-.06a6.47,6.47,0,0,0,0,.76c-.05.5-.14,1-.2,1.5a7.61,7.61,0,0,0,.33,4.21,3.57,3.57,0,0,0,3.53,1.76c1.19-.18,1.7-1.34,2-2.35a36.67,36.67,0,0,1,1.42-3.87L35.9,25.55a12.8,12.8,0,0,1-.38,3.73,18.35,18.35,0,0,0-.2,4.12c.1,1.27,2.12,2.33,3.21,2.28,1.53-.07,1.77-1.47,2.08-2.71.16-.68.3-1.36.45-2,.06-.3.13-.6.2-.89a2.49,2.49,0,0,0,.09-.37c0-.26-.1.25,0,0L37,27.44a22.05,22.05,0,0,0-.84,4.25c-.12.93-.63,2.36-.32,3.29A3.45,3.45,0,0,0,37.85,37c.64.25,1.95.49,2.33-.31,1.36-2.85,2.2-5.92,3.54-8.78L39.33,26.2a5.6,5.6,0,0,1-.22,1.65c-.09.59-.21,1.19-.31,1.78-.21,1.3-.35,2.62-.51,3.92-.2,1.69,2.76,3.42,4.14,2.48,1.12-.76,1.5-2.32,1.89-3.53.27-.87.53-1.74.8-2.61a10.88,10.88,0,0,1,.6-2.36l-4.39-1.74c.22,1.1-.34,2.56-.55,3.63A18.93,18.93,0,0,0,40.44,34a2.81,2.81,0,0,0,1.5,2.19c.64.38,2,.89,2.64.29,1.18-1.09,1.19-2.81,1.62-4.3.26-.92.56-1.83.85-2.75a11.17,11.17,0,0,1,.72-2.23L43.35,25c-.1,2.7-.91,5.48-.54,8.18.2,1.38,3.45,3.38,4.39,1.74s1-3.29,1.42-5c.24-1,.91-2.45.52-3.46a3.51,3.51,0,0,0-2.36-2.14c-.72-.19-2.08-.27-2.16.79-.12,1.47-.21,2.93-.27,4.4a13.86,13.86,0,0,0,.18,4,3.37,3.37,0,0,0,2.07,2c.56.22,2,.52,2.32-.31a21.29,21.29,0,0,0,1-4.45c0-.44.06-.87.07-1.31,0-.2,0-.42,0-.62s.13-.17,0-.1l-4.1-2c.1,1.35.41,2.66.58,4a12.15,12.15,0,0,0,.74,3.89c.64,1.28,3.69,2.91,4.34.89.72-2.21.32-4.49.85-6.7L48.09,28c.52,1.16,1,2.36,1.5,3.51.24.52.51,1,.79,1.51s.38.68.61,1c.1.13.86,1.11.41.39l1.1-1.83c-2.8.32-6,.48-8.5,1.75-.81.4-.27,1.59.11,2a3.64,3.64,0,0,0,2.72,1.35,47.28,47.28,0,0,0,4.75-.54C53.2,37,52,35,51.44,34.51a4,4,0,0,0-1.9-1,5.54,5.54,0,0,0-.81-.07c-.79.06-.65.12.42.17l1.57,1.12-.13-.16.49.93c-.18-.67,1.21-2.11,1.47-2.72a6,6,0,0,0,.1-3.88c-.85-2.84-3.29-5.44-5.66-7.09-.53-.38-3.15-1.1-3.05.4a5.61,5.61,0,0,0,1.15,2.74,23.32,23.32,0,0,0,1.53,2.41,62.7,62.7,0,0,0,4.73,5.19c.77.79,2,1.68,3.21,1.3s1-1.54.29-2.24c-1.37-1.38-2.66-2.84-4-4.3a10.07,10.07,0,0,1-1.32-1.72c-.15-.29-.29-.57-.46-.85,0,.06-.64-1-.62-.74l-3.05.4A9.06,9.06,0,0,1,48,27.55a3.71,3.71,0,0,1-.44,3.88c-.56.9-1.25,2-.94,3.15a3.8,3.8,0,0,0,2.2,2.21,5.45,5.45,0,0,0,2.13.3l-2.29-.92.17.16-.14-2.67c-1.25.17-2.5.37-3.77.42l2.83,3.4a11.68,11.68,0,0,1,3.15-.75c1.19-.2,2.37-.37,3.56-.51,1-.11,1.74-.81,1.1-1.83a6.41,6.41,0,0,0-.55-.81c-.09-.1-.71-.87-.39-.37s-.24-.49-.3-.6c-.17-.3-.33-.62-.48-.93-.57-1.22-1-2.48-1.59-3.7s-3.84-3-4.34-.89-.13,4.49-.84,6.7l4.34.88c-.46-.91-.3-2.44-.45-3.44-.18-1.19-.44-2.34-.53-3.54-.12-1.67-2.78-2.63-4.1-2-.89.4-.8,1.72-.83,2.52a16.47,16.47,0,0,1-.84,4.56L49,34.47a12.46,12.46,0,0,1-.1-3.61c.06-1.31.15-2.62.25-3.93l-4.52-1.35c.05.13.05-.08,0,.2s-.09.52-.15.78c-.12.54-.29,1.06-.42,1.6a14.8,14.8,0,0,1-1.16,4.2L47.3,34.1a15.5,15.5,0,0,1,.24-3.53c.12-1.26.31-2.5.36-3.77a2.8,2.8,0,0,0-1.8-2.34c-.71-.34-2.11-.74-2.62.16A23.45,23.45,0,0,0,42.06,29c-.24.76-.46,1.52-.67,2.29-.13.51-.14,1.64-.53,2L45,35.78a19.24,19.24,0,0,1,.43-5,10.56,10.56,0,0,0,.4-4.06c-.27-1.38-3.37-3.38-4.39-1.74a5.61,5.61,0,0,0-.54,2c-.18.84-.48,1.65-.72,2.47s-.62,2.89-1.46,3.46l4.13,2.48c.18-1.47.34-3,.59-4.41.21-1.17.72-2.67.39-3.82a3.42,3.42,0,0,0-2.07-2.05c-.63-.24-2-.49-2.32.31-1.34,2.86-2.18,5.93-3.54,8.78l4.39,1.74A20.16,20.16,0,0,1,40.71,33a19.39,19.39,0,0,1,.79-3.78c.54-1.64-3.69-3.89-4.42-2.18a16.08,16.08,0,0,0-.76,3c-.13.58-.24,1.17-.41,1.74,0,.15-.08.22-.12.36-.1.36-.06.16,0,.14l.9-.24H36.6l3.21,2.28c-.2-2.6,1.09-5.28.57-7.85-.24-1.25-3.55-3.52-4.38-1.74a29,29,0,0,0-1.38,3.71c-.13.41-.42,1.51-.71,1.55l3.52,1.75a6.62,6.62,0,0,1,.06-2.21c0-.52.16-1,.21-1.56A3.69,3.69,0,0,0,36,24c-.64-.45-2.44-1-2.92,0s-1.17,1.59-1.62,2.48c-.35.72-.56,1.62-1.28,2.05l3.62,1.11-.1-.12.49.93a7.58,7.58,0,0,1,.38-2.25,4.34,4.34,0,0,0-.32-3.28c-.67-1-2.18-2.22-3.52-1.75-1.64.57-1.58,2.26-2.77,3.24l2.64.29c.7,1.12,1,1.35.82.69l-.06-.53a4.76,4.76,0,0,0-.31-1,5.69,5.69,0,0,0-1.55-2.31,4.11,4.11,0,0,0-3.39-1.08c-.59.13-1,.66-1.53.82h1.05l-.15,0,2.16,1.29-.12-.15.5.93a.38.38,0,0,1,.23-.37H27.23c-.42-.2-.45-.21-.09,0a4.1,4.1,0,0,0,.88.4,4.76,4.76,0,0,0,1.45.26,3.11,3.11,0,0,1,1.67.2,18.9,18.9,0,0,0,2.53,1.4,6.73,6.73,0,0,0,2.82.28,25.77,25.77,0,0,0,5.76-1.26,10,10,0,0,0,2.62-1.19c.26-.18.49-.39.73-.59s.85-.6.69-.6l-3.24-2.71a10.91,10.91,0,0,1-.84,1.43,2.84,2.84,0,0,1-.78,1.16l4,2.87c.83-1.55,1.92-3.88,1.56-5.67a3.46,3.46,0,0,0-3.21-2.28c-2.7.14-3.6,4.15-5.4,5.57l4.1,2c-.29-1,1-2.33,1.31-3.21.47-1.25,1.28-2.48,1.07-3.83-.25-1.52-2.35-2.43-3.71-2.21-1.07.17-2.12,1.74-2.8,2.51-1.16,1.3-2.13,2.76-3.25,4.09l4.42,2.18c.16-.52.53-1,.72-1.52s.43-1.15.69-1.71A5.74,5.74,0,0,0,41.67,19a3.24,3.24,0,0,0-4.11-2,4.22,4.22,0,0,0-1.17,1.1c-.55.57-1.16,1.09-1.71,1.67a19.34,19.34,0,0,0-1.48,1.65c-.32.42-.52.87-1,1.11l4,2.87a20.74,20.74,0,0,0,1.39-3.21c.46-1,.84-1.9.34-3a3.45,3.45,0,0,0-3.52-1.75,7.63,7.63,0,0,0-3.16,2.47c-.54.6-1.09,1.17-1.58,1.81a5.89,5.89,0,0,0-.57.86l1.64.17-.14,0,2,2.88A25.6,25.6,0,0,0,35,21.15c.87-1.66.93-3.1-.88-4.22a3.41,3.41,0,0,0-4.28.46c-1.31,1.06-2.66,2-4,3-1.79,1.27,1.9,4,3.32,3.35s1.62-1.69,2.28-2.86c.82-1.44.95-2.66-.44-3.85a3.9,3.9,0,0,0-4.62-.38C25,17.36,24,18.8,22.58,19.55L26.71,22c.1-.48.82-1.12,1.1-1.54a6.71,6.71,0,0,0,1.12-2.35c.31-1.36-1.72-2.41-2.68-2.67-1.62-.43-3.4,1-4.57,1.91-1.76,1.44,2.22,4.4,3.73,3.17A16.24,16.24,0,0,0,28.13,18c1-1.3-1.64-2.88-2.56-3.05-1.92-.37-3.85.2-5.77-.05l2.65,2.22c.06.23-.1.22.11,0a2.66,2.66,0,0,0,.36-.5,2,2,0,0,0,.27-1.35,4,4,0,0,0-2.77-2.69A14.94,14.94,0,0,0,13.31,12a1.06,1.06,0,0,0-.81.87c-.12,1.13.87,2.12,1.68,2.77a9.87,9.87,0,0,0,4.08,1.57,29.64,29.64,0,0,0,4.32.39c1.64.17,3.26.26,4.91.33,3,.13,6,0,9,.33a36.21,36.21,0,0,0,4,.28H44l.37,0c.59,0,.54-.05-.16-.12l-1.58-1.12c-.17-.18-.05-.07,0,.09a7.71,7.71,0,0,0,.44.72,15.43,15.43,0,0,0,1.26,1.66c.85,1,1.81,1.9,2.68,2.89a25.38,25.38,0,0,1,3.46,5.79,72.84,72.84,0,0,0,4.07,6.26c1.27,2,3.51,3,5,4.82l-.11-2.06-.23.12,1.45-.18a25.45,25.45,0,0,1-2.55-.8c-1-.26-1.93-.55-2.91-.75-2.08-.4-4,0-6.1,0s-4.49-.12-6.7,0a31,31,0,0,0-3.18.51c-.51.07-1,0-1.55.08a9.89,9.89,0,0,1-1.25.21l1.75.53c.32.18-.62-.66-.61-.64s-.1-.11-.19-.25c-.31-.51-.69-1.19-.94-1.72-.12-.16-.1-.16.09,0l-.18-.46a3.71,3.71,0,0,0-.65-1c-.37-.44-.82-.83-1.22-1.25s-.92-1-1.32-1.5-.61-1.11-1-1.61a26.41,26.41,0,0,0-3.2-3c-1.11-.95-2.2-1.82-3.24-2.86s-2.29-2.14-3.44-3.19c-.47-.43-1.07-.77-1.5-1.24.23.26-.19-.35-.23-.41-.2-.33-.43-.63-.65-.94a18.68,18.68,0,0,0-1.1-1.54,9.51,9.51,0,0,1-1.35-1.63,3.62,3.62,0,0,0-3-1.82A1.18,1.18,0,0,0,13.29,14Z"/></g><g class="cls-1"><path class="cls-2" d="M33.13,50.33a7.86,7.86,0,0,1,1.75-.6,5.85,5.85,0,0,0,.91-.34s.82-.54.34-.3a19.89,19.89,0,0,1,3.9-1,16.16,16.16,0,0,1,2.13-.62c.57-.07,1.12-.08,1.69-.18,1.24-.21,2.52-.23,3.78-.35,3-.28,5.71-2,8.72-2.24.57,0,1.1-.23,1.68-.27s1.3-.17,1.83-.26a4.6,4.6,0,0,0,2.78-1c.34-.37-.09-.59-.41-.64l-.32-.05a2.77,2.77,0,0,0-2,.55c-.41.38-.41.71.22.81l.32.06L60,43.26l-.06.07.79-.5c.4-.17-.3,0-.38,0l-.65.12c-.7.1-1.4.1-2.1.22A29.81,29.81,0,0,0,53.8,44c-1.46.44-2.9,1-4.35,1.44a18.17,18.17,0,0,1-4.17.43,20.58,20.58,0,0,0-3.67.55c-.78.19-1.53.51-2.32.66a17.93,17.93,0,0,0-2.07.37,19.94,19.94,0,0,0-2.85,1.2c-1.15.58-2.41.71-3.51,1.43-.53.35-.27.7.22.82a3,3,0,0,0,2.05-.55Z"/></g><g class="cls-1"><path class="cls-2" d="M4.85,22c.6.47,1.27.8,1.88,1.26a16.62,16.62,0,0,1,1.58,1.56c1.11,1.12,2.28,2.17,3.35,3.32S13.81,30,14.81,31c.38.39.87.58,1.25,1s1,1,1.56,1.51c1,1,1.89,2.09,2.92,3s2,1.78,3,2.65a23.3,23.3,0,0,1,3.28,2.9,8.37,8.37,0,0,0,1.09,1.42A2.92,2.92,0,0,1,29,44.81l1.24-1.17-.22,0,1.09,0-.23,0,.58.66c0-.94.75-1.94,1.15-2.78a4.22,4.22,0,0,1,1.86-2.13l-2-.72c-.4.58-1.09.93-1.56,1.46a13.61,13.61,0,0,0-1.34,1.76A13.23,13.23,0,0,0,27.73,46l2.6-.9c-.89-.37-1.55-1.51-2.29-2.13a40.82,40.82,0,0,0-3.46-2.71c-1.1-.73-1.93-1.63-3-2.44a15.77,15.77,0,0,1-2.94-3c-.79-1.05-1.71-2-2.53-3s-1.58-2.36-2.55-3.42S12,26.2,11,25.29a17.08,17.08,0,0,0-1.46-1.07,17.62,17.62,0,0,1-1.77-1.69c-.76-.76-3.51.34-2.68,1.17a22.47,22.47,0,0,0,1.72,1.66c.49.39,1,.68,1.51,1.1a37.29,37.29,0,0,1,2.62,3.1c1,1.11,1.72,2.42,2.68,3.57s1.77,2.08,2.62,3.15A16.24,16.24,0,0,0,18.9,39c1.06.82,1.87,1.79,3,2.51a30.09,30.09,0,0,1,3.75,2.91c.79.69,1.39,1.76,2.38,2.18.74.31,2.4.07,2.6-.9a11.45,11.45,0,0,1,1.89-4c.77-1.12,1.93-1.8,2.69-2.9s-1.54-.86-1.95-.72a6.71,6.71,0,0,0-3,2.57c-.45.65-.69,1.41-1.09,2.09a3.81,3.81,0,0,0-.68,1.9.64.64,0,0,0,.57.67,2.94,2.94,0,0,0,1.53,0c.36-.1,1.51-.6,1.24-1.18a4.73,4.73,0,0,0-.8-1.42,6.64,6.64,0,0,1-1.16-1.09,16.31,16.31,0,0,0-3.05-3c-1-.87-2.1-1.74-3.1-2.65s-2.09-2.18-3.17-3.26A23,23,0,0,0,17.78,30c-.5-.36-.89-.87-1.4-1.26a13.21,13.21,0,0,1-1.76-1.49c-1.12-1.2-2.31-2.32-3.46-3.47-.51-.51-1-1.07-1.51-1.55s-1.44-.91-2.12-1.44a1.9,1.9,0,0,0-1.93-.07c-.3.13-1.29.81-.75,1.24Z"/></g><g class="cls-1"><path class="cls-2" d="M15.51,15.59a58.05,58.05,0,0,0,5.35,5.84,10,10,0,0,1,1.25,1.36A8.29,8.29,0,0,0,23.52,24a36.52,36.52,0,0,1,3,2.85c1,1,2,2,3.09,2.92a22.77,22.77,0,0,0,3.1,2.14c2.51,1.65,3.92,4.55,5.79,6.83l.43-1c.15-.08-.21.05-.19.06l-.24,1.18a4.39,4.39,0,0,1,1.57-.31c.77-.09,1.53-.16,2.3-.32,1.44-.3,2.92-1.06,4.4-1.08a27.24,27.24,0,0,0,3.1-.22c.34,0,.67-.12,1-.16a6.82,6.82,0,0,0,.79-.1c.22-.07.2.14.12-.09l.28-.66a2.92,2.92,0,0,1-1.28.54c-.72.23-1.43.48-2.16.67a18.49,18.49,0,0,1-4.07.88c-.6,0-1.61.18-1.91.81s.24.9.8.9a36.31,36.31,0,0,0,4.78-.15c1.47-.18,3-.43,4.5-.49a42.78,42.78,0,0,1,4.53,0c1.31.1,2.42.71,3.78.62.51,0,1.56-.39,1.64-1s-.82-.71-1.27-.67a6.44,6.44,0,0,1-1.65-.46A8.32,8.32,0,0,0,58,37.4c-1.5,0-3,0-4.51,0-1.31,0-2.64.29-3.95.41-1.67.13-3.27.23-5,.22l-1.11,1.71a24.23,24.23,0,0,0,6-1.18c1.59-.46,3.74-.85,4.94-2.08.14-.15.36-.42.28-.66-.42-1.13-2.25-.87-3.17-.75a32.32,32.32,0,0,1-3.63.39c-2.08-.06-3.95.9-5.95,1.26C40.14,37,38.25,37,36.67,38c-.35.22-.91.93-.24,1.19a5.29,5.29,0,0,0,4.31-.57c.34-.19.75-.66.43-1-1.8-2.19-3.16-4.91-5.48-6.62-1.11-.83-2.37-1.42-3.41-2.34s-2.08-1.94-3.08-2.93a36.65,36.65,0,0,0-3-2.85,9.2,9.2,0,0,1-1.41-1.15,10.56,10.56,0,0,0-1.08-1.23,61.08,61.08,0,0,1-5.52-6c-.68-.79-3.46.26-2.68,1.15Z"/></g><g class="cls-1"><path class="cls-2" d="M8.71,20.6a11.07,11.07,0,0,1-.22-1.12,2.72,2.72,0,0,1,.16-.84,11.26,11.26,0,0,1,.67-2.28c.34-.69.71-1.36,1-2.07a4.88,4.88,0,0,1,1-1.45c.47-.49-.41-.67-.73-.65a2.9,2.9,0,0,0-1.93.74,5.85,5.85,0,0,0-1.18,1.69c-.34.74-.72,1.45-1.08,2.18a12,12,0,0,0-.68,2.34,3.67,3.67,0,0,0-.17,1,7.61,7.61,0,0,0,.22,1.25c0,.21.39.28.53.3a2.76,2.76,0,0,0,1.07-.11c.37-.1,1.38-.41,1.3-1Z"/></g><g class="cls-1"><path class="cls-2" d="M30.61,37a3.72,3.72,0,0,0-1,2.16,10.32,10.32,0,0,0-.38,2.58,9.88,9.88,0,0,0,.25,2.43,3.19,3.19,0,0,0,.93,1.74,2,2,0,0,0,1.92,0c.26-.12,1.32-.78.77-1.18a2.35,2.35,0,0,1-.71-1.33,8.38,8.38,0,0,1-.26-2.12,9,9,0,0,1,.3-2.18c.08-.35.18-.7.25-1.05a3,3,0,0,1,.11-.43c0-.12,0-.09.13-.17a.56.56,0,0,0-.28-1,2.54,2.54,0,0,0-2,.55Z"/></g><g class="cls-3"><path class="cls-4" d="M40,42.71a3.83,3.83,0,0,1,.69.14,5.15,5.15,0,0,0,1,.08,5,5,0,0,1,1.39,0,14.5,14.5,0,0,0,1.73.41c.65.08,1.29.13,1.93.24a11.3,11.3,0,0,0,3.53,0c.55-.07,1.09,0,1.64-.1a12,12,0,0,1,1.7-.19c.61,0,1.52-.47,1.6-1.16s-.78-.93-1.33-.92a16.46,16.46,0,0,0-1.87.22c-.55.07-1.09,0-1.63.1a9.71,9.71,0,0,1-3.09-.1c-.61-.1-1.25-.09-1.85-.23a16.22,16.22,0,0,0-1.7-.42c-.55-.07-1.1,0-1.65,0s-1.21-.24-1.86-.22-1.53.46-1.6,1.16.77.94,1.33.92Z"/></g><g class="cls-3"><path class="cls-4" d="M37.46,44.44a5.55,5.55,0,0,0,1.77-.22c.24-.06.23-.07,0,0h.31l.61,0c1.16,0,2.33,0,3.5,0h3.12c.53,0,1.06,0,1.58,0a5.3,5.3,0,0,0,1.05-.14l.36-.1c.36-.08.25-.08-.34,0a3.43,3.43,0,0,0,2.05-.55c.43-.31.41-.72-.2-.74a5.25,5.25,0,0,0-1.88.26c-.21,0-.12,0,.29,0h-.45l-.9,0H45.19c-1.1,0-2.19,0-3.29,0-.49,0-1,0-1.47,0a5.4,5.4,0,0,0-1.13.16l-.34.1c-.35.08-.23.08.35,0a3.4,3.4,0,0,0-2.05.55c-.42.3-.4.72.2.73Z"/></g><g class="cls-3"><path class="cls-4" d="M38.22,46.88a5,5,0,0,0,1-.35l.11-.05.54-.07c.63-.07,1.26-.14,1.89-.24,1.36-.22,2.7-.52,4.06-.74s2.56-.5,3.85-.71a7.17,7.17,0,0,0,1.42-.47,8.13,8.13,0,0,0,.85-.38l.34-.17-.15,0c.61,0,1.53-.47,1.6-1.14s-.78-.89-1.32-.89a3.72,3.72,0,0,0-1.73.53,6.87,6.87,0,0,1-1.19.51c.34-.1-.47.06-.51.06l-1.22.23c-.64.14-1.28.28-1.93.39-1.36.21-2.7.53-4.05.73-.72.11-1.45.17-2.17.27s-1.26.4-1.88.54-1.36.67-1.2,1.34,1.18.68,1.71.56Z"/></g><g class="cls-3"><path class="cls-4" d="M32.43,47.52a5.23,5.23,0,0,0,2.54.32,3.14,3.14,0,0,0,2.58-1.64,4.49,4.49,0,0,0,.43-2,5.28,5.28,0,0,0-.12-1.26,2.4,2.4,0,0,0-.48-1,2,2,0,0,0-1.29-.63,11.83,11.83,0,0,0-1.19,0,2.15,2.15,0,0,0-1.09.39,1.23,1.23,0,0,0-.51.75c0,.75.75.9,1.32.9h.5c.15,0,.24,0-.18,0h.13c.19,0-.35-.11-.17,0s-.26-.16-.15-.08l.12.08-.21-.18a1.48,1.48,0,0,1,.25.35l-.12-.24a3.27,3.27,0,0,1,.26,1.11v-.27a5.09,5.09,0,0,1-.18,1.74l.09-.26a3.65,3.65,0,0,1-.14.35.77.77,0,0,1-.1.18l.11-.16a.35.35,0,0,1-.07.09l-.12.13c.2-.24.2-.19.08-.09.25-.14.3-.18.18-.12l.27-.09c-.24.07.45-.06.12,0l-.2,0c-.12,0-.39,0,.06,0-.14,0-.29,0-.43,0l-.22,0c-.25,0,.29.08.06,0l-.44-.15a2,2,0,0,0-2,.55.86.86,0,0,0-.25.78,1,1,0,0,0,.61.56Z"/></g><g class="cls-3"><path class="cls-4" d="M37.9,46.75a2.47,2.47,0,0,1,.53-.61,4.1,4.1,0,0,0,.64-.74,4.29,4.29,0,0,0,.79-1.8c.11-.9.24-2.2-.54-2.86a1.25,1.25,0,0,0-.74-.11,4,4,0,0,0-1.13.25c-.21.08-1.26.52-.85.86a.92.92,0,0,1,.27.44,3.12,3.12,0,0,1,.14.74,6.26,6.26,0,0,1,0,.75c0,.13,0,.26,0,.39a.57.57,0,0,0,0,.13s0,.18,0,.1a2.21,2.21,0,0,1-.32.83,7.14,7.14,0,0,1-.47.81l-.1.11-.11.12-.32.3a3.15,3.15,0,0,0-.61.79c-.1.18.11.29.24.33a2.24,2.24,0,0,0,.93,0,3.92,3.92,0,0,0,1.1-.35,1.24,1.24,0,0,0,.59-.47Z"/></g><g class="cls-3"><path class="cls-4" d="M38.27,43.62A13.7,13.7,0,0,0,40,43.38c.42,0,.94,0,1.38,0,1.12,0,2.25,0,3.36-.1,2.26-.18,4.48-.53,6.76-.54a2.17,2.17,0,0,0,1.9-.82c.33-.58-.27-1-.81-1-2.35,0-4.66.28-7,.52a27,27,0,0,1-3.12.12c-.62,0-1.24,0-1.87,0a4.59,4.59,0,0,0-.83.1c-.12,0-.85.11-.4.12a2.18,2.18,0,0,0-1.91.82c-.32.59.29.94.82.95Z"/></g><g class="cls-3"><path class="cls-4" d="M40.86,43.8h-.59l-1.11,1.71a18.12,18.12,0,0,0,1.8-.25c.59-.07,1.19-.1,1.78-.15,1.09-.1,2.16-.3,3.24-.4a20.61,20.61,0,0,0,3.32-.49,11.28,11.28,0,0,1,3-.63,2.28,2.28,0,0,0,1.91-.81c.34-.57-.28-.9-.8-.9a11.94,11.94,0,0,0-3.71.53,14.14,14.14,0,0,1-2.88.58c-1.09.13-2.17.3-3.26.4l-1.66.15c-.31,0-.62,0-.93.09a6,6,0,0,0-.61.12c-.25,0-.29.06-.12,0a2.32,2.32,0,0,0-1.91.81c-.33.57.29.91.8.9h.59a2.25,2.25,0,0,0,1.91-.81c.34-.57-.29-.9-.8-.9Z"/></g><g id="Xs43b1.tif"><path d="M45.29,40.32c-.35.69-.39.64-1.09.62a10.51,10.51,0,0,0-1.94-.16c-.26,0-.34-.29-.53-.34s-.18.34-.48.37A18.78,18.78,0,0,0,39,41a.31.31,0,0,1-.28-.11.23.23,0,0,0-.32,0,2.08,2.08,0,0,1-2,.1,1.16,1.16,0,0,0-1,.35c-.07.16.07.21.15.19.64-.14,1.29.08,1.92,0a.48.48,0,0,1,.57.29.77.77,0,0,0,.88.31,3.72,3.72,0,0,1,1.55-.29c.24,0,.45-.19.75-.14s.6-.12.77.26c0,0,.24.07.24,0,.16-.38.57-.14.8-.33a.27.27,0,0,1,.29,0c.52.13,1.06.06,1.56.24a3.49,3.49,0,0,0,1,0,6.76,6.76,0,0,0,2.76,0c.61.32,1.34-.29,1.94.25.16.15.39-.08.6-.07A6,6,0,0,0,53.37,42c.26-.09.5.08.74.14s.18.23,0,.37-.16.15-.08.26a.28.28,0,0,0,.29.05,8.14,8.14,0,0,1,1.48,0,3.25,3.25,0,0,0,1.28,0,.45.45,0,0,1,.46.09c.15.16,0,.29-.08.44s-.38.3-.23.47.39-.09.58-.09c.56,0,1-.44,1.63-.31.13,0,.32-.19.49-.28a1.22,1.22,0,0,1,.91-.14c.24.07.43-.06.65-.07s.26,0,.3.14-.09.18-.17.23a11.5,11.5,0,0,0-1.36.68h0c-.36-.49-.51.1-.76.15a1.14,1.14,0,0,1-1.16-.14c.09.43-.18.48-.48.48a3.08,3.08,0,0,0-1.44.3c-.2.11-.41,0-.61,0a3.88,3.88,0,0,0-.71.18c-.86.21-1.61.69-2.49.85a6.3,6.3,0,0,0-1.07.19c-1.07.42-2.25.14-3.32.51s-2.26.3-3.3.83a.13.13,0,0,1-.09,0,3.49,3.49,0,0,0-2.13.39l-2,.59a1.31,1.31,0,0,1-1.08,0c-.25-.13-.47.22-.73.32a19.53,19.53,0,0,1-3,1.15s-.1,0-.12,0c-.52-.34-.91.15-1.37.21-.14,0-.26.08-.41,0s-.41-.08-.5.21a.28.28,0,0,1-.39.19,1.35,1.35,0,0,0-1.48.27c-.19.14-.32.13-.44,0a.51.51,0,0,0-.62-.22c-.08,0-.22,0-.25,0-.37-.51-1-.56-1.48-.81a3.84,3.84,0,0,1-.95-.85,14.79,14.79,0,0,0-1.52-1.89c-.42-.35-.69-.81-1.11-1.15-.24-.19-.63-.23-.72-.58a1.88,1.88,0,0,0-1.1-1.17c-.29-.16-.39-.49-.55-.75a10.49,10.49,0,0,0-1.57-1.69,4,4,0,0,1-.93-1.13,1,1,0,0,0-.56-.42,3.61,3.61,0,0,1-1.7-1.66,8.46,8.46,0,0,0-1-1.3,1.6,1.6,0,0,0-.54-.47,1.27,1.27,0,0,1-.37-.36c-.51-.58-.87-1.32-1.64-1.65a.24.24,0,0,1-.15-.2,1.18,1.18,0,0,0-.53-.73c-.11-.06-.27-.15-.22-.3s-.07-.23-.2-.3c-.34-.19-.68-.39-.77-.82a.5.5,0,0,0-.23-.32c-.89-.57-1.35-1.57-2.16-2.2s-1.09-1.46-1.88-2a1.71,1.71,0,0,1-.4-.59c-.32-.57-1-.94-1.09-1.65,0-.12-.15-.18-.23-.26-.26-.24-.67-.38-.67-.84,0-.07-.06-.12-.14-.15A2.52,2.52,0,0,1,4.62,23c0-.08,0-.19-.17-.14s0,.12,0,.19c.08.34-.2.36-.4.41a.42.42,0,0,1-.54-.28,5.44,5.44,0,0,1-.39-1.49,1.84,1.84,0,0,1,.34-1.47.16.16,0,0,0,.05-.16A3.83,3.83,0,0,1,4,16.87a1.33,1.33,0,0,0,.25-.7A4.05,4.05,0,0,1,5,14.42a12,12,0,0,1,1-1.41,3.58,3.58,0,0,0,.68-1.12,1.67,1.67,0,0,1,.84-1c.12-.07.38.05.55.14a.69.69,0,0,1,.27.5s-.06.1-.11.12a3.21,3.21,0,0,0-1.61,1.75,2.61,2.61,0,0,1-.65.9c-.25.19-.23.43-.34.65-.4.86-.57,1.8-1,2.63a2.91,2.91,0,0,0-.15,1,18.18,18.18,0,0,0-.27,3c0,.28,0,.41.33.24a.41.41,0,0,1,.48.13c.7.78,1.47,1.5,2.1,2.33A31.29,31.29,0,0,1,9,27a1.34,1.34,0,0,0,.45.47,2.49,2.49,0,0,1,1,1.24.46.46,0,0,0,.16.15,5.37,5.37,0,0,1,1.91,2,2,2,0,0,0,.51.49c.5.37.79.92,1.28,1.29a2.25,2.25,0,0,1,.55.7.94.94,0,0,0,.32.39c.17.1.27.26.07.43s-.1.12,0,.19.14,0,.2,0a.26.26,0,0,1,.36.07c.52.68,1.31,1.08,1.78,1.82.26.4.73.63,1,1.08A8.81,8.81,0,0,0,20,39c.61.65,1.29,1.23,1.93,1.83a4.85,4.85,0,0,1,.82,1,5,5,0,0,0,.84.82,20.61,20.61,0,0,1,1.9,2.06,14.9,14.9,0,0,0,1.17,1.06c.36.36.5.85.88,1.14s.85,1,1.5,1.26a1.19,1.19,0,0,1,.75,1c0,.55.52.16.75.36s.14-.23.16-.38a14.06,14.06,0,0,0,.22-1.47c0-.29-.16-.54-.07-.86a4.19,4.19,0,0,1,.27-1c.2-.36.11-.82.44-1.12s.42-.31.22-.63c0,0,.09-.26.17-.29.39-.13.43-.5.59-.78A12.26,12.26,0,0,1,34,41.12a16.26,16.26,0,0,0,1.09-1.39q.09-.12,0-.18c-.84-.46-1.11-1.38-1.66-2.06a1.93,1.93,0,0,0-.7-.66c-.36-.17-.44-.65-.66-1a6.1,6.1,0,0,0-.61-.72,10.5,10.5,0,0,0-1-1c-.12-.1-.3-.15-.15-.36s0-.18-.1-.22A8.44,8.44,0,0,1,28.36,32a9.29,9.29,0,0,1-.93-.86,12.11,12.11,0,0,0-2.28-2.13c-.31-.25-.7-.45-.82-1-.08-.3-.54-.52-.86-.73a1.19,1.19,0,0,1-.4-.47c-.11-.25-.15-.57-.55-.51-.09,0-.17-.11-.17-.19,0-.57-.49-.87-.78-1.27-.1-.13-.45-.09-.61-.29s-.18-.13-.22-.22a2.42,2.42,0,0,0-1.11-1,4,4,0,0,1-1.12-1c-.4-.51-1.16-.6-1.36-1.28-.73-.24-.91-1-1.47-1.43-.39-.28-.65-.67-1-.94s-.59-1-.78-1.5c0-.11,0-.27-.18-.27-.41,0-.44-.36-.57-.59a5.48,5.48,0,0,0-1-1.6,2.81,2.81,0,0,0-.56-.52.93.93,0,0,1-.47-.73.57.57,0,0,0-.33-.5c-.23-.08-.37-.17-.29-.44s-.18-.14-.26-.21-.25-.13-.21-.29a.49.49,0,0,1,.31-.3.27.27,0,0,1,.32.11,16.53,16.53,0,0,0,1.84,2.16,5.33,5.33,0,0,1,1,1.54c.26.56.81.91,1.15,1.42.12.2.31.36.25.64s.17.27.29.36A25.33,25.33,0,0,1,17,19.86c.48.4.79,1,1.41,1.24a.65.65,0,0,1,.48.49c0,.06.07.13.13.16a6,6,0,0,1,2.23,1.81c.21.3.62.41.85.72a12.2,12.2,0,0,0,1.09,1.45,27.22,27.22,0,0,0,2.12,2.18,10.35,10.35,0,0,1,2.35,2.32c.07.12.25.16.34.27.69.81,1.7,1.25,2.37,2.08s1.32,1.31,1.93,2a10.52,10.52,0,0,1,1,1.24,6.18,6.18,0,0,0,.81,1c.62.63,1.11,1.37,1.78,2,.18.16.34.41.62.14,0,0,.12,0,.18,0,.63,0,.68,0,.54.62s-.08.58.5.56a13.77,13.77,0,0,1,1.44,0,4,4,0,0,0,1-.11,1.63,1.63,0,0,1,1.11.07.3.3,0,0,0,.21,0,1.71,1.71,0,0,1,1.42,0,3.29,3.29,0,0,0,1.22,0,6,6,0,0,1,1.84,0c.3.08.69,0,1,.1s.54,0,.72.26c.05.09.16.07.25,0a5.21,5.21,0,0,1,1.3-.17c1-.12,2,0,2.93-.07a4.1,4.1,0,0,1,1.8.15c.26.1.57,0,.86,0a1.91,1.91,0,0,0,1.25,0,.5.5,0,0,1,.27,0,13.09,13.09,0,0,0,3.53.27,5.15,5.15,0,0,1,1.59.08c.8.3,1.57,0,2.33.12.09,0,.18.05.24,0s0-.17-.08-.23a32.32,32.32,0,0,1-2.17-2.91,4.41,4.41,0,0,1-1-1.61c0-.18-.22-.1-.32-.24-.37-.56-.79-1.1-1.17-1.67a3.49,3.49,0,0,0-.8-.88,3.89,3.89,0,0,1-1.6-2.05c-.1-.34-.23-.66-.66-.68-.22,0-.23-.2-.31-.34-.54-1-1-2-1.54-3-.15-.25-.21-.48-.55-.54-.1,0-.2-.24-.25-.39a6.48,6.48,0,0,0-.93-1.48,5,5,0,0,0-.8-1.14c-1-.87-1.54-2.24-2.7-3-.06,0-.13-.13-.12-.19,0-.5-.37-.83-.51-1.27,0-.12-.08-.25-.2-.27a.88.88,0,0,1-.81-1.1c0-.19-.09-.24-.24-.26a.51.51,0,0,1-.41-.35c-.22-.54-.51-1-1.2-1a1.59,1.59,0,0,1-.7-.31c-.56-.29-1.23-.19-1.78-.61a2.58,2.58,0,0,0-1.37-.23A17.72,17.72,0,0,1,40,14.8c-.06,0-.12-.06-.16-.06-.94.17-1.83-.33-2.77-.18-.36-.37-.73.08-1.12,0s-.65,0-.93-.21a.27.27,0,0,0-.26,0,1.15,1.15,0,0,1-.91,0,.62.62,0,0,0-.5,0,4.74,4.74,0,0,1-1.59.17,5.65,5.65,0,0,1-2-.21c-.35-.09-.77.13-1.1-.18a1.16,1.16,0,0,1-.89.2,7.38,7.38,0,0,1-1.06,0c-.36-.08-.72-.09-1.08-.15a9.27,9.27,0,0,0-1.29,0,7.33,7.33,0,0,1-1.91-.54c-.41-.13-.77-.41-1.26-.25s-.7-.19-1.08-.14a6.36,6.36,0,0,1-2.93-.64,4.35,4.35,0,0,0-1.35-.17s-.1,0-.13,0c-1.09-.48-2.33-.15-3.4-.6a5.88,5.88,0,0,0-1.46-.28h-.18a.38.38,0,0,1-.17-.68,1.12,1.12,0,0,1,1.2-.33c.54.19,1.08.39,1.61.62a.11.11,0,0,0,.08,0c.69-.33,1.24.27,1.86.29a13,13,0,0,1,1.56.24,16.31,16.31,0,0,1,1.69.34,2.32,2.32,0,0,0,1.29.2c.31-.08.68.18,1.06.19s1,.13,1.5.17.73.34,1.16.38c.21,0,.49-.08.64.19,0,0,.11,0,.12,0,.47-.59,1,0,1.48-.05a5.59,5.59,0,0,1,1.44.22,4.29,4.29,0,0,0,.88-.06,10.31,10.31,0,0,1,1.77.15,9.29,9.29,0,0,0,1.56.13,4.7,4.7,0,0,0,1.24,0,8,8,0,0,1,1.62,0,12.53,12.53,0,0,1,2,.15c.35,0,.74-.13,1,.2.49-.3,1-.08,1.49-.07a.61.61,0,0,1,.43.18c.15.15.39.12.59.15,1,.13,1.9-.29,2.84,0a3.48,3.48,0,0,0,1.21.34c.66-.07,1,.36,1.54.51.34.1.72,0,1.08.12s.45.18.46.42a.78.78,0,0,0,.3.56c.32.23.3.63.5.94a10.5,10.5,0,0,1,1.07,1.56,2.41,2.41,0,0,0,.39.59,29.17,29.17,0,0,1,2,2.66c.25.38.75.51,1,.91a9.86,9.86,0,0,0,.93,1.2A3.23,3.23,0,0,0,54,25c.18.11.09.3.18.44a31.63,31.63,0,0,1,2,3.26A7,7,0,0,0,56.85,30,15.29,15.29,0,0,0,59,32.53a8.75,8.75,0,0,1,2,2.19c.33.48.7.94,1,1.43a14.51,14.51,0,0,0,1.93,2.43c.37.37.9.74,1.05,1.19a4.73,4.73,0,0,0,.84,1.66.13.13,0,0,1,0,.12,2.47,2.47,0,0,1-1.34.55c-.27-.22-.67,0-.9-.29,0,0-.07,0-.08,0-.4.44-.83,0-1.24,0a2.91,2.91,0,0,0-.66,0c-.3.07-.64-.1-.9-.08-.53,0-1.07-.41-1.58,0a.58.58,0,0,1-.6.06c-.44-.28-.93,0-1.38-.18-.18-.06-.41-.07-.59-.15-.42-.2-.84,0-1.26,0a19.58,19.58,0,0,0-2.54-.16.25.25,0,0,1-.17,0c-.35-.35-.72-.09-1.07,0a.94.94,0,0,1-.85,0c-.11-.08-.19,0-.29,0a2,2,0,0,1-1,0,.44.44,0,0,0-.3,0,2.43,2.43,0,0,1-1.8-.07A2.27,2.27,0,0,0,46.13,41C45.56,41.06,45.39,40.93,45.29,40.32ZM34.59,42c-.38.83-1.41,1.13-1.6,2.1-.07.37-.44.58-.52,1-.19.91-.4,1.82-.55,2.73a4.24,4.24,0,0,1-.13.78c-.18.55,0,.72.63.8a3.52,3.52,0,0,0,.81-.11A15.74,15.74,0,0,0,35.48,49a2.72,2.72,0,0,1,1.21-.22c.2,0,.47-.23.75-.08,0,0,.13-.11.19-.18s.12-.16.23-.2a10.74,10.74,0,0,1,2.23-.57,3.11,3.11,0,0,0,1.22-.22A6.3,6.3,0,0,1,42.87,47c.31-.09.68,0,1-.16a5.69,5.69,0,0,1,2.12-.58,13.48,13.48,0,0,0,2.36-.37,8.17,8.17,0,0,1,1.39-.29c1-.12,2-.33,3-.54s1.93-.84,3-1a.26.26,0,0,0,.21-.26c0-.15-.13-.13-.24-.12a17.32,17.32,0,0,0-3.42.5,5.92,5.92,0,0,1-1.64.35c-.36,0-.81-.11-1.08.05a9.9,9.9,0,0,1-1.7.55,1.06,1.06,0,0,1-.5.16,15.12,15.12,0,0,0-2.1.22,9.24,9.24,0,0,1-1.91.19c-.07,0-.1.06-.1.12A.22.22,0,0,1,43,46c-.42.1-.85.17-1.26.3-.15,0-.25-.16-.4,0a3,3,0,0,1-1,.45c-.43.21-.91.15-1.34.38a2.87,2.87,0,0,1-1.43.21c-.15,0-.39-.06-.28-.28s.31-.53.59-.47a1.79,1.79,0,0,0,1.21-.16c.18-.08.44,0,.61-.09a8.16,8.16,0,0,1,1.56-.52A26.19,26.19,0,0,0,44,45.23,2.4,2.4,0,0,1,45.18,45a1.5,1.5,0,0,0,.87-.06,11.2,11.2,0,0,1,1.81-.38,21.07,21.07,0,0,0,2.75-.62c.11,0,.33.05.3-.16s-.19-.23-.37-.26a11.83,11.83,0,0,0-1.19,0c-1.07-.06-2.13,0-3.2-.06-.5,0-1,.2-1.5.18s-1.24.28-1.9.14a.8.8,0,0,0-.65.08c-.25.2-.53.12-.81.14a3.09,3.09,0,0,0-1.31.22,2.85,2.85,0,0,1-.95.21.16.16,0,0,1-.18-.09c-.05-.09,0-.21,0-.24.53-.22.92-.72,1.56-.73a3.77,3.77,0,0,0,1.46,0,3.91,3.91,0,0,1,1.17-.22c.25,0,.5-.07.75-.11a5.38,5.38,0,0,1,2.08-.08,2.64,2.64,0,0,0,.86-.11v-.13c-.49.11-.87-.46-1.41-.16a.37.37,0,0,1-.39-.05c-.54-.39-1.17-.11-1.75-.21a5.83,5.83,0,0,0-1.3.15c-.39,0-.85-.1-1.14.07-.63.36-1.39,0-2,.51-.28.22-.5.34-.37.71a.48.48,0,0,1,0,.39,6.21,6.21,0,0,0-.26.8A3.71,3.71,0,0,1,37,46.8a5.93,5.93,0,0,0-.64.48,2.05,2.05,0,0,1-1.82.64l-1.17-.13c-.35,0-.67-.3-.58-.58s.4-.21.6-.16a7.06,7.06,0,0,0,1.51.17c.5,0,1.15.21,1.34-.57a.2.2,0,0,1,.12-.13c.59-.17.7-.7.94-1.15a7.76,7.76,0,0,0,.37-1.55,1.83,1.83,0,0,0,0-1,.84.84,0,0,0-1.07-.59,1.63,1.63,0,0,1-.54,0,.54.54,0,0,0-.55.16.64.64,0,0,1-.67.14C34.6,42.48,34.63,42.25,34.59,42Zm13.73.6c.29.33.64.22,1,.17.14,0,.29-.12.41.05.31.46.74.17,1.12.15a.2.2,0,0,0,.2-.21c0-.15-.14-.18-.26-.18a1.82,1.82,0,0,1-.4,0A9.38,9.38,0,0,0,48.32,42.62Zm5.16.11c-.43-.41-.84,0-1.23-.07,0,0-.06.08,0,.11s.06.08.09.08C52.66,42.79,53.06,43,53.48,42.73Zm-2.18.08c.2.06.34.31.55.17s0-.19,0-.28C51.6,42.45,51.48,42.78,51.3,42.81Z"/><path d="M72.38,38.5A1.21,1.21,0,0,1,71,38.07a.84.84,0,0,0-1-.1,10.11,10.11,0,0,0-1.57,1.16,2.59,2.59,0,0,0-1,1.39c-.06.32-.39.44-.67.53s-.36-.09-.46-.31c.09-.09.43.07.27-.3s.25-.56.42-.73a10.33,10.33,0,0,1,1.53-1.64,3.78,3.78,0,0,0,.67-.71.2.2,0,0,0,0-.28,1.73,1.73,0,0,0-1.19-1,4.83,4.83,0,0,1-.64-.22c-.17-.07-.37-.36-.48-.25s-.53.34-.66.6a.84.84,0,0,0-.06.86.93.93,0,0,0,.86.26c.16,0,.32-.07.48-.08s.29,0,.26.2,0,.28-.21.33A6.28,6.28,0,0,0,66,38s-.08,0-.12-.06a3.79,3.79,0,0,0-.89-.33c-.31-.06-.33-.47-.23-.76a13.07,13.07,0,0,1,1-1.7.38.38,0,0,0-.15-.57c-.42-.23-.24-.63-.2-.92s.37-.21.57-.13a1,1,0,0,1,.5.35c.22.37.48.21.72.1A17.42,17.42,0,0,1,69.34,33a.94.94,0,0,1,1.11.51c.45.75-.1,1.28-.36,1.84s.09.65.26.85.37-.1.52-.23.14-.24.28-.28c.65-.16,1-.68,1.29-1.19.13-.2.27-.46.58-.43s.5.49.22.92a3.46,3.46,0,0,1-.88.87c-.35.25-.5.62-.78.9s0,.37-.06.56c0,.35.19.22.36.27a.54.54,0,0,1,.37.41c0,.16.08.32.12.48Zm-3.64-3.44a1.15,1.15,0,0,0,1.23-1c0-.21,0-.33-.26-.25s-.7.21-1,.35-.73.14-.68.51S68.5,35,68.74,35.06Z"/><path d="M32.54,7.08c-.31.66-.94.68-1.5.76-.29,0-.59,0-.89.06s-.72-.5-.66-.87A4.77,4.77,0,0,1,31,4.51a3.44,3.44,0,0,1,1.17-.88.82.82,0,0,1,1,.32c.12.19.19.42.48.49s.19.31.25.49a4.1,4.1,0,0,1-.07,1.71,5.4,5.4,0,0,0,0,1.27,6.37,6.37,0,0,1-.21,1.18,3.61,3.61,0,0,1-1.12,2.07,1.7,1.7,0,0,1-1.33.69c-.26,0-.54.29-.86.38-.56.16-1.11.44-1.71.13a.22.22,0,0,0-.21,0c-.29.15-.61.07-.67-.19s-.15-.61.24-.81a.38.38,0,0,1,.54.1c.14.15.28.3.47,0,.07-.09.19,0,.29-.06A7.86,7.86,0,0,0,31,11c.47-.15.65-.6,1-.89s.43-1.06.69-1.53a1.14,1.14,0,0,0-.05-1.15A1.26,1.26,0,0,1,32.54,7.08Zm.08-1.45c0-.27,0-.47-.07-.68s-.13-.23-.29-.14c-.68.36-1,1.05-1.42,1.62a.25.25,0,0,0,0,.09c0,.19,0,.37.2.45a.35.35,0,0,0,.47-.12.31.31,0,0,1,.24-.17A1,1,0,0,0,32.62,5.63Z"/><path d="M15.26,7.74c-.44,0-.57-.16-.49-.52a.85.85,0,0,0-.06-.47c-.08-.22-.28-.43-.09-.71.08-.11,0-.31-.17-.37-.54-.28-.37-.66-.17-1,0,0,.1-.09,0-.14-.48-.42-.26-1-.37-1.54-.07-.3.06-.61-.2-1A3.85,3.85,0,0,1,13.37.61c0-.19.09-.31.13-.46s.21-.08.34-.07S14,0,14.05,0s.43,0,.41.31a1.86,1.86,0,0,0,.12.87s.06.09,0,.12c-.28.54.05,1,.25,1.43a2.89,2.89,0,0,1,.05.53c.08.4.24.45.58.23a7.82,7.82,0,0,0,1.85-1.87.91.91,0,0,1,.87-.43c.24,0,.31.14.25.43-.14.58-.64.81-1,1.21s-.76.63-.9,1.13c-.07.25.14.38.3.42a1.08,1.08,0,0,1,.61.42c.24.34.73.38.88.82s.9.74,1.09,1.33c0,0,.08.08.13.1s.26.12.16.3a.35.35,0,0,1-.39.23,4.42,4.42,0,0,0-.81-.23l-.07,0c0-.71-.67-.41-1-.69s-.38-.29-.53-.46a3.76,3.76,0,0,0-1-.66c-.1-.06-.34-.22-.42,0a.43.43,0,0,0,.15.52,1.43,1.43,0,0,1,.12,1.5A.66.66,0,0,1,15.26,7.74Z"/><path d="M42.85,9.4a1,1,0,0,0,.39-.69c.17-.84.89-1.24,1.44-1.76.16-.15.24,0,.25.16a.71.71,0,0,1-.16.55,6.46,6.46,0,0,0-1.06,2.52c-.15.51-.46,1-.62,1.45-.06.17-.19.1-.3.07a.94.94,0,0,1-.69-.9,9.25,9.25,0,0,0-.58-2.33c-.05-.13-.08-.31-.25-.33s-.22.17-.27.3c-.28.71-.5,1.43-.75,2.14a1.87,1.87,0,0,1-.82,1.27c-.13.06-.28,0-.39.21s-.32,0-.35-.16c-.06-.41-.11-.82-.17-1.23s.11-1.08-.14-1.62a.8.8,0,0,1,.25-1c.11-.08,0-.17-.09-.25a1.1,1.1,0,0,1-.24-1.36c.15-.31.39-.28.65-.23s.3.25.31.51a25.3,25.3,0,0,0,.1,2.89c0,.12,0,.33.17.31s.33-.11.3-.29c-.08-.59.37-1,.55-1.47a4.63,4.63,0,0,1,1-1.22c.1-.11.25-.07.39,0a2.55,2.55,0,0,1,.74,1.49C42.6,8.78,42.75,9.06,42.85,9.4Z"/><path d="M72.37,38.51c.3-.12.37.06.4.3a1.71,1.71,0,0,1-.59,1.47,25.43,25.43,0,0,0-1.71,2c0,.06-.1.12-.06.2s.14.11.23.1.44-.08.65-.14l3.28-.92a2.83,2.83,0,0,1,.4-.08c.24,0,.34.14.45.3s0,.27-.13.38a1.51,1.51,0,0,1-1.05.51,10.35,10.35,0,0,0-2.68.63,5.91,5.91,0,0,1-1.15.3c-.7.09-1.37.34-2.07.44a9.26,9.26,0,0,0-2.25.64,1.76,1.76,0,0,1-1,.23c-.19,0-.29.08-.4.22a1.33,1.33,0,0,1-1.24.38c-.31-.1-.21-.3-.21-.5s0-.37.29-.41c.46-.08.91-.2,1.38-.25a4.1,4.1,0,0,0,.94-.44,14.17,14.17,0,0,1,2-.62,2.84,2.84,0,0,0,1.86-1.51,4.91,4.91,0,0,1,1.12-1.32c.27-.24.43-.62.85-.69,0,0,.07-.09.09-.14.13-.36.12-.81.61-.94,0,0,0-.13,0-.2Z"/><path d="M39,22l-.39.23c-.07.05-.1.14,0,.18.52.25.63.88,1.12,1.17a.33.33,0,0,1,0,.55A.43.43,0,0,1,39.1,24a7.55,7.55,0,0,0-.51-.71,2.88,2.88,0,0,1-.4-1.5c0-.08.11-.2,0-.24a.92.92,0,0,1-.49-.91c0-.47-.37-.78-.46-1.21a.51.51,0,0,1,.22-.61.43.43,0,0,1,.61.28c.19.46.32.49.73.18.21-.16.39-.31.65-.06s.28,0,.43,0a1.23,1.23,0,0,1,1.41.34.9.9,0,0,0,1.41-.27c.15-.47.57-.28.86-.4s.28.14.36.3a2.09,2.09,0,0,0,.22.28.69.69,0,0,1-.29,1.16c-.27.13-.63.17-.71.55a1,1,0,0,0,.63,1.08c.08,0,.19,0,.2.14a.23.23,0,0,1-.17.24c-.35.07-.75.27-1-.07A2.73,2.73,0,0,1,42,21.25c0-.48-.53-.62-.7-1,0-.05-.38.07-.44.26-.22.72-.88.81-1.45,1-.17,0-.42.26-.62,0a.23.23,0,0,0-.14.08.17.17,0,0,0,0,.15C38.75,21.82,38.85,21.88,39,22Zm-.79-1a.69.69,0,0,0,.7,0A4.22,4.22,0,0,1,40,20.5a.46.46,0,0,0,.23-.56c-.06-.13-.31-.19-.52-.12a3.13,3.13,0,0,0-1.13.55c-.08.06-.24.11-.17.22C38.6,20.86,38.29,20.88,38.21,21Z"/><path d="M56,15a5.69,5.69,0,0,1-.5,2.34c-.19.56-.6,1-.82,1.53a1,1,0,0,1-.43.44c-.34.21-.94.28-1.06.09s.13-.86.42-1.06a3.28,3.28,0,0,0,1.08-1.53,3.88,3.88,0,0,0,.38-1.24c0-.46-.14-.63-.6-.57a2.35,2.35,0,0,0-1.82,1.29c-.12.22-.36.3-.53.46s-.29,0-.39-.08-.15-.2,0-.29.09-.09.08-.1c-.47-.59.24-.89.38-1.29a13.5,13.5,0,0,0,.74-3.59,3.65,3.65,0,0,1,.6-1.52c.11-.18.24-.27.44-.21a.34.34,0,0,1,.22.44,8.07,8.07,0,0,1-.51,1.65,8.31,8.31,0,0,0-.39,1.91c0,.32.1.5.47.46L54.94,14C55.71,13.83,56,14.19,56,15Z"/><path d="M24.62,4.44c-.12.24.06.42.14.6s.28.28.47,0a5.44,5.44,0,0,1,.67-.77c.16-.16.33-.37.62-.22a.1.1,0,0,0,.15,0c.31-.46.68-.17,1-.08,0,0,.11,0,.11.07,0,.55.5.9.6,1.41a17.3,17.3,0,0,1,.36,1.88,2.71,2.71,0,0,1-.19,1.43.38.38,0,0,1-.47.22c-.22,0-.18-.2-.21-.36-.09-.42,0-.84-.16-1.26-.07-.24-.24-.53,0-.81,0,0-.1-.33-.17-.43a3.7,3.7,0,0,1-.35-.86c-.08-.18-.17-.45-.42-.4a.77.77,0,0,0-.51.35,16.07,16.07,0,0,0-1,1.33,4.69,4.69,0,0,1-.6,1c-.18.2-.36.16-.56.15S24,7.47,24,7.35c0-.65-.22-1.26-.17-1.91a2.53,2.53,0,0,0-.27-1c-.14-.38-.07-.81.2-.88.43-.13.73,0,.86.52A2,2,0,0,1,24.62,4.44Z"/><path d="M59.54,27.55c-.43.23-.95.09-1.35.37a.34.34,0,0,1-.45-.19,2.27,2.27,0,0,1,.36-1.46c.06-.05.14-.09.15-.15a2.63,2.63,0,0,1,1.1-1.32.61.61,0,0,0,.18-.24c.13-.23.29-.37.58-.18s.33.09.36-.21,0-.74.49-.34c0,0,.1,0,.12,0,.34-.45.47-.06.64.17a.64.64,0,0,0,.23.2,1.19,1.19,0,0,1,.13,2,16.84,16.84,0,0,0-2,2,1.4,1.4,0,0,0-.36.84.92.92,0,0,1-1.15.61c-.35-.19-.23-.53-.09-.78a4.51,4.51,0,0,1,.73-1ZM58.91,27c.17-.08.34-.17.52-.24.5-.18.79-.68,1.29-.84a1.35,1.35,0,0,0,.8-.68c.15-.25,0-.37-.1-.5s-.29-.3-.53-.15a5.22,5.22,0,0,0-1.22.77c-.2.23-.29.59-.72.59-.64,0,.15.56-.25.68a.1.1,0,0,0,0,.08C58.62,26.92,58.72,27,58.91,27Z"/><path d="M22.73,18.77c-.07.12-.09.2,0,.24.61.22.32.6.14.92s-.16.58.31.63a1.8,1.8,0,0,1,1.57,1c.14.28.48.38.61.67s.17.5-.07.63-.42.36-.68-.06a5.39,5.39,0,0,0-1.12-1.06c-.11-.09-.33-.17-.43,0s.07.26.18.36.65.27.56.74c0,.12,0,.2-.15.22s-.3.05-.16.28-.08.12-.15.14A.35.35,0,0,1,23,23.3a6.86,6.86,0,0,1-.94-1.38c-.13-.25-.34-.51-.54-.53a.52.52,0,0,1-.51-.51c-.05-.64-.59-.93-.9-1.38-.15-.2-.52-.3-.46-.6s.42-.26.67-.33a1.66,1.66,0,0,0,.5-.18c.54-.37,1.08-.12,1.62,0C22.68,18.39,22.72,18.62,22.73,18.77ZM22.07,20c.14-.37.5-.81-.23-1-.24-.07-.56,0-.58.26C21.2,19.76,21.6,19.93,22.07,20Z"/><path d="M12.68,4.69a2.22,2.22,0,0,1-.24,1,1.71,1.71,0,0,0-.2.69c-.07.47-.49.68-.64,1.09a1.2,1.2,0,0,1-1,.64A1.91,1.91,0,0,1,9,7.77a.77.77,0,0,1-.16-.15A2.34,2.34,0,0,1,9,5.75c.22-.25.13-.59.18-.88a6.89,6.89,0,0,1,.74-1.69c.09-.21,0-.45.23-.63a1.17,1.17,0,0,1,1.37,0A2.35,2.35,0,0,1,12.68,4.69Zm-.84-.22c0-.45-.37-.75-.62-1.1a.31.31,0,0,0-.45,0,1.68,1.68,0,0,0-.42.55C10.1,4.61,10,5.31,9.77,6a1.21,1.21,0,0,0,.09.92.58.58,0,0,0,.79.25,2.91,2.91,0,0,0,1.15-1.8C11.85,5.07,12,4.79,11.84,4.47Z"/><path d="M4.68,5.61A7.87,7.87,0,0,1,4.8,3.52a.93.93,0,0,1,1.4-.81c.35.18.71.33,1,.51a1.1,1.1,0,0,1,.44.68,5.58,5.58,0,0,1,.05,2.19,3.34,3.34,0,0,1-.87,2c-.24.29-.93.16-1.15-.14a7,7,0,0,1-1-1.75A.91.91,0,0,1,4.68,5.61Zm2.37-.24A1.51,1.51,0,0,0,6.22,4c-.16-.09-.29-.39-.52-.21a.71.71,0,0,0-.23.68,18.89,18.89,0,0,1,.42,2.48.25.25,0,0,0,.14.2.57.57,0,0,0,.81-.4A7.11,7.11,0,0,0,7.05,5.37Z"/><path d="M52.05,12c-.2,0-.41.24-.59-.11-.07-.14-.24,0-.37,0-.4-.07-.79.06-1.2,0-.24-.05-.46.28-.5.49-.11.58-.53,1.06-.58,1.66a.6.6,0,0,1-.09.15.48.48,0,0,1-.65.23c-.16-.11-.12-.39,0-.63.24-.68.46-1.37.65-2.06.08-.26.07-.47-.34-.53a1.86,1.86,0,0,1-1-.52c-.13-.14-.34-.27-.21-.53s.31-.47.65-.44a1.22,1.22,0,0,1,.75.26c.22.19.55.32.77.17a.82.82,0,0,0,.41-.92c-.12-.39.14-.69.26-1s.32-.22.51-.19.19.25.2.4a6.39,6.39,0,0,1-.35,1.78c0,.18,0,.28.07.38a2.62,2.62,0,0,0,.69.57A1.39,1.39,0,0,1,52.05,12Z"/><path d="M55.66,23.44c-.11-.32.08-.56.23-.79A5.66,5.66,0,0,0,56.66,21a.42.42,0,0,1,.11-.18,1.07,1.07,0,0,0,.37-.68c0-.26.38-.44.48-.76a7.53,7.53,0,0,1,.46-.95.37.37,0,0,1,.39-.23.33.33,0,0,1,.3.24,1,1,0,0,1-.09.85,5.86,5.86,0,0,1-.65.82c-.1.08-.1.16-.13.26a1.94,1.94,0,0,1-.44.91,2.24,2.24,0,0,0-.54,1.25c0,.11-.05.26.06.33s.2,0,.29-.06a9.53,9.53,0,0,1,2.12-.8,4,4,0,0,0,1.81-1c.08-.09.21-.24.29-.14s.53.16.6.47a.14.14,0,0,1-.1.17c-.62,0-.91.64-1.46.8a7.28,7.28,0,0,0-1.17.46c-.24.12-.48.32-.69.41a7.74,7.74,0,0,1-1.39.67,2.68,2.68,0,0,0-.68.21c-.15.09-.28.33-.5.12S55.48,23.88,55.66,23.44Z"/><path d="M4.78,7.93c-.32.35-.46.73-.81,1-1.08.77-1.28.81-2.32,0A4.14,4.14,0,0,1,.07,6.28,3.14,3.14,0,0,1,.32,4.21c.26-.47.73-.55,1.15-.68.92-.26,1.36,0,1.77.88,0,.09.08.2,0,.22s-.32.41-.61.26a3.13,3.13,0,0,1-.3-.2.73.73,0,0,0-1.13.54,7.2,7.2,0,0,0,.08,1c-.08,1,.81,1.56,1,2.42,0,.11.12.08.22.06A2.22,2.22,0,0,1,3.8,8.62c.21.06.41-.23.52-.4S4.54,8,4.78,7.93Z"/><path d="M60.88,31.53c-.12-.15-.39-.24-.3-.52a2.56,2.56,0,0,0,.1-.83c0-.54.44-.83.76-1.17a11.1,11.1,0,0,0,.66-1c.39-.54.68-1.24,1.45-1.45a.42.42,0,0,1,.4.08c.15.11,0,.24,0,.35-.36.67-.36.66.36.93.4.14.83.19,1.23.35a1.13,1.13,0,0,1,.73.94c0,.16,0,.25-.2.19s-.72-.11-1-.42a.76.76,0,0,0-.93-.19,2.59,2.59,0,0,1-.88.16,1.2,1.2,0,0,0-.93.62c-.37.53-.7,1.1-1.06,1.64A.57.57,0,0,1,60.88,31.53Z"/><path d="M27.23,22.71c-.71-.06-.87-.2-1.11-1.08a.51.51,0,0,0-.35-.42c-.21-.06-.49-.79-.41-1a3.19,3.19,0,0,0,.21-.73c0-.28,0-.63.47-.62,0,0,.11-.07.12-.12.13-.44.55-.39.85-.53a3.45,3.45,0,0,1,1.44.87.58.58,0,0,1-.2.48,12.63,12.63,0,0,1-1.13.95.66.66,0,0,0-.07,1.12,1.07,1.07,0,0,0,.89.22c.34-.06.68-.07,1-.1.07,0,.15-.05.19,0s0,.15-.08.19A3.35,3.35,0,0,1,27.23,22.71Zm-.29-2.93a.42.42,0,0,0,.55-.38c0-.24-.26-.31-.47-.3a.53.53,0,0,0-.48.5C26.51,19.86,26.78,19.76,26.94,19.78Z"/><path d="M45.63,23.1a.51.51,0,0,0-.38.07c-.14.11-.22,0-.3-.07a.2.2,0,0,1,0-.31,1.28,1.28,0,0,0,.29-.28c.1-.12.17-.25,0-.38s-.39-.64-.61-.94a.14.14,0,0,1,0-.2c.51-.37.89-.95,1.56-1.08a1,1,0,0,1,1,1c0,.21-.17.26-.33.31s-.25,0-.31-.18a.37.37,0,0,0-.51-.23c-.1,0-.21.12-.15.18s0,.79.58.62c.21,0,.47.38.4.59A2.16,2.16,0,0,1,45.63,23.1Z"/><path d="M66.39,30.93c-.06.55-.5.82-.9,1.06a8,8,0,0,0-1.39,1.06c-.54.47-.89,1.12-1.58,1.46-.33.16-.55-.1-.82,0-.06,0-.08-.14,0-.23s.2-.43.47-.49.35,0,.29-.33.2-.32.38-.39a1.55,1.55,0,0,0,.72-.62,3.41,3.41,0,0,1,.93-.69,7.66,7.66,0,0,0,1.15-.91,1,1,0,0,1,.33-.22C66.21,30.5,66.41,30.56,66.39,30.93Z"/><path d="M21.63,5c-.1.75.24,1.38.15,2,0,.12.08.18.15.26s.33.12.15.33-.31.31-.53.19a1.22,1.22,0,0,0-.5-.11c-.3,0-.31-.33-.35-.54a1.11,1.11,0,0,1,.05-.6,1.39,1.39,0,0,0-.08-.86A9.7,9.7,0,0,1,20.41,4a1.29,1.29,0,0,1,.21-.67c.18-.32.5-.31.69,0a.69.69,0,0,1,.06.82c-.12.19.14.32.16.51S21.62,5,21.63,5Z"/><path d="M31,20.08c.11.17.06.4.08.62s.55.51.92.33a4.25,4.25,0,0,0,.46-.27.19.19,0,0,1,.28,0c.06.12,0,.16-.09.25-.23.35-.7.38-.92.69a.47.47,0,0,1-.63.16,1.16,1.16,0,0,1-.61-.42c-.13-.31-.48-.61-.23-1a.26.26,0,0,0,0-.21c-.34-.6,0-.94.45-1.29s.62-.72,1.12-.79a.62.62,0,0,1,.7.42.33.33,0,0,1-.24.49.49.49,0,0,1-.21,0c-.15,0-.26-.29-.47-.11A1.84,1.84,0,0,0,31,20.08Z"/><path d="M45.19,13.08,45,13c.1-.33-.37-.63-.12-.92a2.87,2.87,0,0,0,.41-1.34A9,9,0,0,1,46,9.15a3.75,3.75,0,0,0,.16-.43c.08-.25.2-.51.53-.42s.33.35.23.65c-.24.66-.46,1.33-.68,2a2.53,2.53,0,0,0-.13,1.1A1.07,1.07,0,0,1,45.19,13.08Z"/><path d="M34.59,19.17a2.9,2.9,0,0,1,.67.62,4.81,4.81,0,0,1,.38.79.48.48,0,0,1-.18.61.46.46,0,0,1-.59-.17,4.25,4.25,0,0,1-.56-1.29C34.23,19.52,34.53,19.4,34.59,19.17Z"/><path d="M20.87.47a.78.78,0,0,1,.84.8c0,.21-.14.22-.26.22-.44,0-1-.37-1-.63A.47.47,0,0,1,20.87.47Z"/><path d="M47.47,5.92c.42,0,.45.35.48.58s-.26.46-.49.47-.37-.28-.47-.47S47.35,5.92,47.47,5.92Z"/><path d="M34.54,17.53c0-.25.15-.36.32-.31s.52-.07.53.24-.11.59-.46.58S34.57,17.78,34.54,17.53Z"/><path d="M67.37,29.07c.2.07.59,0,.59.27a.52.52,0,0,1-.55.48c-.17,0-.36-.32-.42-.53S67.18,29.07,67.37,29.07Z"/></g></g></g></svg>