<svg xmlns="http://www.w3.org/2000/svg" viewBox="0 0 53.97 67.22"><defs><style>.cls-1{opacity:0.5;}.cls-2{fill:#b12440;}.cls-3{opacity:0.7;}.cls-4{fill:#fffbf3;}</style></defs><g id="Layer_2" data-name="Layer 2"><g id="Layer_1-2" data-name="Layer 1"><g class="cls-1"><path class="cls-2" d="M6.2,5.41a10.13,10.13,0,0,0,.15,3c.54,2,3.57,2.54,4.57.6a16.3,16.3,0,0,0,1.17-3.6c.07-.31.15-.62.23-.93s.09-.34.15-.51c.24-.69-.19.25.08-.14l-.89.9.08-.07H9.22L8.62,4l.07.28s.08.45,0,.22A13.94,13.94,0,0,0,9,6.1a6.61,6.61,0,0,1,.19,1.14A4.6,4.6,0,0,0,9.36,8c0,.15.1.63.12.29L9.82,7l.23-.3,1.1-.65c1.26-.28,1.73.4.77-.23-.27-.18-.53-.39-.81-.55a3.63,3.63,0,0,0-2.78-.46C7,5.22,6.48,6.33,5.92,7.49A11.16,11.16,0,0,0,5.05,10l.64-1.1L5.5,9.1l4.26,1.77c0-.47,0-.19.06-.58s.41-.71,0-.29L5.56,8.23c0,1.19-1.5,2.57-2.11,3.67A42.06,42.06,0,0,1,.82,16.64C-.3,18.17,1.21,20.47,3,20.4a3.55,3.55,0,0,0,2.47-1,4.54,4.54,0,0,1,1.41-.86,13.1,13.1,0,0,0,3.93-3.12c1.71-2.1,4.42-4.7,4.29-7.67a2.5,2.5,0,0,0-5,0c0,.28-.06.54.05.13-.1.38-.34.76-.48,1.13a9.79,9.79,0,0,0-.37,1.51,17.65,17.65,0,0,0-.39,4.1,2.5,2.5,0,0,0,5,0c.14-3.41-3.62-5.25-6-2.61-1.76,2-2.39,4.66-3.84,6.84H8.4c.32.58.16-.07.14-.36a3.66,3.66,0,0,0-.46-1.58,2.81,2.81,0,0,0-1.79-1.25,3.42,3.42,0,0,0-3.64,1.62A9.73,9.73,0,0,0,1.54,20c-.12.41-.22.83-.33,1.25-.06.27-.43,1.33,0,.44l4.65,1.26c0-.7,0-1.4,0-2.1,0-3.22-5-3.22-5,0a51.09,51.09,0,0,1-.22,5.67,50.88,50.88,0,0,0-.38,6,11.8,11.8,0,0,0,.28,2.84c.21.92.83,1.72,1.07,2.59-.19-.68-.13.59-.09.77a3.78,3.78,0,0,0,.69,1.51,3.62,3.62,0,0,1,.42.53c-.06-.15-.15-.23-.11.05a5.89,5.89,0,0,0,.37,1.35A56.28,56.28,0,0,0,8,52.55c.91,1.44,2.19,2.57,3.13,4,.43.66.76,1.36,1.14,2A10.55,10.55,0,0,1,13,60.83c.24.71.63,1.37.89,2.08a9.34,9.34,0,0,0,1,2.17,4,4,0,0,0,2.17,1.66c1.23.33,1.92-.22,2.88-.82,2.64-1.66,5.31-3.3,7.91-5.05.68-.46,1.44-.67,2.15-1.08a11.48,11.48,0,0,0,2.18-1.94c.61-.59,1.36-1,1.93-1.64.72-.8,1.32-1.73,2-2.59,2.2-3,2.84-6.24,2.85-9.86,0-1.06.1-2.13,0-3.19A26,26,0,0,0,38.33,38c-.18-1-.2-2.08-.46-3.13a15.83,15.83,0,0,0-1-2.94,46.11,46.11,0,0,1-2-5.38c-.31-.94-.47-1.93-.8-2.87a3.86,3.86,0,0,0-.86-1.51,2.88,2.88,0,0,0-.46-.39c-.81-.58-.1-.1-.11-.12L33,22.92c.05.51-1.26,1.33-.21.95a4.76,4.76,0,0,0,.67-.35l1.49-.8c1-.57,2.18-.55,3.24-1a3.62,3.62,0,0,0,2.15-3c.1-.67-.13.32,0-.25.09-.3.2-.57.27-.88a6.05,6.05,0,0,0,.06-1.9,3.84,3.84,0,0,0-1.78-3c-1.34-.78-2.68-.36-4,.24a36.18,36.18,0,0,0-3.41,1.57l-1,.65c-.17.1-.37.19-.52.3-.36.29-.23-.08.65.1l1.49,3.67a14,14,0,0,0,1.36-2.49,5.14,5.14,0,0,0-.6-3.69,19.75,19.75,0,0,0-1.71-2.92A14.68,14.68,0,0,0,30,8.53a4.49,4.49,0,0,0-.39-.36c-.13-.11-.37-.47-.22-.17l.34,1.26c-.36.78-.39,1-.09.55s.44-.57.66-.86.47-.83.7-1.26c.53-1,1.14-1.91,1.58-3C33.62,2.1,29.26.3,28,2.79c-.73,1.41-1.15,3-1.92,4.34A16.2,16.2,0,0,1,24.82,9a5.68,5.68,0,0,0-.67.88c-.38.44-.1.43.85,0,1,0,1.29-.13.78-.4l-.19-.13c.6,1.14.83,1.42.7.85a6.37,6.37,0,0,0-.16-.66,7.34,7.34,0,0,1,.22-2c.16-.77.5-1.46.62-2.26a3.3,3.3,0,0,1,.59-1.37L22.9,2.58A22.66,22.66,0,0,1,22.48,6a16.15,16.15,0,0,1-.58,3l.64-1.11q-.54.59.48-.06c.93,1,1.27,1.13,1,.44a6.42,6.42,0,0,0-.19-1c-.1-.46-.26-.9-.39-1.34-.08-.28-.09-.26,0,0,0-.17,0-.35,0-.52,0-1.88-.15-3.4-1.78-4.59s-3.79.4-3.77,2.16S19,7,18.27,8.78a8.56,8.56,0,0,1-1.44,1.91A6.75,6.75,0,0,0,16,11.85c-.27.64-.33.8-.19.46-.23.41-.12.32.34-.28l1.26-.34h-.2l1.26.34.22.15.65,1.11c-.08-.26-.11-.27-.07,0a4.73,4.73,0,0,1,0-.53,7.77,7.77,0,0,0-.1-1.27,6.11,6.11,0,0,0-1.42-2.88c-.89-1-2.29-2.11-3.65-2.12a2.53,2.53,0,0,0-2.5,2.5A26.91,26.91,0,0,0,12,12.28a4.94,4.94,0,0,1,0,2.53,3.08,3.08,0,0,1-.59.92c-.68.7,0,0-.13.15l-.15.09q-.5.26.48.06c-.05-.19-1.23-.29-1.33-.3a4.1,4.1,0,0,0-2,.31A12,12,0,0,0,3.53,20.1a7,7,0,0,0-1.09,2.62c-.11.63,0,1.31-.17,1.93-.09.44-.32.88-.45,1.32a9.56,9.56,0,0,0-.43,3A10.13,10.13,0,0,0,2.21,32a23.81,23.81,0,0,1,.69,2.64c.22,1.06.9,1.83,1.16,2.81.58,2.25,1.88,4.27,2.49,6.53a12.73,12.73,0,0,0,.93,3,12.78,12.78,0,0,0,.9,1.28,4.9,4.9,0,0,1,.53,1.22,17.62,17.62,0,0,0,1.85,3c.56.85,1,1.75,1.46,2.62s1.1,1.18,1.48,1.93c.57,1.13,1.28,2.19,1.82,3.33a2.44,2.44,0,0,0,2.15,1.23c1.85,0,3.43-1.09,4.92-2.07a18.2,18.2,0,0,0,3.83-3.76,27.1,27.1,0,0,1,4.1-3.52C32,51,33.19,49.5,34.58,48.21l-4.27-1.77,0,.28.34-1.27c-.17.36-1.06,1.6-1.5,2.2a7.77,7.77,0,0,1-2,1.62,25,25,0,0,1-2.85,1.82c-.35.18-.72.31-1.06.49s-.4.24-.61.35q.52-.32-.15-.18c-.72-.07-1.45.38-2.15.35a1.48,1.48,0,0,1-1.48-.89,9.72,9.72,0,0,1-1.09-1.83,8.71,8.71,0,0,1-.33-1.75c-.08-.51-.27-1.05-.32-1.55l-4.27,1.77c.3.26,0-.07.21.35s.23.73.36,1.09a16,16,0,0,0,1.3,2.62c1,1.67,1.74,3.94,3.44,5a2.52,2.52,0,0,0,3.76-2.16A9,9,0,0,0,21,51.32a18.45,18.45,0,0,0-1.82-3.67,2.5,2.5,0,1,0-4.32,2.52,27.54,27.54,0,0,0,2.52,4.24c1.2,1.82,3.1,2.91,5.05,1.35,2.95-2.36.67-5.94.72-8.84L20,49.33l.07,0L19,48.72c-.43-.42-.19-.06-.26-.42A6.52,6.52,0,0,0,19,49c.18.52.33,1,.49,1.57a18.72,18.72,0,0,0,1.4,3.65,2.54,2.54,0,0,0,3.93.51c1.95-1.66,1.31-4.61.8-6.77L21,49.89a43.64,43.64,0,0,1,2,5.2,2.55,2.55,0,0,0,4.18,1.11c1.24-1.05,1.21-3,1.1-4.47a53,53,0,0,0-.44-5.48,2.47,2.47,0,0,0-2.75-1.79,2.51,2.51,0,0,0-2.16,2.45,23.78,23.78,0,0,0,.56,4.28,23,23,0,0,0,.58,4.54c.71,2.19,4.31,2.57,4.83,0,0-.22.09-.45.13-.68.07-.54.33-.38-.09,0l-4.18-1.11c.35,1.07.36,2.19.62,3.28a2.53,2.53,0,0,0,4.18,1.1,7.37,7.37,0,0,0,1.74-2.92s.23-.5.07-.16l.34-.72c.29-.66.57-1.33.88-2,.56-1.17,1.15-2.33,1.67-3.52s1.25-2.23,1.75-3.4c1.11-2.56.46-5.39-.4-7.92a37.59,37.59,0,0,1-1.83-7.6c-.33-2.74-.7-5.53-.81-8.29-.1-2.36.08-5.05-.67-7.33a5.49,5.49,0,0,0-5-3.8c-1.24-.09-2.5,0-3.74,0a8.44,8.44,0,0,0-4,.5c-1.14.58-2.09,1.42-3.27,1.94a28.81,28.81,0,0,0-3.84,2.13c-1.12.7-2.28,1.33-3.4,2.05a13.88,13.88,0,0,1-1.8,1c-.48.22-1,.65-1.47.82A2.53,2.53,0,0,0,4,20.87a12.58,12.58,0,0,0,.36,4.65c.27,1.52.5,3.06.87,4.57s.86,2.83,1.14,4.29.41,2.77.72,4.14c.66,2.86,1.39,5.7,2.21,8.53.65,2.26,1.75,5.23,3.75,6.63a2.53,2.53,0,0,0,3.68-1.5c.57-2.31-.76-4.84-.92-7.16a51.1,51.1,0,0,0-1.3-7.58,126.71,126.71,0,0,1-2.39-15L8.36,24.61c-.37-.29-.32-.56-.29,0a6.47,6.47,0,0,0,.28,1.09l.42,1.76c.32,1.39.64,2.77.94,4.16q.88,4.1,1.78,8.19c.54,2.49,1.17,4.91,1.82,7.37.26,1,.79,2.43.9,3.16.18,1.27.22,2.5,1.56,3.16,1.57.77,3.9-.14,3.76-2.16-.21-2.95-.6-5.87-1-8.8s-.42-5.89-1-8.77c-.51-2.65-.9-5.31-1.35-8-.22-1.31-.44-2.58-.58-3.9a30.94,30.94,0,0,1-.59-4.15h-5a8.87,8.87,0,0,0,.58,2.68,15,15,0,0,1,.68,2.18,51.32,51.32,0,0,0,1.19,5c.37,1.65.67,3.31,1.1,4.94.83,3.09,1.47,6.17,2.11,9.31.32,1.59.72,3.17,1.13,4.74a25.76,25.76,0,0,0,1.35,4.59c1,2.2,4.88,1.17,4.66-1.27-.49-5.52-1.06-11-1.84-16.52-.38-2.64-.81-5.26-1.32-7.88A46.77,46.77,0,0,1,18.64,18a2.5,2.5,0,0,0-4.91-.67c-.41,2.8.63,5.54,1.24,8.24.69,3.07,1.15,6.19,1.85,9.26.34,1.47.76,2.91,1.17,4.36s.65,3.11,1,4.65c.7,3.15,1.3,6.36,2.25,9.44A2.49,2.49,0,0,0,24,55a2.46,2.46,0,0,0,2.17-2.45c-.75-6.15-1.91-12.24-2.42-18.42S22.36,21.88,22.2,15.69l-4.91.67c1.35,5.66,1.57,11.5,2.85,17.19.28,1.23.64,2.43.8,3.69s.26,2.79.44,4.19a31.5,31.5,0,0,0,.82,4.09c.38,1.44.57,2.91,1,4.32.84,2.63,4.9,2.23,4.91-.67s-.61-5.69-.8-8.53c-.2-3-.34-6.07-.57-9.1s-.51-5.87-.73-8.81a37,37,0,0,0-.6-4.44,14.91,14.91,0,0,1-.26-1.88c0-.31-.08-.63-.14-.94-.1-.47,0-.89-.2-.21l-4.57.6a10.13,10.13,0,0,1,.83,3.52,28,28,0,0,0,.75,4.25,84.42,84.42,0,0,1,1.36,8.81c.34,3,.64,6.05,1,9.06s1,5.88,1.31,8.85a2.5,2.5,0,0,0,5,0A134.83,134.83,0,0,0,31,29.66c-.12-3.34-.34-6.68-.77-10-.33-2.52-.82-6.4-3.27-7.86a2.53,2.53,0,0,0-3.68,1.49,12.55,12.55,0,0,0,.2,4.65c.22,1.42.4,2.85.62,4.27.53,3.39,1,6.79,1.54,10.17.55,3.21,1.18,6.43,1.87,9.62.32,1.47.81,3,1,4.45s.22,2.68,1.27,3.78A2.52,2.52,0,0,0,34,49.14c.49-2.43-.19-5-.35-7.46-.14-2.14-1.14-4.75-3.79-4.51a2.57,2.57,0,0,0-2.5,2.5,2.51,2.51,0,0,0,2.5,2.5c.75,0,.35-.28-1.19-.76l-.1-.21c.06,0,.12.81.06.25,0,.39,0,.77.07,1.16.07,1,.23,1.94.33,2.91a9.33,9.33,0,0,1,.15,2.29l4.18-1.1c.29.3.19.63.22.2,0,.06,0-.39,0-.45a16.77,16.77,0,0,0-.34-2.22c-.3-1.42-.67-2.82-1-4.24-.62-3-1.22-6-1.73-8.94s-.9-6-1.35-9c-.22-1.42-.45-2.83-.65-4.25a10.46,10.46,0,0,1-.35-3.19l-3.68,1.5c-.79-.47-.45-.55-.24-.07.09.23.22.44.32.66A6.22,6.22,0,0,1,25,18.13a31.81,31.81,0,0,1,.56,4c.31,3.15.48,6.32.56,9.48a131.69,131.69,0,0,1-.54,18.74h5c-.31-3.05-.93-6-1.35-9.09-.44-3.24-.73-6.49-1.11-9.74a88.42,88.42,0,0,0-1.48-9.45c-.69-3-.76-5.9-2-8.73-.9-2-4.1-1.37-4.57.6a9.84,9.84,0,0,0,.22,3.46c.14,1.47.57,2.89.72,4.37.29,3.09.53,6.2.78,9.3s.37,6.06.57,9.09.83,6,.83,9l4.91-.66c-.44-1.34-.62-2.74-1-4.1a28.42,28.42,0,0,1-.78-3.64c-.17-1.4-.26-2.79-.44-4.18s-.56-2.91-.89-4.37c-1.29-5.7-1.5-11.52-2.86-17.19-.65-2.73-5-2.16-4.91.66.16,6.19,1,12.33,1.53,18.48s1.67,12.27,2.42,18.42l4.91-.67c-.88-2.85-1.43-5.82-2.09-8.73-.36-1.57-.61-3.17-1-4.73-.32-1.38-.81-2.71-1.13-4.08-.68-2.85-1.18-5.73-1.74-8.6-.27-1.35-.64-2.66-.94-4a10.38,10.38,0,0,1-.63-3.16L13.64,18c.15,5.3,1.65,10.53,2.43,15.77s1.32,10.76,1.8,16.16l4.66-1.26a8.54,8.54,0,0,1-.37-1.59c-.19-.75-.4-1.5-.59-2.25-.39-1.5-.76-3-1.07-4.52-.62-3.06-1.25-6.06-2.06-9.08S17.08,25,16.32,22c-.09-.4-.18-.8-.29-1.19a2.73,2.73,0,0,0-.25-.78c-.16-.38-.17-.39,0,0,.08,0,.15.44,0,0,0-.16-.11-.31-.16-.47-.14-.4-.27-.8-.39-1.21-.06-.19-.09-.4-.16-.59-.19-.49,0,.35,0,0,0-3.23-4.89-3.21-5,0a23.55,23.55,0,0,0,.6,4.17c.19,1.35.31,2.71.55,4.06.49,2.73.83,5.48,1.37,8.2s.62,5.4.95,8.1c.37,3,.78,6,1,9l3.76-2.16-.16-.08L19,50c.13.23.11.9.19.35a3.26,3.26,0,0,0-.07-.76,16.71,16.71,0,0,0-.55-1.92c-.35-1.27-.65-2.55-1-3.82-.75-2.62-1.27-5.27-1.85-7.93S14.58,30.4,14,27.68c-.29-1.27-.58-2.53-.9-3.79a5.8,5.8,0,0,0-2.17-3.6c-1.46-1.11-3.95.38-3.77,2.16.51,5,1.28,10,2.27,14.94a57.36,57.36,0,0,1,1.38,7,29.07,29.07,0,0,0,.43,3.71c.12.62.28,1.23.43,1.84.07.31.14.62.2.92.1.62.12.62.07,0l3.68-1.49c.3.21.32.43.13,0-.09-.2-.21-.4-.31-.6-.19-.38-.38-.76-.58-1.14a16,16,0,0,1-1.1-3.32q-1.07-3.75-1.9-7.54c-.26-1.16-.37-2.33-.58-3.49s-.61-2.42-1-3.62-.61-2.66-.85-4c-.11-.65-.23-1.3-.34-1.95a5.09,5.09,0,0,1-.28-1.52L7.07,23.94a33.32,33.32,0,0,0,5.71-3.12,53.12,53.12,0,0,1,5.4-3.15A18.27,18.27,0,0,0,21,16.14a3.24,3.24,0,0,1,.82-.52,6.63,6.63,0,0,1,1.72,0,32.13,32.13,0,0,1,3.4,0s.51,0,.29,0c.09,0,.38.2.17.06s.07.05.14.26.17,1.45.25,2.15c.14,1.21.1,2.42.15,3.64.09,2.38.42,4.78.68,7.15a45,45,0,0,0,1.26,7.38c.57,2,1.73,4.14,1.7,6.29,0,1.14-.74,1.9-1.23,2.88-.61,1.21-1.12,2.46-1.71,3.68s-1,2.23-1.53,3.34A7.94,7.94,0,0,1,26,54.78l4.18,1.1c-.27-1.09-.27-2.21-.63-3.28a2.54,2.54,0,0,0-4.18-1.1,4.85,4.85,0,0,0-1.33,2.9h4.83a21,21,0,0,1-.49-3.88,19.1,19.1,0,0,1-.48-3.61L23,47.58c.2,1.19.12,2.41.22,3.61,0,.47.08.93.09,1.4a5.41,5.41,0,0,0,0,.8c-.12-.14.26-.67.33-.73l4.18,1.1a54,54,0,0,0-2.51-6.39c-1.38-2.55-5.22-.78-4.57,1.92.11.48.27,1.11.32,1.5a3,3,0,0,0,0,.72h0c.4-.5.44-.61.14-.33l3.93.51c-1.29-2.35-1-6-3.84-7.19-1.55-.65-3.14,1-3.16,2.41a21.17,21.17,0,0,0,.62,4.1c0,.19.13.85.13.95s-.05.57,0,.69c-.25-.39,1.08-1.13.21-.74h2.52a13.69,13.69,0,0,1-1-1.64,16,16,0,0,1-1.51-2.63l-4.32,2.52a13.43,13.43,0,0,1,1.32,2.48,9.55,9.55,0,0,1,.71,2.09l3.76-2.16c.38.44.43.46.16.06-.11-.18-.22-.37-.32-.57s-.33-.58-.5-.87c-.53-.92-1.07-1.85-1.57-2.79-.72-1.38-.83-3-2.06-4.1-1.46-1.3-4.5-.54-4.27,1.77a23.56,23.56,0,0,0,.9,4.85,13.72,13.72,0,0,0,1.89,3.38,6.11,6.11,0,0,0,3.38,2.45,9.74,9.74,0,0,0,4.33,0,8.64,8.64,0,0,0,1.95-.27,13.83,13.83,0,0,0,1.59-.79A29.88,29.88,0,0,0,30,53.33a11.5,11.5,0,0,0,3.4-3.15c.79-1.24,1.71-2.21,1.87-3.74.26-2.29-2.82-3.1-4.26-1.76-1.17,1.08-2.15,2.35-3.37,3.38s-2.75,2.16-4.06,3.32c-1.08,1-1.91,2.21-2.95,3.23A8.3,8.3,0,0,1,19,55.72c-.35.21-1,.78-1.36.78l2.16,1.24c-.42-.89-1-1.7-1.45-2.57a9.06,9.06,0,0,0-1.74-2.63c-.41-.39,0,.15-.23-.28s-.29-.7-.47-1c-.47-.88-1.06-1.73-1.61-2.56a7.25,7.25,0,0,1-.81-1.1c-.18-.39-.25-.87-.45-1.28-.44-.87-1.17-1.45-1.4-2.42a34.32,34.32,0,0,0-2.15-6.16c-.45-1-.6-2.19-1.11-3.14-.17-.31-.47-.55-.63-.86,0,.08.13.3,0-.05s-.2-1-.33-1.45c-.25-.95-.6-1.83-.93-2.76a3.41,3.41,0,0,1,.1-2.16,14.5,14.5,0,0,0,.65-3.06,2.91,2.91,0,0,1,.61-1.69c.55-.71,1.43-1,2-1.66l.15-.11q.46-.27-.39-.12s.45.14.49.15a4.49,4.49,0,0,0,1.86.12c2.36-.38,4.05-2.58,4.8-4.71.84-2.39-.14-4.85-.22-7.27l-2.5,2.5-.92-.2.19.12c.07.19.15.1.21.16s.56.49.52.44a1.18,1.18,0,0,1,.17.51c0,.34,0,.68,0,1a3.34,3.34,0,0,0,1.95,3A3,3,0,0,0,20,15.15c.09-.14.15-.28.23-.43a5,5,0,0,0,.27-.63c-.2.32.49-.56.62-.73a11.06,11.06,0,0,0,2-3.12,8.19,8.19,0,0,0,.35-3.55c-.11-1.23-.52-2.53-.54-3.75L19.1,5.1c-.82-.59-.66-1.28-.67-.3,0,.28,0,.56,0,.84a9.67,9.67,0,0,0,.51,2.49c.56,2.08.95,4.06,3.46,4.53A3.93,3.93,0,0,0,27,9.23c.31-2.22.83-4.4.93-6.65C28,0,24.51-.68,23.24,1.31A7.83,7.83,0,0,0,22,4.72c0,.33.23-.37-.09.21a4.45,4.45,0,0,0-.36.94,16.05,16.05,0,0,0-.24,2.06c-.31,2.26-.09,4.51,2,5.84a3.41,3.41,0,0,0,3.32.39,6.37,6.37,0,0,0,2.31-2.3,16.84,16.84,0,0,0,1.94-3.13c.52-1.12.88-2.32,1.45-3.41L27.71,3.39c-1.07,2.55-4.79,5.44-1.91,8.13a11.31,11.31,0,0,1,2.26,3c.07.14.32.89.48.94s.06.21.08.13a4.27,4.27,0,0,0,.13-.54,11.41,11.41,0,0,0-1,1.55,2.53,2.53,0,0,0,1.49,3.67c2.23.46,3.79-1.14,5.66-2,.62-.29,1.26-.53,1.89-.81a3.15,3.15,0,0,0,.83-.4l-2-1c.08.27.1.34,0,.21,0,.1-.21.71-.27.95a6.17,6.17,0,0,0-.13,1c-.07.47,0,.34.3-.37.47-.48.54-.68.22-.6a5.27,5.27,0,0,0-1.69.36,8.51,8.51,0,0,0-1.79.82,33.41,33.41,0,0,0-3.06,1.67,3.27,3.27,0,0,0-1.27,3.52,3.68,3.68,0,0,0,1.06,1.65c1.1,1,.38-.11.18-.06,0,0,.3,1.1.31,1.15a36.53,36.53,0,0,0,1.18,3.53c.48,1.29.81,2.61,1.38,3.87A14.84,14.84,0,0,1,33.25,37c.11.56.07,1.11.14,1.67s.39,1.2.52,1.84a19.88,19.88,0,0,1,0,3.7c0,.55.07,1.18,0,1.72a14.26,14.26,0,0,1-.47,1.7,6.4,6.4,0,0,1-1.14,2.69A13.7,13.7,0,0,1,30,53.22a15.05,15.05,0,0,1-3.2,2.57,37.25,37.25,0,0,0-3.67,2.13,17.35,17.35,0,0,0-1.61,1.21c-.45.33-1,.49-1.47.78s-1,.81-1.57,1.15c-.26.17-.55.29-.82.45s-1.78.88-.48.43h1.33c.63.63.79.71.47.24,0,.11,0,0-.11-.3s-.18-.56-.28-.84a25.23,25.23,0,0,1-.95-2.73,17.09,17.09,0,0,0-2.63-5c-1.13-1.63-2.48-2.93-3.48-4.66a57.27,57.27,0,0,1-2.75-5.34c-.37-.84-.75-1.67-1.06-2.53A15.25,15.25,0,0,0,6.77,38c-.2-.27-.41-.53-.62-.79.23.61.32.65.28.12A3.58,3.58,0,0,0,6,35.73a7.17,7.17,0,0,1-.77-2.07,30.83,30.83,0,0,1,.29-6.51c.18-2.14.29-4.2.29-6.34h-5c0,.7,0,1.4,0,2.1-.07,2.34,3.66,3.6,4.66,1.26a17.14,17.14,0,0,0,.81-2.64c.07-.24.13-.48.21-.72,0-.09.25-.72.16-.5s.2-.34.21-.38c-.06.42-1.67.61-2.21.37L3.51,18.81a6.75,6.75,0,0,1,.05,1,4,4,0,0,0,.52,1.56,2.53,2.53,0,0,0,4.32,0,44.88,44.88,0,0,0,2.13-4.21c.19-.36.39-.73.6-1.08a7.94,7.94,0,0,0,.46-.72l0,.07c.55-.52.11-.44-1.32.22L9.12,15c-.22-.19-.21-.93-.23-.4h5a13.22,13.22,0,0,1,.34-3.49,16.91,16.91,0,0,0,.85-3.38h-5c0-.25.08,0,0,.14s-.15.32-.23.47c-.21.4-.44.79-.67,1.18a18.05,18.05,0,0,1-2,2.51,9.19,9.19,0,0,1-2.61,2.07c-.51.28-1.06.44-1.55.77a5.52,5.52,0,0,0-.78.67c-.1.1-.42.31-.19.2l1.27-.34H3l2.16,3.76c1.21-1.65,1.9-3.66,3-5.31s2.48-3.38,2.44-5.62A2.53,2.53,0,0,0,6.29,6.46a6.18,6.18,0,0,0-1.53,4.41c.19,2,2.73,3.56,4.27,1.77a9.4,9.4,0,0,0,1.24-2.7,4.37,4.37,0,0,0,.47-1.12c-2.35.08-3.07.35-2.16.78L9,9.86c1.43.93,3.15,1.81,4.64.34a3.09,3.09,0,0,0,.71-3.1c-.19-.72-.22-1.36-.43-2.15-.42-1.6-.49-3.33-2.17-4.59a2.38,2.38,0,0,0-2.52,0C7.14,1.91,7.67,4.42,6.6,6.5l4.57.59a10.78,10.78,0,0,1,0-1.68c.1-3.22-4.9-3.21-5,0Z"/></g><g class="cls-1"><path class="cls-2" d="M36.11,16c-.88,0-1.74-.3-2.62-.3a8.9,8.9,0,0,0-2.45.5A14.26,14.26,0,0,0,26.91,18,12.66,12.66,0,0,1,25,19.23c-.82.35-1.66.61-2.47,1a12.67,12.67,0,0,0-4,2.74l1.1-.64a6.06,6.06,0,0,0-2.35,1.31c-.43.43-.76,1.05-1.14,1.42l1.1-.64a4.69,4.69,0,0,0-2.88,2.54,17.36,17.36,0,0,0-.86,3.48,10,10,0,0,0-.38,3.91c.1.54.3,1,.43,1.55s.14,1.12.24,1.67a31.74,31.74,0,0,0,.82,3.19c.27.91.46,2,.7,3a13.15,13.15,0,0,1,.12,3.55c-.08,1.26-.69,2.42-.63,3.73.14,3.21,5.14,3.23,5,0a24.29,24.29,0,0,1,.58-3.09,28.58,28.58,0,0,0,0-3.07,11.58,11.58,0,0,0-.5-3.15c-.23-.8-.29-1.64-.54-2.45-.51-1.71-.64-3.49-1.15-5.18a3.36,3.36,0,0,1,.06-2.1,12.25,12.25,0,0,0,.27-1.47c.05-.41.27-.93.27-1.3s.06-.4.14-.3c-.49.37-.52.44-.08.22a3.09,3.09,0,0,0,1.42-1.26,5.19,5.19,0,0,1,.42-.59c.37-.32.95-.39,1.35-.76.14-.13,1.2-1.13.7-.78a9.13,9.13,0,0,1,1-.56,20,20,0,0,1,2.32-1c1.82-.69,3.23-1.91,5-2.73a11.09,11.09,0,0,1,1.94-.57c1-.24,2,.17,3.06.2,3.22.11,3.21-4.89,0-5Z"/></g><g class="cls-1"><path class="cls-2" d="M20.8,34a30.43,30.43,0,0,0,.4,4.57c.05.32.14.64.21,1-.1-.45,0,.32,0,.41,0,.68,0,1.36,0,2a6.61,6.61,0,0,1,0,1.71c-.23.68-.48,1.34-.66,2a19.84,19.84,0,0,0-.78,4.66,2.51,2.51,0,0,0,2.5,2.5,2.56,2.56,0,0,0,2.5-2.5,15.74,15.74,0,0,1,.76-3.94,18,18,0,0,0,.63-2A12.64,12.64,0,0,0,26.4,42a17.79,17.79,0,0,0-.29-4.25c-.17-.66,0,.43,0-.4,0-.4-.07-.8-.11-1.2-.08-.71-.16-1.41-.17-2.13a2.5,2.5,0,0,0-5,0Z"/></g><g class="cls-1"><path class="cls-2" d="M22.13,34c.89.8,1.48,2,2.3,2.9s1.91,1.84,2.82,2.81C28,40.51,29,41.21,29.79,42a3.55,3.55,0,0,0,4.21.76c2-1.16,2-3.89,1.25-5.79-.42-1.14-.7-2.38-1.22-3.48s-1.57-2.09-2-3.3a3.94,3.94,0,0,1-.09-1c0-1.25-.4.1-1,.71H30.9c.32,0,.35,0,.09,0L30,29l.1.32a7.51,7.51,0,0,0,.52,1.35c.13.49.13,1.3.26,1.91s.4,1.39.56,2.09.24,1.25.37,1.87.44,1.33.58,2a25.86,25.86,0,0,1,.05,3.84,13.7,13.7,0,0,1-.21,3.89,19,19,0,0,1-1.07,3.49,3.58,3.58,0,0,1-.89,1.37,7.22,7.22,0,0,0-1.35,1.61,8.73,8.73,0,0,1-1.22,1.89c-.48.5-1,1-1.48,1.45a35.77,35.77,0,0,0-3.27,3c-.64.75-1.43,2.28-2.47,2.53-.28.06-.93-.06-1.26,0a6.67,6.67,0,0,0-1.24.2,4.18,4.18,0,0,0-.76.31c-.41.15-.45.18-.1.1a2.57,2.57,0,0,0-2.5,2.5,2.51,2.51,0,0,0,2.5,2.5c2.12-.2,3.23-1.3,4.77-2.61s2.83-2.11,3.78-3.73a2.56,2.56,0,0,0-.39-3c-1.08-1.11-2.41-1-3.77-1.45s-2-1.77-3.27-2.41a2.53,2.53,0,0,0-3.67,2.83,8.4,8.4,0,0,0,4.53,4.93,2.6,2.6,0,0,0,3-.39,5.4,5.4,0,0,0,1.38-4.06,29,29,0,0,1-.48-3.24l-2.41,1.83a1.56,1.56,0,0,1-1-.43c.15.18.18.2.08.07s.27.4.34.5a9.11,9.11,0,0,0,1.11,1.37,3.43,3.43,0,0,0,4.7.18c2-1.79,1.2-4.71,1-7l-4.27,1.77c1,.94,1.73,2.72,3.41,3.3A3.45,3.45,0,0,0,30.3,53.8a9.06,9.06,0,0,0,.58-4.32c-.05-1.73-.63-3.47-.53-5.19l-4.66,1.26c1,1.47,1.63,3.05,3.22,4a2.53,2.53,0,0,0,3-.4c1.2-1.47,1.18-3.06,1-4.86a50.86,50.86,0,0,1-.59-6h-5a20.29,20.29,0,0,0,1,4.91c.22.71.46,1.42.7,2.13.13.41.26.83.41,1.23.05.12.46,1.23.41.77l4.26-1.77c-.86-1-1.35-2.44-2.13-3.55-.91-1.3-2.13-3.11-3.74-3.57a2.85,2.85,0,0,0-3.57,2.75c-.12,1.36-.05,2.69-.28,4.05L29,44.6a7.16,7.16,0,0,0,0-1A15.28,15.28,0,0,1,28.78,42c-.06-3.22-5-3.23-5,0A19.26,19.26,0,0,1,22.62,48a21.75,21.75,0,0,1-1.15,2.56,22.32,22.32,0,0,1-1.4,2.76c-.52.75-1.16,1.4-1.65,2.17a7.56,7.56,0,0,1-.6,1c-.31.35-.79.52-1.1.87l-.35.35c1.57.35,2,.26,1.35-.26a8.37,8.37,0,0,0-.69-.78c-.19-.2-.39-.4-.57-.62-.37-.43-.19-.67-.16.27L11.39,57c.19.54.34,1.11.52,1.65l4.57-1.92a17.39,17.39,0,0,1-1.74-3.51c-.55-1.2-1.42-2.21-2-3.4a30.1,30.1,0,0,0-2.07-3.39A12,12,0,0,1,9,42.28c-.69-3.14-5.51-1.81-4.82,1.33a16.63,16.63,0,0,0,1.7,4.58c.72,1.32,1.73,2.43,2.37,3.8.56,1.19,1.39,2.22,2,3.4a21.37,21.37,0,0,0,1.92,3.86,2.53,2.53,0,0,0,3.12,1,2.48,2.48,0,0,0,1.44-2.94c-.18-.55-.33-1.11-.52-1.66-.86-2.55-5-2.3-4.91.66a5.25,5.25,0,0,0,1.62,3.26,11,11,0,0,0,2.28,2.24,3.67,3.67,0,0,0,4.47-.34,13.88,13.88,0,0,0,2.86-3.11c.68-1.1,1.66-2,2.25-3.17s1.27-2.54,1.84-3.83A24.27,24.27,0,0,0,28.78,42h-5c0,.82.17,1.83.22,2.49a6,6,0,0,0,.65,2.66c1,1.75,4.19,1.57,4.57-.6a29,29,0,0,0,.43-3.22c0-.38,0-.76,0-1.13,0-.19,0-.37,0-.55q0-.75-.18.48l-.9.89.11-.06-1.92.26c-.5-.35-.6-.39-.31-.13q.15.13.3.3a8.67,8.67,0,0,1,.69.79,17.42,17.42,0,0,1,1,1.52,25.33,25.33,0,0,0,2.14,3.38c1.32,1.59,4.51.35,4.27-1.77a24.57,24.57,0,0,0-1.42-4.59,16.85,16.85,0,0,1-1.09-4.45c-.08-3.22-5-3.23-5,0a26.12,26.12,0,0,0,.23,2.64c.08.84,0,1.67.14,2.51.08.53.22,1,.27,1.55a6.54,6.54,0,0,0,.06.89c.11.38-.16.4.35-.23l3-.39c-.55-.33-1-1.56-1.42-2.19a2.52,2.52,0,0,0-4.66,1.26c-.12,2.13.59,4.27.55,6.42a7.69,7.69,0,0,1-.1.94,1,1,0,0,1,.26-.33c.62-.55,1.19-.65,1.71-.29.26.18.31.19.14,0a7.85,7.85,0,0,0-.68-.87,9.55,9.55,0,0,0-1.12-1.4c-1.44-1.43-4.45-.47-4.27,1.76.06.77.2,1.53.26,2.29a8.19,8.19,0,0,1,0,1.4c0-.38.07.13,0,.18-.07.21,0,.15.15-.2.29-.65.89-.89,1.8-.73l.62.36-.15-.15c0-.1-.08-.09-.17-.22-.25-.34-.48-.68-.74-1a3.6,3.6,0,0,0-3-1.6,2.55,2.55,0,0,0-2.41,1.84,10.93,10.93,0,0,0,.13,3.56c.06.33.14.69.17,1s-.14.77.08.52l3-.39a4.43,4.43,0,0,1-2.23-1.94L15.74,58.3c.27.14.84.81,1.22,1.12a9.92,9.92,0,0,0,2.15,1.37,6.84,6.84,0,0,0,1.75.55,5.92,5.92,0,0,0,.9.17c.36,0,.28.15,0-.13l-.39-3A9.27,9.27,0,0,1,19,60.6c-.43.34-.84.69-1.24,1.06-.12.11-.43.54-.58.55v5a17.8,17.8,0,0,0,2.12-.56,6.92,6.92,0,0,1,1.21-.05,6.2,6.2,0,0,0,3.66-1.39,16,16,0,0,0,2.31-2.49,22.71,22.71,0,0,1,2.73-2.55,24.27,24.27,0,0,0,2.52-2.45c.82-.95,1.23-2.19,2.14-3,2-1.88,2.64-4.69,3.29-7.26s.34-5.38.32-8a16.78,16.78,0,0,0-.7-3.79c-.31-1.32-.58-2.64-.91-4-.52-2.06-.51-4.9-2.53-6.18s-5.18-.66-6.07,1.65c-1,2.58.19,5.36,1.66,7.46a19.13,19.13,0,0,1,1.48,3.55,3.2,3.2,0,0,1,.32,1c0,.1,0,.11,0,.11,0,.19,0,.17,0,0s.16-.28.23-.42l1.11-.64c1.24.5,1.58.52,1,.07l-.35-.37c-.45-.43-1-.76-1.43-1.16-.63-.54-1.11-1.21-1.72-1.76a20.88,20.88,0,0,1-2.05-2.05,18.41,18.41,0,0,0-1.89-2.41c-2.39-2.14-5.94,1.38-3.53,3.53Z"/></g><g class="cls-1"><path class="cls-2" d="M7.88,36.92a17.63,17.63,0,0,1-1.24-2.15,8.08,8.08,0,0,1-.26-1.08c-.15-.55-.56-1-.68-1.57.13.55,0-.63,0-.64a4.61,4.61,0,0,0-.45-1.66c-.15-.4-.18-.44-.09-.11a.4.4,0,0,1,.08-.42c.13-.22.24-.47.38-.7A4.6,4.6,0,0,1,6.88,27a10,10,0,0,1,2.31-.7,18.89,18.89,0,0,1,2.65-.63,24.66,24.66,0,0,0,2.45-.91l-1.93-4.57a12.73,12.73,0,0,0-4.83,4.47C6.28,26.56,5.07,28.2,5,30.57a17.6,17.6,0,0,0,.68,6.5A17,17,0,0,0,9,42.7a2.52,2.52,0,0,0,4.18-1.1,10.3,10.3,0,0,0,0-4A27.15,27.15,0,0,1,13,33.68a27.52,27.52,0,0,1,.48-3.74c.1-.66.14-1.3.18-2a5.09,5.09,0,0,0,0-.55c0,.14,0,.12,0,0,.1-.33,0-.2-.3.41L9.2,26.7c.45,1.51,0,3.7-.21,5.25a31.23,31.23,0,0,0,0,6.19c.42,4.3,1.9,8.41,1.94,12.76,0,3.22,5,3.22,5,0a25.91,25.91,0,0,0-.39-4.82,27.46,27.46,0,0,0-1.28-4,28.8,28.8,0,0,1-1.59-8.62c-.05-1.45-.34-2.89-.31-4.34A25.62,25.62,0,0,1,12.94,25a5.58,5.58,0,0,1,.66-1.53,10.86,10.86,0,0,1,.75-1.74c0-.06.85-.43,1.13-.62.09-.06.85-.7.87-.69-.15-.12-.73.42-1.07.19l-.9-.9c.19-1.46.1-1.83-.27-1.1L13.8,19c-.34.36-.74.68-1.11,1a14.45,14.45,0,0,0-2.21,2.35c-1,1.35.11,3.23,1.49,3.67,1.93.61,3.62-.86,5-2,.09-.07.89-.81.34-.34.42-.36.89-.68,1.31-1a3.3,3.3,0,0,1,1.82-1,2.51,2.51,0,0,0,1.74-3.08,2.55,2.55,0,0,0-3.07-1.74c-1.78.25-3,1.48-4.32,2.56-.53.44-1.05.87-1.57,1.32-.06.05-.55.45-.41.35-.76.55-.21,0,.54.21l1.49,3.67c1.13-1.49,2.87-2.32,3.83-4,1.16-2,.35-4.52-2-5a4.23,4.23,0,0,0-3.57.9c-.66.49-1.44.81-2.06,1.37a7.85,7.85,0,0,0-1.63,2.81,12.57,12.57,0,0,0-1.2,2.79,23.6,23.6,0,0,0-.64,7c.22,2.38.26,4.75.69,7.1a41.17,41.17,0,0,0,1.69,6.64A18.33,18.33,0,0,1,11,50.9h5a31,31,0,0,0-.26-3.59c-.14-1.07-.47-2.08-.62-3.14-.18-1.21-.3-2.37-.59-3.57A18.93,18.93,0,0,1,14,37.7a36.28,36.28,0,0,1,.1-6.59A15,15,0,0,0,14,25.37a2.52,2.52,0,0,0-4.17-1.11,5.53,5.53,0,0,0-1.23,3.59c-.1,1.36-.41,2.67-.57,4a25.71,25.71,0,0,0,0,4.56c.07,1.15.6,2.75.32,3.83l4.18-1.1a12.15,12.15,0,0,1-2-3.43A12.28,12.28,0,0,1,10,31c0-1.49,1-2.54,1.84-3.77a7.69,7.69,0,0,1,3-2.67c2.55-1.28.76-5.34-1.93-4.57a20,20,0,0,1-2.86.95,30.6,30.6,0,0,0-3.5.93,8.54,8.54,0,0,0-5.43,4.54,6.86,6.86,0,0,0-1,3.35,6.63,6.63,0,0,0,.56,2.15c.16.52,0-.4,0,.21,0,.31,0,.62.08.93a8.78,8.78,0,0,0,.69,1.94c.13.36.13.79.25,1.16a19.32,19.32,0,0,0,1.75,3.34c1.61,2.79,5.93.28,4.32-2.52Z"/></g><g class="cls-1"><path class="cls-2" d="M7.51,15.36a4.24,4.24,0,0,0,1.73-.49l.33-.19c.23-.14.43-.13-.15,0,.28-.06.16-.07-.34,0s-.63,0-.36,0a2.09,2.09,0,0,0,.89.09A2.89,2.89,0,0,0,12,13.41,4.26,4.26,0,0,0,12.44,12c0-.11.16-.54,0-.21s.07-.12.11-.2l.22-.41c.13-.25.25-.5.37-.75.2-.42-.38.38-.08.1l.27-.26a9.73,9.73,0,0,0,1.41-1.53,2.84,2.84,0,0,0,.5-1.07,4.26,4.26,0,0,0,0-1.74,7.44,7.44,0,0,0-.28-1.48,2.6,2.6,0,0,0-2.42-1.84A3,3,0,0,0,9.87,4.16a4.11,4.11,0,0,0-.43,2.12c0,.21,0,.41,0,.62a1.09,1.09,0,0,0,0,.25s.16-.76,0-.39l.12-.33a1.28,1.28,0,0,1-.15.25c-.08.13-.16.26-.23.39a4.12,4.12,0,0,0-.48,1.35c0,.33-.1.66-.12,1,0,.52.18-.53,0-.05-.08.23-.23.37.09-.18-.06.11-.11.23-.16.34a14.33,14.33,0,0,1-.86,1.41l-.21.29c.44-.63.18-.24,0-.1s-.27.19-.33.29c.32-.23.37-.28.16-.12l-.12.09a8.76,8.76,0,0,0-1.82,1.5,2.71,2.71,0,0,0-.73,1.77A2.5,2.5,0,0,0,9,16.41c.18-.22.41-.38.6-.59L9.31,16l.23-.17.3-.21a8.44,8.44,0,0,0,1.94-1.83,10.94,10.94,0,0,0,1.67-3,5.69,5.69,0,0,0,.21-1.3,1.94,1.94,0,0,1,0-.24c-.07.37-.08.46,0,.26.18-.53,0,.08-.06.08s.4-.67.45-.77a3.68,3.68,0,0,0,.44-1.59c0-.33,0-.66,0-1V6c0-.25.15-.47,0,.32l0-.08a2,2,0,0,1-.52.86,2.1,2.1,0,0,1-1.37.58L10.11,5.8a4.92,4.92,0,0,1,.22,1,3.54,3.54,0,0,1,.07.47s0-.63-.05-.33c0-.1.1-.94.24-.94a1.52,1.52,0,0,0-.16.23c.05-.09.35-.41.12-.18l-.37.36a7.62,7.62,0,0,0-.77.73A11,11,0,0,0,7.87,9.88a4.22,4.22,0,0,0-.27.9c0,.13,0,.26-.08.39-.14.65-.17-.23.44-.7l1.1-.64a2,2,0,0,1,.87,0,8.24,8.24,0,0,0-.85-.11A3.18,3.18,0,0,0,8,9.93a6.16,6.16,0,0,0-.94.43,2,2,0,0,0-.27.17c-.11.06-.07,0,.14,0a1,1,0,0,1,.6-.12,2.78,2.78,0,0,0-1.77.73A2.57,2.57,0,0,0,5,12.86a2.53,2.53,0,0,0,.73,1.77,2.42,2.42,0,0,0,1.77.73Z"/></g><g class="cls-1"><path class="cls-2" d="M20.74,5c0,.3,0,.6,0,.9a3.09,3.09,0,0,0,.27,1l-.1-.26c.05.14.08.28.13.42a1.5,1.5,0,0,1,.11.36l-.05-.33a6,6,0,0,0,.1.61,1.17,1.17,0,0,0,.33.63.46.46,0,0,0,.59,0,1.73,1.73,0,0,0,.51-.81,2.62,2.62,0,0,0,.17-1.14,1.13,1.13,0,0,0-.28-.77l0,0,.14.19-.05-.08.1.26a1.16,1.16,0,0,1,0-.18l.05.32a4.15,4.15,0,0,0-.16-.78c-.11-.29-.19-.58-.3-.87l.1.26a1.72,1.72,0,0,1-.07-.21l.05.32a1.93,1.93,0,0,1,0-.24v.36c0-.13,0-.27,0-.4a1.93,1.93,0,0,0-.15-.95.45.45,0,0,0-.52-.27,1.17,1.17,0,0,0-.57.59A2.53,2.53,0,0,0,20.74,5Z"/></g><g class="cls-1"><path class="cls-2" d="M25.17,4.78v2c0,.22,0-.4,0-.19a2.28,2.28,0,0,0,0,.26,3,3,0,0,0,.07.9,1.08,1.08,0,0,0,.32.59.44.44,0,0,0,.58,0,1.75,1.75,0,0,0,.52-.81,2.78,2.78,0,0,0,.17-1.14,1.18,1.18,0,0,0-.29-.77l0,0,.15.18a.16.16,0,0,1,0-.07l.1.26a.29.29,0,0,1,0-.09l0,.32V6.1c0-.13,0,0,0,.26a.31.31,0,0,0,0-.1c0-.07,0-.14,0-.2,0-.33,0-.67,0-1V3.57a1.14,1.14,0,0,0-.28-.77.46.46,0,0,0-.59,0,2.53,2.53,0,0,0-.68,2Z"/></g><g class="cls-1"><path class="cls-2" d="M29.69,5.16a2.07,2.07,0,0,1,.13-.61s.17-.36.09-.21.11-.16.1-.16L30,4.26a6.45,6.45,0,0,0-.37.54,8,8,0,0,0-.41,1.06A7,7,0,0,0,28.8,7a7,7,0,0,0-.1,1.58,1.1,1.1,0,0,0,.29.77.45.45,0,0,0,.58,0,2.56,2.56,0,0,0,.69-2,1.55,1.55,0,0,1,0-.22v.09a.41.41,0,0,1,0-.11c0-.15,0-.07,0,.23l0-.1-.07.24c.1-.26.22-.51.3-.77l.06-.19,0-.1c.05-.13,0-.06-.09.2.1-.18-.21.31-.05.08l.11-.14a3.79,3.79,0,0,0,.7-1.88,1.82,1.82,0,0,0-.15-.95.44.44,0,0,0-.52-.26A1.15,1.15,0,0,0,30,4a2.93,2.93,0,0,0-.31,1.12Z"/></g><g class="cls-1"><path class="cls-2" d="M17.87,14.17a6.44,6.44,0,0,0,1.82-.48,3.69,3.69,0,0,1,1.23-.25c1-.08,2-.6,3-.77a26.12,26.12,0,0,1,3.43-.24,5.71,5.71,0,0,1,1.43.17,3.94,3.94,0,0,1,1.31.42c.93.64,1.79-2.19,1-2.75a5.49,5.49,0,0,0-2.88-.78,33.65,33.65,0,0,0-3.62.22c-1.12.13-2.16.62-3.27.8a6.4,6.4,0,0,0-1.44.26,6.14,6.14,0,0,1-1.82.49c-.6,0-.85,1.26-.89,1.7s0,1.25.67,1.21Z"/></g><g class="cls-1"><path class="cls-2" d="M33,28.65c.16,1.82,1,3.46,1,5.26a17,17,0,0,0,1.1,4.92,7.83,7.83,0,0,1,.19,1.26,6.93,6.93,0,0,0,.5,1.31,19,19,0,0,1,.39,3,15.59,15.59,0,0,1,.33,2.56,3.35,3.35,0,0,1-.42,2,12.77,12.77,0,0,1-.84,2.26,13.44,13.44,0,0,1-1.69,2.15c-1.23,1.32-2.55,2.58-3.82,3.86a7.28,7.28,0,0,1-2.17,1.71,23.5,23.5,0,0,0-2.28,1.43,20.55,20.55,0,0,1-2.8,1.34,9.2,9.2,0,0,1-2.08,1l.5,2c-.11.28.4-.11.44-.13.36-.17.69-.43,1.05-.62a12.6,12.6,0,0,0,1.68-1,26.25,26.25,0,0,0,2.79-2.79c1-1,2-1.89,2.88-3a21.94,21.94,0,0,0,2.34-3.62c1.31-2.5,2.72-5.1,2.91-8,.21-3,1.34-5.9,1.29-9l-1.51,1.54a27.29,27.29,0,0,1,.48,4.42,23.83,23.83,0,0,1-.53,4.45,27.89,27.89,0,0,1-1,3.71c-.39,1.21-.92,2.12-.62,3.42.13.56.66.73,1,.22,1.42-2.07,1.49-4.46,1.44-6.87,0-.54-.32-1-.87-.74s-.7,1.39-.68,2c0,1.09.19,2.4-.47,3.37l1,.21-.08-.35V53c.12-.6.47-1.21.64-1.81s.34-1.34.54-2a40,40,0,0,0,.87-4,25,25,0,0,0-.27-8.91c-.1-.57-.54-.62-.92-.32a2.5,2.5,0,0,0-.59,1.86c.05,2.79-1.09,5.48-1.28,8.26a10.26,10.26,0,0,1-1.35,3.79,31.81,31.81,0,0,1-1.93,3.65,41.4,41.4,0,0,1-5,5.52A14,14,0,0,1,21.8,61.4a4.37,4.37,0,0,0-2.15,2.17c-.21.51-.42,2.07.5,2s1.68-.83,2.42-1.16A20.57,20.57,0,0,0,25.44,63c.95-.61,1.88-1.12,2.85-1.67a8.44,8.44,0,0,0,1.86-1.72c1.39-1.42,2.91-2.79,4.21-4.3a14.39,14.39,0,0,0,2.8-5,13.45,13.45,0,0,0,.87-2.5,16.47,16.47,0,0,0,0-3.14c-.08-1.05-.43-2.05-.49-3.1a8.62,8.62,0,0,0-.59-2.76,6.09,6.09,0,0,1-.19-1.22,7,7,0,0,0-.39-1.17,15.54,15.54,0,0,1-.78-2.9c-.14-1.06.13-2.07-.25-3.1a12.48,12.48,0,0,1-.79-3c0-.52-.3-1.06-.87-.74s-.73,1.41-.68,1.95Z"/></g><g class="cls-1"><path class="cls-2" d="M19.51,62.88c.45.52.86,1.19,1.63,1s1-1.54.88-2.07c-.17-1.2-1.21-1.88-1.26-3.07l-1.41,1.8c.41.86,1.46,3.17,2.6,3.13.91,0,1.26-1.47,1.32-2.17.14-1.45-.92-2.55-1-3.94l-1.56,1.22a4.16,4.16,0,0,0,1.37,2.68c.58.63,1.11,1.28,2,1.15.47-.07.76-.94.83-1.3a8.09,8.09,0,0,0,.11-2.25c-.06-.59-.56-1.45-.5-2L23.29,58.7c.75.76,1,1.88,2.16,2.15.23.06.49-.16.6-.32a4.34,4.34,0,0,0,.68-3.38,11.75,11.75,0,0,0-.38-1.41c-.08-.26-.16-.51-.23-.77s0-1-.23-.36l-1.1.83c1.14.86,1.32,2.46,2.43,3.39.63.53,1.12-.88,1.21-1.22a5.93,5.93,0,0,0,.07-2.48c-.13-.75-.66-1.7-.5-2.45L27,54c.47.07.73,1.32,1,1.71s.57.66.79,1a3.53,3.53,0,0,0,.77,1.09c.3.24.59,0,.78-.22A5,5,0,0,0,31,53.69a15,15,0,0,0-.64-2.17A12.91,12.91,0,0,1,30,50.15c0-.17-.21-1.17-.27-.9l-1.35,1c.27.4.41.84.68,1.23a6.63,6.63,0,0,1,.82,1.28c.33.81.52,1.61,1.35,2a.46.46,0,0,0,.59,0c1.07-.85,1.11-2.47.82-3.7a11.36,11.36,0,0,0-.52-1.59c-.09-.24-.18-.47-.28-.7l-.26-.56c-.11-.44-.16-.44-.13,0l-1.36,1c.68,1.25,1.36,3.54,2.65,4.3.41.25.78-.13.95-.5.72-1.53.26-2.48-.14-4a24,24,0,0,0-.65-2.49c-.34-.89-.69-1.77-1-2.64l-1.26,2.37c.92,1.25,1.38,2.74,2.59,3.77.61.53,1.14-.87,1.21-1.22a5.47,5.47,0,0,0-.37-3.24c-.53-1.29-.86-2.54-1.27-3.87l-.63,2.28c-.58.31-.22-.09-.19.22,0,.13.24.36.32.48.32.51.6,1.05.92,1.56s1,1.86,1.87,1.88,1.17-1.71,1-2.4a44.1,44.1,0,0,0-1.69-6.28c-.54-1.59-1.74,1-1.45,1.86a20.16,20.16,0,0,0,1.16,2.76c.32.63.59,1.28,1.31,1.5.33.1.67-.35.77-.59a5.05,5.05,0,0,0-.09-4.25,14,14,0,0,1-.73-2.18,12.86,12.86,0,0,1-.62-2.3l-1.41,1.8a8.43,8.43,0,0,0,1.84,2.4c.68.42,1.12-.77,1.21-1.22A6.2,6.2,0,0,0,36,35.67c-.18-.45-.36-.9-.56-1.34-.1-.23-.22-.44-.33-.66-.21-.45-.11-.83-.29.09L33.59,35l.26.25c.29.64.9,0,1.1-.32a2.44,2.44,0,0,0,.17-2.06,1,1,0,0,0-.55-.62c-.69-.37-1.11.72-1.21,1.22a4.05,4.05,0,0,0,.53,2.72c.33.67,1.25,2.08,1.1,2.82l1.21-1.22a7.31,7.31,0,0,1-1.57-2c-.79-1.15-1.43,1.3-1.41,1.8a18.18,18.18,0,0,0,.86,3.53,10.36,10.36,0,0,0,.49,1.42c.09.23.2.46.29.69.18.47.06,1,.44.12l.77-.59c-.41-.13-.58-.79-.76-1.15a14.76,14.76,0,0,1-.88-2L33,41.38a44.06,44.06,0,0,1,1.68,6.28l1.05-2.4c-1.5,0-2-4.84-3.74-3.89a2.39,2.39,0,0,0-.64,2.27c.3,1,.44,2,.82,3a10.88,10.88,0,0,1,.84,2l1.21-1.22c-1.07-.92-1.48-2.29-2.31-3.4-.39-.53-.83-.14-1.09.31a2.48,2.48,0,0,0-.17,2.06,24.82,24.82,0,0,1,1.29,3.49c.12.53.16,1.06.33,1.58.06.17.13.35.2.52.18.58.3.38.35-.58l1-.5a3.66,3.66,0,0,1-1.1-1.52c-.44-.8-.83-1.62-1.26-2.42-.53-1-1.24.64-1.35,1a4.43,4.43,0,0,0,.5,3.1c.15.33.28.65.4,1s.12.44.2.65l.08.27c.08.56.23.28.44-.84l.59,0c-.81-.43-.81-1.2-1.17-2a8.14,8.14,0,0,0-.72-1c-.28-.39-.42-.82-.69-1.21-.6-.88-1.24.53-1.35,1a8.88,8.88,0,0,0,.38,3.75,18.8,18.8,0,0,0,.57,1.8,4.81,4.81,0,0,1,.21,1v.25c0,.53.08.4.23-.39l.78-.22a5.09,5.09,0,0,1-.77-1.16,8.28,8.28,0,0,1-.79-1.17c-.29-.61-.57-1.6-1.35-1.71-.61-.09-.94.89-1,1.31a6.14,6.14,0,0,0,0,2.49c.14.76.65,1.68.46,2.44l1.21-1.22c-1.1-.93-1.25-2.5-2.43-3.38-.5-.38-1,.45-1.1.83a5.65,5.65,0,0,0-.09,3c.09.42.23.83.36,1.24.07.21.11.44.19.64.22.56-.17.58.35-.14l.6-.32c-.88-.21-1.22-1.36-1.81-2S23,57.25,23,57.57c-.14,1.2.72,2.3.5,3.46l.83-1.3c-.58.08-2-1.64-2.06-2.14s-.32-1-.88-.73-.71,1.4-.68,2a8.25,8.25,0,0,0,.65,2.43l.22.55c.21.82.48.47.79-1-.05-.12-.26-.22-.35-.34a12.91,12.91,0,0,1-1.41-2.23c-.22-.46-.67-.24-.92.05A2.64,2.64,0,0,0,19.2,60a4.66,4.66,0,0,0,.39,1.95c.17.33.85.9.88,1.12L21.36,61c-.24,0-.72-.69-.87-.86-.65-.74-1.66,2-1,2.74Z"/></g><g class="cls-1"><path class="cls-2" d="M17.28,45.78a8.83,8.83,0,0,0-.72-3.07c-.35-1.14-.91-2.2-1.34-3.31L14.1,42c1,1.16,1,3.57,2.55,4.17.57.21,1-1,1-1.32a6.61,6.61,0,0,0-.48-3.89c-.27-.72-.53-1.45-.8-2.18-.11-.3-.22-.6-.36-.89s-.45-.63-.47-.86L14.3,39a7,7,0,0,1,.58,1.27,18.74,18.74,0,0,0,.9,1.72,9.46,9.46,0,0,0,1.76,2.34c.53.4.95-.49,1.1-.84.74-1.72-.29-3.25-.84-4.85-.73-2.12-1.67-4.2-2.22-6.38l-1.36,2.12c.61,1.19,1.1,2.43,1.68,3.63a4.3,4.3,0,0,0,1.89,2.2c.88.43,1.13-2,1-2.4a30,30,0,0,0-1.35-4.57c-.28-.73-.56-1.44-.81-2.17s-.63-1.22-.8-1.87l-1.22,2.3c.64.34.7,1.16,1,1.79a5.71,5.71,0,0,0,1.11,1.85c.8.79,1.27-1.62,1.27-2a13.27,13.27,0,0,0-1-3.84c-.52-1.53-1-3.07-1.45-4.6L14.29,27c1.24.83.89,3.52,2.45,4.06,1,.36,1.39-1.08,1.52-1.81a9,9,0,0,0,.09-2.07c0-.43-.38-1.32-.34-1.59l-1,1.31c.65.26.94,1.18,1.42,1.66.25.25.63,0,.78-.23a4.34,4.34,0,0,0,.65-2c0-.32.07-.64.1-1-.05.45.22-.82.05-.39l-.52.8c-.14.15.92,1.43,1.06,1.57s.6,0,.78-.23c.94-1,.93-2.88,1.2-4.12l-1,1.31c.42.2.43.72,1,.87.23.07.48-.17.6-.32a3.58,3.58,0,0,0,.68-1.69c0-.1.13-.58.06-.65-.05-.29-.18-.05-.39.7a4.31,4.31,0,0,1,.22.49c.35.88,1.12-.33,1.24-.65a12.51,12.51,0,0,0,.65-2l-1,1.32a.5.5,0,0,1,.48.26c.36.35.82-.23,1-.5s.35-1.4.69-1.65l-.59,0c.22.19.23.61.3.88.2.87.87.49,1.19-.06a.53.53,0,0,1,.35-.35l-.59,0c.22.18.28.69.4.94a.45.45,0,0,0,.72.16c.36-.32.52-.71,1.06-.51.3.12.59.61.81.85.67.73,1.67-2,1-2.75-1.13-1.23-1.75-1.41-3-.28l.72.15c-.23-.49-.22-.93-.67-1.31-.21-.16-.39-.08-.59,0a3.22,3.22,0,0,0-1.09,1.3l1.19-.06A2.94,2.94,0,0,0,27,17.74a.46.46,0,0,0-.59,0c-.93.7-.94,1.64-1.43,2.59l1-.5a1.08,1.08,0,0,0-.84-.45c-.62,0-.93.81-1,1.32A9.32,9.32,0,0,1,23.64,22l1.24-.66c-.39-.95-1.09-1.46-1.9-.56a3,3,0,0,0-.6,1.33,5.38,5.38,0,0,0-.12.7c0,.6-.31.46.22-.23l.6-.32c-.35-.1-.6-.7-1-.87-.55-.26-1,1.05-1,1.31-.12.53-.21,1.07-.32,1.6,0,.17-.07.33-.09.5-.07.49-.26.38.06,0l.78-.23c-.5-.52-.77-1.21-1.26-1.75a.37.37,0,0,0-.39-.08c-.92.28-1.2,1.28-1.35,2.14-.07.39-.07.53-.12.95-.07.6-.39,1.14.23.21l.78-.23c-.65-.65-.87-1.48-1.79-1.84-.55-.22-1,1-1,1.31a5.61,5.61,0,0,0,.05,2.16,3.59,3.59,0,0,1,.18,1.65l.72-.92c-.5.11-1.62-3.5-2.25-3.91-1-.65-1.39,1.76-1.22,2.3.44,1.38.86,2.77,1.3,4.16a13.15,13.15,0,0,1,1.09,3.64l1.27-2c-1-1-.78-2.94-2.08-3.64-1-.55-1.37,1.71-1.22,2.31a12.49,12.49,0,0,0,.72,1.68c.28.67.48,1.39.75,2.07a28.7,28.7,0,0,1,1.49,4.86l1-2.39c-.78-.39-1.17-1.46-1.49-2.21C16.47,34,16,33,15.49,32c-.28-.55-.77-.15-1,.18a2.55,2.55,0,0,0-.35,1.94c.43,1.73,1.16,3.36,1.75,5,.29.81.55,1.64.86,2.45.11.31.23.62.36.92l.12.26c.16.55.22.42.2-.38l1.1-.83a4.37,4.37,0,0,1-.8-1.1,13.6,13.6,0,0,1-1-1.55,11.94,11.94,0,0,0-1.39-2.68c-.72-.8-1.31,1.62-1.27,2a16.36,16.36,0,0,0,1.32,3.48c.25.72,1.08,2.07.91,2.83l1-1.32c-.5-.19-.79-1.22-1-1.67a8.73,8.73,0,0,0-1.21-2.3c-.38-.46-.92.43-1,.66a2.51,2.51,0,0,0-.09,1.9c.33.85.77,1.66,1,2.52.14.41.21.83.37,1.23a4.08,4.08,0,0,1,.35.74c0,.43,0,1.33.66,1.21s.87-1.23.89-1.7Z"/></g><g class="cls-1"><path class="cls-2" d="M20.76,50.65l.26.17a.45.45,0,0,0,.59,0,4,4,0,0,0,1-3.26c0-.36,0-.71-.06-1.07s0-.55-.05-.82.08-.8-.08-.26l-1.1.84c1.09.82,1.19,2.39,2.23,3.3a.4.4,0,0,0,.38.08c1.29-.46,1.25-2.62,1.24-3.72,0-.65-.05-1.31-.08-2,0-.27,0-.53,0-.8s0-.09,0-.1,0-.09,0-.14c-.05.26-.05.32,0,.18l-1.35,1c.3.43.46.93.75,1.37s.6,1,.9,1.44c.56.92,1.26-.57,1.35-1a8.15,8.15,0,0,0-.43-4c-.16-.55-.32-1.1-.5-1.63a5.9,5.9,0,0,0-.25-.63c-.11-.28-.18-.87-.19-.19L24.2,41.13c.6.15.71,1.2,1,1.66a1.1,1.1,0,0,0,.88.59c.63,0,.94-.82,1.08-1.32a5,5,0,0,0-.41-3.32c-.16-.41-.27-.81-.47-1.22s-.73-1-.74-1.48l-1.27,2A11.17,11.17,0,0,1,25,39.36a8.32,8.32,0,0,0,.88,1.23c.24.28.63,0,.78-.22a3.21,3.21,0,0,0,.63-2.26,13.71,13.71,0,0,0-.63-2,10.53,10.53,0,0,0-.78-1.9c-.26-.55-.33-1.1-.84-1.5-.86-.68-1.77,2.13-1,2.74.28.22.28.48.42.81s.39.7.55,1.07.21.78.33,1.16c.06.22.14.44.22.66l.11.27c.13.36.16.21.09-.46l.43-1-.12.14.78-.22c-.66-.78-.93-1.77-1.54-2.57-.27-.35-.75.17-.87.36a2.88,2.88,0,0,0-.4,1.62c0,1.11.69,1.85,1.11,2.83.14.33.26.68.39,1,.06.14.11.29.16.44.25.82-.18.08.45-.79l.6-.32c-.46,0-.54-.69-.7-1a1.89,1.89,0,0,0-1.18-1.22c-.71-.17-1.09,1.3-1.09,1.71a8.92,8.92,0,0,0,.69,2.73c.14.49.3,1,.44,1.47a4.27,4.27,0,0,1,.35,1.47l1.35-1c-.29-.49-.58-1-.89-1.44s-.46-.94-.76-1.37c-.61-.87-1.23.52-1.35,1a11,11,0,0,0-.05,2.87c0,.49.06,1,.06,1.48,0-.09,0,.37,0,.48s0,0,0-.06c.15-.27.2-.71.56-.83l.38.08c-1-.9-1.1-2.45-2.22-3.3-.51-.38-1,.46-1.11.83A8.92,8.92,0,0,0,21,47.39c0,.31,0,.62.05.92a2.33,2.33,0,0,0,0,.53c.08.25-.12-.29.39-.73l.59,0-.27-.18c-.95-.63-1.8,2.21-1,2.75Z"/></g><g class="cls-1"><path class="cls-2" d="M29.75,35.66a2.3,2.3,0,0,0,1.1.79c.33.1.67-.36.77-.6a3.12,3.12,0,0,0-.17-3.14c-.39-.63-.83-1.22-1.26-1.83l-.94,2.66a2.57,2.57,0,0,0,.4.08c.75.08,1-1.21,1.09-1.71a5,5,0,0,0-.65-2.51l-.23-.46c-.05-.1-.1-.2-.14-.3s0,0,0,.05c-.13-.36.21-.4,0,.84l-.25.72v0l-.37.47c-.26.22-.46.05-.25.13l.62-2.93a1.2,1.2,0,0,1,.16.32l.05.69a3,3,0,0,1-.11.52c.17-.58.14-.52-.1.18l.12-.22c.18-.3-.09.12,0-.05a1.88,1.88,0,0,0,.12-.18c.09-.17-.09.15-.13.12l.28-.05c.26,0,.54,0,.81,0,.62,0,.93-.8,1-1.31a2.62,2.62,0,0,0,0-1.08c0-.19-.18-.54-.42-.54a4.38,4.38,0,0,0-1.49,0,1.93,1.93,0,0,0-.95.94,5.33,5.33,0,0,0-.31.51,2.57,2.57,0,0,0-.2.45l-.11.38c.1-.35.08-.3,0,.16-.16.76-.2,1.71.64,2,.21.08.49-.18.59-.32a2.39,2.39,0,0,0,.44-1c.09-.51.17-1.37-.41-1.62a.55.55,0,0,0-.56.11,2.37,2.37,0,0,0-.7,1.64,3,3,0,0,0,.32,1.49c.1.23.22.45.33.68s.19.41.28.62,0-.15.05.13c0,.07,0,.13,0,.19a1.14,1.14,0,0,1,0-.37l1.09-1.71a1.89,1.89,0,0,1-.4-.08c-.44-.12-.82.63-.92.93a2.17,2.17,0,0,0,0,1.73c.34.49.71,1,1,1.46.1.17.21.32.31.49a3.3,3.3,0,0,1,.18.32c0,.11,0,.11,0,0,.08.33.09.09,0-.74l.25-.72,0,.06.77-.6a1.7,1.7,0,0,1-.74-.59c-.15-.19-.44-.08-.59,0a1.7,1.7,0,0,0-.51.8,2,2,0,0,0,.12,1.91Z"/></g><g class="cls-1"><path class="cls-2" d="M2.81,21.7a13.1,13.1,0,0,1,1.61-1.88A11.78,11.78,0,0,0,6.35,17.7,8.34,8.34,0,0,1,8,15.79a2.47,2.47,0,0,1,1.08-.52c.43-.06.84.06,1.28,0,.88-.2,1.21-2.27.6-2.83l-.34-.31c-.22-.24-.2-.12,0,.36l-.16,1.14c-.05.16.29-.42.36-.52s.31-.48.46-.72c.3-.52.51-1.08.76-1.63s.58-1,.86-1.52c.14-.24.2-.66.45-.64l0-2.62c-.41.57-1,1-1.39,1.58-.52.74-1.09,1.42-1.57,2.19a8,8,0,0,0-.61,1.11c0,.11-.21.56-.19.55-.29.22-1.52-.66-1.84-.84-1-.57-1.77,2.21-1,2.75.62.42,1.12.87,1.92.72s.89-1.53.89-2.06a5.56,5.56,0,0,0-.41-2L8.1,12.48c.55.66,1.55,1.78,2.51,1.62,1.51-.24,1.52-2.59,1.41-3.71A5,5,0,0,0,12,9.55c.33.24-.75.73-.21.95a.93.93,0,0,0,.44,0c.85-.16,1.24-1.3,1.33-2.05A4,4,0,0,0,13,6.06a5.23,5.23,0,0,1-.41-2.6c0-.5-.34-1.08-.88-.73S11,4.08,11,4.68a6.74,6.74,0,0,0,.91,4.13c.23.31-.07.75.35-.5.35-1,.45-.66,0-.75a1.19,1.19,0,0,0-.74.14,2.45,2.45,0,0,0-1,1.65,5.89,5.89,0,0,0-.1,1.78c0,.25.05.5.07.75,0,.07,0,.3,0,.35-.19-.25.61-.82.44-1.05,0,0-.31-.08-.38-.12a2.63,2.63,0,0,1-.61-.44,6.65,6.65,0,0,1-.87-.89c-.39-.45-.93.43-1,.67A2.46,2.46,0,0,0,8,12.3a2.27,2.27,0,0,1,.12.86L9,11.09c-.44.09-.82-.34-1.16-.56l-1,2.75c.65.36,1.51,1.1,2.28,1,.94-.07,1.39-1,1.7-1.78a9.07,9.07,0,0,1,1.39-2.2c.29-.36.53-.79.84-1.13a10.65,10.65,0,0,0,.94-1,2.71,2.71,0,0,0,.49-1.58c0-.27-.05-1-.46-1-.91,0-1.4.63-1.78,1.37-.48,1-1,1.87-1.47,2.85s-1.15,1.68-1.48,2.62A2.24,2.24,0,0,0,10,15.15l.61-2.83c-.47.1-.94-.05-1.41.06a3.87,3.87,0,0,0-1.06.52,8,8,0,0,0-2,2.08,11.09,11.09,0,0,1-1.93,2.23,14.29,14.29,0,0,0-1.91,2.2,2.51,2.51,0,0,0-.44,2.07c.17.58.62.7,1,.22Z"/></g><g class="cls-1"><path class="cls-2" d="M20.76,6.2l.09.11-.14-.19a1.9,1.9,0,0,1,.23.39s.08.19,0,0,0,0,0,0a1.8,1.8,0,0,1,.06.22c0,.06.06.35,0,.11s0,0,0,.11a2.45,2.45,0,0,1,0,.27v.1c0-.29,0,0,0,.1s0,.17,0,.26l0,.49c0,.42,0,.84,0,1.26a1.13,1.13,0,0,0,.29.76.44.44,0,0,0,.58,0,2.53,2.53,0,0,0,.69-1.95c0,.6,0,0,0-.18s0-.35,0-.53c0-.49,0-1,0-1.47a3.93,3.93,0,0,0-.87-2.58c-.16-.18-.43-.08-.59,0a1.7,1.7,0,0,0-.51.8,2,2,0,0,0,.12,1.92Z"/></g><g class="cls-1"><path class="cls-2" d="M25.5,5.7l.06.06-.14-.18a1.3,1.3,0,0,1,.14.26l-.1-.26a1.8,1.8,0,0,1,.1.4l0-.32a3.64,3.64,0,0,1,0,.57c0,.21,0-.44,0-.16v.16c0,.1,0,.2,0,.3,0,.47-.06.93-.07,1.4a1.13,1.13,0,0,0,.29.76.46.46,0,0,0,.59,0A2.51,2.51,0,0,0,27,6.71c0,.64,0,.15,0,0l0-.4c0-.41.05-.82.05-1.23A3.08,3.08,0,0,0,26.48,3c-.16-.18-.43-.09-.58,0a1.72,1.72,0,0,0-.52.8,2.85,2.85,0,0,0-.17,1.15,1.29,1.29,0,0,0,.29.77Z"/></g><g class="cls-1"><path class="cls-2" d="M29.51,6.25v0L29.47,6s0,.09,0,.13V5.74a.38.38,0,0,1,0,.1l.06-.4a.36.36,0,0,1,0,.1l.11-.39a.5.5,0,0,1-.05.13l.15-.34-.09.18.17-.28c-.07.11-.15.21-.22.31a4,4,0,0,0-.4.58,3.43,3.43,0,0,0-.39,1,2.71,2.71,0,0,0-.09.57,2.92,2.92,0,0,0,0,.59,1.13,1.13,0,0,0,.29.76.44.44,0,0,0,.58,0,1.77,1.77,0,0,0,.52-.8l.11-.39a3.21,3.21,0,0,0,.06-.76,1.11,1.11,0,0,1,0-.17V6.9s0-.09,0-.14l-.05.4a.43.43,0,0,1,0-.11l-.11.39c0-.05,0-.1.05-.15L30,7.63c0-.07.07-.14.11-.2L30,7.7a3.55,3.55,0,0,1,.23-.31,5.72,5.72,0,0,0,.39-.57,5,5,0,0,0,.22-.47A3.68,3.68,0,0,0,31,5.81a3.77,3.77,0,0,0,0-1.42c0-.2-.19-.49-.42-.54s-.47.16-.6.33a2.66,2.66,0,0,0-.44,2.07Z"/></g><g class="cls-1"><path class="cls-2" d="M18.69,13a2.89,2.89,0,0,0,1.39-.45,5.32,5.32,0,0,1,1.36-.4,22.74,22.74,0,0,1,2.76-.89A15.68,15.68,0,0,0,25.75,11a12.62,12.62,0,0,0,1.74-.28,8.25,8.25,0,0,1,1.34-.48,14.29,14.29,0,0,1,1.6,0c.62,0,.92-.8,1-1.31.06-.31.19-1.61-.41-1.62s-1.07-.06-1.61,0a3.83,3.83,0,0,0-1.4.37A5.93,5.93,0,0,1,26.42,8c-.54.07-1.06.25-1.59.32a5.88,5.88,0,0,0-1.44.25c-.46.17-.89.42-1.35.57a14.33,14.33,0,0,0-1.47.36c-.4.17-.81.54-1.26.56-1.1,0-1.51,3-.62,2.93Z"/></g><g class="cls-1"><path class="cls-2" d="M10.77,31.92a14.84,14.84,0,0,1,2.53,4.86A10.64,10.64,0,0,1,14,39.41a7.8,7.8,0,0,0,.65,2.37c.19.5.69.22.92,0A2.6,2.6,0,0,0,16.05,40a5.26,5.26,0,0,0-.47-1.6,12.4,12.4,0,0,1-.39-1.83c-.35-1.34-1-2.6-1.34-4s-.73-2.67-1-4a5.38,5.38,0,0,0-.46-1.51c-.23-.4-.77-.7-.84-1.16l-1,2.4a12.65,12.65,0,0,1,1.76,1.35,5.61,5.61,0,0,1,1.06.81,1.4,1.4,0,0,1,.26.85,14,14,0,0,0,.58,2.48,5.39,5.39,0,0,0,.36.86c.09.18.35,1,.36.52l.89-1.7c-.57.16-1.11-.35-1.59-.6a2.08,2.08,0,0,0-1.59-.28c-.9.21-1.19,2.24-.6,2.83.78.77,1.68,1.4,2.48,2.15a12.09,12.09,0,0,1,1,1.12c.26.3.69.51.91.8l-.14-1v.23l.49-1.39c0,.06-1.72-.16-2-.17a1.78,1.78,0,0,0-1.93,1.64c-.24,1.18.34,1.81,1,2.66A16.36,16.36,0,0,0,15,42.86c.23.24,1,.72,1.12,1l1-2.39A19.65,19.65,0,0,0,14.62,41c-1-.07-1.34,2-.95,2.66.82,1.3,2.31,2,3.08,3.32l0-1.73-.05.16.51-.8c-.18.16-.88,0-1.13,0a1.71,1.71,0,0,0-1.3.76A2.7,2.7,0,0,0,15,48.9c.71.72,1.7-2,1-2.75-.18-.28-.25-.3-.23,0l-.17,1.15c-.13.37.31.25.63.27a2,2,0,0,0,.87-.06,2.46,2.46,0,0,0,1.06-2.33c-.16-1.73-2.38-2.56-3.22-3.9L14,43.89a17.46,17.46,0,0,1,2.51.52c.93.19,1.23-1.83,1-2.4a4.54,4.54,0,0,0-1.46-1.77A13.24,13.24,0,0,1,15,39.07c-.17-.21-.72-.7-.78-1l-.12,1.46.06-.14-.52.81c.49-.34,1.88.1,2.49,0,1.15-.08,1.62-1.13,1.65-2.2s-1-1.8-1.75-2.62c-.92-1-2.12-1.79-3.1-2.77l-.6,2.83c1.15-.28,1.93,1.23,3.18.88.59-.16.87-1.19.88-1.7a5.31,5.31,0,0,0-.71-2.54A15,15,0,0,1,15,29.06a3.14,3.14,0,0,0-1.51-1.95,18,18,0,0,0-2.36-1.72c-.36-.18-.76.58-.85.77A2.76,2.76,0,0,0,10,27.79a2.07,2.07,0,0,0,.52,1.12,2.83,2.83,0,0,1,.75,1.39c.29,1.28.7,2.52,1,3.79a32.76,32.76,0,0,0,1.19,3.63,12.49,12.49,0,0,1,.44,1.88,16,16,0,0,1,.55,1.6l1.41-1.79a4.18,4.18,0,0,1-.35-1.16,9.22,9.22,0,0,0-.21-1.49A25,25,0,0,0,14.42,34a15.49,15.49,0,0,0-2.67-4.82c-.43-.5-1,.55-1.1.84a2,2,0,0,0,.12,1.91Z"/></g><g class="cls-1"><path class="cls-2" d="M12.87,30.73c.32.55.68,1.06,1,1.6.15.26.3.52.43.8s.09.24.14.39,0,.26.05.1L16,32.45c-.12-.59-.29-1.16-.45-1.74a17.86,17.86,0,0,1-.35-1.77A23.06,23.06,0,0,1,15,25.52l-1.41,1.79c.88,2,1.55,4.14,2.53,6.11.22.46.67.27.92,0a2.78,2.78,0,0,0,.49-1.75A6.34,6.34,0,0,0,17.22,30c-.16-.59-.24-1.18-.37-1.77s-.23-.9-.32-1.35a3.38,3.38,0,0,1-.09-.54c0-.06,0-.1,0-.14s0-.11,0,.08,0,.22,0,0l-1.24.65c0-.05,0,.26,0,.33a2.31,2.31,0,0,0,.2.77,4.27,4.27,0,0,0,.61.79c.28.34.74-.17.87-.36a2.8,2.8,0,0,0,.4-1.62,13.32,13.32,0,0,1,0-2.67c-.05.25.09-.18.1-.23a5.31,5.31,0,0,0,.24-.89,5.62,5.62,0,0,0,.1-.7c0-.55-.43.5-.19.55a2.77,2.77,0,0,1,.72.2,3.43,3.43,0,0,0,1,.44c.9.16,1.78-.37,2.65-.51s1.35-3.09.22-2.91c-.56.09-1.08.31-1.63.44a1.65,1.65,0,0,1-1.26-.21,2.12,2.12,0,0,0-1.18-.4,1.77,1.77,0,0,0-1.32.93,4.73,4.73,0,0,0-.57,1.95c0,.28.07-.1-.06.2a4.89,4.89,0,0,0-.28.92A17.11,17.11,0,0,0,15.74,28l1.27-2c-.07-.09-.16-.17-.23-.26s0,.38,0-.14a3.12,3.12,0,0,0-.31-1.12c-.43-.81-1.08.28-1.24.66a6.23,6.23,0,0,0,0,4c.16.6.27,1.2.39,1.81A9.58,9.58,0,0,1,16,32.84L17.4,31c-1-2-1.64-4.08-2.52-6.1-.21-.47-.69-.25-.92,0a2.62,2.62,0,0,0-.49,1.75,23.44,23.44,0,0,0,.23,3.84c.12.6.16,1.2.32,1.78s.39,1.29.52,2c.09.43.44.68.82.41a2.2,2.2,0,0,0,.69-1.58c.05-1.91-1-3.23-1.91-4.78-.34-.58-.88-.1-1.1.31a2.41,2.41,0,0,0-.17,2.06Z"/></g><g class="cls-1"><path class="cls-2" d="M17.26,63.63a1.56,1.56,0,0,0,2.58-.78,3.72,3.72,0,0,0,.15-2c-.13-.74-.67-1.43-.69-2.17l-1.09,2.07c1,.13,2,1.24,3,.45a3.31,3.31,0,0,0,.9-2.22A6.07,6.07,0,0,0,22,57.5c0-.21-.09-.41-.13-.62s0-.65-.09-.33l-1,1.32c1.14.48,1.46,1.58,2.89,1.32.46-.08.77-.92.83-1.3a7.62,7.62,0,0,0-.05-2.61c0-.18-.07-.35-.1-.53,0-.67-.27-.37-.76.9a2.82,2.82,0,0,0,.42.23c.68.42,1.35,1,2.12.39.94-.75,1.05-2.27,1-3.37A4.16,4.16,0,0,0,27,51.53a1.24,1.24,0,0,1-.59,1,3.09,3.09,0,0,1,.54.17l1.23.43a.49.49,0,0,0,.41-.13,3.91,3.91,0,0,0,.89-3.57c-.18-.77-.75.67-.49,1a2.4,2.4,0,0,0,.61.43,1.17,1.17,0,0,0,1.1.12c1-.44,1.14-1.92,1.11-2.84a12.9,12.9,0,0,0-.2-1.52l-.09-.5c0-.23.05-.5-.05-.16l-1,1.32c.5.19,1,.53,1.48.25.71-.37,1-1.41,1.09-2.13a5.2,5.2,0,0,0-.55-3.78c-.41-.53-1,.58-1.1.83a2,2,0,0,0,.11,1.91c.08.11,0,.72.05,1s0,.25.21-.24c.33-.29.36-.44.07-.46-.1-.13-.57-.25-.73-.32-.58-.22-.95,1-1,1.32a6.06,6.06,0,0,0,.07,2.61,5.13,5.13,0,0,0,.14.9,2.87,2.87,0,0,0,.48-1,.5.5,0,0,1-.23-.09,2.77,2.77,0,0,0-.45-.31c-.77-.5-1.33-.22-1.73.6a4.24,4.24,0,0,0-.42,1.89c0,.18,0,.35,0,.52l0,.35c0,.6.16.34.43-.79l.41-.13c-.59-.2-1.52-.75-2.16-.59s-1,1.1-1.12,1.7a7.16,7.16,0,0,0-.06,1.85,3.82,3.82,0,0,0,.05.83c.16.48.16-.49.21-.41-.05-.08-.44-.21-.53-.27s-.36-.26-.55-.37a.92.92,0,0,0-1.09-.08,2.76,2.76,0,0,0-.85,2,5.72,5.72,0,0,0,0,1.24A6.11,6.11,0,0,1,23,57.58l.83-1.3c-.95.17-1.66-1-2.49-1.35-.54-.23-1,1-1,1.31a6.53,6.53,0,0,0,0,1.87,3,3,0,0,0,.15.79q0,.63.3,0c.31-.24.35-.36.12-.35a5.54,5.54,0,0,0-.95-.34,3.86,3.86,0,0,0-1.05-.37c-.88-.12-1.1,1.51-1.09,2.07a5.54,5.54,0,0,0,.53,2,2.26,2.26,0,0,1,.17.43c.16.59.32.2.5-1.14-.22-.13-.47,0-.7-.24-.76-.72-1.72,2-1,2.74Z"/></g><g class="cls-1"><path class="cls-2" d="M21.51,47.15a3.78,3.78,0,0,0,1.15,1c.54.25,1-1,1-1.32a7.87,7.87,0,0,0-.13-3.38c-.23-.94-.59-1.83-.81-2.77L21.53,43a4.82,4.82,0,0,1,.95,1.11,14.66,14.66,0,0,1,.9,1.28c.45.72,1.31,1.64,2.07.69A3.27,3.27,0,0,0,26,43.52c-.12-.51-.45-.91-.61-1.4a7.92,7.92,0,0,0-.65-1.76c-.13-.22-.28-.43-.42-.65a2.27,2.27,0,0,0-.19-.34c-.1-.13-.05-.38-.06.11L22.78,41.1c.65.65.9,1.74,1.87,2,.58.18,1-1,1-1.31a6.38,6.38,0,0,0-.52-3.75c-.18-.45-.38-.88-.56-1.32-.09-.24-.18-.47-.25-.71a1.53,1.53,0,0,1-.08-.5c0-.41,0-1.37-.66-1.22s-.84,1.2-.89,1.7a7.15,7.15,0,0,0,.77,3.48c.16.38.34.75.48,1.14a5.36,5.36,0,0,1,.23.78c0,.18,0,.41,0,.09l1-1.31c-.31-.1-.53-.51-.71-.77a6.49,6.49,0,0,0-.8-1.09c-.68-.68-1.26,1.26-1.26,1.62a3.59,3.59,0,0,0,.31,1.71c.2.42.49.78.72,1.18A8.36,8.36,0,0,1,24,44.27a9.29,9.29,0,0,1,.52,1.17l-.05-.69.09-.41.33-.61.34-.18h-.08s-.08-.06-.08-.06-.24-.21-.34-.33-.38-.63-.59-.92-.55-.69-.81-1a3.75,3.75,0,0,0-.82-1c-.41-.28-.78.17-1,.5a2.69,2.69,0,0,0-.26,1.8c.17.76.44,1.49.66,2.23a5.28,5.28,0,0,1,.29,1.76l1-1.32c-.32-.15-.56-.55-.79-.8-.45-.48-1,.54-1.1.84a2,2,0,0,0,.12,1.91Z"/></g><g class="cls-3"><path class="cls-4" d="M1.45,24A11.19,11.19,0,0,0,1,25.46l1.35-1-.1-.24.09,1.35A5.66,5.66,0,0,0,2.45,25c.22-.94-.38-2.39-1.18-1l-.2.34a2.38,2.38,0,0,0-.21,1.93c.22.46.62.55,1,.09.19-.27.63-1,.65-1l-.87-.74v.27l.32-1.48c-.08.15-.15.3-.22.44-.23.46-.64,2.93.55,2.22.79-.47,1.12-1.42,1.84-2a2.28,2.28,0,0,0,.68-1.77c0-.27-.14-1.31-.66-1a2,2,0,0,1-.59.27l.6,1.61.05-.23-.43,1a8.55,8.55,0,0,1,1.8-1.49,10,10,0,0,1,1.38-.51A6.43,6.43,0,0,1,8,21.43c.93-.18,1.4-3,.22-2.91a6.64,6.64,0,0,1-1.7.24l.16,2.34c.2-.41.82-.71,1.16-1s1.28-2.79.22-2.81a1.41,1.41,0,0,0-.76.13c-.79.34-1.43,3.13-.22,2.91a8.63,8.63,0,0,1,2-.46,6.51,6.51,0,0,0,2.33-.13c.7-.26,1.41-3,.42-2.92s-1.81,0-2.71,0l-.42,2.92c1.35-.1,2.62-1,3.87-1.52a1.74,1.74,0,0,0,.83-1.3c.12-.86.19-1.69-.74-2.05l.41,1.62c-.06.3.52-.63.57-.72.17-.33.29-.68.49-1,.46-.74.91-1.5,1.38-2.24,1-1.55,2.6-2.14,2.47-4.24,0-.25-.11-.84-.47-.86-1.07-.07-1.92.82-2.62,1.54a27.34,27.34,0,0,0-2.49,3.19,6.83,6.83,0,0,0-1.09,3.18A4.61,4.61,0,0,0,11.44,18a.45.45,0,0,0,.72.16c.85-.67,1-1.72,1.66-2.52l-1.07-.54c0-.37.07-.32-.08,0a8.75,8.75,0,0,0-.27.87c-.2.58-.42,1.13-.58,1.72-.11.39-.16,1.79.61,1.61a4.28,4.28,0,0,0,1.5-.66,2.08,2.08,0,0,0,.57-.71,2.7,2.7,0,0,0,.26-.72q.08-.77.06-.06c-.1.31,0,.43.29.35a1.46,1.46,0,0,0,.58.11,8.54,8.54,0,0,0,1.24.12,4.06,4.06,0,0,0,2-.63c.74-.41.8-1.85.54-2.53s-.8-.49-1.3-.41a17.24,17.24,0,0,1-2.28.19l-.62,2.93a9.61,9.61,0,0,0,4-1A4.37,4.37,0,0,1,21,15.57a13.42,13.42,0,0,1,1.91-.12,21,21,0,0,0,4.6-.64c1.41-.32,2.87-.51,4.26-.86.75-.2,1.37-2.42.6-2.83a8.83,8.83,0,0,0-5.28-.59,15.25,15.25,0,0,0-3.07.73,14.57,14.57,0,0,0-2.49.92c-.78.5-.95,3.41.19,2.69A12,12,0,0,1,24,14.1a17.72,17.72,0,0,1,2.5-.56,8.24,8.24,0,0,1,4.94.32L32,11c-1.32.34-2.7.51-4,.81a20,20,0,0,1-4.79.67,6.68,6.68,0,0,0-3.14.44,9.94,9.94,0,0,1-4.18,1.38c-1.1,0-1.52,3-.62,2.93.11,0,3-.06,2.93-.33l.54-2.53a3.64,3.64,0,0,1-2.41.26,2.62,2.62,0,0,0-1.85.07,3.26,3.26,0,0,0-1.12,2c-.27,1.09.83-.69.26-.67-.33,0-.64.27-.95.35L13.26,18c.35-1.26,1.16-2.68,1.05-4.13-.05-.65-.53-1.21-1.06-.53s-.64,1.61-1.28,2.12l.73.16c.24.51,0,.14.1-.16a10.22,10.22,0,0,0,.3-1.54l-.43,1c.56-.78,1.1-1.59,1.68-2.34s1.64-2.24,2.56-2.18l-.47-.86,0,.22.31-1.48c-.35.63-1.24,1.19-1.69,1.81s-.76,1.33-1.18,2-.78,1.31-1.17,2a6.74,6.74,0,0,0-1.08,2.16c-.1.48-.17,1.4.41,1.62l.18.12L12,16.41l0,.2.83-1.3c-1.24.47-2.53,1.42-3.88,1.52-.87.06-1.31,2.91-.42,2.92s1.81,0,2.72,0l.42-2.92a9.66,9.66,0,0,1-2.58.08,16.66,16.66,0,0,0-1.76.51l-.22,2.91.35-.1.22-2.81a6.63,6.63,0,0,0-1.9,1.94c-.25.51-.7,2.09.15,2.34.58.17,1.51-.21,2.1-.26l.22-2.91a13.21,13.21,0,0,0-1.61.69,5.6,5.6,0,0,0-1.85,1,4.46,4.46,0,0,0-2.06,2.63c-.09.41-.18,1.76.61,1.6a1.84,1.84,0,0,0,.59-.27v-2.8c-.71.54-1.1,1.53-1.83,2l.55,2.22a4.11,4.11,0,0,0,.53-2.19c0-.48-.33-1.13-.87-.74a5.38,5.38,0,0,0-1,1.36L2,26l.2-.34L1,24.67a3.12,3.12,0,0,0,.05,2.13c.43,1,1.27-.71,1.35-1a4.26,4.26,0,0,1,.25-.71c.19-.46.39-1.57-.11-1.92s-.95.46-1.11.84Z"/></g><g class="cls-3"><path class="cls-4" d="M37.13,19.31c-1.57,0-2.89,1.22-4.29,1.78-.7.27-1.37.59-2.1.8a28.2,28.2,0,0,0-2.94,1.39c-.72.31-1.49.5-2.22.77A17.49,17.49,0,0,0,23,25.46a10.26,10.26,0,0,0-4,3.17,11,11,0,0,0-1.16,4.83,19.43,19.43,0,0,0,.05,2.75c.09,1.12.12,1.61.22,2.53a9.11,9.11,0,0,1,.19,2.15A21,21,0,0,0,18,44.16c0,.53-.11,1.65.54,1.88s1.27-.64,1.5-1.1a10.81,10.81,0,0,0,.74-3.32A8.25,8.25,0,0,0,21,40a6.41,6.41,0,0,1,.23-1.5c.39-2,.93-4.23.46-6.3-.25-1.11-1.12-.18-1.34.4a34.25,34.25,0,0,0-1.47,5.17l1.21-1.23c.67.54.09,1.08.26.4a4.85,4.85,0,0,0,.09-.55c.07-.42.14-.84.23-1.26.14-.71.34-1.4.53-2.09a8.64,8.64,0,0,1,.88-2.53l-1-1.3a48.76,48.76,0,0,1-1.72,5.16l1.39.3a13.46,13.46,0,0,1,.1-2.29,8.1,8.1,0,0,1,.31-1c0-.13.41-.93.18-.51l-1.19-1-.05.28.44-1a18,18,0,0,0-1.89,3.24l1.07,1.41a8.75,8.75,0,0,1,2.39-3.31,6.65,6.65,0,0,1,1.59-.62,8.2,8.2,0,0,0,1.92-1l-.82-1.5c.16-.76-.37.23-.51.48a9.73,9.73,0,0,0-.63,1.35,4.8,4.8,0,0,0-.06,2.63A1.49,1.49,0,0,0,24.84,33c.61.19,2.42.7,2.61,1.42l1-2.39a3.06,3.06,0,0,1-1.86-2.47l-.31,1.11c.93-1.93,2.75-3.31,1.8-5.68a.45.45,0,0,0-.52-.26c-1.06.19-1.72,1.49-2.05,2.39a11.22,11.22,0,0,0-.49,4.19c0,.54.32,1,.87.74s.69-1.39.68-1.95-.2-2.28.77-2.46l-.52-.27c.22-.9.19-1.09-.07-.55l-.43.6c-.27.4-.58.78-.82,1.19a3.92,3.92,0,0,0-.44,2.62c.25,1.45,1.26,3.29,2.77,3.73.93.27,1.17-1.88,1-2.4-.39-1.46-2.06-2-3.33-2.47a2.34,2.34,0,0,0-.45-.07.25.25,0,0,1-.13-.28v-.11c-.13.57-.09.61.11.1a5.44,5.44,0,0,0,1.1-2.1c.09-.42.06-2.17-.81-1.5-1.22.95-3,.89-4,2.09a14.59,14.59,0,0,0-2.91,4.48c-.15.47-.37,1.4.05,1.82s.79,0,1-.41c.4-.69.66-1.46,1.08-2.14a4.44,4.44,0,0,0,.94-1.83c.16-.89-.4-2.46-1.18-1a12.53,12.53,0,0,0-1.21,6c0,1.26,1,1.66,1.38.3a55.46,55.46,0,0,0,1.94-5.93c.11-.58-.2-2.42-1-1.3-1.34,1.86-1.88,4.59-2.32,6.8-.18.93-1,3.54-.08,4.27.63.51,1.13-.84,1.21-1.22a28.29,28.29,0,0,1,1.26-4.4L20.22,34a7.08,7.08,0,0,1,0,1.3c0,.12-.05,1.43,0,.88-.12.81-.4,1.66-.59,2.46a23.55,23.55,0,0,0-.27,2.65,6.29,6.29,0,0,0-.21,1.55c-.07.42-.08.54,0,.35q.33-.34.06-.12l.41.54a8.32,8.32,0,0,1,.1-2.44,10.75,10.75,0,0,0,.14-2.12c-.08-1.23-.28-2.46-.38-3.69-.06-.77-.11-1.52-.1-2.29,0,.79.06-.29.08-.49a8.13,8.13,0,0,0,.12-1.21c0-.71-.31.87.06-.12a2.74,2.74,0,0,1,.39-.89A5.23,5.23,0,0,1,21.68,29a24.83,24.83,0,0,1,3.68-2c.61-.23,1.23-.41,1.85-.62a12.72,12.72,0,0,0,2-1.06c1.16-.61,2.54-.89,3.74-1.38s2.28-1.65,3.51-1.66,1.54-2.94.63-2.93Z"/></g><g id="Hf9ISw.tif"><path d="M21.38,32.42c-.38-.19-.47-.5-.17-.8a2,2,0,0,0,.55-1s0-.11,0-.12c.27-.1.26-.31.34-.54a2.31,2.31,0,0,1,.58-.93,4,4,0,0,0,.49-.52c.28-.35.58-.15.79,0s0,.39-.11.57A.91.91,0,0,0,24,30.33c.12.15.29.26.36.46s.18.19-.07.3,0,.34.1.37a1.12,1.12,0,0,1,.71,1c0,.22.35.37.58.49a11.5,11.5,0,0,0,1.35.59,2.4,2.4,0,0,1,.95.74s.08.1.07.11c-.32.49.28.57.39.86,0,.12.26.18.4.14s.09-.22.09-.35a5.54,5.54,0,0,0,0-1.77,1.54,1.54,0,0,0-.37-.72,2.25,2.25,0,0,1-.59-1.06c0-.08,0-.14-.11-.18s-.25-.28,0-.49.17-.39-.17-.33-.21-.07-.23-.21,0-.28-.11-.33c-.27-.1-.28-.22-.08-.4a.2.2,0,0,0,.07-.24c-.07-.14-.19-.06-.28,0-.28.12-.39,0-.35-.26a3.92,3.92,0,0,1,.71-1.77c.05-.07.16-.14.16-.21,0-.76.55-1,1.13-1.15.05,0,.12,0,.13,0,.23-.71,1-.73,1.49-1.18a3,3,0,0,1,2-1.14.32.32,0,0,0,.17-.06c.53-.41,1-.2,1.45.15a.63.63,0,0,1,.24.55.7.7,0,0,0,.26.59A2.15,2.15,0,0,1,35,25.93c.08.28.32.62.3.8a2.54,2.54,0,0,0,.36,1.36,2,2,0,0,1,.23,1.09c-.1.74,0,1.5-.07,2.24,0,.52.33.84.4,1.29a7.71,7.71,0,0,1,.2.86,4.56,4.56,0,0,0,.65,1.58c.09.2.23.35.08.6a.3.3,0,0,0,.21.46c.55.14.54.6.51,1a2.51,2.51,0,0,0,.16.84,1.62,1.62,0,0,0,.35.92.27.27,0,0,1,.07.16c-.38.35-.08.62.09.93a.29.29,0,0,1-.06.33.32.32,0,0,0,0,.42,1.29,1.29,0,0,1,0,1.39c0,.09-.12.18,0,.25.39.36.2.74.09,1.14-.19.71-.26,1.46-.51,2.14a8,8,0,0,1-.79,2.13c-.16.22.1.41,0,.68-.27.53-.27,1.16-.54,1.71-.65,1.27-.92,2.71-1.79,3.88-.37.49-.85.93-1.18,1.43A19.25,19.25,0,0,1,32,57.37a12.52,12.52,0,0,1-1.9,1.73c-.56.42-1.14.79-1.7,1.19-.72.52-1.41,1.09-2.16,1.57a9.08,9.08,0,0,1-1.39,1c-.61.25-1.2.56-1.83.78a16.43,16.43,0,0,0-2.06,1,8.74,8.74,0,0,1-2.28,1c-.45.09-.84.42-1.32.51-.32,0-.41-.09-.4-.39a1.1,1.1,0,0,0-.4-.81,9.69,9.69,0,0,1-1.86-1.76c-.12-.2-.45-.09-.53-.29-.25-.57-.91-.78-1.15-1.37-.09-.21-.27-.38-.2-.65a.15.15,0,0,0,0-.13c-.45-.4-.36-1.1-.84-1.49-.1-.09-.13-.27-.19-.4a1.87,1.87,0,0,0-.91-1.06c-.19-.08-.18-.3-.21-.47s0-.58-.42-.63c-.16,0-.14-.24-.2-.37a4.54,4.54,0,0,0-.61-1.07c-.4-.46-.43-1.17-1-1.46a.29.29,0,0,1-.18-.24,1,1,0,0,0-.57-.84.59.59,0,0,1-.31-.65c.07-.5-.36-.72-.5-1.09s-.73-.88-.46-1.52a.17.17,0,0,0,0-.16c-.58-.38-.56-1.06-.75-1.61s-.34-1.28-.6-1.9a.48.48,0,0,1,0-.42c.11-.2.05-.46-.18-.44-.52,0-.52-.34-.62-.63a1.65,1.65,0,0,0-.32-.7.61.61,0,0,1-.12-.71.52.52,0,0,0-.19-.7c-.53-.28-.4-.8-.47-1.21A2,2,0,0,0,3,40.46a3,3,0,0,1-.16-.36,1.89,1.89,0,0,0-.5-1,1.34,1.34,0,0,1-.47-1.53.23.23,0,0,0-.07-.2c-.2-.16-.38-.32-.21-.61a.07.07,0,0,0,0-.09c-.8-.49-.23-1.53-.83-2.11,0,0,0-.1,0-.12.5-.56-.2-1-.1-1.61.05-.27-.17-.59,0-.91a.43.43,0,0,0-.07-.42.46.46,0,0,1-.1-.32A3,3,0,0,0,0,29.74a.56.56,0,0,1,0-.51,6.19,6.19,0,0,0,.75-1.5,2.26,2.26,0,0,1,.6-.7c.08-.06.19-.11.21-.22.17-.81.93-1.14,1.38-1.73a3.39,3.39,0,0,1,.76-.8,14.17,14.17,0,0,1,1.93-1.43s0,0,0,0c.42-.77,1.26-1.06,1.84-1.65a3.16,3.16,0,0,1,1.17-.76,2.08,2.08,0,0,0,1-.74,1.06,1.06,0,0,1,.64-.38c.74-.14,1.4-.52,2.1-.71a3.14,3.14,0,0,0,1.11-.6,3.29,3.29,0,0,1,1.8-.46c.21,0,.31-.16.49-.19a14.82,14.82,0,0,0,2-.62c.53-.16,1.06-.43,1.61-.57A8.12,8.12,0,0,1,21,16a2.29,2.29,0,0,0,1.08-.47,1,1,0,0,1,.92-.17c.38.13.7-.27,1.1-.18.06,0,.15-.05.21,0,.65.28,1.14-.24,1.7-.33s.76-.54,1.26-.23c.15.1.3-.08.44-.13a2.83,2.83,0,0,1,1.35-.1c.61.12,1.13-.27,1.73-.22a7.86,7.86,0,0,0,1.86-.21,17,17,0,0,1,2.78-.33,12,12,0,0,0,1.65-.2c.6-.09,1.19-.25,1.79-.3.23,0,.68-.1.62.43,0,0,.06.06.09.06.35,0,.59.09.6.54,0,.28.33.53.19.86s0,.32.09.47c.19.57.51,1.13.12,1.75-.09.15.2.23.15.39A6.14,6.14,0,0,1,40,19.43c-.33.46-.88.44-1.35.56a7.63,7.63,0,0,0-2.87.89,2.73,2.73,0,0,1-.95.26c-1.62.43-3.14,1.12-4.71,1.68-1.27.46-2.55.87-3.79,1.4-.6.26-1.21.46-1.82.69-.41.16-.79.4-1.19.6a.88.88,0,0,1-.28.13,2.13,2.13,0,0,0-1.47.77,8.73,8.73,0,0,0-1.31,1.34c-.14.24-.41.14-.59.31s-.26.22-.24.39a.75.75,0,0,1-.23.61,4.39,4.39,0,0,0-.88,1.83c-.12.36,0,.78-.16,1.15-.07.19,0,.42-.17.58s-.07.19,0,.2c.3,0,.16.28.23.42.33.64.19,1.39.52,2,.11.21.34.33.33.62s0,.32-.08.47-.12.18,0,.24c.39.32.18.85.46,1.21.15.19,0,.37,0,.56.13,1,0,1.94.05,2.91a.74.74,0,0,1,0,.39,2.33,2.33,0,0,0-.14,1.58c.08.27-.41.27-.21.55a.92.92,0,0,1,.26.61c0,.16,0,.33,0,.49s-.09.43.1.49a.62.62,0,0,0,.57-.26,1,1,0,0,0,.24-.69c-.05-.49.09-1,0-1.47,0-.19.34-.32.13-.57-.45-.56.17-1.07.07-1.59a15.43,15.43,0,0,1,0-2.15,4.86,4.86,0,0,1,.15-1.77c.07-.25-.1-.58.25-.74.06,0,0-.13,0-.14-.41-.14-.23-.43-.16-.68a1.51,1.51,0,0,0,0-.3,1.58,1.58,0,0,1,.09-.62A1.38,1.38,0,0,0,21,33.09C20.87,32.91,21.18,32.62,21.38,32.42Zm18-17.28a.83.83,0,0,1,.45-.68c-.27,0-.59-.17-.75.06s.19.4.31.61a5,5,0,0,0-.1,1.4,15,15,0,0,1-.12,1.88c0,.3.16.38.33.46s.2-.15.26-.26a2.53,2.53,0,0,0,.19-.45,5.59,5.59,0,0,0,0-2.08A1,1,0,0,0,39.33,15.14ZM18.93,49.66c-.15-.1,0-.27-.17-.3s-.2.09-.25.2a.58.58,0,0,1-.6.37.35.35,0,0,1-.32-.26c-.05-.1,0-.26.1-.27.47,0,.44-.35.34-.67,0-.12,0-.15.09-.22.25-.36.57-.69.39-1.19a.29.29,0,0,1,.07-.29.67.67,0,0,0,.08-.67,4.8,4.8,0,0,0-.39-1.52.53.53,0,0,1,0-.52.7.7,0,0,0,0-.38c0-.37,0-.75-.05-1.12s.17-.48.24-.73A4.6,4.6,0,0,1,18.66,41a.44.44,0,0,0,0-.39,3.84,3.84,0,0,1-.21-2.06c0-.1,0-.14-.11-.16-.29-.11-.26-.36-.26-.6s.18-.59.06-.86-.31-.64-.45-1-.18-.59.1-.87.15-.29-.13-.35-.4,0-.41-.27a5.31,5.31,0,0,1-.08-1.38c.09-.36-.22-.68-.16-1a8.21,8.21,0,0,1,.5-1.57,4.78,4.78,0,0,1,.8-1.69.3.3,0,0,0,0-.41.17.17,0,0,1,0-.24,5.49,5.49,0,0,1,1.36-1.36,7.06,7.06,0,0,1,1.74-1c.06,0,.23-.11.2-.24-.08-.29.17-.37.32-.38.64-.05,1.08-.55,1.69-.69s.86-.48,1.39-.53a2,2,0,0,0,.94-.3A4.85,4.85,0,0,1,27.57,23c.23-.06.57,0,.71-.29a.78.78,0,0,1,.7-.42c.63,0,1.12-.5,1.76-.51a.88.88,0,0,0,.54-.15,4.66,4.66,0,0,1,1.37-.56c.69-.31,1.51-.3,2.13-.82,0,0,0,0,.08,0a25.28,25.28,0,0,0,2.92-1.15.57.57,0,0,0,.35-.78c-.06-.2-.11-.45,0-.56.32-.3.44-.52,0-.75,0,0,0-.09,0-.13.18-.47-.08-1,.08-1.46a2.72,2.72,0,0,0,0-1.33.21.21,0,0,0-.24-.2c-.62,0-1.24.07-1.86.14a6.65,6.65,0,0,1-2.22.19.39.39,0,0,0-.38.1,1.48,1.48,0,0,1-1.15.35c-1.27.08-2.5.4-3.78.38a9.26,9.26,0,0,0-2.06.4,10.41,10.41,0,0,1-1.78.36,12.34,12.34,0,0,0-3.26.66,4.34,4.34,0,0,1-1.36.35,4.84,4.84,0,0,0-1.49.34,17.52,17.52,0,0,0-1.69.55l-2,.64a13.57,13.57,0,0,1-1.27.62c-.22.05-.43-.11-.6,0-.48.35-1.11.44-1.53.89-.13.13-.34.35-.48.27-.35-.21-.59.06-.74.21a3,3,0,0,1-1,.57A11,11,0,0,0,6.39,23c-.92.83-2,1.51-2.82,2.43A11.15,11.15,0,0,0,2.15,27c-.19.31-.18.72-.45.94a.64.64,0,0,0-.23.82c.06.22,0,.49.25.65.08,0,0,.18-.08.21-.49.19-.44.62-.46,1,0,1,.34,1.85.33,2.8,0,.21-.22.42-.05.59.57.61.15,1.6.86,2.14.05.7.42,1.32.5,2,0,.2,0,.42.29.44.07,0,.16.09,0,.18s-.1.25.06.31c.53.23.42.85.76,1.19v0c0,.45.46.83.22,1.32,0,0,0,.05.05.08a10.16,10.16,0,0,1,1,2c.16.34,0,.79.4,1s.51.74.57,1.2c0,.07,0,.18,0,.21.46.42.09,1.07.5,1.58s.24,1.41.69,2a.39.39,0,0,1,0,.39.33.33,0,0,0,.08.39c.35.43.79.82.72,1.47,0,.07.07.16.13.22a16.63,16.63,0,0,1,1.07,1.29,19.71,19.71,0,0,0,1.11,1.74.11.11,0,0,1,0,.08c-.26.24,0,.29.14.41a1.77,1.77,0,0,1,.51.61,6.16,6.16,0,0,0,1.29,2,3.54,3.54,0,0,1,.9,1.2c.06.13.15.24,0,.36s-.15.35.14.42a.36.36,0,0,1,.25.24c.05.39.4.56.57.86.53.89,1.46,1.37,2.09,2.16.22.28.44.43.39.82s.37.42.42.38c.26-.27.48,0,.7,0a1.83,1.83,0,0,0,.66,0,6.79,6.79,0,0,0,1.77-.72,9.71,9.71,0,0,0,1.15-.61,3,3,0,0,1,1.29-.68c.49-.06.77-.69,1.35-.49.08,0,.13,0,.15-.12s.17-.17.3-.23a3.84,3.84,0,0,0,.85-.45,16.19,16.19,0,0,1,2.31-1.65c.25-.13.52-.51.63-.46.39.18.38-.16.53-.3s.59-.4.75-.68a1.86,1.86,0,0,1,.74-.67,2.83,2.83,0,0,0,1.21-1.16.93.93,0,0,1,.42-.39c.38-.16.83-.21.71-.8,0,0,.07-.09.12-.12.57-.49.82-1.24,1.41-1.71a.46.46,0,0,0,.14-.23,11.75,11.75,0,0,1,.75-1.85c.21-.7.59-1.35.78-2.07a4.44,4.44,0,0,1,.6-1.57,3.42,3.42,0,0,0,.56-1.81,2.36,2.36,0,0,1,.41-1.46,1.19,1.19,0,0,0,.19-1c0-.08-.07-.18,0-.25a1.89,1.89,0,0,0,0-1.08c0-.32.38-.67-.07-1-.08-.06,0-.19.09-.28a1.2,1.2,0,0,0,0-1.15,6.47,6.47,0,0,1-.5-1.68c-.06-.39-.33-.76-.1-1.23a.53.53,0,0,0-.57-.69.27.27,0,0,1-.26-.2c-.2-.43-.28-.91-.44-1.35-.06-.17-.23-.35-.18-.5s.29-.54-.24-.45c-.07,0-.1-.06-.1-.12A3.62,3.62,0,0,0,35,32.49,4.15,4.15,0,0,1,34.86,31c0-.46-.29-1,.32-1.34.09-.05,0-.14,0-.22-.12-.27-.42-.52,0-.84.08-.07,0-.25-.08-.39-.32-.41-.83-.74-.56-1.4a.4.4,0,0,0-.19-.47.41.41,0,0,1-.17-.25,9.13,9.13,0,0,0-.77-1.72.75.75,0,0,0-1-.31,9,9,0,0,0-1.92,1.11,3.29,3.29,0,0,1-.59.47A4.34,4.34,0,0,0,27.75,28a1.26,1.26,0,0,0,0,1.26,16.75,16.75,0,0,1,1.06,2.27,12.34,12.34,0,0,0,.83,1.21.93.93,0,0,1,.28.86,1.61,1.61,0,0,0-.08,1c.05.13,0,.25-.11.29-.36.12-.22.34-.08.52.48.66.28,1.43.35,2.15,0,.33-.26.49-.54.48s-.41-.26-.4-.54.09-.39,0-.52A14.14,14.14,0,0,0,28,36c-.34-.28-.37-.8-.83-.94-.09-.85-.85-1-1.43-1.15a11.51,11.51,0,0,1-1.26-.52.85.85,0,0,1-.47-.74,3.17,3.17,0,0,0-.78-1.56c-.16-.2-.44-.3-.55-.61a2.76,2.76,0,0,0-.67,1.4,28.67,28.67,0,0,1-.48,3,.29.29,0,0,0,0,.18c.33.7-.24,1.41,0,2.1.15.44-.5.8-.07,1.23-.19.15,0,.45-.13.53-.53.24-.15.48,0,.69a.78.78,0,0,1,.12.58c-.08.8-.65,1.58-.13,2.41v.05a4.16,4.16,0,0,1-.61,2.51,18.58,18.58,0,0,0-1.26,2.15,2.14,2.14,0,0,0-.35,1.46A1,1,0,0,1,18.93,49.66Z"/><path d="M23.54,11.64c.12.37-.07.41-.37.31a.62.62,0,0,0-.68.16,1.88,1.88,0,0,1-.92.28c-.4.08-.82.13-1.23.2h-.05c-.19.43-.68.32-1,.56s-.47,0-.67.2a1.25,1.25,0,0,1-1.15.47c-.24,0-.28.23-.45.33-.4.24-.92.08-1.28.42,0,0-.2,0-.18-.05.12-.42-.37-.64-.28-1.14s.69-.89.8-1.47a5,5,0,0,1,.36-1.19c.15-.33.19-.75.56-1s.55-.88.85-1.3c.16-.23.19-.52.53-.62.19-.06.19-.24.12-.45s-.26-.53,0-.77c.08-.07,0-.14,0-.2a2.85,2.85,0,0,1-.25-2c0-.22.08-.43.09-.66a.34.34,0,0,1,.43-.34c.22,0,.07.27,0,.37a.88.88,0,0,0,0,.76,1,1,0,0,1,.06.7c-.05.29-.16.59.28.7.05,0,.13.15.12.16-.28.34.05.54.16.78a1.51,1.51,0,0,1-.05,1,1.65,1.65,0,0,1-.47.89c-.58.55-.81,1.36-1.39,1.93a.05.05,0,0,0,0,0c0,.81-.69,1.23-1,1.88l-.15.37c-.13.28-.1.45.27.35a.25.25,0,0,1,.17,0c.57.25.89-.17,1.25-.47a2.55,2.55,0,0,1,1.24-.53,2.68,2.68,0,0,0,1.49-.61,1.33,1.33,0,0,1,1.38-.33.15.15,0,0,0,.16,0,3,3,0,0,1,2.1-.44c.39,0,.55-.32.86-.41a3.5,3.5,0,0,1,2.43-.18c.35.14.68-.2,1-.25a1.73,1.73,0,0,1,.6,0,4,4,0,0,0,1.71-.2c.44-.09.23-.41.08-.5s-.43-.39-.73-.48A3,3,0,0,1,29.23,7a.62.62,0,0,1,.18-.49c.39-.24.52-.74,1-.91A.45.45,0,0,0,30.63,5c-.11-.45-.08-.45-.55-.54-.16,0-.43-.13-.45,0-.08.35-.58.42-.49.84a.5.5,0,0,1-.17.44c-.3.37-.65.7-.93,1.07s-.72.35-1.07.51c-.19.08-.24-.19-.32-.31s-.16-.32,0-.43.17-.21,0-.29a.54.54,0,0,1-.2-.65A3.9,3.9,0,0,0,26.57,4a.06.06,0,0,1,0,0c.51-.73-.16-.55-.43-.49A1.69,1.69,0,0,1,25,3.27a.39.39,0,0,0-.57.46,3.92,3.92,0,0,1-.39,1.93c-.09.26-.29.46-.33.7s-.41.28-.47.56c0,.09-.14,0-.21-.07-.4-.28-.47-.78-.75-1.13,0,0,0-.11,0-.13.36-.37-.06-.61-.17-.89a.62.62,0,0,1-.08-.33c.07-.58-.33-.83-.91-.71a2,2,0,0,1-1.53-.12c-.08,0-.13-.09-.09-.17s.12-.06.19-.07c.54-.06,1.08-.13,1.63-.18a.48.48,0,0,0,.5-.46c0-.29-.26-.35-.5-.39s-.27,0-.39-.09-.2,0-.19,0c.1.4-.3.26-.44.4a2.49,2.49,0,0,1-.68.38c-.33.19-.4,0-.39-.28a1.08,1.08,0,0,1,1-.94,1.81,1.81,0,0,0,1.1-.24,1.25,1.25,0,0,1,1.69.85A2.18,2.18,0,0,1,23.12,4c0,.06-.05.17-.09.19s-.28.12-.21.31.19.13.31.13.37-.09.37-.26a6.08,6.08,0,0,0,.07-1.48,1.67,1.67,0,0,1,.92-1.61,2.63,2.63,0,0,1,1.8-.3c.12,0,.27,0,.32.14.17.41.68.55.8,1a.74.74,0,0,0,.36.44A.46.46,0,0,1,28,3.2a4.66,4.66,0,0,0-.32,1.61c0,.17-.09.34-.11.52s0,.25.1.32.21,0,.32-.06c.49-.16.9-.28.68-1-.08-.24.19-.59.31-.89s.17-.29.06-.46a.14.14,0,0,1,.1-.23c.25,0,.31-.2.3-.42,0,0,0-.08,0-.13.35.17.65-.26,1-.1a.64.64,0,0,0,.38.11,3.33,3.33,0,0,1,1.79.23.71.71,0,0,1,.49,1.12,1.54,1.54,0,0,1-.85.85.5.5,0,0,0-.19.19c-.49.66-1,1.34-1.46,2a.23.23,0,0,0,0,.32c.26.34.43.74.9.9a1.42,1.42,0,0,1,.71.64,1.27,1.27,0,0,0,.5.5.43.43,0,0,1,.26.46c0,.36.17.51.53.48a.82.82,0,0,1,.27,0c.46.06.54.24.3.63-.44.69-1,1-1.7.63s-1.32-.11-1.9-.42a.34.34,0,0,0-.26,0,2.77,2.77,0,0,1-1.27.18,15,15,0,0,1-2.42.16c-.41,0-.78.29-1.22.23a1.37,1.37,0,0,0-1.24.26C23.8,12.08,23.79,11.58,23.54,11.64ZM25.38,1.8c-.09.06-.28,0-.3.12s.06.29.2.31a4.23,4.23,0,0,1,.62.25.25.25,0,0,0,.31-.11c.05-.07,0-.18,0-.19C25.89,2.11,25.69,1.84,25.38,1.8Zm5.8,1.42c-.13.09-.43-.05-.42.19s.3.19.47.21.33,0,.3-.21S31.33,3.25,31.18,3.22Z"/><path d="M.92,24.57c-.07-.16-.08-.35,0-.4.36-.21.19-.46,0-.63a1.5,1.5,0,0,1-.26-1.32c.09-.77.61-1.39.72-2.15a1,1,0,0,1,.36-.78c.09-.06.06-.15,0-.24a.29.29,0,0,1,0-.3c.39-.54.44-1.24.8-1.79a6,6,0,0,0,.69-1.71c.08-.26.33-.46.45-.71s.12-.85.49-1.15c0,0,0-.1,0-.12-.47-.44.09-.8.13-1.2a2.27,2.27,0,0,1,.49-1.18A.51.51,0,0,0,5,10.35a.39.39,0,0,1,0-.35c.26-.43.1-.91.13-1.36A10.82,10.82,0,0,1,5.21,7c0-.09,0-.21,0-.26C4.86,6.4,5.08,6,5.11,5.6c0-.25.14-.49,0-.75a.32.32,0,0,1,.07-.29c.45-.32.1-.46-.12-.63s-.34-.26,0-.45a1.37,1.37,0,0,1,1.21-.11c.13.06.24,0,.34-.13a3,3,0,0,0,.69-1C7.47,2,8,2,8.2,1.75a1.28,1.28,0,0,1,1.19-.44c.08,0,.2,0,.23-.09.14-.42.5-.37.82-.38A1.32,1.32,0,0,0,11,.72a2.28,2.28,0,0,1,1.91.12A.74.74,0,0,1,13,2.07a7.55,7.55,0,0,1-2.58,1.18c-.4.17-.9.16-1.23.52-.08.08-.17,0-.25,0A4.63,4.63,0,0,1,8,3.94c-.53-.09-.88.27-1.33.33a.57.57,0,0,1-.13,0C6,4.24,6,4.32,6,4.88S6.33,6.28,5.93,7a.33.33,0,0,0,.19.51.31.31,0,0,1,.23.42,1,1,0,0,0,.06.84c.11.26-.08.51-.13.74a5.07,5.07,0,0,1-.61,2,3.51,3.51,0,0,0-.42,1.57,11.45,11.45,0,0,1-.74,1.64,4.88,4.88,0,0,0-.23.64,10.86,10.86,0,0,1-1,2.39c-.12.23-.07.57-.27.74-.35.33-.25.76-.39,1.11a8.15,8.15,0,0,1-.56,1.71,2.64,2.64,0,0,0-.16,1.08.14.14,0,0,0,.12.17c.08,0,.13-.05.16-.13.09-.23.19-.46.28-.7,0,0,0-.14.07-.16.49-.17.57-.6.72-1a3.39,3.39,0,0,1,.81-1.2c.33-.33.32-1,.91-1.06,0,0,0-.2.13-.3a6.51,6.51,0,0,1,2.37-1.73,2.88,2.88,0,0,1,1-.15,3.29,3.29,0,0,0,1.87-.58c.32-.21.83-.57.76-1.17v0a10.55,10.55,0,0,0,.45-1.48c.08-.42.55-.81.63-1.34,0-.17.2-.32.33-.47a1.47,1.47,0,0,0,.49-.87c0-.16.05-.33.27-.36.06,0,.15-.07.16-.13A2.18,2.18,0,0,1,14.68,8.3a.26.26,0,0,0,.1-.18,5.44,5.44,0,0,0-.53-1.66A5.12,5.12,0,0,1,13.56,5c-.16-.55-.07-1.14-.28-1.69a.79.79,0,0,1,.07-.52c0-.09.07-.23,0-.26-.44-.32,0-.46.15-.61a.51.51,0,0,1,.62-.06.61.61,0,0,1,.29.69,2.13,2.13,0,0,0,.19,1.31A5.38,5.38,0,0,1,14.93,5c0,.1.12.09.15.15.12.27.5.47.26.85-.05.09,0,.17.07.24a5.29,5.29,0,0,1,.74,1.06c.34.45.24.89-.28,1.29a15,15,0,0,0-2,2.18,3,3,0,0,0-.31.68,5.63,5.63,0,0,0-.79,1.85.68.68,0,0,1-.23.47c-.29.17-.2.37-.16.61s.24.51-.24.46C12,14.85,12,15,12,15a3.34,3.34,0,0,1-1.91,1.8,4.93,4.93,0,0,1-2,.21,2.75,2.75,0,0,0-1.2.28c-.25.11-.37.42-.6.59A7.28,7.28,0,0,0,4.9,19.6a14.85,14.85,0,0,0-1.44,2,5.24,5.24,0,0,0-.39.87.67.67,0,0,1-.46.46,1.87,1.87,0,0,0-1.14,1.19A1,1,0,0,1,.92,24.57ZM7.74,3A3.13,3.13,0,0,0,9.39,3c.34-.1.63-.35,1-.23.06,0,.15,0,.15-.05,0-.46.32-.37.58-.34s.36-.19.42-.37-.14-.3-.31-.35c-.64-.19-1.24.2-1.87.17-.06,0-.11.09-.17.14s-.22.23-.35.26C8.35,2.28,8.13,2.69,7.74,3Z"/><path d="M38.92,52c-1,.16-1,.81-1.05,1.48s0,1.31.5,1.69a3.55,3.55,0,0,0,1.2.64c1,.24,1.88.59,2.86.74a7.2,7.2,0,0,0,1,0c.1,0,.28-.11.07-.21s-.27-.42-.58-.35a.16.16,0,0,1-.17-.17c0-.28-.21-.33-.39-.42s-.39-.2-.16-.46c.08-.08,0-.14-.05-.21a.36.36,0,0,1,.05-.66c.19-.07.18-.13.2-.3a.38.38,0,0,1,.51-.34.77.77,0,0,0,.34,0,4.4,4.4,0,0,1,2.73.54,1.57,1.57,0,0,1,.73,1.62,2.46,2.46,0,0,1-.34.94.61.61,0,0,1-.65.37c-.21,0-.33.12-.49.17a6.92,6.92,0,0,1-3.77.2,14.49,14.49,0,0,1-2.83-1c-.4-.19-.76-.43-1.15-.64a.35.35,0,0,1-.22-.27c0-.46-.21-.89-.26-1.35s0-.76,0-1.14a1.32,1.32,0,0,1,.85-1.25C38.21,51.43,38.48,51.72,38.92,52Zm4.9,2.09a1.79,1.79,0,0,0-.66.32c-.14.1-.12.25-.06.4a3.07,3.07,0,0,0,1,1.3.26.26,0,0,0,.24.07l1-.13a.54.54,0,0,0,.44-.8C45.47,54.34,44.74,54.14,43.82,54.06Z"/><path d="M36.54,7.85c-.47,0-.92.23-1.38,0-.15-.07-.23.24-.41.3a1.11,1.11,0,0,1-1-.2c-.19-.11-.58.07-.57-.34a1.24,1.24,0,0,1,.46-1.1c.12-.08.26-.13.17-.3-.18-.33.09-.42.29-.52a16.89,16.89,0,0,1,2-1,3.61,3.61,0,0,1,1.6-.19.81.81,0,0,1,.69.57.36.36,0,0,0,.14.16c.06,0,.13,0,.13-.09-.09-.51.42-.66.66-.89a6.44,6.44,0,0,0,.76-1A.58.58,0,0,1,40.46,3a.5.5,0,0,0,.41-.47.37.37,0,0,1,.53-.31c.28.12.17.38,0,.52-.64.67-.9,1.66-1.83,2.12-.29.15-.43.64-.62,1-.41.76-1,1.4-1.45,2.12a1.28,1.28,0,0,0-.21.4c-.08.51-.49.71-.88.93a.19.19,0,0,1-.13,0c-.18,0-.12.51-.39.17s-.2-.59.11-.89A1.4,1.4,0,0,0,36.54,7.85ZM35.17,7.3c.41.09.74-.19,1.12-.24a1.85,1.85,0,0,0,1.4-.68c.13-.2.12-.67-.07-.76a2.1,2.1,0,0,0-1.32-.1,3.13,3.13,0,0,0-1.92,1.31c-.09.13-.08.2,0,.25S34.85,7.48,35.17,7.3Z"/><path d="M46.06,41a.45.45,0,0,1-.55-.12c-.42-.49-1-.43-1.56-.68s-.45-.6-.76-.83c-.16-.11.06-.29.06-.45s.2-.31.38-.39a3.26,3.26,0,0,0,1.16-.62c.12-.12.37-.09.54-.17s.62-.17.84-.45a.41.41,0,0,1,.63,0,.64.64,0,0,0,.63.14,2.21,2.21,0,0,1,1.79.27.79.79,0,0,1,0,1.34,2.88,2.88,0,0,1-1.32.5,1.29,1.29,0,0,1-1.45-.77A.4.4,0,0,0,46,38.5c-.46.1-1,0-1.33.46-.18.24-.22.5.07.65a6.34,6.34,0,0,1,.66.39c.14.11.32.17.19.41s0,.17.13.18S46,40.82,46.06,41Zm1.85-2.24c.15,0,.4,0,.32-.24s-.43-.1-.65-.21-.25.07-.22.16S47.68,38.72,47.91,38.74Z"/><path d="M47.46,17.15c0-.12,0-.3,0-.31.37-.13.47-.45.66-.76a18.43,18.43,0,0,1,1.27-1.56,2.29,2.29,0,0,1,.56-.64,1,1,0,0,0,.5-.89c0-.29.13-.5.45-.5s.43-.33.72-.41.28-.13.28.13.15.36.39.38c.08,0,.22,0,.25.05.29.53.91.67,1.26,1.12a.8.8,0,0,1-.14,1,3.66,3.66,0,0,1-1.86.88,9.9,9.9,0,0,0-1.41.32c-.31.12-.7.27-.87-.26-.07-.19-.22-.08-.32,0a2.21,2.21,0,0,0-.54.86,1.55,1.55,0,0,1-1,.95C47.36,17.68,47.58,17.27,47.46,17.15Zm3.2-2a3,3,0,0,0,1.44-.3c.88-.35.86-.4.45-1.2,0-.08,0-.23-.21-.18a1.29,1.29,0,0,1-.7-.09.52.52,0,0,0-.58.22,2.92,2.92,0,0,1-.48.51,2.62,2.62,0,0,0-.45.6c-.1.2-.16.43.22.4C50.45,15.13,50.56,15.16,50.66,15.17Z"/><path d="M42,11.85c-.18-.19-.29-.27-.49,0s-.44.08-.63-.12-.22-.26-.41-.21c-.46.13-.55-.26-.71-.52a.71.71,0,0,1,0-.78c.21-.28.05-.77.51-.89a.79.79,0,0,1,.12-.79c.13-.15.25-.27.45-.22.48.12.68-.24.85-.56a1.39,1.39,0,0,1,2.18-.44,1,1,0,0,1,.22.84c0,1.23-.1,1.78-1.52,2.18a1.29,1.29,0,0,1-1.25-.18.56.56,0,0,0-.51-.09c-.18.07-.08.3-.08.45a1.13,1.13,0,0,0,.27.7c.09.1.17.23.38.16C41.76,11.21,42,11.41,42,11.85Zm.48-2.17a.35.35,0,0,0,.44-.23.83.83,0,0,1,.23-.37c.36-.27.24-.63.17-1a.29.29,0,0,0-.43-.2,2.09,2.09,0,0,0-.83.58.67.67,0,0,1-.45.32c-.34.07-.31.27-.09.47A1.52,1.52,0,0,0,42.47,9.68Z"/><path d="M48.69,44.5a.43.43,0,0,1-.14.44,3,3,0,0,1-1.43.81c-.42.09-.85.37-1.3.5s-1,.26-1.52.36c-.15,0-.39.08-.46-.14s.08-.36.25-.48a3.1,3.1,0,0,1,1.2-.28A13.11,13.11,0,0,0,47.35,45c.28-.11.25-.49.18-.75s-.17-.3-.11-.5a.11.11,0,0,0-.1-.16c-.6-.06-1.11-.44-1.68-.47-.3,0-.6-.41-.91,0a.69.69,0,0,1-.22-.13.11.11,0,0,1,0-.19c.27-.17.38-.55.77-.55s.47-.35.78-.4a4.37,4.37,0,0,0,1.45-.6c.3-.19.7-.19,1-.4s.41,0,.52.22-.1.36-.25.44a7.63,7.63,0,0,1-1.71.74,1,1,0,0,0-.28.13c-.1.06-.24.12-.2.26s.18.06.27.07A2.12,2.12,0,0,1,48.69,44.5Z"/><path d="M49.21,11.26a1.26,1.26,0,0,1-1.64,1.23c-.46-.08-.91.08-1.39,0-.3-.08-.52.36-.57.69-.1.58,0,.64.56.77a.28.28,0,0,1,.24.28c0,.2-.18.27-.35.25-.34,0-.63-.27-1-.29-.07,0-.14-.1-.2-.09-.59.14-.51-.31-.44-.58s.06-.77.35-1.11a.56.56,0,0,0,0-.81c-.13-.11-.24-.23,0-.4s.29-.27.52-.07a.92.92,0,0,0,1.16,0,4.21,4.21,0,0,1,1.16-.71,2.71,2.71,0,0,1,.93-.23c.39,0,.8.55.78,1C49.24,11.15,49.22,11.21,49.21,11.26Zm-2.3.49A4.93,4.93,0,0,1,48,11.69c.15,0,.33,0,.32-.23s-.15-.23-.31-.25C47.51,11.13,47.25,11.5,46.91,11.75Z"/><path d="M47.31,48.45c.16.56.1.64-.44.79-.14,0-.32,0-.36.21s.1.29.22.4c.36.33.84.51,1.1,1s.24.78-.26,1.15a4,4,0,0,1-1.65.66,8.45,8.45,0,0,1-2.88.12c-.24,0-.58-.1-.5-.44s.44-.43.74-.42c.6,0,1.2.13,1.8.15a1.25,1.25,0,0,0,.87-.25.44.44,0,0,1,.36-.13c.45.06.44-.28.48-.54s-.33-.4-.19-.69c0,0-.09-.06-.11-.05-.54.38-.76-.25-1.15-.36-.1,0-.19-.16-.32-.1-.29.15-.58,0-.87,0s-.38,0-.4-.22a.44.44,0,0,1,.34-.47,7.52,7.52,0,0,1,1.14-.26,6.55,6.55,0,0,1,1.71-.26C47.07,48.69,47.17,48.56,47.31,48.45Z"/><path d="M46.62,33.77s-.06,0-.1,0a14.51,14.51,0,0,0-2.15.89c-.18.13-.29.31-.1.44.39.27.5.76.89,1a.42.42,0,0,1,.11.49.21.21,0,0,1-.17.1.49.49,0,0,1-.41-.31c-.11-.39-.41-.47-.74-.63a1.5,1.5,0,0,1-.86-.94c-.05-.26,0-.37.26-.41a.84.84,0,0,0,.52-.32.47.47,0,0,1,.25-.17,6,6,0,0,0,1.43-.41,8.73,8.73,0,0,0,1.17-.62.26.26,0,0,0,.07-.29c-.13-.39.21-.48.41-.61s.41,0,.59.17a1.13,1.13,0,0,0,1.31-.11c.25-.23.54-.18.82-.26s.36.14.39.33-.19.23-.32.2c-.32-.06-.46.23-.7.33a3.94,3.94,0,0,0-1,.34.85.85,0,0,0-.28,1c.15.27.3.55.44.83,0,.07.08.18,0,.25s-.16,0-.25,0c-.42-.24-1-.28-1-1C46.93,34.24,47,33.7,46.62,33.77Z"/><path d="M47.42,26.89c-.53.11-1-.1-1.54.06a1.45,1.45,0,0,0-1.11,1.69A6.64,6.64,0,0,0,45,30.18a.34.34,0,0,1-.18.42,2,2,0,0,1-1.79,0,1.23,1.23,0,0,1-.5-.89.63.63,0,0,0-.19-.4c-.15-.12-.28-.21-.2-.44s-.19-.3.05-.43a.51.51,0,0,1,.5.05,1.55,1.55,0,0,1,.65.87c.07.2.32.34.46.53.24.35.44-.05.66,0a.59.59,0,0,0-.21-.37.42.42,0,0,1-.09-.34,1.4,1.4,0,0,0-.18-1,.67.67,0,0,1,.22-1,1.13,1.13,0,0,1,.4-.19c.23,0,.41-.05.43-.34,0-.05.11-.15.15-.14.41.1.65-.23,1-.34a1.21,1.21,0,0,1,1.28.27c.34.3.73.56.76,1.09a2.54,2.54,0,0,0,.12,1c.11.25-.24.4-.51.42s-.14-.24-.13-.38a1.66,1.66,0,0,0-.31-1.21C47.17,27.16,47.36,27.06,47.42,26.89Z"/><path d="M46.44,18.11c.13.05.33,0,.4.21s-.07.3-.21.39l-3.35,2.44a20.32,20.32,0,0,0-2.74,2.33.65.65,0,0,1-.21.16c-.18.05-.45.32-.52.08s-.21-.57.17-.74a.36.36,0,0,0,.16-.14,4,4,0,0,1,1.66-1.23,1.6,1.6,0,0,0,.61-.6c.31-.61,1-.69,1.4-1.13A12.25,12.25,0,0,1,45,18.93a8.62,8.62,0,0,0,1.14-.75A.33.33,0,0,1,46.44,18.11Z"/><path d="M41.16,26.34l-.22,0c-.06,0-.12,0-.14,0s0-.13.07-.13c.26,0,.23-.22.29-.38.23-.65.85-.88,1.34-1.23a1.78,1.78,0,0,0,.76-.75.92.92,0,0,1,.57-.52c.1,0,.2-.06.23-.19.1-.47.49-.35.79-.34s.29.42.08.6a9.34,9.34,0,0,0-1,.9c-.57.61-1.34,1-1.79,1.74A1,1,0,0,1,41.16,26.34Z"/><path d="M44.86,47.25c.78-.11,1.55-.22,2.32-.35.23,0,.45-.1.54.2s-.12.37-.31.44a9.57,9.57,0,0,1-2,.37,6.39,6.39,0,0,0-1.43.3.32.32,0,0,1-.42-.12.32.32,0,0,1,0-.47C43.93,47.24,44.42,47.29,44.86,47.25Z"/><path d="M47,21.69c-.05.24-.31.33-.6.34s-.37-.1-.35-.35a1,1,0,0,1,.6-.58C46.84,21.12,47,21.31,47,21.69Z"/><path d="M49.84,46.82c-.06.19-.07.49-.38.51A.51.51,0,0,1,49,47c-.06-.17.33-.56.52-.57S49.84,46.53,49.84,46.82Z"/></g></g></g></svg>