<svg xmlns="http://www.w3.org/2000/svg" viewBox="0 0 67.76 69.68"><defs><style>.cls-1{opacity:0.7;}.cls-2{fill:#69c5ab;}.cls-3{opacity:0.8;}.cls-4{fill:#fff1c6;}.cls-5{fill:#93b7e1;}.cls-6{fill:#fffbf3;}</style></defs><g id="Layer_2" data-name="Layer 2"><g id="Layer_1-2" data-name="Layer 1"><g class="cls-1"><path class="cls-2" d="M33.4,32.71a7.59,7.59,0,0,0,.91,3.16,21.82,21.82,0,0,0,1.13,2.21,8.41,8.41,0,0,0,2,1.62,15.56,15.56,0,0,1,1.38,1c.52.47.63.44.22,1s1,.61,1.18.63a8.3,8.3,0,0,0,4.4-.73,32.93,32.93,0,0,1,4.7-1.27c1.39-.32,2.82-.45,4.21-.75,1.68-.35,3.35-.67,5-1.18A18.17,18.17,0,0,0,62.61,37c1-.6,2.56-.63,3.42-1.43.7-.66.13-2.32,0-3.15-.17-1.17-.5-2.33-.74-3.48A14.18,14.18,0,0,1,65,27a12.12,12.12,0,0,0-.42-2c-.15-.55-.36-1.06-.51-1.6a3.36,3.36,0,0,0-.85-1.87c-.95-.75-2.77-.54-3.86-.55a10.84,10.84,0,0,0-5,.93l-.62.3.2.06a4.84,4.84,0,0,0-.85.23,8.72,8.72,0,0,0-1.51,1,24.79,24.79,0,0,1-4.2,1.9A43.59,43.59,0,0,0,43,27.18a36.26,36.26,0,0,1-4.39,1.28,13.1,13.1,0,0,0-3.94,2.34c-.74.59-1.89,1.49-1.2,2.47.84,1.2,2.12,2.14,3,3.28.5.6,1,1.19,1.5,1.79A9.21,9.21,0,0,0,39.23,40c.62.46,4.77.7,4.89-.4a5.11,5.11,0,0,0-.34-2c-.22-.86-.31-1.76-.49-2.63s-.54-1.81-.78-2.72a4.54,4.54,0,0,0-.62-1.68c-.56-.76-5.1-.11-4.9.4a36.57,36.57,0,0,0,2.82,5.5c.17.3.42.53.6.81a5.42,5.42,0,0,1,.44,1,1.73,1.73,0,0,0,1.43,1.17c.55.09,4.28.33,4.24-.64a42.57,42.57,0,0,0-.58-5.29c-.28-1.79-.95-3.48-1.19-5.27l-5,.23c.63,2,1.54,3.92,2.12,5.93a17.9,17.9,0,0,0,1.77,4.91c.5.76,4.57.51,4.9-.4a7,7,0,0,0,.13-2.38c0-1-.09-2.06-.2-3.08a59.22,59.22,0,0,1-.34-6.1l-5,.24c.06,1.75.52,3.45.73,5.19a16.36,16.36,0,0,0,1.05,4.8c.39.87,5,.69,5-.24,0-.61.16-1.18.17-1.79,0-.84.15-1.66.18-2.5.05-1.61,0-3.23,0-4.85l-5,.24c.21,1.84.33,3.7.52,5.54.1.89.31,1.78.38,2.67a3.3,3.3,0,0,0,.4,1.77c.34.56,2.28.34,2.76.3s1.87-.06,2.13-.7c.7-1.66.61-3.75.7-5.52s.24-3.67.23-5.54l-5,.24a36,36,0,0,1,.4,5.59c.07,1.15-.19,3,.54,4,.51.68,4.7.56,4.9-.4a28.77,28.77,0,0,0,.58-5.39c0-1.7.33-3.38.35-5.06l-5,.24a50.77,50.77,0,0,1,.67,5.06c.18,1.4.15,3.26,1,4.44.41.55,2.24.35,2.76.3s1.84-.06,2.14-.7a12.83,12.83,0,0,0,.92-4.91c.1-1.74.53-3.54.51-5.27l-5,.24c.16,1.82.29,3.64.47,5.46a24.54,24.54,0,0,0,.9,5.11c.31.9,3.15.49,3.79.34,1.06-.24,1.35-.45,1.53-1.45A24.28,24.28,0,0,0,59.15,32c.16-2.3.27-4.62.32-6.91l-5,.23a25.79,25.79,0,0,0,.7,4.95,9.84,9.84,0,0,1,.3,1.62,1.62,1.62,0,0,0,.39,1.2c.7.68,4.46.6,4.9-.4.53-1.21.29-3,.39-4.31a57.29,57.29,0,0,0,.09-5.86c0-.84-5-.72-5,.24-.06,1.89.33,3.82.46,5.71.06.81.18,1.62.22,2.44,0,.44-.11.95.27,1.29.57.5,4.82.64,4.9-.4a17.59,17.59,0,0,0-.49-4.62c-.14-.69-.37-1.37-.53-2.06a2.62,2.62,0,0,0-.49-1.39c-1-.89-3.61-.52-4.73-.18s-2.18,1.07-3.36,1.35l3-.24h-.14l1.18.63a4.5,4.5,0,0,1,1.09-.75l-4.58-.25c-.84.81-2.06,1-2.18,2.36a.44.44,0,0,0,.36.29,9.81,9.81,0,0,0,4,.41c1,0,1.39.86,1.55,1.81.22,1.35,0,2.72.2,4.06.09.59.33.86-.18,1.37a3.55,3.55,0,0,1-1.39.78c-2.52.79-5.23.91-7.72,1.81a19.45,19.45,0,0,0-3.37,1.72,6.45,6.45,0,0,0-.69.47c-.18.12-.52.28-.11.14a8,8,0,0,0-1.75.63c-.76.46.22.68.68.75a8,8,0,0,0,3.27-.2c3.47-1,7-1.81,10.44-2.72A21.84,21.84,0,0,0,61,36c1.07-.58,3-1.14,3.63-2.24.35-.58-1.24-.63-1.48-.65a7,7,0,0,0-3.11.4l-.26.12c-1,.43.64.76.93.79A7,7,0,0,0,64.1,34l.26-.12-4.58-.25c-.59,1-2.35,1.49-3.32,2a18.33,18.33,0,0,1-4.81,1.84c-1.52.34-2.95.88-4.46,1.27-1.69.43-3.39.76-5.07,1.22l4,.56c.77-.48-.38,0,.15-.14.35-.12.71-.16,1.05-.3a9,9,0,0,0,1.43-.85,13.37,13.37,0,0,1,4-1.8c1.51-.33,3-.57,4.52-1A12.21,12.21,0,0,0,61,35.18a2.43,2.43,0,0,0,1-1c.22-.53,0-1.08-.08-1.65a17.36,17.36,0,0,0-.26-4.2,3,3,0,0,0-2.39-2,11.76,11.76,0,0,0-2.21-.23c-.4,0-.79,0-1.19,0h-.36c-.49,0-.49,0,0,0l.36.29c.1-1.1,1.3-1.34,2-2,.5-.48-1.39-.64-1.48-.65a5.5,5.5,0,0,0-4.7,1.47c-.46.44,1.1.62,1.19.63a8.49,8.49,0,0,0,3.84-.44l1.2-.48.83-.34c.75-.33.8-.11-.83-.07l-2.17-.19c.24.11.34,1.21.41,1.46.18.69.39,1.37.51,2.08a18,18,0,0,1,.4,4.2l4.9-.4c-.2-.17-.07-.86-.08-1.11,0-.92-.18-1.84-.24-2.76a51.59,51.59,0,0,1-.43-5.25l-5,.24a54.57,54.57,0,0,1-.09,5.86c-.09,1.29.14,3.11-.39,4.31l4.9-.4c-.28-.27-.18-.8-.21-1.15a13,13,0,0,0-.38-1.75,25.91,25.91,0,0,1-.6-4.54c0-.85-5-.71-5,.23,0,2.07-.14,4.16-.27,6.23-.05.86-.11,1.73-.21,2.59,0,.4-.07,1.39-.32,1.61l1.13-.42h0l3.78.35a23.9,23.9,0,0,1-.9-5.11c-.19-1.81-.32-3.64-.48-5.46-.08-.89-5-.66-5,.24,0,1.73-.41,3.53-.51,5.27a13.25,13.25,0,0,1-.92,4.91l4.89-.4a5.16,5.16,0,0,1-.54-2.06c-.14-.83-.23-1.66-.32-2.49A44.77,44.77,0,0,0,54.15,26c-.21-.93-5-.65-5,.24,0,1.68-.32,3.36-.35,5.05a29.64,29.64,0,0,1-.58,5.4l4.89-.4c-.27-.36-.2-1.1-.23-1.54,0-.87-.1-1.75-.14-2.62A32.62,32.62,0,0,0,52.38,27c-.2-.93-5-.64-5,.24,0,1.86-.12,3.68-.22,5.54s0,3.86-.7,5.52l4.9-.4c-.35-.55-.2-1.47-.29-2.1-.13-.83-.26-1.64-.34-2.48-.17-1.69-.28-3.39-.48-5.08-.1-.91-5-.65-5,.24,0,1.61.06,3.24,0,4.85,0,.77-.14,1.53-.16,2.3s-.17,1.33-.18,2l5-.24a16,16,0,0,1-1-4.79c-.22-1.74-.68-3.44-.74-5.2,0-.85-5-.7-5,.24a59.36,59.36,0,0,0,.33,6.1c.1.94.17,1.89.2,2.84a7.43,7.43,0,0,1-.13,2.62l4.9-.4a11.16,11.16,0,0,1-.51-1.29,9.19,9.19,0,0,1-.46-1c-.31-.86-.44-1.78-.72-2.65-.59-1.88-1.42-3.68-2-5.56-.31-1-5.1-.53-5,.23C40,30.3,40.68,32,41,33.78a45,45,0,0,1,.58,5.3l4.24-.63c.6.1.12-.22,0-.52a4.66,4.66,0,0,0-.28-.82c-.32-.58-.79-1-1.09-1.65-.81-1.6-1.77-3-2.43-4.72l-4.89.4a7.29,7.29,0,0,1,.64,2,24.39,24.39,0,0,1,.66,2.51c.13.72.21,1.46.4,2.17a5.5,5.5,0,0,1,.34,2l4.9-.39a5,5,0,0,1-.77-1.09c-.35-.46-.73-.9-1.09-1.35a30,30,0,0,0-2.29-2.6c-.55-.54-2-1.49-1.59-2.36A8.18,8.18,0,0,1,40.67,30c2-1.5,4.82-1.42,7-2.57a30,30,0,0,1,3.62-1.5c1.28-.47,2.5-1.1,3.75-1.65.9-.4,1.66-1.05,2.24-1.24a8.66,8.66,0,0,0,1.17-.61c1-.54.21.23-.42-.17.34.22,1.12-.22,1.42,0l-.42.07c-.48-.06-.56.11-.24.5a5.8,5.8,0,0,0,.24.84c.11.49.31.91.46,1.4.38,1.25.41,2.53.71,3.78a39.1,39.1,0,0,1,1.15,6,1,1,0,0,1,0,.56c0-.09.07-.12-.12,0a6.59,6.59,0,0,1-1.46.56c-1.13.36-2,.94-3.05,1.25a63.62,63.62,0,0,1-8.51,2,35,35,0,0,0-4.74,1.1l-2.08.6c-.52.14-1,.47-1.49.6l3-.24-.22,0,1.18.63c.61-.8.54-1-.25-1.63s-1.79-1.34-2.67-2a7.35,7.35,0,0,1-1.63-2.53,7.74,7.74,0,0,1-.91-3.16c-.06-.91-5-.62-5,.24Z"/></g><g class="cls-1"><path class="cls-2" d="M42.83,41.06a23.32,23.32,0,0,0,2.88-.34,27.53,27.53,0,0,0,2.87-.41c1.71-.43,3.37-1.06,5.08-1.51.75-.2,1.55-.45,2.23-.6,1-.21,1.76-.53,2.5-.74a14,14,0,0,0,2.38-1.14c.74-.38,1.48-.67,2.19-1.12l-1.15.55c-.26,0-.24,0,0,0a3.24,3.24,0,0,0,1-.26,3.39,3.39,0,0,0,1.46-.86,2.18,2.18,0,0,0,.63-1.56,8.87,8.87,0,0,0,0-1.71c-.06-.31-.27-.46-.39-.72s-.07-.52-.19-.77c-.25-.54-.52-1-.72-1.54a13,13,0,0,0-.69-1.73A12.68,12.68,0,0,1,62.25,25c-.24-.69-.57-1.35-.8-2.05S60,22,59.29,22.08a3.47,3.47,0,0,0-2.52,1.44c-.48.75,0,1.4.16,2.16s.69,1.7.85,2.62.2,1.77.39,2.65a4.72,4.72,0,0,1,.27,2.13l.43-.8-.1.13.95-.67-.14.07,1.89-.4c.37,0,.35.19,0-.21A13.06,13.06,0,0,1,60.62,30,9.23,9.23,0,0,0,59,27.84c-1.25-1.06-4.25-.39-4.62,1.35a5.5,5.5,0,0,0,.31,2.57c.24.88.41,1.78.62,2.67l4.27-2c-.13-.05-.42-.54-.56-.72-.3-.4-.59-.8-.91-1.17-.63-.73-1.24-1.49-1.94-2.16A2.75,2.75,0,0,0,53.58,28a2.9,2.9,0,0,0-2.24,2,5.77,5.77,0,0,0,.15,2c.22,1.2.59,2.37.86,3.56l3.81-2.19H56.1l.8.43a2.07,2.07,0,0,1-.39-.75c-.12-.31-.24-.62-.35-.93-.38-1.14-.62-2.09-1.87-2.53a3.29,3.29,0,0,0-3.83,1.79,6.27,6.27,0,0,0-.14,2.76,3.15,3.15,0,0,1,.13,1.27l.44-.79-.06.06L55,34.17c-.89-.89-1.3-2-2.36-2.72s-3.11,0-3.85.82a3.67,3.67,0,0,0-.9,1.79c-.1.5,0,1-.12,1.48l.44-.8-.13.15L52,34.07a8.12,8.12,0,0,0-1.5-.76,4.18,4.18,0,0,0-3.21.72A3.06,3.06,0,0,0,46,35.9c0,.24,0,.48-.06.72a3.59,3.59,0,0,1,0,.47c-.08.31-.06.3.05,0a1.12,1.12,0,0,0,.58,2,3.79,3.79,0,0,0,3.39-1,2.75,2.75,0,0,0,.83-1.67c.08-.49,0-.92.26-1.33l-.72.75.16-.12-1.81.68.16,0-1.16,0c-.34-.08.44.37.58.42a3.58,3.58,0,0,0,3.85-.82,2.39,2.39,0,0,0,.6-1.78,2.72,2.72,0,0,1,.11-.84l-3.85.82c.72.51,1,1.57,1.68,2.19,1.07,1.07,3.28.42,4.19-.56a2.46,2.46,0,0,0,.41-2.4,4.78,4.78,0,0,1,.1-2.49l-3.83,1.78.1,0-.8-.44c.42.36.55,1.3.78,1.9.37,1,.69,2,1.78,2.3s4.2-.5,3.81-2.18c-.19-.84-.44-1.67-.64-2.51-.11-.5-.22-1-.3-1.51,0-.11,0-.22,0-.34-.05-.47,0,.12,0-.11,0-.77.28-.1-.67.55l-1.15.55,0,0-2.61-.35a27.38,27.38,0,0,1,2.15,2.41c.56.68,1.08,1.81,1.94,2.16a3.56,3.56,0,0,0,2.89-.15c.67-.32,1.58-1,1.37-1.86s-.35-1.61-.55-2.42a4.58,4.58,0,0,1-.34-2l-4.63,1.36c1.2,1,1.65,2.68,2.82,3.73,1.58,1.41,4.91,1.08,5.78-1a3.6,3.6,0,0,0,0-2c-.18-.92-.39-1.83-.5-2.77a24.92,24.92,0,0,0-1.36-4.79l-.12.8.11-.17-4.68.61c.31.95.72,1.91,1.11,2.82a7.62,7.62,0,0,1,.2.79c.08.25.31.42.41.64.19.41.3.88.45,1.31a8.59,8.59,0,0,0,.58,1.23c.22.42.23.9.44,1.31,0,0,.31.56.23.2a3.26,3.26,0,0,1,0,.54,3.05,3.05,0,0,1,0,1.17l.44-.79-.11.13,1-.67-.19.08,1.27-.38A5.74,5.74,0,0,0,61,33a4,4,0,0,0-1.15.54c-.27.18-.31.2-.14.08a12.58,12.58,0,0,0-2.23,1.12c-.3.2-.27.19.11,0l-.59.14c-.4.11-.77.34-1.17.45.79-.22-.92.16-.72.11-.44.1-.86.25-1.28.37-1.65.47-3.29.92-4.92,1.44a8.18,8.18,0,0,1-2,.4c-.76.07-1.54.35-2.3.36-1.11,0-2.57.38-3.14,1.46s.51,1.67,1.42,1.66Z"/></g><g class="cls-3"><path class="cls-4" d="M31.74,35.71c0,1.17-.57,2.79.24,3.8,1,1.21,3.67,1.49,4.8.39.29-.28.46-.65.75-.92l-.68.43.17-.06-3.89-.54c.25.3,0,1,.13,1.33.16.78.83,1.11,1.55,1.3a5.37,5.37,0,0,0,2.7.07c.71-.2.77-.51,1.28-.89l-4.3-.34c.08.07,0,.81.09,1a3.48,3.48,0,0,0,.74,1.41,3.15,3.15,0,0,0,1.56.71A5.44,5.44,0,0,0,38,43.5c.42,0,1.88.09.11,0L36,42.76c.8.93.79,2.48,1.72,3.41,1.28,1.28,3.57,1,5,.17.36-.21.8-.62,1.22-.82a16.33,16.33,0,0,1,2-.53c1.64-.53,3.36-.81,5-1.32,2.88-.9,5.78-1.73,8.63-2.72.69-.24,1.32-.61,2-.88s1.46-.4,2.17-.63a9.17,9.17,0,0,0,3.91-2.09c.74-.76-1.22-1.41-1.63-1.5a3.54,3.54,0,0,0-3.13.53,6.55,6.55,0,0,1-2.77,1.29,24.82,24.82,0,0,0-3.23,1.15,30.68,30.68,0,0,1-3.4,1.11c-1.06.33-2.12.78-3.2,1s-2,.62-2.92.91c-1.18.35-2.38.57-3.56.88s-2.33.59-3.43,1a3.71,3.71,0,0,0-1.32.76c-.36.35.44-.34-.12.11a4.73,4.73,0,0,1-.45.36l3.52.29-.19-.12.6.54c-.23-.53-.59-1-.81-1.53a8.73,8.73,0,0,0-.8-1.76,2.5,2.5,0,0,0-1.5-1,5.81,5.81,0,0,0-1.18-.19c-.47,0-2.46,0-.36,0l2.1.72c-.35-.28-.31-.88-.36-1.26a1.88,1.88,0,0,0-.58-1.23,4.12,4.12,0,0,0-4.3-.35c-.23.18-.41.48-.62.63l2.2-.37h-.22l2.34,1c-.17-.28-.07-.81-.13-1.14A2.46,2.46,0,0,0,37.52,38c-.75-.89-2.93-.88-3.9-.53-.82.3-1,.85-1.6,1.41l4.81.39c-.62-.78-.08-2.27-.1-3.2,0-1.63-5-1.87-5-.4Z"/></g><g class="cls-3"><path class="cls-5" d="M48.12,19.05a21.35,21.35,0,0,0-6.25-4.68c-1-.42-2.06-.82-3.1-1.19a8.31,8.31,0,0,0-1.62-.39c-.26,0-.75,0-1-.11.59.14-.11-.13-.29-.23a11.45,11.45,0,0,0-6.75-1.59c-1.19.12-2.26.55-3.42.74-.51.09-1,0-1.54.08a12.92,12.92,0,0,0-2.15.5c-1.15.28-2.29.54-3.44.85a22.68,22.68,0,0,0-3.39,1.41,13.3,13.3,0,0,0-2.53,1.66c-.84.64-1.91,1.06-2.72,1.78a20.52,20.52,0,0,0-2.18,2.64,27.16,27.16,0,0,0-2.15,2.87C5,24.28,4.24,25.06,3.69,26s-1.2,1.9-1.75,2.85a9.2,9.2,0,0,0-1,3.1c-.1.62-.07,1.28-.13,1.85s-.28.91-.38,1.37C.18,36.19.3,37.28.16,38.35a25.57,25.57,0,0,0-.14,4,17.33,17.33,0,0,0,1.52,7c.46.94,1.11,1.78,1.54,2.74s1,2.16,1.41,3.26c.93,2.26,2.8,3.62,4.24,5.51a14.67,14.67,0,0,0,4.88,4.52,25.71,25.71,0,0,0,5.81,2.34c1.14.27,2.3.11,3.42.38a13.36,13.36,0,0,0,3.36.62c1.45,0,2.8.37,4.27.08a17.68,17.68,0,0,0,4-1.62A39.62,39.62,0,0,0,41,63.32a53.77,53.77,0,0,1,6.83-4.21,12.24,12.24,0,0,0,2.93-2.17c.83-.9,1.2-2.15,2.07-3a2.5,2.5,0,0,0,.2-3.28A2.56,2.56,0,0,0,49.75,50a3.4,3.4,0,0,0-.88.52l-.27.19c.32-.06.35-.09.07-.07-.7,0-1.38-.08-2.08,0a6,6,0,0,0-2.21.52,13.49,13.49,0,0,1-1.33.74,8.46,8.46,0,0,1-2.25,0c-.74,0-1.47,0-2.2,0a9.72,9.72,0,0,0-4.38,1.15c-1.14.71-.91,1-2.13,1a4.83,4.83,0,0,1-2.1-.73c-.48-.36-.82-.86-1.29-1.23-.1-.07-.73-.6-.34-.2a6.48,6.48,0,0,1-.84-1.11,1,1,0,0,1-.22-.92c0-.18.24-1.18.19-1.17l-.51,1q.39-.29.75-.6a2.53,2.53,0,0,0,.65-2.43,3.77,3.77,0,0,0-.95-1.74c-.2-.24-.67-.85-1-.94-.14-.15-.14-.13,0,.06s.14.22,0-.23a4.16,4.16,0,0,0-.41-1c-.07-.13-.7-.89-.6-.7s-.08-.32-.1-.42c-.1-.53-.09-1.09-.17-1.63a14.72,14.72,0,0,0-.63-1.91,4.5,4.5,0,0,1,.37-2.92,3.41,3.41,0,0,0,.21-.82c0-.67-1,.6-.36.48a4.57,4.57,0,0,0,1.41-.75,5.38,5.38,0,0,0,1.53-1.55c.31-.49.44-1.11.79-1.57A8.16,8.16,0,0,1,29.59,30c.49-.43.8-1,1.28-1.45a4,4,0,0,1,1-.51,3.78,3.78,0,0,0,.53-.27c.6-.43.33.16-.43-.32l-.89-.9c-.28-.48.62,1.09.69,1.16a5.71,5.71,0,0,0,.95.82,5.17,5.17,0,0,0,2.79,1.16c2,.09,3.24-.86,4.88-1.66.82-.41,1.7-.7,2.54-1a18,18,0,0,1,2.23-.91c1.46-.35,3.13-.75,3.95-2.2a2.54,2.54,0,0,0-.39-3c-1.43-1.43-3.21-1.35-5.07-1.65a31.46,31.46,0,0,1-5.31-1.4c-3.34-1.19-7-2.47-10.62-2.37a25.74,25.74,0,0,0-5.62.33,48,48,0,0,0-5,1.34,17.64,17.64,0,0,0-4.43,3.13,26,26,0,0,0-3.94,4.5c-1.18,1.57-1.95,3.3-3,4.94s-1.23,3.17-1.89,4.81a9.61,9.61,0,0,0-1,2.7l-.24,2.59a17.87,17.87,0,0,0,.64,5.95A30.5,30.5,0,0,0,8.13,56c2.18,3.19,5.08,6,9,6.82a54.09,54.09,0,0,0,6.72.7,34.83,34.83,0,0,0,6.46-.25,16.31,16.31,0,0,0,3-.66,10.21,10.21,0,0,1,1-.38c.49-.1,1,0,1.53-.17s.77-.37,1.18-.49,1.08-.15,1.61-.29c1.11-.28,2.14-.75,3.28-.94l-2.83-3.68c.28-.49.64-.39.39-.45a2.5,2.5,0,0,0-.69.12,6.83,6.83,0,0,0-1.47.41,21.23,21.23,0,0,1-3.78,1.53c-2.85.53-5.92.41-8.59,1.65C22.7,61,23.81,64.73,26.22,64.6a33.31,33.31,0,0,0,4-.51l1-.17c-.1,0-.68.09-.12,0a9,9,0,0,0,1.54-.27c2.52-.75,2.65-3.3,1.44-5.27s-2.89-2.74-4.8-3.6a20,20,0,0,1-2.85-1.54A11.72,11.72,0,0,1,24,51.6c-.91-1-.79-3.06-.32-4.25,1-2.61-.46-4.48-2.41-6-.71-.55-.66-1-.82-2a6.61,6.61,0,0,1,.3-3,11.9,11.9,0,0,1,3-5c1-1,2.08-1.92,3.1-2.9.83-.8,1.52-1.88,2.41-2.59A3.81,3.81,0,0,1,32,25.13a6.28,6.28,0,0,1,1.53.35,12.28,12.28,0,0,1,1.73.49c2.49,1.26,5.07-1.83,3-3.93a5.85,5.85,0,0,0-3-1.81c-1.23-.3-2.2-.94-3.53-.93a73.18,73.18,0,0,0-7.41.21c-1.25.15-2.48.44-3.74.53a12.61,12.61,0,0,0-4.34.91,16,16,0,0,0-5.52,3.7,21,21,0,0,0-4.13,6.52,11.14,11.14,0,0,0-.55,3.39,28,28,0,0,0-.18,4.09A38.23,38.23,0,0,0,7.13,47c.31,1.06.74,2.08,1.08,3.13a22.77,22.77,0,0,0,1.35,3.76c1.18,2.23,3.57,3.76,5.67,5A20.68,20.68,0,0,0,19,60.52a20.45,20.45,0,0,0,4.2.68,2.52,2.52,0,0,0,2.94-1.45,2.49,2.49,0,0,0-1-3.12,28.8,28.8,0,0,0-5.07-1.71,14,14,0,0,1-2-.57A11.89,11.89,0,0,1,16,52.8c-1-.89-1.32-2.74-1.69-4a23.7,23.7,0,0,1-.71-5.75c-.08-1.76-.38-3.79.16-5.48a8.88,8.88,0,0,1,2.1-3.9,38.32,38.32,0,0,1,3.73-3.48c.61-.47,1.35-.77,2-1.18.14-.09,1.1-.58.44-.37a4.64,4.64,0,0,1,1.4-.17l-1.26-4.66c-1.05.75-2.79,1.13-4.05,1.87a13.51,13.51,0,0,0-4,3.84,12.81,12.81,0,0,0-2.67,4.68c-.39,1.73-.78,3.48-1.12,5.21a10.71,10.71,0,0,0,.25,5.86,14.9,14.9,0,0,0,2.5,5.12,15.19,15.19,0,0,0,4.44,3.44c1.24.64,2.76,1.78,4.21,1.23s2.71-2.88,1.11-4.18a28.83,28.83,0,0,1-2.91-2.36c-.5-.53-1-1.08-1.48-1.6-.17-.17-.33-.36-.52-.52-.46-.37.16.28.16.29A8.32,8.32,0,0,0,18,44.85c0-.68,0-1.35.06-2,0-1.46,0-2.92,0-4.38L13.42,39.7c-.15-.31,0,.47,0,.49,0,.31,0,.62.07.93A22.76,22.76,0,0,0,14.06,44c.44,2,.69,4,1.23,6,.26.91.71,1.73,1,2.62.23.63.37,1.28.63,1.91a5.57,5.57,0,0,0,3.55,3.7c2.31.63,3.63-1.77,2.82-3.67-.69-1.65-2.62-2.2-4.25-2a8,8,0,0,0-2.12.51,4.41,4.41,0,0,0-2,1.82l.9-.89-.23.15,3.76,2.16c.08-1.07.55-2.06.57-3.17A21.27,21.27,0,0,0,19.66,50c-.3-2.32-.52-4.65-.86-7s-1-4.59-1-6.84c0-1.62,0-3.45,1-4.77s3-2.54,3-4.5c.1-2.38-2.23-4-4.43-4s-3.94,1.43-5.32,3a8.35,8.35,0,0,0-1.77,2.77A11.47,11.47,0,0,0,10,32a2.53,2.53,0,0,0,2.5,2.5c2.37-.07,3.09-2.09,2.69-4.11a2.5,2.5,0,1,0-4.82,1.33l0-.49.64-1.1-.12.1,1.77-.73h-.19L15,32a6.58,6.58,0,0,1,.08-1.83,4.93,4.93,0,0,1,1.46-1.69c.19-.17.5-.36.67-.55-.1.11.35-.21.22-.07l-.05,0c-.54-.43-.6-1.11-.2-2a3.74,3.74,0,0,0-.67.65,13.74,13.74,0,0,0-2.67,3.41,12.87,12.87,0,0,0-1,5.14c-.22,3.73.9,7.55,1.38,11.25.23,1.73.41,3.47.61,5.2a8.37,8.37,0,0,1,.08,2.12c-.13.93-.47,1.76-.54,2.72a2.52,2.52,0,0,0,3.76,2.16,3.26,3.26,0,0,0,1.13-1c.26-.32.22-.32-.12,0s-.38.32,0,.16c.21,0,.72-.32.44-.1h.27a1.7,1.7,0,0,1-.93-.43l2.83-3.67a.39.39,0,0,1,.24.23c-.1-.26-.32-.5-.43-.76s-.25-.81-.37-1.18c-.26-.83-.66-1.59-1-2.4a18.35,18.35,0,0,1-.68-2.84c-.34-1.72-.71-3.42-1.05-5.13-.28-1.38-.19-2.79-.83-4.13-1.11-2.29-4.69-1.11-4.66,1.26,0,1.69,0,3.37,0,5.05a15.25,15.25,0,0,0,.26,4.72c.38,1.32,1.58,2.24,2.48,3.21a30.36,30.36,0,0,0,3.5,3l1.1-4.18c.89-.33,1.69.38.74-.14l-.51-.29c-.55-.3-1.12-.57-1.65-.9a7.2,7.2,0,0,1-2.7-2.61A15.08,15.08,0,0,1,15,42.6a11,11,0,0,1,.61-3.93,23,23,0,0,1,.83-3.82,15.53,15.53,0,0,1,2.08-2.92,9,9,0,0,1,3.19-2.5,20.6,20.6,0,0,0,2.92-1.29,2.53,2.53,0,0,0-1.26-4.66c-2.22-.13-4.25,1-6.07,2.2a32.92,32.92,0,0,0-4.74,4.17,12.58,12.58,0,0,0-2.05,2.38,18.41,18.41,0,0,0-1.27,3,16.76,16.76,0,0,0-.74,6.83,34.51,34.51,0,0,0,.69,7.17,18.31,18.31,0,0,0,2.27,6,11,11,0,0,0,2.65,2.35,10,10,0,0,0,2.76,1.66c1,.31,2,.55,3,.85a13.25,13.25,0,0,1,2.78.81l1.92-4.57c-1.07-.16-2.25-.15-3.31-.37a13.66,13.66,0,0,1-2.53-.91,14.62,14.62,0,0,1-4.12-2.79c-1.24-1.22-1.45-3.29-2-4.87a25,25,0,0,1-1.34-6c-.12-1.14-.32-2.28-.33-3.43s.12-2.27.21-3.4a5.38,5.38,0,0,1,.48-2.25,29,29,0,0,1,1.74-2.88,10.19,10.19,0,0,1,3.51-3.21,9.29,9.29,0,0,1,2.37-1c1.07-.25,2.24-.19,3.34-.36A48.34,48.34,0,0,1,30,24.35c.5,0,1,0,1.49,0,.23,0,.45,0,.68,0-.35,0-.4-.12,0,.11a6,6,0,0,0,1.89.64,2.48,2.48,0,0,1,.55.15c-.51-.29.17.33.22.38l3-3.93a20.23,20.23,0,0,0-3.13-1.06,9.82,9.82,0,0,0-3.49-.46,8.29,8.29,0,0,0-5.88,2.63c-2.87,3.35-6.59,5.81-8.45,10a12.86,12.86,0,0,0-1.37,6.61A18.93,18.93,0,0,0,16,42.4a5.25,5.25,0,0,0,2.09,2.73c.12.09,1.07.88,1.06.89-.41.37.39-1.3-.18-.3a6.48,6.48,0,0,0-.53,3.48,8.19,8.19,0,0,0,1.75,5.63A18.37,18.37,0,0,0,26,58.77c1,.47,2,.83,2.92,1.38a2.7,2.7,0,0,1,.81.66.83.83,0,0,0,.07.18c.51.63-.26.69.14-.61l.65-1.1c.7-.36.82-.47.35-.34s-.35.07-.08,0c-.4.07-.82.1-1.22.17a32.09,32.09,0,0,1-3.37.46l1.26,4.66a13.56,13.56,0,0,1,3.77-.66,20.46,20.46,0,0,0,5.27-1A17.11,17.11,0,0,1,40,61.19a4.32,4.32,0,0,0,3.42-2,2.54,2.54,0,0,0-2.82-3.68c-1.59.28-3.1.89-4.69,1.2a5.54,5.54,0,0,0-1.36.44c-.68.33.31.11-.55.1a8,8,0,0,0-2.35.63c-3.15.9-6.36.69-9.59.44a20.44,20.44,0,0,1-4.4-.53,8.65,8.65,0,0,1-3.83-2.53,28.06,28.06,0,0,1-2.56-3.55,20.81,20.81,0,0,1-2.34-4.36,28.22,28.22,0,0,1-1.24-4.78,24.13,24.13,0,0,1,.16-4.73c0-.74-.3.22.19-.47A5.53,5.53,0,0,0,8.61,36c.24-.66.47-1.34.68-2a19.81,19.81,0,0,1,2-4.16,25.3,25.3,0,0,1,6.32-7.15,10.25,10.25,0,0,1,1.1-.87,11.5,11.5,0,0,1,2-.51c.84-.22,1.68-.43,2.52-.66a7.56,7.56,0,0,1,2.23-.15,25.41,25.41,0,0,1,5,.17A44.62,44.62,0,0,1,35.32,22c1.77.58,3.52,1.26,5.34,1.68.86.2,1.75.33,2.63.46a8.28,8.28,0,0,1,1.94.22l-.39-3c.6-.54.69-.68.27-.4l-.41.21c-.33.16-.16.13.5-.08l-1,.13A17.55,17.55,0,0,0,41,22.42c-1,.42-2.12.79-3.13,1.3-.61.31-1.27,1-2,1,.6,0-.46-.1-.36-.3-.11-.13,0,0,.25.43a3.42,3.42,0,0,0-.37-.8,3.38,3.38,0,0,0-3.66-1.34,9.61,9.61,0,0,0-5,3.06c-.58.69-1.35,1.18-1.94,1.86S24,29.35,23.4,30c.29-.32-.72.31-.87.38a3.75,3.75,0,0,0-1.16.7,5.08,5.08,0,0,0-1.2,2.55,11.5,11.5,0,0,0-.78,3.47,9.29,9.29,0,0,0,.69,3.17,15.47,15.47,0,0,1,.42,2.51,6.63,6.63,0,0,0,1.64,3l-.65-1.11a7.27,7.27,0,0,0,1.25,2.56c.2.21.42.41.64.6s.25.47.17.07l.65-2.44a5.78,5.78,0,0,0-1.9,5.28,7.73,7.73,0,0,0,2.59,4.66,14.61,14.61,0,0,0,3.48,2.67,8.83,8.83,0,0,0,4.79.89,6.66,6.66,0,0,0,2.64-.81,4.93,4.93,0,0,0,1-.73c.35-.37-.24-.08.33-.15.39-.05.74-.29,1.13-.36a8.41,8.41,0,0,1,1.23,0c1,0,2.08.07,3.12,0a7,7,0,0,0,2.74-.61,4.92,4.92,0,0,1,1.62-.7,22.51,22.51,0,0,0,3-.07,14.39,14.39,0,0,0,2.38-1.21l-3-3.92a10.43,10.43,0,0,0-1.77,2.44,4.54,4.54,0,0,1-1.57,1.54c-.85.58-1.83.94-2.7,1.5l-2.82,1.77c-3.4,2.12-6.52,4.65-10.35,6-1.11.41-2,0-3.1,0a11.29,11.29,0,0,1-2.37-.34,18.41,18.41,0,0,0-3.3-.43,5.58,5.58,0,0,1-2.11-.64c-.81-.39-1.69-.59-2.51-1A10.23,10.23,0,0,1,14.45,60a13.11,13.11,0,0,1-1.74-2.11,30.47,30.47,0,0,0-2.08-2.32,15.48,15.48,0,0,1-2.7-4.7,24.83,24.83,0,0,0-1.47-3,11.88,11.88,0,0,1-1-2.6A14.78,14.78,0,0,1,5,39.43c.12-1,.11-2,.22-2.91s.48-1.78.54-2.75a6.09,6.09,0,0,1,.46-2.42,11.32,11.32,0,0,1,.68-.91c.3-.45.51-1,.78-1.42a21.06,21.06,0,0,1,1.68-2.4c.55-.74,1-1.52,1.57-2.23s1.27-1.79,2-2.55a12.71,12.71,0,0,1,2.08-1.42A18.18,18.18,0,0,1,17.16,19a23.88,23.88,0,0,1,2.32-1,27.54,27.54,0,0,1,3.58-.89,9.7,9.7,0,0,1,1.74-.39,13,13,0,0,0,2-.19,17.36,17.36,0,0,1,3.09-.66,6.69,6.69,0,0,1,3,.72,7.27,7.27,0,0,0,2.83,1.13,10.44,10.44,0,0,1,3.07.87,16.7,16.7,0,0,1,5.8,4.06c2.31,2.24,5.85-1.29,3.54-3.54Z"/></g><g class="cls-3"><path class="cls-6" d="M29.79,30.39a3.26,3.26,0,0,0-.44,1.75l1.83-2.41a3.85,3.85,0,0,0-2.32,1,3.73,3.73,0,0,0-.92,2.56l1.74-1.75a11.58,11.58,0,0,0-1.91.2,3.77,3.77,0,0,0-2.12,1.84c-1.1,2.06.24,3.92,2.14,4.67l.67-4.91a3.57,3.57,0,0,0-1.93.54c-.05,0-.56.38-.23.19s-.43.17-.39.15a3,3,0,0,0-2,3.19c.41,2.64,2.95,2.56,5,2.49,3.2-.11,3.23-5,0-5-2.17,0-5,1.13-4.38,3.83.59,2.51,3.14,2.6,5.23,2.48,3.19-.19,3.25-5,0-5-2.22,0-4.79,2.21-4.13,4.59.73,2.67,4.06,2.83,5.89,1.29,1.64-1.37.32-4.4-1.77-4.26s-4.31,1.85-4.49,4a3.13,3.13,0,0,0,2.28,3.28,4.44,4.44,0,0,0,2.05.07c.21,0,.41-.08.62-.12,0,0,.86-.16.46-.14L30,40c-2.12.69-4.77,2.53-3.73,5.15a3.32,3.32,0,0,0,3.14,2c1,0,1.93-.56,2.9-.61,3.19-.19,3.24-5,0-5a4.23,4.23,0,0,0-4.47,4,2.53,2.53,0,0,0,1.24,2.16c1.89,1.13,4.54,0,5.73-1.63a2.5,2.5,0,0,0-.39-3c-2.55-2.18-5.08.21-5.87,2.78a3.27,3.27,0,0,0,5.59,3.18,2.52,2.52,0,0,0-2.44-4.17c-3,.62-5.3,4.53-3.56,7.32,1,1.54,2.6,1.45,4.13,1,1.31-.37,2.8-1.17,3-2.66a2.55,2.55,0,0,0-2.41-3.17c-3.46-.14-7,6-2.47,7.23,1.75.48,3.18-.73,4.51-1.64C36.63,51.74,38.2,50.16,38,48a2.87,2.87,0,0,0-5-1.67,3.88,3.88,0,0,0,.06,5.52,3.42,3.42,0,0,0,5.57-1.17,3.26,3.26,0,0,0-.63-3.26,8.88,8.88,0,0,0-1.61-1.14l.89.9L37.25,47l.34,1.26a9.6,9.6,0,0,0,.2-1.16A4.09,4.09,0,0,0,37.63,46a18.07,18.07,0,0,0-1.34-2.72L34.13,47h.14L33,46.68c-.44-.19-.44-.58-.14.08-.1-.21.18.54.22.64a5.9,5.9,0,0,0,1.28,2.24,3.48,3.48,0,0,0,2.7,1,5.15,5.15,0,0,0,1.4-.3l.54-.19q.78-.18-.42-.09l-1.1-.64.08.08-.64-1.1c-.16-.49,0-1.21-.12.13a3.69,3.69,0,0,0,.13,1.2,3.21,3.21,0,0,0,2.91,2.21,4.28,4.28,0,0,0,4.29-4.21c.15-2.21-2.81-3.22-4.27-1.76s-2.62,4.27-.77,6c2.26,2.13,5.72,0,6.74-2.4a2.54,2.54,0,0,0-.64-3.22,2.49,2.49,0,0,0-3.28.19,4.23,4.23,0,0,0-1.16,2.67,2.49,2.49,0,0,0,1.83,2.41,5.75,5.75,0,0,0,6.67-5.09,2.5,2.5,0,0,0-1.83-2.41c-3-.64-4.41,3-3,5.23,1.66,2.75,4.66.77,6.38-.64l-4.18-1.11c.32,1.57,1.2,2.9,3,2.89s2.41-1.33,3.8-1.92l-1.26.34c-.11,0-1-.36-.12,0a3.49,3.49,0,0,0,1.15.25,3.88,3.88,0,0,0,2-.65,4.61,4.61,0,0,0,2.13-3.7c.1-3.22-4.9-3.21-5,0,.21-.35.24-.5.09-.43.47-.19.5-.23.08-.14H53.8c.33.18.38.21.13.08A2.68,2.68,0,0,0,53.1,44a3.44,3.44,0,0,0-2.25.28,5.81,5.81,0,0,0-1.34.87c-.92.76-.31.11.44.4l1.11.64L51,46.05l.65,1.1a5,5,0,0,1-.2-.87c-.4-2-2.85-2.2-4.18-1.1-.12.1-.42.37-.46.39l-.21.15q-.84.44.78.06l1.1.65a1.17,1.17,0,0,1,.29,1.41l-.89.9.09-.06L46,48.93l.11,0-1.84-2.41c.06-.51-.14-.12-.4.15s-.36,0,.06.12l1.84,2.41,0-.34-.34,1.27v-.06l-3.93-3a3.66,3.66,0,0,1-.43.69l-.24.23Q40,46.68,43,50c.08-.24.09-.28,0-.13s0,.11.1-.13c.24-.42-.19.13.23-.29l-4.27-1.77a.88.88,0,0,1,1.12-.8l1.1.64a1.4,1.4,0,0,1,.42,1.3c0,.2,0,.19,0,0a3.83,3.83,0,0,0,.1-1,2.9,2.9,0,0,0-.86-2,3,3,0,0,0-2.77-.69,4.25,4.25,0,0,0-1.49.45q-.28.07.09,0l1.17.62c-.19-.37-.23-.43-.11-.17s.1.21,0,0a11.89,11.89,0,0,0-.67-1.71A3.51,3.51,0,0,0,34.13,42,2.53,2.53,0,0,0,32,45.78c.06.12.86,1.51.83,1.53s.14-.94-.1-.11a3.64,3.64,0,0,0-.11,1.09,2.89,2.89,0,0,0,1.1,2.12,4.65,4.65,0,0,0,.61.41c.16.11.47.43.24.14l-.64-1.1v-.5l.64-1.1.06-.09,1.27-.34q2,.73.08,2.47H34.61l.16.07-1.5-1.15c-1.16-1.77.39-1.3-.52-.87a6.37,6.37,0,0,0-.88.58l-.58.43c-.39.27-.63.22-.15.24L32.4,50l.12.13.74,1.76c-.13,1-.43.95.12.44l.12-.11c.43-.23.25-.19-.56.11l-2.41-3.16c.13-.84,1.24-1,.2-.77-.27.07-.55.16-.83.21l1.93.25-.23-.14.9.89a.62.62,0,0,1,.12.48c0-.2,0-.31.11-.33v0c0-.11.16-.14.34-.08l-2.43-4.18,1.73-.1.9.9.07,1.1a1.42,1.42,0,0,1,.07-.22s-.11.23.05-.11a4.77,4.77,0,0,0,.25-.43c0,.11-.55.36-.19.2l-1.26.34L31.89,47l-1.1-.64.13.12-.39-3c.59-.52.73-.69.41-.5-.14.08-.13.08,0,0-1.05.14.16,0,.68.31l1.24,2.16c.07.49-.1.78-.53.86s-.46.2,0,.15v-5a7.17,7.17,0,0,0-1.84.32,2.55,2.55,0,0,0-.69.23c-.25.2-.35-.13.14.16l.9.9-.11-.19.34,1.26c0,.87-.82,1,.28.64,2.55-.84,2.28-5.09-.67-4.91a8.28,8.28,0,0,0-1.48.23l-.62.16.17-.07,1.1.64.29.62v1.33c.09-.66-.22.8.06,0q-.24.18.12-.06a1.5,1.5,0,0,1-.56.1L28,38.59c.3-.26,1-.63,1.46-.33l.89.9.08.24v1.32c0,.28-.68.74-.22.43a1,1,0,0,1-.44.09v-5l-1,.07c-1.32.06.33-.17.56,1.13v1.32l0-.14-.64,1.1a2.51,2.51,0,0,1-.45.26c.27,0,.32-.06.14,0s.39,0,.47,0v-5c-.33,0-.65,0-1,.06a2.09,2.09,0,0,0-.56,0c-.21.09.14,0,.38.16l.9.9-.12-.22.34,1.26v-.19l-.34,1.26.1-.15-.89.9c.22-.15.22-.17,0-.07.27-.1.54-.2.8-.32s.56-.37.88-.51l-1.27.34h.3a2.49,2.49,0,0,0,2.45-2.17,2.54,2.54,0,0,0-1.79-2.74l-.31-.13,1.1.65.26.48v1.33c-1.25.52-1.58.77-1,.75h.48A8.6,8.6,0,0,0,31,36.39a2.41,2.41,0,0,0,1.75-1.74,11,11,0,0,1,.16-1.33l-.64,1.11c-.86.24-1,.32-.41.21.21,0,.43,0,.64-.09a2.51,2.51,0,0,0,1.84-2.41l0-.26L34,33.15l.12-.24c1.47-2.85-2.85-5.39-4.32-2.52Z"/></g><path class="cls-5" d="M35.29,24.5a11.28,11.28,0,0,0-4.67-1.4,23.59,23.59,0,0,0-2.91-.1,8,8,0,0,0-2.63.19,18.46,18.46,0,0,0-4.3,2.38,23,23,0,0,0-4,2.87,12.59,12.59,0,0,0-2.94,4.08,6.65,6.65,0,0,0-.77,2.09c-.09.76-.43,1.48-.45,2.26s-.21,1.41-.24,2.15c0,.94,0,1.91,0,2.85a11.76,11.76,0,0,0,.33,2.58,9.67,9.67,0,0,0,.84,2.62c.16.25.4.44.51.64.21.38.29.84.51,1.22a5.66,5.66,0,0,0,2.24,2,26.3,26.3,0,0,0,5.6,2.71c1,.31,2.49.46,3-.73s-.66-2.32-1.62-2.62a12.7,12.7,0,0,1-2.47-1.09c-.43-.24-.86-.41-1.29-.62a10.07,10.07,0,0,0-1-.53l-.3-.17c.1.21.13.24.08.1-.23-.36-.31-.86-.52-1.24-.12-.2-.7-1.33-.5-.57-.1-.38-.13-.77-.24-1.16a14.22,14.22,0,0,1-.41-5.32c.05-.39.23-.76.25-1.16s-.07-.64,0-.94.32-.87.4-1.32c0-.25,0-.7.08-.85.1-.33.41-.65.55-1a5.35,5.35,0,0,1,.53-1.2,12.26,12.26,0,0,1,1.6-1.78,22.31,22.31,0,0,1,4.09-3c.63-.4,1.29-.74,1.93-1.11a3,3,0,0,1,2-.51,15.12,15.12,0,0,1,2.61.13c.34.07.67.16,1,.22l.61.11q.7.18-.15-.09c.9.62,2.5.9,3.32,0s.06-2.15-.77-2.72Z"/><path class="cls-5" d="M35.17,53.17a2.79,2.79,0,0,1-.63.93c-.5.6,3.56,2.77,4.32,2.34s1.28-1.35,2.13-1.58l-4.32-2.13c.17,1.46-2.19,1.84-1.72,3.57.18.66,1.42,1.25,1.95,1.51s1.8,1,2.37.63a18.07,18.07,0,0,0,2.17-1.53,6.24,6.24,0,0,0,.75-.61c.2-.22.3-.54.58-.69l-4.16-1.89c.36.54-1.08,2.16-1.29,2.78-.5,1.42.78,2.12,1.94,2.69a4.63,4.63,0,0,0,2.53.68,2.83,2.83,0,0,0,1.4-.91l1.45-1.29c.21-.18,1.2-1.38,1.44-1.39l-4-2.36a7.68,7.68,0,0,1-1,2.2c-.42.62-.91,1-.79,1.81s3.71,2.76,4.48,2a16.7,16.7,0,0,0,3.15-4.26c.43-.78-3.77-3-4.48-2.22-.45.5-1.23,1.27-2,1.28l4,2.17c-.17-1.05,1.88-1.12,2.66-1.42a13.88,13.88,0,0,1,2.63-1l-4.32-2.14c.21.56-1,1.87-1.55,2l4.33,2.33c0-.76.77-1.07,1.3-1.5a17.29,17.29,0,0,1,2.15-2L48.32,51a29.92,29.92,0,0,1-2,2.66c-.47.71,3.68,2.91,4.48,2.22.38-.33.61-.8,1.1-1l-4.33-2.34c-2.71,2.69-5.37,5.41-8.81,7.14-1.71.87-3.23,2.06-4.92,3s-3.39,2-5.27,2.11a10.82,10.82,0,0,0-1.14.18,3.45,3.45,0,0,1-1,.1c-.85-.08-.55.09.88.52a11,11,0,0,0-2.76-1.67c-.44-.23-.88-.45-1.33-.66l-1-.44.68.37c0-.21-1.55-1-1.68-1.05a11,11,0,0,0-1.5-.63c-.12,0-1.84-.49-1-.2-.33-.12-.65-.3-1-.43a24.49,24.49,0,0,0-2.91-.78c-.34-.08-2.35-.59-2.47-.27L13,60a5.94,5.94,0,0,0-1.06-.34,3.24,3.24,0,0,0-1.35,0,.22.22,0,0,0-.16.31c.8,1.52,2.81,2.44,4.33,3.05a44.41,44.41,0,0,0,5.34,1.86,30.21,30.21,0,0,0,5.59,1.3c-.69,0-3.19-2-1.78-.74a6.51,6.51,0,0,0,1.1.79,7.72,7.72,0,0,0,3.17,1.11c.45,0,.59-.27.29-.6a9.49,9.49,0,0,0-6.05-2.79c-.85-.09-1.72-.21-2.57-.28-.55-.11-.54-.08,0,.07a9.4,9.4,0,0,0-.88-.34A7.36,7.36,0,0,0,17.41,63c-.82-.11-.26.64,0,.89a7.5,7.5,0,0,0,2.67,1.43,36.33,36.33,0,0,0,5.62,1.39c1.95.36,3.74-.14,5.65-.41a8.72,8.72,0,0,0,2.29-.61,14.2,14.2,0,0,1,2.75-.52A12.29,12.29,0,0,0,39.25,64a6.87,6.87,0,0,1,2.25-1c.78-.08-1.12-1.45-1.21-1.5a5.21,5.21,0,0,0-3-.95,6.23,6.23,0,0,0-2.1.92,16.68,16.68,0,0,1-2.4,1.09c-.86.28-1.77.23-2.64.45-.7.16-1.27.59-2,.72a20.19,20.19,0,0,1-4.87.62,19.64,19.64,0,0,1-5-1.17L21,65.52c-.32,0-.74-.23-.21,0A6.63,6.63,0,0,0,22,65.9c.58.13,1.18.2,1.77.28.41.06.82.1,1.23.13s.53.06.8.06c1.1,0,.26,1-1.53-1l.29-.59-.27,0,1.47.39c.09,0,2.5,1.81,1.49.78a4.79,4.79,0,0,0-.53-.48,9.26,9.26,0,0,0-2.12-1.2,25.54,25.54,0,0,0-4.05-1,33.35,33.35,0,0,1-3.93-1c-.64-.24-1.25-.56-1.91-.78-.1,0-.75-.16-.79-.25-.25-.6,1.36,1.37.95.58l-.16.31c-1-.3-1.09-.31-.25,0,.26.09.54.16.81.23a5.15,5.15,0,0,0,1,0,15.1,15.1,0,0,1,2.49.44c-.51-.24-.41-.2.3.13l.68.29a9.66,9.66,0,0,0,1.48.44c1,.21.6,0-1.3-.74.19.15.38.29.58.42a11,11,0,0,0,1.41.81,25.44,25.44,0,0,1,2.35,1.14A20.06,20.06,0,0,0,27.39,67c1.94.76,3.8.47,5.8.24a7.51,7.51,0,0,0,2.6-1c.86-.44,1.75-.82,2.59-1.3,1.76-1,3.4-2.18,5.23-3.08a30.22,30.22,0,0,0,4.32-3.07,40.63,40.63,0,0,0,4.11-4c.58-.57-3.58-2.57-4.32-2.33s-.92.75-1.41,1.18l4.48,2.22a28.67,28.67,0,0,0,2-2.67c.44-.85-3.61-2.74-4.32-2.33a15.74,15.74,0,0,0-2.27,2c-.56.48-1.48.82-1.5,1.66,0,1.15,3.35,2.67,4.32,2.33.79-.27,2.2-1.75,1.86-2.66-.44-1.19-3.15-2.34-4.32-2.14a11.81,11.81,0,0,0-2.43.89,11.36,11.36,0,0,1-3,.76l-.16.11a2.56,2.56,0,0,0,0,1.26c.09.57,1.27,1.14,1.65,1.35a5.51,5.51,0,0,0,2.37.82,4.1,4.1,0,0,0,2.86-1.57l-4.48-2.22a16.7,16.7,0,0,1-3.15,4.26l4.48,2c-.1-.61.66-1.21,1-1.69a7.85,7.85,0,0,0,.89-1.93c.31-1.09-3.28-2.4-4-2.37-1,0-1.47.93-2.22,1.57l-1.21,1.09c-.2.18-.4.38-.61.55l-.35.3q-.57.16.06.12L41.34,59c.65.58.15.32.35.07a2.22,2.22,0,0,0,.19-.53,6.53,6.53,0,0,1,.47-.91c.58-1,1.13-1.51.42-2.56a5.16,5.16,0,0,0-2.09-1.39c-.45-.2-1.56-.77-2.07-.49s-.76.8-1.2,1.18A14.86,14.86,0,0,1,35.11,56l4.32,2.14c-.39-1.45,1.9-2,1.72-3.58-.08-.61-1.51-1.29-1.95-1.5a4,4,0,0,0-2.38-.64c-.9.24-1.34,1.14-2.12,1.58L39,56.32a2.83,2.83,0,0,0,.63-.94c.37-1-4.2-3-4.48-2.21Z"/><path class="cls-5" d="M34,53.65c-1.14,1.28-2.95,1.33-4.33,2.2-.47.3.51,1.48.63,1.63a5.3,5.3,0,0,0,2.2,1.63c1.73.55,3.25,0,4.94-.36a13.72,13.72,0,0,0,2.16-.82,9.41,9.41,0,0,0,1-.39c.29-.15.54-.46.87-.5L38,53.66a7.75,7.75,0,0,1-2.66,2.08,16.07,16.07,0,0,0-3,2.27c-.52.55.77,1.8,1.07,2.08a3.9,3.9,0,0,0,2.5,1.3c.62,0,1.16-.55,1.67-.84.68-.4,1.39-.8,2.09-1.17,1.48-.78,3.06-1.29,4.56-2L40.64,54a9.77,9.77,0,0,1-2,2.74,12,12,0,0,1-2.58,2.5c-.61.39.89,1.92,1.07,2.09a6.25,6.25,0,0,0,1.28,1c.29.16.91.51,1.23.34a43.3,43.3,0,0,0,4.09-2.91c.67-.46,1.32-.93,2-1.42.46-.36,1-1,1.63-1.09L43.67,54a3,3,0,0,1-.91,1.52c-.36.35-.84.71-.76,1.28a4.53,4.53,0,0,0,2.91,3,1.69,1.69,0,0,0,1.71-.2,7.33,7.33,0,0,0,1-1c.58-.61-.92-2-1.31-2.32s-1.89-1.57-2.48-.94c-.2.21-.37.43-.57.63s-.24.2-.32.31-.46,0,.17.23l2.91,3c0-.41.54-.71.79-1a4,4,0,0,0,.89-1.79c.12-.71-.95-1.7-1.4-2.08A3.52,3.52,0,0,0,44,53.66c-.66,0-1.15.61-1.64,1-.65.52-1.32,1-2,1.5-1.37.93-2.58,2.14-4,2.93l3.57,3.38A12.19,12.19,0,0,0,42.44,60a10,10,0,0,0,2-2.74c.3-.77-.58-1.62-1.07-2.09a6.25,6.25,0,0,0-1.28-1c-.29-.16-.9-.51-1.23-.34-1.49.75-3.07,1.27-4.56,2-.74.38-1.44.82-2.18,1.21-.49.26-1,.79-1.58.79l3.58,3.38a15,15,0,0,1,3-2.26,8.06,8.06,0,0,0,2.65-2.08c.43-.66-.68-1.72-1.07-2.09a3.63,3.63,0,0,0-2.5-1.29,1.66,1.66,0,0,0-.82.42,3,3,0,0,1-.88.39c-.66.24-1.27.59-1.94.79s-1.35.34-2,.5a3.73,3.73,0,0,1-1.86.2l2.82,3.27c.69-.44,1.58-.53,2.31-.9a6.51,6.51,0,0,0,2-1.31c.56-.62-.91-2-1.31-2.31S34.59,53,34,53.65Z"/><g id="fjzSQB.tif"><path d="M39.25,46.73a.68.68,0,0,1-.85-.68.72.72,0,0,0-.24-.74,11.68,11.68,0,0,1-1.84-2.18.92.92,0,0,0-.71-.48.69.69,0,0,1-.47-.25c-.3-.43-.78-.69-1.08-1.12a7,7,0,0,0-.87-.85,4.7,4.7,0,0,1-1-1.56,2,2,0,0,1,0-1.53c.28-.75,0-1.5.13-2.24,0-.21.15-.4.17-.61.06-.47.4-.33.65-.28s.29.31.22.54a4.06,4.06,0,0,0-.35,1.4.48.48,0,0,1-.14.37.43.43,0,0,0-.15.41,8.06,8.06,0,0,1,0,1.9c0,.24.07.4.37.39s.46.2.63.5A8.58,8.58,0,0,0,35,41.32a2.17,2.17,0,0,0,1.21.7c.32.06.6.24.46.66-.05.18,0,.26.2.28a.78.78,0,0,1,.55.49,3.56,3.56,0,0,0,.85,1c.16.16.3.18.46,0a.36.36,0,0,1,.48-.09c.11,0,.24.1.23.25a.23.23,0,0,1-.19.22c-.29.08-.28.25-.15.48a.62.62,0,0,1,.09.29c0,.89.77,1.22,1.25,1.79-.15-.56.31-1.08,0-1.64-.12-.22.23-.49.68-.52.09,0,.25-.13.31,0s-.09.18-.18.23-.26.18-.22.31a2.61,2.61,0,0,0,.33.67c0,.07.13,0,.17-.07a.85.85,0,0,1,.78-.36,1.94,1.94,0,0,0,1.36-.46.63.63,0,0,1,.81-.15c.19.11.24-.07.29-.18a1.07,1.07,0,0,1,1-.65,4.65,4.65,0,0,1,1.62-.24,4.8,4.8,0,0,0,2-.33,7.2,7.2,0,0,1,1.52-.38c.22,0,.35-.33.61-.4a5.84,5.84,0,0,1,1.32-.06c.16,0,.32,0,.45-.11A.57.57,0,0,1,54,43a.25.25,0,0,0,.36-.08c.26-.42.67-.44,1.11-.5a2.39,2.39,0,0,0,.87-.44c.21-.14.39-.28.63-.06a.18.18,0,0,0,.32-.08c.11-.39.44-.32.71-.36.08,0,.18.09.24,0,.4-.65,1.1-.75,1.73-1a6.59,6.59,0,0,0,1.38-.94,10.24,10.24,0,0,1,1.75-.88c.34-.13.79,0,1-.5.12-.25.48-.38.73-.56a1.59,1.59,0,0,0,.54-1,.93.93,0,0,1,.25-.55.24.24,0,0,0,.08-.32c-.08-.12-.23-.07-.32,0a13.88,13.88,0,0,1-1.37.74c-.07.05-.16.09-.15.2s.24.23.06.35a1.44,1.44,0,0,1-.73.21,1.07,1.07,0,0,1-.34-.09c-.37-.1-.72-.25-1.09.07-.2.17-.52,0-.77.17-.76.38-1.6.58-2.35,1a.88.88,0,0,1-.53.07c-.19,0-.41-.1-.43.22,0,0-.08.09-.13.11-.58.18-1.18.31-1.77.54a5.45,5.45,0,0,1-1.38.3c-.47,0-.53.2-.33.63,0,.09.09.2,0,.28a.51.51,0,0,1-.37.13.24.24,0,0,1-.21-.26c0-.14.08-.38-.14-.33s-.66-.26-.84,0-.58.38-.88.42a2.66,2.66,0,0,0-1.32.38A.52.52,0,0,1,50,41a10.42,10.42,0,0,0-1.92.33c-.21,0-.26.17-.25.36s0,.38-.22.43-.22-.14-.29-.28-.72-.15-1,0a12.21,12.21,0,0,1-1.68.66,11.78,11.78,0,0,0-2.77,1.16c-.06,0-.15.1-.2.08-.54-.18-.66.2-.79.57-.07.21-.2.19-.34.09s-.3-.17-.33-.29c-.18-.58-.81-.88-.9-1.55a3.35,3.35,0,0,0-.5-1,5.21,5.21,0,0,0-1.2-1.81c-.27-.23-.34-.61-.67-.85a7.6,7.6,0,0,1-1.37-1.29c-.33-.39-.6-.84-.92-1.24a17.1,17.1,0,0,1-1.24-2.5A5.82,5.82,0,0,1,33,32.23a.39.39,0,0,1,.23-.41c.49-.23.4-1,1-1.08a1.88,1.88,0,0,0,1.36-.58c.14-.17.44,0,.67-.14a7.22,7.22,0,0,1,2-1,1.31,1.31,0,0,0,.49-.31,3.34,3.34,0,0,1,1.71-1c.57-.07.84-.62,1.29-.9.65-.43,1.35-.8,2-1.28A5.34,5.34,0,0,1,45,25a1.68,1.68,0,0,0,.34-.2,2,2,0,0,1,1.06-.44c.49,0,.82-.39,1.23-.57a18.14,18.14,0,0,1,1.74-.64c.61-.19.7-.49.43-1.09a7.22,7.22,0,0,0-.65-.95c-.25-.38-.44-.78-.65-1.17s-.55-.43-.75-.75a2.82,2.82,0,0,0-1-1.18c-.06,0-.09-.11-.18-.1-.38.06-.49-.2-.53-.49s-.19-.52-.57-.44a.78.78,0,0,1-.83-.3,2,2,0,0,0-.52-.34,1.27,1.27,0,0,1-.63-.66c-.12-.32-.59-.35-.63-.75-.2.08-.11.26-.18.36s-.24.38-.5.19c-.73-.54-1.63-.78-2.39-1.28-.16-.11-.34-.17-.42-.37a.34.34,0,0,0-.34-.18,4.4,4.4,0,0,1-2.69-.88.37.37,0,0,1-.13-.12c-.26-.34-.25-.34-.71-.27a.4.4,0,0,1-.38-.09,1,1,0,0,0-1.58-.06.47.47,0,0,1-.61,0c-.2-.12-.4-.3-.63,0-.34-.26-.81.09-1.13-.26-.13-.14-.22,0-.28,0-.21.33-.4.19-.62,0a2.74,2.74,0,0,0-.69-.45c-.26-.12-.36,0-.37.23,0,.47-.18.59-.65.51a2.59,2.59,0,0,0-1.32-.12,16.62,16.62,0,0,1-1.72.27.82.82,0,0,1-.51-.12c-.31-.12-.53-.19-.81.15a1.64,1.64,0,0,1-1.1.39c-.93.12-1.8.5-2.74.61a1.16,1.16,0,0,1-.64,0c-.11,0-.27,0-.27.14,0,.33-.26.34-.48.42a18.82,18.82,0,0,0-2.09.81c-.29.14-.5.51-.83.63a14.14,14.14,0,0,0-1.87,1.2,7.9,7.9,0,0,0-1.18.93c-.56.49-1.19.89-1.77,1.35a10.46,10.46,0,0,0-.84.79A8.37,8.37,0,0,1,9.09,20.9a13.93,13.93,0,0,0-2.57,2.52c-.38.44-.73.91-1.16,1.32A14.43,14.43,0,0,0,4,26.84c-.64.86-.78,1.92-1.35,2.8a.57.57,0,0,0-.08.25A25.86,25.86,0,0,1,2,32.78c-.09.53-.22,1.08-.36,1.61a1.55,1.55,0,0,0-.07.48,19.44,19.44,0,0,1-.21,2.4,12.81,12.81,0,0,1-.13,1.65A6.48,6.48,0,0,0,1.3,41c0,.07.05.17,0,.22-.31.48-.1,1-.08,1.5,0,.34.1.69.09,1a19.44,19.44,0,0,1,.23,2.08,7.27,7.27,0,0,0,.31,2,9.39,9.39,0,0,0,.73,2.47,11,11,0,0,0,1,2.66c.15.22.11.49.21.73a10.75,10.75,0,0,0,1.59,2.85c.65.76,1.14,1.64,1.81,2.38.39.43.83.81,1.24,1.22a20,20,0,0,0,1.94,1.73,2.74,2.74,0,0,0,.65.39,7.61,7.61,0,0,1,2.06,1.07c.47.37,1.05.51,1.46,1s1.06.44,1.55.75c.64.41,1.41.53,2,1a3.6,3.6,0,0,0,1.35.46,6.07,6.07,0,0,1,1.32.39,2.74,2.74,0,0,0,.91.1c.66,0,1.2.45,1.85.52A11.46,11.46,0,0,0,25.7,68a.72.72,0,0,1,.62.19.23.23,0,0,0,.2.08c1.05-.1,2.12.07,3.17-.09a4,4,0,0,0,1.47-.34.67.67,0,0,1,.34-.09,8.24,8.24,0,0,0,2-.53c.87-.23,1.7-.57,2.56-.82a10.6,10.6,0,0,0,1.38-.62c.78-.36,1.57-.71,2.33-1.12a13.11,13.11,0,0,0,3.14-2.06s0-.06.07-.06c.6-.08.94-.57,1.42-.86a10.65,10.65,0,0,0,1.55-1.14,13.38,13.38,0,0,1,1.26-1A6.06,6.06,0,0,0,48.63,58c.3-.45.8-.76,1.11-1.21.51-.72,1.07-1.39,1.53-2.16s.77-1.25,1.14-1.89A4.58,4.58,0,0,0,53.17,51c0-.31.32-.51.43-.82s.29-.88.41-1.32,0-.53-.43-.47a7.1,7.1,0,0,1-2.3.12,1.22,1.22,0,0,1-.26-.06c-.13-.07-.22-.17-.18-.32a.23.23,0,0,1,.32-.17c.63.35,1.28,0,1.91.09a3.71,3.71,0,0,1,.88,0c.11,0,.16,0,.22-.1a4.14,4.14,0,0,0,.56-1.29,13.88,13.88,0,0,1,.77-1.89c0-.09.08-.2.13-.29s-.05-.48.33-.39a.67.67,0,0,1,.48.7,8,8,0,0,1-.31,1c-.31.78-.4,1.61-.63,2.4a32,32,0,0,1-1.44,3.71c-.36.85-.9,1.6-1.29,2.43a21.09,21.09,0,0,1-1.08,1.84,8,8,0,0,1-1,1.28c-.74.85-1.45,1.74-2.26,2.52a19.68,19.68,0,0,1-3.05,2.48c-.7.44-1.41.89-2.09,1.37-1,.69-2,1.38-3,2a4.27,4.27,0,0,1-1.18.42c-.8.19-1.38.81-2.17,1s-1.4.48-2.1.7a3.9,3.9,0,0,0-1,.38c-.08,0-.17.11-.24.09a1.89,1.89,0,0,0-1.21.34,6.76,6.76,0,0,1-1.69.38c-.4.09-.83.4-1.31.19-.09,0-.18.07-.26.15s-.16.18-.19.17c-.51-.25-1,.23-1.58-.07a2.63,2.63,0,0,0-1.29-.33,1.62,1.62,0,0,1-.61-.12c-.77-.26-1.59-.35-2.38-.54a5.43,5.43,0,0,1-.54-.27,5.66,5.66,0,0,0-2.23-.41,1.3,1.3,0,0,1-1.06-.39.57.57,0,0,0-.41-.17,3.68,3.68,0,0,1-2.14-.8,1.55,1.55,0,0,0-1.16-.34c-.13,0-.24-.1-.35-.18a5.35,5.35,0,0,0-1.9-1,1.63,1.63,0,0,1-.75-.46,14.26,14.26,0,0,0-2.83-1.8,11.21,11.21,0,0,1-2.43-2c-.33-.36-.72-.67-1-1.06a6.26,6.26,0,0,1-1.11-1.45,4.89,4.89,0,0,0-1-1.29,9,9,0,0,1-1.31-2.26C2.51,53.9,2.31,53,2,52.21a4.87,4.87,0,0,1-.54-1.64c0-.42-.42-.71-.49-1.14A44.47,44.47,0,0,1,.31,45a23.23,23.23,0,0,1-.18-2.35A15.42,15.42,0,0,0,.21,40c-.09-.64.11-1.26,0-1.92a4.51,4.51,0,0,1,.07-1.31c.12-.82.31-1.64.38-2.46a4.55,4.55,0,0,1,.63-2.07,1.06,1.06,0,0,0,0-.66,3.58,3.58,0,0,1,.5-2.15,2.36,2.36,0,0,0,.23-.66c.08-.32.12-.69.48-.87a.23.23,0,0,0,.13-.17,2.83,2.83,0,0,1,.87-1.67c.05-.07.13-.16.11-.23-.14-.59.31-.87.64-1.22a.64.64,0,0,0,.19-.29A1,1,0,0,1,5,23.75a1.12,1.12,0,0,0,.6-.73.63.63,0,0,1,.15-.28,11,11,0,0,0,1.8-2.06,2,2,0,0,1,.61-.46c.6-.3.9-.91,1.36-1.35s1.17-.55,1.42-1.26c.08-.23.52-.37.69-.66t0,0c.66.06.83-.51,1.17-.87.13-.13.25-.21.37,0s.22.1.3,0a1.46,1.46,0,0,1,.9-.44,1,1,0,0,0,.71-.57,1.4,1.4,0,0,1,.9-.75,1.17,1.17,0,0,0,.54-.33.15.15,0,0,1,.06-.05,14.91,14.91,0,0,1,2.89-1.12c.06,0,.13,0,.17,0,.61-.49,1.41-.42,2.1-.7a15.54,15.54,0,0,1,2.55-.84.39.39,0,0,1,.26,0c.59.3,1.12-.08,1.67-.15a1.12,1.12,0,0,1,.35-.06c1.19.19,2.4-.13,3.56.05.68.11,1.36-.24,2,.13a10.07,10.07,0,0,1,3.24.26,7,7,0,0,1,2.93.92,4.5,4.5,0,0,0,1.41.37c.35.08.82-.06.91.5,0,.09.12.06.19,0a.33.33,0,0,1,.41.08c.33.36.86.38,1.19.64.55.44,1.25.51,1.79,1a10.24,10.24,0,0,0,1.32.84c.25.15.34.41.55.57a16.27,16.27,0,0,1,2,1.64,9.84,9.84,0,0,1,2.22,2.7c.21.49.74.82.92,1.36a.16.16,0,0,0,.22.1c.74-.28,1.62-.14,2.26-.79.15-.14.48-.13.72-.19.71-.17,1.44-.3,2.14-.49a4.08,4.08,0,0,0,1.56-.6,1.19,1.19,0,0,1,1.34.07.38.38,0,0,1,.14.36c0,.17-.17.12-.28.15-.78.16-1.49.54-2.25.72a6.08,6.08,0,0,1-1.73.37.33.33,0,0,0-.31.11c-.06.06-.18.15-.23.13-.45-.22-.77.17-1.15.25a2.33,2.33,0,0,0-.63.35c-.84.49-1.8.7-2.66,1.15a7.66,7.66,0,0,1-1.59.55c-.66.17-1.2.59-1.83.79a18.73,18.73,0,0,0-2.87,1.34,30.54,30.54,0,0,0-2.65,1.64c-.51.32-1,.57-1.57.84a13.05,13.05,0,0,1-2.06,1.14c-.63.19-1,.83-1.77.78-.21,0-.37.24-.54.36-.34.23-.8.18-1.08.55-.47.61-.52.76-.1,1.45.2.34.2.73.38,1.09a26.53,26.53,0,0,0,1.49,2.58,3.55,3.55,0,0,0,.83.81,8.05,8.05,0,0,1,2.17,2.26,12.81,12.81,0,0,1,.9,1.16,3.12,3.12,0,0,1,.45,1.62.52.52,0,0,0,.24.45c.15.12.24,0,.36-.08.47-.26.76-.74,1.28-1a4.45,4.45,0,0,1,.51-.19c.54-.15,1-.37,1.57-.55a6.37,6.37,0,0,0,1-.33c.58-.34,1.25-.3,1.82-.58a3.92,3.92,0,0,1,1.26-.25,3.33,3.33,0,0,0,.64-.16c.82-.32,1.71-.44,2.55-.74a13,13,0,0,1,1.78-.51c.34-.07.62-.33,1-.39.57-.09,1.13-.22,1.7-.31a3.76,3.76,0,0,0,.87-.31c1.14-.48,2.35-.75,3.46-1.28a11.93,11.93,0,0,1,2.09-.7c.55-.15,1.05-.51,1.62-.7a1.73,1.73,0,0,1,.78-.15.69.69,0,0,0,.63-.36c.14-.2,0-.33-.2-.5s-.11-.51,0-.75.25-.32-.06-.48-.12-.4-.12-.59a1,1,0,0,0-.33-.8,2.73,2.73,0,0,1-.67-1.18.92.92,0,0,0-.17-.36,6.36,6.36,0,0,1-.49-1.1,13.07,13.07,0,0,0-.6-1.18.61.61,0,0,1,0-.81c.12-.12.17-.26,0-.39a1.15,1.15,0,0,1-.32-.94A8.22,8.22,0,0,0,62,22c0-.06-.06-.16-.11-.18-.63-.17-.81-.7-1-1.24a.69.69,0,0,0-.3-.37.65.65,0,0,1-.19-.81c.08-.23.46-.21.51-.07s.38.35.52.54a17.79,17.79,0,0,1,1.69,2.36,4.18,4.18,0,0,1,.41,1.64c0,.84.27,1.65.29,2.49a.89.89,0,0,0,.2.49.55.55,0,0,1,.07.58c-.14.34.1.68.25.94A17,17,0,0,1,65.26,30c.22.49.56.9.79,1.38A7.59,7.59,0,0,1,66.58,34c0,.22,0,.38.27.49s.13.31,0,.45-.26.14-.38.23-.36.35,0,.54a.28.28,0,0,1,.13.3c0,.1,0,.21,0,.31A1.61,1.61,0,0,1,66,38a7.48,7.48,0,0,1-2.16,1.31,9.6,9.6,0,0,0-1.67.64,9.63,9.63,0,0,1-1.94.86c-.1,0-.12.12-.18.18a1.34,1.34,0,0,1-.76.44.68.68,0,0,0-.4.19,3.31,3.31,0,0,1-1.57.77A12.44,12.44,0,0,0,56,43,8.64,8.64,0,0,1,52.34,44a3.55,3.55,0,0,0-.83.19.91.91,0,0,1-.65,0,.33.33,0,0,0-.46.23c0,.13-.08.24-.22.24-.59,0-1.15.36-1.75.1-.28-.12-.51.11-.77.14-.52.07-1,.23-1.54.35a.2.2,0,0,0-.12.07c-.23.4-.64.43-1,.55a36.77,36.77,0,0,0-3.48,1.49c-.26.11-.65.27-.7.69,0,.22-.2.16-.31.08a9.58,9.58,0,0,0-1.28-.82C38.93,47.23,39,47,39.25,46.73Z"/><path d="M32.63,28.19a1.17,1.17,0,0,1,1.14.61c.13.17,0,.49.16.71,0,0-.07.13-.16.12a.16.16,0,0,1-.11-.07c-.72-1-1.56-.7-2.43-.23s-.89,1.14-.22,1.8a3.81,3.81,0,0,1,.76,1.45.24.24,0,0,1-.39.25c-.26-.2-.61-.25-.83-.5a.39.39,0,0,0-.46-.09c-.18.09-.17.26-.15.43a.76.76,0,0,1-.75.75c-.41-.05-.82-.12-1.23-.19-.22,0-.47-.06-.56.16s-.26.54,0,.83a3.6,3.6,0,0,1,.28.4c.11.23.13.46-.18.53a.49.49,0,0,0-.27.22.25.25,0,0,1-.41,0,1.2,1.2,0,0,0-1.3,0,.22.22,0,0,0,0,.32c.38.57.6,1.27,1.24,1.66.11.06.38.12.24.35a.38.38,0,0,1-.48.12,1.21,1.21,0,0,0-.95.11.92.92,0,0,0-.28,1.52c.1.11.35.22.16.38s-.36,0-.48-.17c-.74-1-.54-1.75.63-2.3.21-.1.32-.21.14-.39-.43-.42-.62-1-1.12-1.36a.29.29,0,0,1-.09-.36.26.26,0,0,1,.3-.21c.67.09,1.18-.38,1.81-.46.23,0,.19-.19.08-.37a1.18,1.18,0,0,1,.72-1.76c.34-.08.64-.32,1-.25.15,0,.28-.12.22-.31a.34.34,0,0,1,.2-.44c.34-.09.52-.46.89-.46.21,0,.22-.15.16-.33a1.31,1.31,0,0,1,.74-1.62c.44-.25.87-.51,1.31-.75A1.22,1.22,0,0,1,32.63,28.19Z"/><path d="M16.73,4.22c.21.83.41,1.67.65,2.5A2.6,2.6,0,0,0,18,8.07a3.7,3.7,0,0,0,.36.33c.34.21.28.49.17.79s-.39.18-.6.14-.37-.05-.47-.16c-.39-.41-.55-.08-.72.21s-.17.35-.27.51c-.36.58-1,.64-1.56.83-.25.08-.53.08-.8.16s-.63-.31-.74-.64a3.28,3.28,0,0,1-.13-1.54,2.65,2.65,0,0,1,1.52-2A2.25,2.25,0,0,1,16,6.5c.14,0,.29,0,.31-.18a2.1,2.1,0,0,0-.08-1.19A6.58,6.58,0,0,1,15.74,2c0-.21.14-.25.3-.24a.45.45,0,0,1,.44.39A9.33,9.33,0,0,1,16.73,4.22ZM14,9.45a.68.68,0,0,0,.46.68.64.64,0,0,0,.73-.22c.26-.25.42-.64.89-.54a.16.16,0,0,0,.1-.08c0-.45.36-.74.45-1.14a.48.48,0,0,0-.19-.44c-.33-.32-.66-.17-1-.07A1.9,1.9,0,0,0,14,9.45Z"/><path d="M32.35,1.67a21.45,21.45,0,0,0,.18,2.84c.08.33.21.46.51.33a1.79,1.79,0,0,1,1-.1,1.52,1.52,0,0,1,1.17.78,4.16,4.16,0,0,1,.13,3.42c0,.1-.09.17-.19.14s-.4-.17-.44-.35A2.29,2.29,0,0,1,34.75,7a.34.34,0,0,0,0-.41,1.7,1.7,0,0,0-2-.46c-.2.1-.21.3-.24.5a5.18,5.18,0,0,1-.13,1.11c-.15.4-.28.44-.6.18a1.23,1.23,0,0,1-.36-1.33,6.26,6.26,0,0,0,.08-2.44.94.94,0,0,1,0-.44,1.38,1.38,0,0,0-.07-1.16.34.34,0,0,1,0-.35.44.44,0,0,0,0-.47.59.59,0,0,1-.05-.59c0-.12.08-.24,0-.35-.35-.4,0-.57.27-.7s.44.08.55.36A3,3,0,0,1,32.35,1.67Z"/><path d="M42.23,7.88a4.87,4.87,0,0,1,0,.6c-.19.62-.6.87-1.44.83-.13,0-.28-.11-.35.08s.1.24.21.34a1.14,1.14,0,0,0,1.17.34.23.23,0,0,1,.28.1c.09.16-.07.2-.15.27a1.83,1.83,0,0,1-2.36,0A1.55,1.55,0,0,1,39,9.27a.38.38,0,0,0-.21-.42c-.35-.14-.3-.4-.23-.66s.2-.49.55-.48a.51.51,0,0,0,.53-.4,2.55,2.55,0,0,1,.41-.74c.38-.5.94-.39,1.4-.32.29,0,.54.41.63.78A1.67,1.67,0,0,1,42.23,7.88Zm-1-.08c0-.13.05-.35-.19-.31s-.27.26-.28.45.14.2.28.21S41.19,7.94,41.22,7.8Z"/><path d="M44.24,13.23a5.33,5.33,0,0,1-1-.17c-.27,0-.34-.31-.3-.52a2.74,2.74,0,0,1,.34-.81c.12-.19.29-.06.37,0a1.05,1.05,0,0,0,1.31.43c.22-.08.49.11.73-.09s.27-.34.1-.57a2.73,2.73,0,0,0-.64-.63,2.15,2.15,0,0,1-.72-.84,1.1,1.1,0,0,1,.07-1,1.59,1.59,0,0,1,1.52-.93,1.57,1.57,0,0,1,1.41.66A.53.53,0,0,0,47.7,9a1.18,1.18,0,0,1,.56.68c.09.27.22.58-.19.69a.56.56,0,0,1-.66-.39,3.05,3.05,0,0,0-.28-.5.9.9,0,0,0-1.57.11.55.55,0,0,0,.07.62,5.12,5.12,0,0,0,1.08,1,1,1,0,0,1-.37,1.7c-.27.06-.51.21-.79.28C45.11,13.26,44.67,13.12,44.24,13.23Z"/><path d="M24.5,7.44a1.54,1.54,0,0,1,.58.12.33.33,0,0,0,.4-.13c.08-.17-.11-.21-.19-.3-.2-.24-.53-.33-.73-.57a1.78,1.78,0,0,1,.64-2.9c1.12-.5,1.75-.13,2.53.68.07.08.14.16.07.28a.35.35,0,0,1-.34.17,2.3,2.3,0,0,1-.8-.27,1.17,1.17,0,0,0-1.48.54c-.26.58.34,1.27,1.06,1.29a2,2,0,0,1,1.21.37c.15.12.29.26.21.49a.61.61,0,0,1-.43.47,2.38,2.38,0,0,0-.38.11,4.39,4.39,0,0,0-1,.77c-.26.2-.49.07-.72,0a1,1,0,0,1-1-.65C23.93,7.54,24,7.42,24.5,7.44Z"/><path d="M13.2,45.86c.08-.22,0-.38-.12-.47a.65.65,0,0,1-.27-.44.34.34,0,0,0-.21-.28.41.41,0,0,1-.32-.61s0-.1,0-.12c-.56-.5-.33-1.25-.57-1.85a1,1,0,0,1,.09-.9.45.45,0,0,0,0-.47.82.82,0,0,1,0-.88.81.81,0,0,0-.05-.8c-.18-.34.11-.54.12-.81,0-.07.1-.1.18-.07s.12.15.14.26a6.53,6.53,0,0,1,0,2.07.93.93,0,0,0,.11.56c.08.15.2.33,0,.47,0,0-.06.06-.06.07.2.38.08.88.27,1.2A3.91,3.91,0,0,1,13,43.86c.11.54.57.94.58,1.51,0,.06.11.12.18.18a.56.56,0,0,1,.23.55c0,.09,0,.2,0,.25A2.3,2.3,0,0,1,14.76,48c.06.3.39.5.53.82a.75.75,0,0,0,.8.48.27.27,0,0,1,.24.08c.15.46.6.44.93.6s.38.17.43.41.1.18.25.19c.35,0,.44.31.54.57a.2.2,0,0,1-.13.25c-.16.06-.34.15-.46,0-.52-.57-1.26-.88-1.75-1.47,0,0-.08-.12-.13-.12-.78,0-1-.82-1.63-1.15,0,0-.05,0-.06-.07a21.19,21.19,0,0,1-1.09-2.43C13.21,46,13.21,45.92,13.2,45.86Z"/><path d="M13.75,34.59a4.14,4.14,0,0,0,.14-.9,2.56,2.56,0,0,1,.25-1.09.11.11,0,0,0,0-.08c-.54-.32-.06-.6,0-.93.11-.92.94-1.44,1.14-2.3.05-.25.36-.23.57-.29s.28-.09.15-.22c-.44-.44,0-.74.22-.89.76-.55,1.32-1.42,2.36-1.57a.45.45,0,0,0,.39-.38.44.44,0,0,1,.68-.24.19.19,0,0,1,.07.3.46.46,0,0,1-.17.14,9.43,9.43,0,0,0-1.79,1.22c-.22.17-.41.43-.65.51-.55.16-.59.64-.83,1-.45.7-.95,1.39-1.34,2.12a3.57,3.57,0,0,0-.48,1.58c0,.6-.14,1.21-.15,1.83-.46.1-.18.38-.15.6a.14.14,0,0,1-.13.15.17.17,0,0,1-.19-.09A1,1,0,0,1,13.75,34.59Z"/><path d="M46.5,52c-.68-.24-1.6,0-2.27-.7-.16-.16-.27,0-.38.06a4.24,4.24,0,0,1-.49.46,1,1,0,0,1-1.2.17c-.32-.18-.57-.43-.88-.61a.71.71,0,0,1-.28-.55c0-.12-.07-.28.12-.33a.31.31,0,0,1,.34.18,2.32,2.32,0,0,0,.28.44c.82,1,1.71.48,2.16-.39.07-.14.05-.38.25-.38s.25.19.32.34a1.07,1.07,0,0,0,.53.52A3.09,3.09,0,0,0,48.23,51c.38-.33.38-.59,0-.91a.79.79,0,0,1-.36-.63c0-.23.09-.36.33-.22a1.09,1.09,0,0,1,.33.23,1.16,1.16,0,0,0,1.76.16c.09-.06.16-.24.28-.1s0,.24-.11.31a2,2,0,0,1-1.07.51.75.75,0,0,0-.63.46A2.38,2.38,0,0,1,46.5,52Z"/><path d="M37.81,52.74c-.66,0-1.22,0-1.58-.65-.16-.29-.44-.17-.58.11a3.64,3.64,0,0,1-1.12,1.25,1.31,1.31,0,0,1-2-.23,3.75,3.75,0,0,1-1-1.41.28.28,0,0,0-.23-.19,7.21,7.21,0,0,1-1.23-.11c-.11,0-.21,0-.25-.11a.16.16,0,0,1,.17-.21,6.65,6.65,0,0,0,1.78-.08c.17,0,.26.17.25.35,0,.65.5,1.07.77,1.58.16.3.58.33.94.29a2.42,2.42,0,0,0,1.68-1.2.72.72,0,0,0,0-.85.31.31,0,0,1,.11-.49c.2-.12.28.06.38.19a7.44,7.44,0,0,0,1,1,1.42,1.42,0,0,0,1.16.34c.15,0,.29-.07.32.11s-.14.2-.27.23Z"/><path d="M29.22,46.4c-.07.18-.13.31-.18.45-.21.65-.19.68.44.91.18.06.43.09.45.37s-.21.4-.44.5l-.17,0c-.22,0-.57,0-.63.21a1.41,1.41,0,0,0,0,1,1.89,1.89,0,0,0,.69.91,1.18,1.18,0,0,1,.25.25.19.19,0,0,1,0,.21c-.06.1-.15.07-.24.06a2.37,2.37,0,0,1-1.36-1.69,8.52,8.52,0,0,1,.8-3A.44.44,0,0,1,29.22,46.4Z"/><path d="M30.69,44.41c-.38-.75-.83-1.41-.46-2.26.11-.27,0-.47-.28-.64a2.28,2.28,0,0,1-1.19-1.63,1.37,1.37,0,0,1,.66-1.21,3.65,3.65,0,0,0,.54-.32.48.48,0,0,1,.46-.08.19.19,0,0,1,.16.19c0,.08-.06.13-.14.16s-.26.07-.39.12a1.12,1.12,0,0,0-.55,1.89s.05,0,.06.07c.22.69.84.59,1.36.67.13,0,.3-.07.36.09s0,.29-.17.38a1.54,1.54,0,0,0-.46,1.9A1.05,1.05,0,0,1,30.69,44.41Z"/><path d="M21.89,9a.34.34,0,0,1-.5.27,1.24,1.24,0,0,1-.69-.92c-.07-.28,0-.61-.25-.83a.17.17,0,0,1,0-.17c.19-.31,0-.56-.13-.83s-.23-.59.1-.74.5.08.66.36a8.75,8.75,0,0,1,.5,1.8C21.68,8.23,21.77,8.57,21.89,9Z"/><path d="M19.15,51.44c.27.41,1,.24,1.17.82.07.2.21.23.37.25s.59.08.88.14.65.15.81.5c.06.15.17.17.32.16s.19.12.23.23a.11.11,0,0,1-.05.15c-.11.05-.19,0-.28-.08l-2-.74h-.05c-.41-.59-1.17-.31-1.69-.65-.2-.13-.36-.26-.32-.47S18.88,51.51,19.15,51.44Z"/><path d="M27.25,22.82a2.41,2.41,0,0,0-.25.11c-.1.05-.2.12-.26,0s-.07-.25.07-.32.4-.25.65,0a.76.76,0,0,0,.76.06,2.32,2.32,0,0,1,1.66-.13c.26.11.57,0,.84.08a1.61,1.61,0,0,1,.59.32.36.36,0,0,1,.11.41c-.08.18-.23.07-.35.06a6.52,6.52,0,0,1-1-.25C29.15,22.88,28.21,23,27.25,22.82Z"/><path d="M25.52,42.16a2.44,2.44,0,0,1,.19-1.36.31.31,0,0,0,0-.21c-.06-.14-.17-.27,0-.39s.24.06.35.12a1.35,1.35,0,0,0,.54.19c.11,0,.23,0,.23.16a.23.23,0,0,1-.2.26c-.54.09-.66.42-.74.93a1.5,1.5,0,0,0,.61,1.77,1.14,1.14,0,0,1,.15.16c.08.09.2.19.1.3s-.23,0-.33,0a1.67,1.67,0,0,1-.95-1.59C25.53,42.37,25.52,42.27,25.52,42.16Z"/><path d="M28.7,55.91a1.93,1.93,0,0,1,1.82-.3c.48.1.9.44,1.42.42a.09.09,0,0,1,.09.12c0,.12-.11.16-.23.15s-.36-.12-.56-.13c-.72,0-1.43-.09-2.15-.13A.65.65,0,0,1,28.7,55.91Z"/><path d="M33.53,49.39a1.72,1.72,0,0,1-1.33-1c-.15-.27-.45-.43-.57-.77a.88.88,0,0,1,.08-.76c.07-.11.16-.19.3-.13s.14.17.09.29a1.26,1.26,0,0,0,.43,1.33c.25.26.43.61.83.71C33.47,49.05,33.55,49.2,33.53,49.39Z"/><path d="M21.69,2.09c.31,0,.8.42.78.65s-.26.41-.52.44-.69-.45-.68-.66A.41.41,0,0,1,21.69,2.09Z"/><path d="M36,25.08a.34.34,0,0,1-.49,0,4.2,4.2,0,0,0-1.62-.78.92.92,0,0,1-.28-.14.17.17,0,0,1-.07-.23c0-.1.14-.09.23-.06a4.53,4.53,0,0,1,1.7.77C35.67,24.78,35.68,25.1,36,25.08Z"/><path d="M32,23.16c.08.31.18.43.45.27s.45.27.74.21c0,0,.06.16,0,.24A.18.18,0,0,1,33,24a3.69,3.69,0,0,0-.81-.12C31.74,23.8,31.71,23.69,32,23.16Z"/><path d="M29.45,46.07c.31-.42.22-1.12.92-1.26.12,0,.24-.09.31.06s0,.24-.17.29a1.28,1.28,0,0,0-.59.58A.55.55,0,0,1,29.45,46.07Z"/><path d="M37.75,41.9a3.19,3.19,0,0,1-.84-.28c-.12,0-.11-.15-.08-.26s.1-.24.24-.21a1.36,1.36,0,0,1,.84.36.22.22,0,0,1,.05.28A.18.18,0,0,1,37.75,41.9Z"/><path d="M36.89,40.34c0,.14-.06.19-.19.18a.86.86,0,0,1-.62-.64c0-.17.1-.23.26-.24S36.89,40.14,36.89,40.34Z"/><path d="M55.24,40.93c-.18-.11-.56,0-.57-.38,0-.14,0-.27.22-.27s.71.41.67.52S55.39,40.94,55.24,40.93Z"/><path d="M49.6,42.46c-.14,0-.25,0-.28-.16a.28.28,0,0,1,.21-.34.39.39,0,0,1,.26,0c.17.09.48-.1.5.13s-.3.27-.52.32Z"/><path d="M27.67,44.37c-.21-.12-.64,0-.61-.31s.37,0,.56,0a.27.27,0,0,1,.09,0c.13,0,.37,0,.36.15S27.82,44.32,27.67,44.37Z"/><path d="M57.43,41c-.19-.07-.51.09-.49-.29,0-.16.11-.25.26-.22s.46.11.5.34S57.57,41.05,57.43,41Z"/><path d="M47.52,43.64a.38.38,0,0,1-.4.29c-.15,0-.34-.06-.32-.24a.4.4,0,0,1,.36-.39C47.36,43.3,47.45,43.47,47.52,43.64Z"/><path d="M53.93,41.32a.43.43,0,0,1-.39.42.17.17,0,0,1-.2-.22c0-.2.07-.4.3-.44A.24.24,0,0,1,53.93,41.32Z"/><path d="M39.36,43.76c0,.24-.23.25-.38.26s-.26-.1-.26-.27.15-.28.32-.28S39.31,43.62,39.36,43.76Z"/><path d="M59.29,39.9c0,.2-.19.25-.36.25s-.32,0-.28-.2.11-.36.34-.34A.32.32,0,0,1,59.29,39.9Z"/><path d="M61.37,38c.22,0,.36,0,.35.22s-.25.22-.42.25-.24-.07-.23-.24A.23.23,0,0,1,61.37,38Z"/><path d="M34.31,38.37c.18.09.36.17.33.41a.19.19,0,0,1-.25.18.35.35,0,0,1-.31-.38A.21.21,0,0,1,34.31,38.37Z"/><path d="M33.56,38.25c-.15,0-.31,0-.31-.19a.32.32,0,0,1,.3-.33.4.4,0,0,1,.36.33C33.94,38.31,33.66,38.16,33.56,38.25Z"/><path d="M46.07,43.91c-.19,0-.23-.13-.22-.28a.19.19,0,0,1,.23-.21c.16,0,.3.09.28.28S46.19,43.88,46.07,43.91Z"/><path d="M41.94,44.58c0,.17-.2.2-.34.21s-.23-.06-.2-.21.1-.25.26-.24A.27.27,0,0,1,41.94,44.58Z"/><path d="M51.94,42.38c0,.17-.1.24-.25.25s-.25-.05-.24-.19a.3.3,0,0,1,.28-.3C51.87,42.14,51.92,42.25,51.94,42.38Z"/><path d="M43.92,43.59c0,.15-.13.2-.25.22s-.22-.06-.2-.2,0-.27.18-.26A.32.32,0,0,1,43.92,43.59Z"/><path d="M37.19,25.43a.32.32,0,0,1-.29.23.18.18,0,0,1-.19-.2.22.22,0,0,1,.25-.2A.23.23,0,0,1,37.19,25.43Z"/><path d="M43,44c0,.11,0,.26-.16.26a.27.27,0,0,1-.25-.27c0-.12.1-.16.2-.18S43,43.81,43,44Z"/><path d="M60.11,38.56c.15,0,.17.16.17.27s-.07.21-.2.19-.14-.14-.14-.25S60,38.57,60.11,38.56Z"/><path d="M35.94,41.32h-.11c-.09-.15-.34-.21-.27-.46,0,0,.09-.06.11,0A.56.56,0,0,1,35.94,41.32Z"/></g></g></g></svg>