<svg xmlns="http://www.w3.org/2000/svg" viewBox="0 0 51.66 80.56"><defs><style>.cls-1{opacity:0.8;}.cls-2{fill:#ec6d86;}.cls-3{opacity:0.9;}.cls-4{fill:#fff1c6;}.cls-5{fill:#fffbf3;}.cls-6{opacity:0.7;}</style></defs><g id="Layer_2" data-name="Layer 2"><g id="Layer_1-2" data-name="Layer 1"><g class="cls-1"><path class="cls-2" d="M17,14.78A6.18,6.18,0,0,0,15.82,17a17.65,17.65,0,0,0-.8,2.39c-.24,1.52,2.4.86,2.86.05a17.16,17.16,0,0,0,1-1.58,8.8,8.8,0,0,1,.79-1.71l-2.86-.05c-.06,1.31,0,2.62,0,3.94l2.93-.23c0-.75.4-1.26.44-2L17.2,18c0,.88,0,1.77,0,2.65,0,1.47,2.42,1,2.85.05a9.46,9.46,0,0,0,.49-4.66l-2.9.77c.27,1,.67,1.94.94,2.94a4.39,4.39,0,0,0,.89,2.06c.74.76,2.63.44,2.79-.75a3.63,3.63,0,0,0-.45-1.76,10.47,10.47,0,0,1-.38-2.37c-.05-1.51-2.94-1.08-2.93.22,0,1.49.86,2.35,1.34,3.66s3,.59,2.89-.77c-.08-.78-.46-1.48-.61-2.25a2.25,2.25,0,0,0-.77-1.6,1.81,1.81,0,0,0-2.59.95,3.52,3.52,0,0,0,.32,1.94c.2.61.13,1.31.34,1.91.11.29.27.53.37.82a3.65,3.65,0,0,0,.2.64,1.81,1.81,0,0,0,1.41.9c2.41.35,3.75-3.23.89-3.17-.62,0-1.52.48-1.6,1.17a2.82,2.82,0,0,1-.3,1.35,4.93,4.93,0,0,0-.52.89,6.47,6.47,0,0,0-.06,2.63l2.91-.5c-.2-1.24-.37-2.48-.52-3.73-.1-.79-.13-1.65-.92-2.07a2.25,2.25,0,0,0-2.37.33c-.76.63-.56,1.31-.65,2.17l2.31-1.09v.07l-2.92.5c.11,1.15.36,2.29-.47,3.22a3,3,0,0,1-2.31,1.09,2.51,2.51,0,0,0-1.86.85c-.52.7-.24,1.41-.34,2.2a16.08,16.08,0,0,1-.59,1.95c-.22.84-.63,1.63-.86,2.47a25.34,25.34,0,0,0-.38,3c-.11.82-.46,1.61-.51,2.42-.07,1.24,1.79,1,2.43.55,1.52-1.19,1.94-3.37,2.84-5,.51-.94,1-1.83,1.58-2.74a12.37,12.37,0,0,0,1.22-2.79c.35-1.24-1.92-1-2.42-.55-.31.25-.89,1.26-1.16,1.38l2.11.74a4.86,4.86,0,0,1,1-2l-2.05.55c-.73-.29-.27-.54-.44.08a4,4,0,0,0-.09.5c-.08.37-.18.73-.24,1.1-.14.86-.57,2-.11,2.8.64,1.09,2.53.15,2.8-.75a20.59,20.59,0,0,1,1.65-4.61l-2.83.23c.47,1,.15,2.73.13,3.8,0,1.55,2.69,1,2.93-.22a31,31,0,0,0,.87-5.57l-2.93.22c0,1.57.26,3.12.2,4.69s2.71,1,2.94-.22A26.23,26.23,0,0,0,21.21,26c0-1.5-2.92-1.08-2.94.23a32.88,32.88,0,0,0,.41,3.56c.07.92-.25,1.86.09,2.76.4,1.06,2.52.8,2.83-.22a15.26,15.26,0,0,0,.64-3.13c.1-1,.44-1.92.49-2.9l-2.94.22a15.63,15.63,0,0,0,.34,2.55,17.79,17.79,0,0,1,.09,3l2.93-.23c0-1.16.12-2.26.23-3.41l-2.94.22a10.23,10.23,0,0,0,.45,4.12c.45,1.09,3,.76,2.92-.5a8.79,8.79,0,0,1,.25-2.89l-2.59.95c.35.27.17,1,.24,1.4A1.85,1.85,0,0,0,22.47,33,1.78,1.78,0,0,0,25.05,32c.25-1.29-.3-2.42-.42-3.68l-2.9.77a2.64,2.64,0,0,0,2.09,1.76c1.1.18,1.65-.38,2.55-.83,1.29-.64.85-1.93-.51-1.91a3.07,3.07,0,0,0-2.3,1L26,30a7,7,0,0,0,.6-.9l-2.83.23a6.17,6.17,0,0,1,.19,1.56,8.07,8.07,0,0,0,.74,1.89,16,16,0,0,0,1,1.59c.36.54.53,1.19.94,1.69.63.77,2.81.42,2.8-.74,0-1.51-.82-2.87-1-4.35a5.38,5.38,0,0,0-1.4-3.36,1.8,1.8,0,0,0-2.59.95,6,6,0,0,0,.38,2.5A17.11,17.11,0,0,0,25.82,34c.82,1.82,2.21,3.62,2.62,5.6.28,1.34,3.13.59,2.9-.78-.28-1.66-1.3-3.16-1.95-4.69A5.32,5.32,0,0,0,26.19,31c-.55-.22-1-.66-1.52-.85a2.3,2.3,0,0,0-2.28.55c-1.13,1.13,0,2.66.5,3.82s2.7.66,2.91-.5a2.3,2.3,0,0,0-.55-1.71c-.74-1.09-3.33-.07-2.66,1.28a6.58,6.58,0,0,1,.35,3.78c-.08.49-.32.9-.41,1.38s0,.33-.28.43a10.22,10.22,0,0,1-2.65,0,5.61,5.61,0,0,1-2,0c-.43-.21-.31-.52-.46-1s-.46-.58-.58-.89c.1.24.14-.4.16-.49s.18-.42.26-.63c.22-.6.27-2.06.77-2.33A2.6,2.6,0,0,1,19,33.73c.5.08,0-.06.32.21.13.12.24.26.37.38a4,4,0,0,0,2,1.12c.68.12,1.9-.35,2-1.16.23-2.84-4.46-3-6.15-2.13C16,32.9,15.28,34.36,14,35.3c-.65.48-1.33.93-2,1.42s-1.3.61-1.86,1.1c-.41.36-.65.78-.36,1.3.45.82,1.3.92,2.11,1.18,1,.33,1.43,1.64,1.58,2.63a3.32,3.32,0,0,1-.71,2.8,5.91,5.91,0,0,1-1.15,1.14c-.53.4-1.07.28-1.72.27l.51,1.91c.47-.24,1.78-.42,2.53-.84A7.58,7.58,0,0,0,15,46.65a2.88,2.88,0,0,0,.64-2.25,12.45,12.45,0,0,0,.13-2.35c-.25-1.1-2.17-.7-2.66,0-1,1.41-2.37,3.41-2.11,5.25.2,1.37,2.42.43,2.84-.22a5,5,0,0,1,.47-.66l-2.54.21c.09.16-.12.87-.13,1a4,4,0,0,0,0,1.15c.24,1.25,2.47.59,2.83-.23a4.83,4.83,0,0,1,.36-.84l-2.66,0a1.91,1.91,0,0,1-.06.75c-.27,1.31,1.87.9,2.42.55a2.84,2.84,0,0,0,1.21-1.67c.18-.59.11-1.48.48-2l-2.66,0c.19.83.27,1.66.41,2.49.23,1.34,2.74.55,2.92-.5s.34-1.91.43-2.9a27.5,27.5,0,0,0,.44-2.82c0-1.51-2.8-1.07-2.94.22a24.68,24.68,0,0,0,.27,7.33c.29,1.4,2.66.48,2.92-.5a35.85,35.85,0,0,0,.67-5.47l-2.8.75c.32.53,0,1.54,0,2.13a8.65,8.65,0,0,0,.23,3.17c.39,1.22,2.39.64,2.83-.22.57-1.09.46-2.58.59-3.78.16-1.49.51-3,.57-4.48l-2.93.22A27,27,0,0,1,17,44.4a3.3,3.3,0,0,0,.52,2.36c.59.92,2.72.31,2.79-.75a6.54,6.54,0,0,1,.36-1.8l-2.84.23c.27,1.36.58,2.71.75,4.09.12,1-.1,2.22.52,3.08.49.67,1.74.47,2.29,0,.89-.73.79-2.07.65-3.12-.18-1.29-2.82-.6-2.92.5v0l2.93-.22c0-2.08.26-4.16.21-6.23l-2.92.49c.18,1.38.27,2.76.4,4.14s2.53.59,2.83-.23c.42-1.08.09-2.52.17-3.67l-2.91.5c.13,1.13-.15,2.7.94,3.45a1.86,1.86,0,0,0,2.5-.67c.62-1.79.34-4.05.28-5.92l-2.8.75c.51,1,.36,2.63.54,3.76a21.47,21.47,0,0,0,.82,4c.46,1.25,2.71.64,2.92-.5a18,18,0,0,0,0-4.15c-.11-1.61-.17-3.18-.21-4.79l-2.92.5A23.06,23.06,0,0,1,22.4,44c.11,1.17.42,2.42.41,3.58l2.93-.22c-.08-2-.72-4-.86-6-.1-1.35-2.46-.43-2.83.23s-.48.63-.83.08l-.11,1.07a13.93,13.93,0,0,1,3.67-3.55l-2.34-.82a10,10,0,0,0-.76,2A9.52,9.52,0,0,0,21,42.17c-.19,1.49,2.13.84,2.68.32,1.06-1,1.61-2.38,2.66-3.38l-2.54.21c.25.29-.67,1.56-.8,1.79A6.65,6.65,0,0,0,22,43.23c-.15,1.11,1.5,1,2.11.74a6.68,6.68,0,0,0,1.61-1.08c.36-.3.75-.88,1.16-1.08l-2.11-.74a.73.73,0,0,1-.51.78l1.85,1.28A11,11,0,0,1,28.18,41c.63-.49,1.38-.7,1.59-1.58.38-1.62-1.53-3.41-2.5-4.43a1.76,1.76,0,0,0-2.79.75c-.32,1.09.71,2.37,1.17,3.29l1.06-1.63-.18,0h1.1c-.16,0-.45-.55-.59-.66A2,2,0,0,0,26,36.3c-.62-.09-2,.33-2,1.16a3.37,3.37,0,0,0,2.14,2.87A3,3,0,0,1,27.5,41,7.41,7.41,0,0,0,29.74,42c.79.24,2.18-.1,2.3-1.09a6.85,6.85,0,0,0-.89-3.39c-.51-1.22-.9-2.47-1.46-3.68s-3.26-.61-2.9.78A15.27,15.27,0,0,1,27,36.3a3.73,3.73,0,0,0,.15.81c0,.35.14.34.25,0l.95-.56c.26-.09-.12,0-.25,0a4.87,4.87,0,0,0-.66,0,5.39,5.39,0,0,0-1.83.74,6.58,6.58,0,0,0-2.07,2.19A3.84,3.84,0,0,0,22.8,42a18,18,0,0,0,.06,3.28c.22,1.21,2.13.55,2.66,0,.9-.87.71-2.1.64-3.23l-2.8.75c.64,1.19.25,2.68.77,3.92.46,1.09,2.94.76,2.92-.5a3.55,3.55,0,0,0-.27-1.44c-.46-1.09-2.94-.77-2.91.5a7.37,7.37,0,0,0,.84,2.76l1.58-1.45c.41,0-.13-.15-.32-.21a2.77,2.77,0,0,0-.95-.09,2.44,2.44,0,0,0-1.57.76c-.89,1.12.4,2.13,1.48,2.27a2.37,2.37,0,0,0,.92,0c.65-.23.12-.2.23,0,.28.44.25.77.76,1.08a4.18,4.18,0,0,0,3.95-.27c.52-.3,1.33-1.18.48-1.68a3.61,3.61,0,0,0-2.08-.5c-1.29,0-2.42,2-.63,2.11,1.52.06,4-.36,4.58-2.09a.84.84,0,0,0-.54-1.14,2.63,2.63,0,0,0-.77-.19l.71,1.47a10.1,10.1,0,0,0,1.91-2.65l-2.83.22c.05.2-1.32,1.4-1.68,1.52a22.8,22.8,0,0,1-2.47.44c-2,.41-4.08.42-6.1.8-.8.16-1.59.39-2.4.49a2.28,2.28,0,0,1-2.12-.76,3.27,3.27,0,0,0-1.53-.85c-.94-.16-1.79.46-2.69.32-1.37-.23-2.75-.78-4.11-.16a2.15,2.15,0,0,0-1,3.16c.34.68.61,1.1,1.43,1.15a2.86,2.86,0,0,0,1.81-.53c1-.73.88-1.87,1.57-2.74L10,49c1.09.78,1,2.22,2.24,2.81a2,2,0,0,0,2-.55,5,5,0,0,0,1.19-2.38l-2.3,1.08c-.51-.24-.2.07-.13.54a7,7,0,0,0,.15.9c.19.73,1.15.7,1.71.6a1.92,1.92,0,0,0,1.24-.73c.1-.13.49-.86.27-.74H14.63c.44.41.54,1.07,1.06,1.41a2,2,0,0,0,1.53.21c1.2-.32,1.48-1.51,2.41-2.15l-2.29,0A2.54,2.54,0,0,1,17.83,51c.23.68,1.13.77,1.72.61a3.87,3.87,0,0,0,1.3-.69,2.6,2.6,0,0,1,1-.49,7.05,7.05,0,0,0,1.94-1.36,1.9,1.9,0,0,0,.93-2.34,7.1,7.1,0,0,1-.11-3.11A5.85,5.85,0,0,1,26.2,41c.73-.76,1.91-.68,2.9-.82.45-.06,1-.17,1.29.15A5,5,0,0,1,31,41.83c.35,1,.34,2,1.2,2.71a1.79,1.79,0,0,0,2.58-.95l0-.25c.24-1.45-2.72-1.08-2.93.22l0,.25,2.58-.94c-.27-.23-.35-1.18-.44-1.53-.15-.52-.37-1.05-.57-1.55A2.62,2.62,0,0,0,30.85,38a18.72,18.72,0,0,0-3.65.34,5.53,5.53,0,0,0-3.3,1.67,7.56,7.56,0,0,0-2.24,6.36c0,.27.08.54.14.81l.12.44c0,.32.18.25.43-.22a11.39,11.39,0,0,0-1.29,1c-.27.41.28.06-.29.17a3.89,3.89,0,0,0-.68.23,4.6,4.6,0,0,0-.89.5c-.19.15-.8.48-.18.31l1.71.6A3.84,3.84,0,0,0,20,48.67a1.78,1.78,0,0,0-2.28,0,4.11,4.11,0,0,0-1,.9c-.09.11-.78.92-.44.72l1.48-.12s-.29-.71-.36-.81a6.89,6.89,0,0,0-.56-.52,1.78,1.78,0,0,0-1.76,0,4.29,4.29,0,0,0-1.67,2L14.56,50l-.21,0,1.71.6c-.28-1.07-.09-2.06-1.24-2.61a1.8,1.8,0,0,0-2.31,1.09,2.55,2.55,0,0,1-.68,1.31l2.05-.55c.36.17-.29-1-.38-1.18a4.75,4.75,0,0,0-1.29-1.35,1.91,1.91,0,0,0-2.33.41,4.32,4.32,0,0,0-.62,1.16c-.09.23-.19.46-.26.7-.23.77-.57.09.72.15l.83.41a5.92,5.92,0,0,0-.33-.61,1.56,1.56,0,0,1-.15-.41l-.66.25,1.54.26a5.31,5.31,0,0,0,1.9.23c.34,0,.68-.19,1-.22s.09-.15.49,0,.84.77,1.33,1a4.14,4.14,0,0,0,1.62.42,12.61,12.61,0,0,0,3.76-.48c1.48-.31,3-.33,4.46-.53,1.34-.19,2.66-.48,4-.7a5.69,5.69,0,0,0,3.4-1.57c.71-.76,1.88-1.76,1.58-2.89s-2.4-.57-2.83.23a7.63,7.63,0,0,1-1.57,2.13c-.66.65,0,1.38.71,1.48l.1,0-.55-1.14c-.1.31-.54.33-.81.32l-.63,2.1.1.06.48-1.69c-.14.08-.4.27-.58.21.09,0,.18.12.05-.1s-.12-.61-.44-.91a2.14,2.14,0,0,0-1.14-.47,3.66,3.66,0,0,0-.74,0c-.54,0-.44,0-.61.51l-.74.68.23-.12-1.15.2c.57,0,1,.36,1.64.31s1.92-.62,1.58-1.45a6.65,6.65,0,0,1-.81-2.2l-2.92.5a1.59,1.59,0,0,1,.23.88L27,46c-.6-1.44-.26-3-1-4.41-.49-.92-2.86-.31-2.8.75,0,.57.33,1.71-.12,2.15l2.66,0c-.33-1.82-.22-5.55,2.08-5.88.88-.12,2.22-.28,2.41-1.4A3.52,3.52,0,0,0,30,35.93c-.13-.68-.13-1.37-.3-2.06l-2.9.78c.49,1.07.87,2.18,1.29,3.27s1.16,2.17,1,3.25l2.3-1.09a5.45,5.45,0,0,1-1.55-.66,8.89,8.89,0,0,0-1-.79c-.6-.29-1.86-.44-1.88-1.39L25,38.4c-.47-.07-.28-.07,0,.27a2.52,2.52,0,0,0,.53.5,2.24,2.24,0,0,0,1.74.16c.75-.18,1.45-.84,1.06-1.62-.3-.6-1.09-1.55-.89-2.24l-2.79.75a17.38,17.38,0,0,1,1.49,1.71c.21.29.38.72.61,1,0,.33.1.4.31.22s.26-.13-.11,0a11.7,11.7,0,0,0-3.28,3.11c-.95,1.33.94,1.62,1.85,1.27s2.23-1.53,2.17-2.7-1.34-1.1-2.11-.74c-1.09.51-1.68,1.67-2.77,2.16l2.11.74a7.19,7.19,0,0,1,.62-1c.29-.52.61-1,.87-1.55a2.19,2.19,0,0,0,.1-2.38c-.66-.79-1.91-.39-2.53.21-1.05,1-1.61,2.38-2.67,3.38L24,42a8.3,8.3,0,0,1,.58-1.5,7.57,7.57,0,0,1,.67-1.73.83.83,0,0,0-.55-1.14,2.08,2.08,0,0,0-1.8.32,13.65,13.65,0,0,0-2.08,1.79,14.69,14.69,0,0,0-2.1,2.22A.86.86,0,0,0,18.57,43c1.56,2.49,5.07,1,6.25-1L22,42.16c.13,1.82.76,3.61.83,5.45.06,1.51,2.92,1.09,2.93-.22a35.55,35.55,0,0,0-.4-3.69,25.28,25.28,0,0,0-.5-4.26c-.33-1.2-2.94-.68-2.91.5a43.61,43.61,0,0,0,.14,4.43,15.85,15.85,0,0,1,0,4.51l2.92-.5a23,23,0,0,1-.89-4.44,12.72,12.72,0,0,0-.71-3.79c-.47-.95-2.83-.29-2.8.74s0,1.91,0,2.86a8.11,8.11,0,0,1-.12,2.51l2.5-.67c-.4-.27-.23-2.07-.28-2.56-.16-1.28-2.84-.61-2.92.5,0,.56,0,1.13,0,1.7,0,.32,0,.64,0,1s-.1.85,0,.46l2.83-.22c-.13-1.38-.22-2.76-.4-4.13s-2.94-.65-2.92.5c.05,2.07-.21,4.15-.2,6.23,0,1.52,2.82,1.08,2.93-.22v0l-2.92.5c0,.09,0,.44,0,.63a3.38,3.38,0,0,0,0,.45c.09.47-.4.54.32-.06l2.29,0c-.26-.35-.15-1-.17-1.38s-.1-1.1-.17-1.65c-.18-1.22-.45-2.43-.69-3.64s-2.52-.66-2.83.22a8.68,8.68,0,0,0-.52,2.35l2.79-.75c-.47-.73-.14-1.35-.07-2.13s0-1.79,0-2.66c0-1.51-2.88-1.08-2.93.22s-.37,2.68-.52,4c-.13,1.09,0,2.72-.48,3.69L19,48.4c-.59-1.83.5-4.12-.49-5.81-.57-1-2.69-.27-2.8.75a34.76,34.76,0,0,1-.67,5.48l2.92-.5a22.68,22.68,0,0,1-.23-6.78l-2.94.22a24.65,24.65,0,0,1-.44,2.82c-.09,1-.26,1.93-.43,2.9L16.88,47c-.14-.84-.22-1.67-.41-2.49-.26-1.09-2.18-.72-2.66,0a4,4,0,0,0-.7,1.63c-.1.44-.07,1.29-.49,1.56l2.43.55a3.84,3.84,0,0,0,0-1.31c-.14-1.14-2.2-.62-2.66,0a5.87,5.87,0,0,0-.69,1.37L14.55,48c-.18-.94.39-1.77-.13-2.68s-2.06-.36-2.54.21a9.56,9.56,0,0,0-.82,1.18l2.83-.22c-.16-1.13,1-2.79,1.63-3.63l-2.66,0c.1.42-.18,1-.19,1.43,0,.61.2,1.19-.21,1.67-.86,1-2.26.87-3.33,1.43-1.3.67-.84,1.89.51,1.91A5.67,5.67,0,0,0,14,47.78a6.76,6.76,0,0,0,2.42-3.55,6.58,6.58,0,0,0-1-4.43A3.29,3.29,0,0,0,14,38.49c-.5-.21-1.32-.14-1.6-.65l-.37,1.3a4.35,4.35,0,0,1,.95-.51,8.86,8.86,0,0,0,1.4-1c.8-.65,1.71-1.13,2.5-1.83.64-.56,1.21-1.91,2.1-2.05.39-.06,1.65.31,1.61.78l2-1.16c.32.06-.42-.42-.5-.5s-.3-.39-.47-.58a2.46,2.46,0,0,0-2.09-.67c-1.46.05-3.09.19-4.2,1.26a2.88,2.88,0,0,0-.83,1.83c-.14.78-.49,1.45-.7,2.2-.25.92,0,1.2.38,1.95.28.58.19,1.2.63,1.73,1,1.27,3.54.73,4.95.72a9,9,0,0,0,4-.44c1.27-.61,1.72-2,2-3.27a8.16,8.16,0,0,0-.54-5.27l-2.66,1.28c.13.19.32.4.28.65l2.91-.5c-.19-.5-.41-1-.63-1.45a2.37,2.37,0,0,1-.27-.61c0-.32-.05-.37-.07-.13l-1.34.64h.23l-1-.22c1.36.79,3,1.26,3.71,2.78s1.75,3.19,2,4.86l2.9-.78A21,21,0,0,0,29,33.72a20.42,20.42,0,0,1-1.13-2.63,6.7,6.7,0,0,1-.57-2.74l-2.59.94c.08.07.3.75.39.92A5.13,5.13,0,0,1,25.48,32c.22,1.17.95,2.4,1,3.59l2.79-.75a12,12,0,0,1-.73-1.38c-.35-.56-.74-1.07-1-1.66a5.72,5.72,0,0,1-.62-1.64,5.1,5.1,0,0,0-.19-1.56c-.53-1.14-2.3-.7-2.84.23l-.25.37C22.4,30.64,25.13,31,26,30l-.38.25-.52-1.91a2.77,2.77,0,0,0-.78.49l-.19.16c.75,0,.92-.24.52-.65-.51-1.33-3-.59-2.9.77.11,1.07.6,2.05.39,3.13l2.58-.94c-.26-.22-.1-1-.16-1.37a2,2,0,0,0-.83-1.27,1.8,1.8,0,0,0-2.59.94,9.09,9.09,0,0,0-.25,2.89l2.92-.5a8.56,8.56,0,0,1-.41-3.56c.06-1.51-2.81-1.07-2.94.22s-.22,2.25-.22,3.42c0,1.51,2.92,1.08,2.93-.23,0-.88.06-1.76,0-2.64s-.4-1.92-.41-2.91c0-1.51-2.88-1.08-2.94.22,0,.84-.36,1.62-.45,2.46a14.78,14.78,0,0,1-.51,3l2.84-.23a8.37,8.37,0,0,1-.05-2.4c-.09-1.14-.43-2.22-.41-3.37l-2.94.23a24.81,24.81,0,0,1-.44,5.37l2.94-.22c.05-1.57-.17-3.13-.21-4.69s-2.91-1.08-2.93.22a32.62,32.62,0,0,1-.87,5.57l2.93-.22c0-.82,0-1.63,0-2.45a3.87,3.87,0,0,0-.18-1.91c-.55-1.15-2.28-.68-2.84.22a12.13,12.13,0,0,0-.9,2.42c-.32.91-.64,1.82-.92,2.75l2.8-.75c.18.32.07,0,.14-.25a6.25,6.25,0,0,0,.18-.86c.08-.56.16-1.08.28-1.63.2-.93.36-2-.7-2.42a2,2,0,0,0-2.05.55A6.59,6.59,0,0,0,14,31c-.06,1.1,1.43,1,2.11.74.88-.39,1.11-1.21,1.8-1.76l-2.43-.55a9.62,9.62,0,0,1-1.21,2.42A22.09,22.09,0,0,0,13,34a22.76,22.76,0,0,0-1.24,2.53,4.49,4.49,0,0,1-1,1.85l2.43.55c.05-.94.46-1.92.57-2.88a13.35,13.35,0,0,1,.56-3.14c.31-.84.51-1.71.81-2.54a6,6,0,0,0,.39-1.15c0-.24-.17-1.28,0-1.43l-1,.56c.56-.2,1.36,0,2-.28a8.45,8.45,0,0,0,2.58-1.68c1.65-1.53,1.55-3.16,1.35-5.25-.12-1.23-2.95-.66-2.92.5a1.63,1.63,0,0,0,1.26,1.66c.78.24,2.21-.1,2.31-1.09,0-.34-.12-.81.06-1.12l-.75.69.23-.13-1.14.2.2,0L19,21.47c.46.47.35,1.59.43,2.24.13.93.26,1.87.41,2.8.21,1.23,3,.65,2.92-.5a4.52,4.52,0,0,1,.18-2.56c.16-.3.45-.51.58-.85a5.13,5.13,0,0,0,.13-1.46L22,22.31h.14l-1-.23c-.48-.63,0-.89,1.56-.77a4.89,4.89,0,0,1-.09-.53c-.11-.41-.32-.75-.42-1.16s-.12-.88-.25-1.31-.4-.82-.28-1.38l-2.59.94c.12.08.15.95.19,1.14a14.45,14.45,0,0,1,.54,1.81l2.89-.77c-.38-1.05-1.29-1.94-1.3-3.11l-2.93.22a15.09,15.09,0,0,0,.25,2.33c.11.55.65,1.25.58,1.8l2.79-.74a3.82,3.82,0,0,1-.7-1.78c-.24-.94-.63-1.8-.88-2.72-.38-1.39-3-.55-2.9.77a7.4,7.4,0,0,1-.36,3.56l2.85.06c0-.89,0-1.77,0-2.65,0-1.51-2.86-1.08-2.94.22,0,.7-.45,1.24-.43,2,0,1.51,2.94,1.07,2.93-.23s0-2.62,0-3.93c.07-1.6-2.34-.83-2.85-.06a6.56,6.56,0,0,0-.76,1.55,12,12,0,0,1-1,1.74l2.85.05a18.07,18.07,0,0,1,.61-1.74,4.43,4.43,0,0,1,.88-1.76c1.21-1.36-1.56-1.82-2.43-.85Z" transform="translate(-1.07 -1.05)"/></g><g class="cls-3"><path class="cls-4" d="M9.46,41.47c0,.49,0,1,0,1.48v-.21a7.36,7.36,0,0,1-.27,2.09c0,.08-.11.2,0,.07L9.14,45c-.05.07,0,0,.06-.07s-.14.13-.16.14l-.18.14a2.13,2.13,0,0,0-.42.48l-.12.21c-.05.08-.21.23,0,0l2.33.49c.08-.08.37-.29,0-.07l.37-.27a2.62,2.62,0,0,0,.7-.67,2.69,2.69,0,0,0,.17-1.59V44a7.64,7.64,0,0,0,0-2.24.72.72,0,0,0-.57-.41l-.18,0a2.2,2.2,0,0,0-1.08.06,2.2,2.2,0,0,0-1,.49c-.16.15-.38.39-.29.63a.72.72,0,0,0,.57.41l.17,0L9,42.58a2.91,2.91,0,0,1,.1.72v-.21c0,.35,0,.71-.06,1.06s0,.73,0,1.09V45s-.06.42-.06.42.06-.13,0-.08,0,0,.09-.09c0,0-.11.1-.15.13s.23-.16,0,0a1.09,1.09,0,0,1-.17.13,4.15,4.15,0,0,0-.52.42c-.15.16-.35.38-.28.63s.35.37.56.41a2.53,2.53,0,0,0,2.05-.55,2.42,2.42,0,0,0,.49-.65s.12-.13,0,0,0,0,0,0l.25-.21a2.21,2.21,0,0,0,.77-1.4,8.37,8.37,0,0,0,.18-1.41c0-.57,0-1.14,0-1.71v.12a.5.5,0,0,0-.3-.53,1.75,1.75,0,0,0-1-.1,2.71,2.71,0,0,0-1.1.37c-.19.13-.54.36-.54.62Z" transform="translate(-1.07 -1.05)"/></g><g class="cls-3"><path class="cls-4" d="M20.85,34.21a2.19,2.19,0,0,1-.36,0l.33.06-.39-.1a3.82,3.82,0,0,0-1-.08,2.73,2.73,0,0,0-1.73.73,1.86,1.86,0,0,0-.5.87,2.49,2.49,0,0,0,0,.67,2.55,2.55,0,0,1,0,.39,2.25,2.25,0,0,0-.06.36,2.11,2.11,0,0,0,.19,1,1.37,1.37,0,0,0,.8.73,2.29,2.29,0,0,0,.9.07c.11,0,.21,0,.32,0H19l-.33-.06c.21,0,.42.11.65.14a2.64,2.64,0,0,0,1.08-.11A3.74,3.74,0,0,0,22,37.91a3.69,3.69,0,0,0,.68-.84,2,2,0,0,0,.22-.62,3.64,3.64,0,0,0,0-.66V36c0-.38,0-.76-.24-1.07a2.21,2.21,0,0,0-1.75-.53,2.15,2.15,0,0,0-1.09.39,1.17,1.17,0,0,0-.52.71.65.65,0,0,0,.33.65,1.71,1.71,0,0,0,1,.18h-.32l.21,0-.33-.06.12,0L20,36.25a.6.6,0,0,1,.15.09l-.2-.18a.64.64,0,0,1,.1.13l-.11-.22a.45.45,0,0,1,0,.2V36c0,.25,0,.49,0,.74l0-.25a.89.89,0,0,1,0,.36l.09-.25a2.55,2.55,0,0,1-.23.43l.18-.24a4.83,4.83,0,0,1-.5.51l.25-.22a1.66,1.66,0,0,1-.3.22l.32-.18-.11,0,.37-.13-.12,0,.4-.07h.23l-.12,0,.33.06a3.66,3.66,0,0,0-.87-.13c-.2,0-.38,0-.58,0h.3l.33.06-.06,0,.27.12h0l.2.17A1.44,1.44,0,0,1,20,37l.11.23a1.57,1.57,0,0,1-.12-.57v.25a3,3,0,0,1,.05-.42,2.17,2.17,0,0,0,0-.44,2.12,2.12,0,0,1,.07-.71l-.09.25a1.06,1.06,0,0,1,.11-.21L20,35.6l.1-.1-.26.22.09-.06-.32.19.06,0-.38.13.11,0L19,36H18.8a1.07,1.07,0,0,1,.25,0L18.72,36a6.6,6.6,0,0,0,1.08.19,2.6,2.6,0,0,0,1.14-.21,1.61,1.61,0,0,0,.76-.65.65.65,0,0,0,0-.73,1.14,1.14,0,0,0-.81-.35Z" transform="translate(-1.07 -1.05)"/></g><g class="cls-3"><path class="cls-4" d="M17.13,20.12l-.08-.06a1.74,1.74,0,0,0-1-.17,2.7,2.7,0,0,0-1.09.39,1.29,1.29,0,0,0-.61.85,1.27,1.27,0,0,1,0,.34l.09-.25c-.08.23-.2.44-.26.68s-.09.4-.13.6-.08.38-.14.56a5.26,5.26,0,0,0-.15.53l.09-.24a2.83,2.83,0,0,0-.23.53,3.33,3.33,0,0,0,0,.63v-.25c0,.11,0,.22,0,.33a1.08,1.08,0,0,0,.11.57,1.44,1.44,0,0,0,1.46.58,3,3,0,0,0,2.06-1.17,5.24,5.24,0,0,0,.41-.73,2.82,2.82,0,0,0,.24-.86,1.85,1.85,0,0,0-.07-1,2.22,2.22,0,0,1-.22-.76c0-.25-.4-.44-.59-.5a2.06,2.06,0,0,0-1.1,0,2,2,0,0,0-.95.53l-.18.24a.65.65,0,0,0-.08.49c0,.39.27.7.31,1.08v-.25a1.75,1.75,0,0,1-.05.46,1.85,1.85,0,0,1-.07.41l.09-.25a3.53,3.53,0,0,1-.38.75l.18-.24-.1.11c-.05.05-.22.2,0,0s0,0,0,0l.1-.06A.77.77,0,0,1,15,24a1.84,1.84,0,0,1,1.09-.07l.27.12-.06,0,.21.17a.18.18,0,0,1-.08-.09l.12.22a.37.37,0,0,1-.05-.18v.25c0-.27,0-.53,0-.79v.25a.86.86,0,0,1,0-.28l-.09.25a2.42,2.42,0,0,0,.23-.58c0-.18.11-.34.16-.51.1-.38.14-.78.27-1.15l-.09.25a4.17,4.17,0,0,0,.25-.67c0-.11,0-.22,0-.34l-.09.25v0l-.18.24-.2.17-2.07.22.08.05a1.66,1.66,0,0,0,1,.17,2.24,2.24,0,0,0,1.09-.39,1.13,1.13,0,0,0,.53-.7.64.64,0,0,0-.33-.63Z" transform="translate(-1.07 -1.05)"/></g><g class="cls-3"><path class="cls-4" d="M25.82,22.93a3.72,3.72,0,0,0-1.65.26,3.06,3.06,0,0,0-1,.59,2.27,2.27,0,0,0-.5.78,3.76,3.76,0,0,0-.13,1.06,1.76,1.76,0,0,0,.1.94,1.68,1.68,0,0,0,.63.69,2,2,0,0,0,.47.23s.4,0,.4.06-.24-.05-.11,0l.14,0a3.46,3.46,0,0,0,1.5-.09A3.62,3.62,0,0,0,26.7,27c.16-.12.37-.28.4-.49a.34.34,0,0,0,0-.24l-.1-.17a2.07,2.07,0,0,0-.2-.46,3.91,3.91,0,0,1-.6-1c-.06-.17-.08-.35-.15-.52a1.06,1.06,0,0,1-.13-.44c0-.18-.46-.23-.52-.24a3.15,3.15,0,0,0-1.06.13,3.21,3.21,0,0,0-1,.42l-.2.16a.33.33,0,0,0-.13.3c0,.21.14.42.19.61a3,3,0,0,0,.31.81c.14.23.33.43.46.67s.08.24.14.36.14.19.13.31v-.14l0,0,.12-.16.12-.09.61-.3,0,0,.77-.2a1.4,1.4,0,0,1,.61,0c.09,0,.11,0,0,0l-.1,0A1.88,1.88,0,0,0,26,26.3c-.18,0,.23.06.05,0l.18.08a1.81,1.81,0,0,1-.67-.52l.08.11a1.23,1.23,0,0,1-.23-.75,8.64,8.64,0,0,1,0-.88l0,.14a1.94,1.94,0,0,1,.34-.87l-.11.15a1.49,1.49,0,0,0,.12-.14l-.05,0-.17.11a1.62,1.62,0,0,1-.87.23c-.79.08-1,.14-.73.18A3.21,3.21,0,0,0,25,24.05a3.16,3.16,0,0,0,1-.42c.12-.09.41-.28.33-.47s-.34-.21-.51-.23Z" transform="translate(-1.07 -1.05)"/></g><g class="cls-3"><path class="cls-4" d="M30.64,41.31c-.46-.53-1.38-.41-2-.25a2.48,2.48,0,0,0-1.3.77,2.42,2.42,0,0,0-.25.54l.1-.2a5.94,5.94,0,0,0-.33.67,1.91,1.91,0,0,0-.1.71v-.19a5.07,5.07,0,0,0-.07,1,2.44,2.44,0,0,0,.07.39,1.13,1.13,0,0,0,.21.39l-.1-.16c.09.18.11.38.21.56s.26.39.39.59l-.1-.16a1.6,1.6,0,0,0,.34.54,1.87,1.87,0,0,0,.81.37,3.87,3.87,0,0,0,2.13-.22,2.78,2.78,0,0,0,1.23-1,1.39,1.39,0,0,0,.27-.59,3.84,3.84,0,0,0,0-.68,4.15,4.15,0,0,0-.12-1.11,3.88,3.88,0,0,0-.63-1.1,3.79,3.79,0,0,0-.34-.45,1.26,1.26,0,0,0-.66-.31,2.83,2.83,0,0,0-1.86.38c-.34.19-.67.48-.58.9,0,.23.37.32.55.35a2.93,2.93,0,0,0,2-.54.65.65,0,0,0,.3-.59.28.28,0,0,1,0-.09v.16l-.11.2,0,0-.78.53h0l-.77.21h-.66c.14,0-.29-.12-.1,0l-.19-.11a1.62,1.62,0,0,1,.37.45,5.14,5.14,0,0,1,.37.54l-.1-.16a3.5,3.5,0,0,1,.33,1.92v-.19a.87.87,0,0,1-.08.38l.1-.2a3.05,3.05,0,0,1-.22.32l-.1.13c-.07.08,0,0,.11-.1-.11.09,0,.05.21-.11a1.9,1.9,0,0,1,.89-.31c.27,0,.35,0,.23,0h0l.11,0-.21-.11.19.12a.69.69,0,0,1-.19-.19l.1.17c-.13-.26-.29-.48-.44-.72l.1.16a1.3,1.3,0,0,1-.2-.45,1.52,1.52,0,0,0-.25-.49l.1.16a1.88,1.88,0,0,1-.11-.74v.19c0-.3.08-.57.08-.87v.19a2,2,0,0,1,.2-.62l-.11.2c.08-.14.17-.27.24-.42a2.49,2.49,0,0,1,.11-.29l-.1.2c.11-.17,0-.1-.29.22l-.71.28c-1.05-.14-1.39-.13-1,0l-.19-.11a.45.45,0,0,1,.13.11,1.13,1.13,0,0,0,.77.22,3.18,3.18,0,0,0,1.14-.23c.34-.15,1.21-.61.79-1.09Z" transform="translate(-1.07 -1.05)"/></g><g class="cls-3"><path class="cls-5" d="M12.38,10.07c1.24.45,2.47-.25,3.55-.82a9.29,9.29,0,0,0,1.36-.88l.57-.45.2-.18c.3-.24.12-.17-.54.2L16.45,8l.1,0L16,7.55a4,4,0,0,1-.93,1c-.44.42-.9.81-1.32,1.24a.36.36,0,0,0,.16.62A3.47,3.47,0,0,0,16.59,10a2.2,2.2,0,0,0,.28-.18l.23-.15c-.06,0,0,0,0,0l.28-.18c.65-.39-.07.34-1,.12l-.53-.5c-.09.21-.31.43-.43.64a7.6,7.6,0,0,0-.51,1,5.32,5.32,0,0,0-.59,1.66c0,.2.43.3.54.32A3,3,0,0,0,16,12.63a3.63,3.63,0,0,0,2-1.26,6.24,6.24,0,0,1,1.06-1.22l-2.58,0c0,.21-.2.37-.3.57s-.16.43-.27.63a2.77,2.77,0,0,0-.5,1.29c0,.49,1.22.31,1.42.27a2,2,0,0,0,1.47-.87,8.52,8.52,0,0,1,.67-.91,3.28,3.28,0,0,0,.24-.45c0-.06.18-.32.1-.26l-1,.46.09,0-1.52-.08c.33.52.07,1.4.15,2,0,.32.1.65.14,1a2.16,2.16,0,0,0,.1.72c.23.47,1,.36,1.42.27a2.08,2.08,0,0,0,1.47-.87c.67-1.24,0-2.7.27-4l-2,.94h.06l-.58-.08c-.16-.08.05.42.09.53a8.55,8.55,0,0,0,.5,1.21,8.07,8.07,0,0,0,1,2.25c.32.34,1.15.18,1.52.08s1.2-.37,1.28-.83c.25-1.46-.49-2.9-.63-4.34l-2.8.92c.5.5,1,1,1.53,1.47a2.07,2.07,0,0,0,1.71.88c.54,0,1.85-.26,2-.94a.68.68,0,0,0-.16-.66,4,4,0,0,1-.39-.74,3.85,3.85,0,0,0-.39-.68,2.9,2.9,0,0,1-.43-.84l-2.8.93a6.89,6.89,0,0,0,3.18.95l1.18-1.46c.11,0-.29-.13-.3-.13a3.94,3.94,0,0,0-.49-.14A.81.81,0,0,1,23,9l-.21.7c-1.33.34-1.69.47-1.07.41l.31,0,.39-.06a7.71,7.71,0,0,0,1.26-.21,4.7,4.7,0,0,0,.63-.22c.47-.23-.57.11,0,0A3.69,3.69,0,0,0,25.76,9c.27-.19.51-.69,0-.81a3.86,3.86,0,0,0-2.05.06,5,5,0,0,1-1.19.31L23.77,9c.3-.54,1-.78,1.25-1.37.21-.44-.65-.52-.86-.52a6.68,6.68,0,0,0-2.11.44l-.57.23A4.81,4.81,0,0,0,21,8c-.56.33,0-.32,1-.13l.53.5c.15-.43.62-.73.87-1.1a11.93,11.93,0,0,0,.89-1.13c.23-.43-.66-.53-.85-.52a4.66,4.66,0,0,0-2.7,1l-.76.58a4.15,4.15,0,0,0-.51.43c-.26.26-.39.18.31-.11L21.57,8c.37-.62.72-1.26,1.15-1.84.25-.34.72-.87.53-1.33-.26-.62-1.58-.29-2-.1A4.82,4.82,0,0,0,19.7,5.78a7.14,7.14,0,0,1-.75.83l2.31.13a12.81,12.81,0,0,1,.66-1.34c.23-.41.36-.89.61-1.29.35-.55-.3-.71-.74-.71a2.66,2.66,0,0,0-1.93.75,4.6,4.6,0,0,0-.59,1.34c-.16.49-.4,1-.57,1.44l2.89-.6a2.68,2.68,0,0,1,.06-1.43,9.24,9.24,0,0,1,.25-1.66L19,3.66a11.75,11.75,0,0,1-.46,2.49l2.8-.75c-.23-.2.15-1.12,0-1.48s-1-.36-1.42-.27a2,2,0,0,0-1.47.87,5,5,0,0,0-.21,1c-.11.53.05,1.06,0,1.59l.89-.71,0,0,1.13-.24h-.05l.58.08c-.08,0-.08,0,0,0l-.15-.11L20.28,6c-.19-.19-.36-.39-.54-.58-.41-.47-.62-1-1.29-1.06s-2.13.16-2.35.92.45,1,.49,1.57l2.9-.77A5,5,0,0,0,17.6,3.91a2.08,2.08,0,0,0-1.71,0c-.32.11-1.24.45-1.1.94.27.92,1,1.46,1.52,2.24L18.67,6c.34,0,.12,0,0,0l-.29-.12-.63-.26a4.12,4.12,0,0,0-1.83-.35c-.54,0-2.33.44-2,1.29a2.36,2.36,0,0,0,.62.85c.2.2.56.4.71.65l2.35-1.1c-.58-.14-1.19-.27-1.76-.47s-.85-.62-1.43-.66a3.15,3.15,0,0,0-1.78.37c-.21.12-.86.59-.48.88a3.29,3.29,0,0,0,.87.41,7,7,0,0,1,.84.48,8.18,8.18,0,0,1,.95.44,2.3,2.3,0,0,0,.91.42,2.85,2.85,0,0,0,2-.55c.47-.38.34-.76-.24-.88.2,0,0-.06-.07-.11a1.59,1.59,0,0,0-.35-.22c-.28-.15-.59-.22-.87-.37s-.43-.29-.66-.41A4.17,4.17,0,0,1,14.83,6L12.57,7.23c-.18,0,0,0,.06.1a1.72,1.72,0,0,0,.33.22,4.85,4.85,0,0,0,.87.33c.63.19,1.29.33,1.93.48a2.73,2.73,0,0,0,1.61-.3c.18-.08.94-.48.74-.8-.36-.6-1.05-.92-1.36-1.57l-.12.36c-1.91.33-2.5.54-1.77.65l-.07,0c.1,0,.21.06.31.09s.44.17.66.26a5.22,5.22,0,0,0,1.09.38,2.92,2.92,0,0,0,1.62-.3c.17-.08.93-.49.74-.8-.48-.77-1.26-1.37-1.52-2.25L14.89,5a4.43,4.43,0,0,1,1.7,1.84c.39.85,3,.15,2.9-.77,0-.39-.61-.87-.51-1.22l-2.35.92h.1l-.45-.17a3.07,3.07,0,0,1,.62.72c.19.22.39.44.59.65a2.48,2.48,0,0,0,.75.58,2.66,2.66,0,0,0,1.94-.12c.27-.1.85-.37.9-.71.08-.52-.07-1.06,0-1.58a4.45,4.45,0,0,1,.2-1l-2.89.59c.28.56-.35,1.31.22,1.79s2.55,0,2.8-.75a12.4,12.4,0,0,0,.45-2.49c.08-1.06-2.63-.35-2.88.42a12.16,12.16,0,0,0-.27,1.81,3.16,3.16,0,0,0-.06,1.64c.19.48,1,.34,1.42.27s1.28-.34,1.47-.87.36-.85.52-1.29a4.65,4.65,0,0,1,.43-1.11l-2.67,0c-.3.48-.47,1-.73,1.5a16.31,16.31,0,0,0-.75,1.51c-.14.39.46.49.69.51a3,3,0,0,0,1.63-.38,5.85,5.85,0,0,0,1.17-1c.13-.15.26-.31.39-.45s.5-.34.09-.16l-2-.1c.1.23-.29.58-.42.76-.37.54-.69,1.12-1,1.68-.59,1,1.48.63,1.87.47a5.88,5.88,0,0,0,1.32-.92c.2-.14.4-.27.59-.43s.18-.13.26-.21c.28-.25.41.14-.77.17l-.85-.52c.08-.16,0,0-.09.06a2.76,2.76,0,0,0-.3.29c-.17.2-.29.44-.46.64a3.94,3.94,0,0,0-.91,1.24c-.12.34.3.45.53.5a3.76,3.76,0,0,0,2.36-.48l.26-.14c.14-.07-.16.05.11,0a2.23,2.23,0,0,0,.31-.12.37.37,0,0,1-.15,0l-.86-.52c-.08.17-.38.34-.52.48a3.44,3.44,0,0,0-.72.89c-.31.57,1.08.5,1.21.49a8.19,8.19,0,0,0,1.2-.23l.43-.13.38-.12c.31-.11.22-.09-.26,0l-.58-.08.18,0,0-.81-.11.07,1-.45c.29-.09-.35.08-.42.1a3.24,3.24,0,0,0-.55.19c-.45.22.43,0-.12.05l-.49.06s-.46.06-.19,0c-.23,0-.46,0-.69.09a2.94,2.94,0,0,0-1.38.62c-.22.18-.44.43-.21.7s.82.39,1.26.52a5.64,5.64,0,0,0,1.55.34A2.55,2.55,0,0,0,25,10.2c.39-.56-.34-.69-.75-.71a4.22,4.22,0,0,1-1.65-.57,2.08,2.08,0,0,0-1.71,0c-.3.1-1.27.47-1.1.95a4.17,4.17,0,0,0,.33.75c.13.2.3.37.41.58s.2.49.32.72a5.26,5.26,0,0,1,.33.51l2-.94h-.1l.58.08c-.35-.09-.6-.55-.86-.79-.46-.41-.89-.83-1.32-1.26s-2.9,0-2.81.92a16.18,16.18,0,0,0,.39,2,5.21,5.21,0,0,1,.25,2l2.8-.75a2.94,2.94,0,0,1-.51-1.22A13.24,13.24,0,0,0,21.05,11c-.32-.78-.34-1.69-1.45-1.6-.53,0-1.87.24-2,.94-.31,1.29.38,2.78-.27,4l2.89-.59a2.23,2.23,0,0,1-.11-.73c0-.38-.12-.76-.16-1.14-.06-.77.13-1.42-.31-2.12-.23-.35-1.22-.17-1.52-.08a2.4,2.4,0,0,0-1.74,1.43c-.24.52-.7.89-.94,1.42l2.89-.6c0-.35.4-.74.54-1.05s.14-.35.23-.52a1.48,1.48,0,0,0,.28-.56c.07-.47-.52-.53-.85-.52a3.15,3.15,0,0,0-1.73.56,4.56,4.56,0,0,0-1,1c-.12.16-.24.3-.37.45a1.37,1.37,0,0,0-.19.23c-.12.21-.43,0,.41-.14l1.61.23c0-.22.24-.47.33-.66s.2-.54.31-.81c.23-.53.66-.93.87-1.45.14-.34-.32-.45-.53-.5a3.61,3.61,0,0,0-2.43.56l-.48.29c-.06,0-.42.31-.31.2l-.11.07a3.3,3.3,0,0,1,.89-.21l.58.08-.1,0,.17.62c.45-.45.94-.85,1.39-1.3A4.63,4.63,0,0,0,18.9,7.13c.13-.33-.32-.47-.53-.5a3.63,3.63,0,0,0-2.88,1,7.48,7.48,0,0,1-1.06.79l-.5.26-.35.18c-.4.2-.16.15.71-.14l.58.08-.16-.06a2.67,2.67,0,0,0-2,.31c-.32.19-.94.75-.29,1Z" transform="translate(-1.07 -1.05)"/></g><g class="cls-3"><path class="cls-5" d="M6.43,50.47a2.18,2.18,0,0,0-1.51-.63L4.31,52a7.52,7.52,0,0,0,1.7-.2c.14,0,1.59-.38.91-.32l-1.36-1s-.65.86-.86,1.09a8.75,8.75,0,0,0-1.06,1.22c-1,1.54,1.23,1.79,2.19,1.16.55-.35.83-.92,1.31-1.36.26-.23.56-.42.82-.65s.69-.43.26-.27l-2.13-.8c0,.37-.76,1.2-1,1.53a4.62,4.62,0,0,0-.74,1.51c-.21,1,1.18,1.06,1.75,1,1-.2,1.32-.86,2-1.47S9.37,52.56,9.91,52L9,52.57l.19-.06-1.75-.94c0,.69-.67,1.37-1,2a17.08,17.08,0,0,0-.82,1.52c-.66,1.6,1.93,1.39,2.61.65.85-.91,1.47-2,2.31-2.89l-2.69-.36a10.32,10.32,0,0,1-.65,1.34,9.69,9.69,0,0,1-.65,1.56c-.93,1.41,1.28,2,2.19,1.16a7.11,7.11,0,0,0,1.17-1.22,7.87,7.87,0,0,1,1-1.64L8.49,53c0,.17-.24.36-.32.54a5.46,5.46,0,0,0-.3,1.19,9.47,9.47,0,0,0-.56,2.1c0,.86,1,1.21,1.75,1,2.07-.73,2.81-3.55,3.77-5.33L10,52.39c-.08,1.16,0,2.31,0,3.47a4.72,4.72,0,0,0,.47,2.46c.3.53,1.13.49,1.61.39,2.3-.45,1.52-4,1.53-5.66l-2.94.19a9.74,9.74,0,0,0,.75,3.27,4.74,4.74,0,0,0,1.34,2.39,1.84,1.84,0,0,0,2.51-.67c.45-.77,0-1.75-.17-2.55-.11-.53-.16-1.07-.28-1.59s-.45-1.1-.56-1.67l-2.77,1c1,1.5,2.21,5.35,4.66,4.71,2.8-.73.27-4.71-.24-6.25l-2.77,1c.62.91,1.25,1.82,1.85,2.74.45.68.82,1.34,1.64,1.61s2,0,2.22-.82c.52-1.64-1-3.11-1-4.7l-2.8.75a9.78,9.78,0,0,1,.57,2.09c.26.81.52,1.62.77,2.44.32,1,1.75.76,2.42.32,1.41-.94.86-3.24,1.7-4.49l-2.69-.36a22.68,22.68,0,0,1-1.33,5c-.29.6.19,1.09.73,1.24a1.93,1.93,0,0,0,1.88-.59c1-1,1.39-2.55,2.25-3.71l-2.44-.92c-.55.86-1,1.76-1.5,2.64-.35.6-.67,1.37-.16,2a1.73,1.73,0,0,0,2.3,0,12.57,12.57,0,0,0,2.32-3.81l-2.79-.38c-.54,1.27-1.44,3.58-.69,4.87.47.82,2.1.48,2.54-.19a10.44,10.44,0,0,0,1.27-2.9c.15-.46.32-.9.47-1.36a2.83,2.83,0,0,0,.13-.5c0-.24.28-.48-.06-.19l-2.44-.61c0,.89-.2,1.77-.24,2.65s0,1.81,0,2.72c-.1,1.57,2.75,1.14,2.94-.2.29-2,.54-4,.95-6L21,52.55a12.8,12.8,0,0,0,.59,4,6,6,0,0,0,1.2,2.86,1.74,1.74,0,0,0,2.58-1,17.9,17.9,0,0,0-.18-3.94c-.08-.75-.19-1.51-.32-2.25a5.33,5.33,0,0,1-.22-1.05l-2.79.75c.72,1.05,1,2.4,1.74,3.5.59.91,1,2,2,2.4A1.85,1.85,0,0,0,27.81,57c.72-1.56-.79-3.58-1.4-5l-2.56,1.24c.59.39,1,1.32,1.48,1.86a13.5,13.5,0,0,0,2.24,2.1,1.83,1.83,0,0,0,2.08-.16c.83-.73.66-1.63.38-2.6-.14-.48-.32-.95-.48-1.43a14.87,14.87,0,0,1-.69-1.68L26.3,52.62c.33.23.54.77.81,1.08a7.12,7.12,0,0,0,1.16,1.1,6,6,0,0,0,2.35,1.39c1,.17,2.36-.67,1.82-1.74s-1.42-1.79-2-2.74L28,53.22a14.75,14.75,0,0,0,3.24,2.13c1.05.5,3.13-.79,1.94-1.87A5.27,5.27,0,0,1,32,52L29.7,53.4c1.09.35,1.95,1.12,3.09,1.34.91.17,2.43-.7,1.81-1.75a7,7,0,0,0-2.19-1.91c-.85-.57-3.47.39-2.43,1.52a12.77,12.77,0,0,0,4.08,3.12c1,.38,2.38-.28,2.28-1.4a3.34,3.34,0,0,0-.9-1.67c-.46-.59-.81-1.25-1.31-1.81-.86-1-3.54,0-2.64,1.3a16.89,16.89,0,0,0,2.68,3.48A1.82,1.82,0,0,0,36.68,55c.43-.8-.33-1.67-.59-2.38a8.44,8.44,0,0,1-.3-1.43c-.12-.71-.38-1.38-.51-2.09-.26-1.29-3-.73-2.92.49a38.15,38.15,0,0,0,.47,4c.1.85.26,1.92,1.21,2.2a1.76,1.76,0,0,0,2.3-1.1,36.64,36.64,0,0,0,.43-7l-3,.19a21.51,21.51,0,0,0,1.4,7.46c.53,1.27,2.68.74,2.92-.48a8.6,8.6,0,0,0-.52-3.24c-.3-1.37-.7-2.72-1-4.09l-2.77,1c1.28,1.92,1.53,4.7,3.21,6.34.74.72,2.93-.09,2.56-1.25a34,34,0,0,0-1.26-3.27,12.31,12.31,0,0,1-1-2.55l-2.28,1.4c.55.28.91,1,1.34,1.44.26.26.54.53.82.76a2.22,2.22,0,0,0,2.87.23,1,1,0,0,0,.35-1.35A28,28,0,0,0,38,46.71l-1.82,1.74c.2,0,.69.56.82.67a11.08,11.08,0,0,0,1.5,1.07c.82.46,2.92.08,2.56-1.25A4.78,4.78,0,0,0,39.57,47a7.6,7.6,0,0,0-2-1.83c-1-.43-3.26.89-1.93,1.87,1,.77,2.73,2,4.1,1.57.86-.27,1.65-1.11.83-1.9s-2-1.05-2.52-1.85l-1.44,1.76c.94-.1,1.64.38,2.58-.21a1.92,1.92,0,0,0,.73-.84,2.29,2.29,0,0,0,.15-.51c.07-.35.23-.38-.08,0l-2.7-.36c.08,1.32-.06,2.64,0,4A1.33,1.33,0,0,0,38.11,50a2.31,2.31,0,0,0,2.09-.37c.21-.14.4-.31.6-.47s.72-.34.12-.21l-1.11,0,.09,0L39.25,48c.24-.33.21-.34-.08,0l-.35.35a2.6,2.6,0,0,1-.57.48c-1,.55-1.12,1.77.16,2,.4.06.79,0,1.17,0l-1-1,0,.17.5-.8c.35-.28.42-.12,0-.14a4.21,4.21,0,0,0-.5,0,2.72,2.72,0,0,0-1.63.6,1,1,0,0,0-.35,1.35c.51,1,1.73,1,2.45,1.63l1.23-2c-1.28.14-3.27-.69-4,.94-.48,1,.6,2.31,1.39,2.88S41,54.24,40.08,53s-2.85-2.42-4.33-1.63c-1.7.9-.62,3-.1,4.28l1.57-1.49c-.32,0-.9-.33-1.2-.42a8.38,8.38,0,0,0-1.56-.28,1.87,1.87,0,0,0-1.89.9,5.15,5.15,0,0,0,.08,3.44l1.94-1.48c.67.09.38,0,.07-.35a4.77,4.77,0,0,0-1.06-.89,1.88,1.88,0,0,0-2.33.4c-.67.76-.29,1.48-.52,2.32l2.92-.48c-.36-1-.51-2.64-1.87-2.79-.62-.06-1.67.2-1.88.91-.05.18-.2,1.26-.2,1.26l2.08-.15c-.15-.09-.31-1.39-.49-1.67-.51-.83-2.06-.46-2.54.19a8.25,8.25,0,0,0-.85,2.64l2.5-.67c-.31-.27-.49-.63-.82-.89a1.8,1.8,0,0,0-2.5.67,8.92,8.92,0,0,0-.4,1.06c0,.12-.08.24-.11.36s-.05.19,0-.07l2.67.07c-.34-1-.55-2.66-1.37-3.36a1.8,1.8,0,0,0-2.51.67,5.69,5.69,0,0,0-.19,2.25l2.58-1c-.42-.28-.36-1.1-.94-1.42a1.84,1.84,0,0,0-2.5.67A9.22,9.22,0,0,0,23.6,59l2.58-1c-.49-.39-.45-1.24-1-1.7-.73-.67-2.1-.08-2.5.67a17.93,17.93,0,0,1-1,2.26l2.55-.19c-.55-.84-.81-1.74-2-1.81a3.35,3.35,0,0,0-2.78,1.64L22,58.73c-.25-.24-.19-.8-.28-1.13a1.22,1.22,0,0,0-1.33-.72,2.65,2.65,0,0,0-1.76.84,3.31,3.31,0,0,0-.41.64c-.08.14-.36.53-.23.44l2.29.05A4.18,4.18,0,0,1,20,57.79c-.14-.58-.83-.73-1.33-.72-1.56,0-1.73,1.1-2.65,2l2.54-.19c-.26-.42,0-1.06-.09-1.52a1.25,1.25,0,0,0-.86-1,1.87,1.87,0,0,0-2,.55c-.33.43-.57.89-.86,1.34l2.55-.19c-.19-.33-.19-.68-.43-1-.65-.83-1.93-.42-2.55.19a5.5,5.5,0,0,1-.62.56l2.09-.16c-.33-.25-.3-1.17-.4-1.55-.25-.86-1.48-.82-2.11-.51a11.55,11.55,0,0,0-2.52,2l2.08-.15c.3.24.17.2.28-.17a1.66,1.66,0,0,0,.06-.54,1,1,0,0,0-1-1,3.3,3.3,0,0,0-1.83.33c-.45.22-.92.7-1.4.79l1.5,1.5a4.88,4.88,0,0,0,.63-1.05C11.59,56.08,9.76,56,9,56.28a16.85,16.85,0,0,0-1.95,1.18L9.1,58.55a3.34,3.34,0,0,1,.46-.77.89.89,0,0,0-.11-1.32c-.9-.66-1.79-.22-2.77-.14L8,57.61l.2-.36a.84.84,0,0,0-.28-1c-.58-.49-1.17-.44-1.84-.65L6.43,57c.57-.69,1.39-1.6.62-2.48s-2-.45-2.9-.26l.93,1.95c.69-.32,1.67-.95,1.73-1.81S6,53,5.37,52.59a1.86,1.86,0,0,0-2.08.16c-.46.36-.77,1.17-.14,1.56.15.09.43.37.57.37s.42-.42.06-.26c-1.61.74-.51,2.25.93,1.95.41-.09.7,0,0-.37-.52-.32-.43-.28-.74.1a.89.89,0,0,0,.39,1.47c.36.11,1,.11,1.28.36l-.28-1.06-.21.36c-.47.84.64,1.35,1.28,1.3a3.69,3.69,0,0,0,.81-.12c.46-.17.45.12,0-.23l-.11-1.32a5.68,5.68,0,0,0-.8,1.31c-.45,1.21,1.23,1.55,2,1.09a17.74,17.74,0,0,1,2-1.18L8.26,57A1.28,1.28,0,0,1,8,57.5c-.85,1.12.57,1.67,1.5,1.5a3.75,3.75,0,0,0,1.27-.54c.25-.15,1.09-.41.42-.47l-1-1c0,.9-.45,1.53.38,2.24a1.83,1.83,0,0,0,2.09-.16,9.53,9.53,0,0,1,1.88-1.66l-2.1-.51c.27,1,.24,1.83,1.08,2.49a1.83,1.83,0,0,0,2.08-.16c.39-.32.75-.67,1.11-1l-2.54.19a8.94,8.94,0,0,1,.43,1c.47.82,2.11.49,2.55-.19.28-.44.53-.92.85-1.34L16,58.4l.15.07-.62-.62c.31.78-.08,1.55.43,2.37s2,.38,2.54-.19a8.61,8.61,0,0,0,.79-1.15l-1.08.41h.27l-1.34-.71a6.4,6.4,0,0,0,.56,1.59c.46.79,1.74.41,2.3.05a2.45,2.45,0,0,0,.75-.85,1.59,1.59,0,0,0,.21-.41c.14-.52.63,0-.73.15l-1.34-.72c.16.57.08,1.2.53,1.66a1.78,1.78,0,0,0,2.55-.19l.34-.44c-1.21-.48-1.61-.46-1.18.07a4,4,0,0,0,.5.91c.53.82,2.05.48,2.55-.19a22,22,0,0,0,1.37-2.8l-2.5.67c-.24-.22.15.62.2.73a2.6,2.6,0,0,0,.76,1,1.75,1.75,0,0,0,2.58-1,7.36,7.36,0,0,1,.6-2.31l-2.5.67c.4.22.45,1.1.94,1.43.69.46,2.67.17,2.58-1a4.52,4.52,0,0,1,0-1.68l-2.51.67c-.12-.1.09.6.12.69.17.58.38,1.15.58,1.73.4,1.15,2,.73,2.67.07a6.27,6.27,0,0,0,.82-1.89l-2.5.67c.3.24.52.63.82.9a1.8,1.8,0,0,0,2.5-.67A21.35,21.35,0,0,1,31.21,56l-2.54.19c.43.71,0,1.6.91,2.09a1.92,1.92,0,0,0,2.08-.16c.88-.6.78-1.39,1-2.29l-1.88.9c-.32,0-.46-.37-.5-.07s.15.47.2.61.16.56.25.84c.49,1.38,2.62.62,2.92-.49a2.61,2.61,0,0,0,0-.79c0-.16.13-.56,0-.42l-2.33.4c.82.53,1.19,1.57,2.23,1.71.77.1,2.23-.46,1.94-1.48a3.63,3.63,0,0,1-.19-2.29l-1.89.91c1.2.12,2.3.89,3.51.72.59-.08,1.92-.61,1.57-1.49-.16-.41-1-2-.76-2.42l-1.11.85c-.79.29-.55-.12-.17.26s.65.39.92.73l2.44-1.51a2.21,2.21,0,0,1-.41-.4c-.48-.57-.15-.84-.91-.12s-.5.48.2.58A5.08,5.08,0,0,0,40,53c.94-.11,2.19-1.06,1.22-2-.53-.5-1.69-.55-2-1.21l-.35,1.36c-.49.17-.55.24-.19.18l.37,0a5,5,0,0,0,1-.17,2,2,0,0,0,1.49-1.45c.15-.56-.56-.93-1-1s-.79,0-1.18,0l.17,2c.92-.53,2.56-1.61,2.64-2.79a.91.91,0,0,0-.65-.91,2.44,2.44,0,0,0-2.11.37c-.21.14-.39.3-.59.46l-.31.27c-.24.17-.19.16.17-.06l1.1,0c.55.14.21.62.39,0a5.62,5.62,0,0,0,0-1.23c0-.75,0-1.48,0-2.23-.08-1.38-2-1.16-2.7-.36-.24.28-.18.79-.39,1l.94-.58c.44-.12,0-.09-.32-.13a3.62,3.62,0,0,0-.93,0c-.75.08-2.08.83-1.44,1.76s2.06,1.41,2.95,2.27l.83-1.9c.72-.23.61,0,0-.35a11.61,11.61,0,0,1-1.33-.86l-1.94,1.87c.36.16,1,1,1.31,1.37s.84.73,1,1.15l2.56-1.24c-1.15-.66-2.17-2.06-3.56-2.21-.77-.08-2.61.71-1.81,1.75a27.67,27.67,0,0,1,2.48,3.5l.36-1.36-.08.05,1.46-.39c.41.07-.23-.32-.35-.43a5.92,5.92,0,0,1-.56-.56,6.59,6.59,0,0,0-1.9-1.71c-.88-.47-2.45.33-2.28,1.39a11.39,11.39,0,0,0,1,2.55,32.59,32.59,0,0,1,1.26,3.28l2.56-1.25a6,6,0,0,1-.72-1.41c-.25-.54-.48-1.09-.72-1.64a20.84,20.84,0,0,0-1.34-2.87c-.69-1-3.06-.25-2.78,1s.61,2.43.91,3.65a8.79,8.79,0,0,1,.57,3.09l2.92-.48a19.72,19.72,0,0,1-1.35-6.88c0-1.57-3-1.18-3,.19a35.76,35.76,0,0,1-.42,7l2.3-1.11c.24.28.32.31.22.11a3.38,3.38,0,0,1-.11-.48,8.08,8.08,0,0,1-.11-.86c-.12-1-.37-2.07-.4-3.11l-2.92.49c.2,1,.43,2.15.71,3.17a5.5,5.5,0,0,0,.36.87c.12.26.3,1,.44.7l2.5-.67a15.63,15.63,0,0,1-2.26-3.06l-2.64,1.3c.43.49.72,1.06,1.11,1.58s.78.78.84,1.38l2.28-1.4a6.21,6.21,0,0,1-1.48-1.07,13.78,13.78,0,0,1-1.61-1.34l-2.44,1.52A5.93,5.93,0,0,1,32,54.29l1.81-1.74c-.85-.16-1.59-.91-2.42-1.17s-2.71.25-2.27,1.4A6.75,6.75,0,0,0,31,55.2l1.94-1.87a12.47,12.47,0,0,1-2.68-1.83c-.89-.77-3.17.25-2.43,1.51.56,1,1.48,1.75,2,2.74L31.6,54c.49.09-.48-.49-.63-.6a7.62,7.62,0,0,1-.91-.67c-.6-.56-.88-1.36-1.54-1.83-.87-.62-2.79,0-2.56,1.25a4.07,4.07,0,0,0,.45.94c.22.49.36,1.07.53,1.57.08.24.16.47.23.71a1.88,1.88,0,0,0,.12.48c.23.31-.4.54.42-.17l2.08-.16a12.13,12.13,0,0,1-2.25-2.22,6.87,6.87,0,0,0-1.47-1.74c-.72-.46-3.11,0-2.56,1.25.26.59.59,1.14.84,1.74.16.38.87,1.67.68,2.09l2.22-.82c-.21-.08-.56-.91-.67-1.08-.27-.45-.59-.88-.85-1.33-.51-.89-.69-1.92-1.27-2.77s-2.65-.36-2.79.74a12.74,12.74,0,0,0,.47,3,17.37,17.37,0,0,1,.25,4.19L25,57.67c.23.22-.17-.68-.19-.75-.15-.45-.27-.91-.39-1.37a10.2,10.2,0,0,1-.48-3.19c.09-1.61-2.68-1.09-2.95.19-.4,2-.65,4-.94,6l2.94-.2c.06-.9,0-1.81,0-2.71s.21-1.76.24-2.65c.05-1.24-1.76-1.19-2.44-.61a4.18,4.18,0,0,0-1.08,2.17,14,14,0,0,1-1.23,3.27L21,57.64c-.14-.26.21-1.08.27-1.32a11.2,11.2,0,0,1,.57-1.87c.68-1.59-2.19-1.52-2.79-.38a9.92,9.92,0,0,1-1.47,2.79l2.29,0a16,16,0,0,0,1.45-2.39c1-1.57-1.61-2-2.44-.92s-1.28,2.71-2.25,3.71l2.61.65a25.73,25.73,0,0,0,1.49-5.62c.29-1.37-2.2-1.1-2.69-.36a5.49,5.49,0,0,0-.79,2.14c-.12.53-.27,1-.43,1.56-.12.37-.42.59,0,.3l2.43.32c-.29-1-.62-1.91-.89-2.87a8.88,8.88,0,0,0-.7-2.19c-.56-1-2.78-.35-2.8.75a6.29,6.29,0,0,0,.53,2.16c.13.4.25.8.35,1.2,0,.09.16,1.06.26.76l2.21-.82c-.38-.13-.79-1.11-1-1.45-.51-.71-1-1.46-1.47-2.19-.66-1-3.19-.25-2.77,1,.28.85.66,1.61,1,2.44.15.4.24.83.36,1.24,0,.12.08.24.13.37,0,.31.1.29.18-.07L16.31,56c.51.08,0-.21-.21-.52a10.18,10.18,0,0,1-.6-1c-.45-.79-.9-1.61-1.41-2.36-.71-1-3-.26-2.78,1,.17.84.55,1.62.7,2.49.08.46.64,1.79.42,2.16l2.5-.67c-.46-.33-.61-1.28-.8-1.79a7.3,7.3,0,0,1-.57-2.34c-.05-1.56-2.94-1.18-2.94.19,0,.83,0,1.66,0,2.48,0,.32,0,.64,0,1,0,1-.25.16.81,0l1.6.39a4.54,4.54,0,0,1-.18-2.11c0-.91-.05-1.81,0-2.71.11-1.59-2.37-1-2.86-.09-.34.64-.66,1.29-1,1.93-.22.41-.42.83-.64,1.24s-.64.72.1.45l1.75,1a8.1,8.1,0,0,1,.53-1.92c.16-.68.5-1.24.65-1.91.29-1.25-1.88-1.1-2.44-.61-1,.83-1.33,2-2.21,2.87L9,56.27a12.58,12.58,0,0,0,1-2.1,12.4,12.4,0,0,0,.81-1.92c.34-1.48-2.17-.92-2.69-.36-.85.89-1.47,2-2.31,2.89l2.61.65c.55-1.31,2-2.6,2-4,0-.91-1-1.15-1.75-1a6.16,6.16,0,0,0-1.85,1.15,15.78,15.78,0,0,0-1.82,1.74l.94-.58-.29.06,1.75,1a6.4,6.4,0,0,1,.95-1.55A3.16,3.16,0,0,0,9,50.7c.14-1.16-1.47-1.05-2.13-.8a5.93,5.93,0,0,0-1.56,1.19c-.5.41-.94,1.15-1.46,1.49l2.19,1.16c.75-1.19,2.07-2,2.43-3.42.18-.72-.85-1.06-1.36-1a25.07,25.07,0,0,1-2.61.51c-1.33,0-2.38,2.11-.61,2.21.57,0-.15-.26.28.16,1,.94,3.45-.53,2.22-1.72Z" transform="translate(-1.07 -1.05)"/></g><g id="_24lqUV.tif" data-name="24lqUV.tif"><path d="M12.67,26.63a1.24,1.24,0,0,1,.18-1.06c.3-.37.15-.82.24-1.22a2.17,2.17,0,0,1,.21-.62,1.58,1.58,0,0,0,.32-.95c0-.19,0-.43.28-.49a.18.18,0,0,0,.14-.21,4,4,0,0,1,.32-2c.23-.84.28-1.7.52-2.52.15-.5.33-1,.44-1.49s.31-1.09.39-1.65a2.14,2.14,0,0,1,.79-1.19c.14-.13.3-.21.39-.41s.28-.29.47-.06a2.56,2.56,0,0,1,1-1.24c.11.08.11.16.07.19a3.5,3.5,0,0,0-.67,1.17c-.21.42-.4.86-.59,1.29-.05.1-.05.24-.12.29A4.3,4.3,0,0,0,16,16.38a13.29,13.29,0,0,0-.45,1.81c-.09.29-.24.55-.06.85a.43.43,0,0,0,.41.27c.66,0,1,.37,1.33.89a11.59,11.59,0,0,0,.88,1.58.92.92,0,0,1,.23,1.13.28.28,0,0,0,0,.22c.32.62-.07,1.07-.37,1.54a2.07,2.07,0,0,1-.84.69c-.61.29-.86,1-1.49,1.24a1,1,0,0,0-.5.28c-.11.15-.21.12-.35.07s-.15-.2-.12-.34c.09-.43,0-.5-.44-.46-.84.06-.77.08-.91.89-.17,1-.46,2-.7,3-.6.41-.28,1.09-.46,1.62s-.28,1.37-.54,2a8.41,8.41,0,0,0-.15.92q-.51,2-1,3.93a4.85,4.85,0,0,0-.13.93.45.45,0,0,0,.4.42,11.57,11.57,0,0,1,2,.6c.09,0,.17.06.2.15a2.51,2.51,0,0,1,.23,1.57,1.41,1.41,0,0,0-.08.57,3.82,3.82,0,0,1-.66,2.53,4.62,4.62,0,0,1-1.89,1.77,2,2,0,0,1-1.41.16c-.24-.08-.28.07-.2.23a1.36,1.36,0,0,1-.16,1.36c0,.07-.08.18-.06.21.33.38.09.87.25,1.29s-.22.67-.09,1c0,.06-.07.09-.13.08a.25.25,0,0,1-.26-.14c-.28-.7-.57-1.4-.82-2.11a.61.61,0,0,1,0-.44,2,2,0,0,0,.12-1,7.37,7.37,0,0,1,.45-2.17c.1-.61.3-1.2.4-1.81a4.49,4.49,0,0,1,.29-.75c.24-.73,0-1.52.35-2.24s.12-1.48.44-2.2a3.17,3.17,0,0,0,.37-1.29c-.06-.63.37-1.08.33-1.66a.35.35,0,0,1,.07-.25,1.59,1.59,0,0,0,.39-1.2,12.09,12.09,0,0,1,.37-1.71,10,10,0,0,1,.39-1.79,18.62,18.62,0,0,0,.78-2.88c.08-.26.44-.44.19-.8-.08-.11.13-.1.21-.16s.25-.16.16-.32S12.79,26.69,12.67,26.63Zm3.07-1c.13,0,.34,0,.37-.08.12-.54.72-.61,1-1.05a5.56,5.56,0,0,0,.69-1.35A1.21,1.21,0,0,0,17.44,22c-.48-.47-.65-1.16-1.21-1.55,0,0,0,0,0,0a.79.79,0,0,0-1-.39c-.32.17-.63.39-.48.87a.94.94,0,0,1-.06.57c-.32.77-.44,1.6-.83,2.34A.88.88,0,0,0,14.13,25,2.91,2.91,0,0,0,15.74,25.62ZM12.35,42.79c.07-.17,0-.45,0-.73a.72.72,0,0,0-.4-.7,4.93,4.93,0,0,0-.82-.35c-.51-.19-1,0-1.1.46a16.9,16.9,0,0,1-.48,2.08c-.16.59-.18,1.25-.36,1.87-.06.2.09.49.19.71a2,2,0,0,0,1.15-.06c.3-.35.68-.6,1-.94A3.16,3.16,0,0,0,12.35,42.79Z" transform="translate(-1.07 -1.05)"/><path d="M22.31,15.07a4.39,4.39,0,0,1,.08,1c0,.09,0,.21.06.26A2.09,2.09,0,0,1,23,17.9C23,18,23,18,23,18c.5.29.38.84.54,1.27a.8.8,0,0,0,.26.46c.22.16.51.26.25.66-.15.24.14.43.37.51s.41.13.21.41a.23.23,0,0,0,.09.35,3.31,3.31,0,0,1,1,1.59,7.86,7.86,0,0,1,.55,1.34,2.1,2.1,0,0,0,.53.72,1.73,1.73,0,0,1,.46.9.43.43,0,0,0,.18.34.8.8,0,0,1,.35.51c.12.73.63,1.31.75,2,.09.54.63.84.57,1.41,0,.07.13.15.2.22.27.29.56.56.51,1a0,0,0,0,0,0,0c.36.5.32,1.19.73,1.67a.48.48,0,0,1,.15.32,1.19,1.19,0,0,0,.51,1,.49.49,0,0,1,.22.62.3.3,0,0,0,0,.21c.34.37.34.92.72,1.3a2.85,2.85,0,0,1,.62,1.48c0,.12,0,.26.12.31.38.12.34.45.44.74.22.6.17,1.32.74,1.76a.08.08,0,0,1,0,0c0,.61.53,1,.66,1.61a4.28,4.28,0,0,0,.64,1.72c.14.18.12.34-.12.47-.46.27-1.12.39-1.28-.13,0-.06-.13-.15-.06-.18.48-.25,0-.36,0-.57A3.23,3.23,0,0,1,33.62,43a3.71,3.71,0,0,0-.53-1.58,7.86,7.86,0,0,1-.43-1.35A3.74,3.74,0,0,0,32.21,39a7.54,7.54,0,0,1-.69-1.5c-.14-.38-.09-.83-.62-1-.07,0-.13-.19-.16-.31-.12-.47-.46-.89-.54-1.34a5,5,0,0,0-.8-1.52,2.3,2.3,0,0,1-.5-1.31.39.39,0,0,0-.1-.24,8.94,8.94,0,0,1-1.27-2.64,5.2,5.2,0,0,0-.61-1.44c-.12-.17-.31-.29-.43-.08-.3.53-.81.56-1.31.59a2.65,2.65,0,0,1-1.63-.3c-.13-.09-.27-.14-.26-.33a.17.17,0,0,0-.2-.19c-.33.05-.4-.23-.49-.42a9.15,9.15,0,0,1-.29-.93A2.5,2.5,0,0,1,22.67,24c.25-.42.58-.76.84-1.16a1,1,0,0,1,.3-.27.6.6,0,0,0,.05-1,2.25,2.25,0,0,1-.69-1.22,2.81,2.81,0,0,0-.3-.63,14.78,14.78,0,0,1-.69-1.52c-.31-.66-.21-1.42-.58-2.06a4.06,4.06,0,0,1-.28-1.52c0-.13.1-.21.23-.24a.26.26,0,0,1,.17,0c.18.05.26-.3.42-.13A1.21,1.21,0,0,1,22.31,15.07ZM23,25.39a4.47,4.47,0,0,0,.58,1.47.41.41,0,0,0,.36.22c.27,0,.34.11.38.32s.18.31.48.25.47-.3.71-.19c.51.22.7-.23.79-.48a1,1,0,0,0-.13-1.05,2.56,2.56,0,0,1-.64-1.31c-.09-.25-.08-.48-.39-.56s-.17-.17-.1-.32,0-.36-.25-.42a2,2,0,0,0-1.57.94A3.66,3.66,0,0,0,23,25.39Z" transform="translate(-1.07 -1.05)"/><path d="M50.21,77.91a.55.55,0,0,1-.5-.39c-.11-.27.16-.23.27-.31a9,9,0,0,0,1.31-.75,2.56,2.56,0,0,0,.58-1.87,3,3,0,0,0-.41-2.1A5.59,5.59,0,0,0,50,70.75c-.15-.09-.29-.12-.37,0a3.41,3.41,0,0,0-.36.81c-.14.57-.32.76-.9.79a.36.36,0,0,0-.26.14,1.05,1.05,0,0,1-1.29.08,1.52,1.52,0,0,1-.57-1.6,7.1,7.1,0,0,1,1-2.61c.25-.44.84-.63,1.3-.9h0c.31,0,.58.18.9.18s.27.19.28.39a2.86,2.86,0,0,0,.81,1.59,8,8,0,0,1,1.18,1.62c.15.33.24.77.62,1,0,0,.1.1.1.14-.06.55.39,1,.21,1.6-.12.36.09.7,0,1.07a3.79,3.79,0,0,1-1,2.35A2.9,2.9,0,0,1,50.21,77.91Zm-.8-7.62a1.21,1.21,0,0,0-.07-.3c-.27-.36-.54-.71-.82-1.06a.2.2,0,0,0-.29,0,1.15,1.15,0,0,0-.48.56,7.49,7.49,0,0,1-.49,1.61,3.68,3.68,0,0,0-.19.69.24.24,0,0,0,.09.28A.92.92,0,0,0,48.27,72c.25-.23.41-.57.67-.75S49.24,70.57,49.41,70.29Z" transform="translate(-1.07 -1.05)"/><path d="M29.26,47.63A2.31,2.31,0,0,1,27.61,47,4.88,4.88,0,0,1,26,45c0-.08-.1-.15-.08-.25a5.14,5.14,0,0,1,1-2.51,10.61,10.61,0,0,1,1.37-1.12.49.49,0,0,1,.34,0c.45.09.9-.15,1.34,0,.13.05.25,0,.37-.11a1,1,0,0,1,1.51.31c.24.31.68.51.6,1,0,.09.09.18.19.23A.44.44,0,0,1,33,43a6.65,6.65,0,0,1-.4,2.53,3,3,0,0,1-.43.57A3.85,3.85,0,0,1,29.26,47.63Zm-2.18-3.45c.19.57.12,1.3.81,1.77A5.66,5.66,0,0,1,28.8,47c.22.25.47.13.51-.1s.27-.3.48-.33a1.91,1.91,0,0,0,.95-.23,9.86,9.86,0,0,0,1.55-2s0-.11,0-.17a2.24,2.24,0,0,0-.15-.69c-.16-.32,0-.75-.32-1s-.75-.73-1.37-.5a1.15,1.15,0,0,1-.7-.07C28.3,41.45,27.2,43,27.08,44.18Z" transform="translate(-1.07 -1.05)"/><path d="M40.48,62.48a5.9,5.9,0,0,1-2.28,1c-.3,0-.94.67-.94,1,0,0,0,.11,0,.13.51.46.47,1.21.88,1.72a1.7,1.7,0,0,0,1.23.23,5.92,5.92,0,0,0,1.69-.88c.12-.08.25-.15.36,0a.32.32,0,0,1,0,.41c-.36.29-.56.86-1.18.75,0,0-.16,0-.16,0-.1.62-.86.37-1.11.85-.08.16-.4.07-.58,0A2.73,2.73,0,0,1,36.9,66a5.85,5.85,0,0,0-.78-1.48c-.12-.21-.34-.16-.52-.07a.53.53,0,0,1-.69-.12c-.2-.19-.32-.29.05-.5a1.61,1.61,0,0,0,.67-.65c.15-.32-.05-.64-.24-.92a7.8,7.8,0,0,0-.46-.85c-.22-.27,0-.55.15-.79s.47-.07.7-.1.22.25.32.39a3.42,3.42,0,0,1,.43,1.39c.07.36.3.51.72.5a24.61,24.61,0,0,1,3-.34Z" transform="translate(-1.07 -1.05)"/><path d="M16.59,37.14c.06-.78-.08-1.54.47-2.14a3,3,0,0,1,1-.82c.32-.13.57-.35.92-.47a5,5,0,0,1,2.31.07c.47.06.81.51,1.18.81a3.17,3.17,0,0,1,1,1.64A1.8,1.8,0,0,1,23,37.81a4.61,4.61,0,0,1-1.09,1,.62.62,0,0,1-.29.07.68.68,0,0,0-.33.11,2.77,2.77,0,0,1-1.82.78.35.35,0,0,1-.32-.11c-.06-.07-.12-.15-.22-.12-.75.24-1.09-.36-1.5-.75-.22-.21-.35-.5-.58-.72S16.71,37.4,16.59,37.14Zm3.35-2.78a2.4,2.4,0,0,0-2.36,1.41,1.61,1.61,0,0,0-.19.62c-.08.63.52,1.12.32,1.75,0,0,0,.1.07.1.26,0,.23.24.27.4a.59.59,0,0,0,.8.41,1,1,0,0,1,.49,0,2.39,2.39,0,0,0,1-.19c.56-.21,1-.66,1.55-.86.4-.14.86-.47.87-.92A2.38,2.38,0,0,0,22,35.33c-.19-.19-.52-.26-.43-.64,0-.06,0-.1-.1-.1C20.92,34.54,20.44,34,19.94,34.36Z" transform="translate(-1.07 -1.05)"/><path d="M10.88,78.6a2.26,2.26,0,0,1,.54-1.45,2.11,2.11,0,0,0,.28-.45c.09-.14.11-.3.38-.28s.28-.35.34-.54a1.47,1.47,0,0,1,2.21-.66,1.4,1.4,0,0,1,.42,1.09c0,.66.24,1.29.29,1.94a1.41,1.41,0,0,0,1,1.27c.24.1.44.2,0,.36-.1,0-.16.13-.12.21s0,.3-.19.39a.5.5,0,0,1-.56,0c-.29-.18-.45-.33-.43-.69a.49.49,0,0,0-.19-.38c-.53-.27-.52-.81-.69-1.26-.05-.15-.12-.29-.28-.32s-.19.17-.27.29c-.29.4-.58.8-.89,1.18a1.06,1.06,0,0,1-1.24.37A.9.9,0,0,1,10.88,78.6Zm1.32.1s.12,0,.15-.11c.19-.35.53-.58.75-.93s.24-.87.65-1.15c.15-.11.31-.32.12-.5a.45.45,0,0,0-.65,0,4.6,4.6,0,0,0-.56.68A2.4,2.4,0,0,0,12,77.92c0,.11,0,.21-.12.25s-.12.2-.07.32A.34.34,0,0,0,12.2,78.7Z" transform="translate(-1.07 -1.05)"/><path d="M3.06,65.08a1.3,1.3,0,0,0-.13-.78c-.15-.27-.56-.27-.69-.59a.16.16,0,0,0-.16,0c-.29.29-.49,0-.69-.14s-.1-.4-.13-.61.1-.12.19-.14a.84.84,0,0,1,.52,0c1,.32,1,.31,1.4-.67a.54.54,0,0,1,.37-.35,2.86,2.86,0,0,1,.87-.17.76.76,0,0,1,.85.31c.21.3.57.47.74.87a1.59,1.59,0,0,1,0,1.21c-.06.18-.86.64-1,.56s-.56.06-.81.15-.28.41-.18.65a2.1,2.1,0,0,0,1.62,1.3c.19,0,.31,0,.35.24s-.12.3-.29.32a3.61,3.61,0,0,1-1.5,0c-.2-.07-.28-.23-.39-.35A2.36,2.36,0,0,1,3.06,65.08Zm1.69-1.37c.22-.06.6.17.63-.3a1.28,1.28,0,0,0-.76-1c-.29,0-.53.32-.53.75S4.17,63.71,4.75,63.71Z" transform="translate(-1.07 -1.05)"/><path d="M21.89,65.9c0,.64-.27,1-.88,1-.33,0-.62.14-1,.12s-.66.62-.54.86c.29.58.35,1.28,1,1.71a1,1,0,0,0,1,.23,3.59,3.59,0,0,1,.57-.11c.09,0,.19,0,.22.09s.11.22,0,.3a2.32,2.32,0,0,1-.82.53s-.12,0-.12,0c-.26-.42-.55.2-.8,0-.25.31-.14-.19-.34-.15a.76.76,0,0,1-.79-.47c-.23-.51-.79-.67-1.05-1.15a1.72,1.72,0,0,1-.1-.76A2.43,2.43,0,0,0,18,67.2c-.25-.45-.16-.64.33-.79.21-.06.21-.23.22-.35.08-.7.69-1,1.14-1.34.27-.23.76,0,1.11.14a6.1,6.1,0,0,0,.6.38C21.76,65.37,22,65.59,21.89,65.9Z" transform="translate(-1.07 -1.05)"/><path d="M5.45,74.28a1.89,1.89,0,0,1-1.28,1.87,8.44,8.44,0,0,0-2,.94c-.2.14-.2.28-.05.44a.36.36,0,0,1,0,.58.28.28,0,0,0-.09.28c.12.72-.08,1.43,0,2.15a2.34,2.34,0,0,1-.15.83c-.08.28-.32.26-.52.23s-.15-.22-.19-.38c-.24-1,.25-1.9.35-2.85s.24-2.19.29-3.29a.87.87,0,0,0-.08-.52.24.24,0,0,1,.07-.35.84.84,0,0,0,.35-.78c0-.37.18-.4.44-.4s.35.06.53.07.51.25.65-.14c0,0,.11,0,.17,0A1.42,1.42,0,0,1,5.45,74.28ZM4,73.89c-.24,0-.48.07-.7.14-.63.2-.71.34-.77,1a2.29,2.29,0,0,1-.14.69c-.13.28,0,.22.17.21.57,0,1-.48,1.51-.61.15,0,.28-.27.38-.43a.69.69,0,0,0,0-.72A.4.4,0,0,0,4,73.89Z" transform="translate(-1.07 -1.05)"/><path d="M24.84,77.74c-.26.34.05.44.27.59a1.09,1.09,0,0,1,.25,1.21.35.35,0,0,1-.13.11c-.13,0-.36,0-.36-.06,0-.42-.82-.08-.54-.66a.33.33,0,0,0-.09-.4,1.89,1.89,0,0,1-.6-1.06c0-.25-.33-.21-.5-.32-.49-.32-.94-.14-1.31.37-.58.79-1.12,1.6-1.62,2.44-.08.14-.17.42-.35.34a.8.8,0,0,1-.5-.53c-.12-.45,0-.92-.14-1.38,0-.19.09-.42-.16-.54,0,0,0-.13,0-.17.21-.45,0-.85-.11-1.27-.05-.27.13-.37.32-.4s.33.06.39.28c.11.44.23.89.36,1.33,0,.15,0,.43.23.37s.6,0,.67-.33a1.32,1.32,0,0,1,.89-1.13l0,0c.4-.81,1-.46,1.63-.36.89.12.9.95,1.36,1.39C24.84,77.58,24.83,77.66,24.84,77.74Z" transform="translate(-1.07 -1.05)"/><path d="M29.54,77.64a2.77,2.77,0,0,1-.6,1.5c-.13.19-.51,0-.55-.25-.08-.74-.52-1.39-.56-2.15a1.63,1.63,0,0,0-.35-.74,1.14,1.14,0,0,1-.21-.71c0-.14-.07-.32.13-.38a.49.49,0,0,1,.5.1,2.25,2.25,0,0,1,.46.86c.13.29.15.76.5.78s.32-.46.47-.71c.28-.46.49-.93,1.17-.84.24,0,.45-.22.76-.11.5.18.89.41.94,1,0,.33.42.45.43.81,0,.17.18.31.08.54s.14.25.26.31a.66.66,0,0,1,.35.58c0,.24.11.55-.16.61a.6.6,0,0,1-.7-.35c-.17-.37-.34-.73-.49-1.11a.9.9,0,0,0-.45-.58c-.18-.08-.15-.27-.18-.43-.07-.45-.39-.54-.8-.32C29.86,76.38,29.74,77,29.54,77.64Z" transform="translate(-1.07 -1.05)"/><path d="M44.88,74.28a.85.85,0,0,1-.67-.34,5,5,0,0,0-1.63-1.22.82.82,0,0,0-.92.39A4.61,4.61,0,0,0,41,74.78a2.4,2.4,0,0,0,0,1.22.53.53,0,0,1-.29.64c-.35.19-.58-.07-.7-.28a1.84,1.84,0,0,0-.68-.73,2.32,2.32,0,0,1-.9-1.25,1.14,1.14,0,0,0-.35-.61c-.28-.23-.12-.49-.07-.75,0-.11.07-.21.21-.18s.55.07.59.41a1.89,1.89,0,0,0,.85,1.35c.18.12.29.18.43,0,0,0,.1-.09.11-.14a5.72,5.72,0,0,1,.8-1.78,1.36,1.36,0,0,1,.86-.8,2.32,2.32,0,0,0,.37-.13.86.86,0,0,1,1.11.26.64.64,0,0,0,.41.25.8.8,0,0,1,.63.68,1.67,1.67,0,0,0,.5.91C45,74,44.86,74.13,44.88,74.28Z" transform="translate(-1.07 -1.05)"/><path d="M27.28,66.14c-.05.2-.05.36.24.41s.4,0,.5-.23a3.7,3.7,0,0,1,.46-.8,4,4,0,0,1,1.44-1,.22.22,0,0,1,.25.06c.33.31.82.5.83,1.08,0,0,.08.12.13.16a4.35,4.35,0,0,1,1.19,1.85.33.33,0,0,1-.12.43c-.15.09-.32.21-.49,0a3.18,3.18,0,0,1-.72-.85,7,7,0,0,0-1-1.41.51.51,0,0,0-.56-.19,1,1,0,0,0-.56.65,5.45,5.45,0,0,1-.75,1.79c-.22.35-.48.42-.69.09-.41-.62-1-1.15-1.07-2a.69.69,0,0,1,0-.35c.09-.19.1-.3-.17-.33s-.23-.29-.25-.49a.5.5,0,0,1,.32-.53.31.31,0,0,1,.43.14A2.41,2.41,0,0,1,27.28,66.14Z" transform="translate(-1.07 -1.05)"/><path d="M11.43,68.84a1.13,1.13,0,0,0-.19-.87c-.12-.19-.24-.39-.1-.61s0-.18-.08-.23-.22-.12-.19-.23c.1-.52-.22-.9-.39-1.34a.51.51,0,0,0-.18-.3c-.35-.21-.33-.57-.41-.9s.15-.37.31-.44.39-.18.57,0a2.81,2.81,0,0,1,.68,1.71A10.72,10.72,0,0,0,12,67.81c0,.16.18.22.35.22a.36.36,0,0,0,.38-.25c.3-.7.56-1.41.8-2.13a5.62,5.62,0,0,1,.59-1c.13-.2.23.13.39,0s0,.13,0,.2a7.66,7.66,0,0,1-1,2.56c-.29.56-.58,1.14-.84,1.72a.76.76,0,0,1-.88.44C11.37,69.51,11.46,69.12,11.43,68.84Z" transform="translate(-1.07 -1.05)"/><path d="M8.71,72a17.41,17.41,0,0,1-.3,2,4.77,4.77,0,0,0-.15,1.77,4.69,4.69,0,0,1-.19,1.71,1,1,0,0,0,.15.93c.28.35-.18.59-.2.91a.34.34,0,0,1-.46.12c-.26-.19-.5-.34-.42-.79a12.11,12.11,0,0,0,.08-1.91,1.24,1.24,0,0,1,.08-.46c.1-.26.44-.53.07-.84a.08.08,0,0,1,0-.08c.28-.56,0-1.17.14-1.75a2.62,2.62,0,0,0,.15-1.25.67.67,0,0,1,.84-.7C8.73,71.71,8.74,71.82,8.71,72Z" transform="translate(-1.07 -1.05)"/><path d="M34.2,73.92a1.05,1.05,0,0,1,.85.72c0,.39.31.69.35,1.07a.18.18,0,0,0,.11.13,2.42,2.42,0,0,1,1.29,1.6c0,.11.08.21.2.21s.31.11.23.3-.16.37-.45.32a1.53,1.53,0,0,1-1.1-.84,3.49,3.49,0,0,0-.6-.8,8.25,8.25,0,0,1-1-1.55,1.7,1.7,0,0,1-.11-.91A.24.24,0,0,1,34.2,73.92Z" transform="translate(-1.07 -1.05)"/><path d="M26.78,57.31a.25.25,0,0,1,.22.37c-.09.22,0,.28.15.41a4.51,4.51,0,0,1,.76,1.15,2.12,2.12,0,0,0,.33.41.65.65,0,0,1,0,1c-.13.1-.7-.18-.85-.33-.61-.59-.62-1.44-.94-2.16C26.26,57.86,26.51,57.33,26.78,57.31Z" transform="translate(-1.07 -1.05)"/><path d="M15,10.82c0,.22.07.5,0,.56a1.64,1.64,0,0,1-.88.36c-.72-.06-1.43,0-2.14,0a.78.78,0,0,1-.59-.28.33.33,0,0,1-.1-.4.4.4,0,0,1,.35-.26,2.28,2.28,0,0,1,1.19,0,7.63,7.63,0,0,0,1.12.22A1.71,1.71,0,0,0,15,10.82Z" transform="translate(-1.07 -1.05)"/><path d="M27.21,49.84a1.34,1.34,0,0,1,.73.9,3,3,0,0,1,.3,1.69c0,.12.09.28.15.41s0,.39-.24.49-.2,0-.21-.13c-.06-.56-.52-.92-.69-1.43,0-.11-.13-.21-.13-.32a1,1,0,0,0-.37-.9c-.16-.11-.07-.36,0-.54S26.94,49.82,27.21,49.84Z" transform="translate(-1.07 -1.05)"/><path d="M34.06,47.14a1.48,1.48,0,0,1,.76.7,2,2,0,0,0,.65.64.8.8,0,0,1,.42.54.69.69,0,0,1-.26.64c-.25.15-.29-.14-.43-.2-.51-.21-.81-.69-1.25-1-.09-.06-.07-.19-.09-.29s-.12-.37-.36-.39-.21-.07-.21-.19a.26.26,0,0,1,.2-.27Z" transform="translate(-1.07 -1.05)"/><path d="M33.15,58.13c0,.13.06.29-.12.34a.57.57,0,0,1-.66-.25c-.24-.48-.79-.76-.85-1.34,0-.05-.12-.09-.17-.13s-.46.12-.34-.22-.21-.68.28-.78c.29,0,.46.1.66.32a4.07,4.07,0,0,1,.84,1.1A2.08,2.08,0,0,1,33.15,58.13Z" transform="translate(-1.07 -1.05)"/><path d="M14.36,4c0-.29-.1-.59.31-.62s.51.19.61.54.29,1,1,1.14c.27,0,.51.37.74.61s0,.31-.11.44-.3.21-.38.11-.49-.28-.65-.58S15.24,5.25,15,5s-.5-.35-.42-.71C14.32,4.26,14.33,4.1,14.36,4Z" transform="translate(-1.07 -1.05)"/><path d="M13.82,57.28c-.32.77-.68,1.4-1,2-.18.35-.14.78-.34,1.15s-.5.51-.75.36-.29-.45-.13-.73a7.43,7.43,0,0,1,1.39-2,1.35,1.35,0,0,0,.21-.47C13.29,57.35,13.51,57.36,13.82,57.28Z" transform="translate(-1.07 -1.05)"/><path d="M20.11,51.28a15.48,15.48,0,0,1-.63,2.31c-.14.31-.34.25-.59.15s-.18-.21-.14-.45c.07-.48.52-.9.23-1.44-.07-.13.06-.25.11-.37s.27-.36.27-.6.13-.24.28-.1.05.09.08.09C20.1,50.89,20.1,50.89,20.11,51.28Z" transform="translate(-1.07 -1.05)"/><path d="M4.44,57.06a1.87,1.87,0,0,1-.78-.18.24.24,0,0,1-.07-.43c.16-.14.3-.32.56-.32A1.6,1.6,0,0,0,5,55.86a9.3,9.3,0,0,1,1.08-.42.76.76,0,0,0,.37-.26c.14-.21.29-.16.44,0s.06.28-.07.35c-.73.4-1.24,1.12-2,1.44A.75.75,0,0,1,4.44,57.06Z" transform="translate(-1.07 -1.05)"/><path d="M42.62,52.36c-.31-.07-.71.07-1-.24a.18.18,0,0,0-.13,0c-.53.23-.9-.12-1.3-.35-.11-.06-.24-.12-.17-.27a.3.3,0,0,1,.34-.14,9.19,9.19,0,0,1,1,.17c.24,0,.39-.09.59-.1.54,0,1,.24,1.58.17.25,0,.19.23.14.37s-.38.36-.41.29c-.16-.32-.16-.13-.23,0S42.8,52.32,42.62,52.36Z" transform="translate(-1.07 -1.05)"/><path d="M21.94,58.25a1.6,1.6,0,0,1,.48,1,13.46,13.46,0,0,0,.18,1.54,2.91,2.91,0,0,1-.08,1.28c0,.1,0,.22-.17.23s-.13-.1-.19-.16a.87.87,0,0,1-.26-.75,1,1,0,0,0-.15-.74,1.33,1.33,0,0,1,0-1.17A8.16,8.16,0,0,0,21.94,58.25Z" transform="translate(-1.07 -1.05)"/><path d="M4.3,48.72c.13,0,.28,0,.34.16a1.52,1.52,0,0,0,.47.54c.17.16.34.3.15.56s0,.21.09.31.4.44.59.66-.05.29-.13.4-.23,0-.26-.08c-.12-.36-.46-.46-.74-.61a2,2,0,0,1-1-1.41C3.75,48.9,3.93,48.71,4.3,48.72Z" transform="translate(-1.07 -1.05)"/><path d="M23.25,52.17c.22-.49,0-1.08.34-1.55a.56.56,0,0,1,.71-.2c.26.1.18.31.14.52a4.15,4.15,0,0,1-.39,1.27,2.45,2.45,0,0,0-.23.93c0,.1,0,.22-.16.25s-.16-.11-.24-.16C22.93,52.94,23.2,52.54,23.25,52.17Z" transform="translate(-1.07 -1.05)"/><path d="M30.94,48.68c.17,0,.3,0,.36.12.28.48.79.75,1.12,1.18s.23.63-.18.86c-.06,0-.13.09-.2,0s-.53-.24-.65-.45a2.47,2.47,0,0,0-.77-.9c-.16-.1-.33-.25-.22-.51S30.78,48.77,30.94,48.68Z" transform="translate(-1.07 -1.05)"/><path d="M39.47,53.72a5.07,5.07,0,0,1,2.09.69c.18.14.28.33.16.5s-.36.32-.54.2a7.62,7.62,0,0,0-2.38-.67l-.22,0c-.21,0-.2-.19,0-.27C38.85,54,39.22,53.88,39.47,53.72Z" transform="translate(-1.07 -1.05)"/><path d="M7.27,59.9c-.19,0-.33-.14-.29-.28s.08-.53.37-.72a2.82,2.82,0,0,0,1.16-1.06c.06-.14.14-.36.39-.17s.08-.05.11-.11a.65.65,0,0,1,.34-.33.2.2,0,0,1,.24.05c.1.11,0,.14-.09.19-.26.21-.17.59-.4.82-.53.54-.87,1.3-1.68,1.53A.36.36,0,0,0,7.27,59.9Z" transform="translate(-1.07 -1.05)"/><path d="M39.23,43.82c-.31.53-.16,1.28-.7,1.76-.14.13-.09.31-.1.46s0,.34-.18.32a1.19,1.19,0,0,1-.5-.28c-.07-.06,0-.18,0-.28a2.87,2.87,0,0,0,.41-1.64,1.09,1.09,0,0,1,.09-.47c.07-.19.06-.48.31-.48s.34.36.61.39C39.22,43.61,39.22,43.71,39.23,43.82Z" transform="translate(-1.07 -1.05)"/><path d="M3.59,52.39c.45-.27.64-.2.74.25a.49.49,0,0,1-.11.5c-.14.13-.23-.06-.35-.09a5.84,5.84,0,0,1-1.67-.8,1,1,0,0,1-.37-.31c-.11-.19-.15-.39.17-.47a1.57,1.57,0,0,1,1.5.47C3.62,52.07,3.47,52.23,3.59,52.39Z" transform="translate(-1.07 -1.05)"/><path d="M19.35,4.73c-.21-.18-.27-.49-.6-.52,0,0-.09,0-.09-.08,0-.7-.69-1.16-.67-1.87,0,0-.09-.11-.13-.17s-.19-.24-.1-.39a.8.8,0,0,1,.44-.37.21.21,0,0,1,.08,0c.08.38.64.55.53.92a.94.94,0,0,0,.27,1C19.51,3.67,19.15,4.24,19.35,4.73Z" transform="translate(-1.07 -1.05)"/><path d="M21.41,4.13c-.1,0-.17-.08-.11-.13.26-.25,0-.72.52-.92a1.09,1.09,0,0,0,.55-.87,2.17,2.17,0,0,1,.34-.85c.1-.15.29-.42.49-.25s.52.36.27.74a8.58,8.58,0,0,1-1.39,1.73,2.72,2.72,0,0,0-.37.39C21.64,4.09,21.53,4.1,21.41,4.13Z" transform="translate(-1.07 -1.05)"/><path d="M36.57,47c-.11-.26-.49.28-.52-.21,0-.23-.14-.47,0-.69a.21.21,0,0,0,0-.32c-.36-.31-.25-.76-.36-1.14,0-.21.45-.72.67-.71s.17,0,.19.14a2.86,2.86,0,0,1-.09,2.15C36.36,46.4,36.5,46.68,36.57,47Z" transform="translate(-1.07 -1.05)"/><path d="M43.11,49.62a3.34,3.34,0,0,1-2.39,1,1.54,1.54,0,0,1-.53-.19c-.11,0-.14-.15,0-.2s.35-.4.55-.44a5.41,5.41,0,0,1,1-.22,2.1,2.1,0,0,0,.56-.07A.9.9,0,0,1,43.11,49.62Z" transform="translate(-1.07 -1.05)"/><path d="M23.79,13.85a.46.46,0,0,1-.46-.19,14.5,14.5,0,0,0-1.24-1.57C22,12,22,11.92,22,11.85A.22.22,0,0,1,22,11.5c.14-.12.25-.05.34.06a6.63,6.63,0,0,0,1,1,6.54,6.54,0,0,1,.65.53c.14.13.4.28.3.44A.71.71,0,0,1,23.79,13.85Z" transform="translate(-1.07 -1.05)"/><path d="M17.59,57.29c.26.38.17.64-.11,1a2.47,2.47,0,0,0-.43,1.27,3.33,3.33,0,0,1-.21.63.33.33,0,0,1-.44.21c-.17-.06-.34-.13-.37-.38a1.29,1.29,0,0,1,.63-1.28,1.3,1.3,0,0,0,.5-.72A1.63,1.63,0,0,1,17.59,57.29Z" transform="translate(-1.07 -1.05)"/><path d="M14.75,52.75c.23-.14.31-.28,0-.45a.31.31,0,0,1-.09-.47c.2-.24.11-.44,0-.65a.69.69,0,0,1-.07-.47c0-.29.22-.35.44-.4s.36.12.41.31a4,4,0,0,1,0,2.1C15.36,52.89,15.34,52.89,14.75,52.75Z" transform="translate(-1.07 -1.05)"/><path d="M20.62,12.89c-.24.43.08.89,0,1.36,0,.13.1.16.17.24a.81.81,0,0,1-.05.91c-.19.15-.39.2-.57-.07s-.1-.55-.17-.81a.5.5,0,0,1,.28-.65c.16-.07,0-.27-.05-.4-.08-.33-.28-.63-.09-1,.08-.15.16-.35.33-.33s.06.25.1.38A2.52,2.52,0,0,1,20.62,12.89Z" transform="translate(-1.07 -1.05)"/><path d="M42.3,46.65c.1-.12,0-.19,0-.28.38.21.39.33,0,.56a6.65,6.65,0,0,0-1.2,1,1,1,0,0,1-.72.27c-.23,0-.29-.19-.16-.33a14.23,14.23,0,0,1,1-1.2A.75.75,0,0,1,42.3,46.65Z" transform="translate(-1.07 -1.05)"/><path d="M34.23,55.82a.91.91,0,0,1,1.05.6c.1.26.38.37.57.56s.27.2.17.36-.22.44-.47.43-.51-.05-.59-.25-.34-.47-.43-.78S34.31,56.16,34.23,55.82Z" transform="translate(-1.07 -1.05)"/><path d="M11.29,49.93c.22.06.46.1.45.21,0,.33.27.59.2.88a2.73,2.73,0,0,0,0,1.1c0,.14,0,.29-.14.34s-.23-.07-.35-.19A2.23,2.23,0,0,1,11,50.74,1.54,1.54,0,0,1,11.29,49.93Z" transform="translate(-1.07 -1.05)"/><path d="M14.47,8.8c-.21-.06-.52,0-.63-.33-.05-.18-.14-.14-.23,0s-.64.31-.78.13-.06-.44.11-.59.45-.47.74-.11c.1.13.15.2.29,0s.31-.14.35.09.23.35.44.19.4,0,.45.16-.15.2-.28.19S14.74,8.94,14.47,8.8Z" transform="translate(-1.07 -1.05)"/><path d="M25.8,9.32a1.28,1.28,0,0,1-.35-.06,1,1,0,0,0-.91,0c-.16.07-.31.09-.33-.14s-.05-.39.25-.35a.29.29,0,0,0,.25-.06c.48-.33,1-.15,1.5-.1.25,0,.29.25.11.47A.52.52,0,0,1,25.8,9.32Z" transform="translate(-1.07 -1.05)"/><path d="M25.47,11c0,.2.16.53,0,.6a.72.72,0,0,1-.77-.2,1.29,1.29,0,0,0-.66-.33c-.21-.05-.3-.11-.32-.33s-.14-.38.1-.5.31.08.41.22a1.79,1.79,0,0,0,.85.35c.1,0,.1.08.11.15C25.22,11.42,25.36,10.92,25.47,11Z" transform="translate(-1.07 -1.05)"/><path d="M23.8,6.42a.86.86,0,0,1-.56.66.3.3,0,0,1-.42-.17A.47.47,0,0,1,23,6.4a3.92,3.92,0,0,1,.53-.29C23.75,6,23.79,6.22,23.8,6.42Z" transform="translate(-1.07 -1.05)"/><path d="M33.83,72.85c-.23,0-.52.08-.51-.3s.25-.23.43-.21.58,0,.59.32S34,72.86,33.83,72.85Z" transform="translate(-1.07 -1.05)"/><path d="M5.33,53.31c-.15-.12-.4.12-.48-.13,0,0,.09-.22.15-.22S5.27,53.12,5.33,53.31Z" transform="translate(-1.07 -1.05)"/></g><g class="cls-6"><path class="cls-2" d="M18.19,17.56c0,.41,0,.66.38.89a1.47,1.47,0,0,0,.42.13c1,.22-.1-.19,0-.31l.55-.64a4.34,4.34,0,0,0-1.17,1.17.52.52,0,0,0,0,.63c.46.44.88.36,1.45.39L19,19.54l.11.11V19c-.18.36-.44.65-.65,1-.1.16-.18.49,0,.63a2.3,2.3,0,0,0,1.66.38l-.79-.28.15.12v-.63c-.2.34-.45.64-.64,1A.51.51,0,0,0,19,22a3.26,3.26,0,0,0,.81.23c-.41-.06-.35-.57-.65.08-.15.32-.14.59.21.78a3,3,0,0,0,2.29,0l-1.08.05.17.06-.47-.87a5.27,5.27,0,0,0-.67,1.26c-.11.51.53.68.9.69A3.77,3.77,0,0,0,22.13,24l-1.76-.91a1.74,1.74,0,0,0-.58,1c0,.49.47.69.9.69a3.33,3.33,0,0,1,.63,0l-.61-1.12c-.1.07-.38.18-.52.26s-.72.55-.54.86l.06.12.54-.86c-.08.05-.79.47-.26.2-1.23.61-.95,1.56.4,1.49-.26-.68-.55-.87-.85-.57a1.38,1.38,0,0,0-.31.28,1.87,1.87,0,0,0-.37.68c-.18.47.59.7.89.69a1.29,1.29,0,0,1,.44,0l-.89-.47c0,.07-.22.49-.21.65a.61.61,0,0,0,.36.55,1.66,1.66,0,0,0,1,.14A5.17,5.17,0,0,0,21,27.6c.58-.17.5-.19-.23,0l-.89-.69a2.42,2.42,0,0,1-.35.6c-.39.58.33.89.8.91l.41,0-.9-.69a.33.33,0,0,0-.13.13c-.59.6-.11,1.11.61,1.13a3.84,3.84,0,0,0,2-.54l-1.13.22h.16l-.9-.69c.09-.3-.32.31-.39.42-.36.61.31.86.8.92A2.94,2.94,0,0,0,22,29.22c.15,0,1.2-.33.5-.23l-1.27-.67c-.06.29-.32.56-.41.86s.12.45.3.55A3,3,0,0,0,24,29.32l-1.81-.93a4,4,0,0,0-.68.49c-.3.25-.44.81,0,1a3.06,3.06,0,0,0,1.72.16l-1-1.12c-.4.33-1.13.75-1.16,1.33,0,.83,1.15.71,1.66.6a3.76,3.76,0,0,0,1.58-.8c.47-.37.3-.82-.16-1a2.26,2.26,0,0,0-1.92.3c-.59.43-2.21,1.1-1.42,2a1.52,1.52,0,0,0,1.44.3,3.63,3.63,0,0,0,.83-.26c.75-.34-.44,0,.19-.07l-1.27-.68c0,.05-.57.56-.72.75a.51.51,0,0,0,0,.63c.77,1.06,2.68.16,3.52-.33l-2.08-.73a6.6,6.6,0,0,0-1.18,1.24c-.37.61.32.86.8.91A5.5,5.5,0,0,0,25,32.66L23.08,32a7.48,7.48,0,0,1-1.26,1c-.73.58,0,1.08.61,1.13A5.32,5.32,0,0,0,25,33.41l-1.5-1.11a16.41,16.41,0,0,0-1.48,1.12c-.85.74.31,1.21,1,1.11a7.52,7.52,0,0,0,2.23-.79l-1.76-.91c-.4.44-1.5,1.1-.88,1.8s2.18,0,2.94-.32l-2-.25c0-.17-.54.51-.62.66-.33.58.28.91.8.91a5.74,5.74,0,0,0,2.08-.44l-1.14.22H25l-.8-.91c-.25.32-1.08.52-1.14,1.28,0,.49.47.69.9.69l.27,0-.29-1.09c-.5.43-1.21.76-1.35,1.47-.09.49.53.68.9.69A5,5,0,0,0,26.2,37c1-.68.28-1.43-.72-1.31A3.56,3.56,0,0,0,22.93,37a.52.52,0,0,0,.21.78c1.07.71,2.25-.15,3.18-.65l-1.1.38.18,0-1-1.11a3.14,3.14,0,0,0-.91,1.23c-.11.35.29.6.57.65a3.69,3.69,0,0,0,2.6-.59c1.08-.66.26-1.43-.72-1.31a3.47,3.47,0,0,0-2.54,1.35c-.37.61.32.86.8.92a3,3,0,0,0,1.18-.1c.15,0,1.16-.34.52-.25L25.2,37c-.69.48-1.62.71-2.05,1.47s.3.86.8.91a4.58,4.58,0,0,0,2.51-.55L25.32,39h.24l-.36-1.32c-.44.24-.91.46-1.36.67-1.56.74-.57,1.72.79,1.41a5.87,5.87,0,0,0,.93-.28c.18-.08.93-.3.17-.11L24.94,38a6.7,6.7,0,0,0-2.06,1.1c-.29.29-.45.77,0,1,1.17.55,2.36,0,3.46-.51l-1.94-.69c-.31.49-1,.84-1.46,1.23-.83.74.3,1.21,1,1.11a9.53,9.53,0,0,0,3.16-1.36L25.29,39c-.63.38-1.95.89-2.06,1.73-.08.65.82.74,1.27.67a8.84,8.84,0,0,0,2.76-1c.45-.24.73-.73.33-1.12s-1.39-.19-1.82,0a5.06,5.06,0,0,0-2.09,1.62c-.47.78.68.94,1.17.9a7.16,7.16,0,0,0,2.74-1.05l-1.1.38.28,0,0-1.61A6.11,6.11,0,0,0,24,40.93c-.44.46-.32.9.29,1.09a4,4,0,0,0,3.45-.91c1-.94-.75-1.18-1.37-1a2.63,2.63,0,0,0-1.88,1.62c-.47,1.09,2.07.46,2.36.3a3.38,3.38,0,0,0,1-.74c.38-.42.38-.78-.15-1a2.34,2.34,0,0,0-1.92.31c-.55.29-.94.74-1.46,1.06-1.38.86.19,1.46,1.11,1.24a5.29,5.29,0,0,0,1.66-.7c1.11-.7.23-1.36-.72-1.31A6.29,6.29,0,0,0,23,42.37c-.3.35-.42.72,0,1a2.58,2.58,0,0,0,1.67.22l-1.17-.9c.4-.27.44-.33.12-.17a2.68,2.68,0,0,0-.47.26c-.28.16-.82.7-.44,1,.54.48,1,.39,1.66.38l-.62-1.13a2.9,2.9,0,0,0-1.08,1.3c-.22.65.93.7,1.26.67a4.43,4.43,0,0,0,2-.69l-2.08-.74a4,4,0,0,1-.54.38c-1.05.64-.27,1.49.72,1.31a9.46,9.46,0,0,0,1.3-.31L24,44c-.28.31-.63.5-.9.82s-.41,1,.29,1.08c.42.06.82,0,1.24.07l-.36-1.32a8.55,8.55,0,0,0-1,.78c-.59.57-.11,1.14.62,1.12.24,0,.48,0,.71,0,.43-.06.53-.08.31-.07l-.8-.91c-.42.52-.84.63-1.1,1.3-.09.24.14.45.3.56a3.09,3.09,0,0,0,2.86-.18c.41-.2,1.17-.67.76-1.21s-1.47-.26-1.93-.06A3,3,0,0,0,23.42,47c-.37.6.32.86.8.91a3.46,3.46,0,0,0,1.28-.11c.29-.08,1.28-.26.43-.22l-1-1.11c.2-.16-.46.27-.49.28-.59.4-.79,1.06,0,1.29a3.81,3.81,0,0,0,1.54.06l-.72-1.31a9,9,0,0,0-1,.65.59.59,0,0,0,.29,1.09,6.11,6.11,0,0,0,1.76,0l-.72-1.32c-.26.15-.54.27-.79.42s-.72.64-.44,1c.57.8,2.09.27,2.6.22l-.72-1.32a9.33,9.33,0,0,0-.84.55c-.3.26-.44.81,0,1a3.67,3.67,0,0,0,1.77.2l-1-.12.23.08,0-1a5.66,5.66,0,0,0-.42.43c-.61.64-.09,1.05.61,1.13a3.2,3.2,0,0,0,1.07-.06c.11,0,1-.24.56-.18l-1.17-.9L27,49c-.1.18-.17.47,0,.63a1.46,1.46,0,0,0,1.11.4c.59,0,1.61-.19,1.9-.81s-.23-.92-.8-.91h-.19l.79.28-.13-.11v.63l.15-.24c.46-.77-.66-1-1.17-.9-.19,0-1.38.16-.89.21l.62,1.13a5.66,5.66,0,0,1,.42-.43c.27-.26.47-.82,0-1a3,3,0,0,0-.67-.2c-.11,0-.75-.11-.37,0l0,1c-.47.4.21-.09.31-.15,1.05-.69.28-1.42-.72-1.31a2.6,2.6,0,0,0-.62.11c-.63.21,0-.27.34.2l-.43,1c.25-.16.53-.27.79-.42,1.1-.64.23-1.43-.72-1.31a.53.53,0,0,0-.38,0L26.68,48c-.31.26.41-.23.44-.25,1-.7.28-1.42-.72-1.32-.33.06-.39,0-.16,0l0,1.29a11.88,11.88,0,0,0,1-.68c.92-.75-.38-1.15-1-1.11a2.38,2.38,0,0,0-.75.15c-.2.06-.59.1-.22.14l.8.91c-.29.16-.29.18,0,0L25,45.91h.61l.3.55c.09-.22.72-.63.91-.86.44-.54-.38-.91-.8-.91-.24,0-1,.1-1,.1l.61,1.12c.18-.12.35-.25.52-.38.74-.55.66-1.27-.35-1.32,0,0-.81,0-.59,0l.29,1.08c.27-.31.62-.5.9-.81.86-1-.63-1.28-1.38-1l-.5.17.72,1.31a11.56,11.56,0,0,0,1.06-.78c.47-.37.29-.82-.16-1a2.26,2.26,0,0,0-1.92.3l.14-.06,1.27.68c0,.12.39-.31.52-.42.62-.57.08-1.15-.62-1.13-.23,0-.48,0-.71,0l.79.28-.15-.14L25,43.71c.47-.28,1-.37,1.25-.91.38-.79-.59-1-1.17-.9l.25,0,0,1c-.14.16.31-.14.47-.22l.44-.19c.3-.17.57,0-.19,0l-.73-1.31a.37.37,0,0,1-.25.09l1.12,1.24c.51-.32.92-.79,1.45-1.07l-2.08-.74a1,1,0,0,1-.46.35l2.36.29a.6.6,0,0,1,.21-.21l-1,.5.14,0-1.38-1,.65-.19.29,1.09a2,2,0,0,1,.78-.49c.42-.12,1.29-.47,1.24-1s-.83-.65-1.26-.57a5.06,5.06,0,0,0-1.21.34c-.21.1-.48.36-.7.38l1.16.89c-.15.26.08,0,.21-.14s.41-.34.33-.3l-1.49-1.11c.65-.34-.94.29-.57.23l1.27.68c-.19.24-.16.26.09,0l.33-.19.54-.32c.48-.28.78-.82.24-1.19s-1.55,0-2.05.26c-.29.16-.61.25-.9.42s-.72.28-.07.18l1,1.12A9.35,9.35,0,0,0,27.13,39c.71-1.09-1.5-.88-1.94-.69-.17.07-1.32.4-.73.32l1,.12-.23-.1,0,1c-.22.22-.39.2,0,0s.58-.27.87-.41c1.54-.73.58-1.75-.79-1.4-.39.09-.72.3-1.1.38L25,39.67q1-.48,2-1c.85-.46.57-1.31-.36-1.32a3.36,3.36,0,0,0-1.18.15,1.78,1.78,0,0,0-.43.18c-.43.23-.43.23,0,0l.8.92c-.2.35.13,0,.34-.14a7,7,0,0,0,.82-.51c1-.69.31-1.45-.73-1.31a4.94,4.94,0,0,0-.85.18c-.34.12-.62.07-.12.14l.81.91a1.07,1.07,0,0,1-.54.22l-.72-1.31.05,0,1.09,0-.17,0,.57.64.35-.35c.74-.77-.23-1.25-1-1.12a4.26,4.26,0,0,0-1.12.33c-.42.2-1,.28,0,.2l1,.12-.16-.1.21.78a.85.85,0,0,1-.54.19L24.38,36l-.16.1,1.1-.38a6.17,6.17,0,0,0-.75.1l.9.69c0-.13.67-.5.78-.59A.59.59,0,0,0,26,34.86a4.12,4.12,0,0,0-.92-.1l.89.69c-.39.26-.44.32-.16.16a1.43,1.43,0,0,0,.44-.3,3.43,3.43,0,0,0,.67-.7c.43-.56-.37-.89-.8-.91a5.23,5.23,0,0,0-2.09.44l1.14-.22h-.31l.8.92c.33-.58.83-.82.81-1.54s-1.74-.37-2-.25-.57.27-.87.39l1.13-.23h-.14l.9.47c.07.15.3-.15.43-.29,1.06-1.15-1.08-1.21-1.75-.9-.18.08-1.28.46-.69.37l1,1.12a9.61,9.61,0,0,1,1-.72c1.5-1.05-.54-1.53-1.49-1.11-.25.11-.79.18-.33.21l.62,1.13a8.69,8.69,0,0,0,1.63-1.4c.83-1.05-1.58-.81-1.94-.69a.37.37,0,0,1-.34,0l.8.91a5.23,5.23,0,0,1,.81-.82c.42-.39.34-.8-.15-1a2.32,2.32,0,0,0-1.93.3c0,.33.31.36,1,.1v.63c.35-.43.74-.62.92-1.19s-.93-.69-1.27-.67a4.75,4.75,0,0,0-1,.17c-.1,0-1.21.48-.61.28l1.55.19,0,0-.55.63a10.3,10.3,0,0,0,1.05-.66L22,29.5l-.28.22,1-.5-.34.08,1.65.6a4.71,4.71,0,0,0,.6-.45c.87-.71-.33-1.22-1-1.11a2.22,2.22,0,0,1-.51.06l1,.12-.24-.1,0,1,.15-.09c.49-.28.77-.82.24-1.19s-1.55,0-2.05.26l.41-.13,1,.13-.19-.11.31.56c.1-.32.34-.51.42-.86.14-.65-.87-.73-1.27-.67a4.62,4.62,0,0,0-.82.18c-.37.11-.65.06-.08.12l.8.91c.2-.34.46-.46.59-.87s-.57-.67-.9-.69a3.68,3.68,0,0,0-1.92.53l1.14-.22h-.22l.62,1.13c.28-.29.68-.58.7-1s-.47-.66-.9-.69l-.42,0,.81.91a3.23,3.23,0,0,0,.54-1c.11-.5-.54-.68-.9-.69a5.57,5.57,0,0,0-1.44.25l1.35,0c.25.13.21.64.41,0a.62.62,0,0,0,0-.55c-.21-.49-.88-.5-1.34-.49l.9.69c-.07.19.3-.23.37-.31a2.08,2.08,0,0,0,.37-.65.42.42,0,0,0-.11-.4c-.4-.47-1.07-.41-1.63-.38l.4,1.48c.32-.16.6-.36.91-.54s.72-.54.54-.86L22.55,24l-.54.86a10.76,10.76,0,0,0,1-.67c.75-.58-.05-1.06-.62-1.13a3.33,3.33,0,0,0-.63,0l.9.69v-.11c1.06-1.2-1.08-1.16-1.75-.91l-.22.09,1.14-.23h-.23l.89.68a4.87,4.87,0,0,1,.48-.82c.23-.47,0-.72-.48-.87a3.52,3.52,0,0,0-1.58.07l1,.12-.23-.12.21.78c.2-.45.69-.77.45-1.33a.89.89,0,0,0-.5-.45c-.09,0-.94-.26-.52-.09l.2.78c.19-.34.44-.64.64-1,.09-.16.18-.47,0-.63a2.25,2.25,0,0,0-1.64-.38l.78.28-.15-.11v.63c.21-.35.46-.63.65-1a.52.52,0,0,0,0-.63c-.44-.45-.88-.36-1.44-.39l.78.28L21,18.28v.63c.28-.46.69-.65.9-1.18a.48.48,0,0,0-.11-.41,1.16,1.16,0,0,0-.64-.37c-1-.28-.08.1-.09.27,0-1.24-2.88-.67-2.9.34Z" transform="translate(-1.07 -1.05)"/></g><g class="cls-6"><path class="cls-2" d="M19.39,30.79l.81.16.72.13L20.58,31a.94.94,0,0,1,.28.1l-.62-.61v0l0-.29v.05L20.3,30l-.06.12.17-.27a1.21,1.21,0,0,1-.21.24l.25-.24a3.54,3.54,0,0,1-.67.5l.32-.19-.9.53a1.49,1.49,0,0,0-.78.84.76.76,0,0,0,.32.89,2.65,2.65,0,0,0,1.66.34l.63,0h-.37l.15,0-.34-.08.05,0-.28-.15,0,0-.21-.2,0,0L20,32.12a.15.15,0,0,1,0,.07l0-.29A.13.13,0,0,1,20,32l.08-.28a.5.5,0,0,1-.05.13l.17-.26-.15.18.25-.24a3.3,3.3,0,0,1-.57.41l.32-.2-.58.36.32-.19a2.83,2.83,0,0,1-.36.16l.38-.14c-.2.08-.4.13-.6.19-.56.17-1.24.6-1.19,1.27s.78.88,1.34.84a9.38,9.38,0,0,0,1-.17l-.39.07a4.91,4.91,0,0,1,.86-.05h-.37l1,0a2,2,0,0,0,1.09-.4,1.23,1.23,0,0,0,.5-.79.85.85,0,0,0-.35-.75,1.82,1.82,0,0,0-1-.23h.19c-.41,0-.82,0-1.23,0a8,8,0,0,0-1.19.18l.39-.07a1.53,1.53,0,0,1-.3,0l.15,2.11c.19-.06.39-.11.57-.18a4.19,4.19,0,0,0,.59-.22,5.48,5.48,0,0,0,.52-.31l-.32.2a7.73,7.73,0,0,0,1-.66,1.71,1.71,0,0,0,.8-1.58,1.1,1.1,0,0,0-.73-.71,2.56,2.56,0,0,0-.95-.11c-.28,0-.56,0-.84,0h.38l-.19,0,.33.08a.44.44,0,0,1-.16-.06l.28.14,0,0-.46,1.73a8,8,0,0,0,2.3-1.64,1.52,1.52,0,0,0,.36-.78c.06-.75-.72-1-1.31-1.11s-1-.17-1.47-.27a2,2,0,0,0-1.15.19,1.62,1.62,0,0,0-.74.7.82.82,0,0,0,.07.83,1.34,1.34,0,0,0,.83.43Z" transform="translate(-1.07 -1.05)"/></g><g class="cls-6"><path class="cls-2" d="M21.31,39.5a.63.63,0,0,1,.23-.2l-.21.09-.39.16a1.23,1.23,0,0,0-.79,1.31,1.25,1.25,0,0,0,1.34.74,3.42,3.42,0,0,0,1.29-.3,1.89,1.89,0,0,0,.35-.17l-.05,0,.25-.07-1.61-.41,0-.66.1-.16a1.06,1.06,0,0,1-.1.12c.23-.25,0,0-.13.09a3.65,3.65,0,0,0-.67.63c-.58.75-.05,1.41.74,1.6a2.19,2.19,0,0,0,1.29-.12c.11,0,.08,0-.09,0l.47-.08c.29-.06.17,0,0,0l-1-1c0,.12,0,.11,0,0-.06.12,0,.12,0,0-.09.12-.19.23-.29.34.21-.24,0,0-.05,0a5.77,5.77,0,0,0-.44.42,3.79,3.79,0,0,0-1,1.36c-.25.86.46,1.4,1.29,1.34a3.53,3.53,0,0,0,1.27-.42c.14-.06.67-.24.16-.09l.07,0a.72.72,0,0,1-.82-.27c-.55-.31-.68-.29-.47-.81.07-.19,0,0,0,0-.19.2,0,.07,0,0s-.33.29-.39.33-.42.32-.61.49a1.15,1.15,0,0,0-.48,1.11c.22,1,1.43,1.08,2.23.95a6,6,0,0,0,.86-.21l.22-.06.2-.07c.15-.06.28,0-.06,0l-.72-.1-.16-.09-.34-.48A.69.69,0,0,1,23,44.2l-.11.13-.09.1.09-.09s-.12.11-.16.15l-.47.48c-.48.51-1.09,1.15-.9,1.93.23,1,1.46,1.11,2.28.89a6,6,0,0,0,.59-.23l.22-.09c-.2.07-.23.09-.1.05l.27-.08.2,0a1,1,0,0,1-.69-.06l-.62-.64,0-.12.25-.57c.44-.32.52-.39.22-.2l-.22.15-.24.19c-.2.18-.43.32-.64.48l-.25.22c-.31.28.46-.12.25-.1a2,2,0,0,0-1.11.71c-.55.75-.06,1.42.74,1.59a3.52,3.52,0,0,0,1.73-.19l.61-.13.25-.07.29-.11a1,1,0,0,1-.24.07l-1.21-.48a.66.66,0,0,1,0-.69c0-.06.23-.26.18-.22s.31-.16.08,0l-.19.09-.16.07c-.18.09.35-.12.11,0l-.25.08c-.6.18-1.35.73-1.16,1.45s1.14.86,1.73.68c.89-.26,2.41-.81,2.49-1.91s-1.18-1.38-2.05-1.15a4.09,4.09,0,0,0-.49.18c.18-.07.21-.08.09,0a3.71,3.71,0,0,0-.48.1l-.39.11-.25.08c.43,0,.51,0,.25,0l.75,1.6,0-.07-.56.45-.11,0,.45-.17a3.29,3.29,0,0,0,.53-.36c.24-.19.49-.36.73-.56.08-.06.3-.32.4-.33l-.17.11a3.11,3.11,0,0,0,.38-.25,1.35,1.35,0,0,0,.52-1.34,1,1,0,0,0-.63-.65,3.28,3.28,0,0,0-1.73,0c-.15,0-.29.08-.44.12l-.59.23c-.18.09-.05,0,0,0,1.76,0,1.14.2,1.18.76,0,.11,0,.08.05,0a5.57,5.57,0,0,0,.52-.57c-.18.26,0,0,.09-.09a4.42,4.42,0,0,0,.52-.54,1.19,1.19,0,0,0,.08-1.57,1.9,1.9,0,0,0-2-.3l-.69.21-.22.06c-.25.07.28,0,.1,0s0,0,.1,0l.22.06q.56.83.45.42L23,45.18c.7-.64,2-1.29,1.91-2.39s-1.33-1.17-2.12-1a5,5,0,0,0-.9.36l-.29.14-.12.05a1.78,1.78,0,0,1,.6-.16l1.28,1.34a.94.94,0,0,1,.06-.15c-.09.13-.09.14,0,0l.28-.35c.06-.07.15-.23.24-.27-.16.16-.19.18-.08.08l.14-.13c.51-.48,1.22-1.11,1.2-1.88a1.07,1.07,0,0,0-1-1,3,3,0,0,0-1.39.09c-.11,0-.09,0,.06,0l-.45.07-.18.05c-.25.07-.15.07.31,0l.74,1.6c.13-.17-.26.21-.07.06l.21-.17c.22-.19.43-.37.63-.58a1.28,1.28,0,0,0,.28-1.6A1.53,1.53,0,0,0,22.76,39a4.48,4.48,0,0,0-1,.34c-.06,0-.25.15-.3.14s.59-.11.2-.09l.55,2.06a4.18,4.18,0,0,0,1.51-.94A.94.94,0,0,0,23.36,39a2,2,0,0,0-2.05.55Z" transform="translate(-1.07 -1.05)"/></g></g></g></svg>