<svg xmlns="http://www.w3.org/2000/svg" viewBox="0 0 59.08 45.11"><defs><style>.cls-1{opacity:0.3;}.cls-2{fill:#8195a5;}</style></defs><g id="Layer_2" data-name="Layer 2"><g id="Layer_1-2" data-name="Layer 1"><g class="cls-1"><path class="cls-2" d="M23.34,16.72c0-.38,0,.12,0,.11s.09-.41.1-.46a7.67,7.67,0,0,0,.19-.93c.05-.34.07-.67.09-1l0-.42c0-.1,0-.4,0-.06a2.62,2.62,0,0,1,.14-.72c0-.15,0-.16,0,0s0,.1,0,0,.05-.14,0,0l.05-.1a4.94,4.94,0,0,0,.81-1.83l-.83,1.3a6,6,0,0,1,.93-.23,1,1,0,0,1,.38,0l.22.07c-.13,0-.2-.14-.2-.32l-.05-.69.05-.29.25-.72c-.06.12.11-.19.17-.21s-.14.13-.18.16-.31.3-.46.46a2.47,2.47,0,0,0-.49,1.57c0,.36.05.92.46,1A2.6,2.6,0,0,0,27,12.85c1-.88,1-2.38,1-3.6,0-.47-.35-1.13-.87-.74a2.45,2.45,0,0,0-.69,2c0,.13,0,.26,0,.39v.2c0-.19,0-.21,0-.05s0,.13.1-.39a.82.82,0,0,1,.25-.42l-.09.07,0,0a1.82,1.82,0,0,1-1.14.24l0,2.61c-.22.24.13-.1.2-.17a3,3,0,0,0,.39-.41,2.76,2.76,0,0,0,.46-2.46c-.39-1-1.72-.62-2.51-.41-.48.13-.75.89-.83,1.3a1.48,1.48,0,0,1,.12-.29l-.11.2-.18.29a4.14,4.14,0,0,0-.45.95,11.24,11.24,0,0,0-.45,2.07c0,.28-.06.55-.08.82s0,.32,0,.47c0,.41.08-.26,0,.16a7.66,7.66,0,0,0-.31,2.33c0,.46.33,1.14.88.73a2.4,2.4,0,0,0,.68-2Z"/></g><g class="cls-1"><path class="cls-2" d="M14.39,30c-.09.29-.11.35-.06.21l-.06.14a2.29,2.29,0,0,0,.14-.27,7.55,7.55,0,0,0,.39-.81,3.25,3.25,0,0,0,.09-2.41,1,1,0,0,0-1.13-.67,5.8,5.8,0,0,0-1,.32l.62.53a.83.83,0,0,1,0-.15c-.07-.23,0,.19,0,.06s0-.24,0,0,0,.14,0,0l0,.24,0-.15s-.12.37,0,.16-.12.22,0,.08a.61.61,0,0,1,.07-.14c.1-.19.05,0,0,0s.07-.09.09-.12l.11-.12c.15-.19-.12.09,0,0a2.78,2.78,0,0,1,.27-.21l.12-.08c-.1.06-.06,0,0,0,.54-.21,1-.51,1.56-.75a2.56,2.56,0,0,1,.81-.26,6.61,6.61,0,0,1,.89,0c.62,0,.93-.8,1-1.32a2.32,2.32,0,0,0,0-1.08c-.06-.18-.17-.53-.42-.54a10.26,10.26,0,0,0-1.24,0,3.07,3.07,0,0,0-1,.36l-1,.49a6,6,0,0,0-1,.49,4.35,4.35,0,0,0-1.42,2A4.46,4.46,0,0,0,12,28.91c.09.27.26.64.62.53s.48-.2.73-.28l.18,0c-.15,0,0,0,0,0s.1.06,0,0l.09.09c-.06-.08-.07-.09,0,0s.05,0-.08-.36a1.51,1.51,0,0,1,0-.37,1.38,1.38,0,0,1,.09-.39c0,.11,0,.1,0,0s0,0,0,.08l-.11.2a5.44,5.44,0,0,0-.55,1.4,2.46,2.46,0,0,0,0,1.08c.06.2.18.49.42.54.6.12.94-.93,1-1.32Z"/></g><g class="cls-1"><path class="cls-2" d="M20,24.25a14.09,14.09,0,0,0,3.83-.82c1.41-.42,2.85-1.27,4.19-.3a16.08,16.08,0,0,1,2.49,2.59A10.34,10.34,0,0,1,32.88,29a3.53,3.53,0,0,1,.24,2.62c-.13.28-.29.53-.4.82,0,.1-.34.72-.18.47-.29.44-.62.83-.89,1.31a5.56,5.56,0,0,1-3,2.54c-1,.35-1.1,0-1.1-.86a26,26,0,0,1,1.1-6.83,4.48,4.48,0,0,1,1.59-2.52c.92-.63,2.5-.53,3.59-.63a3.76,3.76,0,0,1,3.41,1,6.51,6.51,0,0,1,.93,1.57c.3.54.8.92,1.1,1.46a4.86,4.86,0,0,1,.63,1.6c0,1.64.11.08,0,.27a1.94,1.94,0,0,1-.81.5,8.9,8.9,0,0,1-4.2.32c-1.86-.27-1.52-1.95-1.48-3.35A13.33,13.33,0,0,1,33.85,26c.15-.51.47-1,.66-1.48s.24-1.1.41-1.6c.41-1.29,1.52-1.91,2.47-2.79A4.37,4.37,0,0,1,41,19.39c.56.11.79.48,1.2.83a2.23,2.23,0,0,1,1,1.43A1.54,1.54,0,0,1,43,22.91c-.24.43-.57.85-.84,1.27a4.39,4.39,0,0,1-1.3,1.31c-.24.16-.54.26-.77.44s-.44.47-.7.64c-.41.28-.93.36-1.36.65a6.73,6.73,0,0,0-1.3,1.14c-.74.78-1.3,1.7-2,2.52-.07.08-.36.5-.49.49s.09.36-.1-.33-.3-1.22-.49-1.82a1.75,1.75,0,0,0-2.12-1.43,1.68,1.68,0,0,0-1.73,1,3.66,3.66,0,0,0-.35,1.73c0,.3.1.6.13.9a2.17,2.17,0,0,1,.05.76c-.12.47-.06.44.18-.08a3.79,3.79,0,0,1-2.8.61c-.95-.13-2.38-.61-2.62-1.69-.14-.61-.19-1.44.29-1.83A4.61,4.61,0,0,1,26,28.7a2.8,2.8,0,0,0,1.37-2.89,3.42,3.42,0,0,1,0-1.74,7.82,7.82,0,0,1,.47-2,5.18,5.18,0,0,1,1.92-1.2,4.31,4.31,0,0,1,2.44-.07c.78.14,1.47.43,2.23.6s1.44.13,2.16.24c1.37.21,2.87.14,4,1.07A7.28,7.28,0,0,1,43,26.39a14.14,14.14,0,0,1,.65,2,12.85,12.85,0,0,0,.65,1.67c.17.59.61.66,1,.22a2.61,2.61,0,0,0,.44-2.08,12.75,12.75,0,0,0-2.09-4.72,5.72,5.72,0,0,0-3.36-2.35c-.35-.08-.64.35-.77.6-.53,1-.43,1.78-.86,2.55a6.33,6.33,0,0,1-1.76,2.51c-.76.54-2.29,1.54-3.26,1.13s-1.33-2.17-1.53-3.19a28.73,28.73,0,0,1-.9-3.83c-.06-1.16,1-1.82,1.91-2.38a5.68,5.68,0,0,1,1.68-.9,8.35,8.35,0,0,1,2.06-.05,4.13,4.13,0,0,1,1.57.29c.27.1,1,.17,1,.43V17.2c0-.18-.86.42-1,.46a6.58,6.58,0,0,0-.89.28,3.8,3.8,0,0,1-2.83.6,12.54,12.54,0,0,0-2.6-.85,2.32,2.32,0,0,0-1.95,1.25,8.36,8.36,0,0,1-2,2.23c-.72.48-1.39.16-2.18.1-.5,0-1.8.34-2,0s-.16-1.29-.23-1.71A12.09,12.09,0,0,1,23.34,18c0-.53-.32-1-.88-.74s-.7,1.4-.68,2a12.86,12.86,0,0,0,.52,4c.24.66.54,1.29.74,2a6.93,6.93,0,0,0,.54,1.61,5.12,5.12,0,0,0,2.16,2.07,12.45,12.45,0,0,1,1.67.63,4.58,4.58,0,0,0,1.87.24,9.64,9.64,0,0,1,2.86,1,10.34,10.34,0,0,0,4,.22,4.54,4.54,0,0,0,3-1.56c.65-.65,1.75-2.3,2.73-2.31s1.54-2.93.62-2.93h-.31c-1.09,0-1.54,2.93-.62,2.93H42l.62-2.93c-2,0-3,2.36-4.47,3.37-1.13.77-2.63.48-3.93.48a4.24,4.24,0,0,1-1.92-.54c-.46-.2-.93-.27-1.39-.47-.92-.4-1.93,0-2.87-.48A8.22,8.22,0,0,0,26.7,26a3.2,3.2,0,0,1-1.32-1,7.4,7.4,0,0,1-1.28-2.84A11.68,11.68,0,0,1,23.34,18l-1.56,1.22a13.37,13.37,0,0,0,.4,1.88c.1.55.09,1.12.2,1.67.17.83.41,1.73,1.39,1.66a10.33,10.33,0,0,1,1.58-.18c.43,0,.84.16,1.27.18a3.34,3.34,0,0,0,2.57-1.31,11.16,11.16,0,0,0,1.24-1.33c.27-.35.47-.93.92-1.08.61-.21,1.46.35,2,.56a4.62,4.62,0,0,0,2,.38,9.31,9.31,0,0,0,2.43-.95,4.88,4.88,0,0,0,2.51-1.51,3.45,3.45,0,0,0,.57-3.07A1.44,1.44,0,0,0,40,15.2c-.38-.15-.83-.4-1.22-.51a9.59,9.59,0,0,0-3.38,0,7.12,7.12,0,0,0-3,1.53,6.45,6.45,0,0,0-2.71,5.93,24.94,24.94,0,0,0,.82,3.62,13.63,13.63,0,0,0,1.06,3.7,2.4,2.4,0,0,0,2.59,1.5,8.38,8.38,0,0,0,3.1-1.55,6.82,6.82,0,0,0,2.08-2.82c.23-.51.54-1,.75-1.49a5.37,5.37,0,0,0,.3-.88c0-.17.33-1.18.08-.72l-.77.6a4.75,4.75,0,0,1,2.86,2,11.68,11.68,0,0,1,1.76,3.95l1.45-1.86c-.17-.6-.5-1-.62-1.64a11.92,11.92,0,0,0-.57-1.75,10.36,10.36,0,0,0-1.74-3.69A6,6,0,0,0,39.62,19c-1.43-.31-2.94-.25-4.36-.53s-2.87-1-4.43-.76a6.59,6.59,0,0,0-3.22,1.65c-1,1-1.21,2.44-1.51,3.75a16.31,16.31,0,0,0-.48,2.18,4.62,4.62,0,0,0,0,1.05l.06.33c.09.52.15.45.18-.23l.51-.8c-.28.27-.71.26-1.07.4a5,5,0,0,0-1.11.67,4,4,0,0,0-1.4,2.55c-.28,1.79-.3,4.51,1.41,5.56a7.51,7.51,0,0,0,1.08.72,7.44,7.44,0,0,0,1.49.22,4.41,4.41,0,0,0,2.61-.56A3.18,3.18,0,0,0,31,33a7.93,7.93,0,0,0,.24-1.74c0-.6-.24-1.25-.17-1.82l-.32,1.11c-.2.43,0,.11.35.16s.53-.09.75,0c.53.23.6,1.15.73,1.64.2.72.19,2.18,1.3,2,.72-.12,1.36-1.07,1.78-1.6a12.88,12.88,0,0,1,2.29-2.65,9.92,9.92,0,0,1,1.42-.63c.49-.26.74-.72,1.21-1a6.75,6.75,0,0,0,2.37-2.26,15,15,0,0,0,1.65-2.74,6.76,6.76,0,0,0,.13-3.4,3.9,3.9,0,0,0-1-2.27c-.93-.77-1.46-1.35-2.73-1.35a5.55,5.55,0,0,0-3,.44,7.14,7.14,0,0,0-1.1,1c-.48.44-1.08.73-1.54,1.2a7.83,7.83,0,0,0-1.68,3.17c-.16.53-.22,1.06-.42,1.58a10.91,10.91,0,0,0-.78,2.06c0,.22-.05.45-.08.67.07-.6,0-.2,0,0a4.84,4.84,0,0,0-.34,1.68c-.06,1.3-.13,2.68-.06,4A3.83,3.83,0,0,0,33,35.07c.93.79,2.52.54,3.67.52,2.19,0,4.31-1,4.82-3.35a6,6,0,0,0-.34-3.37c-.17-.43-.38-.91-.59-1.33s-.79-.89-1.1-1.42a6.5,6.5,0,0,0-2.07-2.63A4.77,4.77,0,0,0,34.16,23a17.16,17.16,0,0,0-3,.35,4.68,4.68,0,0,0-2.39,1.93,16,16,0,0,0-2.07,6.06A23.36,23.36,0,0,0,26,37.65a2.65,2.65,0,0,0,.73,2c.76.57,1.83,0,2.55-.34,2.18-1.12,3.65-3.45,4.59-5.62a15.45,15.45,0,0,0,.76-1.59,7.75,7.75,0,0,0,.21-2.25,8.61,8.61,0,0,0-.79-3.45,8.77,8.77,0,0,0-2.13-2.92,24.64,24.64,0,0,0-2.91-3c-2.51-1.87-5.64.91-8.38.93-1.09,0-1.53,2.94-.62,2.93Z"/></g><g class="cls-1"><path class="cls-2" d="M45.07,33.21c0,.11,0,.22.07.33s0,.11,0-.08a.77.77,0,0,0,0,.15c0,.19,0,.37.05.55s0,.43,0,.64v.28a4.48,4.48,0,0,0,.49,2.79l1.12-2.57c-.18-.2-.38-.38-.55-.59l.14.18-.14-.22c-.11-.18.06.21,0,0a2.68,2.68,0,0,1-.07-.27c-.07-.31,0,.21,0,0,0-.08,0-.16,0-.24a1,1,0,0,1,0-.17v.12c0-.23,0-.45,0-.68s0-.46,0-.68,0,.37,0,0a3.64,3.64,0,0,0,0-.74,1.31,1.31,0,0,0-.36-.71,2.42,2.42,0,0,0-.45-.24l.18.1-.08-.06.14.18a.22.22,0,0,1-.05-.08.41.41,0,0,0-.62-.21,1.59,1.59,0,0,0-.62.86A7.63,7.63,0,0,0,44,35a5.79,5.79,0,0,0,.75,2.91.46.46,0,0,0,.53.26c.24-.06.46-.37.57-.58a2.88,2.88,0,0,0,.31-1.11,1.72,1.72,0,0,0-.14-1,4.63,4.63,0,0,1-.28-.54l-.06-.14c.05.14.07.17,0,.09s0-.16-.07-.24,0-.19-.07-.28,0-.1,0,.1c0-.05,0-.1,0-.14a4.87,4.87,0,0,1,0-.54c0-.32,0-.64,0-1v-.21c0,.46,0,.16,0,0,0-.37-.06.33,0,.09s-.15.42,0,.1l-1.24.66a1.08,1.08,0,0,0,.63.5L44.7,34l.12.09-.14-.18c.06.11,0,.08,0-.09,0-.54,0-.69,0-.46a5.61,5.61,0,0,0,0,.58c0,.09,0,.17,0,.25v.05a10.29,10.29,0,0,0,0,1.47,3.67,3.67,0,0,0,.43,1.49,6.56,6.56,0,0,0,.77.89c.15.17.44.09.58,0a1.69,1.69,0,0,0,.45-.64,2.77,2.77,0,0,0,.24-.94,1.61,1.61,0,0,0-.15-.95,2.13,2.13,0,0,1-.16-.25,1.12,1.12,0,0,1-.05-.13c.05.14.06.17,0,.09l0-.1c0-.13,0-.09,0,.12,0-.09,0-.19,0-.28s0-.35,0,.08a2.62,2.62,0,0,0,0-.28c0-.28,0-.55,0-.82a12.31,12.31,0,0,0-.25-2.57c-.05-.2-.19-.48-.42-.53a.68.68,0,0,0-.6.32,2.66,2.66,0,0,0-.44,2.07Z"/></g><g class="cls-1"><path class="cls-2" d="M45.23,38.79a3.19,3.19,0,0,0,.1,1.19c.08.27.19.53.29.79l-.1-.26a2.12,2.12,0,0,1,.12.45l0-.32a7.39,7.39,0,0,1,0,.94,1.14,1.14,0,0,0,.28.77.47.47,0,0,0,.59,0,2.5,2.5,0,0,0,.68-2,5.7,5.7,0,0,0,0-.92,3.69,3.69,0,0,0-.15-.72c-.07-.21-.16-.43-.24-.64l.1.26a2.2,2.2,0,0,1-.12-.44l0,.32a.78.78,0,0,1,0-.16v.37a.62.62,0,0,1,0-.13,1.8,1.8,0,0,0-.15-.94.45.45,0,0,0-.52-.27,1.15,1.15,0,0,0-.57.58,2.93,2.93,0,0,0-.31,1.12Z"/></g><g class="cls-1"><path class="cls-2" d="M23.66,15.55c-.09-.07,0,0,0,0s0,.19,0,.05a.64.64,0,1,1,0,.09c-.06-.17,0,0,0,.12a1.14,1.14,0,0,0,0-.37c0-.14,0-.28,0-.42s0-.25,0-.12,0,.09,0,0a1.77,1.77,0,0,1,0-.23c0-.07,0-.15,0-.22s-.06.28,0,.07l.09-.43c0-.21-.06.21,0,.07s.09-.32.13-.49.1-.39.14-.59.05-.22.07-.32a.47.47,0,0,0,0-.16s-.1.34,0,.14.12-.23.11-.31c0,.07-.13.31,0,.08,0,0,.12-.19,0,0s0,0,0,0-.17.11,0,0l.11-.09s.18-.1,0,0l-.61-1.61c.11-.39-.05.09-.08.16s-.06.14,0,0,0-.09-.12.27a6,6,0,0,0-.35,1,9.91,9.91,0,0,0-.24,2c0,.35,0,1,.37,1.18s.72-.24.87-.55c0-.05.25-.43.09-.18.11-.18.24-.36.35-.54A4.45,4.45,0,0,0,25.13,13c0-.2.06-.41.09-.62s0-.1,0,.18c.06-.25,0-.1-.17.47a.6.6,0,0,1-.32.37l.17,0h.26a1.82,1.82,0,0,0,1.62-.76,5.21,5.21,0,0,0,.77-2.13c.09-.42.2-1.49-.4-1.62s-.95.92-1,1.32c0,.11-.05.23-.07.35a1.16,1.16,0,0,0,0,.18c.06-.23.07-.27,0-.11s0,.11,0-.09a.48.48,0,0,1,.12-.16q.11-.1-.06,0c.06,0,0,0-.05,0a1,1,0,0,1-.17,0h-.39a1.45,1.45,0,0,0-.84.22,2.91,2.91,0,0,0-1,2.16c0,.28.06-.36,0-.09s0,.1,0-.16.08-.19,0-.06c.08-.12.08-.13,0,0s-.16.24-.23.37a2.6,2.6,0,0,0-.21.36l1.24.63c0-.26,0-.52.05-.79,0-.06,0-.11,0-.17,0,.19,0,.21,0,0s-.1.24,0-.07a3,3,0,0,1,.12-.32c-.21.34.08-.18.14-.32a6.9,6.9,0,0,0,.34-1,2.08,2.08,0,0,0,0-1.21c-.08-.21-.29-.54-.57-.4a3.3,3.3,0,0,0-1.56,1.93,9.18,9.18,0,0,0-.52,2l.07-.25-.09.3c0,.14-.08.28-.11.42a6,6,0,0,0-.13.74,6.2,6.2,0,0,0-.08.74c0,.14,0,.28,0,.42,0,.56,0-.2,0,.07-.07.77-.17,1.88.49,2.44.82.69,1.75-2.1,1-2.75Z"/></g><g class="cls-1"><path class="cls-2" d="M14,31a5,5,0,0,0,.48-6.13.51.51,0,0,0-.92,0,3.73,3.73,0,0,0-.6,2.3,3.78,3.78,0,0,0,.06.47,1.5,1.5,0,0,0,0,.22c.05.44.13-.77.05-.49l.25-.72c0-.07.42-.55.53-.48a.86.86,0,0,0-.17,0c-.05,0,0,.05,0,0s0,0,0,0a.54.54,0,0,1,.1.2l.05.69a2.6,2.6,0,0,1-.24.81.83.83,0,0,0,.07-.13c-.11.17-.13.21-.05.1l.07-.09.18-.23.14-.15h0a9.9,9.9,0,0,1,1.19-.85,7.31,7.31,0,0,0,.65-.43l.23-.18s.32-.22.18-.14c.18-.1.39-.16.58-.25a2,2,0,0,0,.76-.62A2.55,2.55,0,0,0,18,22.87c-.07-.22-.17-.49-.42-.54a.67.67,0,0,0-.6.32c-.08.1-.06.09,0,0a.47.47,0,0,1-.12.09c.17-.1-.12,0-.16.05a3.62,3.62,0,0,0-.65.33c-.21.14-.4.31-.61.46s-.39.24-.58.36a6.29,6.29,0,0,0-2.19,2.13,2.9,2.9,0,0,0-.29,2.6A1,1,0,0,0,13.8,29a2.67,2.67,0,0,0,.77-2.31c0-.15,0-.3-.06-.45s0-.19,0-.28q0,.39,0,.18a2.22,2.22,0,0,1-.39,1.08l-.92,0a5,5,0,0,1,.38.72c.08.18,0-.13,0,0l.06.18.06.23c0,.05,0,.28,0,.07s0,.45,0,.12,0,0,0,.05c0,.29.06-.38,0-.1s.1-.3,0-.13.17-.3,0-.1.19-.21,0,0c0,0-.21.21,0,0a2.44,2.44,0,0,0-.68,2,1.12,1.12,0,0,0,.28.76A.44.44,0,0,0,14,31Z"/></g><g class="cls-1"><path class="cls-2" d="M28.8,24.78c.3.52.75,1,1,1.52a12.63,12.63,0,0,1,.49,1.29c.16.47.21,1,.41,1.44s.29,1,.47,1.54.56,1.07.74,1.63v.48c0,.34.11.67.16,1A3.34,3.34,0,0,1,31,36.19a2.51,2.51,0,0,0-.44,2.07c.16.6.63.68,1,.22a8.83,8.83,0,0,0,2-4.16,8.52,8.52,0,0,0-.06-2.62,6.57,6.57,0,0,0-.42-2,9.24,9.24,0,0,1-.7-1.79c-.14-.61-.47-1.17-.59-1.79a11.2,11.2,0,0,0-.54-1.7,11.48,11.48,0,0,0-1.2-2c-.34-.57-.87-.09-1.09.32a2.38,2.38,0,0,0-.17,2.06Z"/></g><g class="cls-1"><path class="cls-2" d="M34.45,27.84c0-.95,0-1.89,0-2.84,0-.43,0-.69,0-1s0-.2,0-.06c0-.17,0-.19,0-.05,0-.17,0-.12.16-.32a7.28,7.28,0,0,1,1.12-2,2.69,2.69,0,0,1,.84-.52,3.26,3.26,0,0,0,1.05-.75A2.43,2.43,0,0,0,38,18.22c-.17-.63-.6-.64-1-.22a6.47,6.47,0,0,1-1,.47,4.19,4.19,0,0,0-1.06.91,8.42,8.42,0,0,0-.84,1.42c-.26.51-.54,1-.77,1.54a7.87,7.87,0,0,0-.52,3.5c0,1.07,0,2.14,0,3.21,0,.47.35,1.13.87.74a2.48,2.48,0,0,0,.68-1.95Z"/></g><g class="cls-1"><path class="cls-2" d="M32,23.47a2.25,2.25,0,0,0-.09-.35c0-.1-.08-.43-.06-.07s0-.21,0-.26,0-.28,0-.42a4.54,4.54,0,0,0-.19-.81c-.15-.56.05.1,0,.1a3.85,3.85,0,0,0,.18-.81c0-.11,0-.22,0-.33l-.09.46c-.15.46-.26.45-.09.23a12,12,0,0,0,.75-1.16s.17-.27.07-.12l.08-.11.18-.23s.23-.25.07-.09a2.8,2.8,0,0,1,.83-.57,6.23,6.23,0,0,1,2.57-.33c.62,0,.94-.8,1-1.32a2.32,2.32,0,0,0,0-1.08c0-.18-.18-.54-.41-.54a6.83,6.83,0,0,0-3.29.51,5.4,5.4,0,0,0-2.12,2.22c-.06.09-.11.19-.16.28s-.08.13,0,0a.4.4,0,0,1-.1.12,6.24,6.24,0,0,0-.46.68A5.79,5.79,0,0,0,30.27,21c.06-.26,0,0,0,.1s-.07.25-.09.37a4.12,4.12,0,0,0,.13,2.2c0,.14,0,.15,0,0s0-.17,0,0a3,3,0,0,0,0,.6c0,.36.17.68.23,1,.1.6.68.67,1,.22A2.74,2.74,0,0,0,32,23.47Z"/></g><g class="cls-1"><path class="cls-2" d="M27.76,19.29a11.28,11.28,0,0,0-1,2.28,7.38,7.38,0,0,0-.28,1.68,2.26,2.26,0,0,1,0,.26s0,.39,0,.19,0,.1,0,.13,0,.21-.05.31a10.3,10.3,0,0,0-.14,2.42,3.42,3.42,0,0,0,.67,2.05c.15.17.44.08.59,0a1.87,1.87,0,0,0,.51-.81,2,2,0,0,0-.12-1.91c.17.19-.1-.27,0,0,0-.1,0-.22-.08-.31s0-.06,0,.09l0-.19c0-.12,0-.24,0-.37a1.92,1.92,0,0,0,0-.24c0,.21,0,.22,0,0s0-.17,0-.25a2.33,2.33,0,0,1,0-.37c-.09.39,0-.14,0-.22A11.66,11.66,0,0,0,28,22.9l0-.52c0,.33.06-.17,0,.14.09-.28.2-.55.31-.82-.13.3.09-.17.11-.22l.24-.45A2.31,2.31,0,0,0,28.85,19c-.34-.6-.87-.08-1.09.32Z"/></g><g id="dlomqm.tif"><path d="M29.91,22.42c.32-.38.23-.79.3-1.16a10.39,10.39,0,0,1,.36-1.83c.06-.14.13-.31,0-.43s-.26,0-.37.1a.23.23,0,0,1-.37-.11c-.08-.15.09-.21.19-.24a4.15,4.15,0,0,0,1.6-1.18c.3-.27.68-.42,1-.71,0,.32-.19.46-.36.6a4.66,4.66,0,0,0-1.43,2.81,7.21,7.21,0,0,1-.21.92,4.25,4.25,0,0,0,0,1.55c0,.16.6.46.76.37s.4-.18.34-.53a3.09,3.09,0,0,1,.43-1.87,1.63,1.63,0,0,0,.14-.63c.08-.72.63-1.17,1-1.74a.11.11,0,0,1,.07-.06c1-.34,1.6-1.31,2.6-1.67.65-.25,1.28-.55,1.94-.79s.94.13,1.3.45a1.86,1.86,0,0,0,.38.22A2.06,2.06,0,0,1,40.61,18c.07.35.13.62.62.63.7,0,1,.7,1.35,1.13s.77,1.3,1.27,1.88a2.2,2.2,0,0,1,.32,1.61c0,.18-.17.18-.31.17s-.16-.07-.16-.23a3.08,3.08,0,0,0-.68-2c-.4-.48-.69-1.05-1.12-1.52,0,0,0-.09-.06-.12-.19-.13-.42-.32-.64-.22s-.07.4,0,.55a1.67,1.67,0,0,1,.18.86c0,.84.67,1.22,1.11,1.73a16.35,16.35,0,0,1,1.66,2.21,14.78,14.78,0,0,1,1.61,4.21,2.16,2.16,0,0,1-.05.88c0,.17-.19.36-.36.33s-.45,0-.53-.24c-.17-.64-.62-1.21-.44-1.92,0,0,0-.08,0-.1-.43-.44-.64-1.05-1.15-1.44a1,1,0,0,1-.27-.7.48.48,0,0,0-.49-.44c-.27,0-.22.29-.25.46a2.07,2.07,0,0,1-.54,1.06c-.27.3-.54.62-.8.94-.08.1-.2.25-.07.35a.26.26,0,0,0,.39-.1c.19-.42.67-.6.81-1.08a.49.49,0,0,1,.68-.37,11.16,11.16,0,0,1-1,1.69,2,2,0,0,1-1,.56c-.24.09-.27.12-.1.31a5.19,5.19,0,0,1,.92,1.57,1.87,1.87,0,0,1-.25,1.87,11.39,11.39,0,0,0-.89,1.21,2.87,2.87,0,0,1-1.55,1.14,4.2,4.2,0,0,1-1.62.3c-.16,0-.41.09-.41-.19s.24-.13.38-.17a4.28,4.28,0,0,0,2.1-.8,4.8,4.8,0,0,0-.9.19,2.79,2.79,0,0,1-1.54-.16,19.71,19.71,0,0,1-1.8-.85c-.31-.13-.29-.3-.17-.52a.85.85,0,0,1,.24-.26,17.85,17.85,0,0,0,1.82-2c.21-.23.44-.44.66-.66s.19-.13.29-.06,0,.21-.06.26c-.3.21-.31.64-.64.84-.13.08-.2.26-.4.23s-.18,0-.17.1c.07.51-.38.69-.62,1s-.28.64.08.92a2.52,2.52,0,0,0,3.65-.24,1.93,1.93,0,0,0,.32-2,10.54,10.54,0,0,0-.84-1.68c-.06-.09-.13-.29,0-.36.4-.19.09-.34,0-.5s-.2-.19-.31,0c-.26.45-.83.59-1.08,1.08-.08.16-.36.25-.57.31a3.55,3.55,0,0,0-1.43.83,2.14,2.14,0,0,1-.5.3c-.13.07-.32.18-.38,0s0-.54.22-.51c.4.06.55-.25.8-.4.67-.43,1.38-.82,2-1.28a4.7,4.7,0,0,0,.93-1c.5-.69.85-1.45,1.28-2.17a4.17,4.17,0,0,0,.36-1.1,1.27,1.27,0,0,1,.37-.83c.2-.16,0-.37.05-.55a5.5,5.5,0,0,0,0-2.25,16.54,16.54,0,0,0-.49-1.93,5.08,5.08,0,0,0-.66-1.44.66.66,0,0,0-.43-.3.9.9,0,0,1-.54-.29,1.22,1.22,0,0,0-1.35-.3,24.2,24.2,0,0,0-2.29.84,1.34,1.34,0,0,0-.63.77c-.09.23.21.29.39.3a7.29,7.29,0,0,1,1.45.23,19.49,19.49,0,0,1,2.6,1A2.07,2.07,0,0,0,38,17.77a2.42,2.42,0,0,0-.31-.25.36.36,0,0,1-.17-.5c.11-.22.32-.09.48-.08s.31.2.41.33a4.71,4.71,0,0,1,1.29,2.29c.07.66.34,1.26.35,2a19.57,19.57,0,0,1-.36,3,3.23,3.23,0,0,1-1,1.93c-.46.43-.85.94-1.29,1.39s-.92,1-1.71.94c-.13,0-.1,0-.12.11s-.22.16-.36.16a.15.15,0,0,1-.16-.13.39.39,0,0,1,.21-.33,1.76,1.76,0,0,1,.55-.17,1.17,1.17,0,0,0,.89-.52q.33-.45.69-.87a2.16,2.16,0,0,0,.07-2.65c-.15-.26-.3-.54-.47-.8A1.37,1.37,0,0,0,35.63,23a18.76,18.76,0,0,1-2.47.17c-.7-.07-1.19.38-1.82.42-.24,0-.44.29-.58.45-.32.42-.86.61-1.12,1.08a.39.39,0,0,1-.16.15c-.74.38-.86,1.22-1.34,1.79a.33.33,0,0,0,.1.48,2.87,2.87,0,0,0,1.66.75c.59,0,1.19,0,1.79,0a.77.77,0,0,0,.58-.26c.13-.11.23-.27,0-.37,0,0-.12-.06-.13-.11-.14-.77-.91-1.32-.7-2.26a1.86,1.86,0,0,0-.93.73c-.22.4-.73.49-1,.83-.11.14-.25.26-.37.39s-.1.16-.21.13-.15-.14-.15-.25,0-.38.18-.43c.37-.12.52-.59,1-.58.13,0,.15-.13.21-.2.21-.21.29-.57.67-.62,0,0,.08-.06.08-.09,0-.49.41-.49.72-.57.94-.26,1.89-.51,2.84-.72a1.76,1.76,0,0,1,1.78.25,6.54,6.54,0,0,1,1.37,1.89c.09.19.1.38-.19.43-.06,0-.1.06-.16.08s-.16.3-.3.18,0-.25.1-.38c.19-.46-.2-.72-.4-1a7.72,7.72,0,0,0-.8-.82c-.22-.24-.4-.24-.58,0a2.52,2.52,0,0,0-.42,2,8.63,8.63,0,0,1,.1,1.69.51.51,0,0,1-.3.42c-.18.1-.28.08-.25-.17a30.47,30.47,0,0,0,0-3.17,4.2,4.2,0,0,1,.13-.79c0-.12,0-.21-.14-.22-.43,0-.73.48-.85.88-.26.89.31,1.6.36,2.41a23.07,23.07,0,0,0,.49,2.61,8.15,8.15,0,0,1,.17,2.41,4.66,4.66,0,0,1-1.12,2.79A14.14,14.14,0,0,1,31,37.66a.37.37,0,0,1-.33.09c-.18-.06-.29,0-.32.2a.24.24,0,0,1-.14.21c-.17.07-.36.28-.5,0s.11-.35.25-.39a5.58,5.58,0,0,0,2.54-2.14,10.94,10.94,0,0,1,.79-.89,2.3,2.3,0,0,0,.55-1.47,4.83,4.83,0,0,1,.38-1.72.13.13,0,0,0,0-.12c-.55-.5-.36-1.25-.63-1.84-.1-.25-.1-.62-.34-.69s-.54.24-.84.33c-.12,0-.11.24-.06.36a14.81,14.81,0,0,1,.48,2.71,1.09,1.09,0,0,1-.15.9c-.16.22-.07.54-.17.81a2.82,2.82,0,0,1-.81,1.2c-.31.24-.42.71-.79.87s-.47.79-.94,1a3.65,3.65,0,0,1-1.28.39c-.51,0-.74-.5-1.07-.78a1.73,1.73,0,0,1-.61-.9c-.05-.27-.4-.25-.65-.27s-.3.15-.33.34a3.38,3.38,0,0,1-.11.34c-.16,0-.14-.17-.16-.26a1.94,1.94,0,0,0-.55-.87,10.6,10.6,0,0,1-1-.74A4.65,4.65,0,0,1,22.73,31a18.16,18.16,0,0,1-.16-1.81.83.83,0,0,1,.09-.39c.52-.69.61-1.59,1.14-2.27.11-.14,0-.22-.07-.31a5.75,5.75,0,0,1-1-2.76c0-.18.06-.41-.37-.33s-.82.43-1.29.42-.92.43-1.45.39c-.17,0-.38.12-.46-.13s.15-.32.31-.4a2.05,2.05,0,0,1,.88-.13,1.51,1.51,0,0,0,1-.15,2.92,2.92,0,0,1,1-.28c.2,0,.24-.14.24-.31a9.54,9.54,0,0,0,0-1.51,3.2,3.2,0,0,1,0-1.76.73.73,0,0,0-.24-.81,1.51,1.51,0,0,1-.66-1.29,4.87,4.87,0,0,1,.08-1.75c.2-.53.06-1.1.33-1.6a14.61,14.61,0,0,0,.57-1.88c.33-.84.82-1.6,1.22-2.41a1.87,1.87,0,0,1,.92-1c.11-.05.07-.19.08-.29.05-.63.17-.72.8-.85a3.55,3.55,0,0,1,1.59.1,1,1,0,0,1,.79.76,1,1,0,0,0,.45.68.38.38,0,0,1,.19.24c.63,2.29-.1,3.77-2.53,4.69a2.77,2.77,0,0,0-1.13.49.66.66,0,0,0-.22.32c-.12.45-.27.89-.41,1.34s.11.91.13,1.36a4.71,4.71,0,0,1-.21,1.2c-.05.2-.2.27-.41.12s-.64-.17-.75.19A1.66,1.66,0,0,0,23,20c.13.33,0,.69,0,1a23.39,23.39,0,0,0,.51,3.44A3.63,3.63,0,0,0,25.82,27c.11,0,.28.13.36,0s-.1-.21-.2-.26a5.8,5.8,0,0,0-.78-.41,1.26,1.26,0,0,1-.83-1c-.13-.68-.4-1.34-.56-2a4.21,4.21,0,0,1-.15-2.76c.14-.31-.05-.67,0-1,0-.17.1-.33.22-.34s.23.18.24.32A3.16,3.16,0,0,1,24,20.57a1.11,1.11,0,0,0-.08.44c0,.3.13.35.4.23s.34-.3.53,0c0,.05.1,0,.15-.05.27-.25.54-.49,1-.31.11.05.22-.07.28-.18a6.87,6.87,0,0,1,1.91-1.89,7.21,7.21,0,0,1,1.94-.88,1.12,1.12,0,0,1,.31-.05c.07,0,.15,0,.18.1s0,.14-.09.18a.76.76,0,0,1-.23.13,6.77,6.77,0,0,0-1.63.77,6.18,6.18,0,0,0-1.19,1.08c-.28.25-.5.56-.9.64-.07,0-.15,0-.16.12a.16.16,0,0,0,.18.17,2.6,2.6,0,0,1,.9.23c.2.06.32.05.21-.18s0-.49.21-.7c.43-.46,1-.81,1.43-1.25.07-.07.16-.23.28-.1a.25.25,0,0,1,0,.36c-.22.21-.42.43-.65.61-.42.34-.42,1-1,1.23-.09,0-.07.16,0,.24a.3.3,0,0,0,.31.13,2.11,2.11,0,0,1,.75.05A1.52,1.52,0,0,1,29.91,22.42Zm-3.63.36h0c.06-.23.06-.34-.26-.34a2.38,2.38,0,0,0-.92.12.4.4,0,0,1-.45-.09.14.14,0,0,1,0-.23.5.5,0,0,1,.41-.18,4.21,4.21,0,0,0,1.45-.14c.13,0,.29-.06.27-.23a.28.28,0,0,0-.25-.23,4.43,4.43,0,0,0-1-.1c-.4,0-.73.29-1.11.34s-.42.23-.38.55a10.84,10.84,0,0,0,.79,2.86c.1.23.18.55.44.64a2,2,0,0,1,.92.66c.18.23.38.14.5-.11.22-.44,0-.9.12-1.35s.53-.58.19-1a6.69,6.69,0,0,0,.45-1.15c.05-.11.21-.18.12-.34s-.23-.1-.36-.11a.51.51,0,0,0-.5.26C26.62,22.84,26.46,22.82,26.28,22.78Zm.88,10.63c-.07-.63.25-1.1.27-1.64s.38-1,.46-1.62A5.33,5.33,0,0,1,28.17,29a.23.23,0,0,0-.1-.28c-.46-.29-.93-.58-1.38-.89a5.73,5.73,0,0,0-1-.36c-.31-.14-.59-.34-.89-.48s-.38-.14-.54,0a5.67,5.67,0,0,0-.58.76A3.52,3.52,0,0,0,23,29.57c0,.46.16.9.17,1.36a3.07,3.07,0,0,0,.4,1.64c.27.41.32,1,.89,1.17,0,0,.05.07.07.11a2.15,2.15,0,0,0,1.25.88,9,9,0,0,0,2.07.16,2.09,2.09,0,0,0,1.91-1.14,9.09,9.09,0,0,0,.67-3A2,2,0,0,0,30,31.87a2.36,2.36,0,0,1-2,2.16,5.2,5.2,0,0,1-1.47,0A2.66,2.66,0,0,1,25,33.49c-.19-.15-.19-.43-.38-.55-.49-.31-.55-.84-.75-1.31a3,3,0,0,1,0-1.89,2.67,2.67,0,0,1,1-1.84c.2-.13.45-.42.65-.15s-.13.46-.34.62a2.54,2.54,0,0,0-1,1.75,2.77,2.77,0,0,0,.44,2c.33.43.57,1,1.16,1.14.21.07.3,0,.32-.18a5.2,5.2,0,0,0,.06-1.47,3.24,3.24,0,0,1,.64-2.3.59.59,0,0,1,.5-.26c.33,0,.45.14.29.44a3.58,3.58,0,0,1-.38.55,3.13,3.13,0,0,0-.59,1.67A1.73,1.73,0,0,0,27.16,33.41Zm11.28-7.59a6,6,0,0,0,1-2.87c.14-.73-.48-.92-.66-1.39-.58,0-.94-.67-1.57-.45-.13.05-.34.07-.31-.1s.2-.36.38-.29c.53.2,1.15.11,1.59.55a.78.78,0,0,0,.37.16.22.22,0,0,0,.3-.26c-.08-.23,0-.54-.37-.66a1.07,1.07,0,0,1-.49-.3,4.34,4.34,0,0,0-2-1.11,9.75,9.75,0,0,0-2.47-.21A1.21,1.21,0,0,0,33,19.4c-.15.19-.07.43-.23.62a2.59,2.59,0,0,0-.47,1.81,1,1,0,0,0,.88.93c.29,0,.49-.05.56-.41a6.3,6.3,0,0,1,.43-1.64c.27-.51.26-.55-.29-.71-.08,0-.19,0-.19-.15a.21.21,0,0,1,.16-.19,1.31,1.31,0,0,1,.83,0,15.11,15.11,0,0,0,1.8.79.17.17,0,0,1,.15.23c0,.13-.1.21-.25.16a2,2,0,0,1-.29-.12c-.24-.13-.35-.13-.42.19a1.39,1.39,0,0,1-.37.68,1,1,0,0,0-.18.82c0,.2.38.12.6.13h.36a1.29,1.29,0,0,1,1.23.58,4,4,0,0,1,1,2.33A.36.36,0,0,0,38.44,25.82ZM25.73,12.65a1.06,1.06,0,0,0,.31,0c.3-.09.59-.21.88-.31a5.12,5.12,0,0,0,1.22-1.49.28.28,0,0,0,0-.09,3.68,3.68,0,0,0-.52-1.49c-.17-.21-.32-.47-.6-.52-.49-.09-1-.14-1.49-.22-.15,0-.2.08-.28.17a4.53,4.53,0,0,0-.7,1.11,8.44,8.44,0,0,0-.49.9,6.25,6.25,0,0,1-.51,1.4,9,9,0,0,0-.89,2.67c-.13.45.06.94-.1,1.41a1.87,1.87,0,0,0,.05.88c0,.24.18.27.39.19.49-.18.43-.63.48-1a2.09,2.09,0,0,1,.18-.93,2.7,2.7,0,0,0,.34-1.1C24.13,13.47,24.8,12.46,25.73,12.65Zm5.48,16.79c-.49,0-.64.15-.55.53l.09.39a7.36,7.36,0,0,1-.2,2.6,2.4,2.4,0,0,1-.45,1.24,3.19,3.19,0,0,1-2.25,1.45c-.21,0-.39.17-.22.36a6,6,0,0,0,1.05.9.68.68,0,0,0,.86,0A19.1,19.1,0,0,0,31.38,35a3.88,3.88,0,0,0,1.05-2.57,8.24,8.24,0,0,0-.22-1.49c0-.17.17-.39,0-.53a.77.77,0,0,1-.31-.66c0-.3-.17-.39-.44-.34Zm-3.55,3.13c0,.19.06.4.1.6a.25.25,0,0,0,.23.24,1.39,1.39,0,0,0,1.16-.64c.41-.8.5-1.73.89-2.54a1.2,1.2,0,0,0-.43-1.07c-.66-.17-1,0-1.2.71-.06.17-.13.33-.19.5A11.44,11.44,0,0,0,27.66,32.57ZM30.12,24l-1.75-1.51c-.22-.18-.39-.1-.4.14s-.1.23-.14.35a7.18,7.18,0,0,0-.45,1.45,7.74,7.74,0,0,0,.13,2.44A12.67,12.67,0,0,1,30.12,24ZM42,24.85a1.52,1.52,0,0,0-.39-.67c-.4-.49-.42-.48-.65.1a2.16,2.16,0,0,0-.16.51,5.34,5.34,0,0,1-.7,1.6,5.24,5.24,0,0,1-.75,1.16.24.24,0,0,0,0,.33c.08.1.19,0,.29,0,.87-.1,1.26-.88,1.8-1.39A2.54,2.54,0,0,0,42,24.85Zm3.14,4.07c0-.18.06-.25.06-.32a2.44,2.44,0,0,0,0-.27,12.48,12.48,0,0,0-1.72-4,5,5,0,0,0-1.4-1.42c-.13-.1-.3-.42-.49-.22s.11.32.22.48a.59.59,0,0,1,0,.08A12.77,12.77,0,0,0,44,26.63a12,12,0,0,1,.75,1.24C44.93,28.18,44.84,28.55,45.15,28.92Zm-12.36-3c.18-.25-.09-.38-.07-.58a.31.31,0,0,0-.27-.36c-.18,0-.24.16-.31.27a1,1,0,0,0-.12.33c-.29.86.39,1.4.68,2.07,0,.1.19.08.29,0a.3.3,0,0,0,.18-.29,2.19,2.19,0,0,0-.19-.86A3.13,3.13,0,0,1,32.79,25.89Zm8.28,5.43c0-.28.06-.57-.11-.7-.35-.26-.4-.69-.67-1-.09-.09-.09-.33-.3-.18a.29.29,0,0,0,0,.44c.13.14.23.27.11.47a.12.12,0,0,0,0,.18.83.83,0,0,1,.31.81,2.59,2.59,0,0,1-.13,1c0,.1-.08.29.07.35s.28-.08.34-.21A2.78,2.78,0,0,0,41.07,31.32Zm-6-10.57c-.05-.1.16-.28-.07-.33s-.18.16-.23.28a1.08,1.08,0,0,0-.12.24c-.1.51-.57.92-.4,1.5,0,.1,0,.22.16.23a.19.19,0,0,0,.23-.16C34.74,21.92,35.27,21.43,35.06,20.75Zm-1.79,7.48c0-.11,0-.27-.15-.22a1,1,0,0,0-.58.51c-.08.11.1.15.2.14A.58.58,0,0,0,33.27,28.23Zm-3.94-5.47a.18.18,0,0,0,.16-.19c0-.18-.13-.22-.27-.23s-.18.05-.14.16A.33.33,0,0,0,29.33,22.76Z"/><path d="M13,32a3.8,3.8,0,0,0-.59.06c-.63.18-1-.31-1.57-.48-.1,0-.09-.15-.08-.24.07-.41-.14-.83,0-1.24a.25.25,0,0,0-.08-.25,1.54,1.54,0,0,1-.32-1.66,3.64,3.64,0,0,1,.31-1.28,9,9,0,0,0,.75-1.36c.38-.81,1.3-1.08,1.76-1.85a3.08,3.08,0,0,1,1.34-.88A13.54,13.54,0,0,1,16,22.23a3.18,3.18,0,0,1,2.09.13,1.06,1.06,0,0,0,.68,0,17.71,17.71,0,0,1,2.45-.65c.1,0,.26-.12.31.05s-.17.13-.25.2a1,1,0,0,1-.62.22,3.37,3.37,0,0,0-1.64.6.4.4,0,0,1-.2.09c-.63,0-.53.32-.36.7a2.09,2.09,0,0,1,.27,1c0,.15,0,.37-.2.37-.35,0-.49.27-.71.46a1.79,1.79,0,0,1-1,.31,2.2,2.2,0,0,0-1.27.74.29.29,0,0,0-.05.33A4.36,4.36,0,0,1,15.33,30a4.86,4.86,0,0,1-1,1.24c-.17.19-.36.36-.54.53A.86.86,0,0,1,13,32Zm5.28-7.57c-.39-.33-.39-.86-.76-1.19a.64.64,0,0,0-.74-.2,5,5,0,0,1-.51.16,3.8,3.8,0,0,0-2,.89,3.57,3.57,0,0,1-1,.73.86.86,0,0,0-.34.28c-.3.47-.82.72-1,1.29a4.56,4.56,0,0,0-.61,1.71c0,.21,0,.42-.17.57A.2.2,0,0,0,11,29c.47.29.34.79.44,1.2a.8.8,0,0,0,.68.66,8.78,8.78,0,0,0,.88.1.49.49,0,0,0,.33-.09c.33-.21.51-.65,1-.61,0,0,.1-.14.13-.22a2.93,2.93,0,0,0,0-2.8c-.13-.2-.25-.48,0-.7a15.33,15.33,0,0,1,1-1.28,1.26,1.26,0,0,1,.7-.39,2.25,2.25,0,0,0,1-.22A1,1,0,0,1,18.23,24.42Z"/><path d="M46.5,42.47a1.63,1.63,0,0,1-.64-.1c-.18-.07-.35-.14-.18-.38.06-.07.07-.21,0-.22-.37-.06-.19-.27-.19-.48a4,4,0,0,0-.07-1.66c-.22-.49-.51-1-.71-1.46a.34.34,0,0,0-.2-.15c-.24-.08-.41-.13-.25-.46s-.09-.58-.2-.77a6,6,0,0,1-.42-2.11.54.54,0,0,1,0-.18c.2-.7.18-1.44.35-2.15a2.32,2.32,0,0,1,.63-1.08,2.08,2.08,0,0,1,1.17-.54c.22-.06.34.08.43.24a6.11,6.11,0,0,1,.5,2.35,4.28,4.28,0,0,0,.14,1.16,7.08,7.08,0,0,1,.22,2.07c0,.73-.34,1.42-.2,2.14a3,3,0,0,0,.33,1.23c.24.4.06.88.11,1.32a1.8,1.8,0,0,1-.1.79C47.05,42.36,46.86,42.56,46.5,42.47Zm-2-6.82c-.07.45.21.73.32,1.06s.23.17.36,0a.75.75,0,0,1,.83-.24c.17.06.45,0,.42-.27s.21-.9-.25-1.24a.18.18,0,0,1-.05-.16,9.79,9.79,0,0,0-.21-2.47.65.65,0,0,0-.52-.54c-.28-.09-.26.2-.33.37l-.06.06a2.12,2.12,0,0,0-.6,2C44.44,34.77,44.33,35.25,44.45,35.65Zm1.71,4.45c.06-.32.24-.75.13-.93a1,1,0,0,1-.1-.84.38.38,0,0,0-.24-.4c-.07,0-.15-.07-.15,0s-.34.29-.06.48a.28.28,0,0,1,.13.27C45.77,39.22,46.14,39.62,46.16,40.1Z"/><path d="M11.4,10.3a2,2,0,0,1,1.32-1.92c.29-.06.55-.18.82-.26a.35.35,0,0,0,.28-.31c0-.2-.13-.17-.25-.23A.88.88,0,0,1,13,7.09c-.19-.47-.66-.72-.95-1.13a4.19,4.19,0,0,1-.46-1.18c-.09-.26,0-.36.25-.3a2.1,2.1,0,0,1,1.39.65A14.18,14.18,0,0,0,14.88,7.3a.7.7,0,0,1,.23.51c0,.12,0,.26.15.31.66.28,1.08.94,1.81,1.07.11,0,.17.08.12.19s0,.47-.32.55a1.57,1.57,0,0,1-1.53-.29c-.2-.17-.34-.12-.39.12a3.18,3.18,0,0,1-.5,1.42c-.29.37-.46.83-1.09.92-1.06.16-1.16,0-1.71-1C11.51,10.84,11.28,10.6,11.4,10.3Zm2.38-1.56a3.54,3.54,0,0,0-.93.58,1,1,0,0,0,.07,1.62c.25.19.42.16.68-.09.44-.42.31-1.15.87-1.48,0,0,0-.07,0-.07C14.28,9.13,14.26,8.73,13.78,8.74Z"/><path d="M33.44,1.89c-.2.94.06,1.8-.06,2.65A5.62,5.62,0,0,1,33,6.43a6.76,6.76,0,0,0-.17.68,2.87,2.87,0,0,1-1.08,1.32c-.58.47-1.14.53-1.63-.14-.13-.18-.42-.23-.41-.51a.77.77,0,0,1,.24-.47c.17-.18.31-.21.43.06.22.46.64.44,1,.1a4.66,4.66,0,0,0,1-1.94,1.8,1.8,0,0,0,0-1,1.3,1.3,0,0,1,0-.78c0-.13.09-.28-.08-.34s-.19.08-.25.19-.26.5-.46.57-.6.25-.89.41-.72-.25-.83-.54a3.42,3.42,0,0,1,0-2.46A2.76,2.76,0,0,1,30.59.34.93.93,0,0,1,31.68.09a.63.63,0,0,0,.3.07,1.32,1.32,0,0,1,1.25.52C33.51,1.08,33.31,1.56,33.44,1.89Zm-2.65,1c0,.06-.14.4.19.42s.67.08.77-.26a2.77,2.77,0,0,1,.57-.89c.12-.15.16-.31,0-.43a1.23,1.23,0,0,1-.44-.65.32.32,0,0,0-.39-.22c-.12,0-.28,0-.33.16A3.63,3.63,0,0,0,30.79,2.87Z"/><path d="M52.5,41.21a3.23,3.23,0,0,1-3.11-2.16,1,1,0,0,1,.14-.86c.19-.31.54-.2.73.22s.17.78.5,1.08a2.41,2.41,0,0,0,1.31.71,8.16,8.16,0,0,0,2-.22c.14,0,.32,0,.34-.16s-.17-.16-.28-.22c-.3-.16-.49-.46-.84-.57-.12,0-.09-.19-.06-.32s.07-.34-.08-.46c-.33-.26-.1-.34.12-.47a4,4,0,0,1,3.59-.21,2.73,2.73,0,0,1,1,.68.68.68,0,0,1,0,1.11,4.55,4.55,0,0,1-1.7,1c-.74.22-1.48.47-2.24.66A9.7,9.7,0,0,1,52.5,41.21Zm3.15-2a2,2,0,0,0,1.12-.35c.07,0,.2-.07.09-.23a2.41,2.41,0,0,0-1.09-.58c-.37,0-.73,0-1.09,0a.51.51,0,0,0-.42.21.18.18,0,0,0,0,.28A9.39,9.39,0,0,0,55.65,39.26Z"/><path d="M1.82,15.33c.16,0,.39-.07.4.15s.3.45-.14.62c-.2.08-.38.33-.65.41s-.28.34-.27.55a1.28,1.28,0,0,0,.1.59c.31.36.25.91.69,1.18.12.07.1.2.14.32a.64.64,0,0,0,.86.36c.49-.17.72-.6,1.07-.91.08-.07.05-.29.23-.19a.38.38,0,0,1,.2.42.44.44,0,0,1-.06.16c-.33.34-.29.86-.65,1.19-.13.12-.2.23,0,.4s.56.47.81.65a1.92,1.92,0,0,1,.75.72c0,.05.14.12.19.1.68-.26.55.56.93.72.09,0,.12.38-.07.51s-.35.14-.47-.08-.3,0-.44-.06-.34-.37-.54-.5c-.67-.47-1.38-.9-2-1.41a.48.48,0,0,0-.68,0,3.13,3.13,0,0,1-1.46.49c-.33.06-.6-.07-.61-.42s.27-.5.58-.48a1.19,1.19,0,0,0,1.13-.48c.18-.25.13-.44-.14-.51a.53.53,0,0,1-.46-.52.37.37,0,0,0-.12-.23C.41,18.59.46,17.65,0,17a.58.58,0,0,1,0-.39A2.27,2.27,0,0,1,1.82,15.33Z"/><path d="M24.43,3.78a11.33,11.33,0,0,1-.23,2.09c-.05.13,0,.31-.27.28s-.58.15-.71-.19a10,10,0,0,0-.78-1.53A5,5,0,0,0,21.52,3c-.29-.26-.09-.48,0-.67s.36-.15.55-.05a2,2,0,0,1,.85,1.11s0,.06,0,.09c0,.27.22.52.48.49s.27-.38.29-.58a3.91,3.91,0,0,1,1.08-2.16,1.29,1.29,0,0,0,.28-.37A1,1,0,0,1,26.21.41,2.54,2.54,0,0,1,27.82,2.1a6.94,6.94,0,0,0,.86,2.07.42.42,0,0,1-.13.59.66.66,0,0,1-.88-.17c-.32-.49-.32-1.13-.74-1.59-.08-.08,0-.29,0-.44a1.56,1.56,0,0,0-.84-1.2c-.52-.13-.63-.06-.86.44a1,1,0,0,1-.21.34A2.12,2.12,0,0,0,24.43,3.78Z"/><path d="M53.23,25.12a8.61,8.61,0,0,0-1.13,0c-.23.06-.41,0-.3-.35s.37-.71.85-.7a.42.42,0,0,0,.31-.15c.44-.44,1.08-.56,1.57-1a6.42,6.42,0,0,1,1.25-.68c.26-.12.33-.38.53-.51a21,21,0,0,1,1.83-1.09.61.61,0,0,1,.89.52.13.13,0,0,1-.11.16,8.09,8.09,0,0,0-3,1.5c-.42.33-.92.56-1.37.86-.11.07-.3.18-.24.34a.47.47,0,0,0,.43.28,1.36,1.36,0,0,1,1.12.63c.19.23.18.42,0,.72-.55.76-1.44.88-2.12,1.35-.48.34-1,.29-1.47.55a.14.14,0,0,1-.22,0c-.06-.12-.14-.22,0-.37a1.2,1.2,0,0,1,.89-.6c.68-.06,1.06-.58,1.51-1,.25-.21-.11-.36-.28-.4A6.42,6.42,0,0,0,53.23,25.12Z"/><path d="M50.46,11.76A9.54,9.54,0,0,0,49,11c-.2-.06-.3-.07-.4.1a12,12,0,0,0-1,2.36.81.81,0,0,0,.46.93,1.13,1.13,0,0,1,.49.3c-.17,0-.34,0-.35.29s-.59.35-.88.14a1.5,1.5,0,0,0-.24-.2c-.59-.27-.64-.34-.43-.94.1-.27,0-.53,0-.79a5.42,5.42,0,0,1,.76-1.59c.19-.29.2-.64.44-.91s0-.29-.15-.4a.68.68,0,0,1-.16-1c.22-.24.5-.1.71,0s.39.08.53-.19c.31-.62.66-1.23,1-1.84a.73.73,0,0,1,.26-.29.44.44,0,0,1,.51,0,.35.35,0,0,1,.07.45,17.68,17.68,0,0,1-1,1.7c-.24.35-.29.57,0,.88A3.65,3.65,0,0,1,50.46,11.76Z"/><path d="M9.52,13c0,.32.16.6,0,.87-.1.12.06.16.11.23a3.29,3.29,0,0,1,.75,1.79c0,.28-.1.33-.35.28s-.74-.16-.81-.63a.3.3,0,0,0-.26-.23A4.59,4.59,0,0,1,7.11,14c-.22-.18-.51-.22-.69-.48a.44.44,0,0,1,0-.53c.14-.22.33-.16.51-.07A5.21,5.21,0,0,1,8,13.73a1.36,1.36,0,0,0,.38.24c.25.1.31.1.37-.23.12-.54-.09-1.1.21-1.64a1,1,0,0,1,1.14-.58,4.11,4.11,0,0,1,2.45,2c.16.26.48.34.71.53s.56.39.33.77-.58.28-1-.1-.56-.86-1-1.19-.87-.76-1.32-1.12a.39.39,0,0,0-.46,0A.72.72,0,0,0,9.52,13Z"/><path d="M54.3,33.6a5.49,5.49,0,0,0-1.45,0c-.18,0-.37,0-.43-.23a.34.34,0,0,1,.2-.44c.32-.16.57-.48,1-.42.11,0,.24-.12.35-.19s.23-.2.4-.16a.63.63,0,0,0,.72-.31c.31-.42.75-.32,1.14-.34s.26.21.1.37a2.72,2.72,0,0,1-.69.62c-.28.14-.25.26,0,.39l1.13.64a.87.87,0,0,1,.33.4c.28.53.07.86-.36,1.16a10.52,10.52,0,0,1-2.94,1.47c-.37.12-.73.23-1.09.37s-.5.16-.69-.09.12-.79.33-.84.64-.29,1-.13a.3.3,0,0,0,.21,0c.72-.46,1.59-.56,2.29-1.06a.64.64,0,0,0,.32-.45c0-.21-.19-.28-.34-.3C55.3,34,54.93,33.5,54.3,33.6Z"/><path d="M49.17,22.26a.51.51,0,0,1,.37-.59c.53-.07.77-.56,1.23-.73.76-.27,1.25-1,2-1.26a.42.42,0,0,0,.25-.67.75.75,0,0,1-.09-.39c0-.2-.17-.41.14-.56a.56.56,0,0,1,.74.2c.36.43.32.38.78.15a2.65,2.65,0,0,1,.81-.39c.46-.08.71-.56,1-.87.15-.13.27-.27.49-.25s.44.06.55.27-.13.34-.25.46a5.3,5.3,0,0,1-1.59,1.05c-.37.17-.68.43-1,.63s-.21.64-.09.84.14.63.41.86.07.31,0,.47-.15.16-.28.14-.23-.11-.16-.25c.2-.45,0-.6-.41-.75s-.55-.06-.64-.41c0-.1-.16,0-.23,0a26.57,26.57,0,0,1-2.6,1.59,1.48,1.48,0,0,0-.39.36.29.29,0,0,0,0,.41.58.58,0,0,1,.28.55c0,.05.09.2,0,.16s-.27.36-.4,0c-.07-.18-.29-.2-.35-.39s-.13-.12-.18-.1C49.06,23.05,49.29,22.48,49.17,22.26Z"/><path d="M42.89,11c-.12-.23,0-.32.16-.36s.48-.2.61.06.26.27.49.22a1.71,1.71,0,0,1,.45,0c.15,0,.32.05.39-.12a.39.39,0,0,0-.13-.41,2,2,0,0,1-.67-1.65c.08-.46-.13-1,.26-1.35s.74-.61,1.11-.92a1.09,1.09,0,0,1,1.28.24c0,.06,0,.13.14.16.63.21.76.69.38,1.28-.2.3-.24.7-.49,1-.08.1-.14.21-.28.18a.16.16,0,0,1-.14-.15c-.05-.17.11-.18.2-.25l.12-.06c.13-.09.06-.19,0-.27-.26-.32.38-.45.15-.81a.92.92,0,0,0-.74-.5c-.26,0-.74.43-1,.75-.36.52,0,.92.15,1.36a1.36,1.36,0,0,0,.45.8c.26.21.09,1.14-.23,1.39a2.57,2.57,0,0,1-2.6.1C42.65,11.46,42.88,11.19,42.89,11Z"/><path d="M54.23,45.1c-1.2.13-2-1.07-2.19-1.92,0-.14.06-.37.13-.35.25.1.54-.21.75.08a5.34,5.34,0,0,1,.53.72c.07.16,0,.43.24.45a3.07,3.07,0,0,0,1.05,0c.25-.07.33-.41.26-.65-.21-.67.23-1.07.56-1.52a.48.48,0,0,1,.35-.18,4.7,4.7,0,0,1,2.4.34A1.54,1.54,0,0,1,59,43.3c0,.24,0,.48,0,.72s-.11.41-.33.4a.37.37,0,0,1-.36-.42,1.44,1.44,0,0,0-1.82-1.48.77.77,0,0,0-.57.53,3.14,3.14,0,0,0-.27,1.24c0,.17-.12.22-.21.32A1.52,1.52,0,0,1,54.23,45.1Z"/><path d="M43.64,6.8a2.07,2.07,0,0,1-.47,1.28,4.59,4.59,0,0,1-1.25,1.16c-.37.26-.72.68-1.3.37a.42.42,0,0,1-.27-.45A7.3,7.3,0,0,1,41,6.69c0-.07.09-.11.14-.17.21-.27.67-.31.67-.81,0-.24.7-.42.9-.21C43.11,5.91,43.81,6.15,43.64,6.8ZM43,7a.41.41,0,0,0-.26-.32c-.12-.06-.22,0-.31.1a6.81,6.81,0,0,0-1,1.37.2.2,0,0,0,0,.25c.09.1.14,0,.21,0,.47-.25.74-.71,1.15-1C42.9,7.29,42.92,7.13,43,7Z"/><path d="M41.89,2.84a1.81,1.81,0,0,1-.6,1,22.9,22.9,0,0,0-1.45,2A15.14,15.14,0,0,0,38.3,8.47c-.22.45-.48.59-.75.45s-.3-.42-.14-.67c.42-.7.9-1.37,1.26-2.1.28-.56.84-.91,1-1.54.06-.21.38-.23.45-.52s.24-.51-.1-.73a.16.16,0,0,1,.08-.28c.47,0,.65-.49,1-.66.14-.06.2-.23.4-.1S41.9,2.57,41.89,2.84Z"/><path d="M8.14,20a.63.63,0,0,1-.62-.47c-.09-.24-.22-.51-.58-.45A.19.19,0,0,1,6.78,19c-.47-.7-1.28-1.1-1.64-1.9-.11-.23-.44-.34-.36-.71,0-.18,0-.28.26-.24a.27.27,0,0,0,.32-.1c.08-.1.17,0,.21,0,.17.4.55.65.77,1s.74.63,1,1,.86.76,1.2,1.24c.1.14.24.25.15.43S8.46,20,8.14,20Z"/><path d="M20.54,7.71a1.43,1.43,0,0,1-.87-.46c-.4-.41-.44-1-.74-1.42a3.23,3.23,0,0,1-.56-.91.43.43,0,0,1,.08-.43c.11-.18.23-.1.38,0a1.63,1.63,0,0,1,.91.8,5.36,5.36,0,0,0,.77,1.33c.07.07.13.19.22.21.59.12.23.51.2.77S20.7,7.7,20.54,7.71Z"/><path d="M44.27,24.24a5.56,5.56,0,0,1,.51-1,1.64,1.64,0,0,0-.07-1.62,9.36,9.36,0,0,0-1.19-2.31,7,7,0,0,0-1.09-1.15.44.44,0,0,0-.36-.15.55.55,0,0,1-.55-.3.78.78,0,0,0-.45-.36.22.22,0,0,1-.15-.32c.08-.19.21-.06.3,0a6.14,6.14,0,0,1,2.06,1.46,10.53,10.53,0,0,1,2,3.71,1.62,1.62,0,0,1-.23,1.32l-.39.58C44.58,24.29,44.45,24.27,44.27,24.24Z"/><path d="M53.77,28.82c.08,0,.2,0,.22,0,.38-.59,1.13-.23,1.6-.62.22-.18.51,0,.67.21s0,.29-.21.35c-.71.26-1.43.53-2.15.77a4.53,4.53,0,0,0-1.44.68c-.06.05-.12.12-.18.13s-.38.1-.51,0,0-.34,0-.47.3-.52.65-.56S53.28,28.81,53.77,28.82Z"/><path d="M34.72,15.72a3.68,3.68,0,0,0,.45-.28,3.16,3.16,0,0,1,2.33-.6c.18,0,.35,0,.52,0s.41.15.35.37-.27.09-.43.07a4.22,4.22,0,0,0-2.2.22,2.57,2.57,0,0,0-1.08.57c-.08.09-.26.29-.41.08s0-.33.18-.44A.21.21,0,0,1,34.72,15.72Z"/><path d="M26.19,37.06a2,2,0,0,0,.92,1.31c.17,0,.37.12.31.29s-.27.14-.44.08a1.65,1.65,0,0,1-1-1.13c0-.17-.09-.35-.14-.52a.5.5,0,0,1,.08-.47s.1-.08.15,0A.53.53,0,0,1,26.19,37.06Z"/><path d="M4.75,13.8a1.35,1.35,0,0,1-.65.36.43.43,0,0,1-.49-.4c0-.24.36-.6.63-.57S4.81,13.28,4.75,13.8Z"/><path d="M18.9,1.62c.06.51-.41.32-.59.32-.35,0-.36-.38-.41-.64s.2-.29.38-.29A.63.63,0,0,1,18.9,1.62Z"/><path d="M35.91,35.06a.67.67,0,0,1-1.09-.32c0-.09-.07-.19,0-.24s.24-.08.29,0C35.3,34.81,35.63,34.86,35.91,35.06Z"/><path d="M58.64,28.11c-.13-.23-.58-.24-.33-.63.14-.2.39-.35.56-.18C59.21,27.63,58.76,27.82,58.64,28.11Z"/><path d="M33.11,16.89c-.1,0-.17,0-.17-.06a.14.14,0,0,1,.07-.14,1.78,1.78,0,0,0,.68-.39.12.12,0,0,1,.19.05c0,.1,0,.22-.08.26S33.28,16.71,33.11,16.89Z"/><path d="M27.77,38.57c.37-.24.73,0,1-.17,0,0,.1.05.1.11a.14.14,0,0,1-.16.17A2.89,2.89,0,0,1,27.77,38.57Z"/><path d="M26.28,22.78a1,1,0,0,1,.14.8,6.53,6.53,0,0,0,0,1.25c0,.24,0,.47.05.71s0,.45-.31.44-.24-.22-.23-.4a9.46,9.46,0,0,1,.33-2.8Z"/></g></g></g></svg>