<svg xmlns="http://www.w3.org/2000/svg" viewBox="0 0 62.44 63.01"><defs><style>.cls-1{opacity:0.4;}.cls-2{fill:#8195a5;}.cls-3{opacity:0.8;}.cls-4{fill:#b12440;}</style></defs><g id="Layer_2" data-name="Layer 2"><g id="Layer_1-2" data-name="Layer 1"><g class="cls-1"><path class="cls-2" d="M1.32,19.21c.19,1.19.43,2.38.57,3.58.06.53.11,1.06.12,1.59,0,.32,0,.64,0,1l0,.26c.05-.16,0-.12-.05.11a7.66,7.66,0,0,0-.62,3.41c0,1.27,0,2.55,0,3.82,0,.5.34,1.08.87.74a2.43,2.43,0,0,0,.69-2V27.91a2.34,2.34,0,0,1,.28-1.11,6.79,6.79,0,0,0,.41-1.94,31.7,31.7,0,0,0-.74-7.51c-.1-.63-.67-.63-1-.22a2.69,2.69,0,0,0-.44,2.08Z"/></g><g class="cls-1"><path class="cls-2" d="M4.4,18.89c0,1.51,0,3,0,4.54,0,1.3.13,2.68,0,4-.06.63-.26,1.24-.32,1.87a13.09,13.09,0,0,0,0,2c.06,1.5,0,3,0,4.51,0,.52.34,1.07.88.74s.68-1.36.68-2c0-1.5,0-3,0-4.51,0-1.23.3-2.35.33-3.57.07-2.92,0-5.87,0-8.8,0-.51-.33-1.07-.87-.73s-.68,1.35-.68,1.95Z"/></g><g class="cls-1"><path class="cls-2" d="M8.32,22.12a13.77,13.77,0,0,0-.7,3.49c-.13,1.15-.36,2.28-.4,3.44,0,.58,0,1.17,0,1.74S7,31.76,7,32.25s0,1.27,0,1.9c0,.36-.19.73-.27,1.16s-.2,1.48.41,1.62,1-.93,1-1.31.3-1,.36-1.67,0-1,0-1.55a9.09,9.09,0,0,1,.21-1.27,13.47,13.47,0,0,0,.11-2A22.1,22.1,0,0,1,9.07,26a12.52,12.52,0,0,1,.47-2.79c.18-.48.38-1.53-.12-1.91s-1,.47-1.1.84Z"/></g><g class="cls-1"><path class="cls-2" d="M11,27.64a39.29,39.29,0,0,1-.22,4.59,9.76,9.76,0,0,0-.09,1.32,5.47,5.47,0,0,1,0,.89c0-.19-.06.27-.07.32s-.08.35-.11.53a7.76,7.76,0,0,0-.15,1.36c0,.38,0,1.39.66,1.21s.88-1.19.89-1.7c0-.11,0-.22,0-.34s0-.21,0-.07c0-.16.06-.31.09-.46A11.92,11.92,0,0,0,12.22,34a10.43,10.43,0,0,0,0-1.37c0-.28.07-.66.1-1a46.58,46.58,0,0,0,.21-5.15c0-.47-.35-1.12-.88-.73A2.48,2.48,0,0,0,11,27.64Z"/></g><g class="cls-1"><path class="cls-2" d="M15.19,23.37a10.61,10.61,0,0,0-.5,4.08c0,1.27,0,2.54,0,3.81s-.25,2.27-.35,3.43,0,2.5,0,3.75c0,.5.33,1.08.87.74a2.45,2.45,0,0,0,.68-2v-.49c0-.5-.34-1.08-.87-.73s-.68,1.35-.68,2v.49L16,37.22c0-1-.13-2,0-3s.35-2.18.36-3.3V27.35a8.36,8.36,0,0,1,.14-2.91c.18-.48.38-1.53-.12-1.91s-1,.47-1.1.84Z"/></g><g class="cls-1"><path class="cls-2" d="M18.15,26.39c.09,1,.24,2,.29,3s0,1.88,0,2.81.24,1.91.28,2.88,0,2.11,0,3.16c0,.49.35,1.1.87.74a2.4,2.4,0,0,0,.69-2c0-1.06,0-2.11,0-3.17S20.08,32,20,31s0-1.87,0-2.81-.2-2-.3-3c0-.47-.31-1.12-.87-.73a2.35,2.35,0,0,0-.68,1.95Z"/></g><g class="cls-1"><path class="cls-2" d="M21,23.89c0,2.28-.07,4.56,0,6.84,0,1,.3,2,.32,3s0,2.28,0,3.41c0,.49.35,1.1.87.74a2.4,2.4,0,0,0,.69-2v-.73c0-.49-.35-1.1-.87-.73a2.44,2.44,0,0,0-.69,2v.72l1.56-1.21c0-1.1,0-2.21,0-3.31s-.3-2-.33-3.07c-.05-2.28,0-4.57,0-6.85,0-.49-.35-1.1-.88-.73A2.43,2.43,0,0,0,21,23.89Z"/></g><g class="cls-1"><path class="cls-2" d="M23.77,22.33v12.5c0,.49.35,1.1.87.73a2.4,2.4,0,0,0,.69-2V21.11c0-.49-.35-1.1-.87-.74a2.46,2.46,0,0,0-.69,2Z"/></g><g class="cls-1"><path class="cls-2" d="M26.27,24.83a27.59,27.59,0,0,1-.36,6.09A19.11,19.11,0,0,0,25.64,34a18.7,18.7,0,0,0-.3,3c0,.47.31,1.12.87.74a2.38,2.38,0,0,0,.68-2,3.67,3.67,0,0,1,.14-1A9.67,9.67,0,0,0,27.2,33a15,15,0,0,1,.34-2.67,38.46,38.46,0,0,0,.29-6.7c0-.49-.34-1.1-.87-.74a2.47,2.47,0,0,0-.69,2Z"/></g><g class="cls-1"><path class="cls-2" d="M28.15,24.51a40.09,40.09,0,0,1-.06,5.8,45.41,45.41,0,0,0-.25,6.39c0,.49.34,1.1.87.74a2.45,2.45,0,0,0,.68-2,47.85,47.85,0,0,1,.32-6.1,47.44,47.44,0,0,0,0-6.08c0-.49-.34-1.1-.87-.74a2.4,2.4,0,0,0-.68,2Z"/></g><g class="cls-1"><path class="cls-2" d="M31,23.26a14.44,14.44,0,0,1-.05,2.79,31.51,31.51,0,0,0-.56,3.48c-.08,1.13-.23,2.24-.34,3.37a31.26,31.26,0,0,0,0,3.49c0,.49.34,1.1.87.73a2.44,2.44,0,0,0,.69-1.95,23.51,23.51,0,0,1,0-3.25c.15-1.12.2-2.24.33-3.35s.44-2.18.57-3.29a26.78,26.78,0,0,0,0-3.23c0-.49-.34-1.1-.88-.74a2.43,2.43,0,0,0-.68,2Z"/></g><g class="cls-1"><path class="cls-2" d="M33.77,22.64a15.3,15.3,0,0,1,0,3.45c-.12.56-.37,1.09-.49,1.66s-.11,1.2-.2,1.8c-.14,1-.45,2-.51,3,0,.39,0,.78-.07,1.17s0,.29,0,.38c.07-.08.07-.23.16-.31a2.41,2.41,0,0,0-.68,1.95c0,.43.33,1.19.87.74A4.68,4.68,0,0,0,34,33.25c0-.45.06-.91.07-1.37s-.08.31,0-.06c0-.19.08-.39.12-.58s.14-.67.2-1c.13-.72.17-1.44.26-2.16s.38-1.18.51-1.78a22,22,0,0,0,.13-4.87c0-.49-.34-1.1-.87-.73a2.44,2.44,0,0,0-.69,1.95Z"/></g><g class="cls-1"><path class="cls-2" d="M37.84,20.45a35.47,35.47,0,0,1-1,7.6c-.28,1.26-.5,2.52-.78,3.78a20.71,20.71,0,0,1-.84,3.41c-.19.48-.37,1.55.12,1.91s.95-.48,1.1-.83a25.18,25.18,0,0,0,1-4c.32-1.4.57-2.81.88-4.22a41.65,41.65,0,0,0,1.07-8.83c0-.5-.34-1.08-.87-.73s-.68,1.34-.68,1.95Z"/></g><g class="cls-1"><path class="cls-2" d="M41,19.77c-.09.71-.29,1.39-.33,2.11a11.26,11.26,0,0,1-.19,1.65,28,28,0,0,1-1,4,10.52,10.52,0,0,0-.56,2.12,11.54,11.54,0,0,1-.29,1.76,8.09,8.09,0,0,1-.65,1.32,4.62,4.62,0,0,0-.42,2.37c0,.49.32,1.1.87.73a2.33,2.33,0,0,0,.69-1.95c-.17.47-.18.54,0,.22l.23-.39a7.85,7.85,0,0,0,.4-.88,10,10,0,0,0,.51-1.93,17.39,17.39,0,0,1,.27-1.76c.18-.67.47-1.31.66-2,.35-1.29.62-2.61.87-3.92a14.94,14.94,0,0,0,.18-1.88c0-.71.25-1.41.33-2.11.06-.43,0-1.34-.66-1.22S41,19.3,41,19.77Z"/></g><g class="cls-1"><path class="cls-2" d="M46,20.94a17.16,17.16,0,0,1-.74,2.66,22.65,22.65,0,0,0-.87,3.23c-.22.76-.47,1.51-.73,2.25a4.33,4.33,0,0,1-.79,1.61,2.51,2.51,0,0,0-.68,1.95c0,.38.36,1.24.87.73,1.4-1.38,1.84-3.35,2.44-5.15A13.76,13.76,0,0,0,46,26.44a5.8,5.8,0,0,1,.33-1.35,26.85,26.85,0,0,0,1.13-3.84c.11-.43.18-1.48-.41-1.62s-.93.94-1,1.31Z"/></g><g class="cls-1"><path class="cls-2" d="M31.9,12.9c-.09,1.36-.22,2.71-.28,4.07a9.87,9.87,0,0,1-.15,1.8c-.12.55-.29,1.1-.39,1.66-.23,1.31-.26,2.67-.41,4a40.44,40.44,0,0,0-.33,4.1c0,.43,0,1.34.66,1.22s.88-1.24.89-1.7c0-1.38.18-2.74.33-4.1a32.8,32.8,0,0,1,.41-3.72,20.46,20.46,0,0,0,.54-3.73c.06-1.36.19-2.72.28-4.08,0-.42,0-1.33-.66-1.21s-.86,1.23-.89,1.7Z"/></g><g class="cls-1"><path class="cls-2" d="M36.27,11.7a26.5,26.5,0,0,1-.16,5c-.31,1.7-.7,3.37-.93,5.09a37.44,37.44,0,0,1-.73,5c-.34,1.23-1.06,2.43-.49,3.71.39.86,1.11-.32,1.25-.65l.26-.65c.2-.47.38-1.54-.11-1.91s-1,.48-1.11.84L34,28.7l1.24-.65c-.07.9,0,1.12.13.65l.15-.35c.11-.3.18-.62.27-.94a17.42,17.42,0,0,0,.5-2.49c.19-1.59.34-3.19.61-4.76s.68-3,.87-4.55a41.77,41.77,0,0,0,.07-5.13c0-.51-.34-1.07-.87-.73s-.69,1.36-.69,1.95Z"/></g><g class="cls-1"><path class="cls-2" d="M38.46,14.2A15.83,15.83,0,0,1,38.23,18c-.29,1.3-.69,2.58-1,3.88s-.59,2.62-.92,3.92a9.78,9.78,0,0,1-.68,2.52,2.28,2.28,0,0,0-.17,2.06c.37.58.85.1,1.1-.32a12.4,12.4,0,0,0,1.07-3.49c.34-1.46.71-2.92,1-4.38s.81-3,1.1-4.46A23.84,23.84,0,0,0,40,13c0-.5-.34-1.08-.88-.73s-.68,1.35-.68,1.95Z"/></g><g class="cls-1"><path class="cls-2" d="M41.27,16c-.06,1.11-.46,2.18-.57,3.29s-.45,1.92-.6,2.92c-.34,2.16-1.55,4.05-1.89,6.21-.07.44-.21,1.47.4,1.62s1-.94,1-1.31a14.89,14.89,0,0,1,1-3,16.52,16.52,0,0,0,.93-3.44,12.63,12.63,0,0,1,.34-1.38,13.84,13.84,0,0,0,.34-2.11c.14-1.11.51-2.16.58-3.28,0-.43,0-1.34-.67-1.22s-.86,1.23-.89,1.7Z"/></g><g class="cls-1"><path class="cls-2" d="M43.46,18.58c0,2.39-.87,4.77-1.5,7.05-.33,1.18-.71,2.34-1,3.53-.14.56-.18,1.13-.32,1.69a6.53,6.53,0,0,0-.28,2.1c0,.49.31,1.1.87.74a2.39,2.39,0,0,0,.68-2c0,.26.14-.43.17-.57s.1-.56.15-.84a14.45,14.45,0,0,1,.44-1.72c.34-1.17.65-2.34,1-3.5A28.45,28.45,0,0,0,45,17.36c0-.5-.34-1.08-.87-.74a2.43,2.43,0,0,0-.69,2Z"/></g><g class="cls-1"><path class="cls-2" d="M3.46,22.33V33c0,.47.35,1.12.87.74a2.46,2.46,0,0,0,.69-2V21.11c0-.47-.35-1.12-.88-.74a2.49,2.49,0,0,0-.68,2Z"/></g><g class="cls-1"><path class="cls-2" d="M6.27,21.39c.16,3.23.31,6.45.31,9.69,0,.47.36,1.12.88.73a2.48,2.48,0,0,0,.68-1.95c0-3.23-.16-6.46-.31-9.69,0-.46-.34-1.13-.87-.73a2.4,2.4,0,0,0-.69,1.95Z"/></g><g class="cls-1"><path class="cls-2" d="M8.15,17.27a31.54,31.54,0,0,0,.31,3.36c0,1.11.18,2.21.25,3.31.16,2.37.06,4.76.06,7.14,0,.49.35,1.1.87.73a2.4,2.4,0,0,0,.69-1.95c0-2.29.09-4.6-.05-6.89-.06-1.09-.23-2.19-.26-3.29a12.64,12.64,0,0,0-.12-1.63,5,5,0,0,1-.2-1.26c0-.43,0-1.34-.66-1.22s-.85,1.23-.89,1.7Z"/></g><g class="cls-1"><path class="cls-2" d="M10.65,19.83a35.34,35.34,0,0,0,0,4.82A18.37,18.37,0,0,1,11,27a6.13,6.13,0,0,0,.14,1.35l.12.5s0,.47.06.3c0,.38,0,1.38.67,1.21s.86-1.19.89-1.7a5.58,5.58,0,0,0-.14-1.58A5.47,5.47,0,0,1,12.5,26a15.17,15.17,0,0,0-.26-2.52,28.83,28.83,0,0,1,0-4.83c0-.47-.35-1.12-.87-.74a2.46,2.46,0,0,0-.68,2Z"/></g><g class="cls-1"><path class="cls-2" d="M13.77,18.26c.12.91.45,1.76.61,2.66a27.46,27.46,0,0,1,.31,2.73c.13,2,0,4.13,0,6.18,0,.47.35,1.12.87.73a2.45,2.45,0,0,0,.69-1.95c0-2.05.11-4.14,0-6.18-.06-.91-.2-1.83-.31-2.73s-.48-1.75-.6-2.65c-.06-.45-.32-1.15-.87-.74a2.35,2.35,0,0,0-.69,2Z"/></g><g class="cls-1"><path class="cls-2" d="M16.58,15.14c.14,1.09.24,2.19.4,3.28s.49,2,.54,3.1c.11,2.23,0,4.5,0,6.74,0,.49.35,1.1.87.74a2.4,2.4,0,0,0,.69-1.95c0-2.24.11-4.52,0-6.75a24.31,24.31,0,0,0-.53-3.07c-.19-1.09-.27-2.21-.41-3.31-.06-.46-.31-1.12-.87-.73a2.37,2.37,0,0,0-.69,2Z"/></g><g class="cls-1"><path class="cls-2" d="M19.71,16.7c0,2.07,0,4.13,0,6.19,0,.91-.13,1.77-.21,2.66a9.56,9.56,0,0,1-.25,2.51c-.18.48-.38,1.53.12,1.91s1-.48,1.1-.84A10.55,10.55,0,0,0,21,25.74c0-1.09.24-2.15.25-3.25,0-2.33,0-4.67,0-7,0-.49-.35-1.1-.88-.73a2.43,2.43,0,0,0-.68,1.95Z"/></g><g class="cls-1"><path class="cls-2" d="M22.52,14.51c0,2.4,0,4.8,0,7.2a21.56,21.56,0,0,1-.26,3,23.36,23.36,0,0,0-.05,3.55c0,.49.34,1.1.87.74a2.44,2.44,0,0,0,.69-1.95,17.94,17.94,0,0,1,.09-3.11,21,21,0,0,0,.21-3.45c0-2.4,0-4.8,0-7.19,0-.49-.35-1.1-.87-.74a2.44,2.44,0,0,0-.69,1.95Z"/></g><g class="cls-1"><path class="cls-2" d="M25,12.64V26.39c0,.49.35,1.1.87.73a2.4,2.4,0,0,0,.69-1.95V11.42c0-.49-.35-1.1-.87-.73a2.44,2.44,0,0,0-.69,2Z"/></g><g class="cls-1"><path class="cls-2" d="M28.77,13v3.21c0,1-.23,1.95-.31,2.94-.19,2.11,0,4.24,0,6.35,0,.49.34,1.1.87.74a2.47,2.47,0,0,0,.69-2,45.89,45.89,0,0,1,0-6,26.08,26.08,0,0,0,.28-3.18c0-1.11,0-2.23,0-3.34,0-.49-.35-1.1-.87-.73A2.44,2.44,0,0,0,28.77,13Z"/></g><g class="cls-1"><path class="cls-2" d="M.49,18.81c1.42.52,2.56.2,4,0s3.1-.19,4.66-.32a42.86,42.86,0,0,0,8.91-2.21c1.5-.45,3-.72,4.5-1.22.68-.24,1.36-.4,2.05-.58a7.17,7.17,0,0,0,1.53-.73A13.24,13.24,0,0,0,28.07,13c.41-.29.71-.71,1.13-1A3.32,3.32,0,0,0,31,9.29c.05-.43,0-1.33-.66-1.22s-.84,1.23-.89,1.7l.33-.94a3.27,3.27,0,0,1-.36.25,2.69,2.69,0,0,0-.46.28,11.48,11.48,0,0,1-1,.94c-.57.34-1.28.35-1.87.68a4.46,4.46,0,0,1-1.39.61c-1.26.29-2.43.8-3.67,1.15s-2.76.71-4.14,1.13-2.51.61-3.75,1a15.33,15.33,0,0,1-4,.71,38.4,38.4,0,0,0-4.15.29c-1.39.19-2.46.52-3.83,0-.89-.33-1.64,2.56-.62,2.93Z"/></g><g class="cls-1"><path class="cls-2" d="M30.31,8.4a6.73,6.73,0,0,0,1.91,1.36c.84.48,1.54,1.13,2.35,1.65s1.53.54,2.21,1,1.48.67,2.14,1.15a10.42,10.42,0,0,0,4.88,1.75c1,.11,2-.08,3,0s1.8.58,2.75.64,1.57-2.88.63-2.94a25.85,25.85,0,0,1-2.6-.62c-.93-.13-1.88,0-2.82,0a10.42,10.42,0,0,1-5.08-1.75c-.61-.41-1.32-.57-1.92-1s-1.5-.57-2.21-1-1.43-1.12-2.22-1.58a7.47,7.47,0,0,1-2-1.42c-.43-.5-1,.54-1.1.83a2,2,0,0,0,.12,1.91Z"/></g><g class="cls-1"><path class="cls-2" d="M1.87,18.4C3.41,20,4.72,21.8,6.51,23.09a13.84,13.84,0,0,0,2.28,1.28,25.36,25.36,0,0,0,2.94,1.49c.65.21,1.25-.25,1.83-.54a28.21,28.21,0,0,1,3-1.55c.91-.35,1.8-.77,2.71-1.1A6.57,6.57,0,0,1,21,22.29a7.4,7.4,0,0,0,1.56-.11c.43-.14.72-.45,1.17-.57s1-.1,1.44-.25a25.57,25.57,0,0,0,2.46-1.09,51,51,0,0,1,5.81-2.45,45.73,45.73,0,0,1,6.44-1.44c1.22-.2,2.38-.52,3.62-.66s2.38-.63,3.6-.66,1.52-3,.63-2.93a19.19,19.19,0,0,0-3.1.56c-1.06.2-2.11.26-3.17.51-2.18.51-4.4.73-6.57,1.34a33.58,33.58,0,0,0-5.91,2.28c-.9.45-1.83.85-2.74,1.27a16.14,16.14,0,0,1-2.61.67c-.55.17-.76.52-1.39.57-.35,0-.67,0-1,.05a13.18,13.18,0,0,0-3.23,1.07,23.09,23.09,0,0,0-2.52,1.05c-.54.3-1.09.62-1.64.9a4.66,4.66,0,0,1-1.25.61c-.3,0-.79-.41-1.07-.56-.43-.23-.87-.46-1.31-.67a15.44,15.44,0,0,1-3-1.69,51.52,51.52,0,0,1-4.31-4.43c-.71-.73-1.69,2-1,2.74Z"/></g><g class="cls-1"><path class="cls-2" d="M.31,33.72a9,9,0,0,0,3,2,35.72,35.72,0,0,1,3.31,2A12.08,12.08,0,0,0,10.55,39a23.22,23.22,0,0,0,4.63.45c1.09,0,1.54-2.92.62-2.93a24.36,24.36,0,0,1-4.35-.4,11.54,11.54,0,0,1-4.06-1.32,27.32,27.32,0,0,0-3.07-1.87,8.79,8.79,0,0,1-3-1.94c-.44-.49-1,.54-1.1.84a2,2,0,0,0,.12,1.91Z"/></g><g class="cls-1"><path class="cls-2" d="M14.24,39.75a33.76,33.76,0,0,0,3.62.3,15.16,15.16,0,0,0,3.4-.54c1.15-.23,2.25-.68,3.4-.91s2.19.06,3.27-.31a14.7,14.7,0,0,1,3.3-.42,13.68,13.68,0,0,0,3.36-1,13.57,13.57,0,0,0,2.63-1.41c1-.71,1.65-1.43,3-1.34,1.07.07,1.57-2.87.62-2.93-2.24-.15-3.35,1.5-5.18,2.4a17.66,17.66,0,0,1-3.15,1.13c-1.19.32-2.41.06-3.58.37a8.16,8.16,0,0,1-1.66.51c-.51,0-1-.05-1.54,0a18.46,18.46,0,0,0-3.17.82,17.76,17.76,0,0,1-3.82.72,27.48,27.48,0,0,1-3.84-.31c-1-.12-1.6,2.82-.62,2.94Z"/></g><g class="cls-1"><path class="cls-2" d="M1.71,33.49a4.47,4.47,0,0,1,3-1c1.35-.14,2.59-.76,3.93-.88a53.52,53.52,0,0,0,7.73-1.29c1.14-.27,2.17-.76,3.27-1.1a29.6,29.6,0,0,1,3.68-.33c1.33-.22,2.64,0,4-.07.54,0,1-.19,1.57-.28a11.89,11.89,0,0,1,2.23-.08c1.1,0,1.54-2.93.63-2.94A27.07,27.07,0,0,0,28,25.9c-1.35.19-2.71-.14-4.06.05a14.79,14.79,0,0,1-2.3.21,5.32,5.32,0,0,0-1.78.19c-1.25.41-2.42.91-3.71,1.2s-2.89.49-4.32.8-2.62.24-3.9.55a36.82,36.82,0,0,1-3.9.77A4.83,4.83,0,0,0,1.14,31.2c-.65.68-.58,3.51.57,2.29Z"/></g><g class="cls-1"><path class="cls-2" d="M29.06,28.09c1.1.9,2.43,1.38,3.6,2.16.48.32.91.7,1.42,1a10.51,10.51,0,0,0,2.1.75,14.9,14.9,0,0,0,2.18.58,16.8,16.8,0,0,1,2.11.32c.71.19,1.33.61,2,.84a6.46,6.46,0,0,0,2.06.09c1.1,0,1.52-3,.63-2.93a7.07,7.07,0,0,1-2-.06c-.65-.17-1.23-.58-1.87-.8a10.68,10.68,0,0,0-2.12-.36,13.46,13.46,0,0,1-2.15-.52,13.73,13.73,0,0,1-2.11-.7c-.52-.27-.95-.7-1.44-1A36.32,36.32,0,0,1,30,25.34c-.84-.68-1.75,2.12-1,2.75Z"/></g><g class="cls-1"><path class="cls-2" d="M9.34,42.94a1.28,1.28,0,0,0-.76-.27,3.85,3.85,0,0,0-1.07,0,3.69,3.69,0,0,0-1.78.73,1.73,1.73,0,0,0-.46.61,1.5,1.5,0,0,0,.25,1.77,1.38,1.38,0,0,0,.54.27,3.07,3.07,0,0,0,1.28,0A4.47,4.47,0,0,0,9,45.51a1.84,1.84,0,0,0,.46-.42,2.09,2.09,0,0,0,.42-.92,1.35,1.35,0,0,0-.06-.93.94.94,0,0,0-.57-.46,2.09,2.09,0,0,0-.79-.08,4.27,4.27,0,0,0-1.59.42,2.36,2.36,0,0,0-.79.61,3.87,3.87,0,0,0-.37.56c-.11.19.12.32.25.37a1.43,1.43,0,0,0,.41,0,1.8,1.8,0,0,0,.52,0A3.82,3.82,0,0,0,8,44.31a1.27,1.27,0,0,0,.58-.49,3,3,0,0,1,.19-.3l-.11.16a1.61,1.61,0,0,1,.24-.28l-.19.16.08-.06-.27.16c.06,0,.16-.08-.1,0a1.7,1.7,0,0,1-.66.17c-.53.09-.7.12-.5.12H7l-.26,0A.6.6,0,0,1,7,44l-.18-.09A.52.52,0,0,1,7,44.1L6.89,44a1.07,1.07,0,0,1,.12.68V44.5a1.89,1.89,0,0,1-.3.86l.11-.17a1.21,1.21,0,0,1-.21.24l.2-.16-.12.08L7,45.19c-.11.06-.2.06.25-.11-.14.05-.2,0,.29-.09l.34-.07.29,0h.11l.25,0a1.13,1.13,0,0,1-.24-.08l.18.09a.87.87,0,0,1-.34-.29l.09.13A1.17,1.17,0,0,1,8,44v.15a1.53,1.53,0,0,1,.28-.77l-.12.17.12-.13-.2.16.07,0-.27.16,0,0a3,3,0,0,1-.59.23c-.35.07-.46.09-.32.07H7c.13,0-.46,0-.24,0H6.6l.17,0-.26-.05.18.06-.18-.09a.31.31,0,0,1,.11.09.63.63,0,0,0,.3.1,1.71,1.71,0,0,0,.45,0,3.7,3.7,0,0,0,1.13-.25l.33-.14a2.21,2.21,0,0,0,.47-.33l.11-.16a.22.22,0,0,0-.07-.28Z"/></g><g class="cls-1"><path class="cls-2" d="M18.71,48.5l-.2,0a2.5,2.5,0,0,0-1.33,0,3.39,3.39,0,0,0-.71.28,1.64,1.64,0,0,0-.47.36,1,1,0,0,0-.17.37,1.21,1.21,0,0,0,0,.38,1.8,1.8,0,0,0,.32.65,2,2,0,0,0,.41.45,2.1,2.1,0,0,0,.9.4,3,3,0,0,0,.89,0,3.59,3.59,0,0,0,1.27-.42,1.74,1.74,0,0,0,.89-1,2.25,2.25,0,0,0,.07-.58,2,2,0,0,0,0-.42,2.24,2.24,0,0,0-.37-.76,1.55,1.55,0,0,0-.75-.61,2.76,2.76,0,0,0-1.75.1,2.82,2.82,0,0,0-.9.45,1.52,1.52,0,0,0-.33.34.31.31,0,0,0-.11.27.21.21,0,0,0,.09.23.62.62,0,0,0,.31.14,1.38,1.38,0,0,0,.45,0,3.13,3.13,0,0,0,1.13-.24l.33-.15a1.64,1.64,0,0,0,.47-.36l.1-.12-.2.18.07,0-.26.17,0,0-.33.15h0l-.38.12h0l-.39.08h0l-.36,0h.06l-.32,0h.07l-.26-.06.13.05-.18-.1a1.59,1.59,0,0,1,.5.53l-.09-.15a1.77,1.77,0,0,1,.27,1V50a1.25,1.25,0,0,1-.16.6l.11-.19a.83.83,0,0,1-.11.15l.19-.19-.08.07.27-.17-.06,0,.33-.16-.06,0,.38-.13-.06,0,.4-.08h-.07l.37,0h-.07l.32,0-.12,0,.25.06a1.09,1.09,0,0,1-.25-.1l.18.1a1.81,1.81,0,0,1-.61-.59l.1.15a1.18,1.18,0,0,1-.23-.67v.17a.47.47,0,0,1,.06-.2l-.11.19v0l-2.5.67.2.06a2.29,2.29,0,0,0,.94,0,3.55,3.55,0,0,0,1.1-.36l.27-.18a.75.75,0,0,0,.3-.36v-.18a.41.41,0,0,0-.28-.25Z"/></g><g class="cls-1"><path class="cls-2" d="M47.1,39.47a3.21,3.21,0,0,0-.56.66,1.76,1.76,0,0,0-.18.68c0,.31,0,.63,0,.95a1,1,0,0,0,.32.81,2.35,2.35,0,0,0,.66.36,2.38,2.38,0,0,0,1.27,0,4.74,4.74,0,0,0,1.56-.54c.29-.17.68-.44.77-.78a1.75,1.75,0,0,0,0-.79,1.21,1.21,0,0,0-.57-.63A1.45,1.45,0,0,0,50,40a1.88,1.88,0,0,0-1-.12,4.8,4.8,0,0,0-1.12.26,2.13,2.13,0,0,0-.82.42c-.09.09-.23.24-.06.35a1.3,1.3,0,0,0,.73.07h-.23c-.18,0-.23,0-.16,0l.1,0-.17,0a2.08,2.08,0,0,1,.77.51l-.08-.1a1.18,1.18,0,0,1,.16.9l0-.12a.57.57,0,0,1-.14.28l.12-.14-.1.1s-.16.12,0,0l0,0,.18-.1L50,41.92l-.08,0L50,42a3.86,3.86,0,0,1-.41-.2,1.28,1.28,0,0,1-.32-.24l.08.1a1.26,1.26,0,0,1-.15-.89,8.64,8.64,0,0,1,0-.88l0,.13a1.44,1.44,0,0,1,.33-.65l-.12.13.24-.25c.11-.11.22-.24.07-.36a1.34,1.34,0,0,0-.74-.06,4.34,4.34,0,0,0-1.12.26,2.2,2.2,0,0,0-.82.42Z"/></g><g class="cls-1"><path class="cls-2" d="M9.84,41.55l.8-.54.2-.13,0,0,.41-.26.19-.12h0c.05,0,.43-.19,0,0a6.5,6.5,0,0,1,.86-.25,11.51,11.51,0,0,0,1.17-.4l.33-.13c.08,0,.57-.25.17-.08.35-.15.74-.21,1.09-.35a5,5,0,0,0,1.16-.62c.14-.1.36-.33.31-.54s-.36-.29-.54-.31a3,3,0,0,0-2.05.55c.12-.08.12-.08,0,0,.17-.08.18-.09,0,0,.42-.15,0,0-.13,0-.38.12-.76.24-1.13.39A7.61,7.61,0,0,1,12,39c.39-.11-.1,0-.17,0l-.43.12a7.41,7.41,0,0,0-2,.88c-.59.38-1.19.77-1.77,1.17-.14.1-.36.34-.3.54s.36.3.53.32a3.1,3.1,0,0,0,2.05-.55Z"/></g><g class="cls-1"><path class="cls-2" d="M11.54,44.82c.3-.25.76-.43,1.11-.68s.7-.63,1.1-.86a7.51,7.51,0,0,0,1.17-.75s.18-.12.11-.08-.21.06,0,0A4.35,4.35,0,0,0,16.1,42s.2-.1.07,0l.33-.13c.29-.13.59-.28.87-.43s.79-.45,1.14-.59a10.43,10.43,0,0,0,1.58-.76c.2-.13.41-.25.61-.39l.27-.2c.17-.14-.27.15-.63.19.49,0,1.53-.33,1.67-.9s-.93-.51-1.21-.47a4.5,4.5,0,0,0-2.05.83l-.23.17c-.33.24.16-.1-.1.07a4.11,4.11,0,0,1-.58.34c-1.11.48-2.19,1-3.23,1.52,0,0-.25.1-.25.14.27-.09.32-.11.16-.06l-.28.09a4.4,4.4,0,0,0-1,.45c-.44.26-.81.56-1.21.78a13.77,13.77,0,0,0-1.44,1.07c-.39.29-.91.48-1.31.82s-.35.77.23.86a2.94,2.94,0,0,0,2-.55Z"/></g><g class="cls-1"><path class="cls-2" d="M14.33,45.7c1.65-.94,3.35-1.7,5.06-2.52a23.32,23.32,0,0,1,4.77-2.09C26,40.65,27.74,40,29.48,39.4a32.31,32.31,0,0,0,4.82-1.93c.45-.25.8-.8.25-1.14a2.38,2.38,0,0,0-2,.27c.25-.14.15-.07-.07,0a4.32,4.32,0,0,0-.63.24c-.37.17-.73.3-1.11.45-.82.31-1.59.67-2.42,1-1.89.7-3.85,1.11-5.77,1.69a40.44,40.44,0,0,0-4.66,2.19c-1.82.81-3.58,1.7-5.32,2.68-.45.26-.8.8-.25,1.14a2.33,2.33,0,0,0,2.06-.27Z"/></g><g class="cls-1"><path class="cls-2" d="M16.1,47.33a23.37,23.37,0,0,1,5.36-3.06,13,13,0,0,1,2.65-1.08c1.15-.24,2.32-.41,3.46-.7,2-.51,4-.87,6-1.4,1-.28,2.1-.46,3.12-.84l1.53-.59a5.56,5.56,0,0,1,1.28-.52c1.71,0,2.18-2.32.22-2.27a9.48,9.48,0,0,0-3,1,23.9,23.9,0,0,1-3.32,1c-2.25.51-4.49,1.06-6.75,1.58-1.13.26-2.29.42-3.42.7a18.37,18.37,0,0,0-3.07,1.27,25.48,25.48,0,0,0-5.95,3.46c-1.51,1.26.78,2.45,2,1.46Z"/></g><g class="cls-1"><path class="cls-2" d="M18.3,49.29c3.93-.77,7.46-3,11.2-4.33,1.9-.68,3.81-1.3,5.73-1.91a35,35,0,0,1,3.47-1c.55-.12,1.1-.13,1.64-.24s1.13-.37,1.71-.5c.4-.08,1.42-.5,1.27-1.06s-1.26-.37-1.63-.29a65.76,65.76,0,0,0-6.61,1.64c-2,.63-3.95,1.31-5.93,1.95a46.41,46.41,0,0,0-5.42,2.23A25.88,25.88,0,0,1,20.91,47l-1.28.41c-.14,0-1.34.46-.91.37-.48.1-1.57.33-1.66.95s.85.64,1.24.56Z"/></g><g class="cls-1"><path class="cls-2" d="M7.35,44.35a8.77,8.77,0,0,0,2,1.33,24.16,24.16,0,0,1,2.22,1.38c.34.24.69.45,1,.67s.41.26.63.36.32.08.47.15a1.64,1.64,0,0,1,.36.29c.16.11.34.19.51.3a3.46,3.46,0,0,0,.45.29c.16.08.31.09.42.19.44.4,1.42.14,1.89-.06.26-.11,1.27-.6.82-1-.25-.22-.57-.26-.82-.45s-.34-.19-.51-.3-.27-.25-.43-.35c-.32-.21-.69-.25-1-.45s-.74-.45-1.1-.71a22,22,0,0,0-2.18-1.35,8.81,8.81,0,0,1-2-1.36c-.63-.61-3.34.45-2.71,1.07Z"/></g><g class="cls-1"><path class="cls-2" d="M36.61,36a15.88,15.88,0,0,1,1.89,1.15l.86.59a9.61,9.61,0,0,0,.83.59,7.55,7.55,0,0,1,.74.45c.31.25.65.42,1,.64a4.56,4.56,0,0,1,.65.57,6.75,6.75,0,0,0,1,.73,2.14,2.14,0,0,0,2.06-.24c.43-.3.84-.9.23-1.25a3.41,3.41,0,0,1-.69-.54,8.74,8.74,0,0,0-.88-.73c-.25-.18-.57-.33-.75-.47a9,9,0,0,0-1-.65,8.36,8.36,0,0,1-.79-.56c-.29-.19-.58-.38-.86-.58a15.41,15.41,0,0,0-1.93-1.19,2.17,2.17,0,0,0-2.06.24c-.4.28-.87.92-.23,1.25Z"/></g><g class="cls-3"><path class="cls-4" d="M34.66,3.18c.68-.54,1.15-1.36,1.84-1.84-.39.27-.36.16.17.33.2.07.4.11.61.17.4.11.74.32,1.14.42s1,.07,1.51.21,1,.23,1.45.37a16,16,0,0,1,3,1.11c.81.42,1.72.72,2.54,1.14s1.55,1.13,2.39,1.53,1.84.57,2.72,1a9.89,9.89,0,0,0,1.5.53,8.65,8.65,0,0,1,1.14.28,2.26,2.26,0,0,0,1.9-.05c.18-.07,1.34-.71.81-1a31.76,31.76,0,0,0-3.16-1.09,16.47,16.47,0,0,1-3.14-1.36,29.34,29.34,0,0,0-3.3-1.69A11.43,11.43,0,0,0,45.28,2C43,1.33,40.72.87,38.48.18A4.83,4.83,0,0,0,34.8.64c-1,.57-1.53,1.52-2.42,2.23-.47.37-.32.75.23.86a2.85,2.85,0,0,0,2-.55Z"/></g><g id="vxR0Zp.tif"><path d="M33.14,4.67c.19,0,.25-.23.3-.36C33.8,3.22,34.86,3,35.67,2.48c.23-.14.44,0,.65,0s.22.05.29,0-.06-.14-.12-.2-.08-.22,0-.35.31-.36.55-.27A7.27,7.27,0,0,0,38.7,2c.12,0,.29,0,.34.1.38.56.92.29,1.39.26a.76.76,0,0,1,.7.3c.12.14.26.24.41.06s0-.3-.15-.39a3.8,3.8,0,0,0-1.66-.7A9.26,9.26,0,0,1,36.59.82c-.12-.06-.22,0-.33,0A.24.24,0,0,1,35.9.64c0-.24.18-.14.29-.14a1.08,1.08,0,0,0,.48-.09,1.86,1.86,0,0,1,1.48,0A4.8,4.8,0,0,0,39.51.6a1.5,1.5,0,0,1,1.39.56c.08.12.18.17.3.06a.37.37,0,0,1,.49,0,7.71,7.71,0,0,0,2.09,1c.79.28,1.39.9,2.18,1.1a5.23,5.23,0,0,1,1.62.45c.19.12.56-.12.64.33,0,.18.27,0,.4.08.35.2.71.38,1.05.59a4.49,4.49,0,0,0,.86.33,11.86,11.86,0,0,1,1.41.51,6.53,6.53,0,0,0,2.58.87,3.55,3.55,0,0,1,2.72,1.38c.15.19.44.27.43.59,0,.12.14.13.24.14.33,0,.32.12.19.42-.32.72-1,.51-1.47.51a3.64,3.64,0,0,0-.74.07,4.31,4.31,0,0,1-1.52,0,9.76,9.76,0,0,0-1.62-.06.42.42,0,0,1-.25-.05c-.44-.33-.8-.15-1.22.09a3.21,3.21,0,0,0-1.44,1.84,2.84,2.84,0,0,1-.28.51,1.16,1.16,0,0,0-.07,1.07.74.74,0,0,1-.33,1,1.8,1.8,0,0,0-.73,1.46,15.64,15.64,0,0,1-.5,2.88c0,.09-.11.17-.1.25.12.68-.34,1.21-.48,1.82A19.12,19.12,0,0,0,46.81,23a8.69,8.69,0,0,1-.51,1.78c-.18.63-.08.81.57.8.18,0,.21.1.21.21s-.12.35-.33.33-.41-.06-.62-.09a.35.35,0,0,0-.47.34c0,.19-.12.35-.13.48,0,.46-.34.76-.47,1.15a17.06,17.06,0,0,1-1.15,2.89,5.3,5.3,0,0,0-.35,1.56.24.24,0,0,0,.22.33,1.94,1.94,0,0,1,.91.44,1.44,1.44,0,0,0,.82.33c.38,0,.47.38.74.54s.55.34.38.75c0,.1.08.17.16.25a2.8,2.8,0,0,1,.93,2.39c0,.39.14.79,0,1.19-.06.13,0,.29.27.22a.9.9,0,0,1,.56.06c.09,0,.21.09.25.06.43-.35.66,0,1,.23s.88.54,1,1.11a1.11,1.11,0,0,1,.07.56,4.24,4.24,0,0,1-1.24,2.37,5.82,5.82,0,0,1-.68.52,1.57,1.57,0,0,1-1.1.18A4.47,4.47,0,0,1,46,43.33a2.27,2.27,0,0,1-.79-1.14.28.28,0,0,1,.12-.32c.12-.08.13-.18,0-.31a.27.27,0,0,1-.06-.16c.3-.7.25-1.52.84-2.12a.59.59,0,0,0,0-.88c-.15-.16-.26-.35-.4-.53-.2.13-.12.34-.19.49-.26.53-.24,1.19-.82,1.57a14.14,14.14,0,0,1-1.45.74c-.25.12-.47.22-.57.52a1.06,1.06,0,0,1-.65.55c-.52.22-1,.48-1.56.68a3,3,0,0,1-.85.06,5.64,5.64,0,0,1-1.63.24.18.18,0,0,0-.16,0c-.57.59-1.4.53-2.08.86a.39.39,0,0,1-.35,0,1.12,1.12,0,0,0-1.21.17,1,1,0,0,1-.67.2.44.44,0,0,0-.3.07,1.71,1.71,0,0,1-1.19.41.16.16,0,0,0-.12,0c-.55.71-1.5.63-2.17,1.11-.25.18-.57-.16-.87,0-.06,0-.2,0-.21,0-.16.67-.83.35-1.21.63a4,4,0,0,1-1.4.51,2.13,2.13,0,0,0-1,.48c-.28.28-.71.25-1.07.36a7.34,7.34,0,0,1-2.6.21c-.07,0-.17,0-.21,0-.44.47-1,.34-1.55.35a.5.5,0,0,0-.52.34c-.1.28.13.32.33.41a1.45,1.45,0,0,1,.43,1.85A3.44,3.44,0,0,1,19,52a.47.47,0,0,1-.27.14,8.32,8.32,0,0,1-2.44.08c-.07,0-.17,0-.2-.09-.26-.44-.82-.72-.77-1.33a.44.44,0,0,0-.07-.26c-.46-.64-.1-1.23.14-1.81.1-.25.11-.32-.17-.32a1.58,1.58,0,0,0-.48.06.94.94,0,0,1-1.28-.39c-.44-.78-1.36-1-1.82-1.78-.06-.08-.17,0-.26-.07a1.21,1.21,0,0,1-1.12-1c-.06-.25-.15-.3-.37-.21a1.33,1.33,0,0,0-.87.67,1.71,1.71,0,0,1-1.5.83,1.52,1.52,0,0,0-.81.17c-.27.18-.43-.11-.63-.19a1.22,1.22,0,0,1-.84-.71,1.05,1.05,0,0,0-.25-.37c-.24-.24-.41-.48-.19-.82a.17.17,0,0,0,0-.17c-.43-.79.22-1.28.6-1.72.21-.24.5-.49.75-.73a1.08,1.08,0,0,1,1-.38c.33.06.52-.3.81-.43s.6-.44,1-.27c.08,0,.21-.08.32-.13A12,12,0,0,1,11.39,40a5.61,5.61,0,0,0,1.79-.74c.32-.2.76-.22,1.1-.45a2.21,2.21,0,0,1,1.5-.47c.08,0,.15,0,.19-.07s0-.14-.07-.19c-.18-.24-.43-.19-.66-.16a5.81,5.81,0,0,1-.71.11c-.3,0-.62,0-.65.41,0,0-.06.09-.11.13a2,2,0,0,1-1.36,0c-.79-.52-1.7-.84-2.47-1.41-.07-.06-.2,0-.3-.06-.34-.12-.75-.07-1-.43a.43.43,0,0,0-.28-.13,11.2,11.2,0,0,1-2.85-.75c-.35-.14-.71-.25-1-.4S4,35,3.59,35.11a.37.37,0,0,1-.44-.38c0-.29-.17-.26-.33-.18a1,1,0,0,1-1.14-.22c-.16-.11-.27-.26-.49-.28a.39.39,0,0,1-.31-.51.41.41,0,0,1,.59-.25,4.88,4.88,0,0,1,.66.38c.08,0,.16.11.24,0a.2.2,0,0,0-.05-.28c-.14-.11-.3-.19-.45-.3s-.34-.26-.15-.51a.24.24,0,0,0,0-.29c0-.08-.11-.17-.1-.24a6.92,6.92,0,0,0-.22-1.58,15.29,15.29,0,0,1,.11-2.35c0-.58,0-1.15.05-1.73,0-.07,0-.17,0-.21-.44-.56-.11-1.16-.1-1.74,0-.3-.19-.57-.18-.9a6.14,6.14,0,0,1,.05-1.42.39.39,0,0,0,0-.26,1.11,1.11,0,0,1,0-1,1.22,1.22,0,0,0-.07-.9,2.86,2.86,0,0,1-.26-1.39.57.57,0,0,0-.07-.34A1.82,1.82,0,0,1,.9,16.66a.71.71,0,0,1,.43-.4,13.26,13.26,0,0,1,2.78-.74A11.44,11.44,0,0,0,5.72,15c.81-.14,1.53-.6,2.33-.75A6.65,6.65,0,0,1,9.73,14a1.63,1.63,0,0,0,.92-.37,3.8,3.8,0,0,1,1.26-.49c.41-.12.81-.26,1.22-.39.94-.31,1.84-.73,2.79-1a7.5,7.5,0,0,0,1.4-.41.28.28,0,0,1,.18,0,5,5,0,0,0,2.8-.8c.32-.14.68-.22,1-.33a5.38,5.38,0,0,1,2.11-.56,3,3,0,0,0,.86-.19c1-.2,2-.6,3-.84C28,8.39,28.77,8.1,29.57,8c.4-.06.75-.35,1.16-.43.16,0,.32-.19.46-.17.64.13.75-.29.82-.75a1.87,1.87,0,0,1,.27-.57c.14-.23.47-.43,0-.69-.08-.05,0-.2,0-.3a3.78,3.78,0,0,0,.09-1.38,1.7,1.7,0,0,1,.3-.91A3.47,3.47,0,0,1,34,1.3s.09-.07.12-.06c.58.24.84-.18,1.14-.54.09-.1.22-.22.35-.13s0,.19-.07.28-.05.18,0,.19c.5.06.21.17.06.37-.37.46-1,.51-1.41.8A2.75,2.75,0,0,0,33.14,4.67ZM6.62,32.76a1.2,1.2,0,0,0-.65.11c-.16.08-.34.16-.31.38s.14.22.28.2.49,0,.52-.29a1,1,0,0,1,.15-.41l.49,0c.12,0,.21,0,.2-.16s-.08-.25-.23-.19S6.68,32.54,6.62,32.76Zm24.17,0a.9.9,0,0,1,.66.2c.37.27.54.19.64-.24a2.25,2.25,0,0,1,0-.22c.21-1.05,0-1.31-1-1.42-.1,0-.16,0-.13-.14s-.18-.34-.36-.41-.24,0-.28.08.1.29.23.39.08.21-.05.31c-.42.35-.43.54-.07.95a1.14,1.14,0,0,1,.35.51c-.21.07-.42-.19-.6,0a.58.58,0,0,0-.09.64c.09.22.34.23.54.17a3.28,3.28,0,0,0,.57-.28C31,33.13,30.81,33,30.79,32.75ZM30.2,13.1h0c0,.35,0,.69,0,1s.14.43.42.38A3.15,3.15,0,0,0,32,14.14c.25-.19.42-.18.5.17,0,.2.66.57.82.5s.22-.38.28-.6-.07-.72.21-1.05a3,3,0,0,1,0,1.39c-.07.26.06.58.28.58.57,0,1.06.33,1.63.29.33,0,.48-.17.46-.46a3.38,3.38,0,0,1,.15-1c.11-.45,0-.89,0-1.34.18-.88.3-1.77.44-2.65,0-.23,0-.4-.28-.41a3.34,3.34,0,0,1-1.2-.36c-.18-.09-.36-.08-.41.1-.14.56-.66,1-.66,1.58a.61.61,0,0,1-.27.57.22.22,0,0,1-.09-.29c.23-.65.12-1.34.29-2,.09-.33,0-.38-.32-.3a1.05,1.05,0,0,1-.74,0c-.16-.07-.43-.16-.49,0s-.3.44-.08.7c.09.1.17.23.09.36s-.22,0-.33,0-.17-.13-.21-.27A1.3,1.3,0,0,1,32.14,9c.11-.43-.09-.69-.52-.66s-.56.09-.84.11-.35.18-.35.45c0,.62-.21,1.22-.17,1.85,0,.07,0,.16-.11.18s-.12-.1-.14-.18a5.24,5.24,0,0,1-.09-1.37c0-.22.06-.46-.2-.53s-.62,0-.66.31c-.08.51-.32,1-.36,1.5-.07.77,0,1.55-.1,2.33a3.55,3.55,0,0,1-.15,1.17.9.9,0,0,1-.08-.51c0-.61.05-1.22.07-1.83a10,10,0,0,1,.06-2.12c.09-.36,0-.63-.45-.54a4.17,4.17,0,0,1-.86.08.38.38,0,0,0-.22.14.77.77,0,0,1-.63.3c-.43,0-.52.27-.45.63a1,1,0,0,1,0,.48A10.71,10.71,0,0,0,25.77,13a9.28,9.28,0,0,1-.14,1.74,8.44,8.44,0,0,1-.08-2.13c0-.56-.05-1.13-.1-1.69-.08-.84-.13-.84-.95-.61l-.13,0c-.61.05-1.24.07-1.18.94-.15,0-.2-.09-.2-.16,0-.5-.28-.52-.67-.38a7.54,7.54,0,0,1-.82.2c-.13,0-.23.07-.13.19a1.73,1.73,0,0,1,.18,1.37,28.11,28.11,0,0,0,0,3.18c0,.12.1.36-.14.33s-.12-.22-.08-.34a6.35,6.35,0,0,0,0-1.63,14.14,14.14,0,0,0-.28-2.94,3.8,3.8,0,0,1-1.16.57,6.48,6.48,0,0,1-1.22.41.49.49,0,0,0-.45.64,1,1,0,0,1,0,.74A1.62,1.62,0,0,0,18,14.64c0,.2.07.37.08.57,0,.72.11,1.43.17,2.15,0,.28.12.4.43.29s.46-.13.68-.22a.27.27,0,0,1,.38.13c0,.19-.14.19-.27.22l-.39.09a.81.81,0,0,0-.61.89c0,.59.31,1.12.3,1.72,0,.15.14.32.3.24.51-.25,1.12-.11,1.6-.44.07,0,.15-.07.21,0,.4.3.4,0,.5-.28a4,4,0,0,0,0-1.69c0-.12-.07-.32.12-.33s.14.18.14.32c0,.43,0,.86,0,1.29s.09.5.43.35a1,1,0,0,1,.53,0,.51.51,0,0,0,.62-.56c-.05-.39,0-.77,0-1.16a1.3,1.3,0,0,1,.2-1c.09.73-.05,1.35,0,2,0,.4.22.47.58.49.74.05,1.34-.47,2.07-.44,0,0,.05,0,.07-.06.15-.24.31-.21.56-.11a1.18,1.18,0,0,0,1.52-1.19,5.4,5.4,0,0,1-.05-1.39,3.09,3.09,0,0,0,.12-.74c0-.29-.16-.44-.44-.34-.58.2-1.2.22-1.79.4-.13,0-.3.06-.32.2a2.21,2.21,0,0,0-.09,1c.2.6,0,1.19.06,1.78,0,.06,0,.15-.14.13a6.81,6.81,0,0,1-.12-1.5c0-.51,0-1,.07-1.58a6.57,6.57,0,0,1-1.24.5c-.41.06-.72.14-.85.58,0,.1-.2.19-.22.07-.11-.62-.45-.32-.75-.18,0-.4,0-.41.26-.5a.52.52,0,0,0,.41-.42,6.71,6.71,0,0,0,.05-1.34c0-.57-.09-1.14-.05-1.7,0-.32.2-.61-.07-.92-.06-.07-.05-.29.23-.41-.16.42.38.6.29.82-.19.43.39,1-.26,1.31a.2.2,0,0,0,0,.17,1.09,1.09,0,0,1,0,.57c0,.43,0,.86,0,1.29,0,.23.06.48.4.37A5.21,5.21,0,0,1,25,15.7a.66.66,0,0,0,.58-.38c0-.08.07-.21.23-.11.51.34,1-.05,1.44-.17a3,3,0,0,1,1.58-.28,2.52,2.52,0,0,0,.95-.14c.09,0,.18-.12.15-.2-.13-.37.2-.69.09-1.05C30,13.23,30.07,13.15,30.2,13.1ZM8.89,43.57c.22-.15.44-.14.58-.32a.25.25,0,0,1,.36,0,.35.35,0,0,0,.48-.07.53.53,0,0,1,.42-.13,2.81,2.81,0,0,0,1.69-.53,5.33,5.33,0,0,1,1.4-.6,3.08,3.08,0,0,1,2-.24.33.33,0,0,0,.37-.1,1,1,0,0,1,.47-.25,17.29,17.29,0,0,0,2-.59,4,4,0,0,1,.83-.32,9.38,9.38,0,0,0,2-.77c.57-.24,1.17-.39,1.74-.64a1.9,1.9,0,0,1,.73-.17A1.23,1.23,0,0,0,25,38.38c.09-.1.38-.36.58,0,.08.13.57.22.58.09,0-.44.38-.38.63-.39.48,0,.88-.38,1.37-.32a1.48,1.48,0,0,0,1.22-.37c.09-.08.18-.14.27,0s.41.16.35.45-.17.13-.28.18c-.66.3-1.4.33-2.08.63-.34.15-.7.29-1,.46s-.47-.1-.73,0a15.48,15.48,0,0,1-3.22.8.46.46,0,0,0-.36.24.71.71,0,0,1-.55.31,6.47,6.47,0,0,0-2,.56,5.09,5.09,0,0,1-1.13.47,4.58,4.58,0,0,0-1.3.46,4.65,4.65,0,0,1-1.09.36,4.32,4.32,0,0,0-1.26.22c-.53.29-1.13.1-1.66.35a1.62,1.62,0,0,0-.62.3,3.66,3.66,0,0,1-1.86.85.89.89,0,0,0-.52.3c-.13.19.18.25.27.4s.32.19.5.27c.88.4,1.63-.16,2.43-.34A3.42,3.42,0,0,0,15.07,44s.06,0,.09,0c.4,0,.85.16,1.11-.32a.24.24,0,0,1,.17,0c.23.1.4,0,.58-.13a3.68,3.68,0,0,1,1.64-.46.94.94,0,0,0,.65-.17.94.94,0,0,1,.47-.18c.48-.11,1,0,1.43-.28a1.78,1.78,0,0,1,1.64-.39c.11,0,.19,0,.27-.11.69-.49,1.61-.48,2.26-1a.32.32,0,0,1,.22,0,3.2,3.2,0,0,0,1.92-.61,1.16,1.16,0,0,1,1.13-.15c.1,0,.23.1.29,0,.26-.44.78-.46,1.16-.7a12.29,12.29,0,0,1,1.65-.86,12.05,12.05,0,0,0,2.22-1A4.17,4.17,0,0,1,35.22,37a1.3,1.3,0,0,0,.64-.32.43.43,0,0,1,.6-.11c.11.08.26.17.21.32a.79.79,0,0,1-.5.54,17.31,17.31,0,0,0-2.4,1c-.3.14-.54.4-.84.45a10,10,0,0,0-1.85.84c-.52.19-1,.51-1.51.66a11.59,11.59,0,0,1-2.46.72.32.32,0,0,0-.21.08,3.15,3.15,0,0,1-1.56.57.64.64,0,0,0-.29.13,6.29,6.29,0,0,1-2.34.78,13.16,13.16,0,0,0-1.39.43c-.44.18-1.05-.12-1.34.47,0,0-.14,0-.21,0a.4.4,0,0,0-.4.12.34.34,0,0,1-.45.08c-.11,0-.31-.09-.34,0-.22.33-.6.24-.89.31s-.68.47-1,.44c-.87-.11-1.5.47-2.26.62a8.5,8.5,0,0,1-1.64.46.39.39,0,0,0-.37.22c-.05.2.19.14.28.22s.73.27.5.8c-.07.15.11.18.22.23s.22.2.39.06.57-.42.87-.63c.11-.08.22-.23.39-.1s.33,0,.48-.07.18-.2.33-.22c.64-.06,1.19-.42,1.84-.48.21,0,.37-.1.55.1s.39.32.4-.12a.2.2,0,0,1,.19-.22c.64,0,1.19-.49,1.86-.39a.59.59,0,0,0,.34-.08A8.73,8.73,0,0,1,23.56,44a6.24,6.24,0,0,0,.82-.16c.79-.27,1.6-.47,2.4-.7a1.27,1.27,0,0,1,.82,0c.24.09.34-.3.58-.35a9.67,9.67,0,0,0,1.7-.66c.41-.18.88-.32,1.3-.52a4.06,4.06,0,0,1,2.18-.83.33.33,0,0,0,.23-.11,2.25,2.25,0,0,1,1.11-.44,2.25,2.25,0,0,0,1.3-.71c.41-.47,1.1-.57,1.58-1,0,0,.09,0,.13,0a3.11,3.11,0,0,0,1.18-.19,2.7,2.7,0,0,0,1.35-.51c.07-.06.22,0,.21-.19s-.11-.17-.21-.2A8,8,0,0,1,39,36.7c-.37-.21-.75-.49-1.24-.19-.28.17-.57,0-.62-.37s-.08-.5-.09-.75-.18-.32-.36-.22a9.43,9.43,0,0,1-2.61.6A8.85,8.85,0,0,1,33,36a8,8,0,0,0-.85,0,7.42,7.42,0,0,1-2,.35.25.25,0,0,0-.21.06c-.22.24-.41.37-.57-.06,0-.07-.13,0-.21,0a3.32,3.32,0,0,0-1.38.46c-.29.17-.5.63-.92.2,0,0-.06,0-.08,0-.72.29-1.51.32-2.25.58a7.65,7.65,0,0,1-1.78.26,9.33,9.33,0,0,0-2.1.3,4.23,4.23,0,0,1-1.32.2,1.53,1.53,0,0,0-.77.21,3.88,3.88,0,0,1-.69.26c-.25.1-.57-.08-.7.07-.36.42-.86.38-1.31.46a10.93,10.93,0,0,0-3,1.14c-.33.18-.66.44-1.09.21-.12-.06-.3-.07-.34.1a.49.49,0,0,1-.5.38,18.1,18.1,0,0,0-2.37.75.79.79,0,0,0-.49.41c-.07.14.23.16.3.27C8.59,42.91,9.08,43,8.89,43.57ZM42.8,10.94a4.35,4.35,0,0,0,1.05.36c.39.13.73.41,1.18.24a.55.55,0,0,1,.36,0,14.62,14.62,0,0,0,1.85.56.78.78,0,0,0,1-.51,1.18,1.18,0,0,1,.27-.4c.34-.39.78-.75.54-1.38,0-.13.07-.25.16-.3.55-.3.81-1,1.52-1.08.1,0,.31,0,.31-.18s-.19-.21-.28-.31c-.25-.28-.64-.31-.88-.54a3.35,3.35,0,0,0-2.15-1.11A.84.84,0,0,1,47,5.52a.51.51,0,0,0-.49-.5c-.18,0-.34-.08-.52-.09s-.49-.33-.77-.34c-.52,0-1-.36-1.5-.31a.31.31,0,0,1-.31-.23c-.08-.24-.26-.21-.38-.09-.28.29-.53.13-.8,0s-.81-.24-1.07-.61a.14.14,0,0,0-.2,0c-.24.19-.43,0-.66-.05a12.09,12.09,0,0,0-1.47-.35,4.86,4.86,0,0,0-1.39-.31c-.28,0-.85,0-.92.3-.12.49-.48.47-.83.49-.19,0-.4,0-.5.15-.37.49-.95.81-1.14,1.45-.07.27-.34.46-.34.8a1.73,1.73,0,0,1-.68,1.46c-.2.15,0,.32.14.37a5.65,5.65,0,0,0,1.88.59.55.55,0,0,1,.22,0c.4.17.7.45,1.25.36a2.5,2.5,0,0,1,1.3.4,2,2,0,0,0,.53.31,9,9,0,0,1,2,.75A9.74,9.74,0,0,0,42.8,10.94Zm-31.55,7c-.23-.08-.27-.16-.28-.25a16.1,16.1,0,0,1-.11-2,9.27,9.27,0,0,0-.13-1c0-.2-.18-.17-.34-.14a7.39,7.39,0,0,1-1.22.27,4.87,4.87,0,0,0-1.59.34c-.44.18-.82.46-1.25.64a27.26,27.26,0,0,1-3,.61,1.52,1.52,0,0,0-.79.72c-.11.16.3.2.43.35a.86.86,0,0,1,.15.22.34.34,0,0,0,.29.18c.32.05.65.09,1,.17s.3,0,.29-.25A4.44,4.44,0,0,1,4.76,17c0-.18.14-.31.34-.28a.31.31,0,0,1,.29.34,3.82,3.82,0,0,1-.08.75.67.67,0,0,0,.27.78c.57.41,1.26.55,1.84.93a.32.32,0,0,0,.3,0c.11-.08.06-.22,0-.33a1.27,1.27,0,0,1-.09-.43q-.18-1.28-.39-2.55c0-.16-.22-.37,0-.45s.39.09.45.33a.88.88,0,0,1,0,.39,12.38,12.38,0,0,0,.25,3c0,.17,0,.36.23.39a2.58,2.58,0,0,1,1.07.63A1.48,1.48,0,0,0,11,20.32c.26-.26.17-.56.13-.85s-.14-.7-.21-1c0-.09,0-.19.11-.21s.2.06.18.15c-.12.48.29.85.22,1.34a.34.34,0,0,0,.55.35,9.56,9.56,0,0,1,1.56-.53c.57-.25.67-.38.54-1s-.3-1.52-.44-2.28a2.33,2.33,0,0,1,0-.53c0-.13,0-.3.21-.27a.19.19,0,0,1,.13.31c-.25.39,0,.73.07,1.09s.08.44.13.65a4.93,4.93,0,0,0,.24,1.43c.12.23.32.46.51.26a1.35,1.35,0,0,1,.51-.3c.25-.11.48-.23.33-.6,0-.1-.13-.28.05-.39.19.09.18.26.22.42.09.4.37.48.66.2a1,1,0,0,1,.39-.19c.9-.33,1-.09.89-1.23,0-.4-.2-.75-.19-1.15,0-1.09-.28-2.16-.27-3.26,0-.21-.1-.33-.33-.32a3,3,0,0,0-.6.09,11.34,11.34,0,0,1-1.81.61c-.92,0-1.67.7-2.6.69-.13,0-.3.14-.38.29a.45.45,0,0,1-.33.28c-.27,0-.32.25-.27.48C11.42,15.82,11,16.84,11.25,17.91ZM40.8,37.84c-.14.26,0,.59-.29.72a5.89,5.89,0,0,1-1.46.68,7.4,7.4,0,0,0-2.55,1,2.43,2.43,0,0,1-.91.52c-.82.13-1.55.57-2.38.68a.31.31,0,0,0-.18.11c-.6.76-1.54.81-2.36,1.08a2.74,2.74,0,0,0-.59.2,3.15,3.15,0,0,1-1,.48,10.32,10.32,0,0,0-1.89.5,6.17,6.17,0,0,1-1.84.48.74.74,0,0,0-.49.19,1.47,1.47,0,0,1-1.07.36,1,1,0,0,0-.56.14,1.08,1.08,0,0,1-.71.21,1.57,1.57,0,0,0-.48.09c-.81.26-1.65.41-2.44.68-.58.2-1.17.36-1.73.56a6,6,0,0,1-2.13.34c-.22,0-.72.32-.67.48s.38.2.6.22c.73.07,1.45-.15,2.17-.1s1.48-.26,2.25-.17a1.1,1.1,0,0,0,.75-.21.94.94,0,0,1,1.06-.1,1.32,1.32,0,0,0,1,0c1-.35,1.93-.81,2.95-1.08.28-.07.72-.06.8-.17a1.67,1.67,0,0,1,.8-.48,2.6,2.6,0,0,1,1.3-.52,1.85,1.85,0,0,0,.71-.08c.38-.13.86-.08,1.15-.39a2.31,2.31,0,0,1,1.18-.72c1.15-.25,2.17-.87,3.32-1.12.26-.06.52,0,.78-.12A12.3,12.3,0,0,1,39,41.69a10.26,10.26,0,0,0,1.93-.6,12.51,12.51,0,0,1,1.27-.39c.08,0,.17,0,.2-.07.19-.4.36-.81.54-1.22a.11.11,0,0,0-.06-.15c-.39-.21-.61-.63-1-.81A2.64,2.64,0,0,1,40.8,37.84ZM45.21,37a1.62,1.62,0,0,0-.12-.57,13,13,0,0,0-.71-1.27.74.74,0,0,0-.66-.52.43.43,0,0,1-.42-.56c0-.09.07-.2-.11-.23a3.69,3.69,0,0,0-2.43.11,8.72,8.72,0,0,1-2.29,1,.16.16,0,0,0-.13.16.24.24,0,0,0,.16.2c.84.44,1.64.95,2.46,1.41a11.34,11.34,0,0,0,2.6,1.48.49.49,0,0,1,.29.26.35.35,0,0,0,.67,0,1.26,1.26,0,0,1,.25-.41A2,2,0,0,0,45.21,37ZM42.09,19.58c0,.36.35.45.35.73a4,4,0,0,1-.1.84c0,.22-.16.41-.19.64-.06.39.08.37.36.26a3.17,3.17,0,0,1,.8-.28c.51-.05.69-.24.71-.74a3.09,3.09,0,0,1,.12-.75c.1-.28.24-.3.38,0a3.5,3.5,0,0,0,.2-1.78,1.05,1.05,0,0,0-.14.5,2.78,2.78,0,0,1,0,.58c0,.09-.06.18-.17.15s-.08-.11-.07-.19c0-.32.05-.65.08-1a1.08,1.08,0,0,0-.94-.87.36.36,0,0,0-.32.27,6,6,0,0,0-.37,1.25c0,.12,0,.28-.16.33-.18-.17,0-.43-.16-.65,0,.09-.08.15-.1.21s0,.21-.15.2-.09-.16-.1-.25a2.19,2.19,0,0,1,0-.36A12.81,12.81,0,0,0,42.24,17a1.29,1.29,0,0,1-.51,0,.62.62,0,0,0-.82.57c-.31,1.49-.48,3-.69,4.51,0,.36.1.38.39.28a5.78,5.78,0,0,1,.81-.24c.14,0,.24-.09.24-.23,0-.66.36-1.27.2-1.94A.39.39,0,0,1,42.09,19.58Zm-5.65-4.9v.54c0,.31.08.48.46.49a4.41,4.41,0,0,1,.88-.07c.47.11.67-.23.86-.51a2,2,0,0,0,.23-.81c.18-1.17.5-2.32.61-3.51,0-.15,0-.24-.17-.26a1.09,1.09,0,0,1-.8-.64c-.16-.3-1-.33-1.15-.05a3.32,3.32,0,0,0-.38.94A26.83,26.83,0,0,0,36.44,14.68Zm1.12,7.85c0,.15,0,.43.27.37.48-.09,1-.12,1.45-.17a.55.55,0,0,0,.45-.38c.21-.46.07-1,.2-1.41.31-1.17.3-2.39.54-3.57.06-.27-.06-.41-.35-.44a7.47,7.47,0,0,1-.92-.18c-.35-.11-.5,0-.61.37a18.13,18.13,0,0,0-.53,2.43C37.9,20.54,37.73,21.52,37.56,22.53Zm-30,3.4c.26.12.19.37.21.58.06.53.5.35.77.38s.16-.28.14-.43c-.11-.76-.26-1.52-.38-2.29-.08-.55-.14-1.11-.22-1.67,0-.09,0-.25-.15-.24s-.12.17-.13.28.12.36.07.57a7.62,7.62,0,0,0-.11,1.51c0,.33.1.71-.18,1.05a2.81,2.81,0,0,1-.09-1.31,5.57,5.57,0,0,0,0-1.91c0-.14,0-.35-.3-.28s-.68.12-1,.2a.87.87,0,0,0-.69.95,11.16,11.16,0,0,0,.06,1.42c.21,1-.11,1.12,1,1.47a1.73,1.73,0,0,1,.37.16c.33.17.53.13.53-.29C7.49,26,7.49,26,7.57,25.93ZM34.8,17.61c-.17-.13-.24,0-.33.1a3.56,3.56,0,0,0-.76,1.74c-.1.7-.28,1.39-.37,2.1,0,.28,0,.35.2.48.35.27.8.22,1.16.4s.44,0,.47-.27A19.65,19.65,0,0,1,35.52,20a2.86,2.86,0,0,0,.22-1,2.74,2.74,0,0,1,.09-1.24c.08-.22,0-.31-.25-.33A4.88,4.88,0,0,0,34.8,17.61ZM14.62,20.76h0c0,.15,0,.3,0,.45,0,.44.08.53.5.43a2.24,2.24,0,0,1,.58-.06c.49,0,.63-.14.59-.64a5.94,5.94,0,0,1-.17-.92c0-.13-.07-.34.09-.35s.19.22.15.34c-.13.38.12.7.13,1,0,.17.15.23.33.22a6.43,6.43,0,0,0,1.37-.36c.22-.07.26-.19.22-.4-.1-.53-.19-1.06-.26-1.59s-.2-.66-.67-.29-1,.23-1.37.71c-.24-.21-.47,0-.7,0a.92.92,0,0,0-.81,1Zm15.37-4c-.28-.3-.09-.61-.12-.89-.09-.79-.06-.8-.84-.61-.21.05-.42.06-.48.37a19.38,19.38,0,0,0-.16,2.52c0,.14,0,.28.16.32a1.45,1.45,0,0,0,1.16-.2c.33-.2.21-.48.11-.75a.28.28,0,0,1,0-.18c0-.11,0-.29.1-.3s.16.17.18.3c.08.65.08.66.72.51.13,0,.39.06.36-.15s.14-.56.14-.87a2.08,2.08,0,0,1,.26-1.16c.18-.29,0-.46-.27-.52a2.14,2.14,0,0,0-.62,0c-.43,0-.56.2-.56.61A2.5,2.5,0,0,1,30,16.79Zm18,23a2.07,2.07,0,0,1-.91.25c-.29,0-.46.16-.57.46s.05.84-.22,1.2c0,0,0,.08,0,.12a1.19,1.19,0,0,0,1.08.81.69.69,0,0,1,.46.15c.25.24.5.11.67-.08a1.75,1.75,0,0,1,.61-.5.51.51,0,0,0,.27-.38c.07-.3.13-.59.21-.88a.89.89,0,0,0-.3-.85C48.91,40.14,48.61,39.75,48,39.83ZM10.57,25.42c.07-.18-.11-.47.12-.48s.12.3.17.46c.11.33-.1.69.06,1,0,.09,0,.22.17.23s.69-.43.68-.63a13.64,13.64,0,0,0-.07-1.57,6.28,6.28,0,0,1-.13-1c0-.6-.43-.85-.78-1.16s-.66,0-.81.28a3.21,3.21,0,0,0-.36,1.64c0,.77,0,1.55,0,2.32,0,.2,0,.45.29.38a.93.93,0,0,0,.74-1.14C10.59,25.67,10.58,25.54,10.57,25.42Zm26-2.37c.16-.17.53.09.62-.26a3.6,3.6,0,0,0,.15-.74c.05-.87.21-1.74.26-2.61a6.72,6.72,0,0,1,.41-2.3c.11-.25.05-.38-.28-.33-.84.14-1.24.61-1.23,1.62a30.58,30.58,0,0,1-.3,4.18C36.13,22.88,36.19,23.06,36.53,23.05Zm1.4.81c-.47-.17-.56.17-.6.48-.12,1-.2,1.93-.31,2.89,0,.24.19.36.31.41.32.15,1.13-.28,1.32-.61a10.15,10.15,0,0,0,.68-2.3c.15-.56.06-.6-.48-.85C38.52,23.73,38.23,24,37.93,23.86ZM35,24.21c0-.26-.09-.35-.35-.23a2.31,2.31,0,0,1-.69.16,1.09,1.09,0,0,0-1,1.2c0,.53.17,1.05.09,1.59a.27.27,0,0,0,.11.23,10.15,10.15,0,0,0,1.32.84c.24.07.34,0,.35-.25A29.87,29.87,0,0,0,35,24.21Zm6.59-12c0-.3,0-.54-.34-.61a1.12,1.12,0,0,1-.43-.31c-.48-.45-.78-.36-1,.28-.1.33-.15.66-.25,1a12.32,12.32,0,0,0-.45,2c0,.15,0,.39.23.27.46-.2,1-.07,1.45-.33a1,1,0,0,0,.6-.69C41.54,13.22,41.51,12.67,41.59,12.16ZM3.6,19.1c-.3-.1-.37.06-.4.39a19,19,0,0,1-.21,2,3.12,3.12,0,0,0,0,1.06c.06.38.29.46.61.36s.67-.24,1-.34A.48.48,0,0,0,5,22a11,11,0,0,1,0-1.52A1.39,1.39,0,0,0,3.6,19.1Zm43.33-.64c.48-.51.09-1.17.41-1.69a.45.45,0,0,0,0-.51.26.26,0,0,1,0-.3,3.28,3.28,0,0,0,.19-1.55.55.55,0,0,0-.34-.66c-.31-.07-.44.24-.55.43a12.15,12.15,0,0,0-1.11,3.27.47.47,0,0,0,.35.62ZM28.07,23.72h0c0-.32,0-.65,0-1a.42.42,0,0,0-.29-.45,2.55,2.55,0,0,0-1.52.7,6.51,6.51,0,0,0-.34,2.1c-.06.4,0,.73.59.62.24,0,.47-.13.71-.19.71-.18.86-.42.87-1.17Zm-4.69,1.46a2.21,2.21,0,0,0,0,.68c0,.26.17.34.4.28a7.58,7.58,0,0,1,1.43-.31.25.25,0,0,0,.23-.28c0-.7,0-1.4,0-2.1a.25.25,0,0,0-.28-.27,1.72,1.72,0,0,0-1.81,1.61A2.38,2.38,0,0,0,23.38,25.18ZM16,48.55a.89.89,0,0,1,.64.33c.36.29.38.38,0,.62a.32.32,0,0,0-.17.43c.2.86.6,1.16,1.6,1.16a1,1,0,0,0,1-1c.07-.46-.28-.51-.49-.72-.47-.47-.82-1.11-1.64-1-.06,0-.12,0-.18,0A.86.86,0,0,0,16,48.55ZM35.53,24a1,1,0,0,0,.07,1.24.16.16,0,0,1,0,.12c-.06.32.09.69,0,1a8.66,8.66,0,0,1-.3,1.34.35.35,0,0,0,.16.5c.21.1.89-.22.92-.45A15,15,0,0,0,36.75,26a10.23,10.23,0,0,1,.18-1.83c.09-.41-.13-.43-.38-.51s-.47,0-.58.31-.06.46-.31.59C35.51,24.38,35.78,24.11,35.53,24Zm-4.47-.16c-.08.35,0,.61.42.48a.3.3,0,0,1,.25.07c.11.06.29.08.24.27s-.17.15-.29.15a1.08,1.08,0,0,0-.18,0,.67.67,0,0,0-.61.7c0,.47.31.26.54.23.07,0,.15,0,.19.08s-.06.18-.14.24-.29.23,0,.33c.53.19.76.05.86-.51a1.69,1.69,0,0,1,.08-.39.81.81,0,0,0-.18-1c-.06-.06-.12-.14,0-.23.33-.3.68-.59.32-1.09,0,0,0-.09,0-.14a.78.78,0,0,0-1-.79.4.4,0,0,0-.39.44ZM45,25.23c.25.08.39.12.41-.32a3.69,3.69,0,0,1,.21-1.09,6.68,6.68,0,0,1,.61-1.61c.15-.22.05-.34-.21-.33s-.65.09-1,.08-.59.24-.65.62a14.55,14.55,0,0,1-.3,1.49C43.89,24.78,44.21,25.24,45,25.23ZM5.81,44.3c-.07.24.17.39.22.6a1.09,1.09,0,0,0,.87.81c.35.08.79.27,1-.23,0-.07.18-.12.28-.11.44,0,.32-.4.46-.6s-.08-.34-.25-.45A4.77,4.77,0,0,0,7,43.54C6.17,43.33,5.86,43.46,5.81,44.3ZM39.32,29.59a3.25,3.25,0,0,1,0,.37c0,.6.24.91.92.86.43,0,.3-.52.4-.82,0,0,0-.08,0-.13A8.44,8.44,0,0,1,41,28.14c.07-.33.18-.61-.13-.82a1.56,1.56,0,0,0-1.23.41A4.17,4.17,0,0,0,39.32,29.59ZM7.7,29.45h0v.32c0,.75,0,.75.65.93a1.42,1.42,0,0,1,.29.1c.37.21.65.06.65-.36a9.48,9.48,0,0,0,0-1.07A5.62,5.62,0,0,0,9.06,28c-.18-.47-.55-.31-.87-.31a.43.43,0,0,0-.48.47C7.7,28.56,7.7,29,7.7,29.45Zm6.69-8.29c-.12-.29,0-.66-.13-1,0-.11-.07-.27-.22-.23a10.25,10.25,0,0,0-2.18.62.56.56,0,0,0-.19.82,1.15,1.15,0,0,0,.73.54c.52.05,1,.28,1.55-.13C14.16,21.61,14.41,21.53,14.39,21.16ZM42.7,27.41c.09-.41-.07-.49-.42-.35s-.65,0-.68.45a8,8,0,0,0-.07,1.69,2.68,2.68,0,0,1-.32,1.58.7.7,0,0,0,.11.72.37.37,0,0,0,.52.16c.25-.09.27-.28.3-.52a6.68,6.68,0,0,1,.23-1.95C42.64,28.61,42.48,28,42.7,27.41ZM45,21.34c.71-.06,1.19-.17,1.43-.48s.06-.73.17-1.08.25-.55-.06-.74a3.55,3.55,0,0,0-1-.48.32.32,0,0,0-.43.2,10.13,10.13,0,0,0-.4,2.39C44.68,21.42,45,21.35,45,21.34Zm-21.56,1c0,.66.09.71.64.61l.52-.1c.63-.12.71-.21.7-.85a3.27,3.27,0,0,1,.09-1.32c.08-.19-.07-.31-.18-.43s-.24,0-.35.05a1.72,1.72,0,0,1-.67.23c-.11,0-.25,0-.3.14A7.06,7.06,0,0,0,23.46,22.38ZM45.16,13A2.57,2.57,0,0,0,44,12.32a8.9,8.9,0,0,1-1.53-.43c-.16-.09-.29,0-.34.18a12.69,12.69,0,0,1-.51,1.8c0,.1,0,.32.13.24.35-.19.78-.12,1.1-.33s.94-.22,1.26-.62c0-.05.15-.05.22,0A1.3,1.3,0,0,0,45.16,13Zm-22,8.34A1.14,1.14,0,0,0,23,20.7c-.13-.14-.37-.21-.41-.05-.1.39-.36.37-.65.4a.32.32,0,0,0-.27.36,6.92,6.92,0,0,0-.05,1.51c.06.24-.07.53.07.74s.47,0,.71,0c.58,0,.79-.23.77-.82S22.86,21.78,23.15,21.32Zm18.16,2.6a.51.51,0,0,1-.71.33c-.3-.08-.66,0-.69.38,0,.59-.15,1.18-.2,1.77s0,.53.53.45a.83.83,0,0,1,.35,0,.44.44,0,0,0,.63-.38A8.29,8.29,0,0,0,41.31,23.92Zm-36.14,1c0-.49-.07-1.06-.12-1.62,0-.26-.16-.37-.43-.27-.11,0-.23.06-.34.09a1.18,1.18,0,0,0-.89,1.77.41.41,0,0,0,.26.28A11.05,11.05,0,0,1,5,25.53c.12,0,.15,0,.15-.14S5.17,25.12,5.17,24.92Zm15.28-2.18h0a3.22,3.22,0,0,0,0-.62c-.05-.2.19-.52-.15-.6a1.44,1.44,0,0,0-.71,0c-.36.11-.66.33-.61.76s.16,1.15.27,1.72a.41.41,0,0,0,.57.34c.62-.16.76-.39.68-1C20.45,23.15,20.46,22.94,20.45,22.74ZM2.82,24.36c0-.28-.11-.34-.36-.24-.43.17-.37.54-.34.87.08,1,.1,2,.27,3,0,.25,0,.42.36.46a.48.48,0,0,0,.59-.34,1.18,1.18,0,0,0,0-.7,3,3,0,0,1-.2-1.25.53.53,0,0,0-.39-.62c-.18,0-.36-.08-.39-.3a.45.45,0,0,1,.26-.52C2.82,24.66,2.82,24.51,2.82,24.36ZM33,18.94a3.23,3.23,0,0,0,0-.44c0-.13-.1-.24-.25-.15-.47.31-1,.55-1,1.28a.8.8,0,0,1-.34.85c-.13.08-.11.35,0,.51s.23.1.36.05c.29-.12.38,0,.39.29a.31.31,0,0,0,.25.32c.22,0,.27-.14.29-.27.07-.45.38-.87.18-1.36a.54.54,0,0,1,0-.48A.64.64,0,0,0,33,18.94ZM9.13,26.6a1,1,0,0,0,.19-.75c-.05-.53,0-1.05,0-1.57a12,12,0,0,0,0-2.32c-.07-.28-.19-.44-.48-.41a.41.41,0,0,0-.43.49A16.48,16.48,0,0,0,9.13,26.6Zm34.53-2.07a1.88,1.88,0,0,0,.33-1c0-.07,0-.18-.09-.18-.33,0-.19-.14-.13-.31.15-.45-.07-.75-.53-.66a5.88,5.88,0,0,0-1.11.31c-.31.12-.25.56-.3.88s.06.38.3.51.71.16,1,.39.23,0,.24-.17a1.19,1.19,0,0,1,.18-.69C43.75,23.88,43.67,24.15,43.66,24.53ZM2.52,33.15a2.19,2.19,0,0,0,1.06-.92s0,0,0,0a6.93,6.93,0,0,0,0-2.18c-.05-.32-.5-.51-.92-.41s-.22.37-.22.61a9.65,9.65,0,0,0,.34,2.14A.67.67,0,0,1,2.52,33.15ZM15,28.55c0-.57,0-.55-.48-.4-.27.08-.45.39-.72.33-.53-.13-.51.2-.49.52a4.83,4.83,0,0,0,.11.84c.06.32.44.56.63.4s.7-.2,1-.34a.42.42,0,0,0,.26-.24c.05-.13.11-.29-.06-.4S15,28.79,15,28.55Zm13.1-8a4,4,0,0,0,0-.61c0-.24-.34-.37-.44-.18s-.4.27-.65.28a.59.59,0,0,0-.61.58,11.2,11.2,0,0,0-.1,1.29c0,.23.06.32.29.18a1.47,1.47,0,0,1,.7-.27c.59-.07.71-.17.79-.76C28.07,20.82,28.07,20.63,28.08,20.51Zm.37,3.61c0,.16,0,.38.06.6a.3.3,0,0,0,.13.27c.21.12,1-.24,1-.49a11,11,0,0,0,.08-1.82c0-.35-.07-.58-.49-.55s-.67.2-.7.59S28.48,23.61,28.45,24.12Zm16.63-9.49c0-.11,0-.21-.09-.27a.45.45,0,0,0-.46.05,2.12,2.12,0,0,0-.84,1.72c0,.13.06.26,0,.4-.18.48,0,.8.55.95.22.06.34,0,.38-.21C44.78,16.39,44.93,15.51,45.08,14.63ZM7.37,21.45a1.43,1.43,0,0,0-1.49-1.4c-.1,0-.19,0-.21.13a5.24,5.24,0,0,0-.28,1.61c0,.31.21.43.54.3a3.28,3.28,0,0,1,1.16-.32A.26.26,0,0,0,7.37,21.45Zm7.05,3.36a8.78,8.78,0,0,0-.1-1.8c0-.12,0-.25-.16-.28a.82.82,0,0,0-.79.67v2.24c0,.1,0,.22.15.21a1.19,1.19,0,0,0,.74-.22C14.58,25.36,14.38,25,14.42,24.81Zm7.22.43h0c0,.23,0,.45.05.67,0,.4.27.48.61.47s.6-.11.64-.48A10,10,0,0,0,23,24.17c0-.1,0-.2-.14-.23a1.07,1.07,0,0,0-1.27,1.13A.91.91,0,0,1,21.64,25.24ZM5.35,27.06c.06-.52-.44-1-1.19-1.13-.46-.07-.63.06-.52.47s.16,1,.26,1.54c0,.14.06.25.25.25A1.15,1.15,0,0,0,5.35,27.06Zm11.33-3.39a1.64,1.64,0,0,0,0-.22c0-.62-.32-.95-.74-.86-.23,0-.3.2-.38.38-.29.64,0,1.29,0,1.93,0,.38.19.54.57.33a.38.38,0,0,1,.34-.07c.25.11.21-.06.25-.21A7.82,7.82,0,0,0,16.68,23.67ZM34.42,34.5a3.38,3.38,0,0,0,.67-.15c.27-.09.7,0,.76-.34s-.34-.41-.56-.57l-.07,0c-.46-.37-.46-.37-.69.17,0,.1-.06.25-.22.23s-.15-.13-.17-.23C34,33,34,33,33.38,33.1l-.53.12c-.1,0-.26,0-.27.19s.09.22.2.27a5.65,5.65,0,0,0,.94.5C34,34.24,34.1,34.54,34.42,34.5ZM23.5,28.19a2.46,2.46,0,0,1,1.41-.3c.55-.06.51-.31.54-.63s0-.39,0-.58-.14-.33-.36-.3L24,26.53c-.6.08-.77.35-.5.89A.88.88,0,0,1,23.5,28.19Zm19.8.26c.15.34,0,.61,0,.88,0,.1,0,.24.1.26s.14-.09.19-.17c.29-.51.5-1.06.76-1.59.15-.29.06-.66.34-.92s0-.25-.17-.25c-.33,0-.65,0-.8.42a3.06,3.06,0,0,0-.15.79c0,.08,0,.2-.12.19s-.13-.11-.13-.2c0-.29,0-.57,0-.9a10.71,10.71,0,0,0-.66,3.32C42.94,29.7,42.8,29,43.3,28.45Zm-27.6.62c0,.74,0,.74.67.58l.4-.08c.31,0,.38-.22.35-.5s-.07-.65-.08-1c0-.63,0-.64-.65-.58-.33,0-.58.16-.62.53S15.72,28.72,15.7,29.07Zm-8.31-.6c-.06-.18.07-.39-.07-.56s-.47-.1-.69,0-.62.43-.44.89a2.57,2.57,0,0,1,0,.4c0,.24,0,.54.38.53a.16.16,0,0,1,.14.2c-.14.47.29.43.51.58s.23,0,.2-.16C7.39,29.75,7.52,29.1,7.39,28.47Zm4-.43a.37.37,0,0,0-.4.42c0,.54,0,1.08,0,1.61s.07.65.7.48.6-.17.37-.73a1.12,1.12,0,0,1-.05-.31c0-.33-.07-.65-.09-1A.47.47,0,0,0,11.35,28Zm16,5.39c0-.46,0-.41-.29-.63a1.37,1.37,0,0,0-1.35-.14.5.5,0,0,0-.39.53.84.84,0,0,0,.95.88c.15,0,.3-.1.44-.08C27.31,34.09,27.39,33.74,27.38,33.43Zm2.38-.4c0-.77-.19-1-.83-1.22a.77.77,0,0,0-.9.32.57.57,0,0,0,.12.89c.23.17.48.31.72.46s.38.3.61.14A.76.76,0,0,0,29.76,33Zm-12-9.9v-.77c0-.14,0-.27-.21-.27a.77.77,0,0,0-.82.91c.07.53.16,1.06.23,1.59,0,.23.11.37.34.4s.3-.21.33-.39A6.1,6.1,0,0,0,17.75,23.13ZM18,28c-.05,1,0,1.07.88.77a.41.41,0,0,1,.48.11c.15.14.22.05.21-.11,0-.42-.09-.83-.14-1.24a.41.41,0,0,0-.36-.4A.82.82,0,0,0,18,28ZM33.22,16c0-.45-.11-.58-.62-.67s-.58.07-.55.5a1.12,1.12,0,0,1,0,.31,2.61,2.61,0,0,0,0,1.18c0,.13.07.22.23.2a1.08,1.08,0,0,0,1-1A2.62,2.62,0,0,0,33.22,16ZM10.62,28.41c0-.19.1-.32,0-.38a1.1,1.1,0,0,0-.75-.23c-.29.06-.18.34-.2.53a4.87,4.87,0,0,0,0,.54c0,.1,0,.28.1.27.41-.1.24.25.3.39s0,.53-.07.79-.06.57.42.52.35-.42.33-.61C10.62,29.59,10.76,29,10.62,28.41Zm17.47-2.16c-.05-.14.07-.46-.14-.43s-.64-.15-.93.11a1.8,1.8,0,0,1-.62.25c-.3.1-.53,1-.3,1.26a.22.22,0,0,0,.35,0,.93.93,0,0,1,.64-.26C27.79,27.08,28.09,26.79,28.09,26.25ZM2.4,20.71c0-.5-.11-1.22-.18-1.95A.43.43,0,0,0,2,18.43c-.08-.05-.18-.12-.28-.05a.22.22,0,0,0-.05.25,9.41,9.41,0,0,1,.15,1.49,22.33,22.33,0,0,1,.28,2.94c0,.12,0,.27.15.28a.33.33,0,0,0,.33-.19.66.66,0,0,0,0-.44A9.36,9.36,0,0,1,2.4,20.71Zm2.41,12.5c-.18,0-.42-.07-.58.09-.36.36-.85.33-1.28.46-.1,0-.28-.06-.28.13s.17.1.27.11a9.4,9.4,0,0,1,1.9.69c.14.05.27.18.41.05a.33.33,0,0,0,0-.48.38.38,0,0,1,0-.45C5.47,33.27,5.41,33.18,4.81,33.21Zm32-2.12a1,1,0,0,1,0-.59c0-.15,0-.3-.14-.38s-.28,0-.37.15-.17.2-.25.09c-.38-.46-.49.13-.72.2s-.08.22,0,.32.52.42.78.61c.09.07.26.2.31.11.25-.53.68-.11,1-.21.1,0,.21,0,.31-.05s.22-.11.22-.25a.25.25,0,0,0-.23-.24.62.62,0,0,1-.42-.24c-.19-.22-.3-.12-.38.09S36.86,30.89,36.8,31.09Zm-32,1.12c.62-.15.45-.79.72-1.16a2.53,2.53,0,0,1,0,.46c0,.18,0,.45.27.4a.41.41,0,0,0,.36-.52c0-.14-.08-.29-.1-.43s0-.33-.22-.4-.29.12-.44.26A.64.64,0,0,0,5,30.3c-.15-.05-.31-.18-.46-.07a.39.39,0,0,0-.12.45C4.58,31.19,4.44,31.76,4.79,32.21Zm36.86-6.7c0,.18,0,.36.05.54s0,.43.33.37a5.8,5.8,0,0,0,.82-.21c.2-.07.38-1,.21-1.14-.33-.21-.58-.68-1.08-.46S41.73,25.2,41.65,25.51ZM23,35.23a1.68,1.68,0,0,0,1.29.73c.38,0,.78-.38.65-.66A1.52,1.52,0,0,0,22.78,35a.67.67,0,0,0-.15.63c0,.19.18.25.36.25C23,35.63,22.78,35.46,23,35.23ZM20.64,26c0-.13,0-.23,0-.34s-.08-.41-.13-.61,0-.46-.32-.44-.87.3-.85.58a6.89,6.89,0,0,0,.18,1,.51.51,0,0,0,.66.44C20.56,26.6,20.73,26.4,20.64,26ZM6.75,35.2c.16-.06.37.15.53-.05a2.66,2.66,0,0,0,.08-1.47c-.28-.18-.52.13-.79.13l-.13,0a1,1,0,0,0-.69.94c.09.38.45.39.76.42ZM24.5,31.49c-.46.1-.93.19-1.39.3-.27.07-.23.24-.08.41a1.52,1.52,0,0,0,1.67.4c.38-.12.57-.36.49-.73S24.79,31.54,24.5,31.49Zm4.54-10c.67,0,.8-.19.71-.86,0-.27,0-.54,0-.8s.1-.44-.22-.45-.52.06-.57.42A11.11,11.11,0,0,1,28.63,21C28.51,21.45,28.57,21.54,29,21.52Zm-11.1,3.21a1.92,1.92,0,0,1,.68-.12c.32,0,.43-.18.37-.46a7.47,7.47,0,0,1-.18-1.63c0-.16,0-.42-.22-.45s-.27.22-.33.38A10,10,0,0,0,17.94,24.73Zm1.26,1.1c0-.87,0-.87-.84-.7-.17,0-.44.06-.38.28.1.39-.28.83.13,1.18a.76.76,0,0,0,.16.06C18.91,26.83,19.2,26.58,19.2,25.83Zm9.29,8.32a1.27,1.27,0,0,0-.67.07c-.19.05-.21.21-.23.39s0,.26.14.29a2.06,2.06,0,0,1,.62.33.84.84,0,0,0,.89,0,.67.67,0,0,0,.29-.78c-.06-.33-.34-.31-.6-.29Zm5.75-18.4c-.64,0-.67,0-.74.6v.23c0,.35.25.49.58.35.12-.05.27-.2.35-.17.52.23.69-.13,1-.46s.06-.39-.13-.39C34.89,15.92,34.59,15.59,34.24,15.75ZM13.38,27c.11.17,0,.5.17.69s.38-.14.6-.16a.58.58,0,0,0,.18,0,.54.54,0,0,0,.4-.69c0-.13-.08-.26-.1-.39-.1-.59-.09-.59-.57-.28-.06,0-.14.05-.2.09C13.63,26.35,13.36,26.51,13.38,27Zm7.75,8a.52.52,0,0,0,.43-.21c.07-.07.16-.23.2-.22.45.16.36-.26.44-.44s0-.47-.34-.46-.75.25-1.17.17c-.1,0-.2.14-.24.29A.67.67,0,0,0,21.13,34.9Zm16.92-6.83c-.58,0-1.11.44-1,.92a1.11,1.11,0,0,0,.69.79c.47.19.59.06.51-.45a2.58,2.58,0,0,1,.1-.92C38.36,28.2,38.34,28.05,38.05,28.07ZM19.51,33.64c.21,0,.47,0,.54-.2a1.06,1.06,0,0,0,0-.82.25.25,0,0,0-.31-.12q-.68.12-1.35.27c-.13,0-.28.07-.31.22s.11.2.19.29A1.54,1.54,0,0,0,19.51,33.64ZM19,35.21a1.39,1.39,0,0,0,.77-.1c.1,0,.2-.07.21-.2s-.07-.17-.18-.22a2,2,0,0,1-.52-.34c-.43-.46-.9-.23-1.37-.09-.17.05-.28.25-.11.32C18.24,34.74,18.42,35.35,19,35.21Zm15.23-3.73c0-.12,0-.21,0-.3,0-.5-.16-.63-.64-.48-.21.07-.43.11-.65.16s-.31.1-.31.31a.37.37,0,0,0,.27.41,3.69,3.69,0,0,1,.58.23C34.21,32.19,34.2,32.2,34.25,31.48ZM32,34.21c0-.71-.13-.77-.82-.54-.23.08-.46.12-.69.19s-.25.06-.27.2.1.16.18.22a2.28,2.28,0,0,0,1.21.48c.54.06.41-.15.4-.42C32,34.3,32,34.26,32,34.21Zm-8.55-4.1,1.66-.42c.17-.05.1-.16,0-.25a1.43,1.43,0,0,0-1.94-.06.9.9,0,0,0-.13.6C23.14,30.16,23.34,30.05,23.47,30.11Zm-9.74,5.66c.15.14-.24.58.28.57.89,0,1.06-.15,1.06-.67A.83.83,0,0,0,14.2,35C13.9,35,13.72,35.25,13.73,35.77Zm-2.9-.21c0-.27-.52-.7-.83-.67-.61,0-.42.51-.42.84a.84.84,0,0,0,.95.72c.37,0,.14-.37.23-.56A1.36,1.36,0,0,0,10.83,35.56Zm15.82-3.48a5.11,5.11,0,0,0,.75-.2.59.59,0,0,0,.29-.73c-.08-.31-.37-.23-.6-.17L26,31.32c-.19.05-.31.16-.13.34A2.17,2.17,0,0,0,26.65,32.08Zm3.88-5.37a2,2,0,0,1-1.12.26c-.16,0-.35-.08-.41.14a.47.47,0,0,0,.15.56,4.53,4.53,0,0,0,1,.46c.22.1.29-.05.33-.23C30.54,27.52,30.41,27.13,30.53,26.71Zm-7,6.47-.68.16c-.15,0-.17.13-.08.27a2.09,2.09,0,0,0,2,.54c.13-.06.23-.16.09-.26C24.46,33.64,24.16,33.22,23.57,33.18Zm12.52-14a1,1,0,0,0-.32.55c-.14.64-.12,1.3-.27,1.95a3.43,3.43,0,0,0,0,.85c0,.1,0,.21.16.23a.22.22,0,0,0,.21-.15,1.55,1.55,0,0,0,.07-.31A12,12,0,0,0,36.09,19.16Zm-2.93,4c0,.66.09.7.63.58.3-.07.6-.16.9-.22s.36-.07.33-.27a.33.33,0,0,0-.39-.28,1.14,1.14,0,0,1-.71-.21.42.42,0,0,0-.54,0A.47.47,0,0,0,33.16,23.16ZM10.84,33.67c0-.4-.1-.72-.32-.74a.92.92,0,0,0-1.07.76.52.52,0,0,0,.48.57C10.34,34.31,10.82,34,10.84,33.67Zm6-7.48c0-.2.09-.57-.3-.59a2.46,2.46,0,0,0-.82.2,2,2,0,0,0,0,1.16h0A.87.87,0,0,0,16.85,26.19ZM11.34,36.36a.87.87,0,0,0,1,.93c.07,0,.12-.06.1-.12-.16-.43.23-1-.38-1.34-.28-.17-.44,0-.64,0s-.09.25-.07.39A.79.79,0,0,1,11.34,36.36ZM42,16.61c.2,0,.36,0,.37-.18a7.3,7.3,0,0,1,.27-1c0-.1.08-.24,0-.33s-.22,0-.32.06l-.48.23a1.31,1.31,0,0,0-.46,1,.2.2,0,0,0,.12.12ZM32.1,28.09A1,1,0,0,0,31,27.16a.22.22,0,0,0-.14.08,1.44,1.44,0,0,0-.09,1.09c.09.24.4,0,.61,0s.32,0,.49,0S32.12,28.25,32.1,28.09ZM16.44,34.48l-.56.09a.33.33,0,0,0-.27.27.28.28,0,0,0,.14.31,5.29,5.29,0,0,0,.74.4c.45.16.7,0,.71-.5S17,34.49,16.44,34.48ZM56,8.5h.4c.23,0,.21-.18.14-.33A1,1,0,0,0,55.18,8c-.11.16-.19.22-.39.15s-.41-.26-.48,0,.21.3.43.36a1.28,1.28,0,0,0,.82,0A1.13,1.13,0,0,1,56,8.5ZM21.88,27.31c0,.65.2.86.8.84.25,0,.4-.1.33-.39a5.66,5.66,0,0,0-.13-.56c0-.14.08-.45-.22-.36S21.88,26.74,21.88,27.31Zm-.77,3.22c.31-.14.73,0,1.07-.22.16-.12.2-.21,0-.32a2.4,2.4,0,0,1-.76-.54c-.1-.1-.23-.19-.35-.07a1.59,1.59,0,0,0-.29.95C20.76,30.46,20.89,30.57,21.11,30.53ZM50.89,6.46c-.13,0-.21,0-.23.09a.56.56,0,0,0,.09.47,3.66,3.66,0,0,0,1.52.54.42.42,0,0,0,.3-.36.27.27,0,0,0-.24-.28A2.11,2.11,0,0,1,51,6.49.23.23,0,0,0,50.89,6.46ZM14.36,34.38h.26c.55,0,.6-.08.59-.54s-.35-.27-.59-.27-.24,0-.36,0a.57.57,0,0,0-.58.46c0,.27.29.34.54.35Zm7.57-1.26a.51.51,0,0,0,.47-.66c0-.3-.24-.51-.55-.45s-.49.19-.76.25-.22.16-.11.26C21.28,32.77,21.56,33.09,21.93,33.12Zm4.3-3.61c.29-.11.64,0,.94-.14s.33-.24,0-.44a1.14,1.14,0,0,0-1.11-.24c-.25.08-.35.19-.32.43A.4.4,0,0,0,26.23,29.51ZM5.34,29.1c0-.78,0-.78-.72-.49l-.13.05c-.16.08-.34.15-.36.36s.18.28.32.38a1.22,1.22,0,0,0,.28.14C5.27,29.75,5.36,29.69,5.34,29.1Zm15.35-1.28a2.82,2.82,0,0,0-.05-.38.45.45,0,0,0-.45-.4.46.46,0,0,0-.44.63,2.3,2.3,0,0,1,.1.35c0,.33.25.43.56.4S20.63,28.12,20.69,27.82Zm-3,4.45c.06.11-.08.45.29.29a3.08,3.08,0,0,1,1-.26c.11,0,.25,0,.28-.18s-.1-.19-.2-.24l-.45-.22C18.14,31.41,17.76,31.65,17.74,32.27Zm-2.93-7.36v.22c0,.2,0,.36.29.37s.15-.22.19-.35a1.48,1.48,0,0,0-.07-.66c-.09-.42-.16-.86-.25-1.28,0-.17.15-.48-.13-.47s-.18.33-.19.53a1,1,0,0,0,0,.35A5.63,5.63,0,0,1,14.81,24.91Zm6.53,11.4a.81.81,0,0,0,.54-.21c.08-.05.16-.13.05-.2a3.05,3.05,0,0,0-1-.58.35.35,0,0,0-.45.32c0,.22,0,.46.26.53Zm15.1-3.85c0-.25-.11-.4-.33-.25a6.44,6.44,0,0,1-.72.42c-.27.14-.33.31,0,.48s.55,0,.65.37c0,.07.29,0,.31-.18S36.41,32.74,36.44,32.46Zm-7.91-6.35c0,.12-.07.39.19.43s.6,0,.61-.09c.05-.32.41-.55.25-.91,0-.08-.07-.17-.17-.19A.88.88,0,0,0,28.53,26.11Zm-20.31,6c-.22,0-.46-.07-.57.21a.43.43,0,0,0,.07.47c.18.2.39.13.61,0s.35-.06.52-.12.28-.3.21-.52-.22-.22-.4-.12A.67.67,0,0,1,8.22,32.12ZM28.77,29a3.39,3.39,0,0,0,.65-.19c.1-.05.29-.08.27-.25s-.18-.14-.28-.2l-.57-.34c-.07,0-.15-.15-.23-.09a.89.89,0,0,0-.33.74C28.28,29,28.54,29,28.77,29Zm-7.86-3.72a3.22,3.22,0,0,0,.07.93c0,.16.1.29.3.26s.18-.19.17-.32c0-.49-.06-1-.1-1.48,0-.11,0-.26-.16-.26a.26.26,0,0,0-.28.29Zm20.55-2.11c0-.12.13-.33-.13-.33a2.59,2.59,0,0,0-.74.09c-.21.07-.49.14-.49.4s.32.23.52.29.21,0,.31,0C41.41,23.87,41.5,23.61,41.46,23.21Zm-6.8,8.4c0,.65.06.71.65.43s.64-.29,0-.72c-.16-.12-.32-.32-.55-.21S34.69,31.45,34.66,31.61Zm-2.21,1c0,.14,0,.33.2.25s.65-.09.93-.28c.06,0,.19,0,.14-.18a1.92,1.92,0,0,0-1-.6c-.35.1-.15.43-.24.64A.86.86,0,0,0,32.45,32.65ZM11.6,35.15c.46,0,.72-.2.69-.52s-.07-.51-.42-.51a.66.66,0,0,0-.66.64A.38.38,0,0,0,11.6,35.15ZM30.66,19.63c-.11-.14,0-.39-.23-.4s-.33.16-.33.38c0,.46,0,.93,0,1.39,0,.12,0,.26.14.28s.18-.14.22-.26C30.59,20.56,30.4,20.07,30.66,19.63ZM7.92,34.51c0,.35.17.48.48.35l.37-.17c.33-.12.33-.22.08-.5s-.66-.23-.94-.45c-.08-.06-.18.06-.19.19s0,.15.15.09.17.06.15.17A3,3,0,0,1,7.92,34.51Zm18.61.94.29-.05c.13,0,.17-.09.12-.22a1.2,1.2,0,0,0-1.19-.63c-.18,0-.36.16-.21.33S26,35.5,26.53,35.45Zm12.36-2.8c0-.18,0-.33,0-.47s-.1-.22-.21-.14-.48.08-.71.14-.31,0-.34.17.17.16.28.21a1.13,1.13,0,0,1,.34.28c.16.17.39.34.61.27S38.85,32.79,38.89,32.65ZM21.39,21.46H21.2a7.76,7.76,0,0,0-.28,1.79c0,.22,0,.62.25.62s.22-.38.22-.62C21.4,22.65,21.39,22.06,21.39,21.46Zm8,9.07c-.24-.15-.38,0-.54.12-.34.16-.35.31-.06.53a1,1,0,0,0,1.12-.25.44.44,0,0,0,0-.39c-.09-.16-.23-.07-.36,0Zm-10.57.32c.23,0,.6,0,.68-.25s-.35-.24-.5-.42a.13.13,0,0,0-.07-.05.92.92,0,0,0-.76.06.2.2,0,0,0-.08.28.67.67,0,0,0,.66.38S18.76,30.85,18.8,30.85Zm-.46,5.58c.26,0,.53-.07.79-.13s.28-.19.09-.36a.88.88,0,0,0-1-.15c-.15.06-.41.06-.36.29A.46.46,0,0,0,18.34,36.43ZM6.46,26.63a.33.33,0,0,0-.45.13.62.62,0,0,0,.08.63c.1.18.29.05.44,0l.34-.11c.13-.05.27-.09.24-.27s-.1-.32-.28-.36A2.21,2.21,0,0,0,6.46,26.63Zm10.8,6.93c-.06-.18,0-.44-.31-.46a1.12,1.12,0,0,0-.86.27s0,.11.05.14a3.35,3.35,0,0,0,.57.42A.39.39,0,0,0,17.26,33.56Zm8.5-11a8.86,8.86,0,0,0,.17-2.24c0-.08,0-.16-.13-.15s-.11.09-.12.17a5.73,5.73,0,0,0-.14,1.23A1.83,1.83,0,0,0,25.76,22.55Zm13.42,5.58c0-.12,0-.27-.13-.31s-.13.14-.19.21a1.46,1.46,0,0,0-.21,1.18c0,.15,0,.29.19.29s.31-.13.26-.28A2.22,2.22,0,0,1,39.18,28.13ZM15.26,32.52a.56.56,0,0,0-.83-.48.46.46,0,0,0-.23.25c0,.16.14.16.23.22l.41.26C15.12,32.92,15.26,32.84,15.26,32.52Zm23.21,1a4.53,4.53,0,0,0-.94-.54.13.13,0,0,0-.21.08,1.38,1.38,0,0,0,0,.66c.06.19.28,0,.43,0A1.44,1.44,0,0,0,38.47,33.48ZM16.89,31.64c-.32,0-.64-.09-.69.16s.3.28.49.38l.07,0c.15.06.28.24.44.12s.12-.34.1-.51C17.27,31.47,17,31.65,16.89,31.64Zm11.79-2c-.33,0-.42.17-.42.44s0,.33.21.26.76,0,.89-.35C29.4,29.87,29,29.61,28.68,29.63ZM27,30.78a1,1,0,0,0-.95-.57.36.36,0,0,0-.36.46c.06.27.31.21.47.15A1.24,1.24,0,0,1,27,30.78ZM32,29.9c-.44,0-.79.15-.78.35a.34.34,0,0,0,.39.34c.28,0,.62-.05.66-.45C32.25,29.94,32.11,29.89,32,29.9ZM21,27.8c.07.11-.17.46.18.47s.41-.29.36-.59l0-.31c0-.11,0-.26-.12-.29a.31.31,0,0,0-.35.21A1.34,1.34,0,0,0,21,27.8Zm-3.44-1.63c0-.11,0-.22,0-.32s0-.36-.24-.34-.29.19-.29.38a1.09,1.09,0,0,0,0,.26c.06.22,0,.56.33.53S17.48,26.33,17.58,26.17Zm21.8,6.1c.23,0,.19-.38.42-.26s.13.33.08.52l0,0c0,.13-.16.31.07.36s.25-.12.28-.28a.91.91,0,0,0,.07-.43.61.61,0,0,0-.73-.44C39.25,31.86,39.33,32.07,39.38,32.27ZM5.77,28.55H5.62c0,.39,0,.78,0,1.17a.25.25,0,0,0,.26.26C6,30,6,29.83,6,29.73,6.16,29.28,5.79,29,5.77,28.55Zm3.27,7c0-.09.08-.38-.16-.33s-.65.07-.67.4.31.31.55.34S9.07,35.79,9,35.53Zm23.76-.7c.16-.08.5,0,.48-.27a.5.5,0,0,0-.51-.42c-.26,0-.32.25-.34.45S32.6,34.83,32.8,34.83Zm-9.56-4.11c-.26.05-.29.22-.28.4s.08.42.24.32.65,0,.64-.3S23.46,30.83,23.24,30.72ZM13.43,33c0,.17,0,.35.21.32s.67,0,.67-.24-.39-.37-.66-.43S13.45,32.85,13.43,33Zm-1.57-5.87c0-.18-.07-.32-.25-.25s-.58.05-.63.4c0,.2.26.29.35.27S11.82,27.41,11.86,27.13Zm27.57-1.54c-.39.34-.16.84-.34,1.22,0,.07,0,.18.16.18a.17.17,0,0,0,.17-.17C39.45,26.42,39.67,26,39.43,25.59Zm5.7-7.91a5.07,5.07,0,0,1,.4-1.77c0-.1.09-.23-.06-.26s-.16.09-.18.2a6,6,0,0,1-.21.86A1,1,0,0,0,45.13,17.68ZM22.55,31.17c0-.1,0-.32-.14-.24s-.69-.09-.74.22.36.33.6.39S22.53,31.35,22.55,31.17Zm-5.4-3.38c.05.2,0,.5.22.53s.36-.23.35-.47-.11-.44-.34-.46S17.26,27.66,17.15,27.79ZM39.7,16.07c.13.11.36,0,.42.21s.17.16.3,0a.49.49,0,0,0,.23-.49c0-.17-.26-.16-.38-.11A3.73,3.73,0,0,0,39.7,16.07ZM27.82,30.29c0-.32,0-.47-.24-.46s-.45.08-.47.32.28.27.46.31A.17.17,0,0,0,27.82,30.29Zm-7.75-.77c-.2,0-.31.09-.31.27s.28.4.5.42.2-.23.2-.37S20.24,29.56,20.07,29.52ZM16.34,31a2.68,2.68,0,0,0,.52,0c.12,0,.31,0,.29-.21s-.2-.08-.32-.08a1.29,1.29,0,0,0-.48,0c-.18.07-.53,0-.5.22S16.2,31,16.34,31Zm15-1.62c-.14-.13-.22-.32-.43-.29s-.33.28-.34.5.18.18.3.17S31.22,29.6,31.36,29.41Zm-6.53,1.53c.21,0,.39,0,.39-.26s0-.31-.16-.28-.55,0-.6.26S24.69,30.89,24.83,30.94Zm-4.36,2.14c.06.14,0,.42.32.35s.47,0,.42-.19-.34-.36-.59-.4S20.48,33,20.47,33.08ZM20,31.33c-.11.06-.4-.06-.36.15a.71.71,0,0,0,.41.52c.21.06.2-.27.24-.44S20.22,31.31,20,31.33Zm-8-6a.32.32,0,0,0,.23-.42,5.72,5.72,0,0,1-.12-.83c0-.09.1-.23-.08-.23s-.1.16-.1.26C12,24.51,12,24.91,12,25.34ZM43,3a.92.92,0,0,0-.62-.4c-.2,0-.27,0-.18.25C42.36,3.31,42.69,3,43,3Zm.26,12.79c-.5.72-.5.72-.23,1.12C43.1,16.53,43.45,16.25,43.23,15.79ZM20.64,31.64c0,.14,0,.34.21.33a.38.38,0,0,0,.32-.33.34.34,0,0,0-.34-.34C20.62,31.29,20.67,31.5,20.64,31.64ZM7.36,31.11c-.13-.25-.38-.12-.56-.2s-.22.08-.22.22,0,.32.2.27A1,1,0,0,0,7.36,31.11Zm21.08,2.51-.29-.17c-.14-.07-.28-.14-.38.06s-.16.24-.08.37.26,0,.38-.05A.57.57,0,0,0,28.44,33.62Zm-16.29-1c-.12,0-.27.08-.28.26a.35.35,0,0,0,.3.38c.21,0,.2-.22.22-.37S12.36,32.61,12.15,32.6Zm10-3.53c-.1,0-.17,0-.17.07s0,.13.06.15l.49.31c.06,0,.13.15.2,0s.11-.25,0-.31S22.25,29.22,22.12,29.07Zm-5.75,7.44c.14-.06.4,0,.44-.25s-.17-.15-.28-.15a.37.37,0,0,0-.39.3C16.12,36.52,16.25,36.52,16.37,36.51Zm-5.05-3.18c-.14,0-.17.11-.15.22s.09.33.3.31.24-.1.21-.24A.42.42,0,0,0,11.32,33.33Zm5.19,4.05a6.08,6.08,0,0,0,.36.52c.05.07.12.16.22.08a.33.33,0,0,0,.16-.3.16.16,0,0,0-.21-.13C16.87,37.61,16.75,37.5,16.51,37.38ZM13.6,31.05c0,.23.06.4.27.42a.36.36,0,0,0,.38-.28Zm9.51,3.26a.53.53,0,0,0-.36-.25.17.17,0,0,0-.19.19c0,.23.22.2.37.23S23.11,34.46,23.11,34.31Zm7.4.5c-.06-.11-.14-.21-.27-.2a.25.25,0,0,0-.26.24c0,.17.15.15.26.13S30.49,35,30.51,34.81Zm-5.46-1.63c0-.18-.1-.24-.26-.22s-.24,0-.21.17a.34.34,0,0,0,.32.25C25.05,33.4,25,33.27,25.05,33.18Zm-8.8-.52c-.05-.1-.1-.22-.24-.22a.2.2,0,0,0-.21.23.18.18,0,0,0,.24.18C16.14,32.83,16.26,32.81,16.25,32.66ZM43.35,2.88c-.11,0-.21.07-.18.14a.49.49,0,0,0,.44.31c.06,0,.15-.05.13-.09A4.26,4.26,0,0,0,43.35,2.88Zm-.82,15.57a1.62,1.62,0,0,0,.19-1A1.15,1.15,0,0,0,42.53,18.45ZM22.06,35.32a.23.23,0,0,0-.24-.27c-.09,0-.21,0-.2.13s.18.24.32.28S22.06,35.4,22.06,35.32ZM23,32.59c-.12,0-.21.07-.19.2s.16.14.28.14.2,0,.19-.12S23.09,32.6,23,32.59Zm-11.13-.47c-.2,0-.39-.17-.57,0a.18.18,0,0,0,0,.16c.2.14.36,0,.53-.08A.42.42,0,0,0,11.82,32.12Zm31.65-6.73a.55.55,0,0,0-.12.61s.1,0,.11,0,.06-.33.07-.5S43.51,25.47,43.47,25.39ZM25.91,32.12a.2.2,0,0,0-.39.06.15.15,0,0,0,.21.15A.2.2,0,0,0,25.91,32.12Zm9.65-2.57a.23.23,0,0,0-.22-.18.22.22,0,0,0-.25.21.14.14,0,0,0,.18.14C35.37,29.69,35.51,29.7,35.56,29.55Zm8.64-3.94c-.12,0-.21.05-.19.18s0,.27.21.21.24-.09.24-.22S44.32,25.62,44.2,25.61Zm-26,8.29c-.17-.22-.21-.42-.44-.43,0,0-.07.1-.07.14C17.74,33.83,17.92,33.86,18.22,33.9Zm11.91-7.7c.1,0,.18-.09.16-.19s-.09-.24-.22-.26-.15.1-.14.19S30,26.17,30.13,26.2Z"/><path d="M44.59,51.59a3.27,3.27,0,0,1-.38,1.23,2,2,0,0,1-1.2,1c-.39.19-.43.53-.17.89.44.63.86,1.27,1.27,1.92a1.44,1.44,0,0,0,.22.27c.12.13.29.24.08.44s-.34.35-.57.15c-.4-.36-.91-.64-1-1.24a.26.26,0,0,0-.09-.16,18.87,18.87,0,0,1-1.53-2.21c-.42-.51-.73-1.08-1.15-1.58A1.72,1.72,0,0,1,39.77,51a.2.2,0,0,1,0-.13c.6-.42,1-1.16,1.82-1.23a4.06,4.06,0,0,1,2.14.3.3.3,0,0,1,.11.07A6,6,0,0,1,44.59,51.59Zm-1.14-.17c-.05-.2,0-.44-.31-.48a2.92,2.92,0,0,0-1.35-.17.77.77,0,0,0-.63,1c.07.18.15.36.23.54s.31.43.64.3a.81.81,0,0,1,.49,0c.67.15.82,0,.86-.65A1.58,1.58,0,0,1,43.45,51.42Z"/><path d="M21.45,53.49a2.43,2.43,0,0,1-.18.88,1.16,1.16,0,0,0,.16,1.17c.2.24.43.54,0,.83-.1.07-.08.22-.08.33a16.41,16.41,0,0,0,.29,2.62c0,.16.16.25.25.37a.7.7,0,0,1-.32,1c-.21.08-.72-.33-.75-.68s-.28-.56-.17-.91c.05-.14-.15-.24-.28-.31s-.21.08-.26.18a2.94,2.94,0,0,1-1.22,1.2.51.51,0,0,1-.54,0,1.19,1.19,0,0,1-.44-1.93c.14-.19.29-.33.23-.59a.45.45,0,0,1,.13-.42c.66-.46.75-1.45,1.62-1.72a.63.63,0,0,0,.39-.7c0-.56.06-1.12,0-1.69a1,1,0,0,1,.72-.86c.22,0,.33.1.36.31S21.42,53.21,21.45,53.49ZM20.33,57a.28.28,0,0,0-.12-.3.28.28,0,0,0-.32.09,3.5,3.5,0,0,0-1.1,1.91c0,.12-.08.25,0,.34a.28.28,0,0,0,.37-.07C19.72,58.39,20.4,57.91,20.33,57Z"/><path d="M31.44,56.41A2.25,2.25,0,0,1,30,58.53c-.3.12-.68.13-.82.53a.53.53,0,0,0,.05.5,10,10,0,0,1,1.22,2.61c.08.3-.14.78-.37.83s-.5-.2-.61-.62a10.76,10.76,0,0,1-.5-1.31,1.38,1.38,0,0,0-.4-.87c-.1-.09-.09-.25-.08-.39a1.44,1.44,0,0,0-.38-1.05,8.41,8.41,0,0,1-.78-1.45,10.13,10.13,0,0,0-.68-1.55.62.62,0,0,1,0-.64c.1-.17.28-.31.47-.09s.28.1.47,0c1-.32,2-.66,3,0C31.1,55.42,31.58,55.77,31.44,56.41Zm-.83.18c0-.41-.07-.89-.47-.92a4.63,4.63,0,0,0-1.65.15.61.61,0,0,0-.29,1,.78.78,0,0,1,.3.66c0,.26.37.52.57.47a3.39,3.39,0,0,0,1.35-1A.48.48,0,0,0,30.61,56.59Z"/><path d="M7.13,56.67A10,10,0,0,1,7,58.52c0,.38-.32.44-.62.37s-.27-.33-.17-.58a5.57,5.57,0,0,0,.23-2.5.57.57,0,0,1,.13-.36.72.72,0,0,0-.19-1,1.3,1.3,0,0,0-1-.44c-.27,0-.42-.23-.58-.39s0-.25.11-.36.21-.49.54-.32A3.58,3.58,0,0,1,6,53.4c.3.23.46.17.55-.19.25-1.06.27-2.15.55-3.2a1.31,1.31,0,0,1,.61-.88A1.07,1.07,0,0,0,7.93,49a.67.67,0,0,1,1,.07l.55.65a.85.85,0,0,1,0,1.11c-.17.16-.41.28-.61,0a2.06,2.06,0,0,1-.42-.62c-.08-.27-.19-.17-.29,0a5.84,5.84,0,0,0-.66,2,2.19,2.19,0,0,0-.05,1.27c.1.21.14.42.43.45a.27.27,0,0,1,.2.07c.21.24.41.43.77.24s.68.08,1,.18c.14,0,.24.11.24.27s-.14.17-.25.21A1.57,1.57,0,0,1,8,54.76c-.19-.16-.81.23-.81.51C7.24,55.79,7.07,56.3,7.13,56.67Z"/><path d="M54.94,47.76a1.94,1.94,0,0,1-1.63-.65,2,2,0,0,1-.56-1.87,11.59,11.59,0,0,1,.71-2c.14-.35.53-.3.82-.17a7.6,7.6,0,0,0,1.29.32,5.39,5.39,0,0,0,2.08,0,.74.74,0,0,0,.63-.35c.09-.16.2-.33.41-.29s.05.24.07.36A1.06,1.06,0,0,1,58,44.36a10.12,10.12,0,0,1-1.78.39c-.32.07-.43.2-.31.52s.31.91.46,1.36a.84.84,0,0,1-.46,1A1.65,1.65,0,0,1,54.94,47.76Zm0-1.08c.61,0,.68-.13.38-.67a1.72,1.72,0,0,1-.07-.21,1.43,1.43,0,0,0-.71-1.07c-.17-.09-.31-.33-.52-.28s-.22.34-.25.53C53.54,46,53.82,46.73,54.91,46.68Z"/><path d="M61.41,25.25a4.86,4.86,0,0,0-1.18-.05c-.91,0-1.31.54-1,1.39a4,4,0,0,0,1.5,1.75c.34.27.17.58.18.88s-.2.19-.34.24a.38.38,0,0,1-.21,0c-.87-.27-1.79-.06-2.65-.35a.2.2,0,0,0-.17,0A.38.38,0,0,1,57,29a.66.66,0,0,1,0-.64.5.5,0,0,1,.53-.26,6.56,6.56,0,0,0,.76.09.33.33,0,0,0,.35-.15c.07-.15-.08-.23-.11-.35-.11-.34-.59-.6-.28-1.06,0,0,0-.11,0-.12-.5-.21-.11-.63-.21-.94a.38.38,0,0,1,.08-.34c.4-.34.63-.85,1.14-1.07a2.25,2.25,0,0,1,1.53-.14c.45.13.91-.09,1.38,0,.23.06.3.17.28.37A.94.94,0,0,1,61.41,25.25Z"/><path d="M49.44,51.52a1.73,1.73,0,0,1-1.22-.47c-.35-.31-.69-.18-.79.27a1.27,1.27,0,0,1-1.12,1.12.66.66,0,0,1-.57-.19c-.22-.2-.33-.5-.61-.64a.22.22,0,0,1-.09-.24A1.87,1.87,0,0,0,44.71,50c-.21-.33.22-1.33.58-1.57a2.22,2.22,0,0,1,1.39-.34c.48,0,.7.18.74.66a.9.9,0,0,0,.33.59,4.55,4.55,0,0,0,2.37,1.24c.15,0,.37.05.37.26s-.18.17-.31.21a.4.4,0,0,0-.24.25C49.86,51.5,49.66,51.53,49.44,51.52ZM46.8,50.39c.13-.43-.28-.66-.45-1a.36.36,0,0,0-.39-.24.44.44,0,0,0-.33.39,3.29,3.29,0,0,0,0,.94c0,.32.57.89.81.81s.29-.47.35-.75C46.8,50.51,46.79,50.47,46.8,50.39Z"/><path d="M58.87,41.93c-.17-.07-.45.08-.55-.23,0-.09-.12-.09-.19,0-.3.24-.53.08-.79-.11s-.55-.1-.8-.25-.17.07-.19.17a3.45,3.45,0,0,0-.12.43c0,.27-.17.42-.45.35a.48.48,0,0,1-.44-.57s0,0,0,0c0-.23.32-.48.11-.66a2,2,0,0,0-.86-.42,4.65,4.65,0,0,1-1.29-.67c-.18-.12-.12-.3-.09-.46s.15-.22.33-.24a1.38,1.38,0,0,1,1.05.25c.33.25.75.12,1.13.18.17,0,.35-.24.34-.37,0-.48.32-.78.44-1.19,0-.14.14-.28.29-.22s.33.31.22.42-.09.5-.12.75a1.88,1.88,0,0,1-.16.73.44.44,0,0,0,.3.64,12.53,12.53,0,0,0,1.46.38c.34.07.61-.34.52-.77a1,1,0,0,0-.15-.38c-.15-.21,0-.33.13-.43s.31,0,.43.14a1.28,1.28,0,0,1,.21.58c.08.36.19.72.24,1.08A1,1,0,0,1,58.87,41.93Z"/><path d="M58.06,30a2.56,2.56,0,0,1,2.54,2.1,2.87,2.87,0,0,1-.07,1.54.56.56,0,0,1-.68.43,2.13,2.13,0,0,0-.62,0c-.28,0-.67.12-.65-.4,0-.1,0-.13-.14-.1-.94.33-1.3-.52-1.89-.92a1.2,1.2,0,0,1-.5-.94.74.74,0,0,1,.3-.82,5.26,5.26,0,0,0,.86-.68A1.46,1.46,0,0,1,58.06,30Zm0,1a1.19,1.19,0,0,0-.28,0c-.29,0-.64.52-.5.71.31.38.51.89,1.11.95a.51.51,0,0,1,.31.17c.27.3.63.21,1,.19.15,0,.21-.11.2-.28A1.74,1.74,0,0,0,58,30.93Z"/><path d="M13.15,56a5.65,5.65,0,0,1-.65,1.74c-.22.39-.64.6-.87,1a.19.19,0,0,1-.22.1,1.82,1.82,0,0,1-1.21-2,1.36,1.36,0,0,0,.06-.82,2.29,2.29,0,0,1,.06-1.19.63.63,0,0,1,.55-.48c.54,0,1-.73,1.61-.17.39.36.41.88.59,1.32A2,2,0,0,1,13.15,56Zm-.94-.4c0-.13.12-.33-.06-.43s-.31.13-.47.17c-.53.13-.62.51-.59,1a.35.35,0,0,1,0,.17,1.45,1.45,0,0,0,.08.92c0,.2.26.3.43.35s.16-.18.23-.28c.17-.3.32-.61.48-.92.07-.13.14-.28,0-.41S12.21,55.84,12.21,55.64Z"/><path d="M38,52.8a1.23,1.23,0,0,1-.37.82.89.89,0,0,0-.16,1.11c.24.4.67.35,1,.4a.48.48,0,0,0,.59-.41c0-.2.24-.2.38-.27s.37,0,.39-.3.13-.16.24-.1a.18.18,0,0,1,0,.3c-.44.45-.68,1-1.12,1.5A1.42,1.42,0,0,1,37.4,56s0,0-.07,0c-1.09,0-.93-1.13-1.47-1.63a11.57,11.57,0,0,1,.28-1.27,9.92,9.92,0,0,1,.76-1.15c.14-.19.34-.41.59-.28a.9.9,0,0,1,.48.67C38,52.44,38,52.56,38,52.8Z"/><path d="M17.32,56.92a8,8,0,0,1-.44,2,1.69,1.69,0,0,1-1,1c-.18.08-.39.08-.47-.18s-.41-.27-.48-.6a4.3,4.3,0,0,1,.27-2.72,4.73,4.73,0,0,1,.54-1.25,1,1,0,0,1,.61-.29c.18-.05.27.22.36.39a3.18,3.18,0,0,1,.58,1.47A.78.78,0,0,0,17.32,56.92Zm-1,.39a.93.93,0,0,0-.06-.57c0-.09,0-.23-.16-.23s-.16.13-.19.23a4.32,4.32,0,0,0-.19,1.75.3.3,0,0,0,.25.28c.16,0,.18-.11.23-.22.16-.34.45-.66.12-1.07C16.32,57.45,16.35,57.37,16.35,57.31Z"/><path d="M50.29,46.14c.33,0,.63-.21,1-.09.1,0,.23,0,.25.16a.22.22,0,0,1-.19.22c-.28,0-.43.31-.67.42a.53.53,0,0,0-.25.7,2.92,2.92,0,0,0,.73,1.07l.2.1A.92.92,0,0,1,51.51,50a.39.39,0,0,1-.57,0c-.31-.49-.9-.48-1.29-.82s-.87-.7-1.27-1.09-.3-.57.15-.72a2,2,0,0,0,.83-.76A1.1,1.1,0,0,1,50.29,46.14Z"/><path d="M32.53,54a2,2,0,0,0,1.49-.5c.34-.37.81-.28,1.23-.36a.19.19,0,0,1,.23.17c0,.11-.06.16-.15.19-.39.12-.6.48-.89.71-.62.52-.6,1.11,0,1.89a.91.91,0,0,1,.15,1c-.09.23-.2.23-.41.2-.51-.09-.69-.54-1-.87a20.84,20.84,0,0,0-1.36-1.74c-.1-.1-.25-.19-.18-.37s.22-.17.37-.2A4.1,4.1,0,0,0,32.53,54Z"/><path d="M60.4,36.83a.79.79,0,0,1-1.09.81,10,10,0,0,0-1.53-.26,8.31,8.31,0,0,1-1.3-.35.44.44,0,0,1-.37-.52.45.45,0,0,1,.52-.4,6.69,6.69,0,0,1,2.07.3c.32.18.69-.06,1-.13C60.3,36.17,60.4,36.22,60.4,36.83Z"/><path d="M54.57,35.5c-.17-.08-.44,0-.49-.27a.6.6,0,0,1,.3-.69c.32-.12.63-.41,1-.24.11,0,.23.06.22.23A1.67,1.67,0,0,1,54.57,35.5Z"/><path d="M21.41,16.34c.41.36.4.38.22.85a1.53,1.53,0,0,0,0,.43h-.09c-.14-.52-.41-.58-.83-.26-.1.07-.34.28-.46,0s.21-.25.32-.37.17-.06.25-.08C21.1,16.87,21.36,16.75,21.41,16.34Z"/><path d="M32.22,13a.56.56,0,0,0-.12-.16c-.39-.24,0-.45,0-.67s.08-.09.15-.06a.25.25,0,0,1,.14.3c-.17.28,0,.54,0,.82a.51.51,0,0,1-.07.38.26.26,0,0,1-.32.11.28.28,0,0,1-.22-.2.23.23,0,0,1,.15-.28C32.06,13.17,32.19,13.16,32.22,13Z"/><path d="M32.4,11.18a.34.34,0,0,0,.08.41.17.17,0,0,1,0,.3c-.14.06-.22,0-.28-.16a.45.45,0,0,1,0-.38c.06-.13.19-.28-.06-.41s0-.15.08-.19.18,0,.2.08S32.38,11.07,32.4,11.18Z"/><path d="M33.87,12.71c-.23-.29,0-.49,0-.73C34.12,12.25,33.93,12.48,33.87,12.71Z"/><path d="M30.12,11.26c0,.2.23.38,0,.57a.13.13,0,0,1-.12,0C29.88,11.61,30.05,11.44,30.12,11.26Z"/><path d="M30.2,13.1c-.29-.27-.24-.57-.07-1a3.17,3.17,0,0,1,.06.95Z"/><path d="M15.72,14.49c-.2.89.22,1.73.18,2.6,0,.09,0,.18,0,.27s0,.23-.14.24-.16-.12-.14-.23c0-.32-.25-.66,0-1-.34-.34-.16-.8-.28-1.19a2.28,2.28,0,0,1-.08-1.32c0-.1,0-.23.16-.23s.2.12.2.25A2.16,2.16,0,0,0,15.72,14.49Z"/><path d="M13.91,14.88c-.05.13.16.4-.19.38s-.26-.38-.32-.59,0-.41.24-.37S13.88,14.66,13.91,14.88Z"/><path d="M10.58,24.25v-1c0-.15,0-.33.2-.35s.26.15.27.29a2.79,2.79,0,0,1-.25,1.37c-.11.22-.2.07-.19-.11a1.1,1.1,0,0,1,0-.18Z"/></g></g></g></svg>