<svg xmlns="http://www.w3.org/2000/svg" viewBox="0 0 68.97 81.65"><defs><style>.cls-1{opacity:0.3;}.cls-2{fill:#8195a5;}.cls-3{opacity:0.2;}.cls-4{opacity:0.5;}.cls-5{fill:#b12440;}</style></defs><g id="Layer_2" data-name="Layer 2"><g id="Layer_1-2" data-name="Layer 1"><g class="cls-1"><path class="cls-2" d="M28.63,25.71s0-5,0-5,0,5,0,5Z"/></g><g class="cls-1"><path class="cls-2" d="M31.23,24.85a2.78,2.78,0,0,1,.58.86c0-.07,0-.14,0-.21s0-.35,0-.52V21.05c0-.11,0-.22,0-.34a2.78,2.78,0,0,0-.58-.86,1.48,1.48,0,0,0,0,.21c0,.17,0,.35,0,.52v3.93c0,.11,0,.22,0,.34Z"/></g><g class="cls-1"><path class="cls-2" d="M33.24,19.07c0,.49,0,1,0,1.48,0,.92,0,1.83,0,2.75,0,.24,0,.49,0,.73a.53.53,0,0,0,0,.13,1.58,1.58,0,0,0,.11.37,1.82,1.82,0,0,0,.46.61c0-.08,0-.15,0-.22s0-.34,0-.52V20.48c0-.12,0-.23,0-.34a1.66,1.66,0,0,1-.58-1.06v.09c0-.09,0,0,0,.2v4.52c0-.38,0-.77,0-1.15q0-1,0-1.92c0-.5,0-1,0-1.5v-.25c0-.12,0-.12,0,0Z"/></g><g class="cls-1"><path class="cls-2" d="M35.27,23.69l.29.29a1.48,1.48,0,0,0,0-.21c0-.18,0-.35,0-.52V19.32c0-.11,0-.23,0-.34l-.29-.29a1.62,1.62,0,0,0,0,.22c0,.17,0,.34,0,.51,0,.59,0,1.18,0,1.77v2.16c0,.12,0,.23,0,.34Z"/></g><g class="cls-1"><path class="cls-2" d="M37.87,22.54c.07.46.25.9.29,1.37v0c0,.22,0,0,0-.56V20.89c0-1.66,0-2.21,0-1.64v0a5.93,5.93,0,0,0,0,.73c0,.59,0,1.18,0,1.77s0,1.18,0,1.77v.39c0,.11,0,.23,0,.34,0-.3,0-.61,0-.92,0-1.33,0-2.66,0-4a4.43,4.43,0,0,0-.07-.81c-.07-.34-.19-.67-.24-1a1.48,1.48,0,0,0,0,.21c0,.18,0,.35,0,.52,0,.59,0,1.18,0,1.77s0,1.18,0,1.77v.39c0,.11,0,.22,0,.34Z"/></g><g class="cls-1"><path class="cls-2" d="M38.71,17.4c0,1.23,0,2.45,0,3.68,0,.3,0,.61,0,.91a4.21,4.21,0,0,0,.09.62,3.63,3.63,0,0,0,.49,1.08,1.48,1.48,0,0,0,0-.21c0-.18,0-.35,0-.52V19c0-.11,0-.22,0-.34a4.41,4.41,0,0,1-.4-.78,3.22,3.22,0,0,1-.17-.76v.09a.57.57,0,0,0,0-.13v0c0,1.28,0,2.55,0,3.82q0-1.77,0-3.54V17a2,2,0,0,0,0-.34v.09c0,.22,0,.43,0,.64Z"/></g><g class="cls-1"><path class="cls-2" d="M40.17,20.81A7.61,7.61,0,0,1,40.69,22a2.77,2.77,0,0,0,.64,1.1,1.7,1.7,0,0,0,0-.22c0-.17,0-.34,0-.52V18.46c0-.12,0-.23,0-.34a2.77,2.77,0,0,1-.64-1.1,7.61,7.61,0,0,0-.52-1.21,1.47,1.47,0,0,0,0,.21c0,.17,0,.35,0,.52,0,.59,0,1.18,0,1.77s0,1.18,0,1.76v.4c0,.11,0,.22,0,.34Z"/></g><g class="cls-1"><path class="cls-2" d="M27.17,22.92v3.5c0,.17,0,.35,0,.52a1.48,1.48,0,0,0,0,.21v-.08c0-.22,0-.43,0-.65,0-.59,0-1.18,0-1.77V22.92c0-.59,0-1.18,0-1.76,0-.18,0-.35,0-.52a1.7,1.7,0,0,0,0-.22v.09c0,.22,0,.43,0,.65v1.76Z"/></g><g class="cls-1"><path class="cls-2" d="M28.63,24.56A3.3,3.3,0,0,1,29.21,26a1.48,1.48,0,0,0,0-.21c0-.18,0-.35,0-.52,0-.59,0-1.18,0-1.77s0-1.18,0-1.77v-.39a1.93,1.93,0,0,0,0-.34,3.3,3.3,0,0,0-.58-1.44c0,.07,0,.14,0,.21v.52c0,.59,0,1.18,0,1.77s0,1.18,0,1.77v.39c0,.11,0,.22,0,.34Z"/></g><g class="cls-1"><path class="cls-2" d="M30.65,19.56c0,.07,0,.15,0,.23,0,.81,0,1.63,0,2.45s0,1.62,0,2.43c0,.07,0,.14,0,.21a1.38,1.38,0,0,0,.17.48,2.41,2.41,0,0,1,.41.91V26.2c0,.1,0,.12,0,0a1.38,1.38,0,0,0,0-.29c0-.5,0-1,0-1.5s0-1.28,0-1.92c0-.38,0-.77,0-1.15a1.46,1.46,0,0,0-.1-.47,2.59,2.59,0,0,0-.19-.33,1.76,1.76,0,0,1-.31-.75v.06c0-.21,0,0,0,.58V24c0,.6,0,.8,0,.59v.05a.25.25,0,0,0,0-.08,6,6,0,0,0,0-.73c0-.59,0-1.18,0-1.77s0-1.18,0-1.77V19.9c0-.11,0-.23,0-.34Z"/></g><g class="cls-1"><path class="cls-2" d="M42.17,16.49c0,1,0,2,0,3a3.39,3.39,0,0,0,0,.45,3.81,3.81,0,0,0,.07.47c.07.31.15.62.2.93a1.48,1.48,0,0,0,0-.21c0-.17,0-.35,0-.52,0-.59,0-1.18,0-1.77s0-1.17,0-1.76v-.39c0-.12,0-.23,0-.35-.07-.48-.24-.95-.28-1.45V15a.28.28,0,0,0,0-.09v0q0-1.51,0,2.92V15.89c0-.38,0-.77,0-1.15v-.09c0,.12,0,.23,0,.34,0,.5,0,1,0,1.5Z"/></g><g class="cls-1"><path class="cls-2" d="M36.13,17.92c0,1.53,0,3.07,0,4.6a12.2,12.2,0,0,0,.06,1.35,2.2,2.2,0,0,0,.54,1.27,1.7,1.7,0,0,0,0-.22c0-.17,0-.34,0-.52,0-.59,0-1.18,0-1.76s0-1.18,0-1.77v-.39c0-.12,0-.23,0-.34a2.36,2.36,0,0,1-.56-1.51v.09c0-.09,0-.17,0-.26.06,1.39,0,2.79,0,4.18v-.06c0-.1,0,0,0,.16,0-1,0-2,0-3.08,0-.5,0-1,0-1.49v-.25c0-.12,0-.12,0,0Z"/></g><g class="cls-1"><path class="cls-2" d="M34.38,21.19v1.16c0,.59,0,1.18,0,1.76v.52c0,.07,0,.14,0,.22v-.09c0-.22,0-.43,0-.65,0-.58,0-1.17,0-1.76V21.19c0-.59,0-1.18,0-1.77,0-.17,0-.34,0-.51a1.62,1.62,0,0,0,0-.22v.09c0,.22,0,.43,0,.64,0,.59,0,1.18,0,1.77Z"/></g><g class="cls-1"><path class="cls-2" d="M12.19,21c0,.31,0,.62,0,.93,0,1.33,0,2.67,0,4a3.92,3.92,0,0,0,.08.84,2.33,2.33,0,0,0,.53,1c0-.07,0-.14,0-.21V27c0-.59,0-1.18,0-1.77s0-1.18,0-1.77v-.39c0-.11,0-.22,0-.34a2.25,2.25,0,0,1-.59-1.34v0c0-.58,0,0,0,1.64v2.43a4.65,4.65,0,1,1,0,.56v0s0,0,0-.08c0-.24,0-.49,0-.73V21.34c0-.11,0-.23,0-.34Z"/></g><g class="cls-1"><path class="cls-2" d="M13.63,21a3.76,3.76,0,0,0,0,.58c0,.73,0,1.46,0,2.19s0,1.46,0,2.18a2.44,2.44,0,0,0,.1.81,4.49,4.49,0,0,0,.51,1c0-.07,0-.14,0-.21s0-.35,0-.52V23.07c0-.11,0-.22,0-.34a3.09,3.09,0,0,1-.59-1.35v.23l0,2.16v0l0,2.16v.22s0-.08,0-.12a1.48,1.48,0,0,0,0-.21c0-.18,0-.35,0-.52,0-.59,0-1.18,0-1.77s0-1.18,0-1.77v-.39a1.93,1.93,0,0,0,0-.34Z"/></g><g class="cls-1"><path class="cls-2" d="M15.36,20.14c0,.47,0,1,0,1.44v2.55c0,.4,0,.81,0,1.21a1.79,1.79,0,0,0,.09.57,4.86,4.86,0,0,0,.5,1,1.7,1.7,0,0,0,0-.22c0-.17,0-.34,0-.52V22.21c0-.12,0-.23,0-.34a3.25,3.25,0,0,1-.58-1.37v.05c0-.2,0,0,0,.55v2.43l0,1.66v0a.17.17,0,0,1,0-.07v.06c0-.25,0-.5,0-.74,0-.59,0-1.18,0-1.76s0-1.18,0-1.77v-.39a1.9,1.9,0,0,0,0-.34Z"/></g><g class="cls-1"><path class="cls-2" d="M16.79,21.05c0,1.08,0,2.15,0,3.22,0,.54,0,1.08,0,1.61a5.51,5.51,0,0,0,.06.57c.06.34.16.66.23,1a1.48,1.48,0,0,0,0-.21c0-.17,0-.35,0-.52,0-.59,0-1.18,0-1.77s0-1.18,0-1.76v-.4c0-.11,0-.22,0-.34a10.88,10.88,0,0,1-.28-1.38v.09a.28.28,0,0,0,0-.09v0q-.07-2.24,0,4.34c0-1.14,0-2.28,0-3.42,0-.38,0-.77,0-1.15v-.09c0,.12,0,.23,0,.34Z"/></g><g class="cls-1"><path class="cls-2" d="M18.23,24.76c0-3.57.05-4.76,0-3.56v.09a.49.49,0,0,0,0,.12c0,.09,0,.17,0,.26,0,.29,0,.57,0,.86,0,1.34,0,2.68,0,4a1.43,1.43,0,0,0,.34,1.18c0-.07,0-.14,0-.21V27c0-.59,0-1.18,0-1.77s0-1.18,0-1.77v-.39c0-.11,0-.22,0-.34a1,1,0,0,1-.33-.72v0q0,1.15,0,2.31c0,.77,0,1.54,0,2.3v-.11c0-.09,0-.18,0-.27a2,2,0,0,0,0-.25c0-1.25,0-2.51,0-3.76,0-.38,0-.77,0-1.15,0-.1,0-.12,0,0s0,.19,0,.29c0,1.14,0,2.28,0,3.42Z"/></g><g class="cls-1"><path class="cls-2" d="M19.4,26.29a.84.84,0,0,1,.31.64v-.09c.11,1.63,0-3,0-4.48h0c0,.07,0,.13,0,.2a1.34,1.34,0,0,1,0,.2c0,1.25,0,2.5,0,3.74,0,.38,0,.77,0,1.15,0,.11,0,.12,0,.05s0-.2,0-.3c0-1.14,0-2.28,0-3.42,0,6.47-.06,4.75,0,3.54v0s0-.07,0-.11,0-.14,0-.21c0-.43,0-.87,0-1.31q0-1.28,0-2.55c0-.4,0-.8,0-1.19a1,1,0,0,0-.32-.81,1.48,1.48,0,0,0,0,.21c0,.18,0,.35,0,.52V26c0,.11,0,.23,0,.34Z"/></g><g class="cls-1"><path class="cls-2" d="M20.82,24.37v.86c0,.59,0,1.18,0,1.77v.52c0,.07,0,.14,0,.21v-.09c0-.21,0-.43,0-.64,0-.59,0-1.18,0-1.77v-.86c0-.59,0-1.18,0-1.77,0-.17,0-.35,0-.52a1.48,1.48,0,0,0,0-.21V22c0,.21,0,.42,0,.64,0,.59,0,1.18,0,1.77Z"/></g><g class="cls-1"><path class="cls-2" d="M22.26,23.79v1.15c0,.59,0,1.18,0,1.77,0,.17,0,.35,0,.52a1.48,1.48,0,0,0,0,.21v-.09c0-.21,0-.42,0-.64,0-.59,0-1.18,0-1.77V23.79c0-.59,0-1.18,0-1.77V21.5c0-.07,0-.14,0-.21v.09c0,.21,0,.43,0,.64,0,.59,0,1.18,0,1.77Z"/></g><g class="cls-1"><path class="cls-2" d="M23.7,23.79v.58c0,.59,0,1.17,0,1.76,0,.18,0,.35,0,.52a1.7,1.7,0,0,0,0,.22v-.09c0-.22,0-.43,0-.65V22c0-.17,0-.34,0-.52a1.48,1.48,0,0,0,0-.21v.09c0,.21,0,.43,0,.64,0,.59,0,1.18,0,1.77Z"/></g><g class="cls-1"><path class="cls-2" d="M25.72,23.79v.86c0,.59,0,1.18,0,1.77,0,.17,0,.35,0,.52a1.48,1.48,0,0,0,0,.21v-.08c0-.22,0-.43,0-.65V22c0-.17,0-.34,0-.52a1.48,1.48,0,0,0,0-.21v.09c0,.21,0,.43,0,.64,0,.59,0,1.18,0,1.77Z"/></g><g class="cls-1"><path class="cls-2" d="M28.32,22.92v1.16c0,.59,0,1.18,0,1.77,0,.17,0,.34,0,.51a1.62,1.62,0,0,0,0,.22v-.09c0-.22,0-.43,0-.64,0-.59,0-1.18,0-1.77V22.92c0-.59,0-1.18,0-1.76v-.52c0-.07,0-.14,0-.22v.09c0,.22,0,.43,0,.65,0,.59,0,1.17,0,1.76Z"/></g><g class="cls-1"><path class="cls-2" d="M32.67,23.69a1.39,1.39,0,0,1,.39.77,6,6,0,0,1,.19,1.12V25.5c0,.08,0,.17,0,.25s0-.19,0-.17V21.2a.41.41,0,0,0,0,.11v-.09s0,0,0,.07c0,.24,0,.5,0,.73V26c0,.11,0,.23,0,.34a6.78,6.78,0,0,0,0-.78c0-1.51,0-3,0-4.53a6.54,6.54,0,0,0-.08-.89,4.66,4.66,0,0,0-.19-.84,1.11,1.11,0,0,0-.33-.56c0,.07,0,.15,0,.22v.51c0,.59,0,1.18,0,1.77s0,1.18,0,1.77v.39c0,.12,0,.23,0,.34Z"/></g><g class="cls-1"><path class="cls-2" d="M33.81,19.35c0-1.82,0-1.38,0-1v.07a1,1,0,0,1,0,.17c0,.13,0,.26,0,.39s0,.27,0,.41c0,1.29,0,2.58,0,3.87,0,.48,0,1,0,1.46a3.29,3.29,0,0,0,0,.44.87.87,0,0,0,.3.55c0-.07,0-.14,0-.21V25c0-.59,0-1.18,0-1.77s0-1.18,0-1.77v-.39c0-.11,0-.22,0-.34a1.23,1.23,0,0,1-.35-.9v.09c0-.09,0-.39,0,0,0,1.43,0,2.85,0,4.28v0a.57.57,0,0,0,0-.13c0-.13,0-.27,0-.4,0-.58.05-1.16.05-1.74,0-1.14,0-2.28,0-3.42V18.2c0-.11,0-.11,0,0,0,.39,0,.77,0,1.15Z"/></g><g class="cls-1"><path class="cls-2" d="M35.25,19.66v-.95c0-.3,0-.39,0-.26v.33c0,.6,0,1.2,0,1.8,0,1,0,2,0,3,0,.22,0,.44,0,.66A3.18,3.18,0,0,0,35.85,26c0-.07,0-.14,0-.21v-.52c0-.59,0-1.18,0-1.77s0-1.18,0-1.77v-.39c0-.11,0-.23,0-.34a3,3,0,0,1-.57-1.65v.09c0-.1,0-.2,0-.3.1,1.33,0,2.67,0,4a1,1,0,0,0,0-.17c0-.66,0-1.32,0-2s0-1.28,0-1.92c0-.38,0-.77,0-1.15v-.09c0,.11,0,.22,0,.34,0,.5,0,1,0,1.49Z"/></g><g class="cls-1"><path class="cls-2" d="M36.69,17.91v-.78c0,.08,0,.17,0,.26,0,.35,0,.7,0,1.06,0,1.35,0,2.7,0,4a6.27,6.27,0,0,0,0,.75,2.13,2.13,0,0,0,.28.86,2.11,2.11,0,0,1,.32.83V20a.41.41,0,0,1,0,.11,5.93,5.93,0,0,0,0,.73c0,.59,0,1.18,0,1.77s0,1.17,0,1.76v.39c0,.12,0,.23,0,.35a10.91,10.91,0,0,0,0-1.4c0-1.22,0-2.45,0-3.67a1.49,1.49,0,0,0-.16-.65c-.09-.19-.21-.36-.29-.56a2,2,0,0,1-.17-.73v.09a1.09,1.09,0,0,1,0-.18c0,1.45,0,2.89,0,4.34h0c0-.11,0-.22,0-.33,0-.54,0-1.08,0-1.63,0-1.14,0-2.28,0-3.42v-.25c0-.12,0-.12,0,0,0,.38,0,.77,0,1.15Z"/></g><g class="cls-1"><path class="cls-2" d="M37.58,17.54a6.7,6.7,0,0,0,0,1c0,1.38,0,2.76,0,4.14a3.93,3.93,0,0,0,.15,1,7.28,7.28,0,0,1,.46,1.64V25.2c0,.4,0,.06,0-1,0,.37,0,.76,0,1.14,0,.11,0,.12,0,.05s0-.2,0-.3c0-1.14,0-2.28,0-3.42a9.16,9.16,0,0,0-.08-1.73c-.05-.21-.12-.43-.19-.64a5.32,5.32,0,0,1-.35-1.3v3.62c0,1.08,0,1.42,0,1v.09a1.1,1.1,0,0,1,0-.18,6,6,0,0,0,0-.73V17.88c0-.11,0-.23,0-.34Z"/></g><g class="cls-1"><path class="cls-2" d="M38.71,20.15a12.9,12.9,0,0,0,0,1.39c0,.09,0,.18,0,.28a4.82,4.82,0,0,0,.2.61,5,5,0,0,1,.35,1.2v-.09c0,.22,0,.05,0-.53V18.86a.49.49,0,0,1,0,.12,4.48,4.48,0,0,0,0,.73c0,.59,0,1.18,0,1.77s0,1.18,0,1.77v.39c0,.11,0,.23,0,.34a8.29,8.29,0,0,0,0-1.22c0-.93,0-1.85,0-2.78,0-.4,0-.8,0-1.2a2.7,2.7,0,0,0-.15-.8,6.45,6.45,0,0,1-.44-1.48v1.12c0-.38,0-.77,0-1.15,0-.1,0-.12,0,0s0,.2,0,.3c0,1.14,0,2.28,0,3.42Z"/></g><g class="cls-1"><path class="cls-2" d="M39.6,20.81A4.12,4.12,0,0,1,39.87,22v-.08a1.09,1.09,0,0,0,0,.18v0c0-1.25,0-2.5,0-3.75q0,1.77,0,3.54v.39c0,.11,0,.22,0,.34v-.09c0-.22,0-.43,0-.64,0-1.46,0-2.91,0-4.36,0-.22,0-.45,0-.67a4,4,0,0,0-.26-1,1.48,1.48,0,0,0,0,.21c0,.17,0,.35,0,.52,0,.59,0,1.18,0,1.77s0,1.18,0,1.76v.4a2,2,0,0,0,0,.34Z"/></g><g class="cls-1"><path class="cls-2" d="M40.75,21.67l.29.58a1.55,1.55,0,0,0,0-.22c0-.17,0-.34,0-.51,0-.59,0-1.18,0-1.77s0-1.18,0-1.77v-.39c0-.11,0-.23,0-.34l-.29-.58c0,.07,0,.15,0,.22s0,.34,0,.51v3.93c0,.12,0,.23,0,.34Z"/></g><g class="cls-1"><path class="cls-2" d="M25.74,20.19c0,1.07,0,2.15,0,3.22,0,.53,0,1.07,0,1.6a3.68,3.68,0,0,0,.07.58c.06.33.15.66.23,1,0-.07,0-.15,0-.22s0-.34,0-.51V21.92c0-.12,0-.23,0-.34a8.24,8.24,0,0,1-.28-1.38v0q-.07-2.23,0,4.35c0-1.14,0-2.29,0-3.43,0-.38,0-.76,0-1.14v-.09a1.9,1.9,0,0,0,0,.34Z"/></g><g class="cls-1"><path class="cls-2" d="M28.06,24.56c.51.5.32,1.53,1.15,1.73,0,0,0-.85,0-.73,0-.59,0-1.18,0-1.77s0-1.18,0-1.77v-.39a1.93,1.93,0,0,0,0-.34c-.83-.2-.64-1.23-1.15-1.73a1.48,1.48,0,0,0,0,.21c0,.18,0,.35,0,.52,0,.59,0,1.18,0,1.77s0,1.18,0,1.77v.39c0,.11,0,.22,0,.34Z"/></g><g class="cls-1"><path class="cls-2" d="M31.81,18.12a8,8,0,0,0,0,1c0,1,0,2,0,3,0,.4,0,.81,0,1.22a3,3,0,0,0,.13.79,3.31,3.31,0,0,0,.75,1.28,1.48,1.48,0,0,0,0-.21c0-.17,0-.35,0-.52,0-.59,0-1.18,0-1.77s0-1.18,0-1.76v-.4c0-.11,0-.22,0-.34a3.22,3.22,0,0,1-.87-1.87v.09a.22.22,0,0,1,0-.08,4.41,4.41,0,1,0,0,.54v3.53c0,.58,0,.76,0,.56v0a.34.34,0,0,1,0-.1c0-.24,0-.5,0-.74V18.46c0-.12,0-.23,0-.34Z"/></g><g class="cls-1"><path class="cls-2" d="M35.85,23.12a5,5,0,0,1,.86,1.73,1.7,1.7,0,0,0,0-.22c0-.17,0-.34,0-.52,0-.58,0-1.17,0-1.76s0-1.18,0-1.77v-.39c0-.12,0-.23,0-.34a5,5,0,0,0-.86-1.73,1.48,1.48,0,0,0,0,.21c0,.17,0,.35,0,.52,0,.59,0,1.18,0,1.77s0,1.17,0,1.76v.39c0,.12,0,.23,0,.35Z"/></g><g class="cls-1"><path class="cls-2" d="M34.2,78.84a7.67,7.67,0,0,0,4.18.73,23.55,23.55,0,0,0,5.31-.12,21.22,21.22,0,0,0,2.45-.92C47,78.2,48,78,48.83,77.6a13.22,13.22,0,0,0,2.32-1.08,7.31,7.31,0,0,0,.89-.69c.14-.12.27-.23.42-.34.41-.27.21-.24-.62.08l-.26-1a29.25,29.25,0,0,1-4.36,2l1.86.38c.88-1.16,2-2,2.86-3.21a10.93,10.93,0,0,0,.82-2,2.2,2.2,0,0,0,.36-1.63c-.19-.89-2.45.1-2.77.44a7.35,7.35,0,0,0-.75.92c-.28.4,0,.54.41.62,1.48.29,3.35-.84,4.48-1.73a8.62,8.62,0,0,0,1.66-2,4,4,0,0,1,.88-1c.34-.25.67-.33.92-.7.62-.92-2.21-.55-2.66.1.37-.15.42-.17.15,0l-.37.17a3.83,3.83,0,0,0-.73.54A9.78,9.78,0,0,0,53.18,69,5.16,5.16,0,0,1,52,70.4c-.2.13-.43.23-.64.35l-.27.17c-.46.25-.21.23.77-.07l.41.61a8.05,8.05,0,0,1,.74-.92L50.22,71c.16.71-.25,1-.46,1.57-.12.32-.08.67-.22,1a5.21,5.21,0,0,1-.64.94c-.72,1-1.73,1.68-2.48,2.65s1.58.49,1.86.39c.85-.31,1.66-.62,2.5-1s1.69-.88,2.53-1.35.67-1-.26-1a5.55,5.55,0,0,0-3.45,1.53c-1.19,1-2.85,1.34-4.29,1.82a9.39,9.39,0,0,1-1.93.72,18,18,0,0,1-2.2-.06c-1.4,0-3,.29-4.26-.43a2.31,2.31,0,0,0-1.89.08c-.16.07-1.34.67-.83,1Z"/></g><g class="cls-1"><path class="cls-2" d="M30,74c.34,0,2.23-.46,2.2-.28s-.9.6-1.07.72-.62.38-.68.67a.13.13,0,0,0,.05.21,13.51,13.51,0,0,0,2.48.46l-.11-.4c-.34.31-.8.46-1.16.76s-.16.34.1.4c1,.22,2-.07,3,.12s2.21.57,3.36.72a12.27,12.27,0,0,0,6.46-1c2.09-.91,3.59-2.65,5.19-4.22.76-.74,1.51-1.51,2.26-2.26a5.88,5.88,0,0,0,1.58-2.13c.22-.63-2.45.15-2.73.41s-.81.72-1.2,1.1c-.09.08-.25.25-.07.34,1.53.82,4-.58,5.31-1.26,1.08-.53.3-.8-.54-.62a19.66,19.66,0,0,1-4,.54,3.85,3.85,0,0,0-2,.55c-.4.28-.46.55.15.55h3a3.87,3.87,0,0,0,2-.55c.4-.29.46-.55-.15-.55h-3l-1.9,1.1a26.25,26.25,0,0,0,5.29-.68l-.54-.62-.79.4-.52.24q-.59.21.39-.06l-.07.35c.4-.38.82-.73,1.21-1.1l-2.73.4c-.44,1.31-1.78,2.31-2.73,3.27a43.69,43.69,0,0,1-3.92,3.78c-1.61,1.26-3.41,1.07-5.32.66a20,20,0,0,0-2.16-.53,23,23,0,0,1-2.49,0l.1.4c.37-.3.82-.44,1.17-.76s.17-.34-.1-.4c-.49-.09-1.34,0-1.74-.19s-.36.07,0-.29.93-.56,1.32-.92a.28.28,0,0,0,.14-.26c-.61-1.18-3-.2-3.83-.12-.49.05-1.65.21-1.94.67s.26.44.66.4Z"/></g><g class="cls-1"><path class="cls-2" d="M16.22,36.52a.34.34,0,0,1,.12-.12l-.48.31.08,0L14.83,37h.07l-.67,0h.06L13.86,37c.26.12.06.59,0,.74-.23.33-.51.56-.53,1a1.28,1.28,0,0,0,.63,1,1.24,1.24,0,0,1,.55,1.06,4.86,4.86,0,0,0,.18,1.37,1.78,1.78,0,0,0,.86.93c.84.57.73,1.57.72,2.47,0,.48,2.89.08,2.9-.78A5.65,5.65,0,0,0,19,43.16a2.23,2.23,0,0,0-1-1.22c-.52-.33-.58-.81-.65-1.4A2.48,2.48,0,0,0,17,39.08c-.28-.35-.94-.6-.87-1.14,0-.38.48-.61.63-1,.23-.58,0-1.06-.64-1.11A3.26,3.26,0,0,0,13.35,37c-.3.45,1.06.33,1.17.3a2.64,2.64,0,0,0,1.7-.8Z"/></g><g class="cls-1"><path class="cls-2" d="M41.29,22.57a18.71,18.71,0,0,0-2.69,3.2c-.37.6.32,1.05.85,1.09a2.14,2.14,0,0,0,1.9-.86c.19-.28.37-.57.56-.86L42,25c.17-.25-.15.18,0-.05a4.51,4.51,0,0,1,.37-.39l-2.39-.71-.11.11c-.11.14,0,0,.09-.06a2.2,2.2,0,0,0-.25.17s.29-.15.12-.07l-.17.08-.29.13a5.52,5.52,0,0,0-1.3.72c-.29.23-.57.46-.87.67l-.26.17s-.25.15,0,0,.06,0,0,0a.45.45,0,0,0-.12.06c-.14.08.34-.12.19-.07s.41,0,.1,0a2.18,2.18,0,0,0-1.1.39,1.2,1.2,0,0,0-.52.71c0,.72.77.85,1.31.83a5.61,5.61,0,0,0,3.08-1.53l.2-.15.12-.09c.14-.1-.31.16-.1.05l.63-.28a4.48,4.48,0,0,0,1.66-1.12.82.82,0,0,0,.25-.74.83.83,0,0,0-.59-.52,2.21,2.21,0,0,0-2.05.55,11.17,11.17,0,0,0-1.45,2l2.75.23.26-.4.08-.11.09-.12c.19-.24.38-.48.59-.71.42-.48.86-.93,1.31-1.38a.82.82,0,0,0,.25-.74.8.8,0,0,0-.59-.52,2.18,2.18,0,0,0-2.05.55Z"/></g><g class="cls-1"><path class="cls-2" d="M22.28,29.34c-.18.18-.38.34-.57.52a3.77,3.77,0,0,0-.43.46,2.29,2.29,0,0,0-.3.5.39.39,0,0,0,.1.37.87.87,0,0,0,.46.2,2,2,0,0,0,.69,0,3,3,0,0,0,.77-.2c.15-.08.32-.15.47-.25s.28-.2.42-.3l.38-.29-.27.19a2.38,2.38,0,0,1,.3-.18l-.32.16.12-.05-.38.13.09,0-.39.08h.08l-.37,0h.07l-.32,0,.08,0-.26-.08.08,0-.29-.5-.21.5a.3.3,0,0,0,0,.29.42.42,0,0,0,.24.21,1.28,1.28,0,0,0,.43.1,1.81,1.81,0,0,0,.52,0,2.81,2.81,0,0,0,1.1-.37l.27-.19a.9.9,0,0,0,.29-.4l.2-.5a.28.28,0,0,0-.05-.29.36.36,0,0,0-.24-.21,1.16,1.16,0,0,0-.41-.13,2.57,2.57,0,0,0-.83,0,4.17,4.17,0,0,0-1.41.5,10.56,10.56,0,0,0-1,.69l.26-.19-.19.12.33-.17h0l2,.38,0,0-.11.21a1.52,1.52,0,0,1,.26-.35l-.19.2c.23-.25.5-.44.74-.68s.35-.37.29-.61a.33.33,0,0,0-.2-.23.65.65,0,0,0-.36-.15,2.48,2.48,0,0,0-1.08.07l-.37.13a2.25,2.25,0,0,0-.6.35Z"/></g><g class="cls-1"><path class="cls-2" d="M14.78,51.3c.14.63.77.84,1.29,1.08l-.18-.08a1.41,1.41,0,0,1,.54.4l-.09-.13a1,1,0,0,1,.14.58V53a1.08,1.08,0,0,1-.18.49l.11-.17c-.19.28-.5.49-.63.81s.2.8.52,1a1.29,1.29,0,0,0,.75.13,3.63,3.63,0,0,0,1.13-.25c.2-.08,1.29-.57.84-.91a1.81,1.81,0,0,1-.37-.36l.08.12a.46.46,0,0,1-.09-.3l0,.15a.64.64,0,0,1,.08-.19l-.11.16c.13-.18.3-.33.44-.51a1.38,1.38,0,0,0,.33-1c-.05-.7-.76-.94-1.3-1.19l.18.09a1.55,1.55,0,0,1-.54-.41l.09.12a.79.79,0,0,1-.12-.3c-.05-.19-.39-.24-.53-.26a3.15,3.15,0,0,0-1.06.12,3.24,3.24,0,0,0-1,.43c-.14.11-.37.28-.32.49Z"/></g><g class="cls-1"><path class="cls-2" d="M37.47,49.42a2,2,0,0,0-.51-.53,3.81,3.81,0,0,0-.45-.23l-.11,0a2.09,2.09,0,0,0-.36-.08,2.21,2.21,0,0,0-1.15.21,2.16,2.16,0,0,0-.77.54,1.2,1.2,0,0,0-.32.67,1.17,1.17,0,0,0,.07.46,2.13,2.13,0,0,0,.26.44,3.68,3.68,0,0,0,.43.45,2.1,2.1,0,0,1,.37.42l-.12-.23a.08.08,0,0,1,0,0l.82-1.2h0l.38-.14a.42.42,0,0,1-.15,0l.39-.06h.2a1.15,1.15,0,0,1-.26,0l.34.07a4.32,4.32,0,0,1-.51-.16,4.43,4.43,0,0,0-.8-.19,1.36,1.36,0,0,0-.57,0,1.69,1.69,0,0,0-.58.17,1.23,1.23,0,0,0-.44.3,1.12,1.12,0,0,0-.31.37l-.08.26a.66.66,0,0,0,.13.51,1.26,1.26,0,0,0,.82.38l.1,0L34,51.87c.27.06.52.18.79.25a4.26,4.26,0,0,0,.49.1,3.41,3.41,0,0,0,.55,0A3.12,3.12,0,0,0,36.91,52l.32-.19a1,1,0,0,0,.34-.35.5.5,0,0,0,.13-.26.55.55,0,0,0,0-.4,1.61,1.61,0,0,0-.54-.73,2.78,2.78,0,0,1-.54-.64l.12.24a.48.48,0,0,1-.05-.17v.27s0-.07,0-.1l-.08.27,0-.06-.18.25.05-.05-.25.22.07,0-.32.18.1,0-1.47.13.13,0-.28-.13a1.07,1.07,0,0,1,.25.16l-.21-.18a1.49,1.49,0,0,1,.23.27.71.71,0,0,0,.34.25,1,1,0,0,0,.47.14,1.79,1.79,0,0,0,.57,0,2,2,0,0,0,.58-.17,1.56,1.56,0,0,0,.74-.67l.09-.27a.69.69,0,0,0-.13-.5Z"/></g><g class="cls-1"><path class="cls-2" d="M22.12,61.18a12,12,0,0,0,1.2-.38s.48-.16.28-.1-.1,0,0,0a1.09,1.09,0,0,1-.26.05l.25,0h.07l.51,0h.71a14.74,14.74,0,0,0,1.62.25H27c-.32,0,.09,0,.15,0h0c.08,0,.11,0,.07,0a1.86,1.86,0,0,1,.28.21c.14.13.59.1.74.09a4.4,4.4,0,0,0,1.13-.25c.23-.09,1.22-.47.86-.84a1.45,1.45,0,0,0-.75-.35,2.6,2.6,0,0,0-.56-.06h-.83c.09,0,.1,0,0,0l-.24,0a6.72,6.72,0,0,0-1.09-.19,12,12,0,0,0-2.32,0,8.34,8.34,0,0,0-1.84.43l-.47.16s-.37.11-.16.06-.16,0-.16,0c-.3.07-1.42.39-1.33.85s1.38.11,1.57.07Z"/></g><g class="cls-1"><path class="cls-2" d="M45.36,61.11a3.77,3.77,0,0,1,0,.58.55.55,0,0,1,0,.17c-.06.18,0,.12.28-.2,0-.1-.72.63-.78.73s-.24.48-.36.73a1.29,1.29,0,0,1-.09.16l-.12.16a1.36,1.36,0,0,1,1-.41l1.13.17c-.43-.44,0-1.28.09-1.78a18.58,18.58,0,0,0,0-2.89A2,2,0,0,1,47,57c.23-.29.46-.58.71-.86a3.27,3.27,0,0,1,.64-.61c.18-.12.88-.61.47-.89a2.28,2.28,0,0,0-1.41-.4,2.55,2.55,0,0,0-1.93.76c-.4.54.35.72.76.72q-.28-.07-.12,0l.47-.89a7.94,7.94,0,0,0-1.75,1.57A5,5,0,0,0,43.71,58a7,7,0,0,0-.07,2.05,9.17,9.17,0,0,1-.12,2.22,2.15,2.15,0,0,0,0,1.84c.38.53,1.21.38,1.76.23a3.43,3.43,0,0,0,1.39-.69,2.53,2.53,0,0,0,.62-.86c.06-.1.29-.61.3-.61-.26.18-.31.22-.16.13a4,4,0,0,0,.34-.23,1.42,1.42,0,0,0,.42-.58,3.34,3.34,0,0,0,0-1.18c0-.21-.41-.31-.54-.33a2.62,2.62,0,0,0-1.08.09c-.46.13-1.3.42-1.28,1Z"/></g><g class="cls-3"><path class="cls-2" d="M13.9,32.76c-2.27,5.41-3.05,15.6.45,22.11l-1-3.79c.31,4.2,2.53,7.36,4.58,10.76,2.2,3.65,3.07,8,6.44,10.91L29.66,60q2.93,2,.9-.13L20,70.43c1.86,2,1.92,5.06,4.73,6.71,1.48.87,3,.61,4.55,1.2a18.8,18.8,0,0,1,2.93,1.86C36.81,83,43,81.28,47.58,79.33a19.52,19.52,0,0,0,9.93-9.66c1.83-4.35,2.26-11.34-.71-15.32l1,3.78c-.51-5.71-2.59-11.26-4.14-16.49S51,30.24,47.74,26.73c-4.14-4.51-12-2.3-17.25-1.43-3.4.57-6.17.58-8.45,3.64s-2,6.59-1,9.94c.9,2.82,2,5.59,2.81,8.45,1,3.74,1.27,7.55,2.82,11.14C29.13,64.06,33,70.88,39.78,71.3A9.4,9.4,0,0,0,48.41,67c2.05-3.44.89-7.52.18-11.14-1.26-6.51-2.77-13.09-4.24-19.56L39.12,45.5l.16,0c9.23-2.76,5.3-17.24-4-14.47l-.17.05a7.66,7.66,0,0,0-5.24,9.23c1.5,6.6,3.6,16,5,23.68V60l-.22,1.23,3.45-4.48-1,.69,3.79-1c2.63,2.17,3.45,2.58,2.45,1.2a10.43,10.43,0,0,0-.93-1.28A19.85,19.85,0,0,1,41,53.55,31.29,31.29,0,0,1,39,46.93C38,42.08,35.75,37.4,35,32.54v4c-.4,2-7.81,4.21-2,3.44l2.19-.3a51,51,0,0,1,6.76-.59l-5.31-2.2c-1.24-2.45-1.49-2.87-.77-1.24.41,1,.5,1.19.28.67.29.85.44,1.74.74,2.58.49,1.36,1.37,2.48,1.89,3.78.31.81-1-2.65.17.8a111.67,111.67,0,0,1,3.84,14c.45,2.19,1.25,4,1.14,5.35,0,.38-.56,1.32-.42,1.64-.37,1-.12.58.76-1.27l-1.17,1.52c-.09-.11-3,2.42.36.28a16.88,16.88,0,0,1-3,1.19c-1.57.57,4.74-1.23-1.13,0-1.13.23-2.2.63-3.32.9h4c-1.24-.19-2.88-1.69-4.23-2.28a18.92,18.92,0,0,0-5.24-1.36L35,66.88c-1.68-2.36-2.26-4.79-4.4-7.06C23.79,52.64,14.08,63.07,20,70.43c2.42,3,5.72,4.91,9.7,4.52,5.8-.58,10.73-8.17,5.3-12.81-1.58-1.35-2.5-5.38-3.74-7.37-.91-1.48-2.45-4-3.84-6.48l1,3.79c-.28-3.8-1.27-4.89-1.21-8.19.06-2.93,0-4.43,1.17-7.14,1.58-3.77-1.7-8.22-5.23-9.23-4.31-1.23-7.67,1.52-9.23,5.24Z"/></g><g class="cls-4"><path class="cls-5" d="M26.33,33.41a2.67,2.67,0,0,1-.4,0l.66.09a14.52,14.52,0,0,0-2.09-.38c-.62,0-1.23,0-1.85,0l.67.09A12.92,12.92,0,0,0,21.68,33a4.15,4.15,0,0,0-2.14.61,3.85,3.85,0,0,0-1.33,1.33,9.8,9.8,0,0,0-.55,1.29l.25-.6a8.74,8.74,0,0,0-.61,1.64,9.45,9.45,0,0,0-.21,2A7.4,7.4,0,0,0,18,42.73a3.94,3.94,0,0,0,3.75,2.06c1.1,0,2.2,0,3.3,0,1.28,0,2.65.22,3.81-.46a3.44,3.44,0,0,0,1.61-2.23,11.26,11.26,0,0,0,.08-1.92,7,7,0,0,0,0-1.94,6,6,0,0,0-.59-1.46,3.68,3.68,0,0,0-3.24-2.26,5.65,5.65,0,0,0-3.19,1,4.52,4.52,0,0,0-2.26,3.56,2.52,2.52,0,0,0,2.5,2.5,2.55,2.55,0,0,0,2.5-2.5.57.57,0,0,1,0-.13l-.09.67a.84.84,0,0,1,.08-.27L26,40a2,2,0,0,0,.11-.2c.09-.13.06-.09-.1.12s-.2.25-.09.12a3.51,3.51,0,0,0,.4-.37c-.07.1-.57.41-.2.16l.25-.15a5.2,5.2,0,0,1,.53-.26l-.6.25A3.55,3.55,0,0,1,27,39.4l-.66.09a1.69,1.69,0,0,1,.45,0l-.67-.09.19.05-.6-.25c.37.16-.43-.4-.24-.19,0,0-.39-.57-.22-.29l.13.21a7.94,7.94,0,0,1,.39.77l-.26-.6a1.64,1.64,0,0,1,.13.43l-.08-.67a8.58,8.58,0,0,1,0,1.34c0,.4.05.8,0,1.2l.09-.67a1.68,1.68,0,0,1-.09.32l.25-.6c-.12.22-.05.14.2-.22s.44-.32.23-.21l.59-.25a1.92,1.92,0,0,1-.32.09l.66-.09a9.69,9.69,0,0,1-1.32,0H24.11c-.57,0-1.13,0-1.7,0a9.93,9.93,0,0,1-1.22,0l.67.08a1.46,1.46,0,0,1-.41-.11l.6.26c-.36-.19.42.39.19.16.48.48.31.43.17.19a4.37,4.37,0,0,1-.31-.61l.25.6a4.72,4.72,0,0,1-.3-1.1l.09.66a6.35,6.35,0,0,1,0-1.63l-.09.67a4.3,4.3,0,0,1,.29-1.12l-.25.6c.21-.46.39-.94.59-1.41l-.25.6c.13-.3.38-.42-.14.1.22-.22-.27.23-.28.21a2.25,2.25,0,0,1,.31-.16l-.6.25a1.82,1.82,0,0,1,.38-.11l-.66.08h.46l-.66-.09a14.56,14.56,0,0,0,1.86.24c.53,0,1.07-.05,1.6,0L24.05,38a10.35,10.35,0,0,0,2.28.38,2.67,2.67,0,0,0,1.76-.74,2.49,2.49,0,0,0-1.76-4.26Z"/></g><g class="cls-4"><path class="cls-5" d="M37.29,24.17a27,27,0,0,0-3.24,0,8.09,8.09,0,0,0-3.28,1.24,28.4,28.4,0,0,0-2.64,1.85,4.88,4.88,0,0,0-2.23,3.21,5.08,5.08,0,0,0,.79,3.41,4.45,4.45,0,0,0,3.43,1.87,7.31,7.31,0,0,0,3.79-.52,5.39,5.39,0,0,0,1.38-1c.22-.22-.54.32-.12.1l.24-.12a4.89,4.89,0,0,0,1.08-.73,5.52,5.52,0,0,0,1.2-1.7c.1-.18.26-.19-.13.17a3,3,0,0,0,.23-.27A3.14,3.14,0,0,0,38.6,30a3.26,3.26,0,0,0-1.25-3,3.69,3.69,0,0,0-1.26-.65,4.22,4.22,0,0,0-1.77,0,2.51,2.51,0,0,0-1.5,1.15,2.6,2.6,0,0,0-.25,1.93,2.53,2.53,0,0,0,1.15,1.49,2.85,2.85,0,0,0,1.93.25h.11l-.67.09h.22l-.66-.09c.18.05.15,0-.08-.06s-.25-.12-.09,0a1.76,1.76,0,0,1-.75-.93l-.09-.66a.59.59,0,0,1,0,.23l.09-.67a1.32,1.32,0,0,1,.31-.57c.15-.18.18-.22.09-.13l-.2.24a6.26,6.26,0,0,0-.71,1l-.13.26c0,.07-.3.43,0,.12s.14-.18,0,0l.29-.22c0,.07-.22.13-.29.16a7.29,7.29,0,0,0-1.45,1c-.08.07-.38.32,0,.05s0,0-.07,0,.57-.17.18-.1l-.45.09.66-.09a8.61,8.61,0,0,1-1.83,0l.66.09-.3-.05c-.29-.08-.26-.2.24.13l-.19-.11c-.22-.12.55.48.23.15s.36.57.19.24,0-.28.07.21c0-.25-.15-.48-.2-.73l.09.66a2.27,2.27,0,0,1,0-.52l-.09.66a2.86,2.86,0,0,0,.07-.28c-.2.44-.24.56-.12.34l.05-.09c-.23.54-.32.39-.11.18a3.53,3.53,0,0,0,.28-.25c-.32.24-.36.28-.15.11l.13-.09.39-.3.86-.63c.5-.35,1-.67,1.55-1l.69-.37c.22-.11-.64.23-.13.07a3.63,3.63,0,0,1,.45-.1l-.67.09a25,25,0,0,1,3.24,0,2.52,2.52,0,0,0,2.5-2.5,2.55,2.55,0,0,0-2.5-2.5Z"/></g><g class="cls-4"><path class="cls-5" d="M38.73,34.56l-.72,0-.31,0c-.33,0,.54.09.22,0a10.25,10.25,0,0,0-1.72-.27,3.93,3.93,0,0,0-3.55,1.81,4.34,4.34,0,0,0-.42,1,1.39,1.39,0,0,0-.09.35c0,.3.26-.43.09-.19a5,5,0,0,0-.75,1.36,10.6,10.6,0,0,0-.16,3.08,6.12,6.12,0,0,0,.6,3.48,6,6,0,0,0,3,2.41,6.4,6.4,0,0,0,.62.2l.3.08c.49.12-.21-.05-.19-.08a7.25,7.25,0,0,0,1.52.68,22.57,22.57,0,0,0,3.29.08,4,4,0,0,0,3.17-.9,4,4,0,0,0,1-3.43,16.35,16.35,0,0,0-1.41-4.83,5.09,5.09,0,0,0-4.74-3.2,5.42,5.42,0,0,0-4.84,3.91c-.6,2.39,1,5.73,3.59,6.09a4,4,0,0,0,3.38-1.27A3.09,3.09,0,0,0,41.49,42,3.23,3.23,0,0,0,40,40.1a2.52,2.52,0,0,0-3.42.89,2.56,2.56,0,0,0,.9,3.42,1.94,1.94,0,0,1-.81-1.11v-.56a1,1,0,0,1,.1-.78c.18-.42.12-.26.06-.17.36-.6.38-.45.23-.31s-.22.19.12-.07-.06,0-.07,0,.56-.24.37-.17c0,0-.11,0-.13,0s.62-.06.44-.06.54.08.45.07-.2-.22.36.15c0,0,.44.41.3.24l-.12-.12c-.25-.21.16.23.17.24-.16-.1-.29-.47-.38-.64-.19-.35.2.62.06.12a1.41,1.41,0,0,1-.09-.32s0,.62,0,.39a1,1,0,0,0,0-.17c0-.09,0-.35,0,.11s0,.2,0,.12a.58.58,0,0,0,.05-.16c0-.25-.11.39-.15.33a1.74,1.74,0,0,1,.23-.39s-.39.44-.22.28a1.42,1.42,0,0,0,.12-.13s.2-.25.25-.24-.5.33-.27.21l.15-.09.2-.12c.31-.18-.29.14-.28.12s.29-.08.33-.09.34-.06-.11,0-.2,0-.11,0h.17c.22,0-.4,0-.39-.06l.16,0c.28.08-.54-.31-.23-.11l.27.17s-.43-.39-.3-.22a1.31,1.31,0,0,0,.12.11s.22.2.21.24-.32-.52-.22-.28a1.25,1.25,0,0,0,.16.24c.12.21.22.42.32.64.19.37-.2-.54-.06-.15l.15.4c.16.48.29,1,.43,1.44.06.21.12.42.17.63s0,.23.07.34c.08.38-.06-.63,0-.09,0,.15,0,.3,0,.45,0,.41.14-.56,0-.21a1.83,1.83,0,0,1,.79-1c-.05,0,.61-.21.38-.16s.62,0,.37,0a11.17,11.17,0,0,0-1.53,0l-1.09,0h-.5c-.08,0-.37,0,0,0s-.24-.13.23,0,0,0-.08-.09a5.28,5.28,0,0,0-.87-.4,5.71,5.71,0,0,0-1-.3c-.26-.06.22.09.23.1a.61.61,0,0,0-.18-.09l-.36-.22c-.27-.16.39.35.17.13l-.16-.14s-.09-.11-.14-.15c-.21-.21.29.42.15.17s.13.3.1.29-.05-.18-.06-.21c-.11-.25.06.35,0,.31s0-.17,0-.22a9.42,9.42,0,0,1,0-1.06c0-.34,0-.68,0-1s0-.41,0-.61v-.23c0-.34,0,.13,0,.23,0-.09.12-.33,0,.06s-.06.14,0,.06l.24-.31A4.79,4.79,0,0,0,37,38.47a1,1,0,0,0,.06-.21,1.3,1.3,0,0,1-.36.66s-.49.34-.28.22-.55.22-.28.12c.1,0,.39-.08-.05,0s-.14,0,0,0h.17c.35,0-.29,0-.32-.05s.41.09.5.11c.35.07.7.11,1,.15a10.49,10.49,0,0,0,1.25.08,2.52,2.52,0,0,0,2.5-2.5,2.55,2.55,0,0,0-2.5-2.5Z"/></g><g class="cls-4"><path class="cls-5" d="M45,24.84a6.91,6.91,0,0,0-3.39,2A6.31,6.31,0,0,0,39.69,31a6.57,6.57,0,0,0,1,4.35,8.84,8.84,0,0,0,3.41,2.86c1.52.76,3.06,1.75,4.83,1.25s2.54-2.34,2.52-4a10.55,10.55,0,0,0-.75-3.68,8.41,8.41,0,0,0-2.81-4.07,3.61,3.61,0,0,0-3.68-.22,3.4,3.4,0,0,0-1.63,3,5.72,5.72,0,0,0,.87,2.81c.15.27.3.55.47.82l-.18-.4a.79.79,0,0,1,.06.22c-.05-.47-.06-.57,0-.29,0,.1,0,.2,0,.31a2.5,2.5,0,0,0,5,0,4.93,4.93,0,0,0-.23-1.67,10.67,10.67,0,0,0-.76-1.51l-.18-.33c-.22-.45.09,0,0,.09a2.33,2.33,0,0,1-.09-.29s.05.65,0,.24,0,.26,0,.29a1.79,1.79,0,0,1-.45.76l-.87.51c-.48,0-.62.05-.41.06s.08,0-.35-.05q.3.09,0,0l-.17-.06c-.3-.25-.38-.32-.24-.19s.1.27-.08-.14a3,3,0,0,0,.32.47A11.59,11.59,0,0,1,46,33.42c.16.33-.2-.59,0-.05,0,.11.08.21.11.32s.13.43.19.64.09.47.13.7c.08.44-.08-.77,0-.1,0,.31,0,.61,0,.92,0-.67.1-.54,0-.3,0,.07,0,.13,0,.19-.07.29.32-.61.11-.3l.28-.36c.4-.28.5-.36.29-.24a2.08,2.08,0,0,1,.85-.24c-.28,0-.06-.15.25,0a1.49,1.49,0,0,0-.3-.09c-.5-.12.39.21.11.05-.45-.25-.92-.48-1.38-.71s-.8-.45-1.19-.7.48.42.1.08l-.23-.19c-.18-.17-.32-.39-.51-.54.05,0,.34.5.13.15l-.15-.24c0-.07-.28-.47-.05-.1s0,.09,0,0c-.1-.39.12-.1,0,.16a1.55,1.55,0,0,0,0-.31c0-.25,0-.5,0-.76a2.53,2.53,0,0,0,0-.28c0-.49-.13.61,0,.14l.06-.26c0-.09,0-.18.08-.26l-.14.33a3.1,3.1,0,0,0,.35-.61c-.22.49-.36.43-.2.26l.24-.25.48-.43c.36-.32-.41.28-.13.1l.33-.23.22-.13c.1-.05.53-.25.09-.07s-.14.05,0,0l.33-.08a2.48,2.48,0,0,0,1.5-1.15,2.51,2.51,0,0,0-.9-3.42A3,3,0,0,0,45,24.84Z"/></g><g class="cls-4"><path class="cls-5" d="M28.09,48a7,7,0,0,0-6.2-1.52A4.62,4.62,0,0,0,19,48.55a8.08,8.08,0,0,0-1,3.82,5.34,5.34,0,0,0,1.84,3.78,10.16,10.16,0,0,0,2.52,2,8.76,8.76,0,0,0,4.22.49,12,12,0,0,0,3.64-.23,4.13,4.13,0,0,0,2.93-3.64,7.63,7.63,0,0,0-.24-3,9.33,9.33,0,0,0-2.1-3.43,12.27,12.27,0,0,0-1.53-1.25l-.61-.43-.34-.24c-.15-.11-.09-.07.17.14l-.19-.17a6.5,6.5,0,0,0-1.59-1.26,6.7,6.7,0,0,0-2.34-.53c-.37,0,.62.09.21,0a7,7,0,0,0-.75-.1,3,3,0,0,0-.94.12A4.22,4.22,0,0,0,21,45.93a5.16,5.16,0,0,0-1.15,4.63,6.66,6.66,0,0,0,1.87,3.18,5,5,0,0,0,3.7,1.4c.69,0,1.37,0,2.06,0,.47,0-.07,0-.12,0a.71.71,0,0,0,.22.05,5,5,0,0,0,1.09.19A2.83,2.83,0,0,0,31.31,54a3.25,3.25,0,0,0,0-3.17A3,3,0,0,0,28,49.5a3.58,3.58,0,0,0-2.1,1.59,2.51,2.51,0,0,0,.9,3.42,2.56,2.56,0,0,0,3.42-.9s-.45.5-.21.29a1.7,1.7,0,0,1-1,.47,1.06,1.06,0,0,1-1.14-.48,1.06,1.06,0,0,1-1-.7,2,2,0,0,1,.1-1.66l.9-.9c-.18.14-.18.08.47-.11s.71-.16.45-.15c.69,0,.57.09.27,0a9,9,0,0,0-1.28-.22c-.82-.09-1.65,0-2.48,0-.08,0-.34,0-.4,0s.62.14.37.05a.8.8,0,0,0-.21-.05c-.21,0,.35.11.35.16l-.14-.08c-.4-.25.35.37.1.09-.1-.11-.21-.21-.31-.33a1.07,1.07,0,0,0-.14-.16s.29.4.15.18-.2-.28-.28-.44-.06-.13-.1-.19c-.14-.24.14.48.1.22a1.17,1.17,0,0,0-.06-.2c-.12-.38,0,.18,0,.24a3.38,3.38,0,0,0,0-.45c0-.08,0-.38,0,0s.16-.23-.06.17,0,0,0,0l.08-.14-.19.25c.1,0,.25-.25.34-.33.31-.3-.18.13-.21.15s.26-.12-.16.06a2.54,2.54,0,0,1-.77.18c.08,0,.34,0-.16,0l.22,0,.56.07c.1,0,.64.07.2,0s-.09,0,0,0-.24-.11-.25-.11c.38.2-.29-.32,0,0,.16.16.31.32.48.46a12.72,12.72,0,0,0,1.24,1,7.82,7.82,0,0,0,.88.63c-.43-.22-.26-.21-.12-.08l.19.16a4,4,0,0,1,.36.35c.07.08.31.37.07.07s0-.07,0,0l.28.47c.17.29.32.59.48.89s-.13-.52,0,0c.05.23-.06-.35-.05-.35a2.62,2.62,0,0,1,0,.29c0,.29,0,.58,0,.88,0,.11,0,.23,0,.34,0,.3.13-.62,0-.34,0,.1-.12.34.05-.06s.08-.19,0-.11.39-.48.21-.28.46-.28.17-.14.25-.08.24-.08a1.57,1.57,0,0,0-.47.13s.51,0,.26,0h-.42c-.75,0-1.49,0-2.24,0-.4,0-.8,0-1.2,0l-.35,0c-.28,0,.22,0,.24,0a.79.79,0,0,0-.22,0c-.27,0,.4.22.19.09a2.57,2.57,0,0,0-.41-.26s.41.35.24.18l-.16-.14-.77-.69a4,4,0,0,1-.37-.34c-.08-.08-.39-.46-.16-.14s-.05-.09-.09-.17-.22-.39,0,0,0-.24.05.2,0,.11,0,0c0-.36,0,.12,0,.22,0-.2.06-.4.1-.59a5.23,5.23,0,0,1,.12-.54c0-.1.25-.75.09-.36s-.05.1,0,0c.22-.34-.19.22-.2.22l.15-.16c.21-.25-.23.24-.26.2s.64-.31.07-.08.06,0,.18,0c.48-.14-.52,0-.14,0,.16,0,.32,0,.48,0a1.62,1.62,0,0,1,.49,0c.05,0-.63-.12-.37,0l.24,0,.41.11.23.08c.34.11-.29-.11-.28-.12a1.8,1.8,0,0,1,.38.21l.13.09c.21.09-.51-.43-.23-.18A2.5,2.5,0,0,0,28.09,48Z"/></g><g class="cls-4"><path class="cls-5" d="M40.17,52.45a6.34,6.34,0,0,0-4.26,1.35,8.16,8.16,0,0,0-1.73,2.7A8.08,8.08,0,0,0,33,60.66a2.8,2.8,0,0,0,2.29,2.82,9.93,9.93,0,0,0,2.11,0,6,6,0,0,0,1.93-.32,6.87,6.87,0,0,0,2.18-1.39,9.07,9.07,0,0,0,2.37-3.49A10.73,10.73,0,0,0,44.43,55a10.24,10.24,0,0,0-.12-2.82,3.72,3.72,0,0,0-2.73-2.84,5,5,0,0,0-4.36,1.23,14.33,14.33,0,0,0-1.84,2,10.9,10.9,0,0,0-1.12,1.57,16.75,16.75,0,0,0-1.87,4.27c-.45,1.74-.49,3.9,1,5.19a5.54,5.54,0,0,0,3.74,1.08,4.62,4.62,0,0,0,2.67-.6l.28-.2c.55-.43.67-.53.36-.29s-.19.15,0,0l.32-.18c.27-.16-.62.25-.11,0a5,5,0,0,0,2-1.46A7.44,7.44,0,0,0,44,59.69a12.94,12.94,0,0,0,.45-4.16,2.5,2.5,0,0,0-5,0c0,.75-.06,1.5-.09,2.26,0,0,.1-.54,0-.27a1.57,1.57,0,0,0,0,.23,4.61,4.61,0,0,1-.15.53.88.88,0,0,0-.07.23s.22-.47.09-.24-.21.37-.32.56.12-.17.15-.17-.2.21-.24.25c-.28.36.37-.2.1,0s.64-.26.18-.06a7.1,7.1,0,0,0-1,.43,2.82,2.82,0,0,0-.36.24c-.19.14-.38.28-.56.43.54-.44.3-.21.17-.13l-.18.11c-.19.14.26-.12.27-.12s.63,0,.2,0h-.33l-1.07,0H36c-.34,0,.4,0,.39,0l-.12,0c-.26-.07-.11-.19.34.16l-.19-.11c.08,0,.58.53.28.19-.1-.12.43.6.24.28-.06-.09-.14-.3.05.14s.08.23.06.13a1,1,0,0,0-.05-.25c.07.06.05.77.06.35,0-.21,0-.41,0-.61-.05,1,0,.19.06-.1s.13-.47.2-.69.15-.44.24-.66l.06-.15c.13-.34-.12.3-.13.3l.18-.39q.28-.63.63-1.23c.18-.33.38-.65.59-1,0-.07.09-.13.13-.19.21-.31-.41.49-.24.3a6.33,6.33,0,0,0,.47-.56,14.61,14.61,0,0,1,1.23-1.38c.4-.39-.37.21,0,0,.1,0,.58-.29.15-.11s0,0,.13,0-.33.06-.35,0,.61,0,.07,0c-.38,0-.17,0-.09,0s-.61-.31-.33-.13c.06,0-.5-.41-.33-.24s-.3-.39-.25-.33.05.09.07.12c.14.24-.17-.59-.14-.32a2.33,2.33,0,0,0,.08.36c-.2-.73-.05-.42,0-.15a2.8,2.8,0,0,1,0,.41c0,.27,0,.54,0,.81s0,.5,0,.75l0,.62c0,.28,0-.25,0-.26a1.57,1.57,0,0,0-.09.4,5.52,5.52,0,0,1-.16.54c-.06.21-.19.21.08-.15a2.64,2.64,0,0,0-.15.29,6.32,6.32,0,0,1-.33.56l-.14.2c-.18.27.31-.33.08-.11s-.3.34-.46.49l-.18.17s-.44.36-.11.12-.17.09-.26.15c-.33.22.11-.05.19-.06a2.46,2.46,0,0,0-.29.09c-.26.09-.17-.1.2,0a1,1,0,0,0-.3,0l-.59,0a5.07,5.07,0,0,1-.55,0c-.12,0-.44,0,0,0s0,0-.06,0L38,60.32c-.12-.53,0,.51,0,0s-.15.49,0,0a3.21,3.21,0,0,1,.31-1c-.14.33-.16.37,0,.12l.07-.16.23-.46c.16-.3.32-.6.47-.91s.27-.44.37-.66-.46.48-.1.15c.15-.14-.57.34-.11.1s-.28.05,0,0l.23-.07c.21,0,.2,0,0,0-.43,0,.1,0,.21,0h.58a2.5,2.5,0,0,0,0-5Z"/></g><g class="cls-4"><path class="cls-5" d="M51.14,40.91a2.81,2.81,0,0,1-.41,0l.66.09c-.46-.08-.89-.26-1.34-.38a4.26,4.26,0,0,0-2.4,0,3.7,3.7,0,0,0-2.37,2.52,13.11,13.11,0,0,0-.34,2.26l.09-.66a11.38,11.38,0,0,0,0,4c.11.49.27.95.4,1.43s.18.79.31,1.18a3.6,3.6,0,0,0,1.59,2,5.43,5.43,0,0,0,2.22.65,4,4,0,0,0,2.2-.47,9.56,9.56,0,0,0,1.63-1.21l-.5.39a10.24,10.24,0,0,0,2.16-1.94A4.46,4.46,0,0,0,55.72,48c0-.27,0-.54,0-.81a5.35,5.35,0,0,0-.53-2c-.14-.28-.32-.53-.47-.8s-.23-.52-.37-.76a3.53,3.53,0,0,0-3.1-1.83,4.27,4.27,0,0,0-3.33,2,4.64,4.64,0,0,0-.67,2.82,4.54,4.54,0,0,0,.36,2.46,3.15,3.15,0,0,0,4.29,1.07A4.15,4.15,0,0,0,53.14,49a4,4,0,0,0,.79-2.12,2.5,2.5,0,0,0-4.27-1.77,2.84,2.84,0,0,0-.73,1.77V47l.09-.66a1.09,1.09,0,0,1,0,.17l.25-.6a1.48,1.48,0,0,1-.19.35l.39-.51a1.71,1.71,0,0,1-.38.38l.51-.39-.26.15.6-.25-.27.07.66-.09a.55.55,0,0,1-.18,0l.66.09-.16,0,.6.25-.06,0,.5.39-.09-.09.39.5a.35.35,0,0,1-.07-.12l.26.6a.74.74,0,0,1,0-.14l.09.66a5.08,5.08,0,0,1,0-.78c0-.35,0-.7,0-1.06l-.09.67a2.13,2.13,0,0,1,.13-.43l-.25.59a3.21,3.21,0,0,1,.19-.31l-.39.51a2.79,2.79,0,0,1,.51-.52l-.5.39a1.92,1.92,0,0,1,.31-.18l-.6.25a1.43,1.43,0,0,1,.34-.09l-.66.09a.89.89,0,0,1,.23,0l-.66-.09.19.06-.6-.25a.51.51,0,0,1,.16.09L50,46.18a1.21,1.21,0,0,1,.2.19l-.39-.5a5.66,5.66,0,0,1,.49.91c.18.35.42.67.58,1l-.26-.59a2.39,2.39,0,0,1,.12.46L50.66,47a9.89,9.89,0,0,1,0,1.72l.09-.67a1.79,1.79,0,0,1-.09.4l.26-.6a2.4,2.4,0,0,1-.23.38l.39-.5a4.24,4.24,0,0,1-.62.57l.51-.4-1.72,1.33.51-.39a3.33,3.33,0,0,1-.62.38l.59-.25a1.93,1.93,0,0,1-.34.11L50.1,49a2.44,2.44,0,0,1-.54,0l.66.09a4.1,4.1,0,0,1-.78-.22l.6.25a2,2,0,0,1-.32-.18l.51.39a.43.43,0,0,1-.12-.11l.39.51a.72.72,0,0,1-.11-.19l.25.6a10.86,10.86,0,0,1-.39-1.38A15.46,15.46,0,0,1,49.8,47l.09.66a7.56,7.56,0,0,1,0-2l-.09.67c.1-.64.16-1.29.24-1.93l-.09.67a3.78,3.78,0,0,1,.17-.74l-.25.6a1.76,1.76,0,0,1,.21-.38l-.4.51.19-.19-.51.39a.88.88,0,0,1,.21-.12l-.6.25a1,1,0,0,1,.23-.06l-.67.09a1.88,1.88,0,0,1,.41,0l-.66-.09a12.53,12.53,0,0,0,2.85.57,2.71,2.71,0,0,0,1.77-.73,2.57,2.57,0,0,0,.73-1.77,2.53,2.53,0,0,0-2.5-2.5Z"/></g><g class="cls-4"><path class="cls-5" d="M55.79,55.49a3.41,3.41,0,0,0-2.63-1.06,8.18,8.18,0,0,0-1.85.19,8.24,8.24,0,0,0-1.62.76A9.23,9.23,0,0,0,48.4,56a4.69,4.69,0,0,0-1.25,1.3,6.24,6.24,0,0,0-.57,1.23,6.91,6.91,0,0,0-.5,2,4.52,4.52,0,0,0,1.46,3.61,6.14,6.14,0,0,0,3.16,1.56,5.52,5.52,0,0,0,4-.61c2-1.31,2.65-3.61,2.71-5.88,0-1.48-.11-3.21-1.61-4a3.07,3.07,0,0,0-3.7.61c-.42.47-.67,1-1,1.5l.39-.51c-.49.59-1,1.08-1.47,1.71a4.05,4.05,0,0,0-.74,2.76A2.7,2.7,0,0,0,50,63.06a2.54,2.54,0,0,0,1.77.74,2.49,2.49,0,0,0,1.76-.74,2.39,2.39,0,0,0,.74-1.76,2,2,0,0,1,0-.55l-.09.66a2,2,0,0,1,.14-.48l-.26.6a3,3,0,0,1,.35-.57l-.39.5c.3-.37.66-.69,1-1.06s.64-.95,1-1.42l-.4.51a1.9,1.9,0,0,1,.24-.25l-.5.39.15-.09-.59.25a.2.2,0,0,1,.11,0l-.67.09h.13l-.67-.09.13,0-.6-.26.1.06-.5-.39a.3.3,0,0,1,.08.08l-.39-.51a1.19,1.19,0,0,1,.09.15l-.25-.59a1.47,1.47,0,0,1,.08.3L52.37,58a9,9,0,0,1,0,2.2l.09-.67A5.83,5.83,0,0,1,52,60.92l.25-.6a3.33,3.33,0,0,1-.44.78l.39-.5a2.85,2.85,0,0,1-.42.43l.5-.39a2.17,2.17,0,0,1-.53.31l.6-.25a2.52,2.52,0,0,1-.65.18l.66-.09a3.63,3.63,0,0,1-1,0l.67.09a4.14,4.14,0,0,1-1.08-.3l.6.25a4.08,4.08,0,0,1-.81-.47l.51.39a3.48,3.48,0,0,1-.47-.47l.39.51a2.1,2.1,0,0,1-.29-.5l.25.6a2.11,2.11,0,0,1-.14-.49l.09.67a2.44,2.44,0,0,1,0-.54l-.09.67a5.58,5.58,0,0,1,.47-1.43l-.25.6a2.87,2.87,0,0,1,.34-.62l-.39.51a1.79,1.79,0,0,1,.27-.28l-.51.39A5.61,5.61,0,0,1,52,59.8c.34-.16.64-.37,1-.52l-.6.25a1.69,1.69,0,0,1,.49-.13l-.66.09a5.63,5.63,0,0,1,1.23-.05l-.67-.09.3.08-.6-.25a.57.57,0,0,1,.13.08l-.51-.4a.69.69,0,0,1,.17.17,2.5,2.5,0,0,0,4.26-1.77l-.09-.67a2.41,2.41,0,0,0-.64-1.1Z"/></g><g class="cls-4"><path class="cls-5" d="M45.22,68.11c-1.2-1.58-2.71-3.26-4.92-2.79-1.61.35-2.64,2.1-2.87,3.62a10.37,10.37,0,0,0,0,4,4.17,4.17,0,0,0,3.33,2.92,5.5,5.5,0,0,0,4-.63,7.3,7.3,0,0,0,2.56-3.57,5.43,5.43,0,0,0-3.16-7.46,5.21,5.21,0,0,0-2.77-.12,6.18,6.18,0,0,0-2.21.9,7.61,7.61,0,0,0-2.17,2.06,11.58,11.58,0,0,0-.92,2.21l.25-.6a5.86,5.86,0,0,0-.78,2.7,4.3,4.3,0,0,0,1.7,3.25,4.73,4.73,0,0,0,3,1.09,7.07,7.07,0,0,0,2.78-1l-.6.25.11,0a2.72,2.72,0,0,0,1.49-1.15,2.48,2.48,0,0,0-.89-3.42,2.43,2.43,0,0,0-1.93-.25c-.57.24-1.1.52-1.65.78l.59-.25a2.44,2.44,0,0,1-.46.14l.66-.09h-.3l.66.09a2.38,2.38,0,0,1-.52-.15l.6.25a3.16,3.16,0,0,1-.72-.4l.5.39a3.06,3.06,0,0,1-.36-.36l.39.5a1.94,1.94,0,0,1-.21-.34l.25.6a2.05,2.05,0,0,1-.13-.53l.09.66a2.67,2.67,0,0,1,0-.4l-.09.66a2.25,2.25,0,0,1,.13-.42l-.25.59c.21-.48.45-1,.64-1.46.11-.32.2-.64.33-1l-.25.6a2.9,2.9,0,0,1,.31-.54l-.39.51a6.64,6.64,0,0,1,.9-.86l-.5.39a5,5,0,0,1,1-.59l-.6.25a4.54,4.54,0,0,1,1-.28l-.66.09a3.75,3.75,0,0,1,.82,0l-.66-.09a2.07,2.07,0,0,1,.5.15l-.59-.25a3.3,3.3,0,0,1,.57.34l-.51-.39a3.89,3.89,0,0,1,.65.63l-.39-.5a3.9,3.9,0,0,1,.45.76l-.25-.59a2.46,2.46,0,0,1,.15.53l-.09-.66a3.28,3.28,0,0,1,0,.7l.08-.66a6.22,6.22,0,0,1-.43,1.53l.25-.59A6.29,6.29,0,0,1,42,71.22l.4-.51a3.46,3.46,0,0,1-.6.61l.51-.39a3.26,3.26,0,0,1-.4.24l.6-.26a2.42,2.42,0,0,1-.64.17l.67-.09a3.76,3.76,0,0,1-1.06,0l.66.09a3.55,3.55,0,0,1-.71-.19l.6.25a2.3,2.3,0,0,1-.4-.23l.51.39a1.27,1.27,0,0,1-.27-.25l.39.51a1.5,1.5,0,0,1-.19-.32l.25.59a2.1,2.1,0,0,1-.11-.51l.09.67a9.24,9.24,0,0,1,0-2.29l-.08.66a3.91,3.91,0,0,1,.24-1l-.25.6a2.73,2.73,0,0,1,.32-.55l-.39.51a1.42,1.42,0,0,1,.24-.25l-.51.39.2-.12-.6.25.14,0-.67.09a.89.89,0,0,1,.23,0l-.67-.09a1.29,1.29,0,0,1,.26.08l-.6-.26a2.66,2.66,0,0,1,.45.29l-.5-.39a6.72,6.72,0,0,1,1,1.1l-.39-.51.13.18a2.78,2.78,0,0,0,1.5,1.15,2.53,2.53,0,0,0,1.92-.26,2.5,2.5,0,0,0,.9-3.42Z"/></g><g class="cls-4"><path class="cls-5" d="M27.19,73.61a8,8,0,0,0,4-.8,4.1,4.1,0,0,0,1.3-5.8l-.27-.42c-.11-.17,0-.34.07.21a1.17,1.17,0,0,0-.06-.2,9.07,9.07,0,0,0-.59-1.44A4.69,4.69,0,0,0,29,63.07a7.09,7.09,0,0,0-5,.23,8.69,8.69,0,0,0-1.8,1.2,6.11,6.11,0,0,0-1.61,1.82,3.58,3.58,0,0,0-.13,3.46,4.2,4.2,0,0,0,1.63,1.66,9.05,9.05,0,0,0,3.24,1,11.3,11.3,0,0,0,5.14.09A6.39,6.39,0,0,0,34,70.16,3.05,3.05,0,0,0,34,67a3.37,3.37,0,0,0-1.88-1.43,7.91,7.91,0,0,0-1.6-.13l.66.09c-.24,0-.16,0,.25.13a1.14,1.14,0,0,1-.23-.15c.31.25.37.29.17.13l-.19-.17a8.43,8.43,0,0,0-1.07-.82,4.89,4.89,0,0,0-2.6-.63,2.5,2.5,0,0,0,0,5c.21,0,.41,0,.62,0l-.67-.09c.13,0,.26.07.38.09-.44-.2-.56-.25-.34-.13a1,1,0,0,1,.17.1c.31.19-.53-.44,0,0l.35.3a4.63,4.63,0,0,0,1.74,1,6.7,6.7,0,0,0,1.54.11l-.66-.09c.25.06.16,0-.29-.14.21.14.11.06-.3-.23s-.39-.55-.27-.35c-.18-.52-.25-.66-.21-.43l-.09-.67a.48.48,0,0,1,0,.12l.09-.67c-.06.3.32-.62.18-.4s-.17.24.11-.11,0-.08-.07,0c-.24.25.46-.31.27-.21l-.18.13-.35.2a3.84,3.84,0,0,1-.35.18c-.45.22.56-.2.22-.09a4.32,4.32,0,0,1-.86.21l.66-.09A8.77,8.77,0,0,1,27,67.73l.67.08a16.29,16.29,0,0,1-2.6-.47l-.51-.19c.85.31.21.09,0-.05s0-.16.21.17c0,0-.18-.18-.18-.18s.42.6.22.27c-.09-.16.22.73.15.26l.09.67a1,1,0,0,1,0-.25l-.09.67c.11-.53-.31.47-.07.13l.12-.2c.15-.2.09-.13-.17.21.11-.1.21-.24.32-.35s.58-.43-.14.07c.29-.2.57-.43.87-.62a3.9,3.9,0,0,0,.49-.28c-.4.15-.47.19-.23.11a1,1,0,0,1,.24,0l-.66.09a7.23,7.23,0,0,1,1.8,0l-.66-.09a4.52,4.52,0,0,1,.53.11c.05,0,.26,0,.28.09s-.57-.31-.28-.11c.07,0,.4.28,0,0s0,0,0,0-.35-.41-.13-.13l.06.13q-.23-.54-.12-.27a7.54,7.54,0,0,0,.67,1.64c.1.18.22.35.34.53s-.07-.21-.08-.21.09.37.09.42l-.09-.67a1.41,1.41,0,0,1,0,.29l.09-.67a.78.78,0,0,1,0,.21c-.06.21,0,.09.15-.34-.06.08-.25.37,0,0s.06-.12,0,0c.27-.33.47-.35.19-.17s.55-.19.28-.11l-.24.08a4.7,4.7,0,0,1-.63.13l.67-.09a15.11,15.11,0,0,1-1.51.08,2.5,2.5,0,1,0,0,5Z"/></g><g class="cls-4"><path class="cls-5" d="M17,49.76c0-1.71.08-3.44,0-5.14a15.39,15.39,0,0,0-.41-2.52,4.15,4.15,0,0,0-.93-1.71,3.57,3.57,0,0,0-.27-.28c-.17-.18-.1-.08.22.31-.12-.21-.07-.09.15.35l.09.67a.74.74,0,0,1,0-.21l-.09.66,0-.13a2.73,2.73,0,0,0-.25-1.92,2.5,2.5,0,0,0-4.57.6,3.43,3.43,0,0,0,.3,2.43,3.65,3.65,0,0,0,.77.94c.13.14.06,0-.22-.3.13.23.1.14-.09-.28,0,.14.07.28.1.41.07.36.16.72.22,1.09l-.09-.67A20.9,20.9,0,0,1,12,46.8v3a2.5,2.5,0,0,0,5,0Z"/></g><g class="cls-4"><path class="cls-5" d="M17.71,33.92a4.6,4.6,0,0,1,.75-.71L18,33.6a6.17,6.17,0,0,1,1.22-.71l-.6.25a9.16,9.16,0,0,0,1.26-.61,7.07,7.07,0,0,1,.76-.43l-.59.25a1.4,1.4,0,0,1,.29-.09l-.66.09h.06a2.64,2.64,0,0,0,1.77-.73,2.57,2.57,0,0,0,.73-1.77,2.49,2.49,0,0,0-2.5-2.5,4.33,4.33,0,0,0-2.07.67,9.48,9.48,0,0,1-.92.53l.59-.25a7.91,7.91,0,0,0-1.69.86,6.7,6.7,0,0,0-1.43,1.23,2,2,0,0,0-.52.8,2,2,0,0,0-.21,1,2.51,2.51,0,0,0,2.5,2.5,2.44,2.44,0,0,0,1.77-.74Z"/></g><g class="cls-4"><path class="cls-5" d="M15.33,59.31a6.93,6.93,0,0,0,1.43,1.09L16.25,60l.25.25-.39-.51a3.05,3.05,0,0,1,.28.5l-.25-.6c.21.51.33,1.05.54,1.56s.47.92.68,1.4L17.11,62a2.6,2.6,0,0,1,.16.58l-.09-.67a3,3,0,0,1,0,.52,2.5,2.5,0,0,0,4.27,1.77l.39-.51a2.53,2.53,0,0,0,.34-1.26,4.84,4.84,0,0,0-.53-2.39c-.16-.37-.37-.71-.54-1.08l.26.6c-.1-.24-.16-.49-.24-.73a7.14,7.14,0,0,0-.53-1.32,3.68,3.68,0,0,0-.82-1.06c-.38-.31-.78-.53-1.17-.82l.51.39a1.66,1.66,0,0,1-.27-.26,2.49,2.49,0,0,0-1.77-.73,2.52,2.52,0,0,0-1.76.73,2.5,2.5,0,0,0-.74,1.77l.09.66a2.52,2.52,0,0,0,.65,1.1Z"/></g><g class="cls-4"><path class="cls-5" d="M32.24,41.59a8.46,8.46,0,0,0,1.09,3.31,5.66,5.66,0,0,0,3.42,2.78,1.55,1.55,0,0,0,1.89-1,5.52,5.52,0,0,0,.22-2l-3.69-2c.6,2,1.83,4.2,4,4.75a4,4,0,0,0,.92.08,3.18,3.18,0,0,0,1.23-.11,1.79,1.79,0,0,0,.84-.59,2.65,2.65,0,0,1,.56-.55l-3.42-3.54A2.65,2.65,0,0,0,38.91,44a3.71,3.71,0,0,0,1.38,2.53,4.42,4.42,0,0,0,1,.63c.31.14.85.26,1.14,0a4.11,4.11,0,0,0,1.32-2.29,6.81,6.81,0,0,0-.07-2.34,6.42,6.42,0,0,0-.7-2.17,5.22,5.22,0,0,0-1.76-2,2.35,2.35,0,0,0-1.73-.46c-1.79.42,1,4.49,2.61,4.11l.11,0a1,1,0,0,1-.62-.11A3.31,3.31,0,0,1,40.39,41a3.15,3.15,0,0,1-.54-.85.5.5,0,0,1,0,.13c.12.28-.16-.56-.07-.23s.09.35.13.54.1.84,0,.13a9.1,9.1,0,0,1,.07,1c0,.35.08-.27,0,.07,0,.16-.09.31-.15.45a3.42,3.42,0,0,1-.39.73l.2-.28a3.86,3.86,0,0,1-.54.6l3.48,3.16c0,.31,0,0,.1-.12L43,46a2,2,0,0,0-.18-1.36,5,5,0,0,0-.91-1.31c-.54-.56-1.53-1.37-2.34-.87-.43.27-.62.77-1.09,1l.31-.15a2.36,2.36,0,0,1-.46.1c-.17,0-.17,0,0,0h-.25l-.47,0q-.29-.06.15.06c-.2-.08-.12,0,.22.14a2.62,2.62,0,0,1,.89.94c-.2-.32.29.63.07.11s.11.39,0,0l-.12-.4a4.37,4.37,0,0,0-2-2.57c-.62-.34-1.67-.48-1.65.54,0,.32,0,.64,0,1s.06-.2,0-.06a1.8,1.8,0,0,0-.06.22,1.28,1.28,0,0,1-.19.41l.2-.28a.85.85,0,0,1-.29.24l.31-.15s-.09.05-.12,0c-.2,0,.18,0,.17,0s-.34-.1,0,0,.06,0,0,0-.06,0,.11.07a1.15,1.15,0,0,1,.33.21c.49.39-.22-.25.26.24s-.16-.26.24.29.08.11,0,0c-.18-.27.17.27.15.27a1.72,1.72,0,0,1-.09-.19.77.77,0,0,1-.08-.19s.15.5.08.22L36,44.12c0-.15-.1-.65,0,0a4.12,4.12,0,0,0-1.87-2.9c-.35-.21-.87-.53-1.31-.39a.75.75,0,0,0-.57.81Z"/></g><g class="cls-4"><path class="cls-5" d="M32.9,57.57c0,.22,0,.44,0,.65l0-.36a4.83,4.83,0,0,1-.18.84,1.58,1.58,0,0,0,.05,1.19,2.17,2.17,0,0,0,.66.78,4.31,4.31,0,0,0,1.43.73c.63.2,1.73.41,2.28-.13a1.57,1.57,0,0,0,.49-1.35c-.11-1.09-1.58-1.81-2.51-2a2.63,2.63,0,0,0-1.62,0,.93.93,0,0,0-.61.87,2.19,2.19,0,0,0,.43,1.32c.17.27.34.55.54.81-.13-.16-.19-.31,0-.06a1.89,1.89,0,0,1,.11.25,2.87,2.87,0,0,0,1.17,1.12,4.78,4.78,0,0,0,1.84.58A2.37,2.37,0,0,0,39.13,62a5.31,5.31,0,0,0,.77-1.4l-4.32-.69c1.24,1.58,4,2.88,5.83,1.55a5.58,5.58,0,0,0,1.64-2.62,10,10,0,0,0,.48-2.71,3.61,3.61,0,0,0-1.18-3.22,4.32,4.32,0,0,0-1.74-.83,2.79,2.79,0,0,0-1.62,0c-1,.48-.51,1.47.16,2-.32-.33-.41-.42-.28-.27-.2-.33-.26-.41-.17-.25s.07.15.09.23l-.12-.39a5.48,5.48,0,0,1,0,2.21l.05-.37a7.67,7.67,0,0,1-1.23,3.43l.22-.3a2.43,2.43,0,0,1-.64.64l.36-.21a1.57,1.57,0,0,0-.26.12c.2-.19.8-.09,1.13,0a3.26,3.26,0,0,1,.94.36c.37.26.47.32.28.17.52.46.11.09,0,0a4,4,0,0,0-2.44-1.26c-.57-.09-1.62-.12-1.87.57a5,5,0,0,1-.56,1.11l.21-.3a1.49,1.49,0,0,1-.41.42l.36-.2a.84.84,0,0,1-.14.06,2.06,2.06,0,0,1,.74-.08l3,1.7a6.61,6.61,0,0,0-.67-1.07c-.14-.2.05.06.08.12a1.88,1.88,0,0,0-.12-.18,2.28,2.28,0,0,1-.2-.45l.12.39a1,1,0,0,1,0-.34L32.9,58.81a1.62,1.62,0,0,1,0,.22l0-.36a.75.75,0,0,1-.09.3l.21-.29a1.07,1.07,0,0,1-.14.16l4.37,1.38,0-.11.12.39v-.09l0,.36c0-.28.16-.55.21-.83a6.72,6.72,0,0,0,.12-1.26,1.88,1.88,0,0,0-.77-1.17,4.25,4.25,0,0,0-1.74-.83c-.77-.16-2.24-.24-2.23.89Z"/></g><g class="cls-4"><path class="cls-5" d="M35.71,70.78a7,7,0,0,0,0,1.37c0,.17.28.28.43.33a3.05,3.05,0,0,0,1.24.08,6.39,6.39,0,0,0,2.63-.76,2.09,2.09,0,0,0,1-1.09,9.52,9.52,0,0,0,.11-1.06l0,.24a1.16,1.16,0,0,1,0-.18l-4.71,1.05a1.16,1.16,0,0,1,.18.2l-.14-.2a3.69,3.69,0,0,1,.37,1.43,4.23,4.23,0,0,0,.61,1.58,3.21,3.21,0,0,0,1,1.13,2.51,2.51,0,0,0,1.07.32,3.63,3.63,0,0,0,.57,0c.1,0,.26,0,.37,0-.63-.08-.27,0-.12,0C42.44,75.34,45,75,46.19,73A6.45,6.45,0,0,0,47,70a7.49,7.49,0,0,0-.07-1.83,2.72,2.72,0,0,0-.66-1.54A2.11,2.11,0,0,0,45,66.38a6.48,6.48,0,0,0-1.9.33c-.35.12-2.14.77-1.48,1.39a1,1,0,0,1,.14.15l-.14-.19a4.1,4.1,0,0,1,.48,1.72A9.29,9.29,0,0,1,42,72l0-.24a6.3,6.3,0,0,1-.4,1.41,4.11,4.11,0,0,1-.37.68l-.05.07c-.08.11-.07.1,0,0,0,.08-.19.18-.25.24a3.93,3.93,0,0,1,2-.73l.29,0c-.14,0-.53,0,.11,0l-.82,0c.68,0,.21,0,.07,0,.42,0,.3.09.15,0,.35.16.1,0,0,0a3.38,3.38,0,0,1-.45-.55l.13.19A4.54,4.54,0,0,1,41.75,71a2.66,2.66,0,0,0-.66-1.73,1.54,1.54,0,0,0-1-.23,5.5,5.5,0,0,0-1.51.15,7.42,7.42,0,0,0-1.21.39c-.23.09-.93.42-1,.73a9.18,9.18,0,0,0-.14,1.16l0-.24a2.63,2.63,0,0,1-.09.3c-.07.11-.05.09,0-.06s.26-.17.1-.07l4.29-.35a6.19,6.19,0,0,1,0-1.36c0-.31-.7-.4-.85-.42a5.35,5.35,0,0,0-1.78.14,5.19,5.19,0,0,0-1.67.63c-.27.18-.58.37-.59.73Z"/></g><g class="cls-4"><path class="cls-5" d="M50.6,63.51h.07l-.64.06a1.27,1.27,0,0,1,.34,0l-.6-.1c.34.06.66.19,1,.26a5.45,5.45,0,0,0,2,.07,4.34,4.34,0,0,0,.91-.28,2.07,2.07,0,0,0,.34-.15,8,8,0,0,0,1.11-.79,7,7,0,0,0,.72-.72,5.4,5.4,0,0,0,.52-.82,4,4,0,0,0,.41-1.31,10.14,10.14,0,0,0,0-2.27l-4.86,1a11,11,0,0,1,.34,2.28v-.58a4.8,4.8,0,0,1-.15,1.13l.16-.57a4.68,4.68,0,0,1-.18.48,2,2,0,0,0,1.35,2.82,2.77,2.77,0,0,0,3.19-1.53,7.93,7.93,0,0,0,.15-5.05,2.13,2.13,0,0,0-1-1.43A2.53,2.53,0,0,0,54,55.77a2.82,2.82,0,0,0-1.64,1l-.3.53a2.19,2.19,0,0,0-.16,1.16c0,.37.06.74.06,1.11V59a3,3,0,0,1-.1.84l.16-.57a2.72,2.72,0,0,1-.19.47l.3-.54a2,2,0,0,1-.25.34l.44-.46a4.42,4.42,0,0,1-.74.62l.56-.36a1.81,1.81,0,0,1-.37.18l.63-.21a1.91,1.91,0,0,1-.33.06l.63,0a3.17,3.17,0,0,1-.53,0l.61.09a8.11,8.11,0,0,1-.85-.21A6,6,0,0,0,51,59a4.28,4.28,0,0,0-1,.05,2.21,2.21,0,0,0-.92.39,2,2,0,0,0-.72.64,2.28,2.28,0,0,0-.46,1.69,2,2,0,0,0,1,1.43l.55.23a2.6,2.6,0,0,0,1.24,0Z"/></g><g class="cls-4"><path class="cls-5" d="M51.87,53.33c1.05,0,1.64-.91,2-1.77a9.3,9.3,0,0,1,.61-1.17A5,5,0,0,0,55.27,49a5.78,5.78,0,0,0,0-2.89,4,4,0,0,0-2-2.1,5.28,5.28,0,0,0-2-.7,4.42,4.42,0,0,0-.63,0c-.45,0,.27,0,.34,0l1.17.51,1,.8c.1.18.12.21.06.1a2.69,2.69,0,0,0-.16-.29,5.64,5.64,0,0,0-.83-1.11l-3.13.36.26.25c.2.18-.31-.39,0,0,.13.17.26.34.38.52s.15.24,0,0c.06.11.12.21.17.32a5,5,0,0,1,.24.58c0,.11.08.22.11.33s0-.11,0,.12.06.46.07.7a4.61,4.61,0,0,1,0,.64c0,.12,0,.24-.05.36s0,0,0,.14a6.94,6.94,0,0,1-1.1,2.41,2.83,2.83,0,0,1-.8.54,4,4,0,0,0-1.11.8c-.25.24.12.86.24,1a4.37,4.37,0,0,0,1.37,1.16c.73.4,2,1,2.71.32-.11.11.14-.1.15-.11l.25-.15c.19-.1.39-.19.58-.3a3,3,0,0,0,1.05-.94,8.17,8.17,0,0,0,1.14-2.92c.45-2.33-.91-4.61-2.52-6.17a4.33,4.33,0,0,0-3.16-1.38c-1.12.16-.43,1.26,0,1.74,0,0-.36-.55-.19-.24s.22.42.35.62a4.71,4.71,0,0,0,1.12,1.15,5.9,5.9,0,0,0,2,1,3.2,3.2,0,0,0,1.37.14c.12,0,.07,0-.15,0l-2.66-1.78s.06.34,0,0c0,.21,0,.41,0,.63s0,.73-.07,1.1c-.06.82-.84,1.61-1.21,2.41a8.34,8.34,0,0,1-.51,1c-.06.08-.12.17-.19.25s-.24.2-.06.08c-.08,0-.17.09-.25.15.15-.1.21,0,0,0a.63.63,0,0,0-.64.59A1.94,1.94,0,0,0,48.71,52a4.57,4.57,0,0,0,3.16,1.38Z"/></g><g class="cls-4"><path class="cls-5" d="M48.26,36.27c1.08-1.08,2.38-2.39,2.22-4.05a6.14,6.14,0,0,0-.78-2.06c-.33-.66-1-1.06-1.32-1.73-.1-.22-.75,0-.83,0a8,8,0,0,0-1.62.71,8.13,8.13,0,0,0-1.48,1c-.15.15-.55.44-.45.7.32.84.87,1.57,1.21,2.4a5.48,5.48,0,0,1,.34,2.24v-.17c0,.59-.38.44.56-.25l1.07-.67c2-1.15,2.16-.7,1.45-.63H48.5l-.51,0a5.62,5.62,0,0,0-2.88,1.15,4.54,4.54,0,0,0-1.19.94c-.08.1-.35.48,0,.49s.72,0,1.08,0a5.85,5.85,0,0,0,2.08-.64,11.24,11.24,0,0,0,1.8-1.07,2.93,2.93,0,0,0,1-1,1.91,1.91,0,0,0,.09-.95,5.43,5.43,0,0,0-.39-2c-.35-.76-.85-1.45-1.15-2.24L44,30.84c.32.7,1,1.12,1.36,1.82a5.13,5.13,0,0,1,.75,2.3v-.17a2.68,2.68,0,0,1-.2.89,3.1,3.1,0,0,1-.21.45l-.12.19-.06.09a12.89,12.89,0,0,1-1.31,1.45c-.15.15-.28.4,0,.49a2.45,2.45,0,0,0,1.17-.26,8.84,8.84,0,0,0,2.9-1.82Z"/></g><g class="cls-4"><path class="cls-5" d="M29,34.25a4,4,0,0,0,3,1.3c.64,0,1.28,0,1.92-.07h-.66a8.69,8.69,0,0,0,2.1-.19A3.48,3.48,0,0,0,37,34.48,2.72,2.72,0,0,0,37.74,33c.1-.47,0-.94.12-1.4l-.12.42a6,6,0,0,0,.33-1.31,4.21,4.21,0,0,0-.1-1.12,3.09,3.09,0,0,0-1.39-1.82,3.67,3.67,0,0,0-2.7-.53,2.54,2.54,0,0,0-1,.43.75.75,0,0,0-.35.33.87.87,0,0,0-.26.6c-.18.69.13,1.4,0,2.09l.12-.42a1.55,1.55,0,0,1-.24.46l.28-.36a14.3,14.3,0,0,1-1.5,1.41A1.17,1.17,0,0,0,30.53,33a2,2,0,0,0,1.07,1,3.69,3.69,0,0,0,1.91.3,2.74,2.74,0,0,0,1.55-.63,11.27,11.27,0,0,0,1.87-1.91,2.55,2.55,0,0,0,.3-1.51,3.72,3.72,0,0,1,0-1.33l-4.34.83a2.38,2.38,0,0,1,.4.31l-.37-.36a1.45,1.45,0,0,1,.26.35L33,29.67a1.78,1.78,0,0,1,.16.51l-.06-.44A2.85,2.85,0,0,1,33,30.83l.11-.42a5.72,5.72,0,0,0-.32,1.28,4.9,4.9,0,0,1-.06,1l.12-.42a1.68,1.68,0,0,1-.22.47l.28-.37a1.31,1.31,0,0,1-.23.24l.41-.29a2,2,0,0,1-.29.16l.53-.22-.33.1.6-.12a3.88,3.88,0,0,1-.48,0h.66c-.65,0-1.3.06-2,.07h.67a2.79,2.79,0,0,1-.5,0l.66.1-.28-.06.59.2a.66.66,0,0,1-.19-.09l.49.29-.12-.09.37.35a.27.27,0,0,1-.07-.08A2.71,2.71,0,0,0,32,32.1a3.72,3.72,0,0,0-1.93,0,2,2,0,0,0-1.21.88A1.16,1.16,0,0,0,29,34.25Z"/></g><g class="cls-4"><path class="cls-5" d="M19,44.59a16.71,16.71,0,0,0,2.24-.27l.21,0h0c-.19,0-.19,0,0,0h.21c.28,0,.56,0,.84.05a6.6,6.6,0,0,0,4.05-1.51,5.86,5.86,0,0,0,2.38-3,7,7,0,0,0,.24-2.13,4.55,4.55,0,0,1,0-.53c0-.06.11-.57,0-.27s.06-.2.07-.26.09-.35.13-.52L26,38a.42.42,0,0,1,.16,0l-.45-.2a.55.55,0,0,1,.17.13l-.34-.34a1.22,1.22,0,0,1,.12.19l-.2-.44a1.58,1.58,0,0,1,.1.48l0-.49c0,.34,0,.68,0,1a1.43,1.43,0,0,0,.57,1.27,2.1,2.1,0,0,0,1.55.21c1.08-.27,2.41-1.25,2.44-2.49a9.1,9.1,0,0,0,0-1.65,2,2,0,0,0-1.53-1.69,2.7,2.7,0,0,0-2,.35A2.88,2.88,0,0,0,25.08,36c-.16.67-.35,1.33-.45,2-.09.52,0,1.05-.05,1.57l0,.23.05-.22a1.51,1.51,0,0,0-.11.34c0,.09-.18.4,0,0s0-.09,0,0c-.17.33.42-.44.16-.19l-.16.17c-.19.21.56-.44.26-.22l-.25.17q-.24.16-.48.3l-.3.2c-.1.06-.41.24,0,0s.09-.08,0,0c.39-.12.5-.16.31-.12s-.09,0,.24,0a3.14,3.14,0,0,0-.7,0,9.47,9.47,0,0,0-2,.12l-.71.12-.21,0,.21,0c0,.05-.4,0-.45,0a3.22,3.22,0,0,0-1.75.59,3.08,3.08,0,0,0-1.15,1.44A1.58,1.58,0,0,0,17.64,44a1.63,1.63,0,0,0,1.32.61Z"/></g><g class="cls-4"><path class="cls-5" d="M24,58.12a6.84,6.84,0,0,1,1.62-.32h-.48a11.67,11.67,0,0,1,1.31.26,9.41,9.41,0,0,0,1.68.08l-.48,0a4.3,4.3,0,0,1,1.07.2,2.41,2.41,0,0,0,1.48,0,2.84,2.84,0,0,0,1.73-2.49,15.36,15.36,0,0,0,.12-2,7.07,7.07,0,0,0-.25-2.1l-.15-.48c-.12-.38,0,.12.05.22-.09-.36,0,.53,0,.13a3.43,3.43,0,0,0-1.79-3,1.48,1.48,0,0,0-1.4,0,1.58,1.58,0,0,0-.65,1.23,4.75,4.75,0,0,0,.31,2c0,.07.05.14.07.21.13.39-.07-.45-.06-.22s0,0,0-.16a1,1,0,0,1,0,.3A13.2,13.2,0,0,1,28.07,54l.1-.51a2.31,2.31,0,0,1-.2.63l.22-.43a1.36,1.36,0,0,1-.27.35l.34-.3a1.79,1.79,0,0,1-.38.22l.43-.15a1.65,1.65,0,0,1-.3,0h.47a9,9,0,0,1-1.12-.25,10.39,10.39,0,0,0-1.58,0h.48c-.63,0-1.22-.28-1.84-.33a4,4,0,0,0-1.25.08c-.28.07-.56.17-.85.23-1.15.25-1.27,1.62-.91,2.55a3.52,3.52,0,0,0,1.13,1.58,1.94,1.94,0,0,0,1.45.48Z"/></g><g class="cls-4"><path class="cls-5" d="M22.22,69.87a3.9,3.9,0,0,0,1.25.64,10.91,10.91,0,0,0,1.17.51,3.72,3.72,0,0,0,.66.08h.31c-.11,0,.06,0,.06,0l.26,0a8.82,8.82,0,0,0,3.25-.55,6,6,0,0,0,2.76-1.47c.27-.33.51-.69.77-1a3.92,3.92,0,0,0,.9-2.62,2.21,2.21,0,0,0-.54-1.39,5.15,5.15,0,0,0-1.36-.84l.12.07a2.23,2.23,0,0,1-.24-.19c-.19-.16-.59-.07-.79,0a10.26,10.26,0,0,0-1.71.45,9.79,9.79,0,0,0-1.65.66c-.07,0-.72.4-.6.5a9.6,9.6,0,0,0,1.24.73L28,65.33a2.61,2.61,0,0,1,.65,3.17l.05-.13a6,6,0,0,1-.82,1.29c-.13.17-.25.35-.38.53a2.25,2.25,0,0,1-.24.3l-.12.13a1.24,1.24,0,0,1,.27-.17l1-.44c2.84-1.11,3-.61,2.1-.6h-.1l-.67,0s-.33,0-.14,0l-.18,0a2.18,2.18,0,0,1-.44-.11c-.31-.11-.58-.29-.88-.41a7,7,0,0,1-1-.42l.12.07L27,68.3c-.19-.16-.59-.06-.78,0a9.24,9.24,0,0,0-1.72.44,10.22,10.22,0,0,0-1.64.66c-.07,0-.73.4-.61.5Z"/></g><g class="cls-4"><path class="cls-5" d="M29.41,62.6a7.48,7.48,0,0,1,.29,2v-.13a6,6,0,0,1-.49,1.17A3.94,3.94,0,0,0,29.15,67v-.13A3.37,3.37,0,0,1,27.34,69a5.26,5.26,0,0,1-2.53,1c-.14,0,.33.84.26.72a12.27,12.27,0,0,0,1,1.47,13.34,13.34,0,0,0,1.14,1.35c.16.16.39.44.63.44a5.69,5.69,0,0,0,2.88-1.22,4.38,4.38,0,0,0,1.18-1.13,3.24,3.24,0,0,0,.28-1.82v.12a3,3,0,0,1,.38-.88,2.13,2.13,0,0,0,.22-.9,8.48,8.48,0,0,0-.3-1.79,3.55,3.55,0,0,0-.54-1,15.42,15.42,0,0,0-1.14-1.55,8.21,8.21,0,0,0-1-1.1c-.08-.06-.4-.33-.36,0Z"/></g><g class="cls-4"><path class="cls-5" d="M20.65,62.77a17.78,17.78,0,0,1,1.17-1.43,3,3,0,0,0,.33-1.92,6.78,6.78,0,0,0-.09-1.49,3.07,3.07,0,0,0-.77-1.37,1.07,1.07,0,0,0-.78-.24,8.76,8.76,0,0,0-1.77.15A8.33,8.33,0,0,0,17,56.9c-.08,0-.79.33-.66.48a3.09,3.09,0,0,1,.84,1.9c0,.37,0,.73,0,1.1a3.46,3.46,0,0,1-.11,1.36l.06-.15c-.3.66-1,1.07-1.32,1.7-.14.24.09.3.31.34a4.78,4.78,0,0,0,1.51,0,10,10,0,0,0,1.89-.36l.49-.16a2,2,0,0,0,.6-.33Z"/></g><g class="cls-4"><path class="cls-5" d="M17.28,50.42c.1-.65.41-1.23.56-1.86a8.44,8.44,0,0,0,0-1.88c0-1.45,0-2.89,0-4.34,0-.35-.45-.58-.71-.69a4.78,4.78,0,0,0-1.75-.34,4.84,4.84,0,0,0-1.78.21c-.28.11-.76.28-.76.65,0,1.44,0,2.89,0,4.33a8.43,8.43,0,0,1,0,1.88c-.14.64-.45,1.22-.55,1.87,0,.33.5.6.7.69a4.87,4.87,0,0,0,1.76.34,4.84,4.84,0,0,0,1.78-.21c.31-.13.7-.27.75-.65Z"/></g><g class="cls-4"><path class="cls-5" d="M18.85,34.25a1.4,1.4,0,0,1,.36-.28l-.29.16a5.45,5.45,0,0,0,1.39-.74,6.21,6.21,0,0,0,.82-1.3L21,32.3a11.57,11.57,0,0,1,1.31-1.81c.23-.24.09-.48-.13-.68a3.66,3.66,0,0,0-1.4-.65,6.87,6.87,0,0,0-1.91-.26l-.53.05a1.41,1.41,0,0,0-.69.25A16.13,16.13,0,0,0,15.75,32l.13-.21a1.52,1.52,0,0,1-.54.53l.28-.16a5.15,5.15,0,0,0-1.44.78c-.23.25-.08.49.14.69a3.66,3.66,0,0,0,1.4.65,6.51,6.51,0,0,0,1.91.25l.52,0a1.44,1.44,0,0,0,.7-.25Z"/></g><g id="Ldhdun.tif"><path d="M18.43,14.08c.1-.45.35-.64.72-.63s1-.39,1.48-.14c.05,0,.17,0,.2-.06.27-.38.65-.25,1-.31a10,10,0,0,0,1.29-.23,5.89,5.89,0,0,1,1.8-.47,14.8,14.8,0,0,1,1.62-.09A7.59,7.59,0,0,0,27.74,12c.31,0,.65-.25,1-.27a8.13,8.13,0,0,0,1.89-.38.73.73,0,0,1,.48,0,.36.36,0,0,0,.4-.05c.1-.06.25-.14.33-.1.39.18.76-.09,1.12,0a12.83,12.83,0,0,0,2,0,8.48,8.48,0,0,0,2.41,0,5.62,5.62,0,0,1,1.69,0,4.13,4.13,0,0,0,1.27.06c.37-.1,1,.48,1,.89,0,.1,0,.24.08.28.71.31.8,1,1,1.61a13.79,13.79,0,0,0,1.48,3,2.44,2.44,0,0,1,.46,1.23,2.09,2.09,0,0,0,.21,1.16c.26.39-.06.8-.28,1.1A4.86,4.86,0,0,1,42.75,22c-.21.12-.14.32,0,.45a.68.68,0,0,1,.33.65c0,.17.14.24.26.33.54.37,1.12.71,1.3,1.42,0,.1.08.1.17.09,1-.09,1.69.61,2.4,1.19.45.38.66,1,1.28,1.23a1.39,1.39,0,0,1,.62.85,1.84,1.84,0,0,0,.28.56c.05.07.15.16.14.22-.1.38.19.62.28.92.19.71.73,1.26.86,2,.08.47.45.83.52,1.26a5.59,5.59,0,0,0,.65,1.5c.18.39.22.85.37,1.26a13.3,13.3,0,0,0,.57,1.33c.22.41.21.85.42,1.25a11.16,11.16,0,0,1,.51,1.29c.39,1,.77,2.09,1.1,3.16.18.61.31,1.23.46,1.85.08.29.21.57.3.87a26.34,26.34,0,0,1,.73,2.91c.28,1.43.65,2.86.83,4.31.16,1.26.56,2.44.83,3.66s.57,2.28.77,3.45c.1.55.33,1.07.44,1.62.19,1,.33,2,.48,3A4.29,4.29,0,0,1,59,67.47c-.49.84-.92,1.7-1.38,2.55s-.84,1.39-1.21,2.1c-.27.52-.85,1.09-.42,1.83,0,.09.09.22,0,.29-.35.31-.37.79-.64,1.16a4.17,4.17,0,0,1-1.28,1.36c-.24.13-.28.4-.43.57a4.33,4.33,0,0,1-1.55,1.06,10.14,10.14,0,0,0-2.67,1.14c-.39.32-1,.2-1.42.29a1.15,1.15,0,0,0-.77.31.55.55,0,0,1-.65.18.58.58,0,0,0-.48,0,3.43,3.43,0,0,1-1.38.23,8.39,8.39,0,0,0-1.94.26l0,0c-.44-.28-1,0-1.39-.19a1.51,1.51,0,0,0-1.07-.08,7.19,7.19,0,0,1-1.8.16c-.22,0-.39,0-.55.17s-.47.15-.71.17a7.42,7.42,0,0,0-.94-.06c-.31,0-.16-.28-.3-.44-.19.39-.5.35-.83.25a.45.45,0,0,0-.34,0c-.15.07-.1.41-.32.29-.46-.25-1.07-.08-1.44-.53a2.62,2.62,0,0,0-1-.71.65.65,0,0,1-.27-.15,3.54,3.54,0,0,0-1.67-1,5.89,5.89,0,0,1-1.26-.62,3.1,3.1,0,0,0-1.2-.44A10.06,10.06,0,0,1,26.05,77c-.36-.15-.77-.28-1.13-.46a6.55,6.55,0,0,1-1.65-1,12.51,12.51,0,0,1-1.42-1.49.23.23,0,0,1,0-.25c0-.07,0-.2,0-.2-.47,0-.56-.38-.73-.65C20.65,72.3,20,71.74,20,70.87c0-.12-.11-.16-.18-.23s-.27-.25-.19-.46c0-.05,0-.16,0-.17-.45-.24-.27-.7-.39-1a4.87,4.87,0,0,0-.76-1.53c0-.06-.09-.15-.07-.21.12-.55-.28-.9-.48-1.32s-.1-.94-.39-1.32a4.86,4.86,0,0,1-.52-1,.81.81,0,0,1-.05-.77c.15-.27-.07-.48-.24-.66s-.41-.44-.33-.78c0-.06,0-.15,0-.17-.59-.42-.54-1.19-.92-1.72s-.26-1-.44-1.53a3.92,3.92,0,0,0-.51-1.31A3.27,3.27,0,0,1,14,55.38a2.21,2.21,0,0,0-.41-.88,2.25,2.25,0,0,1-.4-1.3c0-.16,0-.35-.09-.47-.59-.58-.57-1.4-.85-2.1a11.55,11.55,0,0,1-.37-1.4,4.3,4.3,0,0,1-.16-1.14c0-.82-.19-1.63-.19-2.45,0-.23-.3-.37-.34-.69-.12-.94-.11-1.88-.17-2.81a9.1,9.1,0,0,1,.05-2.22,26.6,26.6,0,0,1,.77-3.69c.25-.7.53-1.4.78-2.1a1.14,1.14,0,0,1,.12-.34A2.78,2.78,0,0,0,13.22,32c0-.32.34-.45.42-.75s0-.75-.22-.87a.76.76,0,0,1-.42-.81c0-.17.09-.37-.17-.35s-.55-.19-.72.13-.33.46-.63.15a3.28,3.28,0,0,1-1.13-1.89.52.52,0,0,1,0-.17c.07-.53-.28-.91-.42-1.37a18,18,0,0,1-.63-1.7c-.08-.41,0-.95-.49-1.26-.1-.07-.1-.3-.14-.46a4.7,4.7,0,0,0-.54-1.75c-.12-.16-.08-.3,0-.49a2.06,2.06,0,0,0,.37-.84c0-.16.21-.28.37-.37.65-.37,1.09-1,1.71-1.39s.86-1,1.53-1.14c.15,0,.28-.21.4-.35a.5.5,0,0,1,.47-.2c.2,0,.33-.1.49-.22a3.11,3.11,0,0,1,1.1-.53,2.87,2.87,0,0,0,1-.36c.33-.19.82-.22,1.13-.46s.95-.24,1.25-.71C18.1,13.62,18.26,13.88,18.43,14.08Zm-4.5,38.28c.23.82.85,1.46.79,2.34,0,0,0,.11.08.16a7.73,7.73,0,0,1,.81,2.56c.09.5.45.91.54,1.44,0,.19.25.46.34.73.47,1.35,1.11,2.62,1.71,3.92a28.64,28.64,0,0,1,1.36,3.58c.07.23.31.38.28.6-.09.67.42,1.13.58,1.71a2.2,2.2,0,0,0,.21.77A20.79,20.79,0,0,0,22.5,73a.61.61,0,0,1,.24.47.24.24,0,0,0,.13.21,17.37,17.37,0,0,0,2.54,1.71c.41.18.78.46,1.22.63a32.86,32.86,0,0,0,3.72,1.44,2.9,2.9,0,0,1,1.7,1c.37.5,1,.59,1.54.9.06,0,.15.07.18,0s0-.27.21-.21.14.22.13.35c0,.39.22.5.54.49.91,0,1.81-.22,2.73-.19a4,4,0,0,0,1,0c.49-.1,1-.38,1.56-.09.06,0,.15,0,.22,0a11.79,11.79,0,0,0,1.45-.11.52.52,0,0,1,.43.08.38.38,0,0,0,.42.08,1.61,1.61,0,0,1,1.08-.08.94.94,0,0,0,.44,0,2.54,2.54,0,0,1,1.19-.17,9.4,9.4,0,0,0,1.67-.2,9,9,0,0,0,1.6-.52,3.94,3.94,0,0,0,.94-.26,3.34,3.34,0,0,1,1.22-.51,4.21,4.21,0,0,0,1.64-.68A10.26,10.26,0,0,0,53.56,76a9.85,9.85,0,0,1,.92-1c.24-.21.37-.27.05-.54-.71-.6-.67-.76,0-1.47a2.17,2.17,0,0,0,.78-1.32.61.61,0,0,1,.17-.36,1.33,1.33,0,0,0,.43-1c0-.1,0-.24.1-.29.54-.38.54-1.07.91-1.55.13-.17.36-.31.36-.56,0-.46.34-.72.57-1a2,2,0,0,0,.56-1.7A5.74,5.74,0,0,1,58.25,63a4.47,4.47,0,0,0-.68-2.36,2,2,0,0,1-.27.61,1.31,1.31,0,0,0-.11.7,1.4,1.4,0,0,1-.25.75c-.06.08-.15.17-.13.27.12.68-.44,1.06-.69,1.56a6.91,6.91,0,0,1-1.39,1.67,3.9,3.9,0,0,1-1.51,1c-.16,0-.24-.09-.36-.15s0-.09,0-.11.18-.06.27,0c.25.06.37-.1.42-.3a1.14,1.14,0,0,1,.31-.47c.57-.65,1.49-.93,1.68-2a2.77,2.77,0,0,1,.9-1.41.38.38,0,0,0,.09-.24,1.32,1.32,0,0,1,.31-1,2.25,2.25,0,0,0,.25-1,4.67,4.67,0,0,0,.15-2.1c-.05-.19,0-.42,0-.61a15.65,15.65,0,0,1-.5-2.63,1.09,1.09,0,0,0,0-.26,11.59,11.59,0,0,1-.57-2.36,11.42,11.42,0,0,1-.41-2.53,1.17,1.17,0,0,0-.16-.55A12.85,12.85,0,0,1,55,47.73c-.15-.57-.24-1.16-.39-1.73a5.12,5.12,0,0,1-.46-2.35.33.33,0,0,0-.14-.31c-.58-.48-.34-1.26-.66-1.84,0,0,0-.09,0-.12-.09-.22.13-.63-.36-.64a.11.11,0,0,1-.12-.1c-.06-.37-.32-.75-.31-1a4.37,4.37,0,0,0-.71-2c-.3-.72-.55-1.45-.83-2.18a4.51,4.51,0,0,0-.37-.81,2.4,2.4,0,0,1-.42-1c0-.66-.5-1.08-.71-1.63s-.55-1.22-.86-1.82a7.3,7.3,0,0,1-.8-1.72c-.16-.69-1-.79-1.33-1.37-.08-.14-.36-.16-.3-.43,0-.09-.08-.09-.16-.09-.94,0-1.38-.75-1.9-1.33-.21-.24-.33-.3-.6-.26s-1-.36-1-.6c-.07-.43-.27-.84-.33-1.22-.1-.62-.28-.28-.49-.16s-.19.14-.29.21c-.32.22-.63.45-1,.66a.27.27,0,0,1-.34,0c-.1-.1,0-.24.06-.32a1.87,1.87,0,0,1,.57-.68,1,1,0,0,0,.49-.54c.12-.3.39-.6.67-.61s.24-.09.36-.21c.31-.32.59-.66.87-1a1.7,1.7,0,0,0,.36-.8,2.51,2.51,0,0,0-.19-1.09,1.87,1.87,0,0,0-.55-1,2.58,2.58,0,0,1-.67-1.4c-.06-.16-.06-.49-.08-.49-.4,0-.34-.33-.44-.54a2.29,2.29,0,0,0-.62-.83c-.34.73-1.06,1-1.6,1.49,0,0,0,0,0,0-.32-.06-.53.14-.77.29a2.87,2.87,0,0,1-1.37.54.59.59,0,0,0-.23.13,3,3,0,0,1-1.25.62,2.46,2.46,0,0,0-.85.26c-.73.45-1.62.6-2.37,1-.24.14-.58-.09-.8.18-.2-.37-.36-.05-.5,0a1.45,1.45,0,0,1-.35.18c-.51.2-1.08.23-1.58.4s-1.18-.17-1.64.33c-.28-.26-.59,0-.88-.05a5.19,5.19,0,0,0-1.71.47c-.19,0-.34.14-.53,0S24,20,23.9,20.11c-.32.28-.72.21-1.06.35-.61.24-1.14.74-1.89.56-.13,0-.3.09-.45.16s-.14.14-.23.11c-.57-.24-1.21.37-1.75-.17,0,0-.11,0-.17,0a2.06,2.06,0,0,0-.8.33c-.2.11-.61-.2-.93-.11a10.29,10.29,0,0,1-2.08.1A10.53,10.53,0,0,1,12,21.08c-.19,0-.32-.28-.53-.18-.65.29-1.19-.07-1.76-.26-.13,0-.28-.24-.43,0a.5.5,0,0,0,0,.5c.27.74.77,1.43.55,2.28a.21.21,0,0,0,0,.13c.28.55.46,1.15.69,1.72.31.73.44,1.5.68,2.24a.69.69,0,0,0,.54.51c.54.11,1.11-.27,1.63.11.07.05.16-.05.24-.1a.82.82,0,0,1,.33-.12,17.57,17.57,0,0,0,2.4-.35,5.77,5.77,0,0,1,1.81,0,1.78,1.78,0,0,0,1.25,0c.45-.22.87.14,1.32,0,.25-.08.48-.26.76-.22a5.17,5.17,0,0,0,2-.18,6.14,6.14,0,0,1,1.66-.38,6.31,6.31,0,0,0,1-.2,5.86,5.86,0,0,0,1.7-.31c.2-.07.62.05.91,0,.57-.12,1.16,0,1.72-.17a6.24,6.24,0,0,0,1.89-.51c.07-.06.16,0,.25,0a5.93,5.93,0,0,0,2-.15,14.74,14.74,0,0,0,2.64-1,9.33,9.33,0,0,0,1.53-.93,9.13,9.13,0,0,0,1.6-1,.23.23,0,0,1,.3,0c-.18.67-.8,1-1.23,1.45s-.87.56-1.24.94a1,1,0,0,1-.55.36c-.34,0-.47.33-.21.52.56.43.58,1.1.91,1.67a.33.33,0,0,1-.34-.23c-.15-.33-.36-.67-.73-.72s-.31-.6-.73-.6-.54.36-.88.46-.69-.05-1,.1a2.74,2.74,0,0,1-.72.19c-.54.12-1.08-.05-1.61.09-.26.06-.49.34-.76.19a.86.86,0,0,0-.72,0c-.31.11-.61.24-.92.34s-.34-.19-.62-.11-.6.46-1,.2a.21.21,0,0,0-.14.08c-.13.22-.36.24-.57.33-.39.15-.86.13-1.17.48a.13.13,0,0,1-.2,0c0-.15.26-.29.09-.47s-.31,0-.47,0-.49.22-.76.2a7,7,0,0,0-2.08.39,3.75,3.75,0,0,1-1.48.25,5.41,5.41,0,0,0-1.7.23c-.43,0-.81-.2-1.26,0a4.12,4.12,0,0,1-2.35-.22.76.76,0,0,0-.73.11,3.54,3.54,0,0,1-.47.26c-.18.08-.35.24-.3.4.13.46-.13.87-.08,1.32a.73.73,0,0,0,.12.42.64.64,0,0,1,.05.82c-.09.13-.05.26,0,.41s.44.72-.28.67c0,0-.07.06-.09.1a9.48,9.48,0,0,0-.61,1,13.62,13.62,0,0,0-.62,1.48c-.12.33-.46.56-.5.88-.09.74-.39,1.42-.53,2.14a9.53,9.53,0,0,1-.39,2.61c0,.06,0,.15,0,.22a16.59,16.59,0,0,1,.22,2.82c.05.43.13.87.18,1.31.08.7.23,1.42.38,2.13.2.89.35,1.8.61,2.68a7.34,7.34,0,0,1,.26,1.32c0,.28.11.34.36.26s.45-.4.77-.14c0,0,.21,0,.27-.12a2.41,2.41,0,0,1,.92-.6c.17-.08.28-.16.29-.34s0-.32.21-.26.07.21,0,.35c-.09.45-.53.6-.77.91A1.85,1.85,0,0,1,13.93,52.36Zm17.38-34c.17-.24.07-.53.29-.55a3,3,0,0,0,1-.4A32.66,32.66,0,0,1,36,16.14c.17-.06.28-.24.48-.22a2.34,2.34,0,0,0,1.39-.5A1.56,1.56,0,0,1,39,15.11c.13,0,.19,0,.25-.14s.12-.22.22-.21c.53.05.64-.39.88-.71.11-.15.17-.39.41-.42.43,0,.28-.29.17-.5a1.57,1.57,0,0,0-1.21-.76c-.42-.11-.87,0-1.25-.19a.62.62,0,0,0-.59,0,.92.92,0,0,1-.43.11c-.9,0-1.81-.09-2.71-.08-.35,0-.82-.11-1,0-.43.29-.8.07-1.19.08-.13,0-.27,0-.39,0a.53.53,0,0,1-.62,0c-.23-.13-.47-.22-.71.09a.58.58,0,0,1-.64.17,2.08,2.08,0,0,0-1.21,0c-.36.08-.73.1-1.1.15s-.82.37-1.3.29c0,0,0,0-.07.05-.19.24-.44.17-.7.15s-.47-.24-.77-.16a10.77,10.77,0,0,1-2.56.57h0a12.28,12.28,0,0,1-1.76.45A.61.61,0,0,1,20,14c-.11-.11-.23-.1-.33,0a2.82,2.82,0,0,1-1.49,1,7.57,7.57,0,0,0-1.43.56,3.65,3.65,0,0,1-1.5.6.34.34,0,0,0-.23.12c-.12.22-.33.27-.54.35a4.93,4.93,0,0,0-1.43.67c-.27.22-.58.42-.54.86,0,.29-.17.45-.43.57-.5.23-1,.5-1.49.74-.1.05-.14.13-.09.22s.12,0,.19,0c.4-.06.81-.14,1.09.27.05.07.1.1.19.05a1.17,1.17,0,0,1,1.42.25c.28.21.5.28.72,0a.55.55,0,0,1,.52-.21c1,.18,2-.08,3,.09.77.14,1.56-.15,2.39-.07a2.16,2.16,0,0,0,2-.4.37.37,0,0,1,.21-.06,6.19,6.19,0,0,0,1-.3A1.72,1.72,0,0,1,24,19.2c.26,0,.58.34.79-.11a.35.35,0,0,1,.25,0,.36.36,0,0,0,.44-.05.75.75,0,0,1,.41-.16c.56,0,1-.35,1.54-.37a2.34,2.34,0,0,1,.95,0,.28.28,0,0,0,.24,0,1.44,1.44,0,0,1,1.13-.15s.14,0,.15-.05c.15-.36.53-.36.81-.49S31.3,17.78,31.31,18.34Z"/><path d="M17.18,6.25c-.36-.27-.23-.54,0-.81a3.29,3.29,0,0,0,.37-.66.86.86,0,0,1,.67-.45c.43,0,.8-.32,1.27-.2.28.07.4-.37.24-.75A7.82,7.82,0,0,1,19.07.91,2.58,2.58,0,0,0,19,.49c0-.15-.09-.3.06-.42a.39.39,0,0,1,.46,0,.68.68,0,0,1,.33.56,10.79,10.79,0,0,0,1.35,3.94A11.88,11.88,0,0,1,22,6.82a.74.74,0,0,0,.24.46,2.29,2.29,0,0,1,.59,1.17c.07.2-.19.53-.48.58s-.53.07-.59-.39S21.3,8,21.27,7.59a2.78,2.78,0,0,0-.12-.38c0-.19-.14-.36-.33-.4s-.24.18-.34.3-.16.34-.35.26A.35.35,0,0,1,19.94,7c.06-.19.08-.48.34-.45.47,0,.32-.12.21-.39s0-.44-.13-.68S19.93,5,19.58,5c-1.23-.16-1.56.79-2,1.59A2.56,2.56,0,0,0,17.18,8c0,.22,0,.42.23.54a.47.47,0,0,0,.53-.08,3.54,3.54,0,0,1,1.44-.83c.09,0,.12-.12.16-.2s.05-.2.17-.17a.25.25,0,0,1,.19.22.83.83,0,0,1-.71.91c-.41,0-.59.47-1,.39a.58.58,0,0,0,0,.16.6.6,0,0,1-.7.64c-1.07-.15-1.23-.72-1.09-1.66a8.35,8.35,0,0,0,.37-1.41C16.7,6.14,17.05,6.45,17.18,6.25Z"/><path d="M59.78,27.17a3,3,0,0,1,2.15.6c.31.23.35,1,.18,1.48A4.3,4.3,0,0,1,60.62,31c-.43.35-.89.7-1.31,1.08a1.3,1.3,0,0,0-.19,1.41s.08.11.08.16c0,.46.28.58.69.51.07,0,.16,0,.17.09s0,.25-.13.25-.31.08-.38,0c-.4-.28-.88-.18-1.31-.32s-.57-.92-.49-1.29A4.32,4.32,0,0,1,59,31.11c.23-.26.36-.66.74-.74a1.3,1.3,0,0,0,.77-.6c.08-.11.16-.19,0-.3a.18.18,0,0,0-.28,0c-.53.5-1.22.34-1.82.35a2.69,2.69,0,0,0-1.07.19c-.49.22-.83,0-1.22-.11-.2,0-.13-.18-.12-.32a1.87,1.87,0,0,1,1.07-1.39,7.84,7.84,0,0,1,1.06-.64A10.82,10.82,0,0,1,59.78,27.17Zm-.7.78a5.13,5.13,0,0,0-1.4.68c-.13.13-.26.26-.15.46a.33.33,0,0,0,.47.13c.27-.17.58-.13.83-.25s.52.16.73.06a1.62,1.62,0,0,1,1.08-.09.37.37,0,0,0,.48-.35c0-.23,0-.54-.37-.55Z"/><path d="M36.43,2.33A3.75,3.75,0,0,1,34.93,5a2.79,2.79,0,0,1-1.6.69c-.23,0-.17.2-.15.34a20.45,20.45,0,0,1,.24,2.47c0,.13,0,.28.09.38.33.31.09.61,0,.9a.23.23,0,0,1-.33.14c-.21-.1-.46-.13-.48-.45,0-.54,0-1.09-.07-1.63,0-.78-.22-1.55-.24-2.33S31.94,3.79,32,2.88s.08-.85.87-.69a.84.84,0,0,0,.7-.31A4.45,4.45,0,0,1,35.44,1c.42-.14.92.36,1,.92A2.81,2.81,0,0,1,36.43,2.33ZM32.77,3.76a2.2,2.2,0,0,0,.25,1,.23.23,0,0,0,.33.14c.71-.42,1.79-.39,1.91-1.56,0-.17.2-.32.31-.49s.22-.27.09-.48-.34-.38-.54-.32a2.86,2.86,0,0,0-1.19.47q-.41.35-.84.66A.64.64,0,0,0,32.77,3.76Z"/><path d="M46.07,10.83a2.25,2.25,0,0,1-2.22.87A1.73,1.73,0,0,1,43,10.57c0-.61,0-1.21,0-1.81a.91.91,0,0,1,.16-.46.59.59,0,0,0,0-.56c-.32-.68-.14-1,.57-.91.14,0,.2,0,.24-.14s0-.15.07-.17a6.7,6.7,0,0,0,1.09-1,2.39,2.39,0,0,1,1.52-.42,1.34,1.34,0,0,1,1.15,1.79,1.89,1.89,0,0,1-2.37.92s0,0-.06-.06c-.19.42-.64.11-.9.32a2.46,2.46,0,0,0-.66,2.33.55.55,0,0,0,.62.43A4.23,4.23,0,0,0,46.07,10.83ZM45.62,7l1.07-.08c.2,0,.4-.13.31-.32s-.09-.67-.45-.61a2.83,2.83,0,0,0-1,.34.45.45,0,0,0-.2.5C45.34,7,45.55,7,45.62,7Z"/><path d="M.85,9.83A8.4,8.4,0,0,0,1.36,12a5.13,5.13,0,0,1,.16.65.68.68,0,0,0,1.08.47A2,2,0,0,0,3,12.89c.17-.16.29-.21.49,0s.36.14.45-.13.07-.32.23-.22a.3.3,0,0,1,0,.44.79.79,0,0,1-.29.26c-.44.18-.68.6-1.14.78s-.23.84.2,1.11.59.37.42.81c-.06.16.1.18.21.22a.28.28,0,0,1,.19.39c-.07.18-.22.17-.41.15-.6-.07-.68-.58-.82-1a.46.46,0,0,0-.22-.3c-.15-.09-.3-.27-.26-.44.08-.41-.21-.4-.46-.48s-.36.06-.48.26A.51.51,0,0,1,.42,15c-.11-.05-.23-.11-.25-.24s.11-.23.23-.3c.91-.51,1.06-1.17.4-2a1,1,0,0,1-.26-.77,1,1,0,0,0-.27-.91A1.14,1.14,0,0,1,0,9.91C0,9.46-.11,9,.21,8.55c.19-.24.4-.45.75-.26a.4.4,0,0,0,.34,0,2.24,2.24,0,0,1,1.48.24c.19.08.37.73.23.86s-.42,0-.51-.14C2.27,8.85,2,9,1.66,9.06c0,0,0,0-.07,0C1,9.21.87,9.39.85,9.83Z"/><path d="M62.42,38.47a4.79,4.79,0,0,1-2.42.35c-.3-.08-.37-.59-.23-.86.32-.59.83-1,1.18-1.58a.27.27,0,0,1,.18-.12.56.56,0,0,0,.59-.5c.05-.21.24-.21.37-.28.4-.23.43-.47.08-.75a1.47,1.47,0,0,1-.49-1.11c0-.09,0-.19.12-.21s.16.05.19.14.17.31.31,0,.23-.06.36,0c.34.19.6.55,1.05.53a.6.6,0,0,0,.48-.23,3.36,3.36,0,0,1,.9-.72c.19-.11.35-.2.38-.44A.67.67,0,0,1,66,32.2c.2-.05.46-.12.56.12s-.13.35-.28.51c-.61.65-1.41,1.09-2,1.74-.21.22-.29.42,0,.66a.38.38,0,0,1,.14.31.87.87,0,0,0,.41.76.54.54,0,0,1,.25.45c0,.12,0,.25-.13.31s-.16-.1-.23-.17c-.28-.23-.5-.54-1-.48-.22,0-.28-.29-.47-.38s-.14-.38-.39-.31a1.46,1.46,0,0,0-.72.41c-.41.48-.83.95-1.27,1.41-.29.3-.28.46.12.61A3.93,3.93,0,0,0,62.42,38.47Z"/><path d="M68.41,46.11c.23,0,.47,0,.55.25s-.17.35-.33.48a3.17,3.17,0,0,1-1.45.76c-.11,0-.28,0-.25.19a.28.28,0,0,0,.39.19,1.24,1.24,0,0,1,.83.07,1.12,1.12,0,0,1,.68,1.24,4.46,4.46,0,0,1-.65,1.13c-.6.73-1.42,1.17-2.06,1.84a.9.9,0,0,1-.92.15.34.34,0,0,1-.26-.38c.06-.26.12-.54.44-.62a7,7,0,0,0,1.19-.5,2.18,2.18,0,0,0,1.16-1.41c.15-.37-.44-.88-.89-.76a7.32,7.32,0,0,1-1.84.47c-.16,0-.4.21-.47-.12s-.13-.55.16-.77a3.19,3.19,0,0,1,1.1-.41.6.6,0,0,0,.45-.37A1.31,1.31,0,0,1,67,46.9,5.46,5.46,0,0,0,68,46.14C68.17,46,68.28,46.08,68.41,46.11Z"/><path d="M52.66,17.52a4.13,4.13,0,0,1-2.38.85.53.53,0,0,0-.39.05c-.31.24-.45-.1-.63-.22a.39.39,0,0,1-.07-.56c.23-.26-.09-.66.28-.85,0,0,0-.09,0-.11-.24-.21-.24-.22,0-.37s.22-.17.2-.27c-.09-.37.29-.61.24-1,0-.16.16-.19.27-.27.35-.25.36-.39,0-.7a.51.51,0,0,1-.11-.75c.25-.3.48-.07.67.13.53.54.79.54,1.29,0,.14-.15.33-.13.5-.15a1.15,1.15,0,0,1,1.28,1.4,1.28,1.28,0,0,1-1.24.75,4.08,4.08,0,0,1-.9-.22c-.51-.2-.76.3-1.07.57a1.81,1.81,0,0,0-.53,1c-.13.61.32.92,1,.91C51.65,17.77,52.13,17.54,52.66,17.52Zm-.12-2.77c.15,0,.33.05.36-.16s-.14-.2-.27-.19-.49-.06-.51.18S52.4,14.69,52.54,14.75Z"/><path d="M63.49,46.46c-.31-.18-.76-.11-.8-.61,0,0,0-.11-.06-.12-.33,0-.47-.25-.26-.5s.07-.52.41-.58c.14,0,.23-.19.3-.32s.12-.22.41-.14c.06,0,.09,0,.09,0,.05-.47.49-.51.78-.72a4.36,4.36,0,0,0,.74-.56c.33-.38.86-.4,1.3-.57a2.1,2.1,0,0,0,.68-.31.58.58,0,0,1,.84,0,1.11,1.11,0,0,1,.41,1.32,3,3,0,0,1-1.08,1.39,4.51,4.51,0,0,1-.89.67,1.56,1.56,0,0,1-.58.21.71.71,0,0,0-.38.12C64.91,46.37,64.11,46.16,63.49,46.46Zm.46-.74a3,3,0,0,0,1.41-.39c.46-.35,1.08-.45,1.47-.91s.73-.6.32-1.13c-.1-.12,0-.22.13-.25s.19-.06.14-.18-.13-.19-.24-.15c-.42.13-.89.08-1.24.43a3.2,3.2,0,0,1-.75.48c-.48.25-1,.55-1.42.84s-.22.66-.17,1A.27.27,0,0,0,64,45.72Z"/><path d="M9.94,12a3.4,3.4,0,0,1-.61,1.85A1.18,1.18,0,0,1,7.64,14,2.81,2.81,0,0,1,6.51,12.5,10.35,10.35,0,0,0,6,11.57c-.16-.4,0-.55.31-.61.52-.1.71-.55,1-.89a1.16,1.16,0,0,1,1.5-.32,1.72,1.72,0,0,1,1,1.58C9.82,11.57,10,11.78,9.94,12ZM8.4,13.46c.19,0,.36,0,.45-.21.22-.43.12-.94.37-1.36,0,0,0-.14-.06-.21a4.26,4.26,0,0,1-.26-.76c-.09-.56-.54-.34-.85-.41s-.37.19-.44.4-.05.29-.21.3c-.47,0-.38.36-.28.62a8.4,8.4,0,0,0,.5,1.05A1.2,1.2,0,0,0,8.4,13.46Z"/><path d="M13.42,7.36a4.87,4.87,0,0,0,.93.08,1.1,1.1,0,0,1,.94,1.17,3.2,3.2,0,0,1-.36,1.81,7.88,7.88,0,0,1-.81,1c-.32.37-.69.07-1-.08a1.26,1.26,0,0,0-.61-.2c-.32,0-.42-.31-.47-.55s.06-.6-.19-.86c-.08-.07,0-.19.08-.27a1.23,1.23,0,0,0,.28-1.06C12.12,7.93,12.81,7.34,13.42,7.36ZM14.55,9.1c.07-.24.06-.49-.11-.6s-.37,0-.55.11-.13.2-.28,0-.39-.06-.52.12a1.52,1.52,0,0,0-.22,1.14.88.88,0,0,0,.57.73c.27.11.49-.19.61-.37C14.29,9.91,14.65,9.58,14.55,9.1Z"/><path d="M47.87,11.54c-.47,0-.58-.14-.43-.56.09-.27,0-.62.32-.81a.16.16,0,0,0,0-.12c-.25-.48.09-.83.34-1.1.54-.59.89-1.47,1.93-1.44a1,1,0,0,1,.84.43,2,2,0,0,1,.34,1.27c0,.24-.14.45-.36.44s-.25-.26-.25-.46a.77.77,0,0,0-1.12-.74,1.26,1.26,0,0,0-1,1.18.89.89,0,0,1-.24.61c-.51.36-.21.74,0,1.07a5.25,5.25,0,0,1,.4,1.58c.1.66-1.1,1.78-1.76,1.7-.41-.05-.61-.4-.74-.75a3.88,3.88,0,0,0-.27-.79c-.13-.22.16-.31.3-.41s.25,0,.29.16a2,2,0,0,0,.16.51c.25.45.7.34,1.08.4.17,0,.2-.15.14-.25s0-.33.13-.45.21-.57-.06-.65c-.52-.16-.28-.41-.14-.66Z"/><path d="M54.07,26.16c0-.09,0-.29.13-.37.4-.32.47-.83.75-1.22.08-.11,0-.19,0-.28s.1-.44.41-.42.27-.19.13-.31-.1-.31.09-.38c.35-.12.52-.33.42-.71,0-.06,0-.15,0-.18.27-.27.35-.68.61-.95.09-.08.13-.34.33-.19a.36.36,0,0,1,.09.52c-.22.22-.21.51-.33.75-.43.81-.84,1.64-1.27,2.45-.09.17-.15.34,0,.49s.26,0,.41,0a1.12,1.12,0,0,0,.51-.34.73.73,0,0,1,.71-.27c.46.08.67-.35,1-.56a4.33,4.33,0,0,1,1.44-.53c.1,0,.27,0,.31-.1.15-.46.55-.3.85-.38.12,0,.27,0,.28.15s-.09.22-.23.28a12.17,12.17,0,0,0-1.61.72,11.94,11.94,0,0,1-1.63.84c-.67.24-1.15.78-1.79,1.08a7.21,7.21,0,0,1-.93.44A.5.5,0,0,1,54.07,26.16Z"/><path d="M51.93,20.86a1.25,1.25,0,0,1,.63-1.22,11.85,11.85,0,0,0,1.61-1.71,1.29,1.29,0,0,0,.28-1.05c-.05-.29.11-.41.34-.48a.28.28,0,0,1,.33.09.26.26,0,0,1,0,.32c-.21.34-.09.77-.32,1.11-.08.13,0,.36.21.28.44-.22.73-.08,1.16.14a2.5,2.5,0,0,1,.91.82c.08.11.16.24,0,.36s-.22,0-.32-.08a2.91,2.91,0,0,0-2.35-.12c-.86.28-1.25,1-1.89,1.5l-.37.25C52,21.21,51.91,21.05,51.93,20.86Z"/><path d="M38.63,6a6.77,6.77,0,0,0-.32-1.92c-.07-.17-.07-.43.16-.5s.39.09.49.29a2.46,2.46,0,0,0,.09.29c.29.43.44.45.85.11A2.18,2.18,0,0,1,42.45,4a.8.8,0,0,0,.27,0c.18,0,.39.07.34.31s-.26.25-.46.19a2.65,2.65,0,0,0-.84-.1,3,3,0,0,0-2.18,1.66.44.44,0,0,0,0,.25,1,1,0,0,1,0,.79c-.06.24-.06.6-.37.59s-.4-.37-.47-.62A2.31,2.31,0,0,1,38.63,6Z"/><path d="M62.53,43c-.65,0-.92-.22-.78-.69a1,1,0,0,1,.63-.71,1.74,1.74,0,0,0,.8-.46,3.51,3.51,0,0,1,1.28-1c.11,0,.12-.16.15-.26.12-.44.54-.52.87-.7.12-.07.26.05.33.17a.38.38,0,0,1-.11.48,13.69,13.69,0,0,1-1.6,1.32c-.45.3-1,.65-.95,1.4C63.19,42.92,62.87,43,62.53,43Z"/><path d="M67.81,39.16c0-.46.18-.63.46-.66a.63.63,0,0,1,.69.37c.06.15-.54.8-.72.76S67.76,39.37,67.81,39.16Z"/><path d="M4.7,12.25c-.06,0-.13,0-.13-.08a.39.39,0,0,1,.06-.2,2,2,0,0,1,1-.43c.07,0,.12,0,.14.06s.07.17,0,.2A4.79,4.79,0,0,1,4.7,12.25Z"/><path d="M34.8,71.12c-.16.39-.58.53-.69.95a1.09,1.09,0,0,1-.72.6c-.4.13-.68.6-1.21.44a2.39,2.39,0,0,0-.67.2,16.15,16.15,0,0,1-1.69.18c-.66.11-1.32.22-2,.36-.08,0-.23,0-.26,0-.28-.44-.79-.33-1.17-.53-.08,0-.24,0-.18-.18a.17.17,0,0,1,.26-.1,5,5,0,0,0,3.11,0,1.82,1.82,0,0,1,.62,0A.82.82,0,0,0,31,73a.21.21,0,0,1,.24-.07,1.21,1.21,0,0,0,1-.18,5.72,5.72,0,0,1,1-.51.6.6,0,0,0,.4-.39c.19-.47.64-.8.76-1.34,0-.27.27-.48.11-.8a.89.89,0,0,1,0-.62,2.1,2.1,0,0,0-.5-1.92,3,3,0,0,0-1-.94,2.19,2.19,0,0,1-.55-.83c-.09-.15-.14-.25-.36-.24s-.85-.44-1.07-.79c-.09-.15-.2,0-.26,0-.24.18-.41.07-.6-.07-.37-.29-.83-.48-1-1a.16.16,0,0,0-.17-.12c-.39,0-.63-.17-.57-.61,0,0-.06-.14-.09-.14-.37,0-.71-.2-1.12,0a8.35,8.35,0,0,1-2.24.63c-.53,0-1,.24-1.49.31-.23,0-.37-.11-.54-.16s-.34-.09-.39.17c-.09.44-.23.84-.75.95,0,0-.1.07-.09.08.12.42-.26.67-.33,1s.17.53.31.76a2.29,2.29,0,0,0,.21.23c-.12.14-.21-.09-.29,0s-.15.23-.3.09-.36-.28-.31-.46c.11-.48,0-1,.1-1.45,0-.18,0-.39.32-.39,0,0,.13-.08.16-.14a4.12,4.12,0,0,1,1.79-1.54c.18.5.41.57.87.28a4.59,4.59,0,0,1,1.36-.38c.08,0,.19,0,.26,0,.56-.6,1.35-.47,2-.57.33,0,.7.07,1-.15a.12.12,0,0,1,.19,0,.15.15,0,0,1,0,.21c-.23.18-.12.34,0,.55a1.6,1.6,0,0,0,1,1.06,2.55,2.55,0,0,1,.65.39,2.57,2.57,0,0,0,1.1.45.67.67,0,0,1,.52.28A14.49,14.49,0,0,0,34,66.24a3,3,0,0,1,1.1,2.1c0,.1,0,.24.13.24a.27.27,0,0,0,.26-.22A8.62,8.62,0,0,1,36,67.07a10.88,10.88,0,0,1,.6-1.3c.13-.19.15-.28-.11-.33a2.93,2.93,0,0,1-.51-.13c-.23-.08-.54-.13-.19-.45,0,0,.07-.11,0-.16s-.17,0-.24,0a.5.5,0,0,1-.72,0c-.18-.18-.43-.23-.49-.55a.6.6,0,0,0-.49-.49,1.14,1.14,0,0,1-.85-.91c0-.15-.11-.16-.21-.17a.58.58,0,0,1-.55-.55.49.49,0,0,0-.42-.45c-.36-.09-.64-.29-.51-.73.06-.22.21-.34.44-.25a.89.89,0,0,1,.56.42,2.44,2.44,0,0,0,.61.74,2.06,2.06,0,0,1,.78,1.21s.08.12.12.12c.73-.05,1,.61,1.4,1a1.43,1.43,0,0,0,1,.49,6.94,6.94,0,0,0,1.64.13,4.39,4.39,0,0,0,1.75-.44,4.89,4.89,0,0,1,1.26-.51,2.45,2.45,0,0,0,1.52-1.14.78.78,0,0,1,.36-.38.36.36,0,0,0,.14-.1,7.66,7.66,0,0,1,1.44-1.67c-.17-.47.17-.93.06-1.39,0-.09-.18-.18-.07-.27.51-.38.12-.76,0-1.12a1.58,1.58,0,0,1-.09-.57c0-.11,0-.22.15-.23a.18.18,0,0,1,.22.17,6.19,6.19,0,0,1,0,3.28,11.3,11.3,0,0,1-.33,1.09,1.8,1.8,0,0,1-.69.86,2.75,2.75,0,0,0-.82.88c-.14.22,0,.24.19.24a1.36,1.36,0,0,1,.93.47c.05,0,.1.12,0,.19s-.11.09-.15.07A3.86,3.86,0,0,0,42.34,64a2.16,2.16,0,0,0-1.11.41,4.9,4.9,0,0,1-1.9.76,2.09,2.09,0,0,0-.92.4,3,3,0,0,1-1.14.51.22.22,0,0,0-.17.12c-.33.68-.64,1.36-1,2a13,13,0,0,0-.55,1.47,7.07,7.07,0,0,0-.1,1.32,1.78,1.78,0,0,0,.26,1.08,4.75,4.75,0,0,0,.75,1c.11.13.29.27.14.5s.06.19.15.22a5.67,5.67,0,0,1,1.7,1.46,1.64,1.64,0,0,0,.88.56c.42.07.67.47,1,.66.16.09.27.23.46.08,0,0,.11,0,.17-.06a.45.45,0,0,1,.46.07.11.11,0,0,1,0,.16.33.33,0,0,1-.45,0,.2.2,0,0,0-.17,0c-.5.4-.91,0-1.34-.15s-.69-.62-1.14-.77c0-.59-.64-.49-.88-.82a3.32,3.32,0,0,0-1-1,1,1,0,0,1-.58-.79.68.68,0,0,0-.3-.44.6.6,0,0,1-.25-.25c-.14-.39-.11-.85-.58-1.07C34.72,71.52,35,71.32,34.8,71.12Z"/><path d="M41.68,49.28a.66.66,0,0,1,.56-.81c.71-.09,1.07-.61,1.5-1a7.53,7.53,0,0,1,1-.8c.07-.05.19-.07.17-.18-.08-.56.33-1,.44-1.47a1.46,1.46,0,0,0,.1-.53,1.56,1.56,0,0,1,.47-1.28,4.67,4.67,0,0,1-.09,1.09c-.15.68-.38,1.34-.49,2a.74.74,0,0,1-.29.45,1.3,1.3,0,0,0-.29,1.63c.27.74.53,1.5.85,2.21a6.69,6.69,0,0,0,.76,1.78,3.68,3.68,0,0,0,1.74,1.21,4.45,4.45,0,0,0,1.26.23.35.35,0,0,1,.35.23c.11.36.35.23.46.07a.49.49,0,0,1,.48-.24c.52,0,1-.25,1.49-.27.13,0,.31-.08.38.06s-.13.19-.21.29a.81.81,0,0,1-.49.28.72.72,0,0,0-.57.37c-.15.26-.53.27-.81.2a.49.49,0,0,0-.48.11,4.63,4.63,0,0,1-1.4.91c-.53.24-.87.73-1.4,1-.38.2-.4.75-.61,1.13a13.53,13.53,0,0,0-.44,1.72.25.25,0,0,0,0,.17A6.59,6.59,0,0,1,46.65,62a5.13,5.13,0,0,0,.74,1.66c.42.73,1.07,1.27,1.44,2a1,1,0,0,0,.51.48c.07,0,.23.13.17.23a.54.54,0,0,1-.32.2c-.12,0-.21,0-.22-.17,0-.31-.24-.46-.46-.62-.5-.38-.72-1.08-1.39-1.28,0,0-.08-.09-.09-.14a10.29,10.29,0,0,0-.89-2.14c0-.13-.17-.25-.12-.38.29-.62-.29-1.19-.08-1.81,0-.13-.15-.12-.2-.18-.18-.24-.52-.38-.22-.84a6.86,6.86,0,0,0,.38-1.21s0,0,0,0c.37-.5.37-1.22,1-1.55a1.39,1.39,0,0,0,.81-.72.48.48,0,0,1,.37-.23c.44,0,.59-.41.82-.69a.23.23,0,0,0,0-.29c-.09-.09-.17,0-.21.07a.31.31,0,0,1-.49.13c-.51-.35-1.11-.52-1.62-.86-.06,0-.18-.1-.17-.12.1-.46-.47-.61-.46-1a.16.16,0,0,0-.07-.11c-.58,0-.37-.43-.35-.77s-.32-.44-.53-.56a.63.63,0,0,1-.34-.66c.11-.4-.13-.71-.14-1.07s-.34-.63-.59-.88-.4,0-.57.11-.58.47-1,.34c-.12,0-.17.07-.24.15a.48.48,0,0,1-.46.21Z"/><path d="M21.18,57.36c.11,0,.25,0,.28.06.14.39.66.39.78.61.25.5.56.42,1,.35a.22.22,0,0,1,.24.16c.14.34.45.36.75.47a5.52,5.52,0,0,1,2.06.91c.11.1.2.18.14.34s-.23.09-.36.1-.24,0-.29-.18c-.12-.48-.26-.49-.77-.39a1.08,1.08,0,0,1-.75-.25,1.67,1.67,0,0,0-1-.36,2.52,2.52,0,0,1-.95-.53c-.26-.16-.5-.36-.76-.51-.07,0-.18-.15-.28-.07a.29.29,0,0,0,0,.34,2.11,2.11,0,0,1,.16,1.3c0,.52-.2,1-.26,1.58s-.47,1.09-.28,1.71c0,.09,0,.23-.16.21s-.11-.12-.08-.21,0-.06,0-.08a3.2,3.2,0,0,1,.18-2,5.92,5.92,0,0,0,.07-2.41,1.9,1.9,0,0,0-.62-.94,17.89,17.89,0,0,0-1.67-1.45s-.09-.12-.12-.11c-.63.13-1-.36-1.5-.55-.22-.09-.51-.07-.75-.18s-.3-.1-.24-.3a.28.28,0,0,1,.36-.2,2,2,0,0,1,.84.37c.3.34.69.26,1,.39a.24.24,0,0,0,.21-.06c.07-.06,0-.14-.06-.18a2.18,2.18,0,0,1-.74-2.21,4.09,4.09,0,0,0-.17-1.84c-.17-.55.07-1,0-1.58a18.39,18.39,0,0,1,.33-2.19s0,0,0,0c.65-.43.28-1.43,1.06-1.84.15-.07.3-.37.56-.42a.39.39,0,0,1,.44.16c.09.18-.1.26-.23.32-.55.26-.72.84-1,1.29a5.24,5.24,0,0,0-.71,2.19,5.5,5.5,0,0,1-.2,1.34c-.08.25.14.38.14.59,0,.63.06,1.26,0,1.89a2.08,2.08,0,0,0,.3,1.18,1.42,1.42,0,0,1,.3.74s0,.08,0,.08c.53.06.46.63.76.88s.3.25.23.49.09.2.24.25c.43.17.93.25,1.18.73C21,57.37,21,57.36,21.18,57.36Z"/><path d="M38,51.5c-.6,0-.94.51-1.4.76s-.69.65-1.18.73a.18.18,0,0,0-.14.09c-.12.51-.69.77-.8,1.23s-.41.93-.5,1.43a1.4,1.4,0,0,1-.55,1,2.4,2.4,0,0,0-.54.8c-.3.58-.9.8-1.26,1.28-.1.12-.25.18-.19.4s-.14.24-.28.28-.19.05-.25,0,0-.25.11-.34c.48-.48.71-1.2,1.43-1.45,0,0,.06,0,.06-.06.15-.79.88-1.26,1.13-2a1.37,1.37,0,0,0,0-.61c-.07-.44.06-.9,0-1.36a2.6,2.6,0,0,0-.17-.54A3.07,3.07,0,0,1,33,51.73a.46.46,0,0,0-.26-.52.71.71,0,0,1-.36-.59,2.84,2.84,0,0,0-.2-.86c0-.1-.08-.26.06-.32s.22.07.27.18a5.58,5.58,0,0,0,.44,1.11c.39.48.36,1.15.74,1.65a.4.4,0,0,1,.08.16c.07.22,0,.47.23.65s.35-.22.59-.11.28,0,.2-.21.08-.2.16-.24c.49-.24.82-.68,1.31-.92.24-.13.49.09.67-.1S37.6,51.55,38,51.5Z"/><path d="M46.71,65.56c.29.87.89,1.58,1.2,2.43.11.3.38.53.45.87a6.51,6.51,0,0,1,.35,1.58,4.39,4.39,0,0,1-.32,1.93c-.28.55-.56,1.12-.88,1.65a2.84,2.84,0,0,1-1.71,1.27,11.81,11.81,0,0,0-1.72.54c-.2.09-.39.18-.48-.08a.39.39,0,0,1,.24-.55,3.52,3.52,0,0,1,1.4-.23.7.7,0,0,0,.55-.14c.42-.37,1.05-.56,1.13-1.24a.28.28,0,0,1,.08-.15A1.88,1.88,0,0,0,47.76,72c0-.17,0-.46.35-.37,0,0,.14-.09.13-.1-.14-.31.29-.64,0-1a.25.25,0,0,1,0-.33c.11-.18,0-.34,0-.51,0-.87-.65-1.45-1-2.17-.21-.46-.13-1-.45-1.42A.47.47,0,0,1,46.71,65.56Z"/><path d="M21.53,44.18a.17.17,0,0,1-.29.08c-.33-.37-.8-.19-1.2-.32s-.56-.07-.7-.38c0,0,0-.07-.05-.07-.55,0-.79-.57-1.27-.63s-.6-.38-.71-.72-.2-.53-.56-.53c-.13,0-.2,0-.2-.18s0-.12,0-.13c-.65-.33-.42-1.07-.72-1.55-.16-.28,0-.48.12-.67.17-.45.06-1,.57-1.33,0,0,.08-.09.07-.11-.19-.57.4-.69.6-1,0-.07.09-.06.14,0a.15.15,0,0,1,0,.21,2.7,2.7,0,0,0-.35.7,4.89,4.89,0,0,0-.58,2.21,2,2,0,0,0,.71,1.7c.24.2.36.55.73.61l0,0c.15.9,1,.63,1.53.89a2.93,2.93,0,0,1,.93.55,3.06,3.06,0,0,0,1.05.53C21.46,44.05,21.52,44.08,21.53,44.18Z"/><path d="M41,26a.79.79,0,0,1-.27.79c-.25.25-.5.49-.74.76a2.52,2.52,0,0,0-.7,1.12,11.28,11.28,0,0,0-.5,1.68,2.76,2.76,0,0,0,.13,1.79c.16.29.1.67.36.95.08.09,0,.27-.19.2s-.62-.17-.58-.64a1,1,0,0,0-.19-.75c-.32-.4,0-.84,0-1.26a1.06,1.06,0,0,1,.29-.91.4.4,0,0,0,.1-.37,2.76,2.76,0,0,1,.47-1.61,5.44,5.44,0,0,1,1.76-1.87,4.53,4.53,0,0,1,1.18-.46.18.18,0,0,1,.24.06c.05.09,0,.17-.1.22s-.42.28-.61.44S41.21,26.39,41,26Z"/><path d="M47.43,40.94a.8.8,0,0,0-1.09.3c-.07.11-.16,0-.22,0l-.31-.44a2.41,2.41,0,0,0-.6-.68A2.47,2.47,0,0,1,44.52,39c0-.09-.1-.2,0-.27a.23.23,0,0,1,.29,0c.4.35.81.69,1.17,1.06a.75.75,0,0,0,.46.23,1.35,1.35,0,0,0,1.16,0c.11-.08.22,0,.33.09a.57.57,0,0,0,.59-.1,8.26,8.26,0,0,1,1.08-.52c.11-.05.19,0,.24.15s0,.25-.1.29c-.41.12-.72.5-1.19.43a.46.46,0,0,0-.46.21C47.94,40.83,47.67,40.84,47.43,40.94Z"/><path d="M18.35,34.28c.18-.07.27,0,.36.15a.32.32,0,0,0,.51.08c.18-.16.09-.35-.08-.49s-.28-.12-.1-.26.21-.31.38,0,.32.11.41,0-.18-.17-.22-.33a.42.42,0,0,1,.65,0c.09.08.17.14.26,0,.49-.52,1.07-.12,1.6-.16.12,0,.25,0,.34,0,.28-.3.7-.3,1-.47a2.15,2.15,0,0,1,1.59.56.18.18,0,0,1,0,.25.29.29,0,0,1-.36.09,2.7,2.7,0,0,0-2.43-.06c-.17.05-.37-.07-.44.22,0,.1-.22.06-.36,0a1.65,1.65,0,0,0-1.86.5,1.25,1.25,0,0,1-.77.55.66.66,0,0,0-.51.55.33.33,0,0,1,0,.13c-.1.13-.13.34-.34.36a.18.18,0,0,1-.15-.08c-.06-.21.12-.32.23-.44C18.32,35,18.57,34.72,18.35,34.28Z"/><path d="M41.68,49.28l0,0a.17.17,0,0,1-.26.08c-.06,0-.16-.08-.2,0-.36.53-.92.42-1.43.48-.16,0-.3.18-.44.27a1.17,1.17,0,0,1-1.12.15c-.8-.26-1.46-.87-2.35-.84a.38.38,0,0,1-.24-.11c-.24-.23-.39-.58-.85-.4-.07,0-.28-.27-.41-.42a.1.1,0,0,1,.06-.15c.07,0,.17-.05.21,0a1,1,0,0,0,1,.22c.18,0,.3.11.4.28s.33.66.75.21a.22.22,0,0,1,.35.22c0,.14,0,.28.15.27.64,0,1.23.34,1.9.07s1.12-.2,1.65-.46C41.15,48.94,41.41,49.17,41.68,49.28Z"/><path d="M26.25,46.16c.05-.32.31-.43.51-.56a.35.35,0,0,1,.52.08c.08.14.16.2.32.15a.59.59,0,0,1,.75.23c.15.22.36-.05.57.08.43.25.72.72,1.32.73.22,0,.44.33.66.51a.4.4,0,0,1,.09.45c0,.12-.08.2-.22.17s-.29-.07-.27-.28-.07-.16-.13-.13c-.41.2-.47-.16-.63-.36a.51.51,0,0,0-.55-.21.48.48,0,0,1-.59-.29c-.12-.27-.42-.27-.59-.46s-.13,0-.19,0a6.3,6.3,0,0,1-1.44,0Z"/><path d="M29.8,42.47c.09-.42.08-.9.13-1.37s.52-.85.71-1.32c.09-.24.23-.49.31-.73s.64-.46.61-.94c0-.07.19-.1.28,0s.06.21,0,.3-.46.27-.42.49c.08.38-.42.58-.24,1,0,0-.07.16-.14.22-.63.54-.58,1.37-.74,2.07a1.91,1.91,0,0,0,0,1.31c.06.11,0,.17-.11.17s-.28,0-.3-.19S29.85,42.81,29.8,42.47Z"/><path d="M15.79,41.65a.25.25,0,0,1-.13.19.17.17,0,0,1-.23-.07,4.34,4.34,0,0,0-.69-1c-.4-.35-.5-.91-.91-1.25-.09-.07-.22-.16-.1-.29a.25.25,0,0,1,.33,0,2.93,2.93,0,0,1,.48.52c.18.28.47.5.45.89a.22.22,0,0,0,.1.18c.43,0,.25.65.66.7C15.77,41.55,15.78,41.62,15.79,41.65Z"/><path d="M33.53,35.54c.07,0,.15.06.12.12-.19.38.11.92-.46,1.21-.37.19-.54.62-.77,1-.07.1-.18.22-.28.15s-.1-.24-.13-.36,0-.28.16-.27c.42,0,.49-.25.51-.57,0-.08,0-.15.1-.19.34-.14.38-.47.48-.76S33.35,35.55,33.53,35.54Z"/><path d="M17.54,45.93c.49.86-.31,3-1.23,3.38C16.84,48.22,17.65,47.3,17.54,45.93Z"/><path d="M37.77,34.78c-.27-.33-.63-.1-.92-.1a3.57,3.57,0,0,0-1.53.3c-.08,0-.14.14-.23.08s-.06-.14,0-.21.07-.16.22-.14a.7.7,0,0,0,.81-.41c.07-.14.28-.31.44,0a1.94,1.94,0,0,0,1.14.1c.1,0,.16,0,.22.05s.1.13,0,.2S37.84,34.73,37.77,34.78Z"/><path d="M24.88,29.76a1,1,0,0,1-.32.68c-.28.33-.68.6-.8,1-.05.16-.19.28-.33.2s0-.2.08-.28a.23.23,0,0,0,.07-.15c0-.15-.11-.35,0-.43.46-.32.67-1,1.31-1Z"/><path d="M54.32,51.62a.19.19,0,0,1,.18.11c0,.1.08.2,0,.29-.32.31-.47.76-.9,1-.11.05-.11.12-.1.21s0,.26-.18.24-.22-.23-.18-.27.08-.52.32-.59.5-.44.68-.73C54.18,51.76,54.2,51.64,54.32,51.62Z"/><path d="M15.93,35.71a1,1,0,0,1-1.45.15.22.22,0,0,1,0-.16,1.43,1.43,0,0,1,.92-.15C15.54,35.75,15.78,35.58,15.93,35.71Z"/><path d="M16.79,44.55c-.13,0-.28,0-.28-.22a4.37,4.37,0,0,0-.58-1.75c-.08-.15-.2-.3-.1-.5.12,0,.17.05.2.13.27.7.54,1.4.8,2.1a.26.26,0,0,1-.06.26Z"/><path d="M24.89,29.78c0-.4.38-.56.52-.86a.69.69,0,0,1,.78-.49,3.29,3.29,0,0,1-1.31,1.33Z"/><path d="M17.07,35.15c-.13.33-.48.28-.72.41s-.22-.06-.22-.21.49-.66.73-.61S17,35,17.07,35.15Z"/><path d="M39.51,35.1l1.17.91a.18.18,0,0,1,0,.16c-.05.09-.14,0-.19,0A1.64,1.64,0,0,1,39.51,35.1Z"/><path d="M21.8,44.25a.93.93,0,0,1,1-.07C22.46,44.66,22.33,44.67,21.8,44.25Z"/><path d="M16.77,44.57a2.06,2.06,0,0,1,.61.8c.05.1.13.24,0,.3a.17.17,0,0,1-.22-.16c0-.35-.39-.58-.33-1Z"/><path d="M39.2,34.82a.55.55,0,0,1-.37.27.27.27,0,0,1-.34-.18c0-.19.19-.25.33-.28A.43.43,0,0,1,39.2,34.82Z"/><path d="M31.21,48.62c-.2,0-.22-.13-.23-.26s0-.27.19-.23.37.06.37.25S31.34,48.57,31.21,48.62Z"/><path d="M13.68,38.87c-.09.17-.21.22-.32.15S13,39,13,38.74s.13-.16.24-.1S13.58,38.73,13.68,38.87Z"/><path d="M50.19,39.42c-.13,0-.21-.11-.17-.18s.18-.38.41-.42.17.07.12.13S50.38,39.33,50.19,39.42Z"/><path d="M29.63,60.84a.62.62,0,0,1,.31-.34c.09-.06.13-.19.26-.13a.11.11,0,0,1,.08.14.36.36,0,0,1-.23.25C29.92,60.81,29.76,60.75,29.63,60.84Z"/><path d="M34.87,35.1c0,.17-.08.24-.17.31a.42.42,0,0,1-.41.11.11.11,0,0,1,0-.11c0-.2.19-.15.3-.19S34.71,35,34.87,35.1Z"/><path d="M27.05,33.62a.39.39,0,0,1,.56.18.15.15,0,0,1-.11.21C27.24,34,27.24,33.76,27.05,33.62Z"/><path d="M28.13,34.29c-.09,0-.21,0-.21-.11s.12-.19.24-.2.26.05.25.19S28.22,34.23,28.13,34.29Z"/><path d="M30.19,37.94v-.32c0-.11-.13-.22,0-.33a.13.13,0,0,1,.12,0c.12.11.05.25,0,.38S30.35,37.84,30.19,37.94Z"/><path d="M25.92,33.51a.33.33,0,0,1,.19.28.14.14,0,0,1-.17.15.2.2,0,0,1-.18-.26C25.78,33.6,25.79,33.5,25.92,33.51Z"/><path d="M27,60.11c.18-.14.33-.25.53-.14a.09.09,0,0,1,0,.15A.44.44,0,0,1,27,60.11Z"/></g></g></g></svg>