<?xml version="1.0" encoding="utf-8"?>
<!-- Generator: Adobe Illustrator 25.3.1, SVG Export Plug-In . SVG Version: 6.00 Build 0)  -->
<svg version="1.1" id="Layer_1" xmlns="http://www.w3.org/2000/svg" xmlns:xlink="http://www.w3.org/1999/xlink" x="0px" y="0px"
	 viewBox="0 0 54.4 108.8" style="enable-background:new 0 0 54.4 108.8;" xml:space="preserve">
<style type="text/css">
	.st0{opacity:0.5;}
	.st1{fill:#F47730;}
	.st2{opacity:0.7;}
	.st3{fill:#69C5AB;}
</style>
<g id="Layer_2_1_">
	<g id="Layer_1-2">
		<g class="st0">
			<path class="st1" d="M17.6,48.8c-0.7-0.2-1.8-0.8-2.5-0.5c-0.5,0.3,0.8,0.6,0.7,0.6c-0.2-0.2-0.3-0.4-0.5-0.6
				c-0.3-0.3-0.6-0.6-1-0.8c-2-1.1-4.4,0.6-5.1,2.5C9,50.9,9,51.8,9,52.8c-0.1,0.8-0.3,1.7-0.6,2.4c-0.2,0.5-0.8,1-1,1.6
				c-0.3,0.9-0.6,1.7-0.8,2.6c-1,3.5-2.2,7.1-2.1,10.8c0,2-0.6,3.9-0.7,5.9c-0.1,1.7-1,3.3-1.2,5c-0.1,1.1,0,2.2,0,3.3s-0.4,2-0.4,3
				s0.2,2.1,0,3.1c-0.3,1-0.4,2.1-0.2,3.2c0.3,1.1,1.3,1.8,2.4,1.8C7.1,96,7.8,92.8,9,90.9c0.7-1.2,1.4-2.7,2.3-3.8
				c0.5-0.6,1.1-1.2,1.5-1.8c0.6-0.8,1.2-1.7,1.6-2.6c0.9-1.6,1.5-3.2,2.1-4.9c0.4-1.7,0.9-3.3,1.5-4.9c0.6-1.6,1.5-3.2,1.9-4.8
				c0.1-0.6,0.2-1.2,0.3-1.8c0.4-0.7,0.7-1.5,0.9-2.3c0.1-0.4,0.1-0.8,0.2-1.2c0.2-1-0.2,0.3,0.1-0.5c0.4-0.7,0.6-1.5,0.8-2.3
				c0.1-0.8,0.1-1.5,0.2-2.3c0.1-0.9,0.5-1.8,0.6-2.8c0.3-1.6,0.5-3.7-0.3-5.2c-0.4-0.6-0.9-1-1.4-1.5c-0.5-0.4-0.8-1-1.3-1.5
				c-1-1.1-2.6-1.6-4.1-1.2c-0.9,0.3-1.6,1-2.1,1.8c-0.3,0.8-0.5,1.7-0.4,2.6c-0.1,0.9-0.3,1.7-0.6,2.6c-0.2,1-0.4,1.9-0.6,2.9
				c-0.4,1.9-0.7,3.8-1.2,5.7c-0.3,1.1-0.4,2.2-0.4,3.3c0.1,0.8-0.1,1.6-0.4,2.3c-0.7,1.8-1.3,3.6-1.6,5.5c-0.5,2.1-1,4.3-1.5,6.4
				c-0.3,1.9-1,3.7-1.9,5.3l4.7,1.3c0-1.3,0.1-2.5,0.4-3.8c0.3-1.2,0.6-2.5,0.9-3.7c0.7-2.7,1.6-5.3,2.3-8c0.6-2.8,1.1-5.6,1.3-8.4
				c0.2-0.9,0.5-1.8,1-2.5c0.4-0.7,0.6-1.8,1.3-2.3L13.7,55c0.1,0.7,0,1.3,0.1,2c0.5,1.9,3.7,2.6,4.6,0.6c0.4-0.9,0.7-1.9,1.1-2.8
				c0.4-0.9,0.7-1.8,0.8-2.8c0.1-2.9-4.1-3.3-4.9-0.7c-0.4,1.3-1.1,2.4-1.4,3.7c-0.3,1.1-0.6,2.3-1,3.3c-0.7,1.7-2.2,4.3-1.5,6.2
				c0.4,1.3,1.8,2.1,3.2,1.7c0.6-0.2,1.1-0.6,1.4-1.1c0.5-1,0.9-2.1,1-3.2c0.3-1.2,0.5-2.4,1-3.5c1.1-2.5,0.7-5.5-1-7.6
				c-0.4-0.5,0.5,0.5-0.2-0.3c-0.2-0.3-0.5-0.6-0.8-0.8c-0.7-0.4-1.5-0.5-2.3-0.3c-1.3,0.4-2.4,1.3-2.9,2.5c-0.6,1.1-1.3,2.2-2,3.3
				c-0.4,0.4-0.8,0.9-1.1,1.3c-0.3,0.6-0.5,1.3-0.6,2l0.6-1.1c-0.7,0.7-1.2,1.6-1.3,2.7c0,0.5-0.1,1.1-0.4,1.5
				c-0.3,0.8-0.6,1.6-0.8,2.5c-0.3,0.6-0.6,1.2-0.8,1.9c-0.3,1.3,0.4,2.7,1.7,3.1c1.3,0.4,2.7-0.4,3.1-1.8c0.2-0.6,0.4-1.2,0.7-1.8
				c0.1-0.4,0.1-0.8,0.2-1.2s0-0.4,0-0.3s0,0,0.1,0c0.3-0.5,0.6-1.1,0.8-1.6c0.2-0.7,0.1-1.5,0.3-2l-0.6,1.1
				c0.8-0.9,1.3-2.2,1.4-3.4l-0.4,1.3c0.6-1,1.3-2,2-3c0.3-0.5,0.7-1.1,1-1.6l0.3-0.5c0.1-0.1,0.1-0.3,0.2-0.4
				c0.3-0.5-0.1-0.4-1.3,0.3l-1.1-0.7c-0.6-0.5,0.3,0.4,0.5,0.6c0.2,0.3,0.3,0.6,0.4,0.9c-0.1,0.8-0.3,1.6-0.6,2.3
				c-0.4,1-0.5,2-0.8,3c-0.1,0.8-0.3,1.5-0.6,2.2l4.6,0.6c0,0.1,0,0.3,0,0.4c0-0.2,0.1-0.4,0.2-0.6c0.1-0.4,0.3-0.7,0.4-1.1
				c0.4-1,0.8-1.9,1.1-2.8s0.5-2.2,0.9-3.2s0.9-2.2,1.3-3.3L15.3,52c-0.1,0.4-0.3,0.8-0.5,1.2c-0.2,0.6-0.4,1.3-0.7,1.9l4.6,0.6
				c-0.1-0.5,0-1.4-0.1-2c-0.4-1.3-1.8-2.1-3.1-1.7c-0.2,0.1-0.4,0.1-0.6,0.2c-1.1,0.8-2,1.8-2.6,3c-0.6,1.1-1.2,2.2-1.8,3.3
				c-0.4,1.5-0.6,3-0.6,4.5c-0.1,1.5-0.3,3-0.7,4.5c-0.8,2.9-1.8,5.7-2.5,8.6c-0.4,1.5-0.7,2.9-1.1,4.4c-0.3,1.5-0.5,3.1-0.4,4.7
				c-0.1,2.6,3.3,3.2,4.7,1.3c1.7-2.6,2.4-6,3-9c0.4-1.6,0.7-3.2,1.2-4.8c0.3-1.3,0.6-2.6,1.1-3.9c0.7-1.5,1-3.2,0.9-4.8
				c0.2-1.6,0.5-3.3,1-4.8c0.3-1.6,0.6-3.2,0.9-4.8c0.1-0.8,0.3-1.5,0.5-2.2c0.3-0.8,0.4-1.7,0.3-2.5v-0.3l-1.8,1
				c-0.1,0.3-0.5-0.7,0,0.2c0.2,0.4,0.5,0.7,0.8,1c0.2,0.2,0.4,0.4,0.6,0.5c0.5,0.3,0.1,0.4,0.1-0.2c-0.1,0.7,0,1.4-0.2,2.1
				c-0.3,1.4-0.6,2.7-0.8,4.2c0,0.4-0.1,0.9-0.2,1.3c-0.3,0.6-0.6,1.3-0.8,2c-0.1,0.6-0.1,1.1-0.3,1.7c-0.2,0.6-0.6,1.2-0.8,1.8
				s-0.2,1.2-0.3,1.8c-0.3,0.8-0.6,1.6-1,2.4c-0.6,1.3-1,2.7-1.5,4.1s-0.7,3.1-1.3,4.6c-0.5,1.5-1.3,3-2.1,4.3c-1,1.2-2,2.5-2.8,3.8
				C5.6,87,4.8,88,4.2,89.2c-0.2,0.5-0.4,1-0.7,1.4c-0.1,0.1-0.2,0.3-0.3,0.4c0-0.4,1.6-0.4,0.9-0.4l2.4,1.8
				c0.1,0.6,0.2-0.4,0.2-0.7C6.9,91.3,7,90.7,7,90.2c0-0.9-0.1-1.8,0-2.7s0.4-1.8,0.4-2.8s-0.1-1.8,0-2.7c0.1-1.8,1-3.4,1.2-5.2
				c0.1-0.9,0.2-1.8,0.3-2.7c0.3-1,0.4-2.1,0.4-3.1c-0.1-0.9-0.1-1.8,0-2.7c0.1-0.9,0.5-1.7,0.6-2.6c0.4-1.7,0.8-3.5,1.4-5.2
				c0.1-0.6,0.3-1.2,0.5-1.8c0.2-0.4,0.6-0.7,0.8-1c0.2-0.5,0.4-0.9,0.6-1.4c0.3-0.8,0.5-1.7,0.6-2.6c0.1-0.5,0.1-1,0.1-1.5
				c-0.1-1-0.1-0.2-0.9-0.2l-1.3-0.3c-0.5-0.2,0.2,0.4,0.4,0.6c0.4,0.4,0.9,0.7,1.5,0.8c0.5,0.1,1.1,0.1,1.6,0.1
				c0.3,0,0.6,0.2,1,0.3C19.5,54.3,20.8,49.5,17.6,48.8L17.6,48.8z"/>
		</g>
		<g class="st0">
			<path class="st1" d="M17.3,51.8c0.3,1.5,2,2.3,1.9,3.6c-0.2,0.8-0.5,1.7-0.9,2.4c-0.4,1-0.7,2-1,3c-0.3,0.9-0.6,1.8-0.8,2.8
				c-0.1,0.9-0.3,1.7-0.5,2.5c-0.4,1-0.6,1.9-0.9,2.9c-0.2,0.5-0.3,1-0.4,1.5c-0.1,0.5,0,1-0.1,1.4c-0.2,0.8-0.7,1.6-0.9,2.4
				s-0.6,1.7-0.9,2.7c-0.5,1.8-1.3,3.5-2.2,5.1c-1,1.8-1.5,3.7-2.6,5.4c-0.5,0.6-1.1,1.2-1.7,1.8c-0.5,0.7-1.1,1.4-1.7,2
				c-2.4,2.2,1.2,5.7,3.5,3.5c0.7-0.7,1.3-1.5,1.9-2.3c0.7-0.7,1.4-1.4,2-2.2c1.2-1.8,1.8-3.9,2.8-5.7c1.1-1.8,2-3.7,2.6-5.7
				c0.3-1.1,0.8-2.1,1-3.2c0.2-1,0.7-1.7,0.9-2.7c0.1-0.6,0-1.2,0.1-1.8c0.1-0.3,0.3-0.6,0.4-0.9c0.3-1.1,0.6-2.1,0.9-3.2
				c0.3-1,0.5-2,0.6-3c0.2-1,0.5-1.9,0.9-2.8c0.7-2,1.9-4.1,1.8-6.3c0-1-0.2-2-0.7-2.8c-0.3-0.6-1.2-1.2-1.3-1.8
				c-0.4-1.3-1.7-2.1-3.1-1.8C17.7,49.1,16.9,50.5,17.3,51.8L17.3,51.8z"/>
		</g>
		<g class="st0">
			<path class="st1" d="M16.4,49.6c-0.1,0.9-0.2,1.8-0.4,2.8c-0.1,0.9-0.2,1.8-0.4,2.7c-0.2,0.8-0.3,1.7-0.3,2.6
				c-0.1,0.6-0.2,1.2-0.4,1.8c-0.1,0.5-0.2,0.9-0.2,1.4c0,0.3,0,0.5,0,0.8c0,0.4,0,0.5,0,0.3c0.1-0.6-0.3,0.3-0.5,0.5
				c-0.3,0.5-0.4,1-0.5,1.6c-0.1,0.8,0.1,1-0.3,1.7c-0.2,0.4-0.4,0.8-0.6,1.2c-0.2,0.5-0.1,1-0.3,1.5c0,0.2,0,0.2,0-0.1
				c-0.2,0.2-0.3,0.4-0.4,0.7c-0.2,0.5-0.4,1-0.6,1.5c-0.4,1-0.8,2-1.2,3.1c-0.7,1.9-1,3.8-1.6,5.7c-0.5,1.8-1.2,3.6-2.1,5.3
				c-1,1.9-2.2,3.6-3.2,5.5c-1.4,2.9,2.9,5.4,4.3,2.5c1-1.9,2.2-3.7,3.2-5.5c1-1.9,1.8-3.9,2.4-6c0.7-2,1-4.1,1.7-6.1
				c0.4-0.9,0.7-1.9,1.1-2.8c0.5-0.9,0.8-1.8,1.1-2.8c0.1-0.6,0.3-1.1,0.6-1.6c0.5-0.9,0.8-1.9,0.7-2.9c0-0.6-0.1-0.5-0.3,0.3
				l0.6-0.7c0.2-0.4,0.4-0.8,0.5-1.2c0-0.9,0.1-1.8,0.3-2.6c0.3-0.8,0.4-1.6,0.4-2.4c0.1-0.8,0.2-1.6,0.3-2.3
				c0.2-1.1,0.2-2.2,0.4-3.3c0.2-0.9,0.4-1.8,0.4-2.8C21.3,46.4,16.3,46.4,16.4,49.6L16.4,49.6z"/>
		</g>
		<g class="st0">
			<path class="st1" d="M13.4,53.7c-1.4-0.2-1-0.8-1-0.3c0,0.3,0.1,0.2,0.2,0.5c0.2,0.5,0.3,1,0.5,1.6c0.3,1.1,0.3,2.3,0.1,3.4
				c-0.3,0.9-0.5,1.7-0.7,2.6c0,0.5-0.1,1-0.2,1.4c-0.5,0.7-0.9,1.6-1.2,2.4c-0.1,0.5-0.2,0.9-0.2,1.4c0,0.5,0.2,0-0.2,0.5
				c-1,1.2-1,2.9-1.5,4.4s-0.8,3.2-1.5,4.7S6.6,79.6,6,81.3c-0.6,1.9-1.3,3.8-2,5.8c-0.4,1.3,0.4,2.7,1.7,3.1
				c1.3,0.3,2.7-0.4,3.1-1.8c0.7-2,1.4-4.1,2.1-6.2c0.6-1.8,1.2-3.6,1.9-5.4c0.4-1,0.5-2,0.8-3c0.3-0.9,0.6-1.7,0.9-2.6
				c0.1-0.3,0.1-0.7,0.1-1c-0.1,0.2-0.1,0.2,0,0c0.2-0.4,0.5-0.7,0.7-1.1c0.3-0.8,0.5-1.6,0.7-2.5c0.3-0.9,1-1.7,1.3-2.7
				c0.2-0.8,0.1-1.6,0.4-2.4c0.6-1.7,0.8-3.5,0.7-5.3c-0.3-3-1.4-7.1-4.9-7.5c-1.4,0-2.5,1.1-2.5,2.5C11,52.5,12.1,53.6,13.4,53.7
				L13.4,53.7z"/>
		</g>
		<g class="st0">
			<path class="st1" d="M18,57c-0.3,1.3-0.7,2.5-1.1,3.8c-0.2,1.3-0.5,2.6-0.9,3.9c-0.5,1.3-0.6,2.7-1.1,4s-0.9,2.6-1.4,3.8
				c-0.9,2.4-1.5,5-2.9,7.2c-0.7,1.2-1.4,2.5-1.9,3.8c-0.2,0.5-0.4,1.1-0.7,1.6c-0.1,0.1-0.8,1-0.3,0.7l3.7,2.8
				c0.3-0.9,0.7-1.8,1.2-2.5c0.6-1.2,1.1-2.5,1.6-3.8c1-2.6,2.5-5.1,3.1-7.9s1.8-5.4,2.6-8.1c0.9-2.9,1.4-5.9,1.5-8.9
				c0-3.2-5-3.2-5,0c-0.1,5.7-2.9,10.7-4,16.2c-0.3,1.2-0.8,2.4-1.3,3.5c-0.6,1.3-1.1,2.7-1.7,4c-0.3,1-0.8,2-1.3,3
				c-0.7,1-1.2,2.1-1.5,3.3c-0.2,1,0.1,2,0.9,2.6c0.8,0.6,1.9,0.7,2.8,0.2c2.4-1.6,2.7-4.6,4.1-6.9c1.5-2.7,2.7-5.5,3.7-8.5
				c0.5-1.4,1-2.7,1.4-4.1s0.6-2.7,1-4c0.3-0.8,0.6-1.7,0.7-2.5c0.1-0.7,0.2-1.5,0.4-2.2c0.6-1.6,1-3.2,1.3-4.9
				c0-1.4-1.1-2.5-2.5-2.5C19.1,54.5,18,55.6,18,57z"/>
		</g>
		<g class="st0">
			<path class="st1" d="M18.3,55c0,1.3,0.5,2.6,0.4,3.8c0,0.6-0.2,1.1-0.3,1.7s0,1.2-0.1,1.8c-0.3,1.2-0.6,2.4-1,3.5
				c-0.1,0.5-0.2,0.9-0.4,1.4c-0.1,0.2-0.1,0.4-0.2,0.6c0-0.1-0.3,0.3,0.1-0.1l4.3,1.8c0-0.6,0.5-1.3,0.6-2s0.2-1.4,0.3-2.2
				c0.3-1.7,0.9-3.3,1.3-5c0.7-3.2,1.3-6.7,0.7-9.9c-0.4-1.3-1.8-2.1-3.1-1.7c-0.2,0.1-0.4,0.1-0.6,0.2c-1.2,0.8-2,2.2-2,3.6
				c0,0.4,0.1,0.8,0,1.2c-0.1,0.6-0.2,1.2-0.5,1.8c-0.4,1.3-0.5,2.6-0.7,3.9c-0.3,1.5-0.6,3-0.8,4.6c-0.3,1.4-0.6,2.8-1.1,4.2
				c-0.3,1.4-0.8,2.7-1.4,4c-0.5,1.1-1,2.1-1.5,3.2c-0.7,1.1-0.9,2.4-0.6,3.7c0.5,1.4,2.2,2.5,3.7,1.5c1-0.7,1.7-1.8,2.1-2.9
				c0.1-0.2,0.1-0.4,0.2-0.6s0.2-0.4,0.1-0.2c0.2-0.5,0.6-1,0.9-1.5c1.2-2.2,1.8-5,2.4-7.5c0.7-2.7,1-5.5,0.9-8.3
				c0-2.5,0.5-5.3-0.5-7.7c-0.4-1.3-1.7-2.1-3.1-1.8c-1.3,0.4-2.1,1.7-1.8,3.1c0.7,1.8,0.3,4,0.3,5.9c0.1,2.4-0.1,4.7-0.6,7
				c-0.3,1.1-0.6,2.1-0.9,3.2c-0.2,1-0.5,2-0.8,3c-0.3,0.8-0.9,1.5-1.3,2.3c-0.2,0.5-0.4,1-0.6,1.5s-0.5,0.7,0.1,0.2l3.7,1.6
				c0.1,0.3-0.1,0.4,0.1,0.1c0.2-0.4,0.4-0.7,0.5-1.1c0.5-1.1,1.1-2.2,1.6-3.4c1-2.5,1.8-5.1,2.3-7.8c0.2-1.2,0.3-2.4,0.6-3.6
				s0.4-2.4,0.6-3.5s0.6-2.3,0.8-3.4c0.1-0.6,0.2-1.2,0.1-1.8c0-0.2,0-0.4,0-0.6c-0.1-0.3,0.2,0-0.5,0.5l-3.7-1.5
				c0.2,1.5,0.2,3-0.1,4.5c-0.2,1.4-0.5,2.8-0.9,4.1c-0.5,1.6-0.9,3.2-1.2,4.8c0,0.6-0.2,1.2-0.3,1.8c-0.4,0.8-0.6,1.6-0.6,2.5
				c0,1.4,1.2,2.5,2.6,2.5c0.6,0,1.2-0.3,1.7-0.7c0.8-1,1.4-2.1,1.6-3.3c0.3-1.3,0.8-2.6,1.1-3.9s0.4-2.9,0.6-4.3
				c0.3-1.7-0.2-3.2-0.3-4.8C23.3,51.8,18.3,51.8,18.3,55L18.3,55z"/>
		</g>
		<g class="st0">
			<path class="st1" d="M14.5,69.9c-0.1,0.8-0.3,1.6-0.5,2.3c-0.2,0.7-0.2,1.4-0.4,2.1c-0.1,0.4-0.2,0.7-0.4,1.1
				c0.1-0.2,0,0-0.1,0.1S13,75.9,12.9,76c-0.4,0.8-0.7,1.6-1,2.4l-0.4,1c-0.1,0.2-0.1,0.3-0.2,0.5c-0.2,0.4,0.1-0.3-0.1,0.1
				c-0.3,0.7-0.7,1.3-1.1,1.9c-1,1.2-1.7,2.7-2,4.3c0,1.4,1.1,2.5,2.5,2.5c1.4,0,2.5-1.1,2.5-2.5c-0.1,0.3-0.1,0.1,0,0
				c-0.1,0.2-0.1,0.2,0.1,0s0.4-0.6,0.5-0.8c0.4-0.5,0.8-1,1.1-1.5c0.8-1.4,1.4-2.8,1.9-4.3c0.1-0.4-0.1,0.3,0-0.1
				c0.1-0.2,0.1-0.3,0.2-0.5c0.1-0.3,0.3-0.6,0.4-0.9c0.3-0.7,0.6-1.5,0.9-2.3c0.2-0.7,0.3-1.4,0.4-2.1c0.2-0.8,0.4-1.6,0.5-2.3
				c0.3-1.3-0.4-2.7-1.8-3.1C16.4,67.9,14.6,68.6,14.5,69.9L14.5,69.9z"/>
		</g>
		<g class="st0">
			<path class="st1" d="M10.1,53.8c-0.4,0.7-0.7,1.4-0.9,2.2c-0.2,0.8-0.6,1.5-0.9,2.3c-0.5,1.6-1,3.2-1.3,4.9
				c-0.9,3.5-2,7-2.5,10.6c-0.1,1.7-0.2,3.5-0.1,5.3c0,1.3-0.4,2.5-0.4,3.8c0,0.9,0.1,1.9,0.2,2.8c0,0.5,0,1,0,1.6s-0.1,0,0,0.1
				c0,0.1,0,0.2-0.1,0.3c0.1-0.4,0.4-0.8,0.8-1l1.9-0.2c1.1,0.5,0.9,1,0.9,0.6c0-0.2-0.1-0.4-0.2-0.7c0-0.1-0.1-0.7-0.1-1
				c-0.1-1.5,0-3,0-4.5c-0.1-3.2,0.1-6.3,0.6-9.5c1-4.8,0.8-10.7,4.5-14.4c2.3-2.3-1.2-5.8-3.5-3.5c-3.8,3.8-4.5,8.9-5.3,13.9
				c-0.6,2.7-1,5.5-1.2,8.2c-0.2,2.9-0.2,6-0.1,8.9c0.1,2,0.1,4.5,1.6,6c1.1,1.1,2.9,1.2,4,0.1c0,0,0,0,0,0c0.7-0.8,1.1-1.9,1.1-3
				C9.3,85.9,9,84.3,9,82.7c0-1.1,0.3-2.2,0.4-3.2c0.1-1.5-0.1-2.9,0-4.4c0.3-3.3,1.5-6.5,2.3-9.7c0.4-1.7,0.8-3.5,1.3-5.1
				c0.2-0.8,0.6-1.5,0.9-2.2c0.2-0.6,0.4-1.2,0.7-1.7C16.2,53.6,11.9,51.1,10.1,53.8L10.1,53.8z"/>
		</g>
		<g class="st0">
			<path class="st1" d="M4.3,91.4c-0.8,1-1.5,2.1-2.1,3.2c-0.4,1-0.9,1.9-1.5,2.8L1,96.9C1,97,0.9,97.1,0.8,97.2
				c-0.5,0.5-0.7,1.1-0.7,1.8c0,0.7,0.3,1.3,0.7,1.8c1,1,2.6,1,3.5,0c0.5-0.5,0.9-1.1,1.2-1.8c0.2-0.5,0.5-1,0.7-1.5
				c0.5-1,1.1-1.9,1.7-2.8l-0.4,0.5c0.1-0.1,0.2-0.2,0.3-0.3c0.5-0.5,0.7-1.1,0.7-1.8c0-0.7-0.3-1.3-0.7-1.8
				c-0.5-0.5-1.1-0.7-1.8-0.7C5.4,90.7,4.8,90.9,4.3,91.4L4.3,91.4z"/>
		</g>
		<g class="st2">
			<path class="st3" d="M5.7,21.5c0.8,0.5,2.1,1.1,2.4,1.9l0.6-0.8c-0.4,0.1-0.8,0.1-1.2,0.1l-1.1,1.6c0.5,0,0.9-0.1,1.3,0.2l0.4-1
				c0.6-0.3,0.1-0.1-0.1,0c-0.3,0.1-0.5,0.2-0.7,0.3c-0.4,0.2-0.8,0.6-0.9,1c0,0.1,0,0.3,0.1,0.4c0.6,0.5,1.2,0.8,1.9,1.1
				c0.7,0.1,1.3,0.4,1.8,0.9c0.8,1.1,2.3,1.4,3.4,0.7c0.4-0.2,1.2-0.6,0.8-1.2S13.4,26,13,25.5c-0.4-0.6-0.8-1.3-1.2-2l-2.5,1.3
				c1.2,0.4,2.3,0.8,3.4,1.3c0.6,0.4,1.6,0.9,1.6,1.7l1.7-1.2c-0.9,0.1-1.8,0.4-2.5,0.8c-0.3,0.1-0.5,0.5-0.6,0.8
				c0.1,1.5,1.6,2.6,2.6,3.5c1.3,1.3,2.2,2.9,2.4,4.7c0.2,1.8,0.3,3.4,0.4,5.2c0,0.8,0.5,3.1-0.2,3.7c-1.6,1.1,0.9,1.5,1.8,0.9
				c1.3-0.9,1.5-2.1,1.4-3.6c0-1.7,0-3.5-0.2-5.2c-0.1-1-0.2-2.1-0.5-3.1c-0.3-0.9-0.8-1.7-1.4-2.4c-1-1.4-3.2-2.7-3.4-4.5l-0.6,0.8
				c-0.2,0.1-0.1,0,0.3,0c0.6-0.1,1.7-0.4,1.6-1.2c0-1-1.1-1.6-1.8-2c-1.2-0.6-2.5-1.2-3.8-1.6c-0.6-0.3-3.2,0.2-2.5,1.3
				c0.3,0.7,0.7,1.4,1.2,2c0.5,0.4,0.9,0.8,1.3,1.3l0.8-1.2c0.9-0.4,1,0.1,0.5-0.6c-0.1-0.2-0.2-0.3-0.4-0.5
				c-0.4-0.4-0.9-0.6-1.4-0.8c-0.3-0.1-0.7-0.2-1-0.3c-0.2-0.1-0.5-0.4-0.7-0.4S8.1,25.1,9,24.8c0.3-0.1,0.6-0.2,0.9-0.4
				c0.3-0.1,0.8-0.7,0.4-1c-0.8-0.6-1.9-0.9-2.9-0.8c-0.6,0-1.6,0.2-1.9,0.8s0.2,0.9,0.8,0.9c1.4,0.1,2.8-0.2,4.1-0.9
				c0.2-0.1,0.7-0.5,0.6-0.8c-0.4-1.2-2-2-3-2.6C7.2,19.6,4.5,20.8,5.7,21.5L5.7,21.5z"/>
		</g>
		<g class="st2">
			<path class="st3" d="M14.7,9.6c0.3,0.8,0.6,1.6,1,2.3c0.2,0.7,0.5,1.5,0.9,2.1c0.1,0.2,0.3,0.4,0.4,0.7c0,0,0.2,0.4,0.2,0.4
				c0.1,0.3,0.2,0.2,0.5-0.3c0.5-0.3,0.6-0.4,0.4-0.4c-0.6-0.1-1.2-0.1-1.8,0.1c-0.5,0.1-1.7,0.9-1.1,1.6c0.6,0.6,1.3,1.1,2,1.5
				c0.2,0.1,0,0.2,0.1,0c-0.1,0.2-0.4,0.4-0.6,0.7c-0.2,0.5-0.3,1-0.2,1.5c0.2,1.1,0.7,2.1,1.4,3c0.4,0.4,1,0.7,1.2,1.3
				c0.2,0.7,0.2,1.4,0.1,2c0,1.5,2.9,1,2.9-0.2c0-1.5,0.2-2.7-1-3.8c-0.5-0.3-0.8-0.8-1.1-1.3c-0.3-0.5-0.5-1.1-0.6-1.7
				c0-0.5,0.4-0.7,0.6-1.1c0.2-0.5,0.1-1-0.1-1.4c-0.5-0.8-1.5-1-2.1-1.6l-1.1,1.6c-0.2,0-0.2,0,0,0c0.2,0,0.5,0,0.7,0
				c0.5,0,0.9,0,1.4-0.2c0.9-0.2,1.4-1.1,1.1-2c-0.2-0.4-0.4-0.8-0.6-1.1c-0.2-0.4-0.4-0.8-0.5-1.2c-0.5-1-0.9-2.1-1.3-3.2
				C17.3,7.5,14.4,8.2,14.7,9.6L14.7,9.6z"/>
		</g>
		<g class="st2">
			<path class="st3" d="M23,3.9c0.3,0.7,0.6,1.4,0.8,2.1c0.3,0.6,0.7,1.2,1,1.8s0.5,1.3,0.9,1.8s1,0.9,1,1.5l1.2-1
				c0.8-0.2,0.5,0.2,0.2-0.3c-0.1-0.2-0.2-0.4-0.3-0.5c-0.2-0.4-0.4-0.7-0.6-1C26.7,7.7,24.5,8,24.5,9c0,1.1,0.3,2.2,0.7,3.2
				c0.3,0.8,1,1.8,0.7,2.6l2-1.1c0,0-0.5-0.3-0.5-0.3c-0.8-0.3-1.7-0.2-2.3,0.4c-0.6,0.5-0.8,1.4-0.5,2.1c0.3,0.9,0.4,1.8,0.2,2.7
				l2.3-1c-0.6-0.2-1-0.8-1.6-1.1c-0.9-0.4-1.9-0.1-2.5,0.7c-0.8,1.3-0.5,2.4-0.2,3.8c0.2,1.2,0,2.7,0.1,4c0.1,1.5,0.1,3,0,4.4
				c-0.4,1.6-0.9,3.1-1.5,4.7c-0.4,1.2,2.6,0.8,2.9-0.3c0.6-1.5,1.1-2.9,1.5-4.5c0.2-1.4,0.2-2.7,0.1-4.1c-0.1-1.3-0.1-2.6-0.1-3.9
				c0.2-1.4-0.7-2.6,0-4l-2.5,0.7c0.7,0.5,1.4,1,2.1,1.4c0.7,0.3,2.2-0.2,2.3-1c0.1-0.7,0.1-1.3,0.1-2c-0.1-0.4-0.6-1.5-0.3-1.8
				l-2.3,0.4c0.6,0.3,1.1,0.5,1.7,0.6c0.8,0.1,1.6-0.3,2-1.1c0.5-1.9-1.5-3.9-1.5-5.8l-2.8,0.8c0.5,0.5,0.7,1.3,1.2,1.9
				c0.7,0.6,1.7,0.8,2.6,0.4c0.4-0.1,1.2-0.5,1.2-1c0.1-0.6-0.1-1.2-0.6-1.7c-0.5-0.6-0.8-1.2-1.1-1.9c-0.4-0.8-1-1.6-1.3-2.4
				c-0.2-0.7-0.5-1.5-0.9-2.2C25,1.8,22.2,2.8,23,3.9L23,3.9z"/>
		</g>
		<g class="st2">
			<path class="st3" d="M36,15.2c-0.7,0.5-1.5,1-2.3,1.4c-0.8,0.5-1.5,1.1-2.1,1.8c-0.2,0.3-0.1,0.5,0.2,0.6
				c0.9,0.3,1.9,0.2,2.7-0.2c0.4-0.2,0.7-0.3,1.1-0.5l0.6-0.3c0.2-0.1,0.5-0.1,0.2-0.1l0.5-1.4c-0.8,0.1-1.5,0.4-2.1,0.8
				c-0.4,0.4-0.9,0.7-1.4,1c-1.4,0.5-2.6,1.3-3.6,2.4c-0.3,0.4,0,0.6,0.4,0.7s2.2-0.1,2.4,0.2s-0.4,0.6-0.6,0.8
				c-0.4,0.4-1,0.8-1.6,1.3s-1.5,1.2-2.1,1.9c-0.3,0.3-1,0.9-0.8,1.4c0.1,0.2,0.4,0.3,0.5,0.3c0.5,0,0.9,0,1.4-0.1
				c0.2,0,0.4-0.1,0.6-0.2c0.6-0.2,0.4,0-0.1-0.1l-0.3-0.4c-0.2,0.7-0.5,1.2-1,1.7c-0.6,0.8-1.3,1.5-1.9,2.3
				c-1.2,1.8-2.2,3.7-3.2,5.6c-0.3,0.5,1,0.5,1.2,0.5c0.7,0,1.3-0.4,1.7-0.9c1-2,2.1-3.9,3.4-5.8c0.5-0.7,1.1-1.3,1.6-2
				c0.5-0.5,0.8-1.1,1-1.8c0-0.2-0.1-0.4-0.3-0.4c-0.5-0.1-1-0.2-1.6-0.1c-0.2,0-0.5,0.1-0.7,0.2c-0.4,0.1-1,0.1-0.1,0.2l0.5,0.3
				c0,0,0.2-0.3,0.4-0.5c0.4-0.3,0.7-0.6,1.1-1c0.7-0.6,1.4-1.1,2.1-1.7s1.6-1.2,1.6-1.9c0.1-1.5-2.7-1-3.5-1.1l0.4,0.7
				c0.6-0.7,1.5-1.2,2.4-1.5c0.4-0.2,0.7-0.3,1.1-0.5c0.2-0.1,0.4-0.3,0.6-0.4c0.3-0.2,0.8-0.4,0-0.3c0.4-0.1,1.6-0.3,1.7-0.9
				s-0.9-0.5-1.2-0.5c-0.7,0.1-1.3,0.3-1.9,0.6c-0.2,0.1-0.5,0.2-0.7,0.4l-0.5,0.2c-0.4,0.2-0.3,0.2,0.4,0l0.2,0.6
				c1-1.4,2.8-1.8,4-2.9S36.6,14.7,36,15.2L36,15.2z"/>
		</g>
		<g class="st2">
			<path class="st3" d="M47.8,22.2c-2.2,0-4.3-0.9-6.5-0.2c-0.7,0.2-1.8,1-0.9,1.7s1.9,0.5,2.9,0.6c0.5,0.2,1,0.3,1.5,0.5
				c0.6,0.1,1.3,0.1,1.9,0.2l-0.8-1.1c-0.3,0.5-1.6,0.3-2.1,0.3c-1-0.1-2.1,0-3.1,0.1c-1.1,0.2-2.5,0.6-3.1,1.6s0.4,1.4,1,2.1v-0.7
				c-0.3,0.5-1.5,0.3-2,0.3l-0.3,2c0.5-0.1,1-0.1,1.4,0l-0.3-1.3c-0.7,0.6-1.5,1-2.4,1.2c-1,0.3-1.9,0.8-2.6,1.5
				c-0.2,0.2-0.3,0.5-0.2,0.8c0.3,1.3,2,1.1,3,0.9l-0.5-1.8c-1.6,0.5-3.3,1.2-4,2.8c-0.2,0.3-0.1,0.7,0.2,0.9c0,0,0,0,0,0
				c0.8,0.4,1.7,0.4,2.5,0.1l-1.5-1.3c-0.9,0.7-1.9,1.3-2.9,1.9c-1.1,0.8-2.3,1.5-3.6,2c-0.5,0.2-1.1,0.8-0.7,1.4s1.4,0.4,2,0.2
				c1.5-0.6,2.9-1.4,4.3-2.3c1.2-0.7,2.4-1.4,3.4-2.3c1-1-0.7-1.4-1.4-1.3c-0.2,0-0.3,0.1-0.5,0.1l1,0.2L33,32.9l0.2,0.9
				c0.4-0.6,1-1.1,1.8-1.2c0.5-0.2,1.4-0.6,1.2-1.3s-1.2-0.6-1.7-0.5c0,0,0.4,0,0.4,0.2l-0.2,0.8c0.8-0.5,1.6-0.9,2.5-1.1
				c0.9-0.3,1.8-0.9,2.4-1.6c0.3-0.3,0.3-0.7,0.1-1c-0.1-0.1-0.3-0.2-0.4-0.2c-0.9-0.2-1.9-0.2-2.8-0.1c-0.6,0-1.5,0.4-1.6,1.1
				s0.8,0.9,1.3,0.9c1.9,0,3.9-0.3,5-2c0.1-0.2,0.1-0.5,0-0.7C41,26.7,40.4,26,40.2,26l-0.2,0.4c0.1-0.1,0.2-0.1,0.3-0.1
				c0.2,0,0.4-0.1,0.6-0.2c0.7-0.1,1.5-0.1,2.2,0c2,0,4.2-0.1,5.4-2c0.4-0.6-0.3-1-0.9-1.1s-0.9,0-1.4-0.1s-0.9-0.4-1.4-0.5
				c-0.7-0.1-1.7,0.1-2.2-0.4l-0.9,1.7c1.6-0.5,3.4,0.4,5,0.4c0.7,0.1,1.5-0.3,1.9-0.9C49,22.7,48.5,22.2,47.8,22.2L47.8,22.2z"/>
		</g>
		<g class="st2">
			<path class="st3" d="M8.7,24.3h0.1C8.7,24.3,8.7,24.3,8.7,24.3L9,24.4l0.6,0.3c0.3,0.2,0.6,0.4,0.9,0.6c0.3,0.2,0.6,0.3,0.8,0.5
				c0.2,0.1,0.3,0.3,0.5,0.4l0.1,0.2c0.1,0.1,0.1,0.1,0,0c0,0,0,0.1,0.1,0.1l0.9-1l-0.1,0.1l0.2-0.1c-0.1,0-0.2,0-0.3,0.1l-0.6,0.2
				c-0.6,0.2-1.2,0.5-1.7,0.9c-0.1,0.2-0.4,0.4-0.3,0.6s0.3,0.3,0.6,0.4c0.4,0.1,0.8,0.1,1.3,0.2l0.3,0.1c0.1,0-0.2-0.1,0,0
				c0,0,0.1,0,0.1,0.1l0.1,0.1c0.1,0.1-0.1-0.1,0,0c0.1,0.1,0.1,0.1,0.2,0.2l0.2-0.8c0.3-0.2,0,0,0,0l0.1,0h-0.1
				c-0.2,0.1-0.4,0.2-0.6,0.3c-0.5,0.2-0.9,0.6-1.2,1c-0.1,0.2-0.1,0.4,0,0.6c0.5,0.5,1.3,0.8,2,0.9c0.3,0,0.6,0.1,0.9,0.1l0.2,0.1
				c-0.2,0-0.1,0,0,0c0.1,0,0.1,0,0.2,0.1l0,0l0.1,0.1c0.6,0.3,1.3,0.3,1.9,0c0.3-0.1,1.3-0.7,0.8-1.1c-0.6-0.4-1.3-0.7-2-0.8
				c-0.3,0-0.6-0.1-0.9-0.2c0.2,0,0,0,0,0l-0.2-0.1c-0.1-0.1,0,0,0,0l-0.2-0.2v0.6c0,0,0.1-0.2,0.1-0.2s-0.4,0.2-0.1,0.1
				s-0.2,0.1-0.1,0l0.2-0.1c0.5-0.2,0.9-0.4,1.3-0.7c0.3-0.1,0.4-0.5,0.2-0.7c0,0,0,0,0,0c-0.6-0.9-2-0.8-2.9-1.1l0.3,1
				c0.1-0.1,0.3-0.2,0,0c0.1-0.1,0,0-0.1,0c0.3-0.1-0.3,0.1,0,0l0.2-0.1c0.3-0.1,0.6-0.2,1-0.3c0.3-0.1,1.1-0.5,0.9-1
				c-0.5-0.8-1.2-1.4-2-1.8c-0.7-0.5-1.5-1-2.4-1.2c-0.7-0.1-1.4,0.1-2,0.5c-0.2,0.1-0.3,0.4-0.3,0.6C8.3,24.2,8.5,24.3,8.7,24.3
				L8.7,24.3z"/>
		</g>
		<g class="st2">
			<path class="st3" d="M15.6,16.8c0.1,0.1,0.2,0.2,0.3,0.4c0.1,0.1-0.1-0.1,0,0s0.1,0.1,0.1,0.2c0.1,0.3,0.2,0.6,0.4,0.9
				c0.1,0.3,0.3,0.5,0.5,0.8c0.1,0.1,0.2,0.2,0.2,0.3s0.2,0.2,0.1,0.1s0,0.1,0,0.1l1.2-1.4c-0.2,0-0.2,0,0,0H18
				c-0.5,0-0.9,0-1.4,0.1c-0.5,0.1-1.2,0.5-1.2,1.1c-0.1,1.1,1.1,2.1,1.8,2.8c0.8,0.8,1.9,1.4,3,1.6c0.8,0.1,1.5-0.2,1.9-0.9
				c0.3-0.7-0.2-1.2-0.9-1.2c-0.3,0,0.2,0.1,0.1,0l-0.2-0.1L21,21.5c-0.2-0.1,0.1,0.1,0.1,0.1c-0.1-0.1-0.2-0.1-0.3-0.2
				c-0.4-0.3-0.9-0.6-1.2-0.9l-0.3-0.2c0,0-0.1-0.1-0.1-0.1c0,0.1,0.1,0.1,0,0s-0.3-0.3-0.5-0.5s-0.1-0.2-0.2-0.3s-0.2-0.3-0.1-0.1
				s0-0.1,0-0.1V19c0,0,0,0.3,0,0.1l-1.2,1.1c-0.5,0.1,0.4,0,0,0h0.6c0.4,0,0.8,0,1.2-0.1c0.5-0.1,1.4-0.7,1.2-1.4
				c-0.1-0.3-0.3-0.6-0.5-0.9c-0.1-0.1-0.2-0.2-0.3-0.4l-0.1-0.1c0,0-0.1-0.2-0.1-0.1s0-0.1,0-0.1L19,16.9c0-0.1-0.1-0.3-0.1-0.4
				c-0.1-0.4-0.3-0.7-0.6-1c-0.5-0.5-1.4-0.6-2-0.2C15.8,15.5,15.1,16.2,15.6,16.8L15.6,16.8z"/>
		</g>
		<g class="st2">
			<path class="st3" d="M23,9.8c0.9,0.9,1.8,1.9,2.6,3c0.6,0.9,3.4-0.1,2.7-1.2c-0.7-1-2.1-1.1-3.1-0.4c-0.1,0.1-0.2,0.1-0.2,0.2
				c-0.6,0.5-0.8,1.4-0.5,2.1c0.2,0.7,0.3,1.5,0.3,2.3c0,0.3,0,0.7,0,1c0,0.2,0,0.4-0.1,0.5c0,0,0,0.1-0.1,0.1
				c0.1-0.3,0.3-0.4,0.8-0.3l0.7,0c0.1,0,0.1,0.1,0,0L26,17c-0.2-0.1-0.5-0.3-0.7-0.3c-0.7-0.2-2.2,0.1-2.3,1c-0.1,0.5,0,1,0.3,1.3
				c0.2,0.3,0.4,0.5,0.4,0.8c-0.1,1.3,2.8,0.8,2.9-0.3c0-0.5-0.1-1-0.4-1.3c-0.2-0.3-0.4-0.5-0.4-0.8l-2.3,1
				c0.2,0.1,0.4,0.3,0.6,0.4c0.7,0.3,1.4,0.2,2.1-0.1c1-0.4,1.6-1.3,1.6-2.3c0-0.9,0-1.8-0.1-2.7c-0.1-0.4-0.2-0.7-0.3-1.1
				c0-0.1-0.1-0.3-0.1-0.4c-0.1-0.1,0.1-0.1-0.1,0l-2.1,0.2c0.2,0.1,0.4,0.2,0.5,0.4l2.7-1.2c-0.8-1.1-1.7-2.1-2.6-3
				c-0.6-0.4-1.3-0.4-1.9-0.1C23.4,8.7,22.5,9.3,23,9.8L23,9.8z"/>
		</g>
		<g class="st2">
			<path class="st3" d="M29.2,24.2c-0.8,1.4-1.9,2.5-2.7,3.8c-0.3,0.6-0.6,1.1-0.9,1.6c-0.6,0.4-1.1,1-1.6,1.6
				c-0.3,0.5,0.1,1,0.5,1.1c1,0.4,2.2,0.2,3-0.5c0.6-0.6,1.1-1.2,1.5-1.8c1.1-1.3,2.6-2.2,3.8-3.5c0.3-0.3,0.4-0.8,0.1-1.2
				c-0.1-0.1-0.3-0.2-0.4-0.3c-0.7-0.2-1.5,0-2,0.5c-0.9,0.8-1.7,1.6-2.5,2.5l2.6,0.6c0.4-0.7,0.6-1.5,0.7-2.2
				c0.1-0.6,0.3-1.1,0.5-1.7c0.4-1.3,1.1-2.5,2-3.5c0.3-0.3,0.3-0.8,0-1.2c-0.1-0.1-0.2-0.2-0.4-0.2c-0.7-0.2-1.5,0-2,0.5
				c-1,1.2-1.8,2.5-2.3,3.9c-0.3,0.7-0.5,1.4-0.6,2.1c-0.1,0.7-0.3,1.4-0.6,2c-0.3,0.5,0.2,1,0.7,1.1c0.7,0.1,1.4-0.1,1.9-0.6
				c0.8-0.9,1.6-1.7,2.5-2.5l-2.4-0.8c-1,1-2.1,1.8-3.1,2.7c-0.4,0.4-0.8,0.9-1.2,1.4c-0.2,0.2-0.3,0.5-0.5,0.7l-0.2,0.2
				c0-0.2,1.4,0,0.7-0.2l0.5,1.1c0,0,0.1-0.1,0.1-0.1s0.3-0.2,0.4-0.3c0.3-0.2,0.6-0.5,0.8-0.7c0.5-0.6,0.9-1.3,1.2-2
				c0.8-1.3,1.9-2.5,2.7-3.8c0.4-0.6-0.3-1.1-0.9-1.2C30.4,23.2,29.6,23.6,29.2,24.2L29.2,24.2z"/>
		</g>
		<g class="st2">
			<path class="st3" d="M44.4,23c1.4,0,2.7,0.2,4,0.6c1.3,0.2,2.7,0.3,4,0.2c0.7,0,1.3-0.2,1.8-0.6c0.3-0.3,0.2-0.6-0.3-0.6h-7.5
				c-2.1,0-4.4-0.4-6.5,0.2c-0.3,0.1-1.4,0.4-1.3,0.9s0.6,0.8,1.2,0.9c0.7,0.1,1.4,0.4,1.9,0.9l0.2-0.6c0.3-0.2,0.6-0.1,0.2-0.1
				c-0.2,0-0.4,0-0.6,0.1c-0.4,0.1-0.9,0.1-1.3,0.2c-0.9,0.1-1.7,0.6-2.3,1.2c-0.4,0.6,0.1,1.2,0.8,1.4s1.5-0.1,2.2,0.1l-0.1-0.5
				c1.2-0.2,1.5-0.3,0.9-0.4h-0.2c-0.3,0-0.6,0-0.8,0c-0.6,0-1.3,0.1-1.9,0.4c-0.1,0-1.3,0.6-0.8,0.9c0.5,0.2,1,0.4,1.6,0.4L39.3,28
				c-0.3,0.3-0.7,0.4-1.1,0.5c-0.6,0.1-1.2,0.3-1.8,0.5c-1.2,0.5-2.3,1.2-3.3,2c-0.5,0.4,0.5,0.5,0.7,0.5c0.7,0,1.4-0.3,1.9-0.7
				c0.9-0.8,2-1.3,3.1-1.5c1.1-0.2,2.2-0.7,3-1.5c0.2-0.2,0.2-0.4-0.1-0.5c-0.4,0-0.8-0.1-1.2-0.3l-0.9,0.9c-0.2,0.1-0.8,0-0.4,0.2
				c0.2,0,0.4,0.1,0.6,0.1c0.4,0,0.8,0,1.2,0c0.9-0.1,1.7-0.4,2.3-1c0.2-0.2,0.1-0.4-0.1-0.5c-0.6-0.1-1.2-0.2-1.8-0.1
				c-0.2,0-0.4,0-0.6-0.1c-0.1-0.1-0.1-0.3-0.2-0.3s0-0.1,0-0.1s0-0.1-0.3,0.1c0.2,0.1,1.3-0.2,1.5-0.2c0.8-0.1,1.6-0.4,2.2-0.8
				c0.1-0.1,0.5-0.4,0.2-0.6c-0.5-0.4-1.1-0.7-1.8-1c-0.5-0.1-1,0-1.2-0.5l-1.3,0.9c0.7-0.1,1.5,0,2.2,0.1h9.6l1.5-1.2
				c-0.7,0-1.3,0.1-2,0c-0.6-0.1-1.2-0.2-1.8-0.4c-1.1-0.3-2.3-0.4-3.5-0.4c-0.7,0-1.4,0.2-2,0.5C43.8,22.6,43.8,23,44.4,23L44.4,23
				z"/>
		</g>
		<g id="Zds5ap.tif">
			<path d="M44.7,22.3c0.2-0.6,0.5-0.6,0.9-0.5c0.6,0.1,1.1,0.1,1.7,0c0.4,0,0.7,0,1.1,0s0.8,0.2,1.3,0c0.2-0.1,0.5,0.2,0.8,0.1
				c0.5-0.1,1-0.1,1.4,0c0.1,0,0.3,0,0.3,0.2c0.1,0.3,0.3,0.4,0.6,0.4c0.5,0.2,0.9,0.5,1.2,1c0,0.1,0.1,0.3-0.1,0.3
				c-0.3,0.1-0.5,0.4-0.8,0.5c-0.3,0.2-0.6,0.3-1,0.2c-0.3,0-0.7,0-1,0.1c-0.8,0.2-1.7,0.1-2.5,0.3c-0.4,0.1-0.7-0.2-1-0.2
				c-0.9,0.2-1.9,0.1-2.8-0.1c-0.5-0.1-0.8,0.3-0.8,0.8c0.1,0.6,0.2,1.3,0.2,1.9c-0.1,0.6-0.4,1.2-0.8,1.5c-0.5,0.3-1.1,0.3-1.5,0.1
				c-0.2-0.1-0.4-0.1-0.6,0c-0.2,0.1-0.3,0.1-0.5,0c-0.6-0.3-1.4,0-1.9-0.6c-0.2-0.2-0.5-0.2-0.7,0c-0.2,0.1,0,0.4,0,0.5
				c0.2,0.3,0.3,0.6,0.3,1c0,0.2,0.1,0.4,0.2,0.6c0.3,0.3,0.2,0.9-0.1,1.2c-0.1,0.1-0.2,0.1-0.3,0.2c-0.6,0.2-1.2-0.1-1.7-0.1
				c-0.1,0-0.3,0-0.4,0c-0.2,0.1-0.4,0.2-0.3,0.5c0.2,0.2,0.3,0.5,0.3,0.8c-0.1,0.4-0.5,0.7-0.9,0.7c-0.5,0-1.1-0.1-1.6-0.2
				c-0.6-0.1-1.1,0-1.7,0.2c-0.2,0-0.5,0.1-0.6,0.3s0.2,0.3,0.4,0.5c0.2,0.1,0.5,0.3,0.8,0.5s0.3,0.1,0.3,0.3s-0.1,0.4-0.3,0.5
				c-0.7,0.2-1.3,0.5-1.9,0.9c-0.6,0.3-1.1,0.7-1.4,1.2c-0.2,0.3-0.5,0.4-0.9,0.5c-0.4,0.1-0.8,0.3-1.1,0.5c-0.4,0.3-0.9,0.6-1.4,1
				c-0.2,0.1-0.3,0.2-0.4,0.3c-0.1,0.1-0.1,0.1-0.2,0S25.1,40,25.2,40c0.4-0.2,0.4-0.8,0.8-0.8s0.9-0.6,1.2-0.9
				c0.2-0.3,0.5-0.5,0.8-0.6c0.6-0.2,1.2-0.6,1.6-1.1c0.4-0.4,0.8-0.8,1.3-1.1c0.3-0.2,0.1-0.5,0.1-0.7s-0.2-0.2-0.4-0.2
				s-0.3-0.3-0.5-0.4s-0.4-0.2-0.7,0.1c-0.4,0.5-0.6,1.1-1.3,1.3c-0.1,0-0.2,0.1-0.2,0.2c0,0.5-0.5,0.6-0.7,0.8c0,0-0.1,0-0.1,0.1
				c-0.3,0.7-1.1,1-1.4,1.8c-0.2,0.6-0.5,1.1-1,1.5c-0.2,0.1-0.2,0.5-0.3,0.8c-0.3,0.9-0.8,1.7-1.1,2.6c-0.1,0.3-0.5,0.5-0.4,0.9
				c0,0.1-0.2,0.1-0.3,0.1c-0.1,0-0.2-0.2-0.1-0.3c0.1-0.4,0-0.9,0.3-1.2c0.1-0.1,0.1-0.3,0.1-0.5s0-0.5,0.3-0.6
				c0.1-0.1,0.2-0.2,0.2-0.4c0-0.6,0.1-1.2,0.2-1.8c0-0.3,0.2-0.5,0.4-0.6c0.4-0.2,0.2-0.4,0-0.5c-0.4-0.2-0.3-0.4-0.1-0.6
				c0.1-0.1,0.1-0.2,0.1-0.4c0-0.2,0.2-0.4,0-0.5s-0.6,0.2-0.7,0.4s0,0.1,0,0.1c0.4,0.3,0,0.7-0.1,0.8c-0.4,0.6-0.6,1.2-0.5,1.9
				c-0.1,1.1-0.3,2.1-0.7,3.1c-0.1,0.2-0.2,0.3-0.4,0.5c-0.1,0.1-0.2,0-0.2,0c-0.1-0.1-0.2-0.2-0.1-0.4c0.1-0.7,0.3-1.3,0.5-2
				c0.1-0.4,0.2-0.8,0.4-1.1c0,0,0.1-0.1,0.1-0.2c-0.3-0.4-0.1-0.7,0.2-1c0-0.1,0-0.2,0-0.3c0-0.4-0.1-0.8,0.2-1.1
				c0.2-0.2,0.2-0.4,0.1-0.7c-0.1-0.3,0-0.6,0.1-0.8c0.1-0.1,0.1-0.3,0.1-0.4c-0.2-0.4,0-0.8,0.1-1.1c0.1-0.6,0.2-1.2,0.3-1.7
				c0-0.3,0.1-0.6,0.3-0.8c0.1-0.1,0.2-0.3,0.1-0.5c-0.1-0.3,0.1-0.6,0.2-0.9c0.1-0.2,0.1-0.4,0.1-0.6c-0.1-0.2,0-0.5,0.2-0.7
				c0.1-0.1,0.1-0.1,0.1-0.2c-0.4-0.5,0.1-1,0.2-1.5s0-1,0.1-1.5c0.1-0.8,0.1-1.6-0.2-2.4c0-0.1,0-0.1-0.1-0.2
				c-0.5-0.6-0.8-1.4-1-2.1c-0.1-0.2,0-0.3,0.2-0.4c0.1,0,0.1,0,0.2,0c0.2,0,0.5,0,0.7,0.1c0.3,0.1,0.5,0,0.4-0.3
				c-0.2-0.8-0.4-1.6-0.5-2.5c-0.1-0.3-0.3-0.7-0.5-1c-0.2-0.5-0.4-1-0.5-1.5c-0.1-0.2-0.2-0.4-0.3-0.6c-0.2-0.2-0.4-0.5-0.3-0.8
				c0.1-0.2,0.4-0.3,0.6-0.3c0.3,0.1,0.5,0.2,0.7,0.5c0.2,0.2,0.5,0.4,0.8,0.5c0.4,0.1,0.5-0.1,0.5-0.4c0-0.2,0-0.4-0.1-0.7
				c-0.3-0.7-0.1-1.6-0.4-2.3c-0.1-0.2-0.1-0.4,0-0.6c0.1-0.4-0.1-0.8-0.3-1.1c-0.1-0.1-0.2-0.2-0.1-0.4c0.1-0.6-0.5-1-0.4-1.7
				c0-0.2-0.2-0.3-0.3-0.4c-0.4-0.5-0.3-1.1-0.5-1.7c0-0.1,0-0.2,0-0.2c0.1-0.4,0-0.7-0.2-1c-0.3-0.4-0.4-0.9-0.7-1.3
				c-0.1-0.1-0.1-0.2-0.3-0.3S21.6,3,21.6,2.9s0.1-0.3,0.3-0.3s0.2,0,0.2,0c0.5,0.3,1.1,0.4,1.5,1c0.2,0.4,0.6,0.7,1,0.7
				c0.2,0,0.3,0,0.2-0.2c-0.1-0.4,0-0.8,0.1-1.2C25,2.6,24.7,2.3,24.7,2c0-0.1-0.1-0.3,0-0.4c0.4-0.4,0.1-0.8,0-1.1
				c0-0.1-0.2-0.3,0.1-0.4s0.5-0.2,0.6,0.1c0.3,0.4,0.5,0.9,0.7,1.4c0.3,1.2,1.2,1.9,1.7,2.9c0.3,0.7,0.4,1.4,0.1,2.1
				C27.8,6.9,27.8,7,28,7.1c0.9,0.4,1.2,1.5,0.9,2.4c-0.4,1-0.7,2-0.9,3c-0.1,0.5-0.3,0.9-0.4,1.4c-0.1,0.7,0.1,1.1,0.7,1.3
				c0.5,0.2,0.7,0.8,0.5,1.3c-0.1,0.6-0.4,1.2-0.6,1.7c-0.2,0.4-0.3,0.8-0.3,1.2c-0.2,0.8-0.5,1.7-0.9,2.4c-0.2,0.3-0.2,0.6-0.2,0.9
				c-0.1,0.5,0,1,0.2,1.5c0.1,0.1,0.1,0.3,0,0.4c-0.2,0.7-0.3,1.5-0.3,2.2c-0.2,1-0.2,2.1-0.3,3.2c0,0.3-0.3,0.6,0.1,0.9
				c0.3-0.2,0.4-0.6,0.6-0.9c0.1-0.1,0-0.2,0-0.3c0-0.1,0-0.3,0.1-0.4c0.4-0.6,0.5-1.3,0.9-1.9c0.3-0.5,0.4-1,0.5-1.5
				c0.2-0.6,0.5-1.1,0.6-1.8c0.2-0.7,0.5-1.4,1-2c0.2-0.2,0.4-0.5,0.2-0.9c0-0.1,0-0.2,0.1-0.2c0.1-0.1,0.1-0.2,0.1-0.3
				c0-1.2,0.7-2.2,1.1-3.3c0.1-0.2,0.1-0.5,0.1-0.7c0-0.6,0.2-0.9,0.8-1c0.9,0,1.6-0.5,2.5-0.3c0.3,0,0.5-0.1,0.7-0.3
				c0.6-0.4,1.2-0.8,1.9-1c0.5-0.2,1-0.2,1.4-0.6c0.1-0.1,0.3-0.1,0.4-0.1c0.6,0,1.3,0.3,1.8,0.7c0.2,0.2,0.3,0.5,0.2,0.8
				c-0.2,0.3-0.3,0.7-0.8,0.7c-0.7,0.1-1.5,0.2-2.1,0.5c-0.6,0.3-1.1,0.5-1.7,0.8c-0.5,0.2-0.9,0.5-1.4,0.7
				c-0.2,0.1-0.2,0.4-0.3,0.5c0,0.1,0,0.1,0.1,0.2c0,0,0.1,0,0.1,0c0.3,0,0.3,0.1,0.4,0.3c0,0.2-0.1,0.4-0.3,0.5
				c-0.4,0.1-0.7,0.2-1.1,0.1c-0.5,0-1,0.3-1.3,0.7c-0.3,0.2-0.1,0.6,0.2,0.7c0.5,0.3,0.8,0.8,1.5,0.9c0.4,0.1,0.6,0.5,0.9,0.7
				c0.2,0.2,0.2,0.5,0,0.7c-0.2,0.3-0.4,0.5-0.6,0.7c-0.7,0.4-1.3,0.9-1.9,1.4c-0.3,0.2-0.4,0.5-0.3,0.8c0,0.1,0.1,0.2,0.2,0.2
				c0.3,0.2,0.3,0.6,0.1,0.9c-0.3,0.6-0.7,1-1.3,1.2c-0.2,0.1-0.3,0.3-0.5,0.4s-0.1,0.2-0.1,0.2c-0.5,0.1-0.8,0.6-0.7,1.1
				c0,0.2-0.1,0.2-0.3,0.3c-0.5,0.2-1,0.5-1.5,0.8c-0.3,0.2-0.7,0.4-1,0.6c-0.4,0.2-0.7,0.6-0.9,1c-0.1,0.3-0.3,0.6-0.5,0.8
				c-0.2,0.2-0.1,0.4-0.1,0.6c-0.3,0.8-0.5,1.6-0.8,2.4c-0.1,0.2-0.1,0.4-0.3,0.5s-0.1,0.2,0,0.3s0.2,0.1,0.3,0.1
				c0.2-0.1,0.4-0.3,0.5-0.5c0.1-0.4,0.5-0.6,0.8-0.8s0.4-0.2,0.5-0.4c0,0,0-0.1,0.1-0.1c0.8-0.5,1.1-1.4,1.8-1.9s1.1-1.3,2-1.6
				c0.4-0.1,0.6-0.4,0.7-0.7c0-0.1,0.1-0.2,0.3-0.3c0.7-0.3,1-1,1.6-1.5c0.3-0.3,0.7-0.7,1-1c0.2-0.2,0.2-0.5,0.5-0.6
				c0.8-0.5,1.2-1.2,1.8-1.8c0.6-0.5,1.1-1,1.5-1.6c0.1-0.1,0.1-0.2,0.2-0.2c0.7-0.3,1.3-0.7,1.8-1.2c0.4-0.2,0.9-0.4,1.3-0.6
				c0.6-0.3,1.2-0.5,1.7-0.7c0.3-0.1,0.7-0.2,1-0.2C44.5,21.8,44.8,21.8,44.7,22.3z M24.5,17.3c-0.1,0.1,0,0.2,0.1,0.3
				C24.9,18,25,18.5,25,19c0,0.1,0,0.2,0.1,0.3c0.5,0.6,0.4,1.4,0.8,2.1c0,0.1,0,0.2,0.2,0.2s0.2-0.1,0.2-0.2
				c0.3-0.6,0.6-1.3,0.8-1.9c0.3-0.8,0.3-1.7,0.6-2.6c0.1-0.3,0.6-1-0.2-1.2c0,0-0.1-0.1-0.1-0.1c0-0.2-0.2-0.3-0.4-0.2c0,0,0,0,0,0
				c-0.3,0.1-0.4-0.2-0.5-0.3s0-0.3,0.1-0.4c0.1-0.1,0.1-0.3,0-0.4c-0.1-0.2-0.1-0.3,0-0.5c0.4-0.8,0.6-1.7,0.8-2.6
				c0-0.5,0.4-0.9,0.5-1.5c0-0.3,0.1-0.7,0.3-1c0.2-0.6,0.1-0.8-0.6-0.8c-0.1,0-0.1,0-0.2,0c-0.4,0-0.5-0.2-0.5-0.6
				c0.1-0.5,0.2-1.1,0.4-1.6c0-0.2,0.2-0.4,0-0.6c-0.5-0.5-0.5-1.3-1.1-1.6l0,0c0-0.1-0.2-0.2-0.3-0.2c-0.2,0-0.2,0.2-0.2,0.3
				c-0.1,0.5-0.1,1,0.1,1.5c0.2,0.4,0.2,0.8,0.1,1.1c-0.2,0.6-0.5,0.6-0.9,0.2c0,0,0-0.1-0.1-0.1C24.5,6,24.5,5.4,24,5.1
				c-0.1,0-0.1-0.2-0.2-0.2s-0.1,0.2-0.1,0.3c0,0.8,0.2,1.5,0.6,2.2c0.2,0.5,0.4,0.9,0.4,1.5c0,0.5,0.1,0.9,0.3,1.4
				c0.2,0.3,0.3,0.7,0.2,1c0.1,0.4,0.2,0.9,0.5,1.3c0.2,0.4,0.3,0.8,0.3,1.2c0.1,0.9,0.7,1.8-0.2,2.7c-0.3,0.3-0.5,0.3-0.7,0.1
				c-0.2-0.1-0.3-0.1-0.5-0.1c-0.1,0-0.2-0.1-0.3,0c-0.1,0.1-0.1,0.3,0,0.4C24.3,16.9,24.5,17,24.5,17.3z M51.2,23.8
				c0.3-0.1,0.9,0,1.3-0.5c0.2-0.2,0.2-0.3-0.1-0.4c-0.5-0.2-1-0.4-1.5-0.4c-0.5,0-1,0-1.5,0c-0.5-0.1-1-0.1-1.5-0.1
				c-0.7,0.1-1.4,0.2-2.1,0.2c-0.8,0-1.5,0.1-2.2,0.2c-0.5,0-1,0.2-1.3,0.5c-0.3,0.3-0.8,0.5-1.2,0.3c-0.1,0-0.2,0-0.2,0
				c-0.1,0.4-0.4,0.7-0.9,0.8c-0.1,0-0.1,0.1-0.2,0.2c-0.2,0.4-0.5,0.6-0.9,0.9c-0.4,0.2-0.7,0.5-1,0.8c-0.2,0.2-0.3,0.6-0.8,0.6
				c0,0-0.1,0.1-0.1,0.1c0.1,0,0.1,0.1,0.2,0.1c0.2,0.1,0.3,0,0.5,0c0.5,0.1,1,0.3,1.5,0.3c0.3,0,0.7-0.2,1,0.1
				c0.3,0.3,0.7,0.5,1.2,0.5c0.4,0,0.7,0.1,1,0.3c0.1,0.1,0.2,0,0.3,0c0.5-0.3,0.5-0.8,0.6-1.3s-0.3-0.8-0.2-1.2l0,0
				c-0.3,0-0.2-0.3-0.2-0.5c0-0.2,0-0.4-0.1-0.5c-0.3-0.6-0.1-1,0.5-1c1-0.1,1.9,0.1,2.9,0.4c0.1,0.1,0.1,0.1,0.2,0
				c0.2-0.2,0.3-0.1,0.5-0.1c1,0,1.9,0,2.9-0.1C50.3,23.8,50.8,23.8,51.2,23.8z M34.2,22.4c-0.3,0.3-0.6,0.1-0.9-0.1
				c-0.3-0.3-0.6-0.5-1-0.7c-0.3,0-0.6-0.2-0.7-0.4c-0.1-0.1-0.2,0-0.2,0.1c-0.1,0.4-0.3,0.8-0.5,1.2c-0.4,0.7-0.7,1.5-1,2.3
				c0,0.2-0.3,0.4-0.4,0.6c-0.1,0.7-0.3,1.3-0.6,1.9c-0.1,0.2-0.4,0.5-0.4,0.6c0,0.6-0.5,0.9-0.6,1.4c-0.2,0.4-0.4,0.8-0.6,1.2
				c-0.1,0.1-0.1,0.3,0,0.5c0.1,0.2,0.3,0,0.4,0c0.4-0.1,0.5-0.4,0.8-0.5s0.4-0.4,0.3-0.7c0-0.2,0-0.4,0.2-0.4
				c0.3-0.1,0.5-0.4,0.7-0.5c0.6-0.4,1.3-0.8,1.8-1.3c0.3-0.1,0.4-0.5,0.3-0.8c0-0.1-0.1-0.2-0.2-0.2c-0.6-0.6-0.5-1,0.1-1.3
				c0.2-0.1,0.4-0.3,0.6-0.5c0.3-0.4,0.7-0.7,1.2-1C34.2,23.3,34.4,23,34.2,22.4z M34.1,32.8c0.5,0,0.7-0.1,0.8-0.2
				s-0.2-0.4-0.3-0.6c-0.2-0.2-0.2-0.6,0.1-0.8c0,0,0.1-0.1,0.1-0.1c0.3-0.1,0.6-0.2,0.9-0.2c0.5-0.1,1.1-0.1,1.6,0.1
				c0.2,0.1,0.4,0,0.6-0.1c0.2-0.2,0.1-0.3,0-0.5c0-0.1-0.1-0.2-0.1-0.2c-0.1-0.4-0.3-0.8-0.6-1.2c-0.3-0.3-0.5-0.6-0.6-1
				c0-0.2-0.3-0.3-0.5,0c-0.5,0.5-1.1,1-1.5,1.6c-0.4,0.5-1.1,0.8-1.2,1.5c0,0.1-0.1,0.2-0.2,0.2c0,0,0,0,0,0
				c-0.3,0-0.4,0.1-0.5,0.3c-0.2,0.3-0.5,0.6-0.9,0.7c-0.1,0.1-0.2,0.2-0.2,0.4c0,0.2,0.2,0.1,0.4,0.2c0.3,0.1,0.6-0.2,1-0.1
				S33.7,32.7,34.1,32.8z M35.3,16.3c-0.8,0-1.6,0.2-2.3,0.5c-0.1,0-0.2,0.2-0.2,0.3c-0.2,0.6-0.6,1.1-0.8,1.7
				c-0.1,0.2-0.2,0.4,0,0.6c0.2,0.2,0.2-0.1,0.4-0.2c0.7-0.3,1.3-0.7,1.8-1.2c0.6-0.6,1.3-1,2.1-1.4c0.6-0.3,1.2-0.5,1.8-0.7
				c0.5-0.3,1.1-0.6,1.8-0.7c0.3-0.1,0.5-0.3,0.5-0.6c-0.1-0.4-0.4-0.2-0.7-0.1c-0.6,0.2-1.4,0.1-1.9,0.8c-0.5,0-0.8,0.4-1.1,0.6
				C36.3,16.2,35.8,16.3,35.3,16.3z M23.5,36.3c0-0.5,0.5-0.7,0.5-1.1c0-0.3,0.1-0.7,0.3-1c0.1-0.2,0.3-0.3,0.4-0.5
				c0.2-0.6,0.5-1.2,0.7-1.8c0.2-0.7,0.2-1.4,0.2-2c-0.1-0.4,0-0.8,0.3-1.2c0.1-0.2,0.2-0.4,0-0.5c-0.2-0.5-0.2-1,0-1.5
				c0.1-0.3,0.3-0.5,0.1-0.8c-0.1-0.2-0.1-0.5,0-0.7c0.1-0.4,0.4-0.8-0.1-1.1c-0.1-0.1-0.1-0.2-0.1-0.4s0-0.5-0.3-0.5
				s-0.2,0.3-0.2,0.5c0,0.5,0.3,0.9,0.3,1.4c-0.1,1.2-0.3,2.3-0.5,3.5c0,0.2,0.1,0.4,0,0.6c-0.4,0.6-0.2,1.2-0.5,1.9
				s-0.3,1.1-0.5,1.7C24,32.7,24,32.9,24,33.1c-0.1,0.5-0.2,1-0.4,1.5C23.5,35.2,23.4,35.8,23.5,36.3L23.5,36.3z M25.4,34.3
				c0-0.1,0-0.2-0.1-0.2c-0.1,0-0.2,0.1-0.2,0.2C25,34.5,25,34.8,24.8,35s-0.1,0.2,0,0.3c0.1,0.1,0.2,0,0.3-0.1c0,0,0,0,0,0
				C25.2,34.9,25.3,34.6,25.4,34.3L25.4,34.3z"/>
			<path d="M10.6,25.7c-0.6-0.4-1.1-0.1-1.6,0C8.3,25.8,7.6,26,6.8,26c-0.2,0-0.3-0.1-0.3-0.3c0.1-0.4,0.3-0.7,0.7-0.9
				c0.3-0.2,0.2-0.5,0.5-0.7c0.1,0,0-0.2-0.1-0.2s-0.2,0-0.2,0C7,24,6.5,24.1,6,24c-0.1,0-0.1,0-0.2,0.1c-0.6,0.4-1.2,0.7-1.9,0.8
				c-0.2,0.1-0.4,0.1-0.5,0C3.3,24.8,3,24.8,3,24.6s0.2-0.2,0.3-0.3C3.5,24.1,3.8,24,4,24c0,0,0.1,0,0.1,0c0.3-0.4,0.6-0.7,1-1
				c0.2-0.1-0.1-0.4-0.4-0.4c-0.3,0.1-0.7,0.1-1,0.1c-0.2,0-0.4-0.1-0.4-0.3s0-0.5,0.3-0.5s0.6-0.4,0.8-0.6c0.1-0.1,0.1-0.2,0.2-0.3
				c0.2-0.2,0.3-0.5,0.2-0.7c-0.1-0.3-0.4-0.5-0.7-0.4c-0.6,0-1.2-0.1-1.8-0.2c-0.3,0-0.4-0.3-0.2-0.6c0.1-0.2,0.3-0.3,0.6-0.3
				c0.6,0,1.3,0,1.9,0.1c0.7,0.1,1.3,0.4,2,0.5c0.3,0,0.6,0.4,1,0.5C8,19.9,8.4,20,8.8,20.3c0.1,0.1,0.2,0.1,0.3,0.2
				c0.3,0.3,0.6,0.5,1,0.7c0.7,0.4,1.4,0.8,2,1.3c0.8,0.9,1.8,1.7,2.8,2.4c1,0.7,1.9,1.5,2.6,2.5c0.4,0.5,0.7,1.1,0.9,1.8
				c0.1,0.5,0.4,1,0.6,1.5c0,0,0,0,0,0.1c0.2,0.5,0.4,0.9,0.7,1.4c0.4,0.9,0.5,1.8,0.2,2.8c-0.1,0.6-0.2,1.2-0.2,1.8
				c0,0.6,0,1.3,0,1.9c0,0.8-0.2,1.6-0.3,2.4c-0.1,0.9-0.3,1.8-0.5,2.7c-0.1,0.4-0.3,0.7-0.5,1c-0.2,0.4-0.6,0.3-0.9,0.1
				s-0.1-0.5,0-0.5c0.6-0.4,0.9-1.1,0.8-1.8c0.1-0.6,0.2-1.2,0.4-1.8c0-0.1,0.1-0.2,0.1-0.3c-0.1-0.6-0.1-1.2,0-1.8
				c0.1-1.1,0.2-2.1,0.1-3.2c0-0.1,0-0.1,0-0.2c0.3-0.5,0.1-0.8-0.3-1.1c-0.1-0.1-0.3-0.2-0.2-0.5c0,0,0-0.1,0-0.2
				c-0.6-0.3-0.8-0.9-1.1-1.4l0,0c0.2-0.6-0.3-1-0.5-1.4s-0.6-0.5-0.7-1c0-0.1-0.1-0.2-0.1-0.2c-0.3-0.6-0.3-0.6-1-0.3
				c-0.3,0.1-0.7,0.4-1.1,0.3c-0.1,0-0.2,0-0.3,0.1c-0.3,0.4-0.8,0.3-1.2,0.2c-0.8-0.3-0.9-0.6-0.4-1.3c0,0,0.1-0.1,0.1-0.1
				s0.2-0.5,0-0.6c-0.2-0.1-0.4-0.1-0.6-0.1c-0.4,0.1-0.9,0.3-1.3,0.4c-0.5,0.1-1,0.2-1.5,0.2c-0.1,0-0.2-0.1-0.3-0.2
				c-0.1-0.1-0.1-0.4,0-0.5c0.4-0.4,0.6-1,1.2-1.1c0.1,0,0.2-0.1,0.2-0.2C10.1,25.9,10.3,25.7,10.6,25.7
				C10.6,25.7,10.6,25.7,10.6,25.7z M11,24.8c0.8,0,0.9,0.1,0.6,0.7c-0.2,0.5-0.6,0.7-0.8,1.1c-0.1,0.1-0.2,0.1-0.2,0.2
				s0.2,0.1,0.3,0.1h0.2c0.2,0,0.5-0.2,0.7,0.1c0.2-0.3,0.5-0.2,0.7-0.2c0.7-0.1,1,0.2,0.9,0.9c0,0.2-0.1,0.4-0.2,0.5
				c-0.1,0.2-0.1,0.4,0.1,0.5c0,0,0.1,0,0.1,0c0.2,0.2,0.5,0.2,0.7,0.1c0.7-0.3,1.4-0.8,2.2-0.6c0.1,0,0.3-0.1,0.3-0.2
				c0-0.1,0-0.2-0.1-0.2c-0.4-0.4-0.4-1.1-0.9-1.4c-0.3-0.2-0.3-0.5-0.6-0.7c-0.7-0.3-1.4-0.8-1.9-1.3c-0.4-0.4-0.8-0.8-1.2-1.2
				c-0.3-0.2-0.6-0.4-0.6-0.8c0-0.1-0.1-0.1-0.1-0.1c-0.4-0.1-0.7-0.4-1.1-0.5c-0.3,0-0.5-0.2-0.7-0.4c-0.5-0.4-1-0.7-1.5-1
				c-0.4-0.2-0.9-0.4-1.3-0.5c-0.2-0.1-0.4,0-0.5,0.1c-0.3,0.2-0.2,0.6-0.4,0.8s-0.2,0.5,0.3,0.5s0.6,0.2,0.5,0.7
				c0,0.2-0.1,0.4-0.1,0.5c-0.1,0.4,0.1,0.6,0.4,0.6c0.6,0,1.2,0,1.8-0.1c0.4,0,0.5,0.1,0.5,0.5c0,0.3-0.2,0.5-0.4,0.7
				c-0.1,0.1-0.4,0.1-0.3,0.4c0.1,0.2,0.3,0.3,0.6,0.3c0.5,0,0.9-0.1,1.4-0.2C10.5,24.8,10.7,24.7,11,24.8z"/>
			<path d="M0,104.6c-0.1-0.3,0.1-0.5,0.2-0.8c0.2-0.8,0.5-1.5,0.8-2.2c0.3-0.5,0.6-1,1-1.4c0.6-0.8,1.3-1.5,2-2.1
				c0.7-0.6,1.3-1.2,1.9-1.9c0.5-0.7,1-1.4,1.4-2.2c0.3-0.5,0.6-1,1-1.4c0.7-0.9,1.3-1.9,2-2.8c0.6-0.8,0.9-1.7,1.6-2.4
				c0.3-0.4,0.6-0.8,0.8-1.2c0.6-0.9,1.2-1.7,1.8-2.6c0.4-0.6,0.8-1.3,1.1-2c0.2-0.5,0.4-1,0.6-1.5c0.4-0.7,0.7-1.4,0.9-2.1
				c0.2-0.4,0.4-0.8,0.3-1.2c0-0.1,0-0.2,0.1-0.3c0.3-0.6,0.6-1.2,0.8-1.8c0.3-0.5,0.3-1.2,0.6-1.7c0.2-0.3,0.3-0.6,0.4-0.9
				c0,0,0-0.1,0-0.1c0.6-0.2,0.3-0.7,0.5-1.1c0.1-0.2,0-0.4,0.3-0.5c0.1,0,0.1-0.2,0.1-0.3c0,0,0-0.1-0.1-0.1
				c-0.2-0.2-0.1-0.4,0-0.6c0.2-0.4,0.3-0.7,0.4-1.1c0-0.3,0.2-0.6,0.3-0.8c0,0,0.1-0.1,0.1-0.1c0.1-0.8,0.4-1.5,0.7-2.2
				c0.1-0.7,0.3-1.4,0.5-2.1c0.2-0.5,0.2-1,0.4-1.6c0.3-0.7,0.3-1.5,0.5-2.3c0.2-0.6,0.2-1.3,0.1-2c0-0.4,0.2-0.7,0.3-1.1
				c0.1-0.2,0.1-0.4,0-0.5c-0.1-0.4-0.1-0.8,0-1.2c0-0.1,0.1-0.2,0-0.3c-0.2-0.1-0.2-0.4-0.2-0.6c0-0.7-0.3-1.4-0.8-1.9
				c-0.3-0.5-0.6-1.1-0.8-1.7c0-0.1,0-0.1,0-0.2c0.2-0.8-0.4-1.3-0.6-1.9c-0.1-0.2-0.1-0.4,0-0.6c0.2-0.3,0.4-0.3,0.6,0
				s0.2,0.7,0.2,1c0,0.2,0.1,0.3,0.2,0.5c0.3,0.3,0.4,0.7,0.4,1.1c0,0.4,0.2,0.7,0.5,0.8c0.2,0.1,0.3,0.2,0.2,0.5s0,0.4,0.2,0.6
				s0.7,0.4,0.7,0.9c0.6,0.3,0.2,0.9,0.4,1.3c0.1,0.5,0.1,1,0,1.4c0,0.6,0,1.2-0.1,1.7c-0.3,0.7-0.4,1.5-0.4,2.2
				c0,0.3-0.1,0.7-0.2,1c-0.4,1.4-0.5,2.8-0.9,4.2c-0.2,1-0.6,2-0.9,3c-0.2,0.4-0.2,0.9-0.4,1.3c-0.5,1.1-0.7,2.4-1.3,3.5
				c-0.4,0.9-0.6,1.8-1.1,2.7c-0.5,1-0.9,2-1.2,3.1c-0.2,0.6-0.4,1.2-0.7,1.9c-0.3,0.9-0.6,1.8-1.1,2.7c-0.5,0.8-1,1.5-1.5,2.3
				c-0.9,1.1-1.6,2.2-2.3,3.4c-0.2,0.4-0.5,0.8-0.8,1.2c-0.5,0.8-1,1.6-1.6,2.4s-1,1.4-1.5,2.1c-0.7,0.9-1.2,1.8-1.8,2.7
				c-0.5,0.7-1,1.3-1.7,1.9c-0.5,0.3-1,0.7-1.4,1.2c-0.4,0.7-1.1,1.2-1.5,1.9c-0.3,0.5-0.5,1.1-0.7,1.7s-0.5,0.9-0.7,1.4
				c0,0.1-0.1,0.2-0.2,0.3c-0.1,0.1,0,0.4-0.3,0.3c-0.2,0-0.4-0.2-0.4-0.4c0,0,0-0.1,0-0.1L0,104.6z M22,49.6
				c0.1,0.2-0.1,0.5,0.1,0.6c0.1,0,0.1,0,0.1-0.1c0,0,0,0,0,0C22.3,50,22.2,49.7,22,49.6L22,49.6z"/>
			<path d="M15.7,14.3c0.2,0,0.2-0.2,0.4-0.2c0.1,0,0.2-0.1,0.2-0.2c0,0,0-0.1-0.1-0.1c-0.3-0.2-0.4-0.5-0.4-0.8
				c0-0.5-0.4-1-0.2-1.5c0.1-0.3-0.1-0.6-0.2-0.8c-0.2-0.4-0.2-1-0.5-1.4c0-0.1-0.1-0.1-0.1-0.2c-0.1-0.4-0.5-0.7-0.9-0.6
				c-0.1,0-0.2,0-0.2,0.1c-0.1,0.1-0.3,0.1-0.5,0.2c-0.2,0-0.4,0-0.5-0.2c-0.1-0.2-0.1-0.4,0.1-0.6c0.1-0.1,0.1-0.1,0.2-0.1
				c0.9-0.4,1.9-0.4,2.8,0c0.6,0.2,1,0.6,1.3,1.2c0,0.1,0.2,0.2,0.3,0.2s0.2,0.1,0.2,0.2c-0.1,0.5,0.3,0.8,0.5,1.1
				c0.1,0.1,0.1,0.3,0.1,0.4c0,0.3,0,0.7,0.2,0.9c0.2,0.2,0.2,0.5,0.2,0.8c0,0.1,0.1,0.2,0.1,0.3c0.5,0.5,0.6,1.2,0.4,1.9
				c-0.2,0.6-0.5,1-1.2,1.1c-0.1,0-0.2,0.1-0.2,0.2c0,0,0,0,0,0c0,0.1,0.1,0.2,0.2,0.3c0.2,0,0.4,0.1,0.6,0s0.4-0.1,0.4,0.1
				c0.3,0.4,0.5,0.9,0.7,1.4c0,0.1,0.1,0.3,0.2,0.4c0.4,0.5,0.6,1.1,0.6,1.7c0,0.1,0,0.2,0,0.2c0.5,0.3,0.3,1,0.6,1.4
				c-0.3,0.6,0.2,1.2,0.2,1.9s0.1,1.2,0.2,1.8c-0.1,0.8-0.2,1.6-0.3,2.4c0,0.3,0.1,0.6-0.1,0.8c0,0.1,0,0.1,0.1,0.2
				c0.1,0,0.1,0.1,0.2,0.2c0.1,0.7,0.5,1.3,0.4,2c0,0.1,0,0.3-0.1,0.3c-0.4,0.2-0.3,0.8-0.7,1c-0.1,0-0.1,0.1,0,0.2c0,0,0,0,0,0
				c0.4,0.5,0.6,1.1,0.5,1.7c0,0.8,0.2,1.6,0.3,2.4c0.1,0.3,0,0.6-0.2,0.9c-0.1,0.1-0.1,0.2-0.1,0.3c0.1,0.3,0,0.7-0.1,1
				c-0.3,1.1-0.4,2.2-0.6,3.4c-0.1,0.4-0.4,0.5-0.7,0.6c-0.1,0-0.2,0-0.3-0.1c0,0,0-0.1,0-0.1c0.2-0.8,0.3-1.7,0.6-2.5
				c0.2-0.6,0.3-1.1,0.3-1.7c0-0.2,0.1-0.4,0.2-0.5c0-0.1,0.1-0.2,0.1-0.3c-0.2-0.9,0.2-1.8-0.1-2.6c-0.2-0.5,0-1,0-1.5
				c-0.1-0.4-0.2-0.8-0.5-1.1c-0.4-0.4-0.6-1-0.6-1.5c0-0.2-0.1-0.5-0.2-0.6c-0.1,0-0.1-0.1-0.1-0.2c0.2-0.6-0.2-1-0.4-1.5
				c0-0.1-0.1-0.3,0-0.4c0.1-0.1,0.3-0.1,0.5-0.1c0.6,0.2,0.7,0.8,0.8,1.3c0,0.4,0.2,0.7,0.5,0.8c0.1-0.1,0-0.2,0-0.3
				c-0.1-0.4-0.4-0.8-0.1-1.2c0,0,0-0.1,0-0.1c-0.4-0.8,0.1-1.6,0.1-2.4c0-0.3,0.1-0.7,0.2-1c0-0.2,0-0.3-0.1-0.4s-0.2,0.1-0.3,0.2
				c-0.2,0.5-0.6,0.5-1,0.4s-0.5-0.5-0.5-0.8c0-0.3-0.1-0.7-0.3-1c-0.2-0.3,0-0.7,0-1.1s0-0.5-0.4-0.6s-0.6-0.4-1-0.5
				c-0.4-0.3-0.6-0.8-0.4-1.2c0.4-0.6,0.5-1.3,0.3-2c-0.1-0.7-0.3-1.3-0.7-1.8c-0.1-0.1-0.2-0.2-0.3-0.2c-0.4-0.1-0.7-0.3-0.8-0.6
				c-0.2-0.5-0.8-0.5-1.1-0.7c-0.2-0.1-0.4-0.2-0.3-0.4s0.2-0.5,0.6-0.4c0.1,0,0.2,0,0.2,0.1C15.4,13.8,15.6,13.9,15.7,14.3z
				 M18.4,14.2c0.1-0.5-0.3-0.9-0.3-1.4c0-0.4-0.1-0.7-0.4-1c-0.1-0.1-0.1-0.2,0-0.3s0.1-0.4-0.1-0.5c-0.2,0-0.3-0.2-0.2-0.4
				c0,0,0,0,0,0c0-0.1,0-0.1-0.1-0.2c-0.2-0.3-0.7-0.5-0.5-1c0-0.1,0-0.1-0.1-0.1c0,0,0,0,0,0c-0.4,0-0.6-0.2-1-0.2
				c-0.1,0-0.2,0.1-0.2,0.1c0.1,0.2,0,0.6,0.1,0.7c0.5,0.5,0.1,1.2,0.5,1.8c0.1,0.1,0,0.2-0.1,0.3C16,12,16,12.1,16,12.1
				c0.3,0.4,0.2,0.9,0.4,1.3c0.1,0.3,0.3,0.7,0.4,1c0.3,0.3,0.7,0.5,1.1,0.4c0.3,0,0.5-0.3,0.4-0.6C18.4,14.2,18.4,14.2,18.4,14.2z
				 M20.8,22.6c-0.2-0.5,0-1-0.3-1.6c-0.1-0.3-0.2-0.5-0.3-0.8c-0.1-0.3-0.2-0.6-0.3-0.8c-0.2-0.3-0.7-0.6-0.4-1.2
				c0.1-0.2-0.2-0.4-0.5-0.2c-0.2,0.1-0.3,0.3-0.2,0.6c0,0,0,0,0,0c0.1,0.2,0.1,0.5,0,0.7c-0.1,0.1-0.1,0.3,0,0.4
				c0.3,0.5,0.5,1.1,0.6,1.6c0.2,0.5,0.7,1,0.9,1.5c0.1,0.1,0.2,0.2,0.3,0.1C20.8,23,20.8,22.8,20.8,22.6z M18.3,19.5
				c0.2-0.5,0-0.9,0.2-1.4C18.1,18.7,18.1,19.1,18.3,19.5z"/>
			<path d="M19.9,45.6c-0.2,0.6-0.4,0.7-0.9,0.6c-0.2-0.1-0.4-0.1-0.5,0.2s-0.2,0.2-0.4,0.2c-0.4,0-0.9,0-1.3-0.2
				c-0.3-0.1-0.5,0.1-0.7,0.1c-0.8,0-1.6,0-2.5,0.1c-0.6,0.1-1.2,0.3-1.7,0.7c-0.5,0.3-0.8,0.9-1.4,1c-0.1,0-0.2,0.1-0.2,0.1
				c-0.1,0.5-0.6,0.8-0.8,1.3c-0.2,0.5-0.5,1-0.8,1.5c0,0-0.1,0.1-0.1,0.2c-0.3,1-0.7,1.9-1.1,2.8c-0.2,0.5-0.3,1-0.4,1.5
				c-0.3,1.1-0.6,2.3-1.1,3.3c-0.1,0.3-0.2,0.6-0.2,0.9c-0.1,0.7-0.2,1.4-0.6,2c-0.1,0.1,0,0.3,0,0.4c-0.1,0.9-0.4,1.7-0.5,2.6
				c-0.2,1.1-0.4,2.3-0.5,3.5c-0.1,0.7-0.2,1.3-0.4,2c-0.2,0.5-0.2,1-0.1,1.5c0.1,0.6,0.1,1.1,0,1.7c-0.2,0.9-0.3,1.8-0.3,2.7
				c-0.2,1.2-0.3,2.3-0.3,3.5c0.2,0.9,0.2,1.7,0,2.6c-0.2,0.8,0.2,1.4,0.2,2c0.1,0.6,0.1,1.1,0,1.7c0,0.1,0,0.3,0,0.4
				c0.2,0.4,0.2,0.8,0.1,1.2c-0.1,0.3,0.2,0.7,0.2,1.1c0,0.3,0,0.7-0.1,1c-0.1,0.3,0.1,0.6,0.1,0.9c0,0.4,0,0.8,0,1.1
				c-0.1,0.5,0,1.1,0,1.6c-0.1,0.5-0.1,1.1-0.1,1.7c0,0.2,0,0.3-0.2,0.4c-0.2,0.1-0.3,0.3-0.5-0.1c-0.4-1-0.4-2.1,0-3.1
				c0-0.1,0.1-0.2,0-0.3c-0.5-0.8-0.1-1.8-0.2-2.6c0-0.6,0.2-1.1-0.2-1.6c0,0,0-0.1,0-0.1c0.1-0.7,0.1-1.4-0.1-2.1
				c0.1-0.4,0-0.8-0.2-1.2l0,0c0.1-0.7-0.2-1.4-0.1-2.2c0-0.6,0-1.2,0-1.7c0.1-0.5,0-1.1,0.3-1.6c0.2-0.3,0-0.6,0-0.9c0-1,0-2,0.1-3
				c0.2-0.8,0.2-1.5,0.2-2.3c0-0.9,0.1-1.8,0.3-2.7c0.2-0.8,0.3-1.5,0.4-2.3c0-0.1,0-0.2,0-0.3c-0.1-0.7,0.1-1.5,0.4-2.1
				c0.1-0.2,0.2-0.4,0.2-0.7c0-0.8,0.2-1.6,0.5-2.4c0-0.1,0-0.1,0-0.2c-0.1-0.6,0-1.3,0.4-1.8c0.1-0.2,0.2-0.4,0.1-0.7
				c-0.1-0.1-0.1-0.2,0-0.3c0.2-0.2,0.4-0.3,0.1-0.6c-0.1-0.1,0-0.2,0.1-0.2c0.3-0.4,0.5-0.9,0.6-1.5c0-0.2,0.1-0.4,0.2-0.6
				c0.1-0.3,0.2-0.7,0.2-1c0.1-0.4,0.2-0.8,0.4-1.2c0.4-0.7,0.7-1.4,0.9-2.2c0.1-0.6,0.4-1.2,0.7-1.7c0.2-0.2,0-0.6,0.2-0.8
				c0.7-0.8,1.1-2,2.2-2.5c0.4-0.2,0.5-0.6,1-0.8s1.1-0.6,1.7-0.3c0.2,0.1,0.4-0.1,0.7-0.2c0.7-0.1,1.4-0.1,2.1,0c1,0,1.9,0,2.9-0.1
				c0.3-0.1,0.6-0.2,0.8-0.4c0.2-0.1,0.3-0.2,0.5-0.2c0.2,0,0.3,0,0.4,0.2c0.1,0.2,0,0.2-0.1,0.3s-0.2,0.3-0.4,0.4S20,46,19.9,45.6z
				"/>
			<path d="M28.9,61c-0.1-0.5,0-0.9,0.4-1.3c0.5-0.6,1.4-0.7,2-0.3c0.1,0.1,0.2,0.2,0.3,0.3c0.1,0.2,0.3,0.3,0.5,0.4
				c0.3,0.2,0.5,0.3,0.6,0.7s0.3,0.2,0.5,0.3s0.5,0.6,1,0.6c0.1,0,0.2,0.1,0.2,0.2s0.2,0.2,0.2,0.2c0.9,0.1,1.5,0.8,2.3,1.2
				c0.6,0.5,0.8,1.3,0.6,2c-0.2,0.6-0.4,1.2-0.7,1.8c-0.2,0.2-0.4,0.4-0.7,0.4c-0.1,0-0.2-0.1-0.3-0.2c-0.1-0.1,0-0.2,0.1-0.3
				c0.1-0.1,0.1-0.2,0.2-0.3c0.1-0.5,0.3-1.1,0.5-1.6c0.2-0.4,0.1-0.9-0.3-1.1c-0.3-0.2-0.6-0.5-0.8-0.7c-0.1-0.1-0.3-0.2-0.5-0.2
				c-0.7-0.1-1.4-0.5-1.9-1c-0.2-0.2-0.4-0.2-0.6-0.2c-0.2,0.1-0.2,0.3-0.2,0.5c-0.1,0.4-0.3,0.8-0.6,1.1c-0.3,0.2-0.5,0.6-0.8,0.8
				c-0.3,0.3-0.8,0.2-1.1-0.1c-0.1-0.1-0.2-0.2-0.2-0.4c-0.1-0.5-0.4-1-0.5-1.5C28.9,61.8,28.8,61.4,28.9,61z M30.6,63.4
				c0.2,0,0.4-0.1,0.5-0.2c0.3-0.3,0.4-0.7,0.8-0.9c0.1,0,0.1-0.2,0.1-0.3c0-0.3-0.9-1-1.1-1s-0.6-0.2-0.7-0.5c0-0.1,0-0.2-0.1-0.2
				s-0.1,0.1-0.2,0.2c-0.2,0.3,0,0.6-0.2,0.9s0,0.7,0.2,1c0.2,0.2,0.3,0.4,0.3,0.7C30.1,63.3,30.3,63.4,30.6,63.4z"/>
			<path d="M8.2,101.7c-0.2-0.9,0.4-1.3,1-1.9c0.4-0.3,0.9-0.3,1.2,0c1.1,0.6,2.1,1.4,2.9,2.4c0.2,0.2,0.4,0.5,0.7,0.7
				c0.5,0.5,0.9,1.1,1.1,1.7c0.2,0.5,0.3,1,0.5,1.5c0.1,0.2,0.1,0.4,0,0.6c-0.1,0.2-0.1,0.4,0,0.5c0.2,0.6-0.1,0.9-0.4,1.3
				c-0.2,0.3-0.6,0.4-0.9,0.2c-0.1-0.1-0.2-0.2-0.2-0.3c-0.1-0.1-0.2-0.2-0.4-0.2c-0.1-0.1-0.2-0.1-0.2-0.2s0.2-0.1,0.2-0.1
				c0.2,0,0.5,0,0.7,0.1c0.3,0.1,0.4,0,0.5-0.3c0.1-0.5,0.1-1.1-0.1-1.6c0,0,0-0.1,0-0.1c0.2-0.6-0.4-0.9-0.4-1.4
				c0-0.2-0.2-0.3-0.3-0.5c-0.3-0.6-0.8-1.1-1.3-1.4c-0.2-0.1-0.1-0.3-0.3-0.5c-0.5-0.3-1-0.5-1.4-0.8c-0.1,0-0.2-0.1-0.3,0
				s0,0.2,0,0.3c0.1,0.5,0.1,0.9,0.3,1.4c0,0.5-0.2,0.9-0.7,1.2c-0.4,0.1-0.9-0.1-1.2-0.4c-0.1-0.2-0.2-0.3-0.4-0.4
				C8.3,103,8,102.3,8.2,101.7z M8.8,102c0.2,0.5,0.5,0.9,1,1.2c0.1,0,0.2,0,0.3-0.1c0.1-0.1,0.1-0.2,0.1-0.4
				c-0.1-0.7-0.3-1.3-0.7-1.9c-0.1-0.1-0.1-0.3-0.3-0.3S9,100.8,9,101C8.9,101.3,8.9,101.6,8.8,102L8.8,102z"/>
			<path d="M22.2,89.3H22c-0.6-0.1-0.8,0-0.8,0.7c0,0.1,0,0.2,0.1,0.3c0.4,0.2,0.3,0.6,0.3,1s-0.3,0.6-0.2,0.9c0,0-0.1,0.1-0.2,0.2
				c-0.3,0.2-0.6,0.4-0.9,0.6c-0.3,0.2-0.6,0.1-0.8-0.2c-0.4-0.4-1-0.8-1.1-1.5c-0.1-0.3-0.2-0.6-0.3-0.9c-0.1-0.7,0-1.4,0.3-2
				c0-0.2,0.3-0.2,0.5-0.3s0.3,0,0.3-0.2c0-0.1-0.1-0.2-0.2-0.3c-0.6-0.3-0.9-1-1.4-1.4c-0.2-0.2-0.1-0.3,0-0.4s0.6-0.2,0.8,0
				c0.6,0.5,1.5,0.8,1.9,1.5c0.3,0.5,0.9,0.5,1.2,1c0.1,0.2,0.5,0.2,0.7,0s0.5-0.2,0.5-0.1s0.3,0.6,0.1,0.8
				C22.7,89.2,22.5,89.3,22.2,89.3z M19.1,88.4c-0.3-0.1-0.4,0-0.4,0.2c0,0.4,0.1,0.9,0.1,1.3c0.2,0.5,0.5,1,0.8,1.5
				c0.1,0.2,0.4,0.4,0.7,0.4c0.2,0,0.5-0.2,0.5-0.4c0.2-0.7,0.1-1.4-0.3-2c-0.2-0.2-0.4-0.4-0.5-0.8s-0.2-0.5-0.6-0.4
				C19.4,88.3,19.2,88.5,19.1,88.4z"/>
			<path d="M24.9,81.3c0.5,0.6,0.7,1.3,0.6,2c0,0.9-0.5,1.7-1.2,2.1c-0.2,0.1-0.4,0.2-0.6,0.1c-0.3-0.1-0.6,0.1-0.9,0
				c-0.2-0.1-0.4-0.1-0.5-0.2c-0.1-0.2-0.3-0.3-0.5-0.3c-0.2,0-0.4-0.1-0.2-0.4c0.2-0.2,0.1-0.6-0.1-0.7c0,0,0,0-0.1,0
				c0,0-0.1-0.1-0.1-0.1c-0.3-1-0.3-2.2,0.2-3.2c0.1-0.2,0.3-0.2,0.5-0.2c0.4,0,0.7,0.2,0.9,0.5c0.2,0.6,0.3,1.3,0.2,1.9
				c0,0.4,0,0.9-0.1,1.3c-0.1,0.4,0.3,0.4,0.5,0.4c0.8,0.1,1.1-0.2,1.2-1c0-0.3,0.2-0.5,0.2-0.8C25,82.3,25,81.8,24.9,81.3z
				 M22.1,81.9c-0.2,0.2-0.2,0.5-0.1,0.7c0,0.1,0.1,0.1,0.2,0.1c0,0,0,0,0.1,0c0,0,0.1-0.1,0-0.2c0,0,0,0,0,0
				C22.1,82.4,22.2,82.2,22.1,81.9z"/>
			<path d="M12.5,96.9c0-0.4,0.2-0.8,0.5-1.1c0.3-0.4,1.2-0.3,1.6,0.2c0.3,0.4,0.8,0.7,1.4,0.8c0.3,0.1,0.6,0.3,1,0.3
				s0.4-0.1,0.5-0.3l0.1-0.3c0-0.1,0-0.2,0.2-0.2s0.1,0.1,0.2,0.2c0.1,0.3,0,0.6,0.2,0.8c0.1,0.1,0,0.2-0.1,0.3
				c-0.2,0.2-0.4,0.3-0.7,0.4c-0.4,0.2-0.7,0.2-1-0.2c-0.1-0.2-0.4-0.3-0.6-0.2c-0.2,0-0.3,0.2-0.3,0.4c0,0.2,0,0.4,0.1,0.7
				c0.1,0.3,0.2,0.7,0.3,1.1c0,0.2,0,0.4-0.2,0.5c-0.2,0.3-0.5,0.6-0.8,0.2c-0.1-0.1-0.2-0.1-0.2-0.1c-0.3,0-0.6-0.3-0.7-0.6
				c-0.1-0.5-0.6-0.9-0.8-1.5C12.8,97.9,12.6,97.4,12.5,96.9z M14.8,98.8c0-0.2,0-0.3-0.1-0.5c-0.4-0.5-0.5-1.2-1-1.6
				c-0.1-0.1-0.1-0.4-0.3-0.3s-0.1,0.3-0.1,0.4c0.1,0.8,0.5,1.6,0.9,2.2c0.2,0.3,0.4,0.3,0.5,0C14.8,99,14.8,98.9,14.8,98.8z"/>
			<path d="M28.7,69.4c0-0.1,0-0.2-0.1-0.3c-0.4-0.3-0.4-0.8-0.7-1.1c-0.2-0.4-0.4-0.8-0.5-1.3c-0.1-0.2-0.2-0.5,0.1-0.6
				s0.5-0.5,1-0.3c0.4,0.3,0.9,0.5,1.4,0.6c0.6,0.2,1.2,0.2,1.9,0c0.2,0,0.4-0.2,0.5,0c0.1,0.2-0.1,0.3-0.2,0.4
				c-0.3,0.4-0.7,0.6-1.2,0.6c-0.6,0.1-1.1,0-1.6-0.3c-0.2-0.1-0.6-0.4-0.9,0c-0.1,0.1-0.1,0.3,0,0.4c0.5,0.6,0.9,1.3,1.1,2
				c0.1,0.2,0.2,0.4,0.3,0.6c0.2,0.4,0.1,0.5-0.3,0.7s-0.7,0.3-1-0.1c-0.1-0.2-0.3-0.1-0.5-0.2s-0.5-0.1-0.3-0.4
				c0-0.2-0.1-0.2-0.2-0.2c-0.4-0.1-0.8-0.2-1.1-0.4c-0.1-0.1-0.3-0.2-0.2-0.4s0.2-0.4,0.5-0.3c0.4,0,0.7,0.2,0.9,0.5
				c0.2,0.3,0.6,0.4,0.9,0.5C28.7,70,28.6,69.6,28.7,69.4z"/>
			<path d="M25.7,76.8c-0.6,0-0.8,0.3-0.6,0.8c0.2,0.7,0.5,1.3,0.9,1.8c0.1,0.2,0.3,0.4,0,0.6s-0.7,0.3-0.9,0.1
				c-0.5-0.5-1-1-1.6-1.4c-0.1-0.1-0.3-0.2-0.2-0.4s0.2-0.3,0.5-0.3c0.5,0.1,0.5,0,0.4-0.5c-0.1-0.5-0.1-1,0.1-1.5
				c0.1-0.3,0.3-0.2,0.5-0.3c0.4-0.2,0.9-0.2,1.3,0.1c0.3,0.2,0.6,0.3,1,0.4c0.6,0.2,1.1,0.5,1.5,1c0,0,0.1,0.1,0.1,0.2
				c0.1,0.2,0.3,0.5,0,0.7S28.2,78.1,28,78C27.4,77.3,26.6,76.9,25.7,76.8z"/>
			<path d="M17,90.1c0.1,0.2,0,0.4-0.2,0.6c-0.1,0.1-0.1,0.2-0.1,0.3c0.1,0.3,0,0.7,0,1c0,0.3,0,0.6,0.1,0.9
				c0.2,0.4,0.3,0.8,0.7,1.2c0.4,0.3,0.7,0.7,1,1.2c0.2,0.3,0.1,0.5-0.4,0.8c-0.3,0.2-0.3,0-0.5-0.2c-0.3-0.4-0.7-0.6-1.2-0.8
				c-0.3-0.1-0.6-0.3-0.8-0.4c-0.2-0.1-0.2-0.3,0-0.4c0.1-0.1,0.3,0,0.4-0.2c0-0.2,0-0.4-0.1-0.6c-0.4-0.6-0.4-1.4,0.1-2
				c0.2-0.3,0.2-0.8,0.4-1.1c0-0.1,0-0.2,0-0.2s0.1-0.4,0.3-0.3S17,89.9,17,90.1z"/>
			<path d="M12.1,65.5c-0.2,0.1-0.4,0-0.5-0.1c-0.1-0.1-0.2-0.1-0.3,0c-0.3,0.3-0.6,0.2-0.9,0S9.4,65.1,9,64.9
				c-0.8-0.3-1.5-0.8-2-1.5c-0.1-0.2-0.3-0.3-0.2-0.5s0.3,0,0.4,0c0.2,0,0.4,0.1,0.6,0.3c0.6,0.5,1.4,0.9,2.2,1.1
				c0.4,0.1,0.8,0.3,1.1,0.5c0.2,0.2,0.4,0.3,0.7,0.2c0.1,0,0.2,0,0.2,0c0.2,0.1,0.4,0.1,0.4,0.3S12.2,65.4,12.1,65.5z"/>
			<path d="M9.1,82.4c-0.3-0.4-0.5,0.1-0.8,0.2c-0.3,0.1-0.5,0.1-0.8,0c-0.8-0.2-1.6-0.5-2.3-1c-0.2-0.1-0.3-0.2-0.4-0.4
				c-0.1-0.1-0.3-0.3-0.1-0.5s0.4-0.4,0.6-0.2c0.6,0.4,1.3,0.6,1.9,1c0.1,0.1,0.2,0.1,0.3,0.1c0.1,0,0.2,0,0.2,0.1
				C8,82.4,8.5,81.8,9,81.8c0.2,0,0.5,0,0.7,0.1c0.1,0,0.1,0.1,0,0.2C9.6,82.4,9.3,82.3,9.1,82.4z"/>
			<path d="M9.3,57.6c0,0.3,0.5,0.7,0.9,0.8c0.6,0.1,1.1,0.3,1.6,0.5c0.2,0.1,0.6,0,0.9,0.3c0.1,0.1,0.2,0.2,0.1,0.4
				c0,0.2-0.2,0.2-0.3,0.2c-0.2,0-0.3,0-0.5-0.1c-0.5-0.3-1-0.4-1.5-0.5c-0.6-0.1-1.1-0.4-1.5-0.9c-0.5-0.4-0.7-1.1-0.7-1.7
				c0-0.1,0-0.2,0.2-0.3s0.2,0.1,0.2,0.2S9,57,9.1,57.1S9.4,57.4,9.3,57.6z"/>
			<path d="M28.3,74.7c-0.6,0.2-1.1-0.3-1.6-0.5c-0.1,0-0.1-0.1-0.2-0.2c-0.2-0.5-0.6-1-1-1.5c0-0.1-0.1-0.1-0.1-0.2
				s0.1-0.1,0.2-0.1c0.4-0.1,0.8,0.1,1,0.4c0.2,0.5,0.7,0.8,1,1.3c0,0,0.1,0.2,0.1,0.1c0.4-0.3,1.1,0.1,1.2-0.7
				c0-0.1,0.1-0.1,0.1-0.1c0,0,0,0,0.1,0c0.3,0.2,0.3,0.6,0.1,0.9c0,0-0.1,0.1-0.1,0.1C28.8,74.6,28.6,74.7,28.3,74.7z"/>
			<path d="M9.2,74.1c-0.2,0.4-0.4,0.4-0.7,0.2c-0.4-0.2-0.8-0.3-1.2-0.6c-0.2-0.2-0.5-0.2-0.6-0.6S6.2,72.7,6,72.5
				c-0.3-0.3-0.5-0.6-0.6-0.9c-0.1-0.2,0-0.4,0.2-0.5c0.2-0.1,0.3,0.1,0.4,0.2c0.3,0.4,0.8,0.7,0.9,1.2c0,0.1,0.1,0.2,0.2,0.2
				c0.2,0,0.4,0.2,0.4,0.3c0.1,0.2,0.3,0.3,0.5,0.3c0.3,0,0.4,0.4,0.7,0.5C8.8,74,9,74.1,9.2,74.1z"/>
			<path d="M5.4,87c0.1,0.1,0.3,0.1,0.4,0.3s0.1,0.2,0.2,0.2c0.5-0.1,0.9,0.3,1.4,0.3c0.1,0,0.2,0,0.2,0.1c0,0.1,0,0.2-0.1,0.3
				c-0.4,0.3-0.6,0.2-1.1,0s-0.8-0.3-1.2-0.5s-0.2-0.3-0.2-0.5S5.2,87,5.4,87z"/>
			<path d="M24,70.9c0.2,0,0.4,0.2,0.5,0.4c0,0.2-0.2,0.2-0.4,0.2l-0.5,0.2c-0.1,0-0.2,0-0.3-0.1c0,0,0,0,0,0
				c-0.1-0.1,0-0.2,0.1-0.2S23.7,70.9,24,70.9z"/>
			<path d="M10.3,74.5c-0.1,0.2-0.1,0.3-0.3,0.3s-0.2-0.2-0.2-0.3s0-0.3,0.2-0.3C10.1,74.2,10.2,74.3,10.3,74.5z"/>
		</g>
	</g>
</g>
</svg>
