<svg xmlns="http://www.w3.org/2000/svg" viewBox="0 0 69.78 80.08"><defs><style>.cls-1{opacity:0.8;}.cls-2{fill:#fffbf3;}.cls-3{opacity:0.7;}.cls-4{fill:#ec6d86;}.cls-5{opacity:0.5;}.cls-6{fill:#cec2a1;}</style></defs><g id="Layer_2" data-name="Layer 2"><g id="Layer_1-2" data-name="Layer 1"><g class="cls-1"><path class="cls-2" d="M26.05,9.68a10.7,10.7,0,0,0-2.34,4c-.61,1.54-1.31,3-2,4.46-.59,1.26-1.36,2.38-1.93,3.63a43,43,0,0,0-1.58,4.77c-.41,1.25-.91,2.49-1.36,3.73a29,29,0,0,0-1,4.41,86.57,86.57,0,0,1-2.17,9.1c-.44,1.49-.44,3.12-.77,4.64s-.56,2.93-.85,4.4c-.33,1.65-.71,3.3-1,5-.33,1.84-.44,3.67-.95,5.49C9.74,64.4,9.44,66,10,67.08a5.07,5.07,0,0,0,4.6,2.66,15.67,15.67,0,0,1,4.15.25c1.79.27,3.59.51,5.38.82s3.54,0,5.29.4c.68.14,1.4.31,2.07.49.91.25,1.85.34,2.77.55s1.67.41,2.47.67c.43.14.78.34,1.2.51.15.06,1.32.46.94.28a14.85,14.85,0,0,0,4.65,1.6l-1.4-.65c1.29.83,2.71,1,4.09,1.61a12.07,12.07,0,0,1,1.85.88,9.65,9.65,0,0,1,.81.62,13,13,0,0,1,1.5,1c-.07-.07-.94-.65-.24-.11l.55.39a7.11,7.11,0,0,0,1.15.71c.54.24,1.23.52,1.54-.1.24-.47,0-1.23,0-1.73a8.91,8.91,0,0,1,.63-2.79c.49-1.35.76-2.7,1.21-4,.51-1.51,1.44-2.84,1.92-4.37s.9-3.22,1.43-4.8c.58-1.74,1.39-3.39,2-5.12s1.13-3.64,1.7-5.45.81-3.78,1.25-5.64A16.06,16.06,0,0,1,64.08,43a20.32,20.32,0,0,0,.8-2.43c.54-1.92.89-3.92,1.57-5.8,1-2.74,3.13-6.1,2.44-9.16a4.34,4.34,0,0,0-1.74-2.23,6.11,6.11,0,0,0-1.53-.92,2.52,2.52,0,0,0-.53-.17c-.23-.12-.17-.07.17.13s.39.25-.25-.2-1.3-.72-1.86-1.09a10.44,10.44,0,0,0-2.76-1.46,49.54,49.54,0,0,0-5.13-.75c-.8-.14-1.56-.46-2.35-.62-.16,0-1-.15-.48,0-.53-.16-1-.47-1.57-.62a47,47,0,0,1-5.14-1.72,43.27,43.27,0,0,0-5.17-2.08c-1.76-.48-3.35-1.32-5.13-1.76a27.49,27.49,0,0,0-5.16-.84c-1.32-.05-2.76-1.24-3.46.42-.6,1.4-1.38,2.67-2,4A14.77,14.77,0,0,0,23,20.35a25.75,25.75,0,0,1-1.91,5.56c-.64,1.64-1.06,3.28-1.55,4.95-.23.78-.32,1.58-.55,2.36-.29,1-.64,2-.92,3-1,3.53-2,7.07-2.71,10.67-.19.95-.47,1.87-.67,2.81s-.24,1.75-.44,2.61c-.37,1.56-1,3-1.18,4.53-.27,1.88-.2,3.78-.51,5.66s-.17,3.13,1.32,4.44a4,4,0,0,0,2.76,1.3c.81-.08,1.58-.16,2.41-.17a17,17,0,0,1,2.94.26c.94.15,1.89.13,2.84.25.76.1,1.49.23,2.26.3.93.09,1.9,0,2.81.19s1.52.43,2.3.56c1,.17,2.07.14,3.1.35s1.83.46,2.76.65,2.11.22,3.13.49c.74.19,1.44.54,2.16.78-.14,0-.82-.48-.11,0,.22.14.45.27.68.39l.51.26c-.49-.27.27.21.36.27a8.82,8.82,0,0,0,1.28.7s.48.23.23.1.51.31.44.27a2.75,2.75,0,0,0,.73.36c-.13,0-.77-.81-.6-.44s1,.82,1.33,1,1.83,1.19,2,.31c.49-2.68,1.84-5,2.9-7.54s1.88-5,3.11-7.29a39,39,0,0,0,3-7.42C60.1,50,61,47,61.53,44.05c.51-2.77.6-5.62,1.07-8.4s1.27-5.68,2-8.52c.3-1.17.63-2.34-.08-3.43a6.24,6.24,0,0,0-3.85-2.56c-.8-.18-2.2-.71-2.86,0a2.44,2.44,0,0,0-.43,1.44c-.1.79-.24,1.57-.4,2.34-1.44,6.69-4.22,13-6.61,19.35l4,2.91c1.28-4.48,2.91-8.85,4.18-13.33.59-2.1.88-4.23,1.3-6.35A10.57,10.57,0,0,0,60,24.89a3.88,3.88,0,0,0-1.51-2.67c-.53-.51-2.09-1.92-3-1.37-1.47.93-2,2.68-2.61,4.24-.72,1.9-1.39,3.81-2.06,5.72-1.29,3.64-2.37,7.34-3.75,11l4,2.91a26.51,26.51,0,0,1,1.45-6.61c.66-2.27,1.38-4.53,2.16-6.76.67-1.89,1.64-4,1.6-6a10,10,0,0,0-2-5.44c-.51-.65-2.43-2.47-3.37-1.81-1.56,1.09-2.23,3.19-2.8,4.9-.72,2.16-1.25,4.39-1.83,6.6a65.35,65.35,0,0,1-1.92,6.73A36,36,0,0,1,43,39.68,5,5,0,0,1,41.48,42l3.68,2.23c-.38-.59,0-1.84.06-2.48.2-1.18.46-2.34.72-3.51a25.91,25.91,0,0,1,1.89-5.41,24.63,24.63,0,0,0,2.53-12.36c-.09-1-2.94-3.83-4-2.91a12,12,0,0,0-1.61,2.3c-.54.83-1,1.73-1.53,2.55a1.07,1.07,0,0,1-.47.61c-.08.19-.21.17-.39-.08a6.15,6.15,0,0,1-1.31-.65c-.86-.46-1.64-1-2.54-1.34a39.91,39.91,0,0,0-5.95-1.88,51.23,51.23,0,0,1-5.17-1.26l1.53.93-.15-.13,1.42,1.67-.05-.22v.54c.48-1.43,1.74-2.8,2.49-4.12l-3.89-2.6c.24.59-.54,2.12-.73,2.67-.38,1.12,3,4.07,3.89,3.14a9.91,9.91,0,0,0,1.32-1.94A11.93,11.93,0,0,1,35,15.69l-4-2.91a4.24,4.24,0,0,1-.4,1.84A23.37,23.37,0,0,0,30.05,17c-.2,1,3.24,3.82,4,2.91.9-1.12,1.33-2.57,2.13-3.77l-4-2.91c-.17,1.05-.35,2.1-.54,3.14a7.12,7.12,0,0,0-.33,1.81,3.68,3.68,0,0,0,1.5,2c.45.36,1.61,1.31,2.25,1s.93-1,1.22-1.73a10.47,10.47,0,0,1,1.41-2.69l-3.89-2.6A5.23,5.23,0,0,1,33.52,16a21.13,21.13,0,0,1-.47,2.37c-.28,1,3.39,3.8,4,2.91.78-1.22,1.08-2.93,2.1-3.95l-4-2.92c.18,1.64-.33,3.19-.46,4.81-.07.93,3.4,3.89,4,2.91C39.56,20.51,40.26,18.7,41,17l-4-2.92a8.41,8.41,0,0,1,0,2.35c-.08.52-.23,1-.32,1.54a8.34,8.34,0,0,1-.21,1.58c-.45,1.21,3.4,4,3.9,3.14.69-1.26,1.13-3.24,2.28-4.14l-4-2.91a22.41,22.41,0,0,1-.31,2.72,3.08,3.08,0,0,0,0,1.7c.28.73,3,3.6,3.88,2.61.58-.67,1-1.45,1.6-2.13a29,29,0,0,0,1.89-2.41l-1.93-.54.09.07-2-2.07c.18.39-.17,1.4-.28,1.86-.29,1.2-.76,2.36-1.09,3.55l4,2.69a14.87,14.87,0,0,1,1.62-3.59l-3-1.37,0,0-.92-1.23c-.08-.3-.06.35-.07.48,0,.41-.08.81-.13,1.22-.07.57-.15,1.13-.24,1.7-.17,1.08,3,3.64,4,2.91a13.4,13.4,0,0,0,1.65-1.8c.11-.12,1.1-1.24,1.31-1.19l-1.93-1c-.58-.44-.18-.09-.16.19a5.08,5.08,0,0,0,.24.81,10.44,10.44,0,0,1,.29,1.56,30.92,30.92,0,0,1,.23,3.46,19.91,19.91,0,0,0-.07,3.45,29.75,29.75,0,0,0,1,2.87c.59,2.06-.76,4.27-1.88,5.92a19.54,19.54,0,0,1-4,3.77A6,6,0,0,1,40,43.39a14.77,14.77,0,0,1-3.61.57c-2.17-.06-4.87,0-6.86-.88a6.15,6.15,0,0,0-1.44-.64c-.38,0-.07,0,.1.15-.19-.12-.36-.31-.54-.45-.88-.68-1.82-1.29-2.72-2l-1.23-.92a7.25,7.25,0,0,0-.7-.54l-.17-.14c.57,1,.8,1.17.66.62.19-.81.22-1.77.36-2.62.41-2.58,1.84-4.74,2.71-7.16a27.42,27.42,0,0,0,1.32-7.07c.1-1-3.62-3.78-4-2.91a41.12,41.12,0,0,0-2,8.35,13.49,13.49,0,0,0-.47,4.13c.21,1.24,1.17,2.09,1.89,3a4.83,4.83,0,0,0,2.85,1.92c1.06,0,.34-1,0-1.44a5.88,5.88,0,0,1-.69-.82,3.46,3.46,0,0,1,0-1.72c.17-1.11.37-2.22.55-3.32a35.1,35.1,0,0,1,1.72-7l-4-2.92a25.67,25.67,0,0,1-2.11,8.8,20,20,0,0,0-1.43,3.62A31.84,31.84,0,0,0,19.45,36c-.18,1.5,1,2.8,2,3.68S24,41.56,25.3,42.5a25.45,25.45,0,0,0,7.45,4.18,18.7,18.7,0,0,0,4.6.5,21.6,21.6,0,0,0,4.33-.07A8.21,8.21,0,0,0,45.21,46c.56-.39,1-.91,1.56-1.32a10.21,10.21,0,0,0,1.55-1.29,16.71,16.71,0,0,0,2.55-2.89,11.8,11.8,0,0,0,1.59-3.48A6.1,6.1,0,0,0,52,33.28a5.55,5.55,0,0,1-.6-2.19c0-.93.15-1.86.13-2.79-.05-3.2-.38-6.78-2.82-9.09-.91-.86-2.61-2.37-3.89-1.44-1.11.82-1.75,2.13-2.84,2.94l4,2.92c.13-.82.24-1.64.32-2.46a2.85,2.85,0,0,0-1-2.82c-.21-.22-2.5-2.16-3-1.37a16.41,16.41,0,0,0-1.75,4c-.31,1.15,3.69,3.9,4,2.69.41-1.5,1-2.93,1.29-4.46.3-1.71-.73-2.76-2.12-3.7-.27-.19-1.58-1-1.92-.54-.58.85-1.24,1.62-1.89,2.41s-1,1.46-1.6,2.13l3.89,2.6a5.91,5.91,0,0,1,.26-1.54,21.37,21.37,0,0,0,.24-2.26c0-1.06-2.94-3.71-4-2.91s-1.6,2.88-2.29,4.13l3.9,3.14A22.14,22.14,0,0,0,41,19.53a8.19,8.19,0,0,0,.12-2.75,4,4,0,0,0-1.77-2.18c-.26-.18-1.92-1.34-2.19-.73-.75,1.69-1.45,3.5-2.36,5.11l4,2.91c.13-1.61.63-3.17.46-4.8-.1-.92-3-3.89-4-2.91s-1.32,2.73-2.1,3.95l4,2.91c.4-1.37,1-3.44.61-4.85-.21-.75-3.1-3.57-3.89-2.6a10.31,10.31,0,0,0-1.36,2.56c-.17.42-.4,1.45-.86,1.64l3.75,3a6.65,6.65,0,0,1,.34-1.8c.19-1.05.37-2.1.53-3.15S32.87,12,32.24,13c-.8,1.2-1.22,2.65-2.12,3.78l4,2.91q.26-1.23.63-2.43a4.06,4.06,0,0,0,.36-1.74c-.12-.9-1.09-1.69-1.77-2.18-.41-.3-1.67-1.26-2.19-.74a11.93,11.93,0,0,0-1.74,2.08,9.91,9.91,0,0,1-1.32,1.94l3.89,3.14c.39-1.13,1.2-2.58.72-3.75-.24-.59-3.27-3.69-3.89-2.6-.4.72-.81,1.44-1.27,2.12a8.89,8.89,0,0,0-1.16,1.84c-.52,1.46,1.77,3,2.88,3.53C31.73,22,34.65,22.2,37.29,23A19.63,19.63,0,0,1,41,24.32a19.84,19.84,0,0,0,3.92,2c1.67.49,2-.55,2.82-1.78.48-.77.91-1.55,1.44-2.28a9.11,9.11,0,0,1,1.1-1.54l-4-2.91a19.38,19.38,0,0,1-.56,6.78,41.18,41.18,0,0,1-2.52,6.46,27.88,27.88,0,0,0-1.63,5.83c-.41,2-1.14,4.24.06,6,.55.83,2.55,2.92,3.69,2.23a5.12,5.12,0,0,0,1.53-2.34c.53-1.12,1-2.26,1.39-3.42a65.1,65.1,0,0,0,1.82-6.27c.6-2.36,1.15-4.75,1.92-7.06.58-1.71,1.24-3.81,2.8-4.9l-3.37-1.81c-.37-.47.14.65.2.81.13.38.31.75.42,1.14a5.78,5.78,0,0,1,0,2.92,59.56,59.56,0,0,1-2,6c-.62,1.87-1.19,3.75-1.73,5.64A25,25,0,0,0,47.07,42c0,1,3.61,3.84,4,2.91,1.39-3.61,2.46-7.31,3.75-10.95.65-1.84,1.29-3.67,2-5.49.61-1.62,1.16-3.5,2.7-4.47l-3-1.37c-.83-.8-.46-.07-.48.52a9.86,9.86,0,0,1-.16,1.33c-.16.82-.28,1.63-.41,2.46a40.23,40.23,0,0,1-1.5,5.93c-1.29,3.86-2.54,7.75-3.66,11.65-.33,1.14,3.67,3.67,4,2.92,1.63-4.34,3.43-8.6,4.85-13,.7-2.16,1.35-4.35,1.84-6.56.12-.54.23-1.08.32-1.63a5.79,5.79,0,0,1,.25-1.68c.44-.69,1.83-.13,2.49,0L62.59,24l.19.13L61,22.39l.13.24L60.88,22a9,9,0,0,1-.48,3.12c-.32,1.2-.61,2.41-.95,3.6a40.66,40.66,0,0,0-1.19,6.65,53.77,53.77,0,0,1-.86,6.47c-.51,2.29-1.12,4.58-1.72,6.84C54.52,53,52.51,57,50.63,61c-.84,1.83-1.34,3.87-2.31,5.63a19.1,19.1,0,0,0-2.13,5.8l2,.31c1.44.87.39.24,0-.08a12.29,12.29,0,0,0-1.11-.78,14.67,14.67,0,0,0-1.3-.68c.54.27-.53-.34-.61-.38l-.48-.22c-.53-.24-.4-.14.37.3-.15-.31-1.07-.75-1.33-.9-.6-.34-1.22-.72-1.83-1a15.88,15.88,0,0,0-4.38-1.4c-1.85-.29-3.64-.76-5.48-1.08-.87-.15-1.76-.11-2.64-.26-.72-.12-1.41-.38-2.13-.52-1.44-.28-2.95-.14-4.41-.4s-3.27-.39-4.9-.57a19.9,19.9,0,0,0-2.56-.07h-1.1a9.49,9.49,0,0,1-1,.13l2.43,1.48-.15-.16.93,1.23c-.34-1.18.32-2.73.4-3.93a21.55,21.55,0,0,1,.49-5.09,88.78,88.78,0,0,0,2.09-9c.68-3.23,1.47-6.47,2.43-9.63.46-1.51,1-3,1.36-4.56a38.14,38.14,0,0,1,1.18-4.59C25,29,25.7,27.5,26.2,25.89c.22-.7.51-1.39.71-2.1a24.33,24.33,0,0,1,.49-2.49,23.92,23.92,0,0,1,2-3.78,16.26,16.26,0,0,0,1.05-2c.13-.33.27-1.14.6-1.32s1.56.41,2,.44a14.79,14.79,0,0,1,1.87.18,23.68,23.68,0,0,1,5,1.15c1.42.58,2.9,1,4.31,1.57,1.57.66,3.09,1.42,4.69,2s3.39.9,5,1.59A12.89,12.89,0,0,0,56,21.7a17.14,17.14,0,0,0,2.82.63,9.22,9.22,0,0,1,4.66,1.06,9.38,9.38,0,0,0,.85.54,5.62,5.62,0,0,0,.78.38c-.56-.4-.5-.36.16.13a9.5,9.5,0,0,0,2.74,1.22l-1.93-1,.18.14-1.42-1.67a5.74,5.74,0,0,1-.11,2.29,13,13,0,0,1-.92,2.89A53.38,53.38,0,0,0,62,33.32a53.15,53.15,0,0,1-1.67,6.21,30.5,30.5,0,0,0-1.3,5.31c-.22,1.09-.31,2.21-.63,3.28s-.64,2-1,3.06c-.59,1.9-1.3,3.7-2.05,5.54s-1,3.57-1.6,5.33A42.2,42.2,0,0,1,51.76,67a45.49,45.49,0,0,0-1.46,4.65,15.7,15.7,0,0,0-.82,2.87c-.07.44.19,2-.16,2.3h.93c.63.37.76.43.4.18q0-.35-.54-.42l-.81-.48c.56.37.61.39.16,0a16.59,16.59,0,0,0-3-2c-.9-.46-1.85-.89-2.78-1.29A16,16,0,0,0,41,72.16l1.4.65c-1.09-.78-2.15-.74-3.31-1.21-.08,0-1-.5-1.11-.43.2-.1,1.32.64,0-.07-.64-.33-1.3-.52-2-.79-2.73-1.1-5.6-1.43-8.42-2.19a17,17,0,0,0-4-.58A41.61,41.61,0,0,1,18.53,67c-1.34-.2-2.69-.48-4-.61-.61-.06-1.25-.17-1.86-.19a6.3,6.3,0,0,0-1.15.1c-.45.06-.9-.11-.16.28l2.28,2-.12-.21.28.68c-.24-1.85.54-3.8.87-5.61.38-2.12.53-4.29,1-6.39.45-1.79.64-3.59,1-5.38.23-1,.38-2,.56-3.05s.45-2.06.7-3.12c.83-3.61,1.69-7.2,2.36-10.83a33.59,33.59,0,0,1,1.69-5c.31-.85.42-1.76.68-2.62a17.25,17.25,0,0,1,1.29-3c.44-.84,1-1.58,1.39-2.44s1-1.91,1.44-2.88c.91-2.07,1.4-4.35,3.09-6,.74-.71-2.93-4.05-3.89-3.14Z"/></g><g class="cls-1"><path class="cls-2" d="M16.1,64.2v.09c-.2,2.28,3.65,4.15,4.59,1.58.69-1.9,1-3.94,1.55-5.88s1.17-3.78,1.67-5.71.87-3.73,1.45-5.59c.64-2,1.62-3.82,1.34-6a2.59,2.59,0,0,0-4.27-1.5,10.92,10.92,0,0,0-2,3.77,32.8,32.8,0,0,0-1.71,4.91c-.37,1.46-.7,2.94-1.09,4.39-.19.72-.42,1.41-.57,2.14A4.58,4.58,0,0,1,16.66,58l4.28,1.5a16.38,16.38,0,0,1,.6-4.9,41.37,41.37,0,0,1,1.54-5.35c.6-1.72,1.24-3.45,1.9-5.16.34-.86.56-1.74.82-2.63.14-.45.29-.91.41-1.37l.18-.78c.07-.41.05-.36-.08.14L22,37.92c-.06-.47-.17.62-.18.67-.08.46-.11.92-.15,1.38-.08.78-.21,1.55-.3,2.33-.19,1.73-.4,3.5-.5,5.24-.21,3.57-.19,7.13-.3,10.7-.09,2.67,4.32,4.11,4.71,1a68,68,0,0,1,1.75-9.06q.6-2.18,1.32-4.32c.24-.74.51-1.47.74-2.22A9.07,9.07,0,0,1,29.66,42l-4.27-1.5c.09-.46.1-.56,0-.32l-.15.67a8.76,8.76,0,0,0-.1,1c-.05.8-.07,1.61-.13,2.41-.14,1.67-.31,3.33-.43,5-.24,3.4-.82,6.76-1.05,10.17l4.72,1a39.45,39.45,0,0,1,1.31-8c.32-1.34.69-2.68,1.07-4l.57-2a5.24,5.24,0,0,0,.24-.86c0-.16.22-.49,0-.16l-4.31-2.09c-.15,1.42-.51,2.83-.75,4.24-.26,1.59-.56,3.18-.86,4.77-.58,3-1.39,6.1-1.7,9.16-.27,2.71,4.24,4,4.72,1,.11-.64,0-1.31.11-2,.12-.9.28-1.8.46-2.69.38-1.93.9-3.84,1.44-5.73.35-1.21.76-2.39,1.2-3.56.17-.44.35-.88.53-1.32.1-.21.2-.42.29-.64.24-.52,0,0-.28.22l-1.1.33h0l-2.78-2.8c-.05,2.82-.47,5.66-.8,8.46s-.58,5.62-1,8.41l4.72,1c.33-5.32,1.34-11.1,3.89-15.84l-4.37-.43c-.19-.55-.3.65-.35.91-.13.69-.21,1.38-.31,2.07-.2,1.54-.38,3.07-.63,4.6s-.5,2.83-.75,4.24c-.13.71-.25,1.42-.37,2.13a15.47,15.47,0,0,1-.22,1.81l4.59,1.58a68.06,68.06,0,0,1,4.62-16.5l-4.57-1a4.68,4.68,0,0,1-.11,1.7c-.06.62-.15,1.23-.24,1.84-.21,1.42-.48,2.83-.72,4.24a56.63,56.63,0,0,1-1.43,7.65L35,62.91a48.81,48.81,0,0,1,1.69-8.19c.34-1.24.76-2.47,1.22-3.67.22-.59.46-1.17.67-1.75A7,7,0,0,0,39,48.13a1.11,1.11,0,0,0,.05-.57q0-.63,0,.09l-.71.89-.16.1-3.36-2.71a55.13,55.13,0,0,1-1,8.48c-.35,2.49-1.09,5.08-.87,7.6.17,2,3.88,3.32,4.56,1,1.61-5.46,2.39-11.3,4.7-16.53l-4.56-1a25.71,25.71,0,0,1-.4,4.54c-.19,1.54-.42,3.08-.65,4.62-.45,3-.67,6-1.1,9-.39,2.69,4.24,4,4.72,1a142.39,142.39,0,0,1,4.59-20.31l-4.57-1c.2,1.39-.39,3.12-.61,4.49-.29,1.77-.55,3.54-.81,5.31s-.46,3.33-.81,5A42.09,42.09,0,0,0,37.39,63c-.26,2.74,4.07,4,4.72,1,.79-3.64,1.4-7.28,2.39-10.89a54.72,54.72,0,0,1,1.68-5.32c.31-.81.68-1.6,1-2.41a5.09,5.09,0,0,1,.95-1.85l-3.29.1.18.18-1-1.6c.36,1.19-.41,3.52-.62,4.95-.29,2.07-.75,4.1-1.13,6.16s-.68,3.95-1.11,5.91c-.21,1-.38,1.92-.52,2.89a7.38,7.38,0,0,0-.26,2.47,2.86,2.86,0,0,0,2.15,2.17c.86.18,2.19-.17,2.41-1.17.47-2,.66-4.13,1.07-6.19s.84-3.9,1.29-5.84a56.73,56.73,0,0,1,1.48-5.77c.29-.87.58-1.75.9-2.62.14-.38.33-.74.49-1.12a3.66,3.66,0,0,0,.18-.46c.08-.3.11-.34.1-.12L46.17,42a20.11,20.11,0,0,1-.75,5.54c-.38,2-.85,3.9-1.39,5.83s-.91,3.92-1.36,5.88-.94,3.69-1.25,5.59,2.36,3.66,3.88,2.47a3,3,0,0,0,1.09-1.8c0,.07.37-1.52.18-.82.13-.46.29-.9.4-1.36.55-2.26,1.09-4.52,1.67-6.78s1.19-4.22,1.94-6.3c.36-1,.69-2.06,1.08-3.06.18-.44.41-.85.61-1.28.07-.16.47-.73.23-.48l-4.27-1.5a10.73,10.73,0,0,1-.35,2.56c-.12.9-.26,1.81-.41,2.71-.31,1.94-.6,3.91-1,5.83s-.91,3.54-1.25,5.34a32.69,32.69,0,0,1-1,5.32l4.6,1.58a33,33,0,0,1,.84-4.9c.33-1.84.66-3.68,1-5.52s1-3.54,1.47-5.3c.22-.83.44-1.66.73-2.47a4.21,4.21,0,0,1,.36-.91c0-.09.53-.49.26-.33l-1.1.33h.08l-1.77-.62,0,.06-.79-1-.11-.33c0,.2,0,.22,0,.07s0,.2,0,.33c0,.46-.3.87,0,.15l4.59,1.58V48.3a2.79,2.79,0,0,0-2.18-2.74,2,2,0,0,0-2.53,1.72A78.54,78.54,0,0,1,48.38,58.6c-.32,1.76-.71,3.5-1,5.27-.25,1.46-.62,2.87-.12,4.3s3,2.35,4.09.92.94-3.31,1.31-4.84c.44-1.85.89-3.69,1.33-5.54.73-3.12,1.26-6.64,2.89-9.46l-4.57-1,0,.31.09-1.14a62.89,62.89,0,0,1-2.74,8.47c-.55,1.43-1.08,2.87-1.69,4.27a16.65,16.65,0,0,1-1.39,3.27l1-.63-.19.09,1.18,0-.22,0,1.17.56c.2.16-.06,0-.11-.11a3.65,3.65,0,0,0-.79-.68,7.62,7.62,0,0,0-2-1A11.93,11.93,0,0,0,42.8,61a49,49,0,0,1-7.93-.74,42.21,42.21,0,0,0-7.82-1c-1.91,0-5,.07-6.42,1.58-.89,1-.25,2.51.6,3.24a8.66,8.66,0,0,0,4.54,1.74c1.88.24,3.78.4,5.67.57a35.9,35.9,0,0,1,5.08.57c.42.09.84.21,1.25.32,0,0,.7.17.37.1.58.12.57.71-.22-.34l-.51-1.12V66l1.33-2.27c-1.11.46-2.69-.27-3.77-.61-1.51-.46-3-1-4.48-1.59s-3-1.12-4.46-1.63c-1.33-.45-2.73-.87-4-1.38a2.18,2.18,0,0,0-3,1,2.59,2.59,0,0,0,1.45,3.1c2.75,1.23,5.38,2.7,8.07,4.06s5.21,2.49,7.66,4l1.56-4c-1.27-.46-2.44-1.24-3.67-1.81s-2.6-1.15-3.94-1.65-2.87-1-4.32-1.51c-1.27-.43-2.67-.65-3.91-1.11a2.2,2.2,0,0,0-2.87.71,2.36,2.36,0,0,0,.74,3,36.49,36.49,0,0,0,6.33,3.12c1.09.47,2.15,1,3.26,1.44.61.23,1.22.45,1.85.65.42.13,1,.14,1.34.28a2.19,2.19,0,0,0,2.87-.7,2.41,2.41,0,0,0-.74-3,12,12,0,0,0-2.85-1.45c-1.26-.53-2.55-1-3.83-1.41A36.47,36.47,0,0,0,24,62c-1.21-.27-2.46-.38-3.65-.72a2,2,0,0,0-2.48,1.45,2.63,2.63,0,0,0,1.52,2.81c2.37,1.1,5,1.5,7.54,2.19s5.12,1.2,7.71,1.74a44,44,0,0,1,7,2c1.11.44,2.22.89,3.3,1.41a15.06,15.06,0,0,0,3.33,1.5c1.3.27,3-.77,2.51-2.3-.63-2-2.33-3.17-4-4.29s-3.64-2.56-5.58-3.65l-.36,4.32.25,0-1.77-.63a20.62,20.62,0,0,0,5.44,2.75A2.2,2.2,0,0,0,47.67,70a2.39,2.39,0,0,0-.74-3A24.12,24.12,0,0,0,42,63.76a2.17,2.17,0,0,0-3,1c-.51,1.29.41,2.46,1.45,3.09a14.79,14.79,0,0,1,1.73,1.53,15.53,15.53,0,0,0,2.61,1.8l-.74-4-.1.06L45,66.89c.36,0,.47.18.17,0A3.58,3.58,0,0,0,44,66.41a14.78,14.78,0,0,0-2.9-.29l1.2.26a3.12,3.12,0,0,0-4.2,1.9c-.67,1.53.06,3.46.71,4.83l1.14-2.84c.9-.3.52.06.18-.16-.19-.12-.39-.21-.58-.33.5.33.15,0,0-.38a9.18,9.18,0,0,1-.23-1,30.68,30.68,0,0,1-.39-5,92.57,92.57,0,0,1,.67-10.78c.17-1.67.55-3.58,0-5.19a11,11,0,0,0-3.2-4.07c-1.19-1.08-2.55-2-3.74-3s-2.81-1.89-4.06-3a2.48,2.48,0,0,0-2.86-.29,2.12,2.12,0,0,0-.63,2.6c.4,1.23,1.74,1.82,2.78,2.38,1.28.68,2.51,1.39,3.82,2a2.18,2.18,0,0,0,3-1A2.63,2.63,0,0,0,33.25,40h0L31.69,44c1,.49,2.09,1,3.15,1.42,1.49.62,3.5,1.6,4.83.15,1.11-1.2,0-3-1.16-3.59-1.75-.91-3.57-1.65-5.38-2.44a33.29,33.29,0,0,0-5.23-2.29c-2.78-.7-3.35,3.31-.95,4.26a41.46,41.46,0,0,0,6.47,1.92c2.09.47,4.1,1.17,6.19,1.65l-.25-4.52a13.52,13.52,0,0,1-2.82-.87c-1-.32-2-.62-2.95-1a31.33,31.33,0,0,1-3.21-1.38c-.83-.45-1.57-1.1-2.42-1.47l-1,4.26a62.8,62.8,0,0,1,7,2.07c2.19.83,4.47,1.61,6.6,2.56l.35-4.31a8.37,8.37,0,0,1-2.29-.69c-1-.36-2.07-.7-3.08-1.11a61.92,61.92,0,0,1-6.64-3l.74,4,.14-.07-1.1.33a1.57,1.57,0,0,1,.6.12c.41.11.8.27,1.21.4,1,.33,2,.6,3,1,2.31.84,4.51,2,6.83,2.74a2,2,0,0,0,2.41-1.16,2.51,2.51,0,0,0-.89-2.74c-2.41-1.92-5.7-3.1-8.55-4.17a2.2,2.2,0,0,0-2.87.7,2.39,2.39,0,0,0,.75,3,18.33,18.33,0,0,0,4.29,1.84c.61.23,1.27.4,1.86.67.35.16.66.39,1,.54L39,43c-.27-.11-.28-.09,0,0l-1.36-1.38.1.17.2-2.22-.16.18L39.24,39a18.07,18.07,0,0,1-2.07-.2c-.79-.06-1.57-.16-2.36-.26-1.58-.19-3.18-.38-4.77-.47a30.71,30.71,0,0,1-4.36-.71,9,9,0,0,1-1.93-.51,6.62,6.62,0,0,1-1.19-.57c-.87-1.52-3.5-2.53-4.38-.42a2.78,2.78,0,0,0-.18,1c0,.15,0,1.28,0,.76,0,1,0,1.91,0,2.86a46.47,46.47,0,0,1-.27,6.24c-.28,2.13-.68,4.24-1.08,6.35-.18,1-.38,2-.54,3a18.39,18.39,0,0,1-.34,2.58l3-1-.11-.07L20.08,59c.2.38,0-.1,0-.29s0-.38-.07-.56A8.24,8.24,0,0,1,20,56.26L20.21,54c0-.45.06-.9.08-1.35,0-.18.18-1.08-.15-.52l-4.31-2.08a22.61,22.61,0,0,1-.44,2.41c-.15.9-.32,1.8-.47,2.7a21.62,21.62,0,0,1-1.21,5.08c-1,2.28,2.54,4.5,4.18,2.64l.07-.08c1.85-2.11-2-5.25-3.89-3.14l-.08.08,4.18,2.64a23.41,23.41,0,0,0,1.41-5.77c.13-.9.31-1.78.46-2.67a26.17,26.17,0,0,0,.51-2.87A2.75,2.75,0,0,0,19,48.54c-.79-.37-2.2-.41-2.73.46a6.61,6.61,0,0,0-.7,3.31c-.08,1.25-.19,2.49-.3,3.74-.19,2.12.1,4.52,2,5.72a2.14,2.14,0,0,0,3-1,49.5,49.5,0,0,0,.9-5.47c.41-2.2.83-4.4,1.17-6.61a39.38,39.38,0,0,0,.4-6c0-1,0-2,0-3.07,0-.37,0-.74,0-1.11s0-.54-.05-.81a.45.45,0,0,1-.05.34l-4.38-.42a8.3,8.3,0,0,0,4.66,3.61,25.42,25.42,0,0,0,6.67,1.4c2,.12,4,.33,6,.56,1.09.13,2.18.17,3.27.3s2,.2,2.88-.77A2.06,2.06,0,0,0,42,40.5a3.83,3.83,0,0,0-1.86-1.74c-.68-.28-1.3-.67-2.12-.94s-1.5-.55-2.25-.82a9,9,0,0,1-1.85-.64l-2.13,3.7c1.45.54,2.87,1.11,4.26,1.79.63.31,1.26.61,1.88.94l.92.52c.09,0,.65.44.36.2l1.53-3.9c-1.24-.41-2.45-1.08-3.66-1.56s-2.73-1.06-4.12-1.5c-1.92-.62-4.35-1.87-6.31-.86s-.47,3.3.74,4,2.49,1.14,3.73,1.71,2.48,1.16,3.76,1.63c2.11.79,4.64,2,6.93,2,2.6,0,2.26-3.46.35-4.32-2.25-1-4.67-1.86-7-2.71a75.38,75.38,0,0,0-7.77-2.33c-2.81-.7-3.3,3.24-1,4.25-.22-.09,0,0,.13.06l.94.61a20.06,20.06,0,0,0,1.74,1c1.17.58,2.41,1,3.62,1.5a27.38,27.38,0,0,0,7.38,2.09,1.93,1.93,0,0,0,1.92-2.07A2.77,2.77,0,0,0,40,40.64c-1.93-.45-3.8-1.11-5.73-1.55a37.77,37.77,0,0,1-5.73-1.61l-.95,4.25c1.52.38,3,1.44,4.44,2.06,1.67.72,3.35,1.42,5,2.26l-1.17-3.59,0,0,1-.62a1.83,1.83,0,0,1,.87,0l-.27-.07c-.24-.07-.2-.06.11,0L37,41.64,35.42,41c-.73-.32-1.45-.66-2.17-1a2.18,2.18,0,0,0-3,1A2.62,2.62,0,0,0,31.69,44h0L33.25,40c-1-.47-2-1-3-1.52l-1-.56c-.83-.43-.06-.12.13.46l-3.49,2.32A25.71,25.71,0,0,0,30,43.53l-1-.83a42.35,42.35,0,0,0,4,3.4,14.82,14.82,0,0,1,1.57,1.5,1.44,1.44,0,0,1,.47,1.53c-.39,3.36-.7,6.78-.82,10.17S34,66.54,35,69.84a6.1,6.1,0,0,0,2.73,3.85c1.15.7,2.85,1.42,4.21,1a2,2,0,0,0,1.14-2.84,8.85,8.85,0,0,1-.47-.84,1.31,1.31,0,0,0,0-.55c-.27-.48,0,.48-.07.13,0-.08.33-.31.3-.29l-2.3.07c1,.45,2.16.28,3.21.6,1.2.35,2.14.86,3.35.14,1.72-1,.56-3.26-.74-4-1.6-.88-2.77-2.38-4.34-3.33l-1.56,4.05a18.72,18.72,0,0,1,3.8,2.49l2.12-3.69a28.33,28.33,0,0,1-3.18-1.43A7.68,7.68,0,0,0,40,63.94a2,2,0,0,0-1.93,1.78,2.77,2.77,0,0,0,1.58,2.53C41,69,42.26,70,43.56,70.82a11.4,11.4,0,0,1,3.07,2.29L46.12,72l.08.29L48.71,70a6.25,6.25,0,0,1-1-.54l-1.49-.73c-1.09-.51-2.22-1-3.35-1.4a49.81,49.81,0,0,0-7.37-2.17c-2.41-.52-4.84-.92-7.23-1.58s-5-1-7.27-2l-1,4.26c2.14.59,4.37.74,6.5,1.43,1.05.34,2.09.71,3.12,1.12.56.23,1.1.49,1.65.73.13.06.94.46.7.27l2.12-3.7c-1-.36-2-.5-3-.85s-2.06-.88-3.08-1.35-2-.85-3-1.34c-.53-.26-1-.55-1.57-.82-.2-.1-1.07-.44-1-.41l-2.12,3.69c1.38.51,2.84.76,4.24,1.23s2.67.89,4,1.39,2.65,1,3.94,1.65,2.4,1.35,3.67,1.81c1.11.41,2.52.32,3-1s-.43-2.45-1.46-3.1c-2.45-1.53-5.08-2.72-7.66-4S24.76,59.74,22,58.51l-1.56,4.05c1.58.62,3.23,1.1,4.84,1.66s3.31,1.22,5,1.84,3.63,1.34,5.49,1.84c1.61.44,3.39.88,5,.21a2,2,0,0,0,1.33-2.26c-.35-2.83-5-3.48-7.24-3.71-1.94-.2-3.9-.32-5.84-.51-1-.1-1.92-.18-2.87-.3a4.5,4.5,0,0,1-2.21-.62l.6,3.24c-.47.52-.24.24.09.18s.85-.11,1.27-.16a15.47,15.47,0,0,1,3.19-.12c2.14.2,4.26.66,6.37,1a37.91,37.91,0,0,0,6.28.66,22.16,22.16,0,0,1,3.05.1A7.7,7.7,0,0,0,46,66c.25.16.25.1,0-.17a5.31,5.31,0,0,0,.65.69c1.73,1.5,3.8.78,4.62-1.2.75-1.78,1.5-3.57,2.2-5.37.77-2,1.59-4,2.26-6,.57-1.74,1.48-4,1.28-5.85a2.49,2.49,0,0,0-4.56-1c-1.55,2.68-2.08,6-2.78,9q-.62,2.65-1.26,5.3c-.22.89-.44,1.79-.63,2.69-.1.47-.2.94-.29,1.42-.05.28-.38,1,0,.46l4.09.92c.27.76.19.24.25-.16l.12-.68c.13-.84.26-1.68.42-2.52.31-1.62.66-3.24.93-4.87A78.21,78.21,0,0,0,54.42,48.3l-4.71-1v0c0,2.31,3.36,4.09,4.59,1.58.8-1.62.05-4.33-1.54-5.09-3-1.45-4.41,2.76-5,4.86-.8,3-1.66,5.85-2.2,8.88-.28,1.56-.55,3.12-.84,4.68a27.07,27.07,0,0,0-.67,4c-.06,2.23,3.59,4.22,4.59,1.59a34.41,34.41,0,0,0,1.19-6c.37-2,1-3.84,1.34-5.79s.71-4,1-6.07.92-4.2.65-6.2-2.93-3-4.27-1.5C47.51,43.44,47,45.49,46.5,47c-.73,2.06-1.48,4.12-2,6.24s-1.15,4.35-1.66,6.53c-.22,1-.49,1.94-.74,2.9a5.82,5.82,0,0,1-.43,1.53l.71-.88-.09.07,3.88,2.47c.64-3.93,1.71-7.86,2.73-11.72.53-2,1-4,1.36-6a22,22,0,0,0,.6-6.25,2.6,2.6,0,0,0-4.28-1.5,6.14,6.14,0,0,0-1,2c-.36.8-.6,1.65-.89,2.48a54.74,54.74,0,0,0-1.68,6.18c-.48,2.07-1,4.15-1.41,6.24s-.59,4.21-1.05,6.26l4.56,1q-.07.7,0,.18a9,9,0,0,0,.21-1c.08-.47.15-.94.23-1.41.17-1,.39-2,.6-3,.47-2.23.78-4.49,1.24-6.72.43-2.08.71-4.17,1.09-6.26s.8-4.23-.92-5.92a2.37,2.37,0,0,0-3.29.1C43.07,41.6,42.59,43.47,42,45A50.63,50.63,0,0,0,40,51c-1.1,4-1.78,8-2.65,12l4.72,1a46.21,46.21,0,0,1,.62-5.09c.36-1.73.57-3.49.83-5.24s.51-3.54.82-5.3a16.88,16.88,0,0,0,.48-5.19c-.27-1.94-3.83-3.37-4.56-1A150.63,150.63,0,0,0,35.46,63.6l4.72,1c.45-3.13.69-6.28,1.17-9.4a47,47,0,0,0,.92-9.88c-.14-2.18-3.64-3.09-4.56-1-2.32,5.23-3.1,11.07-4.71,16.53l4.56,1a12.19,12.19,0,0,1,.42-3c.24-1.3.41-2.62.59-3.93a52.59,52.59,0,0,0,.94-8,2.77,2.77,0,0,0-3.37-2.71c-1.58.26-1.87,1.84-1.79,3.17l.09-1.14c-1.81,5.07-3.64,10.2-4.16,15.61-.22,2.26,3.78,4.2,4.59,1.58a64.64,64.64,0,0,0,1.68-8.77c.25-1.49.54-3,.76-4.47.19-1.32.66-3.17.25-4.47a3,3,0,0,0-2.15-2.16A2.09,2.09,0,0,0,33,44.75a72.75,72.75,0,0,0-4.87,17.61c-.38,2.35,3.64,4.06,4.6,1.59a9.88,9.88,0,0,0,.36-2.24c.13-.86.29-1.72.44-2.58.29-1.65.61-3.3.87-5s.44-3.4.68-5.09.6-2.8.09-4.33a2.44,2.44,0,0,0-4.37-.42,34.59,34.59,0,0,0-2.73,7.72,48.8,48.8,0,0,0-1.42,9.24c-.16,2.69,4.25,4.07,4.72,1,.43-2.78.69-5.6,1-8.4s.75-5.64.8-8.46c0-1.37-1.25-3-2.79-2.8-2.48.35-3.3,4.2-4,6.27s-1.23,4.3-1.72,6.48c-.25,1.13-.48,2.26-.66,3.4-.13.85-.13,2.15-.23,2.75l4.72,1c.31-3.07,1.12-6.14,1.7-9.17.29-1.51.56-3,.82-4.53s.63-3,.79-4.47c.23-2.09-2.85-3.85-4.3-2.08-.69.83-.85,2.25-1.14,3.26-.46,1.57-.9,3.14-1.27,4.73a43.92,43.92,0,0,0-1.57,9.09,2.78,2.78,0,0,0,2.18,2.74,2,2,0,0,0,2.54-1.72c.23-3.56.82-7.08,1.08-10.64.13-1.75.33-3.49.45-5.24.05-.77,0-1.55.12-2.32a4.15,4.15,0,0,0,.1-1.92c-.49-1.58-2.92-3.31-4.27-1.5-.88,1.19-1.15,2.87-1.62,4.25-.56,1.65-1.09,3.32-1.55,5a75.19,75.19,0,0,0-2,10.17l4.71,1c.13-3.71.05-7.42.33-11.13.14-1.75.3-3.55.54-5.29.12-.92.19-1.85.32-2.77a7.73,7.73,0,0,0,.18-2.3,2.59,2.59,0,0,0-4.27-1.5,4.19,4.19,0,0,0-.82,2.1c-.3,1-.55,2.11-.91,3.13-.7,2-1.54,4-2.23,6a46.61,46.61,0,0,0-1.68,6.26,18.83,18.83,0,0,0-.5,5.84c.26,1.84,3,3,4.28,1.5.92-1.12.91-2.63,1.28-4s.77-2.81,1.11-4.23a33.42,33.42,0,0,1,1.56-5c.47-1.15.88-2.75,1.81-3.62l-4.27-1.5A5,5,0,0,1,21.4,45c-.32.86-.58,1.75-.85,2.63C20,49.42,19.71,51.23,19.2,53s-1.05,3.53-1.56,5.31-.78,3.67-1.42,5.42l4.59,1.58v-.08c.23-2.71-4.46-4.08-4.72-1Z"/></g><g class="cls-3"><path class="cls-4" d="M31.8,24.59v-.1l-3.37-2,0,.08-.34-.93c0-.3-.39.52-.45.66a12,12,0,0,1-.55,1.22,6.38,6.38,0,0,0-.49,1.77,6.6,6.6,0,0,1-.24,1.41,22.94,22.94,0,0,0-1.18,2.86c-.14.53-.43,1-.54,1.56,0,.22,0,.48,0,.68s-.26.42-.3.71c-.21,1.53,1.65,3.18,3,3.43a15.54,15.54,0,0,0,1.93,0,8.89,8.89,0,0,1,1.76.37s.81.19.49.09.36.26.53.35a3.92,3.92,0,0,0,.58.29c.67.28,1.23.41,1.83.68a25.15,25.15,0,0,0,4.07,1.33c.88.23,2.4,1,3.23.32s1-2.28,1.21-3.18c.18-.63.43-1.25.65-1.87s.24-1.22.4-1.84A15.19,15.19,0,0,0,45,28.65c0-1.94-2.09-3.57-3.9-3.58a7.2,7.2,0,0,1-1.6-.24,20.82,20.82,0,0,0-2.24-.32,1.82,1.82,0,0,0-.52,0c-.3.05.29.18.12,0a3.64,3.64,0,0,0-1.11-.47,4.71,4.71,0,0,1-.73-.31l-.62-.29s-.69-.31-.43-.16l1,.78a6.48,6.48,0,0,0-1.24-1,2.37,2.37,0,0,0-.93-.34c-.29-.07-.29-.05,0,.07a8.22,8.22,0,0,0-2.11-.72c-1.41-.05-2.07,1.17-2.54,2.31a32,32,0,0,0-1.12,4,6.49,6.49,0,0,0-.52,1.83c0,.74.05,1.48,0,2.23s1,1.9,1.62,2.37,1.52,1.05,2.09.51A4.47,4.47,0,0,0,31,34c.35-.75.66-1.51,1-2.25s.73-1.43,1.1-2.14c.23-.43.41-1.2.84-1.48l-3.71-2.89a23.31,23.31,0,0,1-.48,3.62,19.7,19.7,0,0,0-.28,4l3.88,2.22a13.88,13.88,0,0,1,1-4.23c.22-.66.41-1.32.58-2a5.27,5.27,0,0,1,.33-1.12l-3.68-3.25c-.21,1.59-.66,3.13-1,4.7-.15.74-.11,1.5-.27,2.24a3.94,3.94,0,0,0-.24,1.73A4.23,4.23,0,0,0,32,35.66c.57.38,1.59.91,2,.06A33.49,33.49,0,0,0,35.21,32c.22-.66.42-1.33.61-2A7,7,0,0,0,36,29l-3.42-3c.27,1.22-.17,2.39-.16,3.61,0,1.51-.14,3-.13,4.52l3.88,2.23a5,5,0,0,1,.35-1.54c.16-.61.29-1.23.44-1.85a17,17,0,0,1,1.19-3.83l-3.87-2.6a57.83,57.83,0,0,1,.2,7.79l3.88,2.22A10.52,10.52,0,0,1,38.67,35c.07-.55.12-1.11.22-1.66s.25-1.1.39-1.64a5,5,0,0,1,.31-1.3L35.88,27.5a5.86,5.86,0,0,1,0,1.51v2a12.92,12.92,0,0,0,.15,3.68,4.45,4.45,0,0,0,2,2.27c.42.24,1.58.69,1.74-.11.25-1.29.53-2.57.88-3.84a14.76,14.76,0,0,1,.55-1.58c.08-.19.26-.62.27-.62l-3.43-3a18.87,18.87,0,0,1-.19,3.17,22.61,22.61,0,0,1-.26,2.61A3.19,3.19,0,0,0,39,36.06c.43.38,1.76,1.41,2.34.73l0,0c.65-.76-.42-2.06-.94-2.59s-1.95-1.7-2.59-.94l0,0,3.68,3.26a28.11,28.11,0,0,0,.29-3A20.44,20.44,0,0,0,42,30a3.74,3.74,0,0,0-1.37-2.15c-.5-.44-1.32-1.07-2.05-.88-.9.22-1.29,1.76-1.54,2.52a41.17,41.17,0,0,0-1,4.39L39.72,36c.15.49.07-.22.07-.37s0-.61,0-.91c0-.6,0-1.21,0-1.82a14.78,14.78,0,0,0,0-3.19,4.3,4.3,0,0,0-1.62-2.37c-.36-.28-1.69-1.15-2.09-.51a10.51,10.51,0,0,0-1,3.51c-.12.65-.17,1.3-.27,2a11.19,11.19,0,0,0-.27,2c0,1.09,1.24,2.22,2.12,2.71.71.4,1.76.62,1.76-.49a57.73,57.73,0,0,0-.2-7.78c-.14-1.07-2.92-4.38-3.86-2.6a18.1,18.1,0,0,0-1.25,4.11,12.66,12.66,0,0,0-.76,3.85,4.06,4.06,0,0,0,2.12,2.72c.71.4,1.76.62,1.76-.49,0-1.48,0-3,.13-4.47a13.67,13.67,0,0,0,.16-3.67,4.06,4.06,0,0,0-1.37-2.15c-.4-.35-1.45-1.2-2.06-.88-1.07.55-1.17,2.21-1.5,3.26a33.36,33.36,0,0,1-1.4,4.31L34,35.34c-.09-.37.19-.88.25-1.27a21.32,21.32,0,0,1,.3-2.25,34.73,34.73,0,0,0,.92-4.4,3.21,3.21,0,0,0-1.35-2.53c-.42-.37-1.78-1.41-2.34-.73a3.75,3.75,0,0,0-.6,1.49c-.18.74-.39,1.47-.62,2.2a15.75,15.75,0,0,0-1.08,5c0,1.08,1.26,2.22,2.12,2.71.71.4,1.77.62,1.76-.49,0-2.57.68-5,.76-7.6,0-1.26-2.43-3.76-3.71-2.88-.43.29-.6.95-.82,1.4-.35.76-.76,1.49-1.14,2.24s-.66,1.43-1,2.15a5,5,0,0,1-.8,1.51l3.71,2.88c0-.57,0-1.16,0-1.73a2.43,2.43,0,0,1,.34-1.21c.39-1,.42-2.09.77-3.1a5.56,5.56,0,0,1,1.21-2.54.56.56,0,0,1,.42-.14c.28,0,.57.3.84.39a5.76,5.76,0,0,0,1,.22L33.55,26c-.35-.32-.35-.33,0,0a3.47,3.47,0,0,0,.76.56,4.6,4.6,0,0,0,.63.31c.44.18.86.36,1.3.57.24.11.47.22.72.31a3.23,3.23,0,0,0,.38.12,6,6,0,0,0,1.47.55,24.38,24.38,0,0,1,2.43.25c.53.12,1.06.25,1.6.33a3.32,3.32,0,0,0,.55,0h.38c.3,0,.25,0-.17-.06l-1.93-1.51.08.11-.67-1.44a4.14,4.14,0,0,1-.23,1.42c-.14.53-.26,1.07-.43,1.59-.29,1-.43,1.92-.77,2.87s-.61,2.14-1,3.2c0,.11-.29.76-.18.65a4.44,4.44,0,0,1-.71-.21c-1.12-.33-2.24-.61-3.34-1a15.72,15.72,0,0,1-1.58-.64,6.25,6.25,0,0,0-.6-.24c-.27-.08-.89-.38-.48-.06s-.28-.23-.49-.35a5.57,5.57,0,0,0-1-.42,14.7,14.7,0,0,0-1.87-.5,7.76,7.76,0,0,0-1.6-.27,9.2,9.2,0,0,1-1.66,0l3,3.43c0-.29.26-.48.32-.76s0-.44,0-.63a18.09,18.09,0,0,1,.62-1.84,16.45,16.45,0,0,1,.69-1.76,5.53,5.53,0,0,0,.54-1.28c.09-.6.16-1.2.28-1.8a10.23,10.23,0,0,1,.72-1.62c.39-1.06,1-1.8.25-2.94a5.23,5.23,0,0,0-1.78-1.78c-.35-.2-1.24-.63-1.59-.17a1.4,1.4,0,0,0-.32.67c-.16,1.07.82,2.14,1.6,2.75.38.28,2.09,1.29,2.25.22Z"/></g><g class="cls-5"><path class="cls-6" d="M26.47,37.63a4.36,4.36,0,0,1,1.72.69c.7.33,1.47.25,2.13.59a5.63,5.63,0,0,0,2.11.82c.79.08,1.57.36,2.37.46s1.51.1,2.25.23,1.28.18,1.93.34a2.5,2.5,0,0,1,.85.28,2.52,2.52,0,0,0,.79.43,8.12,8.12,0,0,1,.81.22c.15.07.66.14.72.26.2.48.68.24.92,0a2.67,2.67,0,0,0,.49-1.76,17.3,17.3,0,0,1,.32-3.51c0-.22,0-.44.07-.66-.15.44-.15.49,0,.17a4.54,4.54,0,0,0,.34-1,18.59,18.59,0,0,0,.41-1.94c.16-1.25.46-2.41.72-3.63.2-1,.71-2.15.18-3.22-.09-.18-.31-.36-.52-.27l-.25.11a2,2,0,0,0-.89,1.69c0,.31.06,1.48.67,1.22l.25-.11-.52-.27c.08-.82.05-1-.08-.54l-.07.21c-.07.24-.14.49-.19.74-.11.53-.31,1.05-.41,1.58-.23,1.23-.31,2.49-.65,3.7a13.5,13.5,0,0,0-.47,1.52c-.1.58-.16,1.18-.26,1.76s-.05,1-.14,1.56A8.76,8.76,0,0,0,42,41.37l1.41-1.8c-.27-.63-.79-.61-1.36-.83-.3-.12-.64-.11-.94-.24s-.44-.37-.72-.49A15.86,15.86,0,0,0,36,37.33a13.67,13.67,0,0,1-4.78-1.24c-.69-.37-1.42-.29-2.13-.6a5.25,5.25,0,0,0-1.95-.79c-1.08-.05-1.57,2.89-.63,2.93Z"/></g><g id="voAu1t.tif"><path d="M69,23.42l-.87-.31a17.11,17.11,0,0,1-1.82-.77c-.67-.35-1.28-.81-1.92-1.22-.43-.28-.86-.76-1.31-.79a10.82,10.82,0,0,1-2.28-.72A10.37,10.37,0,0,1,59.57,19c-.12-.06-.3,0-.45,0-.35-.05-.69-.1-1-.17a11.59,11.59,0,0,0-1.63-.36A5.59,5.59,0,0,1,54,17.64c-.11-.06-.15-.23-.17-.27a4.61,4.61,0,0,1-1-.41c-.35-.26-.61-.14-1,.06l-1-1.08-.34.51a17,17,0,0,1-1.6-.68,4.58,4.58,0,0,0-2-.88h0c-.87-.48-1.89-.51-2.79-.9-.7-.3-1.39-.64-2.06-1-.16-.09-.23-.36-.34-.54,0,0-.09,0-.1,0a.73.73,0,0,1-1.11.15c-.63-.44-1.29-.84-1.94-1.24a.54.54,0,0,0-.25-.06,1.44,1.44,0,0,1-.56-.13,1.52,1.52,0,0,0-1.36-.36c-.06,0-.16-.12-.29-.23.43,0,.83.25,1.11-.23l.19.32,0-.13a3.33,3.33,0,0,1,.84.08,15.47,15.47,0,0,1,1.74.71c.41.2.76.53,1.18.72a10,10,0,0,0,1.22.35,3.11,3.11,0,0,1,.61.2c.17.08.3.2.53.11s.4,0,.32.32a.48.48,0,0,0,.11.37c.08.06.25,0,.37,0a3,3,0,0,1,1.25.1,3.6,3.6,0,0,0,1.25.4c.44,0,1,0,1.26.58a.51.51,0,0,0,.24.19l1.38.59c.81.34,1.6.71,2.43,1a15.67,15.67,0,0,0,1.54.36,6,6,0,0,1,.65.27l1.16.5c.2.09.39.2.59.28A2.54,2.54,0,0,0,57,18a1.81,1.81,0,0,1,1.08.42.47.47,0,0,0,.28.09,8.17,8.17,0,0,1,1.56.05,3.84,3.84,0,0,1,1.24.4,3.05,3.05,0,0,0,.86.19l0,.33c.23-.24.4-.26.74-.1a13.25,13.25,0,0,0,2.41,1.21,2.42,2.42,0,0,1,1.08.9,1,1,0,0,0,.79.31c.05,0,.12,0,.17,0,.75.16,1.5.31,2.25.51.23.06.44,1,.35,1.38a4.28,4.28,0,0,0-.09.61c-.07.78-.12,1.57-.22,2.35s-.22,1.36-.36,2-.32,1.53-.53,2.29a28.71,28.71,0,0,1-1.16,3.9,27.85,27.85,0,0,0-1,3.15c-.15.49-.44.94-.6,1.43-.26.76-.47,1.54-.7,2.31-.08.26-.17.51-.25.77-.31,1-.63,2-.91,3.08-.16.57-.22,1.17-.38,1.74-.31,1.09-.66,2.17-1,3.26-.23.8-.41,1.62-.63,2.42-.13.45-.13.94-.57,1.27-.13.09-.08.41-.16.6-.27.66-.54,1.31-.85,2a11.06,11.06,0,0,0-1,2.42c-.18.79-.54,1.52-.65,2.34a6.84,6.84,0,0,1-.46,1.09c-.21.62-.4,1.25-.58,1.88-.09.33-.15.67-.21,1s-.14.78-.18,1.18a7.31,7.31,0,0,1-.57,2.13,11,11,0,0,0-.55,2.14,6,6,0,0,1-.63,2.21.53.53,0,0,0,0,.17c-.18,1-.36,1.91-.55,2.86a3.81,3.81,0,0,0-.15.44c0,.3-.07.6-.12.9-.1.52-.22,1-.32,1.56s-.38.75-.93.59a.47.47,0,0,0-.41.09.44.44,0,0,1-.64.1c-.83-.46-1.64-.95-2.49-1.38a6.47,6.47,0,0,0-1.18-.36c-.29-.09-.58-.2-.88-.28-.45-.13-.93-.21-1.38-.36q-1-.36-2.07-.78c-.43-.16-.84-.36-1.25-.56-.1,0-.16-.18-.25-.27.13-.09.29-.28.38-.25.59.21,1.26.09,1.79.6a3.65,3.65,0,0,0,1.28.57c.35.13.69.25,1,.35s.46,0,.68.11a6.15,6.15,0,0,1,.78.24,2.6,2.6,0,0,1,1,0c.54.21,1.17.32,1.47.93,0,.08.23.07.36.11.35.12.71.22,1.06.37s.62.33,1,.54V77.37a1.2,1.2,0,0,1,0-.27c.16-.62.32-1.23.49-1.84a.41.41,0,0,1,.11-.25c.4-.27.37-.69.4-1.1,0-.15.19-.29.33-.47a1.12,1.12,0,0,1,.1-1.31s.11-.14.09-.2c-.12-.47-.11-.88.39-1.14a.17.17,0,0,0,0-.12c-.43-.52.19-1,.12-1.48-.05-.33.34-.71.45-1.08a17.63,17.63,0,0,0,.42-2,4.85,4.85,0,0,1,.49-1.85A4.48,4.48,0,0,0,57.5,63a2.1,2.1,0,0,1,.16-.46,9.22,9.22,0,0,0,.91-3,1.38,1.38,0,0,1,.16-.51c.24-.55.52-1.08.74-1.65s.41-1.32.67-1.95a6.23,6.23,0,0,1,.62-1,1.82,1.82,0,0,0,.15-.27c.28-1.08.55-2.16.84-3.23a2.49,2.49,0,0,1,.31-.54c.18-.61.38-1.26.55-1.91a26.33,26.33,0,0,0,.62-2.59,7.31,7.31,0,0,1,.56-1.57c0-.08.12-.15.13-.22,0-.43,0-.86.13-1.28a11.48,11.48,0,0,1,.33-1.1,1.16,1.16,0,0,0,.11-.38,5.32,5.32,0,0,1,.73-2.31,8.57,8.57,0,0,1,.64-1.08c0-.49.06-.92.12-1.33a1.59,1.59,0,0,1,.43-1c.12-.12.12-.35.18-.53l.93-2.58a1,1,0,0,0,0-.3c0-.15,0-.33,0-.43A3.79,3.79,0,0,0,68,29.58a1.55,1.55,0,0,1,.17-.4c0-.1.17-.2.17-.3a11.4,11.4,0,0,1,.26-2,10,10,0,0,1,.1-1.9A15.12,15.12,0,0,0,69,23.42Z"/><path d="M43.34,33a6.34,6.34,0,0,1,0,1.07c-.16.81-.39,1.61-.57,2.42a11.06,11.06,0,0,0-.25,1.25c-.06.42,0,.86-.08,1.28a1.15,1.15,0,0,1-.18.67A2.49,2.49,0,0,0,41.74,41c-.07.23-.11.6-.47.5s-.47-.35-.32-.74c.22-.58.06-1-.54-1.09A5.91,5.91,0,0,1,38,38.38c-.35-.23-.68-.47-1-.71,0,0-.08-.06-.12-.05-.72.11-1.29-.53-2-.41l-.46,0a1,1,0,0,1-.43,0c-.34-.14-.67-.33-1-.5-.07,0-.15-.1-.2-.09-.73.22-1.28-.2-1.88-.47,0,0,0,0,0,0-.77.44-1.31-.45-2.06-.34a3.63,3.63,0,0,1-1.26-.31l-.85-.19c-.68-.17-1.36-.32-2-.54a4.78,4.78,0,0,1-.89-.56,1.92,1.92,0,0,0,.56-1.54,4.84,4.84,0,0,1,.47-1.18A4.84,4.84,0,0,0,25,30.37c0-.36,0-.7.29-.77.15-.67.24-1.26.4-1.82s.54-.87.48-1.25c-.1-.58.29-.94.35-1.42a4.13,4.13,0,0,1,.54-1,6,6,0,0,1,.16-2.14.84.84,0,0,0-.15-.48c-.18-.37-.25-.81-.72-1a.41.41,0,0,1-.13-.36.43.43,0,0,1,.33-.19,3.82,3.82,0,0,1,3.26,1.29.86.86,0,0,0,.47.25c.46.1.95.13,1.41.27a10.89,10.89,0,0,1,1.25.59,1.75,1.75,0,0,0,.24.11c.81.22,1.61.47,2.43.66.56.14,1.15.17,1.72.29a13.35,13.35,0,0,1,1.61.46,1.07,1.07,0,0,1,.6.45c.21.44.53.3.79.19a.43.43,0,0,1,.55.11.92.92,0,0,0,.35.14,5.75,5.75,0,0,0,1.51.44c.84,0,1.36.68,2.11.84.35.07.56.27.48.66a8.29,8.29,0,0,1-.39,1.8,23.3,23.3,0,0,0-.82,2.92A3.38,3.38,0,0,1,43.34,33Zm-18.08.81c.43.11.85.21,1.27.34a1.16,1.16,0,0,1,.51.25,1,1,0,0,0,1.18.37.57.57,0,0,1,.45.11,1.23,1.23,0,0,0,1.1.31c.11,0,.25.16.38.21a2,2,0,0,0,.57.15c.2,0,.47-.13.58,0a1.63,1.63,0,0,0,1.26.33,3,3,0,0,1,1.83.54,2.45,2.45,0,0,0,.94.23c.24,0,.5-.06.75,0,.48.06,1,.15,1.44.23a.55.55,0,0,1,.17,0c.36.21.71.47,1.09.65.72.34,1.45.66,2.19,1a.55.55,0,0,0,.73-.38,10.44,10.44,0,0,0,.26-1.5c0-.28.06-.56.12-.84a4.71,4.71,0,0,1,.22-.59L43,32.86c.12-.43.25-.87.37-1.32a5.05,5.05,0,0,0,.12-.56c.07-.45.08-.91.5-1.21,0,0,0-.12,0-.18a4.33,4.33,0,0,1,.36-2,.54.54,0,0,0-.11-.48,3.58,3.58,0,0,0-1-.58c-1-.35-2.09-.64-3.15-1a.62.62,0,0,1-.19-.11c-.23-.18-.47-.52-.69-.51-.41,0-.59-.27-.89-.37a8.69,8.69,0,0,0-1.22-.3,5.22,5.22,0,0,0-.62-.06A2.15,2.15,0,0,0,36.1,24c-.49-.16-1-.3-1.48-.45-.21-.07-.41-.16-.61-.21-.69-.16-1.43-.13-2-.73-.15-.17-.4-.4-.71-.16,0,0-.13,0-.19,0s-.28-.14-.43-.19c-.41-.15-.83-.28-1.25-.41l-.32-.11a2.09,2.09,0,0,1-.51-.09c-.34-.17-.54-.1-.61.28s-.11,1-.24,1.45c-.3,1.05-.65,2.09-1,3.14-.19.62-.36,1.25-.54,1.87s-.39,1.35-.57,2a13.35,13.35,0,0,0-.42,1.74A14.94,14.94,0,0,0,25.26,33.85Z"/><path d="M15.06,42.71a4,4,0,0,1,.06.87c-.12.8-.27,1.6-.44,2.4-.2,1-.45,1.94-.66,2.92A13,13,0,0,1,13.6,51a8.55,8.55,0,0,0-.39,1.79,18.14,18.14,0,0,1-.41,1.77c0,.09,0,.22,0,.27-.65.68-.32,1.61-.61,2.39A18.5,18.5,0,0,0,11.4,60a18.77,18.77,0,0,0-.33,2.37c-.09,1-.11,2-.14,3.08,0,.53,0,1.06,0,1.6a1.06,1.06,0,0,1-.08.47c-.14.32,0,.45.29.5s.78.24,1.17,0a.15.15,0,0,1,.09,0c.79.44,1.71,0,2.53.38a2,2,0,0,0,.66,0,14.25,14.25,0,0,1,1.48.17c.19,0,.33.28.44.38a3.55,3.55,0,0,1,.51-.08,14.89,14.89,0,0,1,1.64.1c.57.09,1.12.27,1.74.43.11-.24.29-.16.62,0a6.52,6.52,0,0,0,1.21.18c.75.18,1.49.4,2.22.65.21.07.35.33.56.4.45.16.93.25,1.38.41.1,0,.12.26.18.39l-.16.17c-1-.36-1.95-.74-2.94-1.06a12,12,0,0,0-2.11-.49c-1-.13-1.95-.16-2.92-.23-.08,0-.18,0-.22,0-.32-.41-.84-.23-1.24-.41a.29.29,0,0,0-.24,0,1,1,0,0,1-1,.07.65.65,0,0,0-.39,0,.73.73,0,0,1-.81-.26L15,69.11A8.13,8.13,0,0,1,13.8,69a8.88,8.88,0,0,0-2.12-.07c-.84,0-.83,0-1-.81,0-.14-.2-.24-.3-.37s-.22-.23-.22-.35c0-.58,0-1.16,0-1.75,0-.1.11-.2.16-.3s.1-.21.08-.24c-.41-.4,0-.83,0-1.24,0-.73.43-1.43.16-2.18,0,0,0-.14.06-.21.05-.39.38-.75.15-1.18-.05-.09,0-.24,0-.36.14-.44.29-.89.44-1.33s.38-1,.53-1.52a5.66,5.66,0,0,0,.13-.92,3.74,3.74,0,0,1,.29-1.61c.13-.2,0-.56.11-.78.33-.63.19-1.37.47-2A5.92,5.92,0,0,0,13,50.31a5.84,5.84,0,0,1,.5-1.08c0-.08.11-.2.08-.27a3.13,3.13,0,0,1,.22-1.81A11.16,11.16,0,0,0,14,45.61c0-.16.15-.31.19-.47a9.33,9.33,0,0,0,.29-1.27c.05-.37,0-.76,0-1.12.1-.56.28-1.1.4-1.66s.21-1,.31-1.47.19-1,.31-1.57a1.49,1.49,0,0,1,.22-.41s.08-.09.07-.11c-.37-.67.49-1.19.21-1.85v0c.18-.58.37-1.16.54-1.74s.32-1.19.51-1.78a7.83,7.83,0,0,1,.4-.89c0-.07.12-.16.11-.23-.12-.7.35-1.22.53-1.83.25-.86.56-1.69.82-2.54.1-.35.13-.71.2-1.06,0-.07,0-.18.06-.21.53-.35.38-1,.65-1.49a10.58,10.58,0,0,0,.62-1.32c.08-.19.08-.41.15-.6.22-.58.46-1.16.69-1.74s.5-1.26.76-1.88c.09-.21.24-.38.31-.59.3-.78.55-1.58.86-2.36.17-.43.43-.83.63-1.25a5.66,5.66,0,0,0,.52-1.19,11.49,11.49,0,0,1,.87-2.4.54.54,0,0,1,.2-.26,1.19,1.19,0,0,1,.42-.06,1,1,0,0,1,0,.38c-.25.68-.53,1.36-.8,2-.18.44-.34.9-.54,1.34-.27.6-.58,1.2-.83,1.81-.19.44-.31.91-.48,1.36-.26.71-.54,1.41-.81,2.11-.38,1-.76,2-1.15,3s-.72,1.67-1.05,2.52c-.25.66-.47,1.33-.68,2s-.41,1.5-.63,2.24c-.07.22-.25.4-.32.62a9.87,9.87,0,0,0-.41,1.48,6.25,6.25,0,0,1-.54,1.63,12.6,12.6,0,0,0-.55,2q-.35,1.27-.66,2.55c-.13.53-.21,1.06-.34,1.59-.16.69-.36,1.37-.52,2.06-.09.37-.1.76-.19,1.13A5,5,0,0,1,15.06,42.71Z"/><path d="M47.34,37.1c.16.29.31.58.49.86a6.56,6.56,0,0,1,.56.85A4.31,4.31,0,0,1,49,41c0,.25.21.52.25.79a10.06,10.06,0,0,1,.12,1.64c0,.77-.18,1.53-.24,2.3a1.18,1.18,0,0,0,.14.67c.18.29.67.21.86-.11a1.23,1.23,0,0,1,.78-.59A8.38,8.38,0,0,0,52,45.1a1.42,1.42,0,0,1,.47,0,2.52,2.52,0,0,1-.28.44,3.31,3.31,0,0,1-.49.5c-.5.41-1,.81-1.53,1.22-.23.19-.44.43-.68.6a1.61,1.61,0,0,1-.65.27,1.37,1.37,0,0,1-.81,0,1,1,0,0,1-.47-.7c.06-.48-.23-.43-.44-.46A9.44,9.44,0,0,1,46,45c-.21-.67-1-1-.83-1.86L45.8,43c.28.53.57,1.1.89,1.64.2.32.49.59.69.91a1.22,1.22,0,0,1,.21.64c0,.32.17.42.44.45s.34-.14.37-.41c.09-.84.25-1.69.34-2.54a3.24,3.24,0,0,0-.08-1.16c-.27-1-.65-2-.88-3.08-.17-.79-.84-1.3-1-2.08,0-.14-.35-.2-.41-.35a8,8,0,0,0-1.53-2.1,5.44,5.44,0,0,0-1.06-.71c-.1-.08-.23-.26-.2-.33s.22-.28.34-.27a1.75,1.75,0,0,1,1.4.48c.53.57.89,1.27,1.47,1.79a1.88,1.88,0,0,1,.45.69,1.6,1.6,0,0,1,0,.58Z"/><path d="M15.6,21.18c.23-.31.44-.55.61-.81a1.72,1.72,0,0,0,.1-.39c0-.08.08-.18.14-.19a.25.25,0,0,1,.2.12,1.62,1.62,0,0,1-1,2.18,1.2,1.2,0,0,1-1.1-.05c-.42-.28-1.12.22-1.2.78s-.18,1.31-.31,2c-.06.33,0,.47.35.54.65.13,1.31.26,2,.44.17,0,.3.24.45.37a2.21,2.21,0,0,1-.46.36.76.76,0,0,1-1-.26c0-.08-.18-.17-.24-.15-.5.19-1-.08-1.48,0a.69.69,0,0,0-.31.21c-.13.13-.23.3-.35.44s-.18.38-.45.21-.41-.32-.3-.62a.53.53,0,0,0-.25-.75,2.4,2.4,0,0,1-.23-.11,6.34,6.34,0,0,1-.66-.39c-.37-.29-.75-.58-1.09-.9a2,2,0,0,1,.22-2.9,5.28,5.28,0,0,1,1.14-.41c.14.31,0,.43-.25.53-1,.48-1.25.86-.89,1.9a2.16,2.16,0,0,0,1.43,1.33c.18.05.39,0,.52.13.49.35.76.1,1-.32s.76-.86.69-1.51c0-.07.06-.16.11-.24s.15-.13.13-.16c-.19-.5.13-.88.23-1.32s-.26-.69-.41-1a3.44,3.44,0,0,1-.53-1.71c0-.43.12-.77.6-.87s.7.2.92.49a3.17,3.17,0,0,1,.65,2.52c-.06.39.11.56.53.58Zm-2.24-2.55c-.11.79-.07,1,.3,1.39C14.08,19.52,14,19.24,13.36,18.63Z"/><path d="M13.93,5.31c.59-.43.83-.39,1.3.05.7.65,1.44,1.26,2.15,1.91.41.37.8.76,1.3,1.23V7.92l.12-.06c.1.19.19.39.3.57s.15.35.28.43A10,10,0,0,0,22,10.52c.09,0,.17.3.14.43s-.19.38-.32.39a1.25,1.25,0,0,1-.68-.12,5.31,5.31,0,0,1-.81-.44c-.32-.19-.44,0-.47.26,0,.47-.09,1-.09,1.42s-1.07,1.24-1.52,1a1.56,1.56,0,0,1-.64-.58,8,8,0,0,1-.46-1.18A3.83,3.83,0,0,1,16.9,11a3.22,3.22,0,0,1,0-.76c0-.19.07-.38.1-.58a6.54,6.54,0,0,0,.09-.89A1.91,1.91,0,0,0,17,8.17c0-.07-.15-.1-.2-.17A5.28,5.28,0,0,0,15.1,6.7,7.35,7.35,0,0,1,13.93,5.31Zm3.78,4.91-.08,0c.19.62.37,1.24.59,1.85,0,.1.24.19.38.2a.53.53,0,0,0,.32-.2,2,2,0,0,0,.3-.65,1.52,1.52,0,0,0,.05-.84,4,4,0,0,0-.7-1,1.77,1.77,0,0,0-.58-.3,5.11,5.11,0,0,0-.2.47C17.75,9.89,17.74,10.06,17.71,10.22Z"/><path d="M11.93,33.32c-.55.4-1-.35-1.51-.23a14.38,14.38,0,0,1,.17,1.66A4.52,4.52,0,0,1,10.31,36c-.09.28-.7.47-1.12.33s-1.14-.27-1.46-.83l-.64-1.16a2.61,2.61,0,0,1-.25-2.05,1.47,1.47,0,0,1,1.94-.93c.72.34,1.48.58,2.22.87a6.49,6.49,0,0,1,3.42,2.56,2.42,2.42,0,0,1-.37,2.75,1.62,1.62,0,0,0-.18.19c-.26.36-.53.44-.78.23a.68.68,0,0,1,.06-.85c.17-.21.31-.43.46-.65.47-.75.1-1.39-.34-2-.22-.28-.4-.69-.89-.72C12.23,33.8,12.11,33.52,11.93,33.32Zm-2,.48a1.11,1.11,0,0,0-.11-.2,2.6,2.6,0,0,0-1.28-1.21c-.49-.16-.7-.14-.85.37a2.27,2.27,0,0,0,.71,2.33.93.93,0,0,0,1.2.19.42.42,0,0,0,.16-.19C9.8,34.7,9.84,34.3,9.91,33.8Z"/><path d="M2.54,55.07l.9,1.62a.41.41,0,0,1,.07.17c.05.37.25.92.08,1.08a1.49,1.49,0,0,1-1.12.16,6.47,6.47,0,0,1-1.58-.56,1.76,1.76,0,0,1-.8-1.28A3.54,3.54,0,0,1,0,55a2,2,0,0,1,.4-.75A3.78,3.78,0,0,1,1,53.57a.8.8,0,0,1,.49-.16,1.83,1.83,0,0,1,.63.19C3,54,4,54.46,4.85,54.93a4.78,4.78,0,0,1,.9.67,9.38,9.38,0,0,1,.85.82,2,2,0,0,1,.53,2c-.19.71-.32,1.43-.53,2.12a.65.65,0,0,1-.45.42c-.33,0-.36-.22-.29-.49a8.52,8.52,0,0,0,.22-.87c.06-.31.07-.63.1-1s.07-.7.11-1a1.69,1.69,0,0,0-.65-1.3A3.55,3.55,0,0,0,3,55.06,2.14,2.14,0,0,1,2.63,55Zm-1-.69h-.2a3.29,3.29,0,0,0-.27.57c-.09.39-.3.86-.16,1.17.21.47.49,1,1.17,1.09l.59,0c0-.21.07-.46,0-.63C2.32,55.86,1.92,55.12,1.55,54.38Z"/><path d="M38,0c.53.22.48.64.55.93.18.77.27,1.56.38,2.34,0,.25,0,.55.39.52s.72-.11.78-.52a1.23,1.23,0,0,1,.36-.67A5.65,5.65,0,0,0,41,1.78a.93.93,0,0,1,.23-.31.4.4,0,0,1,.37,0,.35.35,0,0,1,.1.32c-.15.32-.35.61-.53.92a9.73,9.73,0,0,0-.78,1.36c-.05.15.27.49.48.66a7.94,7.94,0,0,0,.72.34c.53.35,1,.74,1.54,1.11a1.91,1.91,0,0,1,.47.42c.09.13.16.41.08.49s-.43.25-.53.18A9.14,9.14,0,0,1,41.35,6a2.18,2.18,0,0,0-.76-.39l-.7-.3c-.09.23-.22.47-.3.73s-.13.7-.25,1c-.05.15-.24.25-.37.37a3.17,3.17,0,0,1-.4-.49.61.61,0,0,1,0-.39c.06-.22.23-.43-.06-.62,0,0,0-.08,0-.13,0-.59,0-1.19,0-1.78s-.2-1.29-.29-1.93S38.07.74,38,0Z"/><path d="M22.94,4.66c.3-.45,0-1,.56-1.21,0-.81.88-1.81,1.69-1.54a2.52,2.52,0,0,1,1.12,1,3.68,3.68,0,0,1,.47,2.49A2.55,2.55,0,0,1,26.08,7a1,1,0,0,1-1.71-.21l-.42.6c-.09-.09-.19-.14-.23-.22-.32-.61-.61-1.22-.94-1.81-.12-.22-.36-.36-.49-.57-.23-.41-.38-.88-.63-1.27s-.72-.91-1.06-1.37a9.54,9.54,0,0,1-.54-.86C19.9,1,19.74.72,19.6.43a2.08,2.08,0,0,1-.06-.36c.12,0,.3,0,.36,0a11.58,11.58,0,0,1,.86,1.1c.47.7.9,1.43,1.35,2.14C22.37,3.78,22.64,4.19,22.94,4.66Zm2.19,2.12a1.16,1.16,0,0,0,1-1.15,10.93,10.93,0,0,0,.09-1.51,1.77,1.77,0,0,0-.9-1.56,1,1,0,0,0-.82-.05,2,2,0,0,0-.76,2,4.58,4.58,0,0,0,.21,1,2.12,2.12,0,0,0,.4.72A5,5,0,0,0,25.13,6.78Z"/><path d="M30,1.9l.12-.22a3,3,0,0,1,.64.36,1.15,1.15,0,0,1,.36.63,21.14,21.14,0,0,0,.23,2.12,2.12,2.12,0,0,0,1.36,1.78c.11,0,.28.2.26.25a.52.52,0,0,1-.27.31,1,1,0,0,1-1.37-.48c-.21-.38-.49-.73-.79-1.17A6.66,6.66,0,0,1,30,6a1.83,1.83,0,0,1-.67.36c-.29,0-.44.36-.84.22A1.29,1.29,0,0,1,27.6,5a14.4,14.4,0,0,1,.79-2.23,4.1,4.1,0,0,1,1.07-1.09c.1-.08.36,0,.55.05ZM29,6a10.59,10.59,0,0,0,.87-.9,2,2,0,0,0,.48-.83,7,7,0,0,0,0-1.52c0-.19-.14-.52-.22-.52a1,1,0,0,0-.72.22,6,6,0,0,0-1,1.59C28,5.1,28.17,5.55,29,6Z"/><path d="M18.68,15.17c.36.75-.06,1.33-.42,1.93a5.22,5.22,0,0,1-.45.6c-.08.08-.27.19-.32.16-.41-.26-1,0-1.31-.53-.06-.09-.24-.1-.36-.16a.53.53,0,0,1-.21-.18c-.23-.42-.45-.85-.67-1.28a1.33,1.33,0,0,1-.15-.32,8.8,8.8,0,0,1-.18-1.34.85.85,0,0,1,1.07-.79,1.36,1.36,0,0,1,.88.76A5.28,5.28,0,0,1,17,15.93c0,.3,0,.68.44.73s.79-.44.87-.8a6.54,6.54,0,0,1,.24-.75Zm-2.8-1c-.3-.05-.45,0-.35.33s.32.76.48,1.14C16.4,15.12,15.91,14.7,15.88,14.21Z"/><path d="M31.88,72.73c.73-.7,1.18,0,1.73.26.11,0,.21.13.31.13a5.26,5.26,0,0,1,2.8.8,4.85,4.85,0,0,0,1,.32s.11,0,.13,0c.29.54.84.2,1.25.36a2,2,0,0,0,1.33.26c.1,0,.26.14.41.13l1,.16a1.36,1.36,0,0,1,.58.18,3.56,3.56,0,0,1,.49.6l-.1.17a4.74,4.74,0,0,1-.85-.17,3.08,3.08,0,0,0-1.8-.33A2.79,2.79,0,0,1,39,75.26c-.13,0-.29-.21-.38-.18-.45.16-.81-.11-1.2-.22a.47.47,0,0,1-.24-.15c-.19-.2-.33-.35-.66-.2-.17.08-.46,0-.68-.12-.65-.22-1.28-.49-1.93-.72s-1.36-.49-2.06-.7c-.45-.15-.93-.23-1.4-.35a2.12,2.12,0,0,1-.54-.17c-.08,0-.18-.25-.15-.29s.23-.25.36-.24.56.12.85.13a.68.68,0,0,1,.69.37A2.4,2.4,0,0,0,31.88,72.73Z"/><path d="M8.29,38.42l-.22-.17-1,.55c-.38.22-.42.5-.31.91.17.62.7.86,1.11,1.21s.55.72.37,1a.38.38,0,0,1-.3.16c-.73-.1-1.47-.2-2.19-.36-.24,0-.62-.27-.62-.43,0-.39.38-.38.67-.35s.54.09.91.15c-.32-.65-.6-1.2-.84-1.76a.75.75,0,0,1,0-.55,2.21,2.21,0,0,1,1.64-1.2l.08.31c.1-.41.35-.34.63-.29.66.13,1.33.22,2,.33h0c.23.14.65.29.64.41,0,.39-.44.25-.64.22-.43-.07-.9.09-1.31-.22C8.88,38.28,8.59,38.39,8.29,38.42Z"/><path d="M7.77,49l-1.56.15a1.36,1.36,0,0,0-.21,0l-1.77.53-.56.18a1,1,0,0,1-1.12-.61l2.15-.56c.31-.07.61-.17.91-.24s.36-.29.14-.51c-.38-.39-.83-.72-1.18-1.14a3.36,3.36,0,0,1-.51-1.06c-.06-.21.13-.3.31-.17s.39.36.59.53c.43.37.85.75,1.29,1.1a7.11,7.11,0,0,1,.93.67A5.05,5.05,0,0,1,7.77,49Z"/><path d="M34.74,2.17a5.06,5.06,0,0,1-.39.45c-.41.33-.27.87-.51,1.25-.46.74-.05,1.41.18,2.08,0,.14.25.26.41.31.31.11.64.16,1.06.26A2,2,0,0,1,36.78,5c0,.13,0,.24,0,.28-.58.66-.92,1.55-1.94,1.76-.7.14-1.19.11-1.44-.44a3.81,3.81,0,0,1-.32-1.37,11.19,11.19,0,0,1,.13-1.63A1.66,1.66,0,0,1,34.74,2.17Z"/><path d="M21.7,45.93v.56A2.22,2.22,0,0,0,22,47.88a.63.63,0,0,0,1,.13,5.12,5.12,0,0,1,2-1.23c.74-.17,1.07.24,1.3.94a7.2,7.2,0,0,0,.37,1c0,.09.25.14.38.14a3.45,3.45,0,0,0,.78-.14,3.29,3.29,0,0,1,3.08.59,1.15,1.15,0,0,1,.38.49c.14.4.35.48.71.27a1.47,1.47,0,0,1,.48-.11c.07,0,.15.05.23.07s-.07.23-.14.25a10.12,10.12,0,0,1-1.11.32.39.39,0,0,1-.33-.21c-.46-1.47-1.65-1.5-2.75-1.46a11,11,0,0,0-1.49.25.56.56,0,0,1-.68-.42c-.13-.38-.29-.75-.4-1.14a.57.57,0,0,0-.54-.45,1.72,1.72,0,0,0-1.4.43,7.62,7.62,0,0,1-1.19.93c-.59.35-.84.2-1-.48,0-.12-.13-.23-.16-.35a5,5,0,0,1-.07-.56c0-.11,0-.23,0-.34v-.82Z"/><path d="M33,9.91l-1.67-.25a3.39,3.39,0,0,1-.41-.15c-.32-.11-.62-.27-1,0-.08.07-.34,0-.49,0a1.1,1.1,0,0,0-.87,0,2.7,2.7,0,0,1-1.25-.08,3.6,3.6,0,0,1-.86-.21.76.76,0,0,1-.31-.35s.17-.23.28-.25a2.14,2.14,0,0,1,.61,0,6,6,0,0,1,.7.18.27.27,0,0,1,.15.13c.13.24.27.21.48.08a.9.9,0,0,1,.46-.12c.29,0,.58,0,.87,0s.78,0,1.16,0a.33.33,0,0,1,.23.15c.19.32.37.36.72.17a1.12,1.12,0,0,1,.82.05c.18.08.51.22.33.57Z"/><path d="M4.28,44.46,4,43.82a8.42,8.42,0,0,1,1.06-.09c.64,0,1.28.14,1.91.21L8,44a2,2,0,0,1,.08.28c.05.2.09.39.14.59a2,2,0,0,1-.72,0,1.44,1.44,0,0,0-.76-.15,4.35,4.35,0,0,1-1.35-.23l-1-.19Z"/><path d="M28.83,43.44a1,1,0,0,1,1.06-.38,2.52,2.52,0,0,0,.73,0c.27,0,.63.37.79.74a9.84,9.84,0,0,0,.73,1.45c.06.12.36.18.51.14.67-.18,1.32-.47,2-.6,1.06-.21,1.45.1,1.6,1,.06.36.11.73.17,1.15-.47-.1-.46-.49-.46-.75a1.12,1.12,0,0,0-1.57-1.1c-.55.21-1.15.3-1.7.52s-.78-.22-1.06-.48-.25-.56-.39-.84-.29-.77-.55-.87A2.24,2.24,0,0,0,29,43.4Z"/><path d="M28.41,53.43a3.2,3.2,0,0,1-1.86.67c-.25,0-.46-.38-.68-.6s-.12-.22-.21-.31a2.79,2.79,0,0,0-.52-.51.75.75,0,0,0-.55-.18,8.76,8.76,0,0,0-1.4.53c-.32.15-.61.37-.93.53a.61.61,0,0,1-.78-.18,2.89,2.89,0,0,1-.55-2c0-.12.16-.24.31-.46a7.52,7.52,0,0,0,0,1.08,3.64,3.64,0,0,0,.3,1c.17.37.51.42.87.21s.69-.46,1.06-.64a4.66,4.66,0,0,1,1.12-.39.92.92,0,0,1,.64.23,6.34,6.34,0,0,1,.81.9,1.06,1.06,0,0,0,1.37.36l.77-.35s.13,0,.19,0Z"/><path d="M4.8,52.83c.06-.29.07-.42-.29-.44A2.75,2.75,0,0,1,3.39,52c-.21-.11-.6,0-.6-.4a5,5,0,0,1,.06-.54,1.69,1.69,0,0,1,.45.07c.78.34,1.56.7,2.34,1.06l.21.09c.48.09.56.21.48.76Z"/><path d="M51.78,31.5a6.89,6.89,0,0,1,.93-.49,3.67,3.67,0,0,1,.75-.08.83.83,0,0,1,.85.37c.29.38.61.73.93,1.09s.81.27,1.26.16a5.11,5.11,0,0,1,1.28-.21c.38,0,.54.34.69.75-.19-.08-.34-.1-.41-.19-.43-.54-1-.31-1.43-.14-1,.36-1.72.26-2.18-.83a1.63,1.63,0,0,0-1.5-.7c-.2.05-.39.14-.59.21l-.51.2Z"/><path d="M48.5,59.53a4.66,4.66,0,0,1,1-.47c.65-.15,1,.2,1.09.88s.18,1.16.28,1.74c0,.3.21.39.52.3s.73-.15,1.22-.24a3.72,3.72,0,0,1-.7.47,3.13,3.13,0,0,1-1,.15.49.49,0,0,1-.5-.56,16.57,16.57,0,0,0-.07-1.73c-.05-.69-.57-1-1.2-.63l-.51.22Z"/><path d="M43.41,53.64c-.61.3-1.22.61-1.84.88a1.4,1.4,0,0,1-1.36,0c-.06,0-.19,0-.21,0-.72-.5-.62-1.29-.82-2a.78.78,0,0,1,0-.4.87.87,0,0,1,.19-.25c.06.1.17.19.18.29a3,3,0,0,0,.59,1.92.87.87,0,0,0,.89.33,2.22,2.22,0,0,0,1.3-.61A.91.91,0,0,1,43.41,53.64Z"/><path d="M48.29,59.84c-.5.43-1,1-1.69,1-.18,0-.4-.3-.51-.51-.26-.49-.41-1-1-1.27a1.06,1.06,0,0,0-1.05.11l-.84.55c0-.29.68-.82,1-1a1.7,1.7,0,0,1,2.06,1.05c0,.14.1.29.16.42a.44.44,0,0,0,.73.19l1-.67Z"/><path d="M43.58,53.35a1.56,1.56,0,0,1,2.24.64,1.15,1.15,0,0,0,1.28.22c.46-.2.93-.38,1.4-.56,0,0,.1,0,.19.09l-1.44.64c-.11,0-.23.06-.34.11a1.15,1.15,0,0,1-1.55-.39,1.35,1.35,0,0,0-1.23-.65A2.65,2.65,0,0,1,43.58,53.35Z"/><path d="M53.88,53.11c-.62-.07-.66-.69-.93-1.07a7.4,7.4,0,0,1-.5-1.15.89.89,0,0,0-.83-.57c-.1,0-.2-.12-.29-.18a.94.94,0,0,1,.33-.14,1.35,1.35,0,0,1,1.29.92C53.25,51.65,53.57,52.38,53.88,53.11Z"/><path d="M49.23,27.26c-.43.56-.78.65-1.3.26a1.32,1.32,0,0,1-.33-.63,9.84,9.84,0,0,1-.34-1.4c0-.15.12-.33.19-.49.13.11.33.22.35.35a5.16,5.16,0,0,1,.06,1.18.87.87,0,0,0,1,.81,2.83,2.83,0,0,1,.42-.07Z"/><path d="M46.56,48.45c.08,0,.2-.09.25-.06.41.26.87.45,1,1s.37.88.55,1.32a.46.46,0,0,0,.72.27c.08,0,.19,0,.29,0-.07.09-.12.21-.21.24-.51.22-.76.15-1.14-.42a3.71,3.71,0,0,1-.3-.85,1.76,1.76,0,0,0-.88-1.21l-.33-.17Z"/><path d="M42.85,60a3.09,3.09,0,0,1-.83.42c-.28.07-.43-.19-.5-.46s-.19-.65-.3-1c-.2-.62-.21-.61-.79-.66a.79.79,0,0,1,1.11.26,11.61,11.61,0,0,1,.3,1.16c.09.45.12.48.55.27l.35-.17Z"/><path d="M49,53.6a1,1,0,0,1,1.29.07c.46.31.86.72,1.31,1s.64.4,1,.61c.06,0,.08.14.17.29A5.5,5.5,0,0,1,50.23,54c-.11-.17-.46-.19-.7-.27S49.23,53.64,49,53.6Z"/><path d="M25.29,43a8.93,8.93,0,0,0,.4.89A.87.87,0,0,0,27,44.1c.42-.26.88-.45,1.33-.67l.07.14a5.86,5.86,0,0,0-.57.26c-.41.24-.81.53-1.24.75a.87.87,0,0,1-1.15-.4A1.22,1.22,0,0,1,25.3,43Z"/><path d="M43.92,50a2.37,2.37,0,0,1-1.4.63.41.41,0,0,1-.28-.1,3.67,3.67,0,0,1-.66-2.26l.16-.07a2.14,2.14,0,0,1,.2.4c.13.49.2,1,.37,1.47.09.27.66.26,1,.06a5,5,0,0,1,.56-.31Z"/><path d="M36.89,59.06c-.35-.11-.55-1-.19-1.52.23.87.22,1.8.93,2.47l1.18-.84.06.08a11.82,11.82,0,0,1-1,1c-.29.22-.62.07-.74-.29S37,59.4,36.89,59.06Z"/><path d="M31,39.58a.65.65,0,0,1,1,.14,5.37,5.37,0,0,1,.31.69.85.85,0,0,0,.83.62,1.4,1.4,0,0,1,.31.09c-.65.28-1,.2-1.29-.27a6.24,6.24,0,0,0-.47-.84A2.92,2.92,0,0,0,31,39.58Z"/><path d="M57.83,29.11c-.51-.43-.92-.82-1.38-1.14-.62-.46-1.28-.1-1.92,0a6.6,6.6,0,0,0-.75.2,3,3,0,0,1,2.33-.58C56.84,27.88,57.59,28.15,57.83,29.11Z"/><path d="M35.05,52.1c-.35-.59-.68-1.19-1.06-1.77-.07-.1-.32-.08-.48-.14a1,1,0,0,1-.25-.17c.09-.08.17-.21.27-.22a1.11,1.11,0,0,1,1.14.88c0,.14.13.27.17.41.11.33.2.67.3,1Z"/><path d="M32.48,55.64a1.69,1.69,0,0,1-.78-.76c-.22-.47-.41-.94-.62-1.41s-.79-.44-1.22-.54c.86-.26,1.27-.06,1.63.77.22.53.48,1.06.74,1.57.06.12.22.18.33.27Z"/><path d="M27.42,59.44a1.47,1.47,0,0,1-1.62-.92c-.19-.33-.62-.53-1-.82.05-.17.2-.3.42-.11a4.88,4.88,0,0,1,.95.92,1.55,1.55,0,0,0,.93.7C27.19,59.23,27.26,59.31,27.42,59.44Z"/><path d="M55.78,35.63c.81-.05,2.43,1.77,2.21,2.53a10.43,10.43,0,0,1-1.1-1.5A2.1,2.1,0,0,0,55.78,35.63Z"/><path d="M33,9.91c.46,0,.92-.12,1.37.21s.45-.1.51-.38c.71.21.71.21.59.85l-.51-.35A1.68,1.68,0,0,1,33,9.9Z"/><path d="M27.85,71.63c.15-.31.38-.29.67-.2s.53-.13.57.29c0,.07.16.11.23.18a3.15,3.15,0,0,1,.22.29c-.12,0-.26.07-.35,0C28.74,72,28.31,71.84,27.85,71.63Z"/><path d="M26.41,41.17,28.71,40C28.06,40.89,26.76,41.48,26.41,41.17Z"/><path d="M34.88,2.2c.28-.38.88-.38,1.48,0C36.16,2.53,35.44,2.53,34.88,2.2Z"/><path d="M49.14,34.43c.09.54.19,1,.25,1.57,0,.11-.11.24-.18.38A1.93,1.93,0,0,1,49.14,34.43Z"/><path d="M21.57,58.54c.85.37,1.41-.18,2-.42l0,.06c-.54.36-1,.89-1.77.75C21.74,58.91,21.66,58.68,21.57,58.54Z"/><path d="M51.31,36.4a2,2,0,0,1-1.85,0l1.83-.21Z"/><path d="M52.06,25.58c.59-.23,1,0,1,.45a5.06,5.06,0,0,1,0,1c-.09-.17-.28-.34-.26-.5C52.94,26,52.78,25.64,52.06,25.58Z"/><path d="M37.91,42.72l-1.35-1.11a1.62,1.62,0,0,1,1.42,1Z"/><path d="M21.42,58.11c0-.32-.09-.64-.11-1,0-.1.11-.2.16-.3.07.09.18.17.2.27a3,3,0,0,1,0,.67,2.05,2.05,0,0,1-.16.38Z"/><path d="M24.41,39.21c-.23-.32-.62-.55-.61-1.05A.91.91,0,0,1,24.41,39.21Z"/><path d="M49.08,31.83c-.62-.37-.78-.85-.55-1.26Z"/><path d="M26.08,41.13c-.27-.36-.78-.48-.94-1l.19-.19Z"/><path d="M49.8,32.17,51,32.05C50.62,32.44,50.42,32.47,49.8,32.17Z"/><path d="M52.94,27.27a6,6,0,0,1,.59.39s0,.16,0,.24-.18.06-.24,0C53.11,27.81,52.86,27.69,52.94,27.27Z"/><path d="M33.65,41l1.22-.1,0,.15-1.21.18Z"/><path d="M49.24,27.27c.06-.57.57-.63,1-.77l-1,.76Z"/><path d="M52.71,35.85l-.74.26-.06-.2.75-.23Z"/><path d="M30.25,39.58l-.67.11,0-.18.66-.15Z"/><path d="M25.3,43c.08-.22-.18-.56.33-.66-.14.24.22.65-.34.64Z"/></g></g></g></svg>