<svg xmlns="http://www.w3.org/2000/svg" viewBox="0 0 80.26 57.46"><defs><style>.cls-1{opacity:0.8;}.cls-2{fill:#c68167;}.cls-3{opacity:0.7;}.cls-4{opacity:0.5;}</style></defs><g id="Layer_2" data-name="Layer 2"><g id="Layer_1-2" data-name="Layer 1"><g class="cls-1"><path class="cls-2" d="M30.88,48.46c0-.26-.18-.48-.24-.74,0,0,0-.2,0-.06a1.2,1.2,0,0,1,0-.19c0-.14,0-.28,0-.42a5.17,5.17,0,0,1,0-.79,1.18,1.18,0,0,1,0-.2s.06-.18,0-.08.06-.1.07-.12l.12-.19a2.61,2.61,0,0,0,.2-.3,1.22,1.22,0,0,0,.07-.17c.1-.25.12-.32.08-.19h0l.09-.17c.08-.16,0,0,0,0s.3-.3.33-.33.22-.2.31-.31.05,0-.09.06l-.2.12s-.38.11-.18.07a3.11,3.11,0,0,0,1.4-.74.65.65,0,0,0-.32-1.19,2.33,2.33,0,0,0-2.05.55,1.18,1.18,0,0,1,.53-.3c.14,0,.17-.06.09,0l-.17.05a3.51,3.51,0,0,0-.89.38,5.39,5.39,0,0,0-.87.78,3.06,3.06,0,0,0-.65.83c-.06.12-.1.26-.16.39,0-.09,0-.08,0,0s-.16.25-.25.37a3,3,0,0,0-.41,1.79,6.37,6.37,0,0,0,0,1.07c0,.28.21.53.25.82s.38.42.58.48a2.12,2.12,0,0,0,1.09,0c.55-.16,1.32-.55,1.23-1.23Z"/></g><g class="cls-1"><path class="cls-2" d="M35.15,41.77c.6-.55.19-1.55.28-2.25l0,.11a3.55,3.55,0,0,1,.21-.54,1.17,1.17,0,0,1,.14-.3c.08-.12.19-.23.26-.36s.16-.3.26-.44,0,0,0,0l.1-.09c.09-.06.07,0-.05,0a3.29,3.29,0,0,1-.39.17,3.55,3.55,0,0,1-1,.2h.41a5.69,5.69,0,0,0,1.08-.13l.26,0-.16,0c-.19,0-.22,0-.08,0a4.22,4.22,0,0,0,2-.55c.11-.07.39-.22.35-.39s-.39-.17-.5-.17a7.6,7.6,0,0,0-1.5.19c.47,0,.59,0,.36,0h-.37a6.11,6.11,0,0,0-1.35.2,4.34,4.34,0,0,0-1.75.82,3.85,3.85,0,0,0-.6.85c-.07.1-.15.18-.21.27a1,1,0,0,0-.14.3c-.06.16-.15.31-.2.48a1.87,1.87,0,0,0,0,.53,6.87,6.87,0,0,1,0,1.36l0-.12s0,.11,0,.16-.13.14,0,0c-.47.43.42.43.66.4a4.76,4.76,0,0,0,1.13-.26,2.53,2.53,0,0,0,.82-.41Z"/></g><g class="cls-1"><path class="cls-2" d="M27.47,51.49v-.2a1.39,1.39,0,0,1,.13-.56l-.1.2a1.49,1.49,0,0,1,.24-.32l-.19.19a3.07,3.07,0,0,0,.26-.25c.14-.14.36-.34.3-.58a.35.35,0,0,0-.19-.22.78.78,0,0,0-.36-.13,2.64,2.64,0,0,0-1.08.08l-.37.13a2.22,2.22,0,0,0-.6.34c-.15.16-.32.31-.47.47a1.94,1.94,0,0,0-.34.52,2.56,2.56,0,0,0-.12,1.1.33.33,0,0,0,.19.22.7.7,0,0,0,.36.14,2.1,2.1,0,0,0,.5,0,2.27,2.27,0,0,0,.58-.1,2.41,2.41,0,0,0,1-.46l.19-.2a.45.45,0,0,0,.11-.38Z"/></g><g class="cls-1"><path class="cls-2" d="M31.89,43.18a2.22,2.22,0,0,0,0,.63.23.23,0,0,0,.18.16.67.67,0,0,0,.34.09A4,4,0,0,0,34,43.8a3,3,0,0,0,.64-.33,1.27,1.27,0,0,0,.25-.21c0-.06.1-.14.15-.21s0,0,0-.08,0-.1,0-.16a2.42,2.42,0,0,1,.1-.36,2.55,2.55,0,0,0,.18-.53.15.15,0,0,0,0-.21.28.28,0,0,0-.22-.15,1.39,1.39,0,0,0-.41,0,2.28,2.28,0,0,0-.52,0,3.92,3.92,0,0,0-1.1.35l-.27.16a.76.76,0,0,0-.31.33c0,.25-.19.46-.25.71a1,1,0,0,1-.15.44l.12-.16,0,0,.2-.16,0,0,.27-.16h0L33,43h0l.38-.12h0l.39-.09h0l.36,0h.26l.53.25a2.21,2.21,0,0,1,0-.63.23.23,0,0,0-.18-.16.69.69,0,0,0-.34-.09,2.1,2.1,0,0,0-.5,0,2.87,2.87,0,0,0-.57.11l-.38.12a2.81,2.81,0,0,0-.6.3l-.2.17a.33.33,0,0,0-.13.31Z"/></g><g class="cls-1"><path class="cls-2" d="M43.61,37.39a2.74,2.74,0,0,0,.87-2.53c-.07-.24-.24-.43-.3-.66a3.07,3.07,0,0,0-.14-.52,2,2,0,0,0-.37-.54c-.17-.16-.4-.24-.58-.4l-2.73,1a6,6,0,0,1,1.51,1.09.83.83,0,0,1,.24.75c0,.16.09.66,0,.75l.47-.3a6,6,0,0,0-2,1.69,1.56,1.56,0,0,0-.1,1.75c.2.26,1.07.06,1.29,0a2.75,2.75,0,0,0,1.38-.61c.44-.5.44-1.21.94-1.66a7.13,7.13,0,0,0,.85-.8c.25-.3.35-.71.61-1l-2.76.49c.15.42.07.86.18,1.3s1.16.17,1.38.12a2.47,2.47,0,0,0,1.5-.76c.38-.55.21-1.23.38-1.83l-2.8.75c.26.24.18.66.51.89.51.36,1.75,0,2.2-.29.71-.39,1-.75,1-1.57l-2.9.78a7.58,7.58,0,0,0,.21.82,4.25,4.25,0,0,0,.2.72c.18.34.91.22,1.19.16a3.25,3.25,0,0,0,1.58-.65c.45-.42.45-1,.76-1.5l-2.88.64c.3.46-.12,1,.18,1.47s1,.2,1.37.12a2.34,2.34,0,0,0,1.5-.76,4.39,4.39,0,0,1,.41-.81L45.88,36c.13.69.23,1.09,1.07,1.07a3.58,3.58,0,0,0,2.12-.69,1.17,1.17,0,0,0,.32-.41c.09-.18.24-.38,0-.18l-2.48.44c.19.15,0,.76.06,1,.08.41,1.17.17,1.38.12a2.43,2.43,0,0,0,1.5-.75,6.12,6.12,0,0,0,.36-.83l-2.88.64a4.39,4.39,0,0,0,0,1.2c.09.41,1.17.16,1.38.12a2.39,2.39,0,0,0,1.5-.76,1.68,1.68,0,0,0,.12-1c0-.52-2.88,0-2.9.78a1.73,1.73,0,0,0,.09,1c.25.39,1,.2,1.38.12a2.34,2.34,0,0,0,1.5-.76,1.52,1.52,0,0,0,.19-.5l-2.87.64a3.24,3.24,0,0,1,.19.83.81.81,0,0,0,.86.55,3.8,3.8,0,0,0,1.45-.26c.29-.11.77-.28.92-.6a3.2,3.2,0,0,0,.2-.81l-2.61.82c-.06,0,0,.07.07.15s.09.27.16.39c.29.49.89.45,1.4.36s1.49-.32,1.8-.89c.13-.25.06-.56.2-.8l-2.87.64a2.66,2.66,0,0,1,.28.92,2.8,2.8,0,0,1,.07,1l.81-.45-.07,0,1.69-.23c-.12,0,.28-.34.32-.37.48-.45-.42-.52-.69-.5a3.33,3.33,0,0,0-1.94.7c-.24.22-.73.56-.61,1,.26.79,1.87.27,2.31.11.72-.27,1.07-.57,1.07-1.31a3.15,3.15,0,0,0-.35-1.6c-.24-.39-1-.2-1.38-.12a2.37,2.37,0,0,0-1.5.76,1.13,1.13,0,0,0-.11.41,1,1,0,0,0,0,.18c0,.16-.2.19.15,0L52,37.66c-.21-.1-.22-.33-.32-.52a.72.72,0,0,0-.57-.47,3.2,3.2,0,0,0-1.5.17c-.26.08-1,.31-1.12.65a3.1,3.1,0,0,1-.2.81l2.37-.85c.39,0,.15.11.16-.12a2.56,2.56,0,0,0,0-.27,1.37,1.37,0,0,0-.15-.56c-.24-.38-1-.19-1.38-.12s-1.37.31-1.5.76a1.84,1.84,0,0,1-.19.51L50.4,37a1.77,1.77,0,0,1-.09-1l-2.9.78a1.08,1.08,0,0,1-.08.69l2.88-.64a4.39,4.39,0,0,1,0-1.2c0-.39-1.26-.14-1.38-.12-.45.1-1.28.29-1.5.76a6.12,6.12,0,0,1-.36.83l2.88-.64c-.09-.42.17-.89-.23-1.2s-.81-.11-1.1-.06a3.58,3.58,0,0,0-1.38.5,1.47,1.47,0,0,0-.49.53,2,2,0,0,1-.21.45l.32-.31-.06,0,1-.42-.07,0,1.06-.13h-.07L49,36c-.23-.1-.2-.53-.25-.75s-1-.2-1.18-.16a2.89,2.89,0,0,0-1.58.65,5.82,5.82,0,0,0-.64,1.11l2.88-.64c-.29-.46.12-1-.18-1.46s-1-.2-1.37-.12a2.36,2.36,0,0,0-1.5.75c-.22.36-.22.92-.53,1.2l2.76-.49a3.4,3.4,0,0,1-.2-.71,7.75,7.75,0,0,1-.21-.83c-.07-.59-3,0-2.9.78,0,.2.06.48-.1.62l.47-.3-.1,0,2.2-.29c-.26-.18-.26-.65-.51-.89s-1.17-.06-1.49,0-1.19.31-1.3.72c-.16.6,0,1.3-.38,1.83l2.88-.64c-.11-.43,0-.87-.18-1.3s-1-.21-1.19-.16a2.89,2.89,0,0,0-1.57.65,6.14,6.14,0,0,0-.62,1,4.36,4.36,0,0,1-.85.81,2.79,2.79,0,0,0-.61.8c-.12.25-.14.65-.32.86l2.67-.6a1.56,1.56,0,0,1,.08-1,5.44,5.44,0,0,1,1.26-1.18l-.47.3c.44-.22,1-.43,1-1a3.33,3.33,0,0,0,0-1.22,2.15,2.15,0,0,0-.8-.84,5.46,5.46,0,0,0-1.09-.76,2.69,2.69,0,0,0-1.87.15c-.22.08-1.24.49-.86.85s.59.33.78.71a2,2,0,0,1,.13.46,3.42,3.42,0,0,0,.26.59A2,2,0,0,1,41,37.59c-.46.46.41.52.69.5a3.31,3.31,0,0,0,1.94-.7Z"/></g><g class="cls-1"><path class="cls-2" d="M22.3,29.17a3.07,3.07,0,0,1,0,1.21l2.91-.54a1.3,1.3,0,0,1-.09-.68l-2.91.54a11.33,11.33,0,0,0,.15,1.17c.14.82,1.62.49,2.05.32a1.85,1.85,0,0,0,1.17-1.28,4.11,4.11,0,0,0,.08-.6c0-.09,0-.18,0-.27s.17-.29-.07,0l-2.52.28c.11.09.14.29.21.45a5.16,5.16,0,0,0,.42.68c.48.75,2.07.2,2.52-.28s.38-1.23.65-1.95l-2.79.74c.22.2.26.49.4.74.45.88,1.69.51,2.37.14a3.14,3.14,0,0,0,1.07-1.48l-2.81.3c.21.43.19.84.65,1.1a2.15,2.15,0,0,0,2.32-.44,1.9,1.9,0,0,0,.44-.68,1.83,1.83,0,0,0,.11-.33c.06-.29.22-.22-.17,0l-2.06.24c-.28-.2-.14-.16-.1.05a1.25,1.25,0,0,0,.18.41,1.35,1.35,0,0,0,1.17.48A2.51,2.51,0,0,0,29.23,29a1.72,1.72,0,0,0,.4-.45c.05-.08.26-.31.07-.15l-.95.52.07,0-1.09,0c-.25-.26-.33-.28-.24-.07s.05.17.07.26a1.38,1.38,0,0,0,.3.49,1.87,1.87,0,0,0,1.75.25A2.26,2.26,0,0,0,31,28.87a5.11,5.11,0,0,0,.22-.48c0-.09.27-.46.06-.24l-2,.55.11,0-.48-.27c.19.21.25.53.48.75a1.73,1.73,0,0,0,1.4.39,2.56,2.56,0,0,0,1.62-.82,8.16,8.16,0,0,0,.53-.9l-.44.44.08-.06-1.1.38.15,0-.7,0,.14.05-.47-.27c.28.23.37.56.72.71A2.2,2.2,0,0,0,32.9,29a2.17,2.17,0,0,0,.77-.53,3.58,3.58,0,0,0,.29-.39c0-.07.22-.25,0-.07l-.58.39-.63.16-.7,0c-.35-.11-.14.12,0,.39a3.86,3.86,0,0,0,.32.72c.26.44,1.18.34,1.56.23a1.61,1.61,0,0,0,1.24-1c.37-1.59-1.79-1.71-2.75-1.16A1.24,1.24,0,0,0,31.64,29c.16.6.74.77,1.29.85a2.16,2.16,0,0,0,1.9-.83L34.9,29l-2.52.28c.36.39.09,1.05.49,1.45.75.71,2.16.21,2.71-.51.15-.21.26-.43.39-.65l-2.82.07a4.29,4.29,0,0,0,.15,1.18c.12.51.88.56,1.28.52a2.51,2.51,0,0,0,1.53-.65c.19-.19.33-.49.47-.6l-.59.38.1,0-1.93-.1c.21.25.2.67.32,1a1.39,1.39,0,0,0,1,.91l-.59-.72a1,1,0,0,0,0,.55c.18.64,1.21.56,1.68.44a2.33,2.33,0,0,0,1.66-1.08c.61-1.37-2.29-1.16-2.73-.17h0l.58-.39c.18-.06.19-.07,0,0l1.67.45v-.07c.1-.38-.29-.64-.59-.71.34.09.13.18.13,0a2.11,2.11,0,0,0-.12-.48,2.22,2.22,0,0,0-.4-.85c-.45-.52-1.4-.32-1.94-.1a2.24,2.24,0,0,0-.81.55,2.18,2.18,0,0,0-.26.34c-.12.2-.24.19.1,0L35,29.51h-.09L36.2,30a2.55,2.55,0,0,1-.14-.72c.06-1.36-2.4-.66-2.82.07a5.2,5.2,0,0,1-.39.64l2.7-.51c-.07-.06-.07-.48-.1-.59a1.66,1.66,0,0,0-.39-.85c-.61-.66-2-.28-2.52.28a4.24,4.24,0,0,0-.43.52l1.9-.83-.12,0,.6.16c.06,0,0,.26.07,0l-.28.47.07-.07-1,.52-.52.07-.6-.16c-.06,0,0-.13,0,.1l2.8-.75c-.22-.37-.19-.83-.48-1.18a1.55,1.55,0,0,0-1.25-.51,2.51,2.51,0,0,0-1.67.64,2.6,2.6,0,0,0-.3.36c-.31.44-.15.05.37-.15l1.14-.21h-.07l.91.53a1.77,1.77,0,0,0-1.95-1.05,2.47,2.47,0,0,0-1.43.66A1.76,1.76,0,0,0,30,28c-.07.14-.28.35,0,.19l1.46-.39H31.3l.6.16c-.14-.08-.18-.34-.26-.47a1.28,1.28,0,0,0-.72-.5,2.19,2.19,0,0,0-2,.55,2,2,0,0,0-.41.63c0,.11-.09.21-.12.32-.1.26-.3.23.11,0l1.09-.38h-.08l.69.05-.1,0,.47.27c-.14-.13-.14-.38-.22-.56a1.26,1.26,0,0,0-1-.69,2.44,2.44,0,0,0-1.83.49,1.86,1.86,0,0,0-.4.44c-.18.27-.25.2.11,0l1.09-.38h-.1l.7,0-.08,0,.47.27c-.06-.06-.05-.16-.12-.34a1.16,1.16,0,0,0-.47-.58,2.14,2.14,0,0,0-2.06.23,2,2,0,0,0-.73.84,5,5,0,0,0-.16.54L28,28.22c.17.1.11.13.06-.09a1.22,1.22,0,0,0-.09-.27c-.48-1-2.38-.53-2.82.3-.07.15-.14.3-.22.44s-.1.17-.14.26c-.12.26-.27.14.17-.1l2.37.14a3.58,3.58,0,0,0-.61-1.16,1.94,1.94,0,0,0-2.8.75,1.9,1.9,0,0,0-.11.63c0,.11,0,.22,0,.32s0,.21,0,.07l2.52-.28c-.22-.35-.32-.87-.63-1.13a2,2,0,0,0-2.52.28,1.92,1.92,0,0,0-.5,1.1,2.71,2.71,0,0,1-.16.83l.44-.44.16-.09,2,.32a9.36,9.36,0,0,1-.15-1.17c0-.59-1.14-.55-1.47-.49s-1.42.43-1.43,1a2.48,2.48,0,0,0,.1,1.15c.51,1.16,2.56.35,2.91-.54a4.36,4.36,0,0,0,0-1.69c0-.65-1.3-.54-1.68-.44-.59.16-1.24.54-1.22,1.22Z"/></g><g class="cls-1"><path class="cls-2" d="M46.67,34.32h.08a3.57,3.57,0,0,0,1.78-.39c.13-.07.91-.54.52-.73a2.18,2.18,0,0,0-.91-.22H48c-.15,0-.07,0,0,0-.08,0,0,0,0,0a.41.41,0,0,1-.14-.12L48,33,48,33l-.14.29c.09-.08,0,0-.13.08a1.57,1.57,0,0,1-.7.3c.23-.06-.34.07-.16,0s-.35,0-.13,0a1.09,1.09,0,0,1,.18,0c-.08,0-.36,0-.07,0h1a3.31,3.31,0,0,0,1.84-.63c.1-.08.27-.22.23-.38s-.37-.22-.52-.23a4.83,4.83,0,0,0-1.51.2c-.16,0-.12,0,.12,0l-.2,0-.66.14-.66.21c-.16.05-.12,0,.1,0-.16,0-.12,0,.13,0h-.23a3.52,3.52,0,0,0-2,.55c-.13.09-.38.26-.33.46s.37.23.52.23h2.26a3.62,3.62,0,0,0,2.05-.55c.13-.1.38-.26.33-.46s-.38-.23-.52-.23H46.35L44.48,34.2c.35,0,.69,0,1,0,0,0,.27,0,.11,0l.28.06a3.39,3.39,0,0,0,.48.1l.61.06c.12,0-.22-.05,0,0l.16,0c.06,0,.07,0,0,0s-.06,0,0,0,.07,0,.09.08l-.08-.11a.54.54,0,0,1,.05.11c0,.19.37.22.51.23a3.21,3.21,0,0,0,1.07-.13,3.06,3.06,0,0,0,1-.42c.16-.11.35-.24.34-.46a3.08,3.08,0,0,1,0-.53l0,.15a.48.48,0,0,1,.05-.17L47.27,34a.63.63,0,0,1,.11.12L47.3,34a8.61,8.61,0,0,0,1.14,1.6,1.1,1.1,0,0,0,.63.23,3.67,3.67,0,0,0,2-.49c.29-.16.64-.42.47-.78a2.26,2.26,0,0,0-.4-.47l.09.11a.48.48,0,0,1-.1-.29l-2.81.89a4.84,4.84,0,0,1,1.07,1.05c.14.15.59.12.74.11a3.57,3.57,0,0,0,1.13-.25c.26-.1,1.23-.48.86-.87a5,5,0,0,0-1.07-1,2.35,2.35,0,0,0-1.69.07c-.36.12-1.12.35-1.13.82,0,.29.27.48.44.68l-.09-.12a.39.39,0,0,1,.1.27v-.09l.32-.32h0l.6-.29h0l.77-.21a1.14,1.14,0,0,1,1,0l0,0-.12-.09a3.36,3.36,0,0,1-.24-.29l.09.12c-.19-.26-.36-.54-.54-.81A1.9,1.9,0,0,0,50,33c-.37-.26-1.1-.09-1.49,0s-1.08.3-1.3.73a1.59,1.59,0,0,0,0,.84l2.9-.78c-.17-.59-1.14-.58-1.62-.62a1.11,1.11,0,0,0-.17,0s.25.06.09,0a4,4,0,0,0-.76-.16,10.61,10.61,0,0,0-1.26,0,3.52,3.52,0,0,0-2.05.55c-.13.09-.39.26-.33.46s.37.23.51.23h2.39a3.62,3.62,0,0,0,2.05-.55c.13-.1.38-.26.33-.46s-.38-.23-.52-.23H46.47L44.61,34.2A8.32,8.32,0,0,0,46.83,34l.48-.15-.1,0,.18,0-.11,0a3.77,3.77,0,0,0,.67-.14l.18,0c.32-.09.11-.06-.61.06l1.55-1.24H48.5a7.45,7.45,0,0,0-1.06.07,5.19,5.19,0,0,0-1.16.29,2.88,2.88,0,0,0-1.1.63.33.33,0,0,0-.13.3,1,1,0,0,0,.81.45l.42,0s.15,0,.17,0h-.13c.08,0,.08,0,0,0l2.3-1.13h-.09a3.38,3.38,0,0,0-2.05.55c-.13.1-.38.26-.33.46s.37.22.52.23Z"/></g><g class="cls-1"><path class="cls-2" d="M50.15,36.73c.4.42.67.79,1.3.81a3.87,3.87,0,0,0,1.61-.33c.29-.12.76-.32.77-.69s-.2-.43-.33-.63a5.81,5.81,0,0,1-.4-.61l-2.9.77a7.41,7.41,0,0,0,.72,1c.61.59,1.66.33,2.35.07.22-.08.88-.32.92-.62s0-.55,0-.81l-2.79.75a8.73,8.73,0,0,1,.84.88c.29.29,1.18.08,1.5,0a4.71,4.71,0,0,0,.71-.27c.16-.07.52-.27.59-.47.14-.46-.07-.91,0-1.35L52.49,36c-.17,0,0,0,0,0l0,.07a3.27,3.27,0,0,1,.14.33.8.8,0,0,0,.77.53,3.65,3.65,0,0,0,1.31-.19A1.87,1.87,0,0,0,55.88,36c.19-.33.06-.68.11-1l-2.79.75c.24.17.25.54.55.7a1.79,1.79,0,0,0,1.1.07A3.25,3.25,0,0,0,56.23,36a1,1,0,0,0,.5-.77c0-.11,0-.23,0-.34s.08-.19,0-.12l-2.68.59c.16.13.22.34.4.46a2.46,2.46,0,0,0,1.95-.12,1.86,1.86,0,0,0,1.09-.85,5.23,5.23,0,0,1,.25-.59l-2.68.59c.15.18.12.43.35.57a1.82,1.82,0,0,0,1.3,0,2.8,2.8,0,0,0,1.38-.62.71.71,0,0,0,.23-.42c0-.13,0-.19.06-.27l-.31.32.06,0-2.48.43c.23.16.14.46.19.7s.65.26.84.24c.87-.09,2.13-.36,2.45-1.31a3.61,3.61,0,0,1,.16-.47c.18-.29.33-.42.32-.78,0-.58-2.89-.08-2.9.77a1.54,1.54,0,0,1-.15.88,4.86,4.86,0,0,1-.35.53c-.09.09-.09.1,0,0l-.18.11c.2-.11-.1,0-.12.06a1.21,1.21,0,0,1,.3-.11l-.24.07c-.23.07-.46.14-.68.23a6.65,6.65,0,0,0-.61.27l-.21.1.28-.1a1.28,1.28,0,0,1-.35.09l-.71.23c-.23.09-.45.2-.68.3s.1,0,.16-.05a1.72,1.72,0,0,1-.39.1l.09,0c-.24,0-.13,0,.32,0l.19.7s-.36.15-.22.1l.47-.2c.18-.08,0,0-.08,0s.14,0,.15,0a6,6,0,0,0,1.76-.84,9.48,9.48,0,0,0,1-.87,8.32,8.32,0,0,0,.94-.83,7.25,7.25,0,0,0,.84-1.64c.1-.23.2-.47.31-.7l.17-.31s0,0,0,0l0,0,0,0c-.14.1-.17.12-.09.08l-.6.29h0l-.77.21h0l-.67,0h0l-.52-.24c.15.34,0,.7.07,1.06s1.14.2,1.39.15c.48-.11,1.25-.3,1.49-.78a7.24,7.24,0,0,0,.4-1.19c0-.13.09-.26.14-.38l.09-.2c.07-.14,0,0,0,0l-2.77.47c.15.27-.15.47-.27.71a8.53,8.53,0,0,1-.49.95l2.88-.63a2,2,0,0,1,.28-.63,1.5,1.5,0,0,1,.15-.23s.22-.16,0-.06H57.48a5.35,5.35,0,0,1-.75,1.08,2.16,2.16,0,0,0-.65.94c-.16.82,2,.12,2.27,0a3.42,3.42,0,0,0,1.12-.88,12.3,12.3,0,0,1,.77-1c.47-.46-.42-.55-.7-.53a3.25,3.25,0,0,0-1.94.71,9.27,9.27,0,0,0-.72.62c-.2.21-.36.45-.56.66s-.33.27-.55.44a3.42,3.42,0,0,1-.4.26l0,0a2.44,2.44,0,0,1,.84-.23,3.08,3.08,0,0,0-1.94.71c-.44.48.39.56.7.54a6.3,6.3,0,0,0,3.39-1.39,5.59,5.59,0,0,0,1-.91,10.17,10.17,0,0,1,1-.9l-2.64.18a8.46,8.46,0,0,0-.65.83c-.09.11-.19.22-.29.32l-.14.15c-.16.16.09-.05.14-.08h2.28c.06-.31.33-.5.53-.74a7.09,7.09,0,0,0,.88-1.28c.18-.34-.51-.38-.66-.38a3.65,3.65,0,0,0-1.62.39,2.87,2.87,0,0,0-1.68,2.17c0,.18.45.23.51.24a3.57,3.57,0,0,0,.87-.09,2.41,2.41,0,0,0,1.5-.78c.22-.33.33-.7.53-1s.46-.56.26-.91-.88-.25-1.19-.2a3.08,3.08,0,0,0-1.57.67c-.57.54-.55,1.47-.89,2.13l2.88-.63c-.1-.35.08-.71-.08-1.06-.08-.18-.34-.22-.51-.23a3,3,0,0,0-2.9,1.43c-.26.5-.49,1-.71,1.54a2,2,0,0,1-.55.86c-.36.3-.71.63-1.07.93l-.26.19c-.05,0-.24.1-.1.08s.45-.14.14,0l-.56.17a5.49,5.49,0,0,0-.51.21c-.35.15.23-.09,0,0a3.69,3.69,0,0,0-1,.48c-.12.09-.37.26-.33.46s.38.23.52.24a7.71,7.71,0,0,0,3.16-.71l.27-.13c.15-.06-.17.06.07,0-.19.06-.17,0,0,0l.29-.07a6.8,6.8,0,0,0,1-.37,2.1,2.1,0,0,0,.26-.13c.17-.09.05,0-.06,0s.08,0,.11,0l.56-.18a6.51,6.51,0,0,0,.72-.31,4.19,4.19,0,0,0,1.11-.73,4.38,4.38,0,0,0,.62-.88,2.33,2.33,0,0,0,.18-1.17l-2.9.77c0,.24-.27.41-.36.66s0,.2-.09.3,0,.1,0,.15,0,0,.09-.05l.61-.3-.06,0L58,34.56H58l.83.24c-.08-.39,0-.68-.36-.94a1.63,1.63,0,0,0-1.11-.08,3.91,3.91,0,0,0-1.37.51.92.92,0,0,0-.44.47c0,.05-.07.33,0,.26l2.67-.59c-.15-.1-.21-.42-.35-.57s-1-.09-1.3,0a2.8,2.8,0,0,0-1.38.62,1.51,1.51,0,0,0-.33.54,1.28,1.28,0,0,1-.2.44l2.5-.67c.07,0,0,0-.06-.1a1.13,1.13,0,0,0-.24-.29c-.32-.25-1-.11-1.3,0a2.72,2.72,0,0,0-1.38.62.88.88,0,0,0-.28.64v.26c0,.19-.11.21.14,0l2.48-.43c-.26-.14-.29-.51-.55-.69s-1.11-.1-1.5,0a4.66,4.66,0,0,0-.71.26c-.12.06-.56.29-.59.47,0,.36.07.77-.13,1.08l1.69-.82h0l.68,0h0l.43.12c-.1,0-.06,0-.11-.12s-.09-.22-.14-.32a.92.92,0,0,0-.59-.55,2.78,2.78,0,0,0-1.51.15c-.29.09-1,.31-1.11.67s.1.93,0,1.36l2.8-.75a7.87,7.87,0,0,0-.85-.88c-.35-.27-1.13-.1-1.49,0a4.41,4.41,0,0,0-.72.26c-.12.06-.55.29-.58.47s0,.55,0,.82l.92-.62,0,0,1.13-.25.54.07-.06,0s-.1-.08-.14-.12a2.26,2.26,0,0,1-.25-.28c-.11-.14-.22-.3-.32-.45-.48-.67-3.19.24-2.9.77a6.28,6.28,0,0,0,.45.69.89.89,0,0,1,.28.56l2.38-1c.17,0,.12.06.06,0a1.29,1.29,0,0,0-.17-.16c-.12-.12-.22-.25-.33-.37s-.58-.12-.74-.11a3.93,3.93,0,0,0-1.13.24c-.25.1-1.23.49-.85.88Z"/></g><g class="cls-1"><path class="cls-2" d="M66.84,42.67c0,.21,0,.41,0,.62v-.2c0,.33-.12.62-.12,1a.46.46,0,0,0,.29.3,1.52,1.52,0,0,0,.59.12,2.87,2.87,0,0,0,1.79-.54,2.4,2.4,0,0,0,1-1.69l-.1-.17a.7.7,0,0,0-.33-.17,1.89,1.89,0,0,0-.82,0,2.33,2.33,0,0,0-1.55.76,3.28,3.28,0,0,0-.36.81c0-.09,0-.1,0,0a1.62,1.62,0,0,1-.1.18c-.07.13-.15.26-.23.38l2.69,0a3.47,3.47,0,0,1,.37-.57L70,43.3c.13-.17-.17.15,0,0l.12-.11-.14.1a2,2,0,0,1-.55.22l-1.53-.14v0l-.1-.18s0,0,0,.05v-.2a.19.19,0,0,1,0,.07c0,.05.11-.16.05-.11s-.08.12-.12.16-.27.29,0,0l-.14.15a1.92,1.92,0,0,0-.37.48l-.14.27-.07.11c-.11.19.17-.15,0,0l2.6-.16v.17a.28.28,0,0,1,0-.09c.06-.13,0,.06,0,.07s.11-.16.15-.22l.34-.42a3.47,3.47,0,0,0,.29-.38l.18-.29a.69.69,0,0,0,.11-.13l-.1.11c.1-.08.06,0-.12.08L68.1,43V42.8a.9.9,0,0,0,0,.16s.12-.21,0-.07L68,43c-.09.13-.19.24-.28.36a1.08,1.08,0,0,0-.27,1c.19.39.68.43,1.07.4a2.56,2.56,0,0,0,1.54-.57,6.79,6.79,0,0,0,.79-1.06l.33-.46a1.37,1.37,0,0,1,.17-.23c-.11.12-.12.14,0,.06l.1-.08-2.61.17a.35.35,0,0,1,0,.14v-.2c0,.41-.47.84-.24,1.26a1,1,0,0,0,1.06.4,2.53,2.53,0,0,0,1.54-.56,3,3,0,0,0,.62-.91c.08-.18,0,.06,0,0l.08-.15a1.1,1.1,0,0,0,.09-.14c.06-.06,0,0-.09.11a1.66,1.66,0,0,1-.41.23H69.61a.76.76,0,0,1,.09.09l-.11-.17a.62.62,0,0,1,.08.31v-.21c0,.4-.18.86,0,1.24s.86.45,1.25.39a4.15,4.15,0,0,0,.77-.2,1.74,1.74,0,0,0,.78-.56A6.33,6.33,0,0,1,72.8,43l.19-.29a1.71,1.71,0,0,0,.11-.14c0-.05.21-.22,0,0l-2.05.54c-.51-.12-.45-.29-.35-.13l-.11-.18a.58.58,0,0,1,0,.29v-.2c0,.39-.19,1,.12,1.27s1.22.24,1.71.1c.08,0,.36-.08,0,0s.21,0-.24,0A1.14,1.14,0,0,1,71.5,44l-.1-.18s0,0,0,.08v-.2l0,.12c-.08.22.11.42.29.5a1.72,1.72,0,0,0,.95.1c.58-.09,1.44-.35,1.65-1s-.52-.87-1-.87a3.71,3.71,0,0,0-1,.13l-.15,0-.08,0a3.29,3.29,0,0,1,.66-.09l.78.25v0l.1.17a.47.47,0,0,1,0-.26v.2c0-.29,0-.57,0-.86a.74.74,0,0,0-.68-.7,2.52,2.52,0,0,0-2.12.61,4,4,0,0,0-.47.54,5.14,5.14,0,0,0-.53.94l2.79-.37a.78.78,0,0,1,0-.26v.2c0-.48.28-1.19-.19-1.54a2,2,0,0,0-1.91,0,2.45,2.45,0,0,0-1.21,1L69,43l-.05.11L69,43c0,.06-.06.12-.1.18s-.22.24,0,0L71.53,43a.38.38,0,0,1,0-.15v.2c0-.45.42-.77.26-1.25s-.73-.43-1.06-.41a3,3,0,0,0-1.55.57,4.35,4.35,0,0,0-.85,1,4.76,4.76,0,0,0-.31.47l-.15.24-.09.11,0,0,2.61-.17a.29.29,0,0,1,0-.16v.2l0-.16,0,.08a.22.22,0,0,0,0-.08c.08-.11.17-.21.25-.31a1.36,1.36,0,0,0,.35-1c0-.35-.65-.41-.88-.41a2.61,2.61,0,0,0-1.46.39,2.92,2.92,0,0,0-.89.86,4.6,4.6,0,0,1-.37.53,2,2,0,0,0-.67,1.3c0,.13.2.26.3.31a1.68,1.68,0,0,0,.77.1,2.63,2.63,0,0,0,1.54-.57,2.56,2.56,0,0,0,.59-.8,2.53,2.53,0,0,0,.13-.22c0-.11-.2.21-.09.1a.47.47,0,0,1,.1-.1,4.55,4.55,0,0,0,.49-.58.65.65,0,0,0,.06-.83l-.19-.12A.94.94,0,0,0,70,42a2.32,2.32,0,0,0-.91.08A3.68,3.68,0,0,0,66.86,44c-.1.21-.18.39,0,.58a1.16,1.16,0,0,0,.78.25,3.22,3.22,0,0,0,1.14-.23,1.73,1.73,0,0,0,.77-.56,6.1,6.1,0,0,0,.41-.7,3.49,3.49,0,0,0,.2-.44l.06-.17c.06-.17-.08.11,0-.05L67.46,43v-.17a1.29,1.29,0,0,1-.06.21c0,.1.09-.16,0,0l-.06.12-.1.17a.47.47,0,0,0-.06.09c-.06.07,0,.07,0,0a1.13,1.13,0,0,1,.51-.33l.77-.2.26,0,.88.41v.15c0-.22.11-.41.12-.62s0-.6,0-.9-.41-.36-.56-.39a2.48,2.48,0,0,0-1.08.07,2.29,2.29,0,0,0-1,.48.74.74,0,0,0-.3.61Z"/></g><g class="cls-1"><path class="cls-2" d="M70.65,41.8a10.8,10.8,0,0,1,.2-1.7A7.9,7.9,0,0,0,71,38.83a6.48,6.48,0,0,1,0-1.76l-.08.28s0,0,0-.06a1.4,1.4,0,0,1-.67.62l-2.1-.48a1.47,1.47,0,0,1,0,.29l0-.28c0,.37,0,.75,0,1.13s0,.84,0,1.26a5.39,5.39,0,0,1-.06,1.06,2,2,0,0,0,0,1.15,1.36,1.36,0,0,0,1.71.62,2.24,2.24,0,0,0,1.38-1.06,2.76,2.76,0,0,0,.25-.8c.12-.58.18-1.17.35-1.75l-.08.28c.15-.5.29-1,.44-1.5l-.09.28a2.6,2.6,0,0,0,.1-.25c0-.11-.15.21-.08.12s-.28.22-.1.12l-2.42-.29c.13.33.32.64.48,1l-.13-.26a4.33,4.33,0,0,1,.27,1,7.42,7.42,0,0,1,.14,1l0-.28c0,.29,0,.59,0,.88a.83.83,0,0,0,.35.74,1.57,1.57,0,0,0,1,.23,2,2,0,0,0,1.09-.4,1.17,1.17,0,0,0,.51-.78,11.09,11.09,0,0,0-.17-2.08,6.59,6.59,0,0,0-.2-.88,6.57,6.57,0,0,0-.47-1l.13.25a1.47,1.47,0,0,1-.1-.22,1.07,1.07,0,0,0-.95-.67,2.12,2.12,0,0,0-1.46.39,2.66,2.66,0,0,0-1,1.81l.08-.28c-.16.56-.36,1.11-.47,1.68s-.13.88-.25,1.31l.08-.28a1.8,1.8,0,0,1-.08.21q-.09.16.09-.12a1.52,1.52,0,0,1,.74-.44l1.72.62a1,1,0,0,1,0-.17l0,.28a6.17,6.17,0,0,1,.14-1,9.63,9.63,0,0,0,0-1.2c0-.43,0-.86,0-1.28a4.14,4.14,0,0,0-.05-1.27,1,1,0,0,0-.78-.64,2.11,2.11,0,0,0-1.31.16,1.58,1.58,0,0,0-1,1.48c0,.38,0,.76,0,1.14A5.42,5.42,0,0,1,68,40a13.63,13.63,0,0,0-.25,2c0,.71.71,1,1.34,1a2,2,0,0,0,1.09-.4,1.18,1.18,0,0,0,.51-.78Z"/></g><g class="cls-1"><path class="cls-2" d="M6.53,25.76a2.84,2.84,0,0,0,.11.71,3.14,3.14,0,0,1,0,.75l2.9-.77c0-.45.09-.88.12-1.32s0-.91,0-1.37c0-.16-.46-.16-.5-.16a3.77,3.77,0,0,0-1.06.15,4.25,4.25,0,0,0-1,.39c-.16.1-.33.2-.35.4,0,.46.27.81.41,1.22s.21.78.53.95a1,1,0,0,0,.57.07,4.45,4.45,0,0,0,.9-.15,5.55,5.55,0,0,0,.72-.25c.14-.06.53-.24.6-.42a2.22,2.22,0,0,0-.19-1.49,2.7,2.7,0,0,0-.67-1.11A1.33,1.33,0,0,0,9,23a2,2,0,0,0-.74,0,5,5,0,0,0-1.63.43,1.88,1.88,0,0,0-1,.77,2.49,2.49,0,0,0-.19.71,6.87,6.87,0,0,0-.08,1,1.39,1.39,0,0,0,0,.73c.09.16.34.17.5.17a4.14,4.14,0,0,0,.86-.12,4.82,4.82,0,0,0,.91-.29,1.34,1.34,0,0,0,.6-.42A1.51,1.51,0,0,0,8.42,25c0-.38,0-.76,0-1.14,0-.16-.45-.16-.5-.16a3.43,3.43,0,0,0-1,.16,3.41,3.41,0,0,0-1,.39c-.15.09-.35.19-.35.39s0,.66,0,1a4.57,4.57,0,0,1,0,.74l0-.12a.64.64,0,0,1-.1.24l2.88-.66c-.13-.22,0-.54,0-.79a5.64,5.64,0,0,1,.1-1.08l0,.12a1.43,1.43,0,0,1,.27-.65l-.13.13.07-.06-.05,0a1.12,1.12,0,0,1-.28.16L6.69,24,6.5,24l.1,0L6.42,24a1.29,1.29,0,0,1,.55.4l-.08-.09a2.62,2.62,0,0,1,.53.93,2.93,2.93,0,0,1,.25,1.3l0-.12a.42.42,0,0,1,0,.1l2.8-.75a.34.34,0,0,1-.12-.09l.08.09a3,3,0,0,1-.37-.87c-.14-.38-.41-.69-.37-1.12l-2.9.78c0,.45,0,.91,0,1.37s-.13.87-.12,1.31c0,.16.45.17.5.17a3.78,3.78,0,0,0,1.06-.16,3.85,3.85,0,0,0,1-.39c.15-.09.35-.2.35-.39a3.85,3.85,0,0,0,0-.76,3.42,3.42,0,0,1-.12-.7c0-.16-.45-.17-.5-.17a4.17,4.17,0,0,0-1,.16,3.72,3.72,0,0,0-1,.39c-.15.09-.35.2-.35.39Z"/></g><g class="cls-3"><path class="cls-2" d="M3.47,24.09C5.59,28.55,9.58,35.62,15.62,32c5-3,2.68-8.6,2.16-12.93L7.54,23.34A17.12,17.12,0,0,0,15,28.71c3.42,1,8-1.85,7.59-5.79a13.41,13.41,0,0,0-1.39-4.65c-.5-1.19-1.58-5.39-1.17-2.14L9.83,20.37c2.73,2.23,4.17,5.21,7.74,6.43,4.6,1.56,8.26-3.2,7.38-7.38a14.65,14.65,0,0,0-1.69-3.71c-.38-.7-.71-1.45-1.13-2.14a10.23,10.23,0,0,0-.73-1q-1.35-1.87.51,1.51l-11.18,3a30.48,30.48,0,0,0,5.43,6.53c.75.71-.34-1.23.07.31-.06-.22.9,5,.68,2.08l1.76-4.24c-1.71,1.72-4.32,3.74-5.58,4.79-.12.1-6.54,6.31-2.09,3.12a6.22,6.22,0,0,0-2.75,6.77l.12.51a6,6,0,0,0,4.2,4.19c1.47.34,1.64.25,2.38,1.12l-1.76-4.24.07.9L15,34.71c3.13-2.87-1.13.6-1.62,1a7.38,7.38,0,0,0-2.06,3.4c-1.32,4.19,3.09,8.89,7.38,7.38a19.19,19.19,0,0,0,2.17-.86q1.83-.82-1-.78-.49-5.9-1.59-2c-.12.76-.22,1.53-.28,2.3-.37,3.9,4.13,6.82,7.59,5.79a28.44,28.44,0,0,0,3-1.16H22.55c-2-1.37-1.12-.7.13.68a14.57,14.57,0,0,0,2.59,2.11A31.25,31.25,0,0,0,30.89,56c2,.86,4.31-.3,5.84-1.54a19.1,19.1,0,0,1,1.58-1.54H32.25c1.41.75,2.49,3.35,1.12,0,1.62,3.91,6.63,6.29,10,2.65,1.44-1.55,2-3.46,3.14-5.11l-5.18,3c2.82-.09,6,.93,9,.23,3.25-.76,4.13-3.43,5.83-5.76l-3.58,2.76c2.41-.41,4.75.57,7.18-.32,1.67-.62,2.07-1.32,3.32-2.38,1.92-1.61-.31-1.18,1.58-1l-5.18-9,1-1c-3.9,2.78-4,9.72,1.44,11,2.62.6,5.39.36,8.07.56,6.11.45,7.93-8.32,3-11.18A12.81,12.81,0,0,0,69.31,36c-.87-.19-4-1.23-2.45-.33V46.07c3.89-2.86,9.87-5.93,11.34-10.91,1.42-4.82-3.09-8-7.38-7.38-1.76.26-3.07,1.22-4.65,1.89l8.21,8.21c.28-.56,2.44-2.38,3.23-3.28,4.31-4.9-1.19-13.19-7.27-9.43a34.68,34.68,0,0,0-3.17,2.52l10,5.83c-.89,2.56,1.84-1.66,2-1.94a11.87,11.87,0,0,0,1-4.49c.77-6.05-8.52-8-11.18-3a11.91,11.91,0,0,0-1,2.17L70,26q-3-.75-.36.59c2.65,1.7.54-.42-.13-1.09a10.66,10.66,0,0,0-3.72-2.27C62.05,21.87,55,21.52,52,24.65c-.33.35-1.49,1.61-1.53,2.09-.1,1.35,6,.41,2.26-.45-2.7-.61-5.08.33-7.49,1.45-4,1.84-6.93,6.28-11.18,7l4.62.61c.85.49,1.11,3.45,1,1.16a16.8,16.8,0,0,0-.57-1.69c-.28-1.77,0-3.41-.7-5.16a14,14,0,0,0-8.33-7.61c-9.46-2.9-13.14,10-6.76,15.56,1.45,1.26,3.21,2,4.69,3.28a22.29,22.29,0,0,0,4.66,3.61c3.93,1.88,9,1.85,13.22,1.33a74.81,74.81,0,0,0,11-2.54c3.6-1,6.33-3.53,10-4.36l-6.78-8.81a13,13,0,0,1-1.42,2.62c-4.08,6.58,6.3,12.62,10.36,6.06a12.79,12.79,0,0,0,1.42-2.62c2.23-4.75-1.42-10-6.77-8.82a30.32,30.32,0,0,0-8.05,3.37c-2.24,1.22-4.88,1.65-7.34,2.34-2.79.77-6.73,1.87-9.56.88a11.61,11.61,0,0,1-3.42-2.49c-.76-.67-1.55-1.3-2.36-1.9-1.68-1.54-2.21-.73-1.61,2.4L27.2,33.75c-1.72-.91-2-1-.95-.22.37.61.68.64.91.09.43.7.19,3.69.39,4.54A17.92,17.92,0,0,0,29,42.65c3,5.05,9.44,4.28,13.81,1.7,2.28-1.35,3.76-3.59,6-5,.62-.39,1.41-.65,2.08-1l1.43-.61q-5.4-.6-2.71.36C55.18,40.44,58.1,35,61,32.75l-4.24,1.76a22.74,22.74,0,0,0,3.5,0c1.48.31,1.75.13.84-.54-.72-.79-.71-.69,0,.31a8.76,8.76,0,0,0,6.63,3.62c5.84.52,9.1-3,11.68-7.8l-11.18-3q2.45-4,.09-1.23c-.3.37-.6.75-.89,1.13a12.46,12.46,0,0,0-1.78,3.34c-2.18,6.28,5.84,9.17,10,5.84,1.15-.85,1.39-1.06.74-.64l-7.27-9.42c-1.64,1.87-4,3.44-5.11,5.71C61.2,37.54,66.77,42.35,72.23,40A7.08,7.08,0,0,1,74,39.35L66.63,32q1.65-2.4.34-1.12a21.29,21.29,0,0,1-1.85,1.71c-1.36,1.18-2.87,2.09-4.32,3.15-3.52,2.59-4.19,7.91,0,10.36a13.85,13.85,0,0,0,4.28,1.29c-.35-.06,3.15,1,2,.33l3-11.18c-1.43-.11-3.61.16-4.88-.13l1.43,11A10.65,10.65,0,0,0,69.89,44c2.52-4.23-.83-8.59-5.18-9a11.14,11.14,0,0,0-6.8,1.52,8.87,8.87,0,0,0-2.8,2.17c-2.5,3.25,5.51.1.2,0-2,0-4.77,0-6.59.77-2.31,1-4.09,4.37-4.62,5.31L47.68,42c2-.58-3.2-.14-3.14-.14-1.66-.16-3.09-.65-4.78-.15a7.2,7.2,0,0,0-4.09,3.48,5.75,5.75,0,0,1-1,2q-1.34,2.91.26-.06l10,2.64a13.05,13.05,0,0,0-6.32-7c-4.71-2.29-7,.49-10.37,3.24l5.83-1.54c2.74,1.15-1.94-1.61-2.24-1.89.09.09-1.51-1.88-1.33-1.69-2.3-2.43-5.17-2.31-8.08-1.45L30,45.16c-.34,3.6.2.28.4-.62a9.37,9.37,0,0,0,.06-3.91,9.06,9.06,0,0,0-3.65-5.53C22.49,32,19.77,33.49,15.53,35l7.38,7.38c-.23.75-4.64,4.39-1.32,2.42A8.38,8.38,0,0,0,24,42.59a7.09,7.09,0,0,0,1-6.13c-1.29-4.26-6.09-6.13-9.22-6.86L20,33.79l-.13-.51-2.76,6.78A10.78,10.78,0,0,0,20,36.88c.23-.36,1.93-2.54.44-.89s.38-.15.82-.47c2.8-2,7.07-5,7.57-8.69a9.8,9.8,0,0,0-.73-4.78c-1-2.81,1.38,4.76,0-.28-.18-.64-.39-1.24-.62-1.87-1.37-3.68-4.34-5.63-6.31-8.85-3.08-5-11.17-3-11.19,3,0,2.48.75,3.61,1.95,5.64-.25-.43.81,1.8.6,1.42.21.39,1.19,2.76.92,1.47l7.38-7.38c3.84,1.3,1.08.59-.13-.7a25.19,25.19,0,0,0-2.32-2.64c-3.47-2.82-11-1.5-10.24,4.24a18.16,18.16,0,0,0,1.41,5c.33.77.65,1.54,1,2.29.62,1.25.56,3.4.13-.54l7.6-5.78c1.53.44.85.59-.24-.44a20,20,0,0,1-2-1.84C12.89,11,5.18,14,5.78,19.1c.19,1.62.58,3.09.92,4.67.28,1.33.18,1.3.11,1.48L11,21.06l-.4.06,5.83,1.55c-1-.94-1.95-3.28-2.6-4.63-3.31-7-13.66-.89-10.36,6.05Z"/></g><g class="cls-4"><path class="cls-2" d="M28.74,54a3.09,3.09,0,0,0,1,.58l.71.22s.24.1.27.08-.26-.09-.11,0l.12,0c.38.14.77.25,1.16.36l.25.07s-.25-.08-.11,0l.13.05a1.8,1.8,0,0,1,.46.23l-.19-.13.12.09a1.93,1.93,0,0,0,1.92,0,1.64,1.64,0,0,0,.78-.56c.1-.18.19-.44,0-.61a3.1,3.1,0,0,0-1-.55c-.23-.07-.47-.15-.71-.21l-.24-.07a1.27,1.27,0,0,0-.24-.07l.12,0-.1,0-.23-.08-.69-.21L32,53.12c-.14,0,.07,0,.1,0a3.46,3.46,0,0,1-.71-.33l.2.14-.17-.14a2,2,0,0,0-1.92,0,1.73,1.73,0,0,0-.78.57.47.47,0,0,0,0,.6Z"/></g><g class="cls-4"><path class="cls-2" d="M30.93,48.24c.17.26.25.55.42.8a4.4,4.4,0,0,0,.6.62,4.35,4.35,0,0,0,1.21,1,7.06,7.06,0,0,1,1.69,1.11c.41.38.65.92,1.08,1.29a3.3,3.3,0,0,0,.65.39,2.29,2.29,0,0,1,.61.63,4.89,4.89,0,0,0,1.14,1.13,3.37,3.37,0,0,0,2,.29c.67,0,1.35,0,2,0a4.09,4.09,0,0,0,2-.55c.44-.27.42-.58-.16-.58s-1.3,0-1.95,0-1,.08-1.53-.37a10.37,10.37,0,0,1-1-1.11c-.34-.41-.86-.51-1.22-.89s-.58-.84-1-1.19a7.25,7.25,0,0,0-1.53-1,3,3,0,0,1-.7-.38c-.21-.18-.36-.4-.55-.59a6.63,6.63,0,0,1-.54-.52c-.18-.25-.26-.56-.43-.81-.45-.68-3.1.46-2.9.77Z"/></g><g class="cls-4"><path class="cls-2" d="M35.82,43.47c.26.29.37.66.6,1a3.23,3.23,0,0,1,.53.7,6.09,6.09,0,0,0,1.27,1.72,10,10,0,0,0,.9.71,6.86,6.86,0,0,1,.78.93c.46.56,1.15,1,1.56,1.59a2.51,2.51,0,0,0,.59.78,8.78,8.78,0,0,0,.76.48,6.47,6.47,0,0,0,2.42.94,40.72,40.72,0,0,0,5.74.09,2.19,2.19,0,0,0,1.9-.82c.33-.58-.27-1-.81-1a50.27,50.27,0,0,1-5.21,0,4.75,4.75,0,0,1-1.9-.79,1.71,1.71,0,0,1-.59-.47,4.74,4.74,0,0,0-.56-.77A13.17,13.17,0,0,1,42.3,47c-.43-.58-1.08-.89-1.55-1.43l-.68-.81a5.13,5.13,0,0,1-.41-.81,5.81,5.81,0,0,0-.56-.65c-.23-.31-.34-.67-.6-1-.71-.82-3.49.24-2.68,1.18Z"/></g><g class="cls-4"><path class="cls-2" d="M42.87,41.82a5.44,5.44,0,0,1,.92,1,6.64,6.64,0,0,0,.56.92,6,6,0,0,0,1.58,1.33c.24.14.34.43.58.55s.37.07.56.18a2.45,2.45,0,0,1,.35.29,17.52,17.52,0,0,0,1.94,1.49,12.71,12.71,0,0,0,4.38,1.92,15.32,15.32,0,0,1,2.53.84,7,7,0,0,0,2.33.35,4,4,0,0,0,2-.55c.44-.27.42-.53-.15-.53a5.42,5.42,0,0,1-2.2-.52A10.19,10.19,0,0,0,56,48.42a8.78,8.78,0,0,1-2.24-.88,17.7,17.7,0,0,1-2.07-1.2c-.59-.43-1.15-.89-1.71-1.35a8.81,8.81,0,0,0-.81-.41,5.58,5.58,0,0,0-.6-.49A4.9,4.9,0,0,1,47,42.57a7.12,7.12,0,0,0-1.35-1.7c-.34-.33-1.48.08-1.85.21-.2.07-1.22.43-.89.74Z"/></g><g class="cls-4"><path class="cls-2" d="M50.34,42.4c.26.22.48.15.79.24a1.62,1.62,0,0,1,.41.27,4.28,4.28,0,0,0,1.38.66,5.83,5.83,0,0,0,4-.57,2.12,2.12,0,0,0,.35-.23c.28-.25-.89.29-.3.15a5.37,5.37,0,0,0,1.24-.5,3.73,3.73,0,0,0,.7-.47c.16-.16-.21,0,0,0a3.26,3.26,0,0,0,.44-.15,8.55,8.55,0,0,0,.95-.38,3.85,3.85,0,0,0,.8-.42c0,.07-.68.17,0,0l.33-.07s.32,0,0,0a4.13,4.13,0,0,0,2-.39c.19-.09,1-.62.38-.68a9.38,9.38,0,0,0-3.81.6c-.52.19-1,.47-1.46.7s-1.26.41-1.84.77l-.64.44s.83-.27.31-.14a5.67,5.67,0,0,0-.73.24,3.5,3.5,0,0,0-.94.53c.84-.71,2-.42,1.24-.44l-.36,0A2.85,2.85,0,0,1,54.35,42a2.59,2.59,0,0,0-.67-.37l-.27-.06c-.38-.05-.12.06-.34-.12-.39-.32-1.45.06-1.85.2-.19.07-1.24.46-.88.76Z"/></g><g class="cls-4"><path class="cls-2" d="M67.8,45.7a7.52,7.52,0,0,0,.93-1.1,4.46,4.46,0,0,0,.74-1.09l-2.79-.4a3.33,3.33,0,0,0-.18.93,3.21,3.21,0,0,1,0,.58,2.42,2.42,0,0,0-.3,1.47c.23,1,1.82.82,2.42.33a2.91,2.91,0,0,0,1-1.89A5.7,5.7,0,0,1,70.3,43l-2.87-.11c0-.1,0,.06,0,.08l-.09.13a6,6,0,0,0-.42.69,5.74,5.74,0,0,1-.52,1l-.35.42s-.21.23-.17.18l-.14.13a13.84,13.84,0,0,0-1.2,1.1A.89.89,0,0,0,64.76,48a1.79,1.79,0,0,0,1.94-.23c.8-.75,1.62-1.49,2.39-2.27s1.26-1.55,2-2.26a.9.9,0,0,0-.26-1.42,1.85,1.85,0,0,0-2,.23,3,3,0,0,0-.92,1.34,6.45,6.45,0,0,1-.41,1.14l2.87.11A2.8,2.8,0,0,1,70.6,44c.19-.32.41-.62.59-.94a6.15,6.15,0,0,1,.39-.85.25.25,0,0,1-.13.14l.25-.24a2.27,2.27,0,0,0,.36-.55l-2.87-.11c-.07,1.09,0,2.18,0,3.27l3-.19a3.69,3.69,0,0,1,.18-1.24l.15-.5c0-.1.07-.2.11-.29s.21-.33,0-.09l-2.68-.09a3.33,3.33,0,0,1,0,1.37c0,.24-.14.47-.17.72s0,.65,0,1c-.08,1.46,2.53,1.24,2.87.11A27.36,27.36,0,0,1,74,42.39l-2.87-.11A13.64,13.64,0,0,1,71,44.2c-.11.59-.26,1.15-.33,1.75l3-.18c0-.14.07-.11,0,.07a1.55,1.55,0,0,0,.07-.23c.07-.16.14-.32.22-.48S74,45,74,44.9c.14-.28-.14.18,0-.06,0,0,.14-.22.16-.21l-.14.14c.3-.24,0-.15-.84.28L72,44.58c.09.13.1.16,0,.07h0c0,.13,0,.13,0,0,0,.07,0,.13-.07.19a2.37,2.37,0,0,0-.23,1c.07,1,1,1.1,1.76,1a2.31,2.31,0,0,0,1.58-1.26c0-.07.07-.15.12-.23-.1.16,0,0,.07-.07s.17-.2,0-.06a2.25,2.25,0,0,1,.3-.24,1,1,0,0,0,.13-1.59,1.83,1.83,0,0,0-2.08.15,4.27,4.27,0,0,0-.91.89c-.13.18-.24.38-.35.57a.69.69,0,0,0-.1.19c0,.06,0,.06,0,0a.86.86,0,0,1,.64-.46l1.76,1a2.43,2.43,0,0,1,0-.27c0-.12-.06.13,0-.06a3,3,0,0,0,.22-.66,1.73,1.73,0,0,0-.32-1.39,1.32,1.32,0,0,0-1.21-.47,2.79,2.79,0,0,0-2.15,1.57A4.48,4.48,0,0,0,70.69,46c-.18,1.55,2.78,1.21,3-.18.07-.6.22-1.17.33-1.76a15.26,15.26,0,0,0,.08-1.91c.08-1.54-2.41-1.13-2.87-.11a29.22,29.22,0,0,0-1.37,3.14l2.87.1c0-.32,0-.64,0-1s.16-.57.2-.87a5,5,0,0,0-.08-1.81c-.3-1.13-2.13-.81-2.68-.09a4.46,4.46,0,0,0-.63,1.43,5.75,5.75,0,0,0-.34,1.83,1.14,1.14,0,0,0,1.36,1c.62-.06,1.56-.47,1.59-1.22,0-1.08-.05-2.17,0-3.26.05-.67-.59-1-1.17-1a1.79,1.79,0,0,0-1.69.92.61.61,0,0,1,.15-.17l-.32.32a2.8,2.8,0,0,0-.31.5c-.09.17-.15.36-.23.54a1.69,1.69,0,0,1-.13.27,5.6,5.6,0,0,0-1,2.14c-.1.66.64,1,1.17,1a1.86,1.86,0,0,0,1.7-.92,5,5,0,0,0,.34-.91c0-.15.09-.3.14-.45s.08-.23,0-.12.16-.13,0,0l-2.21-1.2c-.65.67-1.18,1.46-1.83,2.14s-1.35,1.27-2,1.91L67,47.51c.09-.1.22-.2.41-.37s.38-.32.57-.49A8.9,8.9,0,0,0,69,45.43a12.78,12.78,0,0,0,.66-1.25,4.48,4.48,0,0,0,.71-1.49c.11-.66-.64-1-1.17-1a1.82,1.82,0,0,0-1.69.92,6.12,6.12,0,0,0-.77,1.61c-.06.23-.1.46-.14.7s0-.06,0,.16,0,0,.09-.07l2.42.33a.29.29,0,0,1,0,.16,2.29,2.29,0,0,1,.1-.23,4.07,4.07,0,0,0,.18-.44,3,3,0,0,0,.11-.78,2.15,2.15,0,0,1,0-.51c.56-1.63-2.3-1.69-2.79-.4q-.09.22,0,.06a1.19,1.19,0,0,1-.15.18l-.25.3L66,44s-.34.4-.2.27c-.47.43-.73,1.14-.13,1.59a1.81,1.81,0,0,0,2.09-.15Z"/></g><g class="cls-4"><path class="cls-2" d="M2.23,23.18c.09.83.32,2.23,1.32,2.36A3.29,3.29,0,0,0,5.74,25c.44-.31.41-.93.41-1.43a9.8,9.8,0,0,1,0-2.65l-2.79.75a2.53,2.53,0,0,1,.27,1.24,7.93,7.93,0,0,0,.17,1.19c.13.65.2,1.49.81,1.88A1.82,1.82,0,0,0,5.89,26a2.41,2.41,0,0,0,1.37-.65,2.13,2.13,0,0,0,.35-1.2c0-.43.11-.86.16-1.29A17.06,17.06,0,0,1,8,20.3l-2.88.61c0,1.25.21,2.49.17,3.73a10.79,10.79,0,0,0,.08,2.13.9.9,0,0,0,.53.74A2.69,2.69,0,0,0,8,27.2a1.46,1.46,0,0,0,.73-.78,8.91,8.91,0,0,0,.23-1.37c.05-.21.07-.42.1-.63A2.7,2.7,0,0,1,9.12,24c0-.06.14-.31.05-.19l-2.77.44a4.69,4.69,0,0,1,0,1.83c0,.8,0,1.62,0,2.42,0,.65,2.9.18,2.9-.77s0-1.63,0-2.43a4.69,4.69,0,0,0-.06-1.83c-.13-.39-.92-.31-1.21-.26a2.55,2.55,0,0,0-1.56.7,3.49,3.49,0,0,0-.46,1.59c-.06.26-.07.52-.11.78s0,.26-.07.39a1.66,1.66,0,0,1-.06.21c0,.11.1-.09,0,.05L8,26.24l.32.09c-.06,0,0,.06,0,0a.83.83,0,0,1-.08-.22,2.72,2.72,0,0,1-.1-.57,12.71,12.71,0,0,1,0-1.38c0-1.36-.2-2.7-.16-4.05,0-.2-.44-.28-.53-.29a3.24,3.24,0,0,0-.88.07c-.43.09-1.33.32-1.48.83a13.32,13.32,0,0,0-.2,2.44c0,.4-.13.8-.17,1.2s0,.82-.15,1.08l2.69-.58c-.55-.34-.53-1.19-.67-1.76-.21-.88,0-1.76-.59-2.54-.23-.34-1.22-.13-1.51,0s-1.17.33-1.28.78c-.31,1.24.21,2.5-.07,3.73l.57-.51,0,0,.71-.28.32-.07.68,0,.29.08s-.06-.05-.07-.06.05.08,0,0l-.06-.11a3.68,3.68,0,0,1-.23-.66,6,6,0,0,1-.21-1c0-.2-.41-.27-.53-.29a3,3,0,0,0-1.07.11c-.39.11-1.36.4-1.3,1Z"/></g><g class="cls-4"><path class="cls-2" d="M12.87,26.24c-.28-.25-.18-.87-.4-1.25-.31-.55-1.11-.5-1.64-.34-.34.1-1.49.54-1.25,1.11a10.42,10.42,0,0,0,1.93,3.06,2.13,2.13,0,0,1,.47.53,6.11,6.11,0,0,0,.35.67,1,1,0,0,1,.25.64,3.53,3.53,0,0,0,.15.85,7.41,7.41,0,0,0,.24.76,1.41,1.41,0,0,1,.16.59,1.17,1.17,0,0,0,.13.84,1.85,1.85,0,0,0,.53.47,3.55,3.55,0,0,0,1.36.53,3.73,3.73,0,0,0,1.25-.05,4.37,4.37,0,0,0,.49-.12c.4-.12.46,0-.32-.05a2.62,2.62,0,0,0,2.05-.55c.41-.37.36-1-.28-1A4.1,4.1,0,0,0,16.9,33c-.1,0-.52.07-.58.16a.87.87,0,0,1,.32,0c.19,0,.21,0,.08,0h0L16.6,33a2.13,2.13,0,0,1-.4-.2C16,32.7,16,32.69,16,32.5a2.08,2.08,0,0,0,0-.66c-.16-.51-.38-1-.49-1.52-.06-.27,0-.54-.09-.8a3.31,3.31,0,0,0-.41-.64c-.1-.16-.15-.36-.25-.53a2.56,2.56,0,0,0-.52-.62A8.86,8.86,0,0,1,12.47,25l-2.89.77c.29.52.12,1.18.6,1.61a1.91,1.91,0,0,0,1.92,0c.3-.14,1.26-.71.77-1.16Z"/></g><g class="cls-4"><path class="cls-2" d="M7.79,37.16a.77.77,0,0,0,0,.45A2.07,2.07,0,0,0,8,38l-.09-.14c.31.51.32,1.14.63,1.65a1.55,1.55,0,0,0,.87.7,6.61,6.61,0,0,1,.89.29l-.19-.1a.9.9,0,0,1,.33.28l-.1-.15a2,2,0,0,0,.22.34,1.15,1.15,0,0,0,.62.26A2.43,2.43,0,0,0,12.26,41a2.76,2.76,0,0,0,1-.46c.13-.11.39-.32.31-.54s-.34-.26-.54-.31c.17.05.22.06.13,0l.19.1a.36.36,0,0,1-.1-.11l.1.15A1.63,1.63,0,0,0,13,39.4a2.27,2.27,0,0,0-.57-.32,7.4,7.4,0,0,1-.91-.29l.19.1a1.07,1.07,0,0,1-.35-.32l.1.15a3.26,3.26,0,0,1-.36-.94,2.87,2.87,0,0,0-.47-1l.1.15a.42.42,0,0,1-.07-.24v.17a.52.52,0,0,1,0-.11c.09-.58-.86-.53-1.21-.47a3.24,3.24,0,0,0-1.1.36c-.2.11-.53.3-.57.54Z"/></g><g class="cls-4"><path class="cls-2" d="M12.49,38.16c.36.38.48.89.84,1.26a2.35,2.35,0,0,0,2.27.63c.64-.15,1.09-.48,1.67-.62s1.21-.19,1.86-.33a6.36,6.36,0,0,0,.85-.25,3.68,3.68,0,0,0,.45-.21l.29-.18a1.2,1.2,0,0,1-.31.13l.57-.06a3.13,3.13,0,0,0,.71-.24l.3-.17q.26-.18.12-.06c-.1,0-.3.08.07,0a4.13,4.13,0,0,0,1.18-.36,2.89,2.89,0,0,0,.44-.27l.23-.21c.14-.13.17-.16.08-.08l.11-.09c-.08,0-.08,0,0,0l.51-.31a3.9,3.9,0,0,0,.82-.7.87.87,0,0,0-.38-1.43,2,2,0,0,0-2.05.55c.06-.07-.16.13-.2.16.21-.14-.2.1-.2.1a3.31,3.31,0,0,0-.55.37L22,36c-.13.13-.16.16-.08.07l.29-.14q-.27.06-.09,0c-.24.05-.49.07-.72.14a10.92,10.92,0,0,0-1.09.49l.77-.2a5.44,5.44,0,0,0-1.5.27c-.21.1-.38.22-.59.33.09,0,.34-.1,0,0-.67.17-1.23.22-2,.37a5.6,5.6,0,0,0-1,.27,6,6,0,0,0-.7.28l-.2.1c-.11.05-.09.05,0,0,.69-.09.92-.08.71,0-.05,0-.08,0-.09-.11s-.15-.24-.22-.36a2.73,2.73,0,0,0-.44-.68,1.68,1.68,0,0,0-2-.23c-.45.22-1.19,1-.68,1.51Z"/></g><g class="cls-4"><path class="cls-2" d="M11.8,43.08c0,.5.46.89.69,1.32l-.11-.22c.15.29.21.61.35.9a2.4,2.4,0,0,0,.63.81,7.11,7.11,0,0,1,.6.63,4.6,4.6,0,0,0,.83.76,1.64,1.64,0,0,0,1,.17,2.35,2.35,0,0,0,1.09-.39c.22-.16.51-.4.53-.69a.65.65,0,0,0-.32-.63l-.16-.12.2.17c-.31-.27-.55-.59-.83-.88a3.89,3.89,0,0,1-.75-.82l.11.22c-.18-.37-.26-.76-.46-1.12s-.34-.48-.48-.74l.12.22a1.23,1.23,0,0,1-.12-.37c0-.26-.39-.44-.58-.5a2.16,2.16,0,0,0-1.1,0,2,2,0,0,0-.95.52.87.87,0,0,0-.26.73Z"/></g><g class="cls-4"><path class="cls-2" d="M15.89,43.55A3.6,3.6,0,0,0,19,44.94a5.79,5.79,0,0,0,2.45-.85c.42-.25,0-.16-1.16.28l.31,0,.52-.05A8.79,8.79,0,0,0,22.57,44a12.12,12.12,0,0,0,2.09-1c.14-.07.28-.13.41-.21.63-.39-1.59.22-1,.23a5.56,5.56,0,0,0,1.47-.22l.64-.2c.65-.22-.24,0-.25,0a9.09,9.09,0,0,0,1-.14,5.11,5.11,0,0,0,2.29-.89c.51-.41-.45-.41-.66-.39a3.93,3.93,0,0,0-1.94.67s1.49-.37,1-.35l-.33,0q-.45.06-.9.15a8.53,8.53,0,0,0-1.09.33c-.53.19.57-.14.6-.11s-.4,0-.47,0a5.92,5.92,0,0,0-2.18.61,11.4,11.4,0,0,0-1.37.76c-.1.07-.32.13.1,0s.24-.05.15-.06a3.27,3.27,0,0,0-.93.09,5,5,0,0,0-1.95.72c-.24.18-.68.23.49-.05s.75-.08.48-.21a4.09,4.09,0,0,1-.61-.34,8.47,8.47,0,0,1-1-.9c-.12-.12-.61-.06-.72-.05a5.45,5.45,0,0,0-1.13.26c-.21.08-1.21.42-.89.75Z"/></g><g class="cls-4"><path class="cls-2" d="M19.64,47.48a2.77,2.77,0,0,0,1.27,1.89,3.25,3.25,0,0,0,1.69.21,8.71,8.71,0,0,0,2-.46,6.39,6.39,0,0,0,.81-.35,1.87,1.87,0,0,0,.31-.17c.09-.05.07-.05-.07,0l-.65.14c0,.05.31,0,.39,0a4.21,4.21,0,0,0,.62-.05l.3-.06c-.12,0-.12,0,0,0l.62-.13a6.61,6.61,0,0,0,1.29-.46,3.47,3.47,0,0,0,1.44-1c.37-.54-.32-.76-.76-.74A2.55,2.55,0,0,0,27,47.1c-.11.16.1-.08,0,0s.17-.08,0,0-.06.14,0,0c0,0-.14.06-.17.08l-.14.06c-.31.15.22-.07,0,0s.27,0,.06,0l-.27,0-.39.08.39-.07s-.28,0-.32,0a3.9,3.9,0,0,0-1.08.13,6.43,6.43,0,0,0-1.45.63c.11-.05.14-.05,0,0s0,0,.05,0-.24.07-.29.08-.3,0-.1,0,.1,0-.05,0h.1c-.13,0-.15,0-.08,0s.05,0,0,0l-.09,0a2.46,2.46,0,0,1-.72-1.36c-.13-.56-1.27-.36-1.62-.26s-1.41.46-1.28,1Z"/></g><g class="cls-4"><path class="cls-2" d="M26.73,52.79c.17-.38.11-.83.34-1.18l-.11.17a1.07,1.07,0,0,1,.14-.16l-.19.17A.38.38,0,0,1,27,51.7l-.27.16.11,0-.34.14.16-.06-.38.12a8.52,8.52,0,0,0,.86-.26A3.12,3.12,0,0,0,28.34,51c.13-.13.19-.31,0-.45a.58.58,0,0,0-.31-.11,1.08,1.08,0,0,0-.44,0,3.62,3.62,0,0,0-1.13.24,2.41,2.41,0,0,0-.8.48l-.06.06.2-.17-.12.08L26,51l-.11.06.33-.15-.16.06.38-.12c-.29.09-.59.16-.87.27a2.78,2.78,0,0,0-1.2.75,1.52,1.52,0,0,0-.34.74,2.55,2.55,0,0,1-.16.66c-.08.2.11.32.26.37a1.15,1.15,0,0,0,.41.05,2.24,2.24,0,0,0,.52,0,3.72,3.72,0,0,0,1.1-.35,1.19,1.19,0,0,0,.58-.5Z"/></g><g class="cls-4"><path class="cls-2" d="M48.64,27.37a9.56,9.56,0,0,0-1.37,1.33,6.17,6.17,0,0,0-1,1.34c-.16.33.34.51.55.56a6.41,6.41,0,0,0,4.11-.86c.4-.21.8-.43,1.19-.66l.29-.16c.09,0,.24-.17.34-.17l-.08,0,.17-.08c.1,0,.51-.17,0,0L51.2,28.4s0-.13,0,0,.07-.13,0,0-.12.11,0,0,0,0,0,0l-.25.19.1-.07-.13.09c-.23.16-.44.33-.66.5,0,0-.15.09-.15.11l.08-.05-.07.05-.16.09c-.09.05-.26.08,0,0l-.33.14c.11-.05.32-.1.08,0l-.18,0-.18,0h.06l-.37.05c-.27,0,.24,0,0,0s-.31,0-.47,0l-.45,0-.88.14a3.1,3.1,0,0,0-1.1.36c-.19.12-.49.34-.55.59-.15.62.9.6,1.23.56l1-.15.25,0h-.11l.4,0,.47-.06a8.08,8.08,0,0,0,2.67-.84,6.7,6.7,0,0,0,.94-.63l.31-.25c.1-.09-.27.18-.1.07l.14-.1c.54-.37,1.26-.83,1.19-1.57,0-.22-.39-.34-.55-.37a2.47,2.47,0,0,0-1.08.08,15.59,15.59,0,0,0-2.8,1.33c-.17.09-.34.17-.51.27.35-.21,0,0-.1,0l-.26.11c-.3.13.3-.07,0,0l-.19.05.12,0c-.33,0,.31,0,0,0-.14,0-.13,0,0,0l-.19,0,.55.56c-.07.14.07-.1.11-.14l.23-.27c.16-.18.34-.35.49-.53l.25-.28c.1-.13-.11.1,0,0l.14-.13c.19-.18.39-.35.6-.52s.36-.37.3-.59-.36-.33-.55-.36a2.74,2.74,0,0,0-2,.55Z"/></g><g class="cls-4"><path class="cls-2" d="M25.85,24.61a5.55,5.55,0,0,0,1,.91,3.35,3.35,0,0,0,2.25.26,4.25,4.25,0,0,0,.94-.28,1.86,1.86,0,0,0,.65-.35.36.36,0,0,0,.14-.26c0-.17-.43-.18-.5-.18l-.81,0H29.1l-.17,0c-.23,0-.45-.11-.68-.15a3.84,3.84,0,0,0-1.51.05A4.88,4.88,0,0,0,25.5,25a1.33,1.33,0,0,0-.34.22.29.29,0,0,0-.15.26c0,.17.13.35.22.48a4.83,4.83,0,0,1,.34.45c.1.16.34.17.51.18a4.41,4.41,0,0,0,2-.55c.1-.06.44-.26.35-.41a4.83,4.83,0,0,0-.34-.45.74.74,0,0,1-.22-.48l-1.72.9c.13,0,.06,0-.21,0,.12,0,.07,0-.16,0h.09l-.16,0a.81.81,0,0,1,.31.06,5.32,5.32,0,0,0,.67.14,14.42,14.42,0,0,0,1.74,0l1.22-1.07.22,0h.17c-.24,0,.19,0,0,0l-.33-.08.18.06a4.05,4.05,0,0,1-1.39-1.08c-.13-.13-.6-.08-.73-.07a4.76,4.76,0,0,0-1.13.26,2.16,2.16,0,0,0-.81.42l-.12.14a.15.15,0,0,0,.06.22Z"/></g><g class="cls-4"><path class="cls-2" d="M70.78,38.18c0-.44,0-.87,0-1.3,0-.22,0-.43,0-.65s0-.19,0-.28,0-.16,0-.06a2.78,2.78,0,0,1,.22-.42c.07-.12.08-.13,0,0,.08-.12.16-.24.23-.36a3.7,3.7,0,0,0,.41-.88c.22-.71.62-1.34.85-2a7,7,0,0,0,.17-2.38,1.09,1.09,0,0,0-1.34-1c-.56.06-1.6.45-1.6,1.18a6.14,6.14,0,0,1-.1,2.1,10.5,10.5,0,0,1-.49,1.08c-.14.32-.26.74-.36,1a3.49,3.49,0,0,1-.44.77,3.37,3.37,0,0,0-.46,1,10.12,10.12,0,0,0-.06,2.46c0,.71.7,1,1.34,1s1.6-.45,1.6-1.17Z"/></g><g id="_5QfxQL.tif" data-name="5QfxQL.tif"><path d="M40.94,40.45c.07-.18.24,0,.28-.12s-.11-.15-.19-.2c-.28-.16-.68-.25-.82-.49-.32-.52-.88-.41-1.27-.65-.6-.37-1.08-.13-1.64.07a1.72,1.72,0,0,0-1.24,1.36,4.22,4.22,0,0,0,0,2.09c.11.32,0,.69.12,1a.91.91,0,0,0,.27.39c.35.24.46.77,1.1.73a4.18,4.18,0,0,0-.36.35c-.06.06-.1.18,0,.21.69.17,1,.74,1.26,1.29a10.49,10.49,0,0,0,.73,1.14,4.48,4.48,0,0,0,1,1s.09.08.08.1c-.18.55.37.76.53,1.15.08.2.32.24.49.29a1.25,1.25,0,0,1,.83.75c.08.16.23.15.35.17a4.11,4.11,0,0,1,.66.26c.21.1.26.19.16.41a.51.51,0,0,0,.31.73c.61.1,1.23.13,1.83.22A13,13,0,0,1,48,53a2,2,0,0,0,1.24.09,2.88,2.88,0,0,1,1.32.13A1.44,1.44,0,0,0,51.8,53a2.51,2.51,0,0,1,.8-.45,1.78,1.78,0,0,0,.68-.58A1.15,1.15,0,0,1,54,51.5c0,.84-.67,1.31-1.15,1.85a3,3,0,0,0-.39.49c0,.06-.07.16-.13.17a3.12,3.12,0,0,1-1.74.32c-.23,0-.39.1-.63,0a10.09,10.09,0,0,0-1.23-.32c-.13,0-.25-.09-.36,0s-.21.1-.25,0c-.2-.33-.53-.14-.8-.22-.47-.15-1-.1-1.38-.53-.18-.2-.6-.13-.92-.15s-1,.27-1.34-.25c-.24-.32-.82-.31-.88-.86,0-.06-.34-.09-.51-.25a3.32,3.32,0,0,1-.52-.54.36.36,0,0,0-.27-.14c-.84.05-1.14-.58-1.45-1.16a2.78,2.78,0,0,0-.83-1.17c-.34-.24-.52-.76-.8-1.13-.16-.21-.23-.48-.46-.65,0,0-.05,0-.05-.07.13-.68-.55-.82-.84-1.22-.12-.16-.07-.36-.23-.51A2.13,2.13,0,0,0,36,44.8a10.76,10.76,0,0,0-1.83-.65c-.43,0-.86-.11-1.17.32a.63.63,0,0,1-.36.26,1.72,1.72,0,0,0-1.34,1.65,7.13,7.13,0,0,1-.26.78,1.6,1.6,0,0,0,.32,1.18c.28.46.63.89.92,1.35.08.12.21.25.3.22.4-.16.66.16,1,.22.55.1.81.59,1,1a1.09,1.09,0,0,0,.36.48c.34.24.38.66.61,1s.85.76,1.14,1.26c.11.2.6.31.13.66-.11.09.13.26.25.29a.92.92,0,0,1,.63.52c.07.15.23.17.36.24s.46.07.55.38.34,0,.5.08c.86.37,1.77,0,2.64.17s1.1-.5,1.59-.86a13.18,13.18,0,0,0,1.25-1.23.79.79,0,0,1,.68-.14c.37.07.24.36.09.5-.44.41-.81.87-1.23,1.29a2.83,2.83,0,0,0-.69.73c-.16.31-.51.32-.79.44a3.07,3.07,0,0,1-1.6.37c-.25,0-.47.19-.74.12s-.36,0-.46-.21a.24.24,0,0,0-.32-.1c-.43.25-.81,0-1.2-.12a1.49,1.49,0,0,0-.39-.13,2.52,2.52,0,0,1-1.53-.84.91.91,0,0,0-1.09-.12c-.1.06-.17.18-.3.15a2.48,2.48,0,0,0-1.35.36,4.07,4.07,0,0,1-3.21-.1c-.25-.11-.56-.13-.68-.45a.28.28,0,0,0-.19-.11,4.57,4.57,0,0,1-1.51-.59.31.31,0,0,1-.23-.33c0-.29,0-.54-.43-.61-.23,0-.4-.3-.51-.53a1,1,0,0,0-1-.63c-.52,0-1,0-1.21-.58a.2.2,0,0,0-.13-.11c-.58-.11-.48-.6-.56-1,0-.13.05-.2.18-.18.31.07.68,0,.84.39.05.13.18.18.32.22a.64.64,0,0,1,.53.41c.09.26.38.29.61.26s.37-.18.25-.34c-.31-.4,0-.63.2-.85a5.39,5.39,0,0,0,.59-.93A1.68,1.68,0,0,1,29,49.65c.47.08.88-.26,1.36-.12.18,0,.23-.29.29-.46s-.13-.14-.25-.19A1.19,1.19,0,0,1,30,47.11c.06-.07.18-.14.17-.2-.07-.77.61-1.27.7-2,0-.14.1-.19.23-.23a2.08,2.08,0,0,0,1.2-1,.75.75,0,0,1,.62-.37c.43,0,.8-.37,1.28-.22a3.1,3.1,0,0,1,.5.09c.24.11.37,0,.34-.25A7.58,7.58,0,0,1,35,41.41c0-.26-.24-.5-.21-.82a1.26,1.26,0,0,1,.43-.88c.17-.14.4-.21.44-.47a.09.09,0,0,1,.13-.07c.36.18.45,0,.47-.32a.23.23,0,0,1,0-.12c.38.1.44-.38.81-.42a17.84,17.84,0,0,0,2-.51,5.85,5.85,0,0,1,1.1-.06c.59,0,.85-.2.93-.78a1.78,1.78,0,0,0-.33-1.09c-.24-.45-.66-.8-.72-1.34,0-.1-.09-.14-.16-.2a7.83,7.83,0,0,0-2.09-1.08,1.51,1.51,0,0,0-1,.07,16.36,16.36,0,0,1-1.75.59,10.47,10.47,0,0,0-1.82,1,8.19,8.19,0,0,1-1.26.53,3.46,3.46,0,0,0-1.37.89c-.18.17,0,.36-.17.54a4.73,4.73,0,0,1-1.14.67,11.8,11.8,0,0,1-3.52.72,1.5,1.5,0,0,0-.93.56,10.16,10.16,0,0,1-1.34,1,.89.89,0,0,1-.51.14.78.78,0,0,0-.63.25.92.92,0,0,1-1,.15,2.64,2.64,0,0,0-1.48.06c-.82.15-1.64.16-2.45.3a11.45,11.45,0,0,1-1.71.4,1.48,1.48,0,0,0-1.14.34.12.12,0,0,1-.19,0c-.11-.26-.36-.14-.57-.19.09-.26.11-.55.49-.35h0a1.35,1.35,0,0,1,1-.29c.54,0,.95-.69,1.59-.38.1,0,.14-.07.22-.11.6-.32,1.16-.78,1.92-.43a.69.69,0,0,0,.49,0c.53-.18,1.11,0,1.63-.24a1,1,0,0,1,.66-.08,1.26,1.26,0,0,0,1.4-.55c.12-.16,0-.71.54-.44.06,0-.06-.21.08-.3a1.43,1.43,0,0,1,.72-.35,2.65,2.65,0,0,0,1.56-.54,1,1,0,0,1,.89-.14,1.32,1.32,0,0,0,1.4-.41s0,0,.08,0a1.82,1.82,0,0,0,1.13-.88,2.53,2.53,0,0,1,1.45-.8c.12,0,.23,0,.29-.17A1.29,1.29,0,0,1,32.54,34a4,4,0,0,0,.8-.3c.59-.19,1-.73,1.58-.84a2.42,2.42,0,0,0,1.17-.41A3.41,3.41,0,0,1,37.65,32c.21-.05.46.11.69.14s.5,0,.38-.37.14-.51.33-.68a3.24,3.24,0,0,0,.85-.84,2.23,2.23,0,0,1,1.33-1,1.5,1.5,0,0,0,.92-.77.27.27,0,0,1,.32-.11c.39.13.64-.12.89-.35a1.53,1.53,0,0,1,.76-.43,1.51,1.51,0,0,0,.73-.32.68.68,0,0,1,.44-.2,3.66,3.66,0,0,0,1.78-.59,4.9,4.9,0,0,1,1.87-.57,2.32,2.32,0,0,0,1-.37c.81-.55,1.59-1.15,2.42-1.66a10.62,10.62,0,0,1,.94-.51c.05,0,.14,0,.16-.07.3-.52,1-.55,1.34-1a.46.46,0,0,1,.27-.13,11.61,11.61,0,0,1,2.56-.35c.2,0,.43-.13.65-.13a11.15,11.15,0,0,1,2.63.28,3.45,3.45,0,0,1,1.17.41c.26.18.42.07.62.08a2.52,2.52,0,0,1,1.05.14.66.66,0,0,0,.44,0c.23-.05.46-.2.6.12.54-.18.88.37,1.37.37a.71.71,0,0,1,.71.39c.12.26.38.1.52.18.53.32,1,.05,1.52-.05.17,0,.24-.31.47-.4a1.47,1.47,0,0,0,.84-.6.55.55,0,0,1,.71-.31c.11.05.28-.06.32-.19.09-.34.3-.28.56-.24a.84.84,0,0,0,.68-.1c.28-.2.61,0,.9.08A1.59,1.59,0,0,0,74,22c-.88,0-1.62.65-2.52.54h-.09c0,.45-.57.34-.75.62a2.2,2.2,0,0,1-.92.76.74.74,0,0,0-.42.6c0,.27.24.29.39.41a2.7,2.7,0,0,1,.75.72.28.28,0,0,0,.14.16,1.85,1.85,0,0,1,1.1,1.8,4.94,4.94,0,0,1,.14,1.1,7,7,0,0,1-.2.85,5.78,5.78,0,0,1-.42,1.78,1.85,1.85,0,0,0-.06,1c0,.15,0,.32-.11.4-.37.21-.36.67-.67.93-.14.12,0,.38-.12.57a2.83,2.83,0,0,0-.59,1.39s0,0,0,0c-.91.37-.55,1.34-.92,2a1.09,1.09,0,0,0,0,.69c.07.34-.07.64,0,.95a.74.74,0,0,1-.14.54,4.42,4.42,0,0,0-.7,1.89,4.36,4.36,0,0,1-1.16,2.43c-.16.2-.4.3-.31.62,0,0-.08.18-.15.2-.57.17-.83.68-1.22,1s-.51.44-.77.65A1.3,1.3,0,0,0,64,47c-.08.13-.21.25-.1.41a.33.33,0,0,0,.44.07c.56-.27,1.19-.28,1.76-.54a3.17,3.17,0,0,1,1.47-.09c1,0,1.9.1,2.85.17a.8.8,0,0,0,.48-.09.4.4,0,0,1,.39,0c.39.28.8.06,1.2.07s.84.29,1.3.23c.11,0,.11.08.09.16s-.11.28-.17.24c-.41-.25-.67.17-1,.21a6.45,6.45,0,0,1-1,0,3.18,3.18,0,0,0-1.23.2c-.48.17-.86-.08-1.29-.12a9.79,9.79,0,0,0-2.86-.05,7.88,7.88,0,0,0-1.43.36.81.81,0,0,1-.35,0,3.39,3.39,0,0,0-2.57,1,3.61,3.61,0,0,1-2.11,1.1,2.88,2.88,0,0,0-1.47.54,1.32,1.32,0,0,1-1.05.24c-.46,0-.92-.08-1.38-.13a.84.84,0,0,0-.34.08,1.13,1.13,0,0,1-1.07,0,.16.16,0,0,0-.12-.05,1.74,1.74,0,0,1-1.52-.44c-.41-.27-1-.21-1.29-.68a.2.2,0,0,0-.22-.12,1.26,1.26,0,0,1-1.05-.28,2.23,2.23,0,0,1-.68-.65c-.06-.09-.06-.14-.19-.15a1.12,1.12,0,0,1-.86-.39c-.09-.12-.24-.32-.42-.06,0,0-.08.1-.15.06A5.69,5.69,0,0,1,46.34,47c-.31-.36-.74-.54-1.07-.87a1.1,1.1,0,0,1-.29-.38A7.16,7.16,0,0,0,43.84,44a1,1,0,0,1-.24-.32,1.76,1.76,0,0,0-.8-1c-.25-.17-.24-.53-.29-.81a1.32,1.32,0,0,0-1.07-1.08A2.59,2.59,0,0,1,40.94,40.45Zm6.91,6.28c0,.23-.33.6.09.63a2.58,2.58,0,0,1,1.66.87c.27.27.76.17,1,.56,0,0,.11,0,.17,0a1.17,1.17,0,0,1,1,.23.56.56,0,0,0,.47.1.43.43,0,0,1,.5.2c.08.09.14.19.27.22a9.89,9.89,0,0,1,1.39.57,1.75,1.75,0,0,0,1.45,0,1,1,0,0,1,.55-.08c.32,0,.58.36.88.2.49-.27,1-.26,1.53-.48s.81-.12,1.16-.24,1.24-.06,1.37-.87a.45.45,0,0,1,.39-.33c.09,0,.22,0,.21-.12-.06-.59.89-.65.67-1.32,0,0,.13-.11.2-.16.78-.57,1.67-1,2.4-1.62.2-.17.49-.36.44-.59-.09-.39.21-.61.34-.84a10.13,10.13,0,0,1,.59-1.19c.25-.34,0-.86.47-1.13,0,0,0,0,0,0,.07-.37.13-.74.2-1.1s0-.82.31-1.07c.17-.12.15-.21.14-.36A2.75,2.75,0,0,1,67.94,37s.14,0,.06-.11c-.33-.38.12-.61.21-.9s.29-.56.65-.22c0,0,.2,0,.18-.07-.14-.44.35-.55.43-.89s0-.64.16-.87c.38-.45.23-1,.49-1.54a1.39,1.39,0,0,0,.24-.58c0-.72.46-1.33.49-2.05a.47.47,0,0,1,.36-.42c.18-.05.33-.15.31-.37s0-.13-.1-.13-.18.22-.28.32,0,0-.09,0c-.06-.17-.22-.27-.19-.48.07-.55.29-1.14-.45-1.45a.27.27,0,0,1-.12-.18c-.05-.5-.47-.69-.8-1s-.57-.38-.59-.79c0-.16-.1-.27-.31-.19-.53.21-.84,0-1-.51,0-.1-.13-.18-.19-.15-.48.21-.75-.29-1.17-.36a1.79,1.79,0,0,1-.86-.36c-.32-.28-.6-.65-1.06-.21a.23.23,0,0,1-.17,0A14.46,14.46,0,0,0,62,23.23c-.43,0-.82-.24-1.28-.14a.84.84,0,0,1-.75-.21.28.28,0,0,0-.34-.05,1.39,1.39,0,0,1-1,.08,6,6,0,0,0-2,0,4.84,4.84,0,0,0-1.92.45,8.61,8.61,0,0,0-2.19,1.38c-.39.44-1,.67-1.21,1.29-.05.14-.23.22-.42.27a8.27,8.27,0,0,0-1.54.39c-.82.45-1.82.4-2.59,1a.57.57,0,0,1-.35,0,2.49,2.49,0,0,0-1.36.37,1.17,1.17,0,0,1-.27.15,9.34,9.34,0,0,0-4,2.12c-.57.49-1,1.1-1.65,1.57-.24.19-.16.43.17.44.68,0,1,.59,1.4,1a4.82,4.82,0,0,1,1.15,1.91,7.07,7.07,0,0,1,0,1.72c0,.06-.08.13-.14.17a.42.42,0,0,0-.17.34,2,2,0,0,1-.27.85.78.78,0,0,0,0,.81c.14.18.31-.14.49-.18s.18-.14.12-.28,0-.35.23-.41a1,1,0,0,0,.46-.34,1.69,1.69,0,0,1,.66-.45,5.85,5.85,0,0,1,2.3-.56c.22,0,.33,0,.35.22,0,.08.08.12.17.12a.13.13,0,0,0,.14-.14c0-.44.32-.24.48-.15.56.31,1.1.66,1.64,1,.22.14.48.25.52.57,0,.11.14.16.25.16.52,0,.85.56,1.39.56.1,0,.09.14.14.21.19.28.65.3.77,0s.55-.55.86-.76l.62-.46a3.65,3.65,0,0,1,1.41-.85A5,5,0,0,0,56,36.64a2.18,2.18,0,0,1,1.08-.48c1.15,0,1.35-1.07,1.93-1.7,0,0,0-.08,0-.13a2.5,2.5,0,0,1,.7-1.61c.34-.37.66-.76,1-1.15S61,31,61.4,31s.47-.39.8-.44,0-.33.19-.41a2.4,2.4,0,0,1,1.75-.32.22.22,0,0,1,.14.38c-.15.18-.32.42-.56.42-.84,0-1.29.7-1.85,1.11A6.25,6.25,0,0,0,60,34.24,17.5,17.5,0,0,1,59,36a2.79,2.79,0,0,1-2,1.25,7.22,7.22,0,0,0-2.31.9,9.35,9.35,0,0,0-2.39,1.92,2.12,2.12,0,0,0-.72,1.11.4.4,0,0,1-.25.3c-.33.17-.3.38-.06.59a1.12,1.12,0,0,1,.21.29c.21.32.39.68.89.56a.34.34,0,0,1,.36.14c.14.41.56.43.85.58a1.49,1.49,0,0,0,1.16.18,1.15,1.15,0,0,1,1,.16,1.22,1.22,0,0,0,1.21,0A3.53,3.53,0,0,1,58.62,43a.24.24,0,0,0,.21-.21,1.48,1.48,0,0,1,1.35-.94c.5-.08,1,.12,1.51-.25.06,0,.23,0,.35,0A2.36,2.36,0,0,0,63.82,41c.37-.3.58-.77,1.19-.71.16,0,.39-.12.48,0s-.18.29-.25.46-.12.09-.18.12a1.84,1.84,0,0,0-.8.69,1.19,1.19,0,0,1-1,.58,1.12,1.12,0,0,0-.59.17.69.69,0,0,1-.68,0,.62.62,0,0,0-.5,0c-.41.1-.73.5-1.23.35a.36.36,0,0,0-.39.34c0,.27.26.18.42.18a1.25,1.25,0,0,1,.65.05,3.58,3.58,0,0,1-1.79.56c-.12,0-.25,0-.31.13s-.19.11-.32.06a1,1,0,0,0-.93.34,1.27,1.27,0,0,1-1.57.41.42.42,0,0,0-.38,0,3.18,3.18,0,0,1-2.41-.17,2.33,2.33,0,0,1-1.51-1.14.22.22,0,0,0-.18-.12c-.39,0-.67-.22-1-.37a1.3,1.3,0,0,1-.51-1.78,6.72,6.72,0,0,1,.5-.69c.28-.3.17-.57-.24-.68s-.69-.16-1-.28a2.62,2.62,0,0,1-1.05-.43,6.51,6.51,0,0,0-2-1.07c-.63-.34-1.36,0-2.05.08a1.76,1.76,0,0,0-1.12.66c-.12.14-.36.2-.3.46A4.63,4.63,0,0,0,43,40.35a3.83,3.83,0,0,1,.61,1.54.92.92,0,0,0,.34.68c.28.24.37.67.71.8a1.65,1.65,0,0,1,1.1,1.46.34.34,0,0,0,.3.33c.21,0,.39.15.37.37s.09.28.31.32.56.14.48.53c0,.12,0,.14.11.17A3.91,3.91,0,0,1,47.85,46.73ZM34.8,53.41c.06-.13,0-.23-.07-.35s-.32-.27-.38-.49a4.94,4.94,0,0,0-.81-1.31.83.83,0,0,0-.94-.44.85.85,0,0,1-.68-.23,1.82,1.82,0,0,0-1.86-.42.66.66,0,0,1-.46,0c-.5-.12-1.45.62-1.55,1.15a4.53,4.53,0,0,0-.14,1.61c.05.29.08.59.31.69.39.18.57.6,1,.74.08,0,.19.1.2.16.07.37.37.44.65.5.61.15,1.18.42,1.81.52a2.46,2.46,0,0,0,1.3.07,4.07,4.07,0,0,1,1.64-.27.69.69,0,0,0,.68-.24c.17-.25-.09-.35-.21-.51A1.78,1.78,0,0,1,34.8,53.41Z"/><path d="M16.25,33.93a4.54,4.54,0,0,0,2.16-.41.45.45,0,0,1,.26,0,2.49,2.49,0,0,0,1.9-.61.68.68,0,0,0,.21-.27c.06-.12.17-.31.31-.19a.32.32,0,0,1,.11.46,10.83,10.83,0,0,1-.75.88c-.29.35-.68.43-1,.66-.54.39-.8.31-1.06-.32-.05-.12-.09-.29-.27-.22s-.05.19,0,.29a.3.3,0,0,1-.09.37c-.48.19-.89.56-1.46.52a.5.5,0,0,1-.29-.09.47.47,0,0,0-.47-.06c-1,.38-1.86-.16-2.75-.42a.7.7,0,0,1-.51-1,.89.89,0,0,0,0-.53,3.6,3.6,0,0,1,.11-1.66c.11-.4-.25-.64-.41-.94s-.57-.62-.59-1.05a2.48,2.48,0,0,0-.67-1.42,3,3,0,0,1-.47-1.63s0-.1,0-.11c-.55-.06-.31-.47-.35-.76,0-.08,0-.2-.06-.25-.56-.46-.3-1-.21-1.58a5.4,5.4,0,0,0,.25-1.6.76.76,0,0,1,.1-.48.6.6,0,0,0,.13-.84c-.12-.2.12-.48.28-.67a1.17,1.17,0,0,0,.37-.75c0-.47.53-.59.86-.83s.74-.36.94-.78a.66.66,0,0,1,.78-.45.14.14,0,0,0,.18-.09c.35-.81,1.15-.94,1.84-1.24a.29.29,0,0,1,.33.07.52.52,0,0,1,.09.51.62.62,0,0,1-.43.43c-.59.18-1,.65-1.61.86-.29.1-.45.45-.67.68A21,21,0,0,0,11.69,20a2.2,2.2,0,0,0-.43.79,5.34,5.34,0,0,0-.21,1.82.44.44,0,0,1-.18.51.31.31,0,0,0-.11.37c.25.75.11,1.58.61,2.29.17.24.14.66.33,1,.08.12.09.28.22.37s.07.16.12.19c.33.18-.46.53.1.65.34.08.39.39.51.62.23.44.42.89.64,1.32.13.25,0,.5,0,.74s.31.7.07,1.14c-.1.17.27.48.36.77s.15.3,0,.46a.29.29,0,0,0,.19.48C14.72,33.56,15.38,34.06,16.25,33.93Z"/><path d="M9.59,26.36a2.55,2.55,0,0,1,.2.86c0,1,0,1.94,0,2.91a.59.59,0,0,0,0,.3A2.73,2.73,0,0,1,10,32.12a2.67,2.67,0,0,1-.13,1.25c-.26.49-.44,1-.74,1.5A5.1,5.1,0,0,1,8.54,36c-.19.19,0,.53.23.75s.23.17.16.29c-.19.29,0,.46.15.66A4.17,4.17,0,0,0,10.6,39.3c.43.25.86.51,1.3.73s.61.68,1.07.83c.19,0,.06.5-.17.5s-.59.07-.88.09a.68.68,0,0,1-.67-.29c-.17-.32-.45-.37-.75-.47a3.23,3.23,0,0,1-2.26-2.34,1.8,1.8,0,0,0-.84-1.14.36.36,0,0,1,0-.65.47.47,0,0,0,.21-.42,1.53,1.53,0,0,1,.48-.84,1.64,1.64,0,0,0,.5-.86A2.18,2.18,0,0,1,9,33.58a2.46,2.46,0,0,0,.14-2.24A3.36,3.36,0,0,1,9,30.7a.49.49,0,0,0-.29-.41c-.26-.14-.59-.25-.62-.64,0-.12-.16-.15-.28-.18a.9.9,0,0,1-.58-.39c0-.06-.1-.14-.16-.14-.53,0-.81-.53-1.29-.65-.23-.06-.33-.3-.5-.41-.67-.44-.74-1.39-1.51-1.74A.33.33,0,0,1,3.6,26a4.46,4.46,0,0,0-1.27-1.43.61.61,0,0,1-.26-.73c.06-.22.14-.37-.24-.29s-.54,0-.47-.45a.56.56,0,0,0-.42-.69c-.13,0-.25-.09-.29-.25a1.44,1.44,0,0,0-.49-.72c-.19-.16-.25-.22,0-.46.49-.43.53-.14.79.21s.51.4.72.66a1.31,1.31,0,0,1,.28.45,1.88,1.88,0,0,0,.63.85c.27.21.55.42.56.81,0,.12.11.13.16.19a12.54,12.54,0,0,1,1.83,2.28c.08.18.27.18.4.26.58.38,1.17.73,1.74,1.13.32.22.47.6.76.86.48.45.58.46.92-.08a1.62,1.62,0,0,1,.28-.39c.18-.16.19-.25,0-.41a.49.49,0,0,1,.12-.8C9.8,26.9,9.37,26.59,9.59,26.36Z"/><path d="M48.94,12.86a1.07,1.07,0,0,1,.84.16,6.23,6.23,0,0,0,1.16.64c.37.2,1.22-.19,1.53-.68.46-.71.78-1.5,1.2-2.22s.11-1.14.34-1.67c0-.06,0-.14-.09-.18a.15.15,0,0,0-.2.05,1.71,1.71,0,0,1-1.3.7c-.62.05-1.3.33-1.83-.28-.07-.07-.14-.12-.24-.07s0,.13-.05.2c-.09.43-.2.86-.29,1.29a.23.23,0,0,1-.26.2c-.12,0-.24,0-.28-.17a1.72,1.72,0,0,1,.11-1.47c.14-.23.28-.43.07-.68,0,0,0-.1,0-.13a1.89,1.89,0,0,0-.28-1.67c-.35-.71-.86-.85-1.48-.3a4,4,0,0,0-.71.92A20.24,20.24,0,0,1,46,9.22c-.14.18-.3.36-.56.29A.52.52,0,0,1,45.07,9c-.09-.54-.37-1,0-1.65.15-.26,0-.68,0-1,0-.13-.18-.28,0-.38.05,0,.06-.09,0-.1-.5-.11-.12-.38-.09-.57a2.72,2.72,0,0,0,.1-.57c0-.29.14-.41.44-.42s.36.3.31.46c-.14.48,0,1-.1,1.46s-.06.7-.11,1a.44.44,0,0,0,.34.51c.21.07.23-.18.31-.3a3,3,0,0,1,1-1,2.41,2.41,0,0,0,.62-.58A1.08,1.08,0,0,1,49,5.4c.51.15,1,.38,1.16,1a3,3,0,0,0,.19.55.31.31,0,0,0,.42.22c.27-.08.79.06.56-.56,0-.05.07-.18.13-.21.64-.36,1.18-1,2-.8.44.09.57.48.75.8A.4.4,0,0,1,54,7c-.23.14-.4.15-.45-.14-.09-.44-.33-.38-.66-.27a2.88,2.88,0,0,0-1.35,1.23.75.75,0,0,0,0,.92.94.94,0,0,0,1.08.12c.25-.16.61-.13.75-.46,0-.05.14-.12.19-.1.5.14.56-.24.7-.55A7.58,7.58,0,0,1,54.7,7c.12-.21.29-.19.46-.09s.3.23.18.45a7.61,7.61,0,0,0-.51,1.94,9.31,9.31,0,0,1-1,3.06,5,5,0,0,0-.22.62c-.07.14-.06.46-.39.28-.09,0-.18.09-.12.17.27.33,0,.48-.21.61a2,2,0,0,1-2,.41,3.58,3.58,0,0,1-1-.79C49.48,13.43,49.21,13.13,48.94,12.86Z"/><path d="M22.36,15.76c-.72-.17-1.47-.1-2.2-.23a2.24,2.24,0,0,1-.74-.4c-.11-.08-.12-.26,0-.28.37-.06.69-.29,1.06-.34a2.11,2.11,0,0,1,.86.11c.25.07.58.42.88,0a.34.34,0,0,1,.46,0,2.25,2.25,0,0,0,1.14.41.87.87,0,0,0,.48,0c.09,0,.2-.08.21-.21s-.13-.12-.17-.17c-.31-.52-1.06-.65-1.16-1.36-.05-.33-.4-.39-.67-.41a1.12,1.12,0,0,1-.83-.48c-.24-.35-.65-.51-.86-.79-.32-.43-1-.61-1-1.26,0-.07,0-.19-.14-.19-.42,0-.57-.38-.83-.6s-.17-.39.06-.57.59-.27.88.17a10.53,10.53,0,0,0,2.49,2.45,13.18,13.18,0,0,1,1.54,1.2,8.63,8.63,0,0,1,1.33,1.77,3.53,3.53,0,0,0,.9,1.09c.21.16.38.28.27.62s.28.53.27.86.28.49.6.56a.35.35,0,0,1,.25.17c.2.55.7,1,.8,1.56a.8.8,0,0,0,.2.4,2.37,2.37,0,0,1,.56,2.12c0,.19.12.37,0,.56s-.06.23-.19.23a.21.21,0,0,1-.22-.18c-.11-.49-.45-.91-.44-1.43a.35.35,0,0,0-.15-.31c-.79-.41-.93-1.28-1.38-1.92-.29-.4-.7-.66-1-1a2.64,2.64,0,0,1-.45-.64c-.13-.31-.49-.38-.76-.53-.57-.34-1.24-.5-1.82-.84A1.06,1.06,0,0,0,22.36,15.76Z"/><path d="M29.89,12.76a1.16,1.16,0,0,1-.07.48c-.27.59,0,.84.59.87.39,0,.72-.13,1.09-.14a.47.47,0,0,0,.4-.22.92.92,0,0,1,1.27-.22A1.74,1.74,0,0,1,34,15.37a2.29,2.29,0,0,1-.62,1.86,1.88,1.88,0,0,1-.77.42,1,1,0,0,1-1.16-.75c-.1-.35-.37-.67-.07-1.09.11-.15-.09-.53-.16-.79,0,0-.12-.09-.19-.1a1,1,0,0,0-1,1,6.24,6.24,0,0,0,.58,2,.64.64,0,0,1-.34,1c-.31.16-.48,0-.46-.3,0-.08.07-.17,0-.25-.58-.61-.43-1.37-.4-2.1s-.18-.76-.79-.67a.39.39,0,0,1-.48-.23c-.08-.2,0-.3.17-.4s.19-.21.28-.21c.57,0,.52-.43.49-.75a7.2,7.2,0,0,1,0-2.07,1.56,1.56,0,0,1,.24-.81,1.06,1.06,0,0,1,.88-.4,8.49,8.49,0,0,1,2,.29,2.26,2.26,0,0,1,1.2.71,3.52,3.52,0,0,0,.5.43.37.37,0,0,1,.1.48.36.36,0,0,1-.44.23,1,1,0,0,1-.74-.34,2.15,2.15,0,0,0-1.78-.67c-.1,0-.2,0-.31,0C30.14,11.9,29.86,12.18,29.89,12.76Zm2.86,4a1.71,1.71,0,0,0,.51-1.49c-.11-.33-.07-.72-.5-.87-.17-.06-.26-.09-.29.1A2.77,2.77,0,0,0,32.75,16.72Z"/><path d="M23.19,7.07c0,.31.22.62,0,.94s-.17.46-.43.46A.57.57,0,0,1,22.21,8c-.07-.36-.28-.65-.36-1s-.19-.52,0-.81a.49.49,0,0,0,0-.39,2.5,2.5,0,0,1-.31-1.06A9.93,9.93,0,0,0,21,3.51a12.57,12.57,0,0,0-1-2.08c0-.09-.14-.15-.21-.22a.83.83,0,0,1-.29-.5c0-.24-.09-.58.16-.68a.67.67,0,0,1,.68.23,10,10,0,0,1,1.36,2.53c.23.69.42,1.4.71,2.07.11.24.19.23.34.06a7,7,0,0,0,.78-1.15c.1-.18.2-.36.31-.54a.5.5,0,0,1,.87,0c.19.27.29.6.67.72.16.05.15.32.24.46.4.64.8,1.28,1.23,1.89a2.14,2.14,0,0,1,.23.38,6.3,6.3,0,0,1,.33,2.19.75.75,0,0,1-.11.43c-.1.18-.16.47-.42.37s-.26-.37-.24-.62a2.49,2.49,0,0,0-.15-1.67,9.28,9.28,0,0,0-1.21-1.88,1.59,1.59,0,0,1-.37-.66.73.73,0,0,0-.58-.5c-.29,0-.4.23-.51.43A5.32,5.32,0,0,0,23.19,7.07Z"/><path d="M68,11.22a4.38,4.38,0,0,1-1,2.34,4.91,4.91,0,0,1-.78,1,1.36,1.36,0,0,1-1.49.25c-.08,0-.19-.1-.2-.17a2.05,2.05,0,0,0-.28-1s.06-.11.1-.12a.19.19,0,0,1,.24.07c.21.42.55.34.88.2s.65-.17.77-.59a2,2,0,0,1,.38-.74A2,2,0,0,0,67,11.09a.28.28,0,0,0-.34-.32,2.56,2.56,0,0,0-2,1.19A4.78,4.78,0,0,0,64.05,13c-.09.29-.18.58-.26.88-.14.5-.32,1-.51,1.5-.13.34-.3.68-.45,1,0,0,0,0,0,0-.13.3-.67.74-.8.63a.89.89,0,0,1-.2-.81,10,10,0,0,1,.31-1.52A11.3,11.3,0,0,1,63,13a25.48,25.48,0,0,0,1-2.57c.12-.31.13-.68.44-.9a.39.39,0,0,1,.38-.08c.17.08.06.23,0,.35s0,.18,0,.27-.27.39,0,.51a.58.58,0,0,0,.72-.22,1.74,1.74,0,0,1,1.84-.59C67.91,9.8,68,10,68,11.22Z"/><path d="M38.2,27.86c-.12.38-.21.67.18.83a.17.17,0,0,1,0,.12c-.21.4.06.77.06,1.15a1.13,1.13,0,0,1-.18.63c-.09.13-.17.25-.08.41a.23.23,0,0,1-.13.36c-.18.06-.19-.08-.28-.21a6.72,6.72,0,0,1-.93-2.82,4.65,4.65,0,0,0-1.95-2.58,14.41,14.41,0,0,0-1.34-.85,11,11,0,0,0-3-1.13,3.66,3.66,0,0,1-1-.58c-.09-.06-.35-.18-.18-.36s.29-.38.57-.19.29.15.44.23.2.07.23-.08a.34.34,0,0,1,.55-.21,1.58,1.58,0,0,0,.8.22A4.8,4.8,0,0,1,34.44,24a3.5,3.5,0,0,0,1.05.46,2.43,2.43,0,0,1,1.34,1.31A.32.32,0,0,0,37,26C38,26.28,37.73,27.31,38.2,27.86Z"/><path d="M40.08,5.57a25,25,0,0,0,0,2.59,2,2,0,0,1-.46,1c-.15.24-.58.06-.63-.24A.58.58,0,0,1,39,8.56.22.22,0,0,0,39,8.24c-.13-.1-.22,0-.29.1a3,3,0,0,0-.23.27A2.3,2.3,0,0,1,36,9.36c-.26,0-.47-.3-.58-.57s-.14-.39-.35-.49-.17-.29-.13-.47a1.46,1.46,0,0,0,0-.9.13.13,0,0,1,0-.12,3.42,3.42,0,0,0,.52-1.13c.18-.43.62-.56.95-.81s.67-.41,1-.64a1.31,1.31,0,0,1,1,0c.18,0,.4.25.54.06a.79.79,0,0,0,.1-.81A1.07,1.07,0,0,1,39,2.86c0-.24-.11-.5-.11-.77a2.26,2.26,0,0,1,0-.52C39,1.3,39,1,39.33,1s.35.33.43.57a.25.25,0,0,1,0,.17c-.2.84.21,1.65.13,2.49C39.87,4.72,40.2,5.18,40.08,5.57Zm-1,.89c0-.46,0-.45-.32-.68a.49.49,0,0,1-.21-.28c-.14-.62-.14-.64-.74-.5a2.31,2.31,0,0,0-1.72,1.31c-.21.46,0,1-.25,1.44a.68.68,0,0,0,.32.71c.49.23,1,.47,1.44-.08a1.24,1.24,0,0,1,.25-.18c.37-.27,1-.27.95-1,0,0,0,0,0,0A.79.79,0,0,0,39.11,6.46Z"/><path d="M56.64,18.63a4.35,4.35,0,0,0,.25,1.88.81.81,0,0,1-.4.86c-.26.21-.58,0-.65-.41s-.31-.92-.43-1.38A5.47,5.47,0,0,0,54.7,18a1,1,0,0,1-.12-1.11c.14-.24.26-.21.4,0s.28.42.43.63.27.23.43,0,.56-.3.65-.65a.23.23,0,0,1,.19-.1,4.11,4.11,0,0,1,1.18.14.47.47,0,0,0,.69-.26,2,2,0,0,1,2-.95c.41,0,.32.41.37.67s-.21.2-.37.22c-.84.08-1.13.73-.69,1.45.18.28.24.59.67.59.17,0,.27.3.25.43a1.87,1.87,0,0,1-.24,1,2.78,2.78,0,0,1-1.85,1,.68.68,0,0,1-.56-.23c-.11-.11-.16-.22,0-.33S59,20,59,20a.67.67,0,0,0,.55-.47c.1-.23-.14-.34-.27-.46a4.2,4.2,0,0,1-1-1.56c-.14-.32-.32-.37-.56-.12-.08.08-.12.15-.24.18C56.74,17.68,56.63,17.83,56.64,18.63Z"/><path d="M66.77,15.48a3.48,3.48,0,0,1,1.39-2.27,4.13,4.13,0,0,1,1.56-.7,1.63,1.63,0,0,1,1.4.44,1.35,1.35,0,0,1,.06,1.39A9.17,9.17,0,0,0,70,16.12c-.16.43-.37.84-.54,1.26a.42.42,0,0,0,.13.52c.25.2.24.47-.06.6s-.24.49-.57.29a1.68,1.68,0,0,1-.62-1c0-.09.06-.16.13-.22s.23-.15,0-.3,0-.28,0-.42c.15-.48.1-.55-.37-.42a1.65,1.65,0,0,1-1.05-.23C66.86,16.12,66.75,15.85,66.77,15.48Zm3.28-2A2.67,2.67,0,0,0,68,15c0,.08-.07.17,0,.25s.2,0,.29,0a6.61,6.61,0,0,0,1.5-.76c.24-.13.35-.55.47-.86C70.31,13.46,70.13,13.44,70.05,13.44Z"/><path d="M23.18,21.43a3.07,3.07,0,0,1-.68,1.76c-.28.36-.42.85-.9,1.08-.22.1,0,.48-.14.68.3.24.16.57.2.87a7.08,7.08,0,0,0,.75,1.63.69.69,0,0,1,.07.58,1.11,1.11,0,0,0,0,.78,3.92,3.92,0,0,1,0,2c-.07.44.12.89-.15,1.31a2,2,0,0,1-.37.49c-.13.12-.25.25-.32-.11a3.83,3.83,0,0,1,0-1.76,1.33,1.33,0,0,0-.2-1.19c-.17-.19-.05-.48,0-.72a1.2,1.2,0,0,0-.2-.71c-.28-.47-.39-1-.65-1.49a4.63,4.63,0,0,1-.29-1.28c0-.11-.08-.22,0-.3s.08-.22-.08-.31-.25-.31,0-.44a7.18,7.18,0,0,0,1.12-.93,3.35,3.35,0,0,0,1.11-1.71c.06-.26.27-.41.37-.64a.19.19,0,0,1,.27-.08C23.27,21.07,23.14,21.27,23.18,21.43Z"/><path d="M49.74,19.75a3.31,3.31,0,0,1,.66-1.94.78.78,0,0,1,.29-.28,1.1,1.1,0,0,0,.52-.46,2.19,2.19,0,0,1,1.72-.53,1.09,1.09,0,0,1,.38,1.73,3.26,3.26,0,0,1-2,1.22.37.37,0,0,0-.3.44c.08.28,0,.69.41.81a1.39,1.39,0,0,1,.58.35,2.35,2.35,0,0,0,1.93.43.49.49,0,0,0,.4-.26.1.1,0,0,1,.15,0,.11.11,0,0,1,0,.16c-.11.19-.1.45-.41.56s-.49.37-.82.37A3.48,3.48,0,0,1,50.1,21,2,2,0,0,1,49.74,19.75Zm2.67-1.86c0-.16-.13-.17-.23-.19-.37-.08-.48.23-.66.42s-.09.19,0,.23A.49.49,0,0,0,52,18.3.93.93,0,0,0,52.41,17.89Z"/><path d="M24,30.81c.16.1.28,0,.39-.09s.23-.16.4,0,.41.09.55-.14a.53.53,0,0,1,.68-.27c.21.08.36,0,.51-.18s.46-.43.78-.14c.07.06.22.06.25,0,.14-.3.6-.16.69-.52,0,0,0-.05.07-.05.5,0,1-.32,1.47-.21a2.78,2.78,0,0,0,.76,0,3.31,3.31,0,0,1,1.62.32,3.44,3.44,0,0,0,1.37.62,1.61,1.61,0,0,1,1.34,1.1.74.74,0,0,0,.14.28c.38.31.17.64,0,.93s-.31.15-.43-.05a4.74,4.74,0,0,1-.48-.92c-.11-.37-.39-.37-.65-.4a1.68,1.68,0,0,1-1.05-.28s-.1-.06-.13,0c-.48.23-.81-.12-1.18-.31a3.46,3.46,0,0,0-1.65-.23,4.58,4.58,0,0,0-2.11.59.53.53,0,0,1-.17,0,5.6,5.6,0,0,0-1.9.34h0c-.5.38-1.17.32-1.69.66a.36.36,0,0,1-.41,0c-.18-.1-.1-.26-.05-.4C23.3,31,23.52,30.75,24,30.81Z"/><path d="M49.51,21.39a.16.16,0,0,0,0,.21c.32.28.22.63.16,1,0,.14.12.4-.11.41a.45.45,0,0,1-.46-.35A5.49,5.49,0,0,0,48.36,21a.55.55,0,0,0-.48-.35.4.4,0,0,0-.44.3c-.14.56-.29,1.12-.42,1.68s-.35.7-.71.62-.5-.47-.52-.93a2.94,2.94,0,0,0-.19-1.44c-.22-.38-.6-.81-.44-1.37a1.16,1.16,0,0,0-.14-.78,5,5,0,0,1-.26-1.92c0-.25.06-.49.33-.51s.28.24.34.45c.13.44.1.94.24,1.35a10.81,10.81,0,0,0,.66,2.09c.14.24.29.29.48.06a2.16,2.16,0,0,0,.5-.73A.7.7,0,0,1,47.9,19c.3-.06.4.15.57.33a6.83,6.83,0,0,1,.94,1.55A.65.65,0,0,1,49.51,21.39Z"/><path d="M37.21,24.28a3.12,3.12,0,0,1,.15-1.36.55.55,0,0,0,0-.35,2.64,2.64,0,0,1,.23-2.26,4.34,4.34,0,0,0,.36-.86.48.48,0,0,1,.36-.42c.2,0,.27.15.32.31s.09.16.19.15c.6-.06.71.43.83.82a13.19,13.19,0,0,1,.46,1.88,3.78,3.78,0,0,1-.11,2.2,3.88,3.88,0,0,1-.8,1.24.87.87,0,0,1-1.47-.12C37.49,25.11,37,24.78,37.21,24.28Zm1.45-3.87c-.08,0-.09.08-.12.15a8.46,8.46,0,0,0-.43,2.5,4,4,0,0,0,.22,1.28c.07.22.16.35.36.4a.36.36,0,0,0,.43-.25,2.49,2.49,0,0,0,.21-2.31.24.24,0,0,1,0-.29.32.32,0,0,0,0-.41,1.08,1.08,0,0,1-.16-.58C39.16,20.6,38.9,20.5,38.66,20.41Z"/><path d="M76.92,17.91a.48.48,0,0,0-.68.33.94.94,0,0,0,.36,1c.3.17.62.31.92.47a.23.23,0,0,0,.34-.07c.1-.11.22-.08.32,0s.08.11.06.15-.18.08-.27.08c-.32,0-.45.32-.74.38s-.51.21-.62-.19c0-.09-.12-.14-.17-.1-.28.17-.4-.16-.54-.17-.59-.05-.59-.63-.91-.9a.28.28,0,0,1-.08-.2,4,4,0,0,0-.16-1.82c0-.11.43-.46.55-.4.47.19.69.09.8-.45s1.1-1,1.59-.91.68-.06,1,.34a1.41,1.41,0,0,1,0,1.76A2.68,2.68,0,0,1,76.92,17.91Zm1.13-1.86a2,2,0,0,0-1,.72c0,.15,0,.21.19.2.42,0,.64-.38.95-.58C78.36,16.29,78.19,16.11,78.05,16.05Z"/><path d="M30.34,9.09c-.48-.1-1,.08-1.41-.46a2.26,2.26,0,0,1-.49-1.85c.15-.66,0-1.31.16-1.95a3.41,3.41,0,0,1,.29-1.07.61.61,0,0,1,.81-.28c.48.23,1,.39,1.26,1,.13.3.55.39.72.73A2.65,2.65,0,0,1,32,7.72a3.47,3.47,0,0,1-.85,1.13A.92.92,0,0,1,30.34,9.09Zm1.07-2.26a6.5,6.5,0,0,0-.67-1.75c-.14-.23-.52-.33-.81-.45a.32.32,0,0,0-.4.27,6.21,6.21,0,0,0-.08,2.68.79.79,0,0,0,1,.63A1.51,1.51,0,0,0,31.41,6.83Z"/><path d="M21.34,44.85c.29-.1.64,0,1-.37a4.25,4.25,0,0,1,2.84-1.1c.7-.07,1.4,0,2.1,0,.33,0,.58.2,1,.13A7,7,0,0,0,30.11,43a6.45,6.45,0,0,1,1.54-.49c.45-.08,1,.05,1.39-.42.05-.06.17-.06.24-.1s.33-.09.39.06-.14.18-.24.26a9.61,9.61,0,0,1-3.15,1.18c-.43.14-.84.36-1.26.54-.05,0-.12.08-.16.07-.63-.21-1.23.15-1.86.16s-1.22.17-1.83.21c-.41,0-.84.09-1.23.15a4.11,4.11,0,0,0-1.24.36c-.69.38-1.38.76-2.1,1.07a.57.57,0,0,1-.43,0c-.12,0-.29-.07-.29-.24s.15-.17.26-.21a1.59,1.59,0,0,0,.79-.6C21,44.78,21.15,44.82,21.34,44.85Z"/><path d="M41,19.8c.64,0,.67-.1.45-.7a6.86,6.86,0,0,1-.22-1.44c0-.11,0-.23,0-.35-.12-.31.09-.47.32-.52s.46.13.47.41a6.44,6.44,0,0,0,.46,2.12,1,1,0,0,0,1.24.71.67.67,0,0,1,.44,0c.11.06.25.12.25.28a.28.28,0,0,1-.22.26c-.28.09-.49.33-.82.29s-.33.18-.27.42c.18.82.37,1.64.55,2.45,0,0,0,0,0,0,.1.34-.08.78-.33.83s-.54-.29-.62-.61c-.17-.64-.33-1.28-.46-1.92a3,3,0,0,0-.49-1.25c-.11-.15-.21-.24-.4-.16a.58.58,0,0,1-.62-.16c-.16-.12-.37-.23-.28-.5S40.8,19.77,41,19.8Z"/><path d="M61,8.91a1.94,1.94,0,0,0-.71.1c-.14.07-.32.17-.27.32.17.46-.07,1,.28,1.41.16.21.49.44.11.76-.07.06,0,.14.12.2a.79.79,0,0,1,.19,1.16,1,1,0,0,1-1.23.26,1.13,1.13,0,0,0-.45-.17c-.34,0-.6-.16-.6-.57,0-.17-.15-.25-.25-.36s-.08-.29,0-.44.46-.24.7-.28.16.17.17.3,0,.29.18.26.47-.09.53-.35a.68.68,0,0,0-.06-.52A11.07,11.07,0,0,1,59,9.27a.6.6,0,0,1,.24-.81,3.27,3.27,0,0,1,3.05-.2,1,1,0,0,1,.22,1.55.48.48,0,0,1-.5.07c-.18-.08-.12-.25-.09-.39.06-.35-.1-.51-.42-.55Z"/><path d="M72.25,19.08a1,1,0,0,1-1.13-.52.89.89,0,0,1,.17-1.16c.21-.2.45-.38.48-.7,0-.15.18-.2.28-.27a1.28,1.28,0,0,0,.46-.52c.06-.16.14-.34.39-.26s.2-.1.24-.24a1.85,1.85,0,0,1,1.46-.89.66.66,0,0,1,.58.61c0,.12,0,.28-.24.24a1,1,0,0,0-.7.33,5.87,5.87,0,0,0-1.13,1,8.94,8.94,0,0,0-.78,1.15c-.11.22.06.44.35.43a4.21,4.21,0,0,1,1.16.24c.09,0,.23.06.21.19a.22.22,0,0,1-.23.18C73.29,18.84,72.81,19.22,72.25,19.08Z"/><path d="M36,13.86A.57.57,0,0,0,36,14c.06.29,0,.75.28.81s.63-.2.88-.47a1.81,1.81,0,0,1,1.47-.51c.15,0,.35.08.35.29s-.14.27-.28.31a2.8,2.8,0,0,0-1.38.91A.92.92,0,0,0,37,16a1.64,1.64,0,0,1-.11.82c-.08.16,0,.29.08.42s.07.54-.2.59-.65.34-.62-.31c0-.23-.17-.46,0-.69a.11.11,0,0,0,0-.12,8.23,8.23,0,0,1-1.06-2.65S35.05,14,35,14c0-.25-.09-.53.12-.72s.4,0,.59.06S36.05,13.6,36,13.86Z"/><path d="M33.57,1.34c0,.93.11,1.86.09,2.78,0,.67.18,1.34.11,2s.5,1.17.63,1.79c0,.1.3.14.07.33s-.32.37-.61.26a.61.61,0,0,1-.39-.34,17,17,0,0,1-.69-2.31s0-.06,0-.08c.35-.81-.15-1.64.1-2.45a5.77,5.77,0,0,0-.07-2.19c0-.29.16-.74.36-.72s.42.28.43.57,0,.27.05.4Z"/><path d="M19.91,49.65c-.34-.15-.87-1.14-.73-1.45s0-.44-.21-.62c.2-.08.35-.14.43-.32a.33.33,0,0,1,.49-.15.37.37,0,0,1,.17.5c-.15.19,0,.2.06.33A2.27,2.27,0,0,1,20.54,49c0,.34.21.46.53.6a10.08,10.08,0,0,0,1.88.24c.24.06.43.06.49.39s-.21.3-.38.36a8,8,0,0,1-2,.26,1,1,0,0,1-.89-.5c-.05-.09-.13-.11-.2-.15C19.67,50.05,19.58,49.87,19.91,49.65Z"/><path d="M15.53,47.24a1.9,1.9,0,0,1-.93-.3,17.09,17.09,0,0,1-1.53-1.16.85.85,0,0,1-.43-.85c0-.09,0-.16-.07-.2-.69-.32-.66-1-.75-1.59a.84.84,0,0,1,.37-.94.45.45,0,0,1,.47,0c.16.09.11.25.12.42a2.19,2.19,0,0,0,.43,1.53c.26.3.72.58.68,1.13,0,.11.22.29.37.36a2.26,2.26,0,0,1,.85.83c.13.2.38.15.53.29s.36.11.31.33S15.68,47.24,15.53,47.24Z"/><path d="M17.5,45.37a.83.83,0,0,1,.62.16,1,1,0,0,0,.78.24.34.34,0,0,1,.37.26c.07.21-.15.16-.26.22a1.45,1.45,0,0,1-1,.27c-.18,0-.34,0-.46-.16l-.08,0c-.82-.08-1.22-.73-1.66-1.28a6.14,6.14,0,0,1-1-1.74.6.6,0,0,1,.38-.69c.23-.09.34.15.42.31.25.55.82.85,1.05,1.42a.69.69,0,0,0,.45.34c.12,0,.25.17.05.29s-.3,0-.23.25.24.14.38.17A.66.66,0,0,0,17.5,45.37Z"/><path d="M13.7,39.66a.55.55,0,0,1-.88-.19,3.82,3.82,0,0,0-1.36-1.29,1.5,1.5,0,0,1-.58-1.87.92.92,0,0,0,.06-.6.79.79,0,0,1,.69-.9c.08,0,.24,0,.2.1s.11.48,0,.71c-.26.6.09,1.18.09,1.77,0,.29.35.46.53.54.43.19.51.61.68.91A2.23,2.23,0,0,0,13.7,39.66Z"/><path d="M41.39,7.83a5.27,5.27,0,0,0,.16-1.67,3.07,3.07,0,0,0-.07-1.31.39.39,0,0,1,.21-.41c.12-.06.19,0,.29.12.62.44.46,1.11.48,1.68a6.2,6.2,0,0,1,0,1.14c0,.18,0,.36,0,.54s-.1.57-.46.53A.64.64,0,0,1,41.39,7.83Z"/><path d="M70.78,36.1c.18.07.4.27.45-.15,0-.14.16-.05.23,0a2.78,2.78,0,0,1,0,2.12,1.92,1.92,0,0,0-.31,1,1.86,1.86,0,0,1-.57,1.32c-.07.07-.13.12-.23.06a.15.15,0,0,1,0-.2c.14-.28.08-.6.24-.89a1.17,1.17,0,0,0,.12-1.18.63.63,0,0,1,.17-.74c.13-.11.21-.18,0-.3a.16.16,0,0,1,0-.12C71.24,36.68,70.76,36.45,70.78,36.1Z"/><path d="M69.35,38.49c.07.28.07.29.31.27s.16.08.16.16a1.87,1.87,0,0,1,0,.53,2,2,0,0,0-.14,1,.41.41,0,0,1-.14.36A2.48,2.48,0,0,0,69,41.85c0,.15-.14.3-.31.26s-.11-.23-.11-.37a6.76,6.76,0,0,1,.5-2.13.91.91,0,0,0,0-.52A.48.48,0,0,1,69.35,38.49Z"/><path d="M16.63,30.23a1.41,1.41,0,0,1,.59.19c.11.06.29.12.23.27S17.23,31,17,31c-.37-.16-.52,0-.7.3a2.53,2.53,0,0,1-.89.65c-.24.17-.35-.12-.45-.24s.12-.13.19-.2a7.82,7.82,0,0,1,.94-1C16.28,30.38,16.41,30.22,16.63,30.23Z"/><path d="M43.16,2.17a.61.61,0,0,1-.69-.4.46.46,0,0,1,.18-.51.55.55,0,0,1,.69.1l.13.12c.13.13.49.08.4.32a.6.6,0,0,1-.61.35A.39.39,0,0,0,43.16,2.17Z"/><path d="M27.35,49.1h.32c.12,0,.27-.08.3.08a.27.27,0,0,1-.19.28c-.37,0-.69.26-1.07.27-.16,0-.21,0-.25-.18s.08-.19.2-.18C26.94,49.4,27,49,27.35,49.1Z"/><path d="M25.8,49.78c0,.07,0,.09,0,.1-.21.21-.53.12-.77.27s-.2-.08-.28-.16l-.05-.07a1,1,0,0,1,.64-.41C25.55,49.48,25.62,49.75,25.8,49.78Z"/></g></g></g></svg>