<svg xmlns="http://www.w3.org/2000/svg" viewBox="0 0 62.89 76.62"><defs><style>.cls-1{opacity:0.6;}.cls-2{fill:#f9a675;}</style></defs><g id="Layer_2" data-name="Layer 2"><g id="Layer_1-2" data-name="Layer 1"><g class="cls-1"><path class="cls-2" d="M1,13.41a5.33,5.33,0,0,0,1.18,2.24c.41.6.62,1.26,1,1.87a1.88,1.88,0,0,0,1.6,1.05,9.32,9.32,0,0,0,4.29-.49c.19-.07.42-.17.23-.36-1.13-1-4-.47-5.29-.08-.11,0-1,.21-.61.48.55.41,1,1,1.56,1.36s1,.37,1.11.87l.33-.25-.3.12,3.91-.4c-.1,0,.57-.66.61-.7l.71-.63a7.26,7.26,0,0,1,2.1-1.28c.8-.38,1.51-.92,2.33-1.27A11.35,11.35,0,0,1,18,15.33l-2.83,0c.27.08.75,1.31.83,1.57A5.79,5.79,0,0,1,15.91,20a10.25,10.25,0,0,0-.58,2.85A17.11,17.11,0,0,1,15,26.47c-.45,2.27-.44,4.6-1.06,6.84-.28,1-.38,2-.68,2.94a18.1,18.1,0,0,1-.76,3.13,4.36,4.36,0,0,0-.68,2.24c0,1.12-.68,2.05-.75,3.19s.08,2.24.1,3.35-.31,2.3-.37,3.47a22,22,0,0,0,0,3.35,1.35,1.35,0,0,0,1,1.27,19.71,19.71,0,0,0,5.85,1.08c1.29.08,2.57,0,3.86,0,1,0,2,.3,3,.37,2.16.16,5,.2,6.86-1.06.08,0,1-.74,1-.76.08.23-2.22-.31-.86.11.2.07.43.1.63.15,1.2.3,2.38.59,3.59.8,1,.18,2.1.42,3.13.66s1.62,1.14,2.56,1.75a4.65,4.65,0,0,0,2.62.53c.92,0,2.83.07,3.58-.64.4-.37.29-.85.19-1.33a17.19,17.19,0,0,0-.41-2.84,6,6,0,0,1-.58-1.23,5.31,5.31,0,0,0-.18-1.25,5.69,5.69,0,0,1-.53-1.21,8.18,8.18,0,0,1,0-1.85c0-1-.1-2.07,0-3.1a11.7,11.7,0,0,1,.92-3.28c.4-1.16.33-2.42.71-3.56a6.58,6.58,0,0,0,.41-3.7c-.24-1.28-.57-2.51-.69-3.81s-.55-2.53-.61-3.83.32-2.4.34-3.62a10.68,10.68,0,0,1,.64-3.58,11.65,11.65,0,0,1,1.64-2.92c.25-.34.48-.69.72-1,.12-.17.24-.35.37-.51s.67-.48.14-.33l-3.52.28c-.37,0,.34.26.41.31s.36.29.53.43a8.44,8.44,0,0,0,1.63,1,5.85,5.85,0,0,1,2.52,2.32c.55,1.37,1.41,1.47,2.84,1.47A8.37,8.37,0,0,0,59.7,21a10.53,10.53,0,0,0,2.47-1.91c.72-.9.13-1.47-.65-2A6.91,6.91,0,0,1,59.29,14c-.59-1.26-1.51-2.32-2.13-3.55s-.8-2.24-1.79-3.18A8.32,8.32,0,0,0,52,5C50.5,4.57,49,4.17,47.59,3.71c-.61-.19-1.22-.28-1.85-.41a10.27,10.27,0,0,1-1.51-.59,8.9,8.9,0,0,0-4.61,0C38.41,3,38.18,4,37.22,4.79a8,8,0,0,1-3.59,1.53A5,5,0,0,1,30,5.63C28.78,5,27.26,4,26.92,2.6s-1.57-1.45-2.85-1.48c-.43,0-.85,0-1.27,0l-.66,0c-.5,0-.43,0,.21,0,0,0-2.46-.09-2.58-.08a11.09,11.09,0,0,0-3.13.47,5.34,5.34,0,0,0-1.56,1.16l1.13-.36a6.64,6.64,0,0,0-3.15,1.38A21.11,21.11,0,0,1,10,5.91c-1,.51-1.75,1.33-2.73,1.9s-2.1,1-3.12,1.61a10.13,10.13,0,0,0-2.54,2c-.66.74-.27,1.11.33,1.81S3,14.31,3.62,14.88c.83.81,1.28,1.85,2.38,2.36.54.25,4.89.33,4.89-.5a20.27,20.27,0,0,0-1-4.39c-.19-.8-.79-2.21-.31-3l-5,.4c.86,1.3,1.53,2.71,2.52,3.93A4.13,4.13,0,0,0,8.67,15a8,8,0,0,0,4.17,0c.16,0,1.22-.16,1.21-.48a17.11,17.11,0,0,0-.41-3.26A12,12,0,0,1,13,8.57l-4.88.51c1.08,1.14,1.55,2.9,2.52,4.16a2.62,2.62,0,0,0,1.44,1.14A9.05,9.05,0,0,0,16.77,14a.41.41,0,0,0,.32-.25c.23-2.5-1.06-4.91-2.27-7l-5,.4c.95,1.19,1.78,2.46,2.61,3.73a18.77,18.77,0,0,0,1.94,3c.45.47,4.95.1,4.89-.51C19,11,17.63,8.92,16.85,6.68l-5,.39c.77.95.88,2.37,1.39,3.47a12.93,12.93,0,0,0,2.68,3.93c.48.45,4.78.26,4.89-.51a11,11,0,0,0-.72-4.53c-.2-.68-.42-1.36-.62-2a11.53,11.53,0,0,1-.23-2.75l-5,.4a58.88,58.88,0,0,0,2.12,6,25.2,25.2,0,0,1,1,2.4,3.66,3.66,0,0,0,.81,1.65c.47.48,4.74.26,4.88-.51a26.75,26.75,0,0,0,.08-5.73c-.05-1.47-.81-3-.28-4.42l-5,.4a17.06,17.06,0,0,1,.75,2.36A32.46,32.46,0,0,0,20,10.34c.41.86.62,1.8,1.08,2.63s.68,1.59,1.12,2.3,5.08.08,5-.4c-.37-1.82-1.06-3.56-1.45-5.38a15.51,15.51,0,0,0-.65-2.69c-.29-.73-.65-1.43-.95-2.16a2.6,2.6,0,0,0-2.84-2c-1.53,0-3.94,0-4.73,1.53-.11.22,1.58.28,1.56.28a9.59,9.59,0,0,0,2.72-.31c.78-.21.38-.19-1.22.09a2.28,2.28,0,0,1,.53.34,3.82,3.82,0,0,1,.92,1.22,19.6,19.6,0,0,1,1,2.66c.38,1,.79,2,1.08,3.12a6.42,6.42,0,0,0,1.15,2.65c.51.61,4.76.43,5-.4a9.34,9.34,0,0,0,.12-3.12c-.08-1.22-.05-2.45-.07-3.67l-5,.4A38.13,38.13,0,0,0,25.94,15c.25.73,4.5.29,4.91-.27a3.77,3.77,0,0,0,.36-2.63c-.09-1.36,0-2.73,0-4.09l-5,.4a5.82,5.82,0,0,0,.48,2.51,13.59,13.59,0,0,1,.8,2.71c.21,1,.76,1.78,1,2.73s.36,2,.55,2.92a9.3,9.3,0,0,0,2,4.65,19.42,19.42,0,0,1,1.79,2.35,8,8,0,0,0,1.47,1.93c.48.41,4.9.21,4.89-.51a17.46,17.46,0,0,0-1.34-5.57c-.29-.83-.74-1.54-1.09-2.34s-.48-1.58-.85-2.34-.93-1.48-1.3-2.28a12.37,12.37,0,0,1-.75-2.52C33.44,10.83,32.61,9,33,7.14l-4.62.59c.56.13,1,1.2,1.19,1.64.34.63.74,1.22,1.1,1.84,1,1.61,1.31,3.41,2.07,5.1.37.81.9,1.52,1.31,2.3s.76,1.68,1.14,2.51a19.77,19.77,0,0,0,3.34,4.68c.46.53,1.92.29,2.53.24s2.24,0,2.46-.64c.38-1.09-.54-2.74-1-3.7a28.7,28.7,0,0,1-1.77-4c-.12-.45-.09-.92-.22-1.35A13.61,13.61,0,0,0,39.91,15c-.39-.9-.8-1.81-1.15-2.73a23.43,23.43,0,0,1-.85-2.82,15,15,0,0,1-.79-2.66l-4.89.51C34.17,9.16,35,12,36.82,13.94a16.4,16.4,0,0,1,2.08,3.58A30.89,30.89,0,0,0,40.74,21c.49.67,5.09.09,5-.4a61.54,61.54,0,0,0-2.46-7.7c-.44-1.17-1-2.29-1.45-3.44s-.59-2.23-1.07-3.26c-.37-.82-5.08,0-5,.39a20.4,20.4,0,0,0,1.32,3.08c.53,1.22,1,2.48,1.51,3.69.47,1,1.1,2,1.5,3.05A8.77,8.77,0,0,0,41.18,19c.5.6,5.08.22,5-.39-.15-1-.44-2-.68-2.94s-.25-2.2-.51-3.29-.62-1.91-.87-2.88-.45-2.27-.7-3.4l-4.89.51c.81.43,1,1.85,1.17,2.65a11.67,11.67,0,0,0,1.21,3.16c.75,1.39,1.06,2.87,1.67,4.31.35.83,1,2.3,1.85,2.66.52.21,4.92.33,4.88-.51a47.79,47.79,0,0,0-1-6.37c-.18-1-.34-2-.59-3.06-.16-.65-.74-1.56-.35-2.18l-5,.4A55.07,55.07,0,0,0,46.11,17l5-.39a40.33,40.33,0,0,1-1.81-4.48C48.66,10.56,48,9,47.36,7.39a21.15,21.15,0,0,0-1.22-3.13,1.52,1.52,0,0,0-.91-.76A4.91,4.91,0,0,0,44,3.35c-.33,0-2.19,0-.66,0l1.17.17-.36-.15c-.48-.2-5.07-.11-4.88.51a18.61,18.61,0,0,0,3.23,5.78c1,1.33,1.6,3.06,3,4.05.55.39,4.77.32,4.89-.51a9.48,9.48,0,0,0-.4-3.38c-.26-1.32-.43-2.66-.63-4l-5,.39c.39,1.84,1,3.62,1.45,5.45.24,1,.26,2.18,1,3,.45.46,4.84.22,4.88-.5a21.45,21.45,0,0,0-.37-5.6l-4.89.5c.81.27,1.33,1.68,1.71,2.36.76,1.37,1.52,2.76,2.31,4.11.41.7,4.47.36,4.91-.27.87-1.26-.09-4-1-5.1-.49-.6-5.07-.22-5,.4a16,16,0,0,0,1.49,4.23,45,45,0,0,1,1.7,4.49l5-.4c-1.05-1.28-3.21-1.62-3.56-3.4l-4.23.65a5.9,5.9,0,0,1,1.09.24,8.57,8.57,0,0,0,3.42-.11c.3-.06,1.82-.43.85-.68a29.41,29.41,0,0,0-6.85-1c-2.32,0-4.61.44-6.93.4-4.58-.08-8.81-1.94-13.46-1.34-.58.08-1.16.19-1.73.32a6.38,6.38,0,0,0-.86.22c-.78.32,1.26-.23,1.28-.06-.06-.44-2.76-.42-3-.42-1.78.06-4.07.26-4.79,2.18-.56,1.5-.1,3.21,0,4.75a25.91,25.91,0,0,1-.35,6.28c-.72,4.56-1.73,9.14-2,13.75-.08,1.08-.05,2.17-.16,3.25a30.59,30.59,0,0,1-.68,3.43,28.06,28.06,0,0,0-.25,6.48c0,.57-.18,1.52.22,2s1.49.53,2.08.55a8.87,8.87,0,0,0,1,0H19c.48,0,.45,0-.12,0-.45.21-.6-.07-.08.22a1.85,1.85,0,0,0,.39.15,8.71,8.71,0,0,0,4.18-.17c.93-.22,1.14-.45,1.23-1.43a21.21,21.21,0,0,0-.08-2.76,56.87,56.87,0,0,1,.37-6.9c.45-4.83,2.3-9.37,2.91-14.18a50.79,50.79,0,0,0,.25-7.7c-.07-2.65.08-5.3,0-7.94L23,16c.56,3.26,1.61,6.44,1.94,9.74a31.55,31.55,0,0,1,.16,5.05c-.12,1.74-.58,3.45-.66,5.18-.08,1.55-.33,3.08-.4,4.63s.3,3.45-.12,5.1-.16,3.06-.57,4.61A21.43,21.43,0,0,0,23,55.38c0,.29,1.15.28,1.26.28,1.25.06,3.47.16,4.18-1.1a27.22,27.22,0,0,0,1-2.79l-5,.4c0,.86,0,1.72,0,2.59l5-.4A5.19,5.19,0,0,1,30,51.88a9.42,9.42,0,0,1,1-2.25l-4.9.28c.22,1.23-.17,2.46.12,3.68.17.72,4.68.28,5-.4s.47-3.08,1.28-3.37l-2.79.42h.13L28,50c.27,1.46-.33,2.89,0,4.35.17.7,4.72.3,5-.4.6-1.52.85-3.14,1.44-4.67l-4.89.51c.62.37.18,2.85.12,3.49,0,.38,4.72.49,5-.4.18-.61.35-1.23.56-1.84.13-.39.27-.78.44-1.16.09-.19.38-.69.35-.68l-3.9.4h.08l-.76-.26c-.08,1.19-.54,2.33-.27,3.52.18.75,4.46.2,4.91-.28a12.13,12.13,0,0,0,1.72-2.68l-5,.4c.88,1,.62,2.6.82,3.84.12.68,4.53.26,4.91-.27a6.05,6.05,0,0,0,.64-1.27,8,8,0,0,1,.36-.79c.13-.22.61-.55.09-.39l-4.28,0a8.08,8.08,0,0,1,.27,3.39c0,.7,4.46,0,4.91-.27,1.3-.8.57-2.8,1.8-3.59l-4.81.39c.65.45.23,1.46,1,1.85a5.24,5.24,0,0,0,2.43.14c.52,0,2,0,2.37-.52a7.74,7.74,0,0,0,.48-.83c.1-.19.23-.38.32-.57s.52-.44,0-.29l-3.53.28c-.25,0-.14.48-.09.62.18.49,4.09.38,2.38-.1-.58-.16-1.15-.32-1.72-.53-1.63-.58-3.29-1-4.93-1.6-1.33-.46-3.5-1-3.65-2.65-.08-.85,0-1.71-.11-2.57a16.66,16.66,0,0,1-.22-3c.11-2.06.62-4.07.88-6.1a44.83,44.83,0,0,0,.2-6.24c0-2.06,0-4.12-.05-6.18,0-1.75-1.11-3.24-1.07-4.95l-5,.4A23,23,0,0,1,27.57,22c.09,1.27.33,2.52.45,3.79.25,2.75.45,5.52.55,8.28s.05,5.35.11,8a78.88,78.88,0,0,1-.12,8.28c0,.41,4.7.46,5-.39,2.8-8.42,3-17.6,2.84-26.4l-5,.4c.24,2.39.67,4.76.72,7.16s0,4.69,0,7c0,4.72-.27,9.51.05,14.23,0,.64,3.42.15,3.78.08.73-.15,1.73-.28,2-1.11a9.53,9.53,0,0,0,0-1.69c.06-.71.19-1.42.28-2.14.37-2.92.58-5.85.87-8.78s.74-5.56.87-8.4c.07-1.46.11-2.93.27-4.39a29.73,29.73,0,0,0,.37-4.31c0-.56-5-.36-5,.39,0,5-.37,10-.41,15.08,0,2.46-.18,4.9-.23,7.36,0,1.29,0,2.58-.07,3.87s-.33,2.39-.36,3.61c0,.49,4.69.4,5-.4.74-2,.53-4.5.83-6.65.34-2.52.74-5,1.17-7.53.83-4.83,1.9-9.67,1.86-14.59l-5,.39c0,3,0,6,.12,9s.28,6,.06,9c-.2,2.85-.43,5.71-.73,8.55a16,16,0,0,0,1.1,8.1l5-.39c-2-2.66-4.87-3.63-8.12-3.71a22.3,22.3,0,0,0-6,.6c-1,.25-1.83.67-2.76,1a14.84,14.84,0,0,1-3,.48l3.19.17c-.46-.89,1.8-1.63,2.24-1.73a17,17,0,0,0,4.65-2.16c1.72-1,1.38-2,.26-3.36a37.06,37.06,0,0,1-3.59-5,64.58,64.58,0,0,1-3-5.94c-.88-1.9-1.74-3.49-1.22-5.61a51.78,51.78,0,0,0,1.25-6.43,25.53,25.53,0,0,0,.3-6.7c-.09-.64-4.76-.34-5,.39A53.06,53.06,0,0,0,22,26.22c-.4,2.5-.82,5-1.09,7.5,0,.35,4.77.51,5-.4,1.53-6.33,3-12.69,4.89-18.91l-.1-.11c-.45-.48-1.58-.43-2.17-.45s-1,0-1.5,0c-.89,0,.55.06-.41,0a28.81,28.81,0,0,0-8.54.56,29.07,29.07,0,0,0-7,2.23C10,17.2,8.31,18,7.89,19.26c-.15.44,3.92.07,4.28,0a57.88,57.88,0,0,0,8.41-2.87,3.14,3.14,0,0,0,1.89-1.64,9.16,9.16,0,0,0,.54-2,14.38,14.38,0,0,1,.22-2.08,2,2,0,0,1,.45-.79l.23-.21c.35-.18.35-.24,0-.18s-.38,0-.14,0l.81-.08c.34,0,.68-.09,1-.15a3,3,0,0,0,2.56-1.57c.86-2-1-4.66,0-6.68l-5,.4c1.17,1.52,1.11,3.72,2.48,5.1C27.26,8.11,29.89,8,32,7.52c0,0,1.32-.25,1.2-.48a2.74,2.74,0,0,0-.63-.87c-.32-.23-.4-.18-.8-.07s.39,0,0,0l1,0a27.34,27.34,0,0,0,5-.86,20.42,20.42,0,0,0,4.88-1.9l1.16-.64c.8-.44,2.08-.62-.14-.55-2,.07-1.23,0-.48.41a11.61,11.61,0,0,0,1.16.61c1.06.45,3.31.54,3.77,1.76.23.63.33,1.37.56,2a8.83,8.83,0,0,1,.63,2c.09,1.49-1,3-1.69,4.23-.9,1.59-1.4,3.43-2.65,4.79-2.44,2.66-5.94,4.48-7,8.17l4.88-.5c-1.11-.65.8-2.68-.94-3.28a7,7,0,0,0-3.09-.06,3.4,3.4,0,0,0-1.47.32c-.06,0-.55.24-.22.36,1.5.52-.35,2.53.93,3.27a5.27,5.27,0,0,0,2.76.1c.43,0,2-.07,2.13-.6,1.11-3.84,4.91-5.46,7.24-8.38,1.16-1.44,1.69-3.3,2.61-4.89.78-1.35,1.89-3.05,1.31-4.64-.28-.78-.61-1.58-.84-2.37-.16-.54-.08-1-.45-1.45a4.5,4.5,0,0,0-2.13-1,12.75,12.75,0,0,1-2.55-1,8.7,8.7,0,0,0-5.87-.52c-2,.38-3.7,1.71-5.57,2.55a15.58,15.58,0,0,1-3.26,1c-.21.05-.43.07-.63.13-.64.2.46,0,.68,0a12.81,12.81,0,0,0-1.39.07,24.41,24.41,0,0,0-2.71.3,3.83,3.83,0,0,0-2,.68l-.08.12a6.87,6.87,0,0,1,.87,1.14L29.39,7l-.26,0,2.51-.2c.67,0-.06-.11-.32-.26a4.14,4.14,0,0,1-.55-.38,3.92,3.92,0,0,1-1.09-1.65A13.92,13.92,0,0,0,28.16,1c-.54-.71-4.59-.39-5,.4A5.71,5.71,0,0,0,23,4.2a16.66,16.66,0,0,1,.26,3.22,2.12,2.12,0,0,1-.22.78l-.33.42c.84,0,1.05,0,.64,0-.66.14-1.35.14-2,.27a4.26,4.26,0,0,0-2.76,1.43c-1.19,1.67,0,4.69-2.1,5.83A38.93,38.93,0,0,1,8.6,18.89l4.28,0c.28-.84,1.48-1.45,2.19-1.88a15.12,15.12,0,0,1,3.6-1.55c.77-.21,1.56-.34,2.34-.53.09,0,1.15-.25.71-.19s.51,0,.6,0c.75,0,1.5.08,2.25.1a7.5,7.5,0,0,1,1.43,0c-.34-.25-.4.68-.49.95-.27.85-.51,1.72-.76,2.58-.46,1.64-.89,3.29-1.31,5-.88,3.47-1.68,7-2.53,10.44l5-.4c.26-2.51.68-5,1.08-7.5a52.6,52.6,0,0,1,1.17-6.73l-5,.39a26.49,26.49,0,0,1-.3,6.71,50.93,50.93,0,0,1-1.2,6.22,4.88,4.88,0,0,0-.11,2.83,24.66,24.66,0,0,0,1.28,3,65.79,65.79,0,0,0,3,5.94,39.59,39.59,0,0,0,3.59,5c.43.51,1.15,1.19,1.05,1.95s-1,1.06-1.53,1.37a17.32,17.32,0,0,1-2.38,1.32c-.68.23-1.39.29-2.07.58s-2.68,1.12-2.22,2c.33.64,2.74.22,3.19.17a32.06,32.06,0,0,0,4.68-.72c.69-.19,1.36-.45,2-.7.33-.13.65-.27,1-.37.61-.18-.09,0,.12,0,2.22-.15,4.44,1.47,5.7,3.14.58.78,5.08-.14,5-.39a15.89,15.89,0,0,1-1.12-7.89c.3-2.91.55-5.84.76-8.77s0-5.84-.06-8.78-.08-6.16-.12-9.24c0-.55-5-.36-5,.39.05,4.93-1,9.77-1.85,14.6-.43,2.5-.84,5-1.18,7.53-.29,2.15-.09,4.6-.82,6.65l5-.4c0-1.21.28-2.4.36-3.61s.05-2.58.08-3.87c0-2.45.2-4.9.22-7.36,0-5,.4-10,.41-15.07l-5,.39c.08,2.5-.47,5-.59,7.53-.12,2.69-.39,5.29-.74,8s-.47,5.2-.75,7.79c-.13,1.27-.28,2.54-.46,3.81a9.16,9.16,0,0,0-.11,2c0,.18,0,.4,0,.57.06.4-.66.48.4.27l3.78.08c-.32-4.71,0-9.51,0-14.23,0-2.34,0-4.7,0-7s-.48-4.77-.72-7.16c-.06-.62-5-.29-5,.4.2,8.8-.05,18-2.85,26.39l5-.39A77.22,77.22,0,0,0,33.67,42c-.06-2.76,0-5.51-.11-8.27s-.3-5.36-.54-8c-.11-1.28-.35-2.54-.45-3.82a25.91,25.91,0,0,0-.38-3.73c-.16-.69-5-.27-5,.4a7.49,7.49,0,0,0,.7,2.7,8.75,8.75,0,0,1,.37,2.87c0,2.34,0,4.68,0,7a38.09,38.09,0,0,1-.5,6.66,22,22,0,0,0-.43,6.76c.2,1.45-.28,3.44,1,4.48,1.51,1.25,3.89,1.69,5.72,2.26,3.4,1,6.6,2.44,10.23,1.31.62-.2,1.41-.59,1.11-1.38s-1.52-.71-2.18-.71c-1.07,0-2.69,0-3.6.67-.58.43-.77,1.25-1.16,1.82l4.8-.38c-.64-.32-.37-1.4-1-1.86s-1.85-.18-2.43-.13a5.32,5.32,0,0,0-2.37.51c-1.28.82-.56,2.82-1.81,3.59l4.91-.28A7.94,7.94,0,0,0,40.28,51c-.27-.78-3.7-.15-4.28,0-1.63.5-1.46,1.7-2.34,2.94l4.91-.28c-.21-1.24.06-2.82-.82-3.84-.46-.53-1.92-.29-2.53-.24s-2.12,0-2.46.64A10.71,10.71,0,0,1,31.2,52.7l4.91-.27c-.28-1.18.18-2.33.27-3.51,0-.2-.75-.25-.76-.26-1.58-.2-4.08-.25-4.89,1.38a19.16,19.16,0,0,0-1.09,3.2l5-.4c.08-.83.55-3.18-.31-3.71-.67-.41-2.05-.17-2.76-.1-.47,0-1.92.07-2.12.61-.59,1.52-.84,3.15-1.45,4.67l5-.4c-.34-1.45.26-2.89,0-4.35-.07-.39-1.67-.28-1.86-.27-1.42,0-3.24,0-3.94,1.43-.44.91-.51,2-.92,2.87l5-.4c-.29-1.22.11-2.45-.12-3.68-.13-.71-4.5-.23-4.9.27a7.64,7.64,0,0,0-1,2.15,6.3,6.3,0,0,0-.79,2.83c0,.58,4.95.34,5-.4s0-1.73,0-2.59c0-.54-4.66-.35-5,.4A13.4,13.4,0,0,0,24,53.68a6.61,6.61,0,0,1-.54,1.45l3.4-.43h-.09L28,55a21.19,21.19,0,0,1,.31-4.84,9.79,9.79,0,0,0,.44-2.63,7.3,7.3,0,0,1,.15-2c.41-1.65.1-3.34.16-5s.32-3.25.4-4.88.51-3.29.64-4.95A28.39,28.39,0,0,0,30,25.58c-.31-3.38-1.39-6.63-1.95-10-.12-.69-5-.24-5,.4.18,3.57.09,7.19.12,10.77a38.53,38.53,0,0,1-1.35,10.47,45.5,45.5,0,0,0-1.94,9.65c-.09,1.73-.29,3.46-.31,5.19,0,1.44.35,3-.12,4.38l.7-.36-.31.07L23.73,56c-.36-.07-.67-.34-1-.44a6,6,0,0,0-1.34-.15h-1c-1,.05-.88.06.35.05,0,.19-.35-.46-.33-.41a8.46,8.46,0,0,1-.07-2.52c0-1.05-.08-2.09,0-3.14.1-2.16.88-4.19,1-6.33s.23-4.35.58-6.52.52-4.31.9-6.44a60,60,0,0,0,1-6.26,29.67,29.67,0,0,0-.17-5.33,9.49,9.49,0,0,1,0-2.13,3.69,3.69,0,0,1,.26-1c.08-.18.77-1,.41-.88l-2.51.2c-.35,0-.34-.08,0,.05a5.74,5.74,0,0,0,.81.23,7.65,7.65,0,0,0,1.65.18,17.64,17.64,0,0,0,4.52-.54c.29-.07,1.58-.3.33-.18s-.19.08.11.12c.57.08,1.13.2,1.69.32,1.27.27,2.51.56,3.79.75a39.81,39.81,0,0,0,8.45.23,23.68,23.68,0,0,1,3.66-.23,27,27,0,0,1,4.17.82l4.27-.79a11.13,11.13,0,0,0-1.88-.36c-.43,0-4.36,0-4.23.65.36,1.89,2.48,2.1,3.55,3.41.56.68,5.11,0,5-.4a47.41,47.41,0,0,0-1.7-4.48,15.41,15.41,0,0,1-1.49-4.24l-5,.4a6,6,0,0,1,1,2.39c.16.62.52,1.86.11,2.46l4.91-.27c-.83-1.42-1.63-2.87-2.42-4.31-.39-.71-1-2.11-1.8-2.38-.47-.16-5-.25-4.88.5a22.38,22.38,0,0,1,.37,5.6l4.89-.5c-.74-.74-.72-2.24-1-3.2-.44-1.67-1-3.3-1.34-5-.15-.76-5.06-.14-5,.39.19,1.33.37,2.68.63,4a9.53,9.53,0,0,1,.4,3.39l4.88-.51c-1.36-1-2.05-2.84-3.05-4.15a17.93,17.93,0,0,1-3-5.46L39.33,4a7.4,7.4,0,0,0,3.44.25l-2.17,0c.78.13,1,1.52,1.22,2.14.38,1.11.87,2.2,1.3,3.29a72.81,72.81,0,0,0,3,7.37c.53,1,5-.31,5-.39A56.36,56.36,0,0,1,47.31,7.3c-.22-.8-4.59-.21-5,.4s.12,1.35.29,2c.29,1.08.45,2.19.65,3.28a47.53,47.53,0,0,1,1,6.37l4.89-.51c-.93-.37-1.58-2.17-1.88-3a30.65,30.65,0,0,0-1.82-4.4,11.79,11.79,0,0,1-.94-2.91c-.21-.82-.43-2-1.26-2.44-.49-.26-5-.14-4.88.51.23,1,.39,2.12.64,3.17s.67,2.06.92,3.11.22,2.06.46,3.08S41,18,41.18,19l5-.39a8.11,8.11,0,0,1-1.05-2.52c-.4-1.11-1.06-2.11-1.54-3.18s-.93-2.32-1.42-3.47a22.21,22.21,0,0,1-1.42-3.29l-5,.39c.45,1,.58,2.07,1,3.07.49,1.22,1.06,2.4,1.52,3.64A60.55,60.55,0,0,1,40.74,21l5-.4c-1.57-2.14-2.06-5-3.87-7S39.05,8.63,37,6.66c-.46-.44-4.93-.15-4.89.51a14.41,14.41,0,0,0,.75,2.45,23.83,23.83,0,0,0,.89,3c.36.93.76,1.83,1.16,2.74.16.38.4.76.53,1.15s.16,1,.3,1.54a27.69,27.69,0,0,0,1.77,4c.41,1,1.34,2.62.95,3.7l5-.4A20.14,20.14,0,0,1,40,20.53c-.41-.9-.77-1.82-1.25-2.68a19.62,19.62,0,0,1-1.42-2.68,27.63,27.63,0,0,0-2.31-5.25c-.67-1.06-1.11-2.66-2.47-3a8.41,8.41,0,0,0-2.83,0c-.34,0-1.71.12-1.79.57-.34,1.83.49,3.69.88,5.46a12.31,12.31,0,0,0,.76,2.51c.36.8.91,1.5,1.29,2.29s.52,1.57.85,2.34.81,1.51,1.1,2.34a17.66,17.66,0,0,1,1.34,5.57l4.88-.51a12,12,0,0,1-1.71-2.39c-.5-.71-1.1-1.33-1.64-2a10,10,0,0,1-1.8-4.71,26.76,26.76,0,0,0-.57-2.94A17.54,17.54,0,0,1,32.42,13c-.31-1.74-1.25-3.19-1.25-5,0-.52-5-.38-5,.4,0,1.25-.05,2.52,0,3.78.05.8.34,2-.18,2.69l4.91-.27a37.52,37.52,0,0,1-1.52-7.5c-.09-.65-5-.28-5,.4,0,1.22,0,2.44.08,3.67a9.61,9.61,0,0,1-.12,3.12l5-.4c-1-1.17-1.13-2.79-1.64-4.2A28,28,0,0,0,26,5.27C24.35,2.36,20,3,17.29,3.83l4.28,0c.4-.39.34-.52-.19-.37l-2.52.2c-.84,0,0,.62.17,1.07s.38.92.59,1.37a11.81,11.81,0,0,1,1,2.71c.42,2.2,1.2,4.3,1.65,6.49l5-.4c-.41-.65-.62-1.44-1-2.12-.5-.89-.75-1.88-1.19-2.8S24.09,8,23.7,7a25.07,25.07,0,0,0-.84-2.58c-.37-.72-4.71-.34-5,.4-.53,1.44.23,3,.28,4.42A28.11,28.11,0,0,1,18.08,15L23,14.49a5,5,0,0,1-.74-1.86c-.28-.82-.71-1.58-1-2.38-.75-1.82-1.36-3.72-1.94-5.61-.23-.74-5-.18-5,.4a11.41,11.41,0,0,0,.23,2.74c.21.68.43,1.36.63,2.05a10.8,10.8,0,0,1,.71,4.53l4.89-.51a12.56,12.56,0,0,1-2.65-4.07c-.43-1-.53-2.24-1.22-3.1-.57-.71-5.11,0-5,.39.79,2.25,2.17,4.29,2.43,6.69l4.89-.5a22,22,0,0,1-2-3.17C16.44,9,15.68,7.81,14.82,6.74c-.42-.53-1.93-.28-2.52-.24-.17,0-2.61.37-2.46.64,1.21,2.11,2.5,4.51,2.26,7l.33-.25-.12,0,2.13-.39c2,.37,2.67.38,1.93,0a1.39,1.39,0,0,1-.27-.21c-.19-.24-.42-.45-.6-.71a15.91,15.91,0,0,1-1-1.58,12.87,12.87,0,0,0-1.6-2.61C12.49,8,8,8.28,8,9a12.7,12.7,0,0,0,.61,2.7,16.25,16.25,0,0,1,.41,3.26l1.21-.48c4-.85,3.55.65,2.17-.8A10.63,10.63,0,0,1,11.2,12c-.56-.86-1-1.77-1.58-2.62-.36-.54-2-.28-2.53-.24s-2.08,0-2.46.64c-.47.77.13,2.19.31,3a19.74,19.74,0,0,1,1,4.38l4.89-.5c-.92-.43-1.33-1.23-2-2S7.47,13.49,6.88,12.8s-.94-.92-.48-1.56A7.73,7.73,0,0,1,8.77,9.37c.89-.53,1.85-.95,2.77-1.43a20.15,20.15,0,0,0,2.2-1.59c.86-.61,1.85-1,2.71-1.63a30.06,30.06,0,0,1,2.78-2l-1.12.35A4.15,4.15,0,0,0,20,2.49a2.22,2.22,0,0,0,.62-.64c-2.21.09-2.86.17-2,.23l.52,0a16.9,16.9,0,0,0,2.36,0l.31,0c.42,0,.43,0,0,0s-.43.11,0,.39l.05.24a2.91,2.91,0,0,0,.62,1.47A9.08,9.08,0,0,0,24,5.5a10,10,0,0,0,3.72,1.7c3.13.67,6.78.13,9.85-.63a12.1,12.1,0,0,0,3.65-1.32A8.87,8.87,0,0,0,42.75,4c.24-.24.57-1,.82-1.16l-3.64.55c-.44,0,.64.43.86.5.53.17,1.07.2,1.6.32,1.44.32,2.83.92,4.27,1.28A7.65,7.65,0,0,1,50.31,7.6c1.11,1.07,1.33,2.26,2,3.56.64,1.15,1.47,2.18,2,3.38a7.13,7.13,0,0,0,1.86,2.84c.89.72,1.89,1.25.68,2.29-.38.32-.81.58-1.2.88-.2.15-.38.31-.58.45s-1,.45-.37.34l3-.18c-.33,0-.65-1.45-1-1.83a12,12,0,0,0-1.89-1.43c-.41-.29-.89-.39-1.3-.66a9.74,9.74,0,0,1-.93-.77,3.84,3.84,0,0,0-2.51-.83,8.23,8.23,0,0,0-3.71.55A4.51,4.51,0,0,0,45,17.88a14.66,14.66,0,0,0-2.45,4.66,19.32,19.32,0,0,0-.34,3.21,17.59,17.59,0,0,0-.3,3.15c.08,1.08.44,2.11.56,3.18a29.71,29.71,0,0,0,.54,3.4,7.75,7.75,0,0,1,.26,3.21A10.69,10.69,0,0,1,42.79,40a14.5,14.5,0,0,0-.3,2,16.16,16.16,0,0,1-1,2.9,8.34,8.34,0,0,0-.37,3.22c0,1.15-.1,2.37,0,3.51A4.93,4.93,0,0,0,41.72,53c.2.47.07.95.21,1.43s.55.88.65,1.43,0,1.18.15,1.76c.06.31.17.61.22.93A3.49,3.49,0,0,0,43,59c.1.32-.37.41.25.25l3-.31c.69,0-.06-.24-.25-.39s-.5-.48-.76-.71a4.08,4.08,0,0,0-1.85-1c-1.8-.43-3.65-.65-5.44-1.1-3.17-.8-7.37-1.63-10.35.28-.27.17-.51.39-.77.58-1.06.77-.36-.21,1.07.18a15.68,15.68,0,0,0-2.18-.31c-1.88-.2-3.8.07-5.66-.21-1.06-.16-3.14-.13-4-.93-.43-.41-.31-1.05-.3-1.6a25.64,25.64,0,0,1,0-3.16c.1-.81.3-1.59.32-2.41s-.09-1.79-.11-2.69A6.87,6.87,0,0,1,16.33,43a10.53,10.53,0,0,0,.45-1c.1-.47,0-.93,0-1.4A5,5,0,0,1,17.5,39,7,7,0,0,0,18,36.81c.31-1.73.9-3.42,1.24-5.14s.31-3.46.64-5.17a19.31,19.31,0,0,0,.42-2.62c0-.81-.09-1.63,0-2.43.2-1.56,1.06-2.94.71-4.59a3.09,3.09,0,0,0-1.63-2.3c-1.75-.54-4.33.2-6.06.64a29.13,29.13,0,0,0-5.13,2.3,7.89,7.89,0,0,0-2,1.4c-.33.29-1,.57-1.06,1.08-.06,1.57,4.81.51,5.54.23a.43.43,0,0,0,.33-.25c-.18-.56-.64-.68-1.1-1-.65-.41-1.16-1-1.77-1.5L7.59,18l.28-.08-3,.31h.31L4,18a.69.69,0,0,1,.52.3L4.74,18l-.2.08,2.8-.43c1.61-.08,1.36.31.9-.39A3.88,3.88,0,0,1,8,16.79c-.18-.36-.31-.74-.51-1.08C7,14.83,6.14,14.07,6,13c-.09-.7-5.06-.21-5,.39Z"/></g><g class="cls-1"><path class="cls-2" d="M52.48,17.94H53c.08,0,.27,0,.1,0q.93.09-1.38-.69a2.81,2.81,0,0,1-1.54-.78c.06.08.14.14.2.22.36.43.65.91,1,1.31.82.86,1.48,1.83,2.22,2.76A6.57,6.57,0,0,0,56,22.27c.45.19,1.42.72,1.88.37,1.56-1.18,2.57-3,4.67-3.3.68-.09-1.16-1.34-1.25-1.4a9.92,9.92,0,0,0-1.74-.83,2.76,2.76,0,0,0-1.17-.24c-2.21.3-3.31,2.24-5,3.49l4.27,1.88c-.5-.62-1-1.29-1.46-1.91s-1-1.15-1.51-1.78a7.83,7.83,0,0,0-2.79-2.21,6.65,6.65,0,0,0-3-.86c-.24,0-.47,0-.42.25s.71.7.87.82a10.67,10.67,0,0,0,1.69.93,4.18,4.18,0,0,0,1.44.46Z"/></g><g class="cls-1"><path class="cls-2" d="M3.5,15c.07,0,.16,0,.23,0,.25,0-.38,0-.19,0s-.54-.19-.26-.08c-.41-.21-.53-.26-.36-.17s.05,0-.38-.26c.42.34-.49-.47-.09-.08.16.16.27.39-.14-.16,0,.06.11.12.16.19l.15.2c.24.31-.27-.44-.07-.11.09.15.18.29.26.44s.15.33.23.49-.15-.41,0-.13a2.25,2.25,0,0,1,.08.24,2.42,2.42,0,0,1,.1.36,1.48,1.48,0,0,1,0,.19c0-.18,0,.05,0,.13a9.42,9.42,0,0,0,.16,1.59c.1.49.33.94.41,1.43,0,0,.06.36,0,.16s0,.12,0,.16c0,.26,0,.52.06.79l4.2,2a4.75,4.75,0,0,0-.85-1.48A5.34,5.34,0,0,0,5.76,19.6a2.91,2.91,0,0,0-1.52-.46c-.34,0-.71.16-.74.57A1.84,1.84,0,0,0,4,21c.06.06.11.13.16.19a1.11,1.11,0,0,1-.25-.45,4.32,4.32,0,0,0,2.22,2.25,2.48,2.48,0,0,0,1.24.33c.3,0,.78-.16.74-.57,0-.61-.06-1.24-.16-1.85s-.36-1.11-.47-1.69c-.06-.33,0,.18,0-.13,0-.15,0-.31,0-.46a8.1,8.1,0,0,0-.1-1,5.84,5.84,0,0,0-.47-1.35,9.51,9.51,0,0,0-2-2.89,7.48,7.48,0,0,0-2.33-1.57,3.37,3.37,0,0,0-1.79-.32c-.36.07-.68.15-.74.57a1.93,1.93,0,0,0,.5,1.25A4.86,4.86,0,0,0,2,14.51,2.67,2.67,0,0,0,3.5,15Z"/></g><g class="cls-1"><path class="cls-2" d="M1.37,15.7c-.1,1.28.68,2.39,1.21,3.48S4,21,4.18,22.06l0-.21a.61.61,0,0,1,0,.14c0,.85,1.63.05,2-.12a7,7,0,0,0,1.6-1.08l.37-.36a1.6,1.6,0,0,0,.38-.62c0-1.15-.9-2-1.45-2.9-.27-.45-.49-.93-.73-1.4a5.59,5.59,0,0,1-.63-1.68l0,.22a2.35,2.35,0,0,1,0-.53c.07-.86-1.69,0-2,.12a7.25,7.25,0,0,0-1.6,1.08c-.26.24-.71.6-.74,1Z"/></g><g class="cls-1"><path class="cls-2" d="M29.61,24.48a16.64,16.64,0,0,0-1.83,1.83c-.29.38-.55,1.21-1,1.4l3.54,3.41c.32-.79,1-1.13,1.63-1.63a22.1,22.1,0,0,1,1.83-1.66,11.9,11.9,0,0,1,2.39-.91c.61-.23,1.19-.76,1.85-.78l-3.52-2.91c0-.15,0,0,0,.1a1.41,1.41,0,0,1,0,.29,1.93,1.93,0,0,1-.08.49,4.2,4.2,0,0,1-.58,1.11A16,16,0,0,1,32,27.35a27.07,27.07,0,0,0-1.85,2.28c-.33.45-.67.89-1,1.31a2.23,2.23,0,0,0-.64,1.31c0,.68,1,1.61,1.45,2A8.41,8.41,0,0,0,31,35c.16.11.87.55,1.14.45a8.63,8.63,0,0,0,3.41-2.22,10.9,10.9,0,0,1,.92-1A3.84,3.84,0,0,1,37,31.8s.19-.15.08-.05a.27.27,0,0,1,.12,0c.25,0,.09-.06-.47-.15l-.95-.6-.91-.8-.7-.87C34,29,34,29,34.06,29.13l0-.5c-.21.46-.59.8-.82,1.24s-.29,1-.53,1.52a15,15,0,0,1-2,2.83c-.36.43.69,1.51.91,1.74A6.78,6.78,0,0,0,34,37.59,3,3,0,0,0,36.79,37c.41-.27.8-.56,1.23-.8a2.78,2.78,0,0,1,.56-.24,2.25,2.25,0,0,1,.36-.06s.36,0,.19,0c1,.15.3-.93,0-1.32a7.35,7.35,0,0,0-1.39-1.34,3.39,3.39,0,0,0-1.33-.75,3.86,3.86,0,0,0-2.89.91,7.06,7.06,0,0,1-1.18.73,1.27,1.27,0,0,1-1.1.07l3.24,3.37a22.16,22.16,0,0,0,1.65-2.32,4.44,4.44,0,0,0,.51-1A4.35,4.35,0,0,1,37.09,33a6.73,6.73,0,0,0,.65-.93,1.23,1.23,0,0,0-.27-1.15,7.13,7.13,0,0,0-2.27-2.17,2.3,2.3,0,0,0-1.32-.49c-.82.08-1.51,1-2,1.58A7.87,7.87,0,0,1,28.77,32l3.6,3.2c0-.43.45-.81.72-1.12s.74-1,1.1-1.45a26.58,26.58,0,0,1,1.87-2.23c1.2-1.28,2.74-2.92,2.12-4.81a5.19,5.19,0,0,0-1.63-1.91,3.43,3.43,0,0,0-1.9-1,5.61,5.61,0,0,0-1.84.78,20.24,20.24,0,0,0-2.63,1,14.69,14.69,0,0,0-1.91,1.7c-.66.53-1.37.86-1.7,1.69-.27.66.75,1.58,1.15,2a6.69,6.69,0,0,0,1.25,1c.25.15.84.57,1.14.44.71-.29.91-.86,1.33-1.46a14.5,14.5,0,0,1,1.9-1.94c.2-.2-.13-.73-.21-.86A6,6,0,0,0,32,25.61a6.39,6.39,0,0,0-1.46-1c-.23-.11-.66-.33-.88-.11Z"/></g><g class="cls-1"><path class="cls-2" d="M26.62,2.89A4.92,4.92,0,0,1,27.31,5a4,4,0,0,0,1.12,1.74c1.05.94,2.57.81,3.88.8a12.44,12.44,0,0,0,5.44-1.16,14.09,14.09,0,0,1,1.71-.91A15.3,15.3,0,0,0,42,4.2c.51-.29.32-.64-.18-.69a3.47,3.47,0,0,0-2.05.55c-1.12.64-2.34,1-3.43,1.68a5.57,5.57,0,0,1-3.07.57,2.72,2.72,0,0,1-2.63-1.15,3.86,3.86,0,0,1-.57-1.71,3.19,3.19,0,0,0-.75-1.57c-.47-.58-3.21.4-2.72,1Z"/></g><g class="cls-1"><path class="cls-2" d="M7.88,22c.07-.09.12-.09.07-.1L7.73,22c.09-.14.63-.22.83-.32a11.19,11.19,0,0,0,1.47-1,12.08,12.08,0,0,1,2.71-1.3,9.33,9.33,0,0,0,1.32-.62c.3-.16.59-.34.87-.51l.32-.2s.34-.22.19-.13.18-.09.18-.09l.26-.13.28-.12c-.15.07,0,0,.07,0s.2-.07.3-.09.41-.1.24-.07.13,0,.16,0c.23,0-.3,0,.07,0a1.88,1.88,0,0,0,1.88-.89c.3-.65-.26-1.17-.88-1.23a6.83,6.83,0,0,0-3.48.75c-1,.47-1.85,1.15-2.89,1.58a16.94,16.94,0,0,0-3.37,1.64c-.26.18-.5.39-.76.57-.08.05-.15.11-.23.15s-.37.16-.08.05a3.55,3.55,0,0,0-1.74,1.12.86.86,0,0,0,.38,1.42A2,2,0,0,0,7.88,22Z"/></g><g class="cls-1"><path class="cls-2" d="M47.39,19.12a10.47,10.47,0,0,0-1,1.85,19.66,19.66,0,0,1-1.21,1.81,6.46,6.46,0,0,0-.82,4.07c0,1.66-.62,3.15-.72,4.79s0,3.56,0,5.33V48.05c0,1.85-.07,3.71,0,5.57s.65,3.4.68,5.14c0,1.45,3,1,2.93-.25A43.44,43.44,0,0,0,46.64,54a45,45,0,0,1-.08-5.45V37.66c0-1.71,0-3.42,0-5.13A30.66,30.66,0,0,1,47.2,28c.19-1.47-.33-3.07.41-4.44.31-.58.77-1.09,1.13-1.65s.59-1.39,1-2c1.12-1.43-1.63-1.75-2.4-.77Z"/></g><g id="WhXKlT.tif"><path d="M61.43,20.52a3.25,3.25,0,0,1-1.24,1,10.64,10.64,0,0,0-1.47.92,3,3,0,0,1-1.86.65c-.26,0-.42.06-.52.32a.56.56,0,0,1-.59.38A3.18,3.18,0,0,1,52.89,22c-.2-.35-.39-.71-.58-1.06,0-.06-.06-.16-.14-.14-.63.15-.83-.46-1.21-.71s-.43-.52-.75-.68-.43-.17-.18-.53c-.59.36-.8,0-1-.34a5.41,5.41,0,0,0-.64-.87.39.39,0,0,1,0-.6c.17-.17.34-.09.52,0a1.05,1.05,0,0,1,.47.58,1.3,1.3,0,0,0,.6.89c.14.09.17.15.38.09A.79.79,0,0,1,51,19c.16.2.41.3.48.58s.26.16.42.19c.44.09.66.31.63.74,0,.26.14.27.29.29a.91.91,0,0,1,.73.53,1,1,0,0,0,.62.48c.28.09.46,0,.58-.24a.86.86,0,0,1,.68-.59.3.3,0,0,0,.25-.16c.21-.36.58-.47.89-.68a9.08,9.08,0,0,1,1.5-.74c.58-.28,1-.85,1.68-.95.29,0,.55-.36.92-.43s.27-.66.15-.92a16.39,16.39,0,0,0-1.41-1.9,1.24,1.24,0,0,1-.24-.43c-.11-.53-.52-.88-.74-1.35a2.83,2.83,0,0,1-.16-.36,1.49,1.49,0,0,0-.61-.88c-.4-.24-.47-.71-.62-1.09s-.53-.42-.41-.84c0,0-.4-.28-.46-.53-.14-.6-.71-1.05-.6-1.75,0-.18,0-.38.21-.44a.7.7,0,0,1,.59.14c.15.1.15.25.06.43-.2.42.11.67.37.88s.39.34.33.66.4.66.5,1.06.41.55.44.91a.19.19,0,0,0,.18.18c.33-.08.41.2.5.38a2.68,2.68,0,0,0,.56.74.46.46,0,0,1,.17.59c-.15.35.24.47.37.7s.25.11.2.21c-.2.43.2.46.39.6a1.27,1.27,0,0,1,.62,1c0,.1,0,.25.11.29a1.12,1.12,0,0,1,.49.95c0,.41.48.28.66.52s.2.11.3.18c.28.19.3.33.07.65s-.75.76-.83,1.35a.79.79,0,0,1-.48.61c0-.16,0-.37.15-.46.43-.4.31-.82.12-1.26a.48.48,0,0,0-.79-.2.81.81,0,0,1-.32.16,7,7,0,0,0-2.48,1.3,8.3,8.3,0,0,1-1.31.91,10.59,10.59,0,0,0-1.64,1.33.53.53,0,0,0-.11.58c.06.21.26.18.42.18a3.12,3.12,0,0,0,1.46-.33,11.88,11.88,0,0,1,1.78-.9c.2-.08.34-.33.59-.25a.75.75,0,0,0,.91-.41A1.61,1.61,0,0,1,61.43,20.52Z"/><path d="M12.59,39.71c.46.35.35.72.17,1.09a.79.79,0,0,0-.13.38,6.86,6.86,0,0,1-.51,2,2.92,2.92,0,0,0-.19,1.34.19.19,0,0,1,0,.13.78.78,0,0,0,0,.84c.5.75.2,1.57.23,2.35a5.54,5.54,0,0,1-.31,2.29,8.75,8.75,0,0,1-.71,2.13c-.09.12,0,.23,0,.35a1.5,1.5,0,0,1-.22,1.11c0,.07-.12.18-.1.24a2.33,2.33,0,0,1-.19,1.38,1.62,1.62,0,0,0,.09.92c.08.22.36.27.62.22a1.19,1.19,0,0,1,1,.16.37.37,0,0,0,.25,0,14.34,14.34,0,0,1,2,.34,2.49,2.49,0,0,0,1-.11.58.58,0,0,1,.5,0,1.08,1.08,0,0,0,.44.09l2.71.3a2.8,2.8,0,0,0,1.41,0c.12,0,.19,0,.28.1a.41.41,0,0,0,.47,0c.34-.29.66-.1,1,0a.56.56,0,0,1-.75.37,1.53,1.53,0,0,0-.92,0,3.14,3.14,0,0,1-1.32-.11c-.34,0-.68,0-1-.08-.1,0-.25,0-.3,0-.27-.28-.54-.21-.84-.06a.26.26,0,0,1-.21,0,5.23,5.23,0,0,0-2-.1,16.28,16.28,0,0,0-1.71-.05,7.43,7.43,0,0,1-1.76-.28,5.44,5.44,0,0,0-.81,0,.15.15,0,0,0-.16.21c.1.32-.06.24-.24.17-.49-.2-.55-.34-.31-.83a.39.39,0,0,0,0-.3c-.16-.42,0-.85-.1-1.28s.22-.61.43-.85a.51.51,0,0,0,.14-.43c-.06-.49.22-1-.08-1.48a.12.12,0,0,1,0-.13c.61-.64.43-1.55.77-2.26a6.44,6.44,0,0,0,.3-2.25c0-.31.17-.62.2-.95,0-.13.06-.3,0-.38-.37-.27-.3-.65-.28-1,.06-.75.13-1.51.24-2.26a1.47,1.47,0,0,1,.29-.65,1.59,1.59,0,0,0,.26-1.07c-.06-.69.43-1.28.3-2a.18.18,0,0,1,.08-.16c.46-.25.43-.7.46-1.13a1.21,1.21,0,0,1,.3-.83c.06,0,.13-.15.11-.18-.21-.35.12-.71-.05-1.09a1.66,1.66,0,0,1,.07-.87,1.76,1.76,0,0,0-.12-1.53.25.25,0,0,1,0-.17c.47-.72.13-1.55.3-2.31a3.21,3.21,0,0,1,.24-.72,1.29,1.29,0,0,0,.26-1.12,1,1,0,0,1,.43-1c.18-.15.27-.27.18-.52-.16-.48.25-.8.4-1.19s.64-.62.39-1.13c0,0,0-.06,0-.07.44-.37.23-.86.25-1.3a1,1,0,0,1,.16-.72.22.22,0,0,0,0-.13c-.36-.52.2-1.12-.16-1.66-.16-.24.06-.57,0-.88s0-.44,0-.66a.27.27,0,0,1,.17-.33c.14-.06.24.08.29.16.13.26.29.53-.06.78s-.07.57,0,.81.28.46.05.73a.22.22,0,0,0,0,.21,4.64,4.64,0,0,1-.18,3.34c0,.11-.06.23-.09.34a4.38,4.38,0,0,1-.46,1.25,8.12,8.12,0,0,0-1.15,3.07c-.08.71-.18,1.4-.32,2.1a5.87,5.87,0,0,0,0,1.73,11.92,11.92,0,0,1-.63,5C13.29,39.55,13.17,39.63,12.59,39.71Z"/><path d="M47.53,58.65a.78.78,0,0,1-.6-.62,3,3,0,0,1-.13-1.15.73.73,0,0,0-.2-.7.9.9,0,0,1-.16-.73,4.54,4.54,0,0,1,.11-1.37s0-.13,0-.17c-.47-.67.11-1.44-.19-2.14,0-.12.07-.31.11-.47a1.44,1.44,0,0,0-.23-1.25A4.12,4.12,0,0,1,46,48.93a5.67,5.67,0,0,1-.17-2.08,3.76,3.76,0,0,1,.4-1.71A3.85,3.85,0,0,0,46.64,44c.09-.26.06-.53.39-.64.1,0,.08-.14,0-.23a2.19,2.19,0,0,1,.13-1.82s.06-.08.06-.11c-.05-1.12.47-2.21.18-3.35a6.17,6.17,0,0,0-.21-.82,6.11,6.11,0,0,1-.34-1.7c-.07-.63-.28-1.27-.29-1.88s-.16-1.16-.13-1.76a6.11,6.11,0,0,0,0-2.09,3.13,3.13,0,0,1,.08-1.14c.11-.8,0-1.58.07-2.37a3.05,3.05,0,0,1,.68-2.22.88.88,0,0,0,.3-.74.46.46,0,0,1,.34-.59.26.26,0,0,0,.18-.28c0-.54.4-.83.65-1.21a.53.53,0,0,1,.29-.2c.09,0,.18-.13.28,0s0,.19,0,.29A9.32,9.32,0,0,1,48.23,23a2.41,2.41,0,0,0-.42,1c-.06.56-.44,1-.31,1.66A3.33,3.33,0,0,1,47.39,27a10.35,10.35,0,0,0,0,2.36c0,.86-.2,1.69-.12,2.55a21.24,21.24,0,0,0,.45,3.07,2.57,2.57,0,0,1,.07.4c0,.42.2.83.27,1.24a9.4,9.4,0,0,1,.18,1.92c0,1-.4,2-.46,3A18.74,18.74,0,0,1,46.67,46a5.11,5.11,0,0,0,0,2.06A12.05,12.05,0,0,0,47,50.23a4,4,0,0,1,0,1.51,3.1,3.1,0,0,0,0,1.42c0,.06,0,.16,0,.21-.41.62-.16,1.31-.22,2,0,.29.2.49.33.72s.35.64,0,1c0,0-.06.13,0,.16C47.46,57.62,47.2,58.15,47.53,58.65Z"/><path d="M16.66,17.13a2.38,2.38,0,0,1-1.94,1.51,1.33,1.33,0,0,0-1,.43.4.4,0,0,1-.37.12c-.09,0-.22,0-.26,0-.42.58-1.17.3-1.68.63-.06,0-.15.09-.21.07-.63-.2-1,.26-1.44.55A2.42,2.42,0,0,1,8.3,21c-.72,0-1.14.46-1.58.88a1.14,1.14,0,0,1-1.53-.08,3.17,3.17,0,0,0-.67-.7,1.14,1.14,0,0,1-.53-.8.42.42,0,0,0-.18-.3,3.87,3.87,0,0,1-1-1.32c-.09-.15-.24-.25-.31-.38-.19-.31-.64-.49-.5-1,0-.1-.07-.15-.16-.19a.43.43,0,0,1-.28-.5.66.66,0,0,0-.1-.43c-.25-.39-.46-.83-.71-1.2a1.78,1.78,0,0,1-.33-1.4,3.12,3.12,0,0,0,.1-1.28c0-.2.44-.16.48-.47a1.85,1.85,0,0,1,.1,1.2,1.69,1.69,0,0,0,.18,1.37,2.47,2.47,0,0,1,.25.93,2.61,2.61,0,0,0,.57,1.17,4.44,4.44,0,0,1,.55.81c.26.56.72,1,1,1.55a5.58,5.58,0,0,0,1.21,1.27c.25.22.29.57.59.76s.31.29.55.15.16-.31.12-.51A.92.92,0,0,0,6,20a.85.85,0,0,1-.2-.95c0-.17.09-.31-.1-.42a.38.38,0,0,1-.16-.31,7.76,7.76,0,0,0-1.26-3.26,2.11,2.11,0,0,1-.57-1.41c0-.07-.08-.23-.1-.22-.4.06-.55-.32-.84-.42s-.57-.35-.31-.76a1.24,1.24,0,0,0,.08-.32,2.85,2.85,0,0,1,1.71,1.5c.29.47.53,1,.82,1.44.15.25.24.44,0,.68a.19.19,0,0,0,.06.28A2.73,2.73,0,0,1,6,17.51a12.54,12.54,0,0,1,.6,2.28c0,.45.55.66,1,.61s1.05-.24,1.57-.35a7.45,7.45,0,0,0,1.19-.45,5.88,5.88,0,0,0,1.67-1c.2-.18.52,0,.78-.11,1-.39,2.13-.58,3.14-1A7.21,7.21,0,0,0,16.66,17.13Z"/><path d="M44.92,75.84a8,8,0,0,1,.52-2.59,8.07,8.07,0,0,0,.34-2.58c0-.2-.14-.36-.23-.53s-.2-.14-.34-.06A.82.82,0,0,1,44,69.52c-.35-.92-.72-1.82-1.09-2.73,0-.14-.13-.33-.28-.07s-.22.13-.35.14L40.88,67c-.77.09-1.16.78-.93,1.67a2.4,2.4,0,0,1-.13,1.73c-.09.17-.2.29-.38.26s-.36-.13-.37-.34a8.56,8.56,0,0,0-.67-2.57,4.51,4.51,0,0,1-.2-1.22c0-.44.28-.64.58-.4.49.4.94.14,1.38,0a1.88,1.88,0,0,1,1.22.13,1.57,1.57,0,0,0,.61.1c.34,0,.69,0,.78-.46a.21.21,0,0,1,.3-.18c.26.12.7.15.68.5,0,.67.52,1.06.66,1.65a2.32,2.32,0,0,0,.68,1.24c.44.39.66.42,1-.08.14-.21.19-.51.37-.66.55-.47.57-1.31,1.2-1.71.23-.15.16-.51.47-.62s.29-.16.42,0,.18.36,0,.49c-.78.63-1,1.66-1.65,2.36-.13.14,0,.36,0,.52-.34,1.26-.3,2.59-.76,3.84a5.79,5.79,0,0,0-.48,2.58c0,.28,0,.74-.31.74S44.91,76.21,44.92,75.84Z"/><path d="M36.41,66.92a.67.67,0,0,0,.32-.86.41.41,0,0,1,0-.22c0-.09.07-.18.17-.17s.09.12.11.22a2.77,2.77,0,0,1-.36,1.65,2.91,2.91,0,0,0,.28,2.88c.21.4.17.48-.28.51-.7.06-.87-.08-1.14-1,0,0,0-.08,0-.13-.15-.64-.22-.67-.79-.33a8.7,8.7,0,0,1-1.91.68c-1,.33-.93.32-1.47-.63-.33-.59.25-.72.35-1.07.21-.72.92-1.08,1.41-1.59A4.24,4.24,0,0,1,34.16,66a.64.64,0,0,1,.39,0c.16,0,.34.27.47,0s.33-.49.2-.8c-.25-.59.06-1.17,0-1.76,0-.33.55-.41.87-.12s.31.64.53.92c.07.1,0,.16-.12.19-.39.14-.4.45-.41.8A3.7,3.7,0,0,0,36.41,66.92Zm-1.16,1c0-.39,0-.71-.29-.85a.75.75,0,0,0-.76.14,11.42,11.42,0,0,0-1.74,1.52c-.11.14-.36.26-.23.48a.56.56,0,0,0,.59.24,5.46,5.46,0,0,0,1.43-.36C34.81,68.83,35.36,68.56,35.25,67.88Z"/><path d="M23.09,57.4a.51.51,0,0,0,.62,0c.23-.16.53,0,.81,0a4.38,4.38,0,0,1,1.8.08.62.62,0,0,0,.55-.14,1.7,1.7,0,0,1,1-.31,4.74,4.74,0,0,0,1.95-.54A1.68,1.68,0,0,1,31,56.29a3.94,3.94,0,0,0,1.49.22c.45,0,.89.08,1.34,0a3.33,3.33,0,0,0,.63,0,.7.7,0,0,1,.6.07.87.87,0,0,0,.72.11.37.37,0,0,1,.44.11.81.81,0,0,0,.67.17,15.38,15.38,0,0,1,3.77.38,1,1,0,0,1,.67.4,1.61,1.61,0,0,0,1,.52,2.89,2.89,0,0,1,1,.5,3.91,3.91,0,0,0,1.29.48,3.39,3.39,0,0,1,1,.35c.22.15.65,0,1,0s.51-.19.73,0,0,.32-.06.45a.7.7,0,0,1-.74.31,1.1,1.1,0,0,0-.87,0c-.23.11-.63-.06-.93-.16a1.07,1.07,0,0,0-.61-.1.36.36,0,0,1-.25,0c-.79-.6-1.7-1-2.54-1.53a6.64,6.64,0,0,0-1.64-.61c-.58-.16-1.18-.07-1.76-.25s-1.14-.1-1.7-.33a3.69,3.69,0,0,0-1.29,0c-.28,0-.66.13-.82,0-.38-.33-.78.06-1-.09-.41-.25-.79.11-1.16-.1a2,2,0,0,0-.64-.13,7.05,7.05,0,0,0-2.66.4c-.95.18-1.91.33-2.86.5a2.5,2.5,0,0,1-.48,0c-.52,0-1-.33-1.57,0C23.52,57.86,23.23,57.68,23.09,57.4Z"/><path d="M14,63.18a2.34,2.34,0,0,1,1.66.86.74.74,0,0,1,.09.73,16,16,0,0,0-.46,1.81,3.8,3.8,0,0,0,.3,2.13c0,.11.19.19.3.25a.31.31,0,0,1,.13.43c-.1.2-.25.06-.38,0-.54-.25-1.08-.48-1.29-1.13-.06-.21-.17-.39-.07-.6s0-.56-.1-.82-.24-.06-.31,0a2.88,2.88,0,0,1-1.51,1.05c-.41.16-.64.07-.79-.36a2.6,2.6,0,0,1,.41-2.79,10.18,10.18,0,0,1,1-1.22A1.84,1.84,0,0,1,14,63.18Zm-1.85,3.28c0,.51.26.69.71.45a.83.83,0,0,0,.31-.24c.22-.33.53-.57.77-.87a2.82,2.82,0,0,0,.62-.87c.08-.23.2-.47,0-.68a.65.65,0,0,0-.71-.12A2.45,2.45,0,0,0,12.11,66.46Z"/><path d="M33.09,4.92c-.52.16-1.1-.15-1.7,0-.36.08-.66-.25-1-.28s-.4-.19-.64-.13-.23-.07-.3-.17C29,3.64,28.31,3.09,28.27,2.2a.4.4,0,0,0-.22-.32c-.13-.07-.25-.15-.15-.32a.32.32,0,0,1,.42-.16c.13.05.33.11.37.22.12.35.47.54.55.94s.54.51.79.82c.49.61,1.25.4,1.9.53a.75.75,0,0,1,.38.1c.22.18.44.23.64-.06.08-.1.23-.22.35-.11.37.31.74.1,1.12.07s.81-.32,1.11.17c0,0,.12,0,.19,0a2.25,2.25,0,0,1,1-.56,6.35,6.35,0,0,0,2.1-.74c.25-.15.57-.16.67-.52a.34.34,0,0,1,.27-.13.88.88,0,0,0,.81-.53c0-.05.07-.13.11-.14s.38-.22.49-.09-.11.29-.22.42A8.23,8.23,0,0,0,39.85,3a2.3,2.3,0,0,1-1.5,1,7.77,7.77,0,0,0-.85.29,8.15,8.15,0,0,1-.82.21c-.71.15-1.45.06-2.15.2A3.86,3.86,0,0,1,33.09,4.92Z"/><path d="M23.28,70.21a1,1,0,0,1-1.2-1.11,6.37,6.37,0,0,1,0-1,.29.29,0,0,0-.2-.32c-.15,0-.18.12-.24.21s-.4.38-.5.68c-.23.66-.9.79-1.46,1-.27.1-.5-.14-.59-.38a3,3,0,0,1,0-2.93c0-.06.08-.12,0-.16-.48-.44.07-.79.15-1.16a2.92,2.92,0,0,1,.22-.75c.08-.16.14-.36.38-.32s.25.22.25.44a5.23,5.23,0,0,1-.32,1.42,20.59,20.59,0,0,0-.29,2.33c0,.17.5.5.66.39.33-.21.72-.28.9-.77a1.68,1.68,0,0,1,.68-1c.27-.13.16-.46.25-.69s.1-.44.19-.64a.43.43,0,0,1,.53-.31.4.4,0,0,1,.29.53,5,5,0,0,0-.07,1.16.87.87,0,0,1-.14.56c-.06.08-.11.21,0,.29.48.42.21.86.05,1.31a.23.23,0,0,0,0,.15c.39,0,.47.59.94.49.15,0,.51-.1.49.12s-.33.44-.61.5A1,1,0,0,1,23.28,70.21Z"/><path d="M26.94,66.26a2.6,2.6,0,0,0,0,.26c0,.18,0,.44.24.48s.34-.18.44-.37a1.06,1.06,0,0,1,1.66-.12c.8.74.64,1.82,1.09,2.67a4.37,4.37,0,0,1,.38,1.63c0,.23,0,.31-.29.25A1,1,0,0,1,29.74,70a.68.68,0,0,0-.13-.45,3.77,3.77,0,0,1-.5-1.42,1.66,1.66,0,0,0-.5-.88c-.17-.17-.31-.15-.43,0a10.8,10.8,0,0,0-1,2,2.9,2.9,0,0,1-.7,1,.22.22,0,0,1-.29,0A.27.27,0,0,1,26,70a18.9,18.9,0,0,1,.29-2.23,2,2,0,0,0-.16-1.08c-.16-.42.22-.58.31-.87,0-.1.18-.07.28,0S27,66,26.94,66.26Z"/><path d="M2.46,10.47c-.1-.14-.37.27-.47-.06s.17-.33.24-.51A2.93,2.93,0,0,1,3.34,8.66c.83-.55,1.76-.88,2.58-1.4.4-.25.84-.41,1.24-.64a.49.49,0,0,0,.13-.12,2.13,2.13,0,0,1,1.43-.6.48.48,0,0,0,.46-.31c.2-.36.41-.75.92-.76.2,0,.31-.18.4-.33s.26-.4.56-.35c.13,0,.22-.06.26-.2a1.67,1.67,0,0,1,1.32-1.07,5.41,5.41,0,0,0,1.08-.53,2.12,2.12,0,0,1,.69-.21c.22,0,.51-.06.6.23s-.18.46-.37.58a2.27,2.27,0,0,1-.84.25,3.92,3.92,0,0,0-2.05,1c-.52.4-1.13.66-1.61,1.11A8.2,8.2,0,0,1,8.54,6.4c-.19.11-.34.3-.6.24-.07,0-.17.06-.22.12a2.52,2.52,0,0,1-1.84,1c-.11,0-.07.07-.08.11s-.17.32-.28.32c-.62,0-.92.58-1.47.73a1.72,1.72,0,0,0-1.11,1.34C2.86,10.51,2.77,10.58,2.46,10.47Z"/><path d="M28.69.56a.54.54,0,0,0-.58.37.45.45,0,0,1-.4.22c-.58.06-1.15.2-1.73.23a5.84,5.84,0,0,1-1.44-.12c-.4-.09-.88.11-1.21-.29a.15.15,0,0,0-.13,0c-.59.47-1.08-.15-1.64-.15a1.79,1.79,0,0,1-1-.22s-.11,0-.12,0c-.4.39-1,.1-1.39.33a1.52,1.52,0,0,1-.87.15c-.07,0-.18,0-.21,0-.49.62-1.14.27-1.73.29-.18,0-.4,0-.43-.23s.2-.33.36-.33c.6,0,1.17-.41,1.78-.15A.24.24,0,0,0,18.2.61a2.08,2.08,0,0,1,2.12-.4.28.28,0,0,0,.22,0c.52-.47,1,0,1.43.14.11,0,.21.11.33.1A16.07,16.07,0,0,1,25,.5a9.6,9.6,0,0,0,2,.18,2.11,2.11,0,0,0,.43-.12A1.39,1.39,0,0,1,28.69.56Z"/><path d="M43.3,1.66c.7.47,1.54.28,2.3.51a7.88,7.88,0,0,0,2,.48c.2,0,.35,0,.37.26s.12.09.24,0a1.43,1.43,0,0,1,1.63,0,.26.26,0,0,0,.21,0,1.69,1.69,0,0,1,1.32.45c.67.45,1.1,1.16,1.84,1.5.14.06.15.2.2.32s0,.67.48.7c.06,0,.1.11.06.19s-.11.09-.19.09A1,1,0,0,1,53,5.7a3.91,3.91,0,0,0-1.58-1.36c-.08,0-.19-.07-.23-.14-.31-.55-.88-.55-1.39-.66a5.7,5.7,0,0,0-1.65,0,3.52,3.52,0,0,1-1.52-.24,16,16,0,0,0-2.32-.74c-.4-.07-.62-.52-1.09-.47-.1,0-.14-.14-.12-.25A.19.19,0,0,1,43.3,1.66Z"/><path d="M7.88,66.62a.72.72,0,0,1,0-.28,8.76,8.76,0,0,0,.51-2.58c.21-1,.48-1.93.74-2.88a1.24,1.24,0,0,0,.09-.57c0-.27.05-.52.36-.48a.45.45,0,0,1,.43.53,3.73,3.73,0,0,1-.42,1.31c-.29.53-.16,1.12-.32,1.66-.32,1-.4,2.14-.65,3.21a1.15,1.15,0,0,0,.79,1.39c.28.11.48.45.85.3,0,0,.08.06.08.09s-.07.12-.13.17c-.28.17-.59.06-.87.06a2,2,0,0,1-1.32-.28.83.83,0,0,1-.31-1.14A.5.5,0,0,0,7.88,66.62Z"/><path d="M27.85,3.79c0,.12,0,.24.06.26.42.07.58.5.95.64.17.06.37.14.42.37,0,.06.1.15.15.15.65,0,1.1.47,1.68.64s1,0,1.45.14c.21.07.44.08.66.13s.26.09.22.27a.27.27,0,0,1-.29.24c-.11,0-.28,0-.34-.07-.31-.34-.75-.11-1.11-.26s-.51.22-.85.09a3.86,3.86,0,0,1-1-.44A8.6,8.6,0,0,0,28,4.89a1.08,1.08,0,0,1-.57-.71,2.9,2.9,0,0,0-.89-1.37c-.14-.13-.31-.32-.1-.48s.37-.11.55.14a3.35,3.35,0,0,0,.82,1A.26.26,0,0,1,27.85,3.79Z"/><path d="M16.32,3.91c-.23,0-.38-.15-.55-.28a.22.22,0,0,1,0-.29.44.44,0,0,1,.45-.12A3.12,3.12,0,0,1,18.13,5s0,.07,0,.08c-.32.55.22.7.46,1a1.23,1.23,0,0,1,.25.53c.1.46.21.92.28,1.39s.44.6.38,1c0,.09.15.2,0,.27a.28.28,0,0,1-.37-.06,1.69,1.69,0,0,1-.32-.82,3.44,3.44,0,0,0-.21-1.13c-.24-.46-.32-1-.76-1.35-.15-.12-.24-.27,0-.44s.07-.22-.06-.31A3.36,3.36,0,0,1,16.6,3.94C16.53,3.8,16.44,3.83,16.32,3.91Z"/><path d="M34.67,6a9.54,9.54,0,0,0,2.24-.56,5.33,5.33,0,0,1,1.76-.56A2.07,2.07,0,0,0,40.07,4c.12-.14.13-.28.34-.13s.23-.06.32-.15a.19.19,0,0,1,.31,0c.09.1,0,.2,0,.27a7.52,7.52,0,0,1-2.08,1.35.41.41,0,0,1-.34,0,.35.35,0,0,0-.53.14c0,.07-.12.16-.21.13-.5-.15-.75.22-1.06.47-.08.06-.23.16-.28.13-.4-.28-.72.09-1.08.13A.55.55,0,0,1,35,6.23c-.14-.08-.31-.11-.41,0a.35.35,0,0,1-.45.17c-.11,0-.1-.14-.07-.23C34.18,5.94,34.39,6,34.67,6Z"/><path d="M48.66,14.76A.74.74,0,0,1,49,14a.81.81,0,0,0,.23-1,.29.29,0,0,1,.13-.42,3.27,3.27,0,0,0,1.52-1.84,1.79,1.79,0,0,1,.91-.82A.2.2,0,0,1,52,10c.06.09,0,.16,0,.24-.18.43-.62.61-.87,1-.72,1-1.43,2-2,3a2.74,2.74,0,0,0-.17.64c0,.08,0,.21-.15.19S48.61,15,48.66,14.76Z"/><path d="M20.33,12.15a2.11,2.11,0,0,0,.14,1.11c.13.21,0,.27-.15.32s-.21-.09-.23-.21a2,2,0,0,1,0-.84c.07-.34-.11-.69,0-1,0-.08,0-.2.12-.19s.12.12.13.21S20.27,12,20.33,12.15Z"/><path d="M53.43,8.86a2.58,2.58,0,0,1-.91.89.26.26,0,0,1-.4-.06c-.09-.16,0-.28.11-.4C52.56,9,53.05,9.08,53.43,8.86Z"/><path d="M20.37,13.9s.11,0,.11.06c.08.44.55.57.72.93.05.09.1.21,0,.28s-.21,0-.28-.13c-.2-.3-.56-.47-.66-.86C20.21,14,20.16,13.92,20.37,13.9Z"/></g></g></g></svg>