<svg xmlns="http://www.w3.org/2000/svg" viewBox="0 0 46.21 87.19"><defs><style>.cls-1{opacity:0.4;}.cls-2{fill:#b12440;}</style></defs><g id="Layer_2" data-name="Layer 2"><g id="Layer_1-2" data-name="Layer 1"><g class="cls-1"><path class="cls-2" d="M21.25.06a8.18,8.18,0,0,0-4.77,2.85A22.23,22.23,0,0,0,13,8.42a16.06,16.06,0,0,0-1.27,2.88c-.29,1-.23,2.11-.48,3.15s-.27,2.15-.46,3.21c-.08.49-.27.95-.34,1.45s-.06.88-.1,1.16c-.25,1.95-.62,4,1,5.55a5,5,0,0,0,3.05,1.31,4.16,4.16,0,0,0,3.25-1.37c.58-.55,1.4-1.19,1.9-1.63A4.83,4.83,0,0,0,20.72,23a9.42,9.42,0,0,1,.81-1.38,17.86,17.86,0,0,0,3.26-5.57,15.66,15.66,0,0,0,.93-3c.17-1,.39-2,.61-3a16,16,0,0,0,.51-3.72,10.55,10.55,0,0,0-.13-2,12,12,0,0,1-.52-1.53L21.53,4c.34.48.53,1,.83,1.51a14.51,14.51,0,0,1,1.1,1.7,5,5,0,0,1,.13,3.33c-.73,2.73-2.69,5-3.85,7.51-.26.57-.43,1.19-.7,1.75a14.9,14.9,0,0,1-1.1,1.54c-.93,1.37-1.67,3.14-.31,4.51,1.83,1.82,4.89.37,6.42-1.1a20.8,20.8,0,0,0,4.72-6.26,13.78,13.78,0,0,0,1.33-3.94c.1-.71,0-1.37,0-2.06s.42-1.42.47-2.2c.14-2.5.29-5.95-2.75-6.73a8.62,8.62,0,0,0-2.68-.17c-.14,0-.67,0-.12,0-.3,0-.6-.14-.89-.2a9.87,9.87,0,0,0-2.65-.27c-3.74.3-4.42,4.46-5.41,7.38a36.8,36.8,0,0,0-1.36,4.45c-.32,1.52-1.05,2.86-1.19,4.42a2.49,2.49,0,0,0,1.54,2.29A2.6,2.6,0,0,0,17.8,21c1.59-1.31,2-3.65,3-5.4.49-.92,1.07-1.8,1.56-2.72s.9-2,1.41-3C25.23,7,21.14,4.54,19.45,7.3c-.59,1-1,2.06-1.53,3.07q-.21.42-.39.84s-.44,1-.2.49-.25.48-.31.6c-.75,1.59-1.79,3.66-.73,5.35a2.54,2.54,0,0,0,2.82,1.15c2-.72,2.85-2.27,4-4a23.66,23.66,0,0,1,3.29-4.41,10.61,10.61,0,0,1,1.46-1.22A4.54,4.54,0,0,0,30,6.91a3.13,3.13,0,0,0-.34-2.48,5.3,5.3,0,0,0-.7-.88l-.36-.39c.13.18.14.15,0-.08L26.43,6.84l.26,0-1.26-.34a5.54,5.54,0,0,1,2,1.61,5.4,5.4,0,0,0,1.23,1.25c.05,0,.38.38.28.15s0,0,0,.16c0,1.2,0,2.4,0,3.61a16.78,16.78,0,0,1-.06,3.25c-.2,1.08-.21,2.17-.35,3.24a34,34,0,0,0,0,3.78A14.82,14.82,0,0,1,27.89,27c-.29,1.11-.46,2.33-.72,3.37l.64-1.1c-1,1.14-1,2.22-1.35,3.62-.24,1.07-.74,2-1,3.11s-.82,2.38-1.1,3.62a8.32,8.32,0,0,1-.55,1.64,8.68,8.68,0,0,0-.4,1c0,.07-.22.67-.08.46l4.57.6c.14.53.16-.46.19-.62.08-.52.14-1,.2-1.58.1-.86.22-1.7.37-2.55a25,25,0,0,0,.6-5.59,11.76,11.76,0,0,0-1.64-5.22A9,9,0,0,1,27,25.86a11.54,11.54,0,0,0-.41-1.3c0-.06-.41-1.09-.25-.52v1.32c-.15.64-.38.62,0,.12.23-.28.45-.57.67-.85A9.89,9.89,0,0,0,28,23.42l.1-.2c.42-.86.31-.81-.34.16l-3.67-1.5a18.81,18.81,0,0,1,.38,5.24c-.12,2.65,3.34,3.16,4.65,1.26s.61-4.77.94-7l-4.91-.67a51.41,51.41,0,0,1-.53,6.08c-.15.84-.39,1.66-.57,2.49-.05.19-.08.37-.12.56-.13.6-.57,1.12.22.16l4.27,1.77c0-.37.56-1.71.61-2.42.16-2.47-3.53-3.41-4.66-1.26A42.75,42.75,0,0,0,21.58,34a25.5,25.5,0,0,0-.75,3c-.2.93-.6,1.82-.88,2.73s-.81,1.77-1.07,2.71a10.72,10.72,0,0,1-.32,1.27c-.19.46-.5.79-.67,1.28-.29.83-.13,1.5-.4,2.26a5.14,5.14,0,0,1-.39.86,4.86,4.86,0,0,1-.33.54.2.2,0,0,1,.09-.15l1.26-.34c.7-.08,1.5,1.27.9.24a5.24,5.24,0,0,0-.74-1,5,5,0,0,0-2-1.19c-1.27-.49-2.39-1.27-3.68-1.73-3.56-1.26-5.35,1.93-7.66,4s-2.8,4.83-3.88,7.43C-.15,58.83,0,62.16,0,65.37a5.08,5.08,0,0,0,1.36,3.81,6.53,6.53,0,0,0,4.49,1.51,18.77,18.77,0,0,1,3.9.12,6.81,6.81,0,0,1,1.6.79,4.82,4.82,0,0,0,2.4.67,4.81,4.81,0,0,0,3.78-1.18,21.59,21.59,0,0,0,2.34-3c1.89-2.6,2.08-6,3.16-8.92.62-1.67,1.13-3.39,1.8-5a49.52,49.52,0,0,1,2.06-4.64c.34-.61.8-1.07,1.09-1.72.41-.91.7-1.86,1.05-2.79a21.71,21.71,0,0,0,1.54-5.45c.29-2.8-4.35-3.42-4.91-.67a22.44,22.44,0,0,1-1,2.57c-.33.94-.62,1.91-1,2.86-.7,2-1.24,4.13-1.94,6.17a23,23,0,0,0-1.06,2.83c-.17.54-.15.58.06.1a2,2,0,0,0-.54.87,8.68,8.68,0,0,0-.51,1.4c-.55,1.9-1.1,3.79-1.55,5.73a18,18,0,0,1-.5,2.77,4.38,4.38,0,0,1-1.19,1.28,7.79,7.79,0,0,0-.64.65c.68-.2.73-.28.16-.23-.05,0-.08,0-.1,0-.82-.4-1.55-1-2.33-1.46a6.53,6.53,0,0,0-2.89-1.24c-.3,0-.61.07-.89.06A10.37,10.37,0,0,1,8.36,63a6.24,6.24,0,0,0-2.88.11,14.12,14.12,0,0,0-2.16,1.2L4.58,64l-.27,0,2.15,1.24c.39.67,0,1,.2.49.09-.23.13-.5.2-.74.16-.5.32-1,.52-1.5C8,62,8.85,60.59,9.45,59.09a26.69,26.69,0,0,1,2.1-4,16.05,16.05,0,0,0,2.16-4c.75-2.57-2.36-3.94-4.17-2.43a15.77,15.77,0,0,0-2,2.76A11.92,11.92,0,0,0,5.7,54.6a26.36,26.36,0,0,0-1.06,3.22c-.29,1.37-.33,2.76-.49,4.14-.23,2.08,3,3.41,4.27,1.77,1.54-1.92,2.09-4.42,3.09-6.64.52-1.15,1.2-2.22,1.83-3.31.23-.39.43-.78.62-1.19.11-.22.24-.44.34-.67.17-.4.57-.5-.19,0l-3.76-2.16c.13,1.06-.6,2.45-.88,3.47-.38,1.37-.72,2.75-1.1,4.12s-.77,2.46-1.07,3.7a21.75,21.75,0,0,1-.77,3.6l4.57,1.92c.91-2.24,1.47-4.51,2.53-6.68.55-1.14,1.11-2.27,1.67-3.41.29-.59.6-1.18.87-1.78,0-.1.27-.77.26-.6s-.05.09,0,0c.17-.3,0-.19-.36.31l-1.26.34.19,0-2.41-3.17c-.45,1.94-1.32,3.82-2,5.7-.73,2.2-1.16,4.48-1.88,6.68-.86,2.65,3.43,4.55,4.57,1.93,1-2.39,2.13-4.75,3.22-7.12a67.32,67.32,0,0,0,3-6.15l-4.82-1.33c-.23,1.22-.72,2.36-1,3.56s-.51,2.45-.89,3.65-.74,2.3-1.1,3.46a6.58,6.58,0,0,0-.54,3.41c.45,2.25,3.47,2.25,4.57.6a39.88,39.88,0,0,0,3.07-6.86c.45-1.07.87-2.15,1.27-3.24a8.6,8.6,0,0,1,.94-2.42L16.87,51c-1.51,3.95-2.17,8.14-3.2,12.23-.79,3.12,4,4.45,4.82,1.32.9-3.56,2.24-7,3.42-10.45.59-1.73,1.08-3.49,1.6-5.24.24-.8.49-1.59.72-2.38.12-.41.25-.81.35-1.23.05-.24.41-1.18-.08-.55H21c2.82,2.24,5.62-.73,6.86-3.23.78-1.57,1.17-3.22,1.83-4.82a9.94,9.94,0,0,1,1.27-2.06,9.17,9.17,0,0,0,.66-1c.09-.18.18-.37.28-.55.24-.36.22-.37-.08,0l-3-.4c-.27-1-.39-1.25-.35-.63l0,.3c0-.06-.1.68-.12.87A5.84,5.84,0,0,1,28,34.78a18.85,18.85,0,0,1-1,1.83,5.75,5.75,0,0,0-.56,1.24c-.18.64-.3.22.16,0a2.52,2.52,0,0,0-.9,3.42,2.56,2.56,0,0,0,3.42.9c1.24-.59,1.58-1.76,2.11-2.87a24.11,24.11,0,0,0,1.67-3.52,16.07,16.07,0,0,0,.45-3.22,3.87,3.87,0,0,0-1.06-3.5,2.56,2.56,0,0,0-3-.39c-1.31.91-1.75,2.18-2.65,3.42a14,14,0,0,0-2,4,20.77,20.77,0,0,1-1.45,3.64,3.62,3.62,0,0,1-.22.32c-.1.16.18-.18-.11.14s-.38.37-.54.57l-.19.17a1.3,1.3,0,0,1,1.44-.27l1.1.65-.11-.09c-1-.77-2.63-1.16-3.54,0-1.14,1.44-1.35,3.33-1.88,5.06-.57,1.89-1.08,3.8-1.7,5.67-1.24,3.78-2.74,7.47-3.71,11.33l4.82,1.32c1-4.08,1.69-8.27,3.2-12.22.95-2.46-2.5-4-4.17-2.43a7.4,7.4,0,0,0-1.6,2.92c-.46,1.2-.87,2.41-1.35,3.6a37.9,37.9,0,0,1-3.12,7L16,64l0-.19v1.33c.36-2,1.32-4,1.88-6,.3-1.06.45-2.16.75-3.22s.76-2.19,1-3.34a2.5,2.5,0,0,0-4.82-1.33c-.65,1.88-1.88,3.58-2.72,5.4-1,2.22-2,4.44-3,6.67l4.56,1.93c.72-2.2,1.15-4.48,1.89-6.68.63-1.88,1.5-3.76,1.95-5.7A2.54,2.54,0,0,0,15,49.75c-1.8-.22-2.68,1.39-3.3,2.75.25-.55-.12.23-.22.42L11,54c-.39.78-.77,1.56-1.15,2.34a33.92,33.92,0,0,0-2.06,4.46c-.49,1.52-.88,3-1.49,4.48-1,2.61,3.42,4.52,4.57,1.93A19,19,0,0,0,12,63c.29-1.46.8-2.87,1.2-4.3s.76-2.9,1.17-4.35,1.18-3.05,1-4.57c-.22-1.69-2-3.36-3.77-2.16a6.14,6.14,0,0,0-2,2.57c-.53,1.1-1.21,2.12-1.79,3.19S6.64,55.8,6.11,57c-.42.95-.57,2.36-1.22,3.17L9.15,62c.11-.94.12-1.88.32-2.81a19.34,19.34,0,0,1,.92-2.82,8.56,8.56,0,0,1,1.36-2.23,12.38,12.38,0,0,1,1.32-1.91L8.89,49.76c-.41,1.45-1.7,2.77-2.44,4.09C5.57,55.44,5,57.14,4.16,58.76,3,61.15.58,65,2.15,67.73A2.47,2.47,0,0,0,4.31,69a3.84,3.84,0,0,0,1.78-.47l.73-.57c.35-.28.29-.27-.17,0a4.45,4.45,0,0,1,1.82.18c.58.12,1.31,0,1.84.1-.62-.16.65.52.74.57.79.48,1.53,1,2.34,1.47a5.27,5.27,0,0,0,6.2-.81c1.52-1.49,2.81-2.81,3.12-5a38.39,38.39,0,0,1,1.46-6A8,8,0,0,0,24.55,57c.2-.43.2-.52,0-.27a5.06,5.06,0,0,0,.55-.76,12.82,12.82,0,0,0,.56-1.76c.16-.45.41-.87.59-1.32.83-2.17,1.43-4.41,2.11-6.62.32-1,.7-2.07,1-3.11a25.62,25.62,0,0,0,1.13-3l-4.91-.66a20.2,20.2,0,0,1-1.52,4.56,8,8,0,0,1-.85,2,15.64,15.64,0,0,0-1.37,2.67c-1.45,3.33-2.85,6.63-4,10.09-.53,1.62-.73,3.35-1.34,4.94a7.55,7.55,0,0,1-.79,1.55c-.26.37-.56.71-.81,1.08-.12.2-.25.39-.37.58.13-.19.09-.17-.1,0l-.22.21c-.38.35-.27.35.33,0,0-.13-.55-.06-.63,0-.71.1.34.41-.18-.07a4.62,4.62,0,0,0-1-.55A12.5,12.5,0,0,0,7,65.71a15.91,15.91,0,0,0-1.82-.07c-.09,0-.47-.08-.36-.08-.06,0,.34.41.22.42s0-5,0-5.43a18.07,18.07,0,0,1,1.48-4.82c.35-.83.6-1.68.92-2.51a2.27,2.27,0,0,1,.79-1.08c.48-.43.94-.84,1.38-1.31.26-.29.51-.58.78-.86s.81-.63.85-.82l.13-.11c-.82,0-1,0-.39.1-.36-.21.85.37.58.24.84.4,1.82,1.3,2.77,1.37,0,0,.69.3.24-.07.15.12.24.49.34.66a3.62,3.62,0,0,0,2,1.67c2,.61,3.59-.79,4.49-2.41a12.09,12.09,0,0,0,.89-2.06,6.33,6.33,0,0,0,.26-1,4,4,0,0,0,.09-1c0-.42,0-.4,0,.06a9.91,9.91,0,0,0,1.07-2.85c.23-.88.74-1.65,1-2.52s.63-1.69.85-2.55.38-1.94.69-2.9a35.18,35.18,0,0,1,2.42-5.17L24,29.33q0-.27-.12.24c-.09.2-.18.41-.26.62a4.14,4.14,0,0,0-.23,1.56c.1,2,2.79,3.56,4.27,1.77,1.08-1.31,1.35-3.37,1.67-5a54.1,54.1,0,0,0,.79-7.83c.14-2.76-4.5-3.48-4.91-.66a20.74,20.74,0,0,0-.31,3.78c0,.45,0,.9,0,1.35s0,.44-.15.7l4.66,1.26a23.79,23.79,0,0,0-.56-6.57,2.54,2.54,0,0,0-3.67-1.49A3.09,3.09,0,0,0,24,20.24a5,5,0,0,0-.34.74c.14-.21-.25.29-.25.29a8.38,8.38,0,0,0-1.8,2.59c-.32,1.13.24,2,.51,2.93a15.18,15.18,0,0,0,1.2,3.45,5.56,5.56,0,0,1,.95,2.69A16.54,16.54,0,0,1,24,36.51c-.23,1.37-.49,2.71-.63,4.1s-.61,2.62-.26,4c.56,2.19,3.42,2.31,4.57.59a4.76,4.76,0,0,0,.53-1.4c.14-.49.37-.92.56-1.41a23.51,23.51,0,0,0,.7-2.62c.26-1,.68-1.86.91-2.83s.68-1.69.9-2.59a11.65,11.65,0,0,0,.21-1.18c.05-.24.09-.48.13-.72-.36.48-.31.42.16-.19a9.76,9.76,0,0,0,.63-2.7,28.27,28.27,0,0,0,1.07-6.89A36.52,36.52,0,0,1,33.8,17a52.36,52.36,0,0,0,.09-6.39,6.76,6.76,0,0,0-.55-3.44c-.48-.89-1.31-1.32-2-2C30,3.61,28.65,2.07,26.43,1.84s-2.82,2.23-2.16,3.77A4.08,4.08,0,0,0,25,6.7c.38.43.24.48.15,0V5.4c.57-.76.61-.92.12-.5a3.73,3.73,0,0,1-.65.41,8.14,8.14,0,0,0-1.28,1.05,22.81,22.81,0,0,0-2.31,2.5c-.73,1-1.38,2-2.05,3.07-.35.54-.71,1.06-1.07,1.59l-.45.68c0-.13.1-.2.28-.22l2.83,1.15a1.54,1.54,0,0,1,.2,1.1,2.42,2.42,0,0,1,.1-.36c.06-.14.22-.59.22-.59.11-.27.41-.84.59-1.24a39.09,39.09,0,0,1,2.05-4.22L19.45,7.3c-.92,1.8-1.77,3.59-2.76,5.36a29,29,0,0,0-1.43,2.91,4.16,4.16,0,0,1-1,1.85l4.27,1.77c0-.23.52-1.31.7-1.83.27-.82.37-1.69.57-2.54.42-1.78,1.2-3.57,1.8-5.31.15-.44.31-.89.49-1.33.42-1,0-.39,0-.42,0,.27-.58.09.26.18.45,0,.89.21,1.34.29a9,9,0,0,0,1.94.13,4.94,4.94,0,0,0,.86,0c.4-.09,0,.09-.22-.1-.75-.53-.68-1.45-.71-.52,0,.46,0,.92,0,1.38a11,11,0,0,1-.37,2.25c-.15.86.06,1.69,0,2.54a8,8,0,0,1-.89,2.42,12.38,12.38,0,0,1-2.66,3.74c-.28.27-.54.56-.82.84,0,0-.74.76-.45.49-.09.09-.5.23-.16.1l-.49.16c-.64.11-.31.2,1,.24l.9.9-.07-.12V25.2c.48-.95,1.16-1.68,1.7-2.59s.76-1.93,1.27-2.84c1.06-1.9,2.19-3.75,3.12-5.72a11.41,11.41,0,0,0,1.05-6.89A8.89,8.89,0,0,0,27.38,4c-.51-.82-1-1.71-1.53-2.49A2.58,2.58,0,0,0,23,.31a2.52,2.52,0,0,0-1.83,2.41,22.26,22.26,0,0,0,.62,2.53,7.1,7.1,0,0,1-.06,2.6,47.66,47.66,0,0,0-1,5c0,.27,0,.22.05-.16a5.38,5.38,0,0,0-.28.6c-.17.41-.32.82-.47,1.24a9.92,9.92,0,0,1-.85,1.81c-1,1.64-2.31,2.91-3,4.7L16.8,20c.18-.18.06,0-.07,0a5.15,5.15,0,0,0-.9.78c-.46.44-1,.76-1.47,1.19-.08.07-.47.38-.48.5,0,0,1-.35.77-.39.33.18.47.4.43.67,0,.1,0,.06,0-.1a2.25,2.25,0,0,0,0-.45,20.88,20.88,0,0,1,.37-2.67c.27-1.24.33-2.52.62-3.76a33.57,33.57,0,0,1,.6-3.52c.37-1,.94-2,1.4-3a11.42,11.42,0,0,1,1.83-2.69A8.4,8.4,0,0,1,21,5.51c.38-.31,1.18-.56.21-.45a2.57,2.57,0,0,0,2.5-2.5,2.52,2.52,0,0,0-2.5-2.5Z"/></g><g class="cls-1"><path class="cls-2" d="M6.63,75.91a14.72,14.72,0,0,1-.13,1.88l.09-.66a5.7,5.7,0,0,1-.17.9c-.12.41.26-.57.08-.19-.07.15-.14.29-.2.44a4,4,0,0,0-.43,2.92,4.39,4.39,0,0,0,2.92,2.69,4.73,4.73,0,0,0,3,.09,3.27,3.27,0,0,0,2.09-4.17A2.52,2.52,0,0,0,11.84,78a2.55,2.55,0,0,0-2.49,1.2,5.19,5.19,0,0,0-1,3,2.91,2.91,0,0,0,1.29,2.59,3.06,3.06,0,0,0,2.29.31,3.77,3.77,0,0,0,2.19-1.75c.13-.2.23-.41.35-.62l.16-.26c.16-.31-.51.55-.21.28l-3,.39a2.24,2.24,0,0,1-.77-.76c-.2-.52-.26-.66-.18-.43s.05.2.06.3l-.09-.67c.13,1.12-.23,2.26,0,3.36a3,3,0,0,0,3.78,2.08,3.5,3.5,0,0,0,1.84-1.46,4,4,0,0,0,.22-.34c.13-.2.45-.53-.11.12a2.66,2.66,0,0,0,.73-1.76,2.5,2.5,0,0,0-4.27-1.77,7.72,7.72,0,0,0-.72,1c-.13.21-.31.31.16-.18-.17.18-.07.11.3-.2.48-.16.59-.22.35-.16l.66-.09a.74.74,0,0,1-.21,0l.66.09C15,84,15.44,84.41,15.28,83.65l.09.67c0-.65.07-1.31.08-1.95a3.72,3.72,0,0,0-1.53-3.5,2.56,2.56,0,0,0-3,.39A4.43,4.43,0,0,0,10,80.52c-.1.17-.21.33-.31.49.42-.67.34-.4.18-.25.41-.3.52-.39.32-.26.5-.18.64-.24.41-.18l.66-.09h-.14l.67.09a.62.62,0,0,1-.23-.07L13.33,82l0-.15.09.67a2.73,2.73,0,0,1,0-.7l-.09.67c0-.11.06-.22.08-.33s-.3.56-.08.17c.12-.21.24-.41.37-.6l-4.57-.6a2.81,2.81,0,0,1,.08.31l-.09-.66a1.13,1.13,0,0,1,0,.26l.09-.67c-.09.43.32-.61.15-.34a1.89,1.89,0,0,1,.69-.69c-.32.19.7-.21.37-.15l-.25.06.66-.09a3.43,3.43,0,0,1-.64,0l.67.09a4.54,4.54,0,0,1-.53-.12c-.25-.08-.48-.29.23.12a2.53,2.53,0,0,0-.23-.12,1.64,1.64,0,0,1-.22-.14c-.31-.18.56.48.26.2s-.22-.4.21.29c-.25-.39.23.7.12.3l.09.67a.88.88,0,0,1,0-.28l-.09.67s.07-.41.12-.42-.29.65-.09.22l.1-.22a6.05,6.05,0,0,0,.53-1.33,16.24,16.24,0,0,0,.31-3.18,2.52,2.52,0,0,0-2.5-2.5,2.55,2.55,0,0,0-2.5,2.5Z"/></g><g class="cls-1"><path class="cls-2" d="M20.84,26.62c.39-.47.91-.83,1.26-1.34s.5-1,.84-1.48a21.28,21.28,0,0,0,1.8-3.24c.61-1.23,1.24-2.45,1.8-3.71s.72-2.34,1.11-3.54a22.79,22.79,0,0,0,.74-3.47c.09-.6.36-1.13.45-1.73a11.17,11.17,0,0,0,0-1.53c0-1.25.36-3.23-1.46-3.21-.45,0-2.69.62-1.89,1.44a6.85,6.85,0,0,1,2,5.09,13.78,13.78,0,0,1-.82,5.88,25.87,25.87,0,0,0-1,2.54,12.81,12.81,0,0,1-.89,2.57c-.47.8-.92,1.69-1.44,2.45s-1.19.94-1.66,1.58c-.66.9,1.12,1,1.56.82,1.55-.53,2.34-1.59,3.4-2.76a18.53,18.53,0,0,0,3.14-4.82,28.15,28.15,0,0,0,2.54-11.8c0-1.25-2.91-.66-2.91.34A27.79,27.79,0,0,1,27.58,17a20.22,20.22,0,0,1-2.44,4.53c-.39.54-.87,1-1.3,1.51-.2.23-.38.47-.58.69s-.9.65-.36.47l1.56.81c.24-.33.69-.5,1-.78a3.9,3.9,0,0,0,.73-.93c.52-.9,1.15-1.81,1.59-2.73a23.27,23.27,0,0,0,.86-2.6c.36-1,.73-1.94,1.13-2.91.79-1.88.67-4.12.64-6.11A7.46,7.46,0,0,0,28.2,3.65L26.31,5.08c-.26,0-.32-.22-.41-.06a3.7,3.7,0,0,0,.09.49,6.46,6.46,0,0,1,0,.88,11.42,11.42,0,0,1-.14,2.42c-.26,1-.51,1.91-.73,2.87-.12.54-.15,1.1-.29,1.64s-.36,1-.45,1.5c-.41,2.27-1.73,4.31-2.73,6.38-.24.5-.43,1.05-.7,1.53s-.65.81-.93,1.26-.38.82-.64,1.19-.87.88-1.26,1.34.39.88.8.91a2.39,2.39,0,0,0,1.91-.81Z"/></g><g class="cls-1"><path class="cls-2" d="M8.71,69.06c1.52-1.54,3.52-2.51,4.65-4.42a21.33,21.33,0,0,0,2.11-6.34c.46-2.14.59-4.32,1-6.48a10.28,10.28,0,0,0,.08-3.18c-.16-1-1.21-1.86-1.06-2.86l-1.67.92a4,4,0,0,1,1.75.53,2.55,2.55,0,0,1,1,1.7c.17.66.14,1.32.27,2a14.24,14.24,0,0,1,.39,1.81c.19,3.16-.22,6.32-.22,9.47a21.29,21.29,0,0,1-1.08,7,1.24,1.24,0,0,1-.23.32l.67-.31a4.1,4.1,0,0,0-1-.21,19.83,19.83,0,0,0-2,0c-1.66,0-3.33,0-5,0-.56,0-1.63.2-1.92.76s.25.74.75.73a7.16,7.16,0,0,0,4.69-2.14c.59-.54,1.22-1,1.76-1.65a22.86,22.86,0,0,0,1.33-2C17.24,61.34,17,57.48,17,53.59c0-.76-2.9-.25-2.9.77,0,3.1.18,6.3-.54,9.34a11.41,11.41,0,0,1-1.65,3.49,20,20,0,0,0-1.91,3c-.38.93,2.42.26,2.77-.22.5-.68,1.16-1.18,1.63-1.9a21.27,21.27,0,0,0,1.14-2,16.21,16.21,0,0,0,2-5.13c.26-1.87.67-3.73.79-5.62.07-1.08.33-3-.46-3.92-.52-.59-2.63,0-2.79.75-.62,3,.63,6.11.62,9.08a11.3,11.3,0,0,1-.55,4.44c-.43,1-.94,2.6-1.77,3.29l2.59-.22,0-.34c-.09-.82-3-.21-2.9.78l0,.34c.09.88,2.26.06,2.59-.22,1-.83,1.32-2,1.88-3.1a8.93,8.93,0,0,0,1-3.95,29.82,29.82,0,0,0-.36-5.26,16.36,16.36,0,0,1-.26-5.26l-2.79.75c.27.31.26,1.17.29,1.57a14.59,14.59,0,0,1-.12,2.8c-.21,1.64-.56,3.27-.73,4.91a13.57,13.57,0,0,1-1.73,4.35,14.58,14.58,0,0,1-1.34,2.29c-.42.56-1,1-1.4,1.56l2.78-.22A25.77,25.77,0,0,1,15,66.5a11.06,11.06,0,0,0,1.54-3.66A47.71,47.71,0,0,0,17,53.59l-2.9.77c0,1.62.14,3.24,0,4.85a12.66,12.66,0,0,1-1.17,4.18,15.8,15.8,0,0,1-1.8,3,12.27,12.27,0,0,1-1.51,1.46c-.26.24-1,1.11-1.35,1.11L7.06,70.49c2.07,0,4.23-.17,6.29,0,1.59.11,3,.58,4.41-.47,2-1.48,2.07-5.28,2.07-7.5,0-1.8.11-3.55.21-5.34.06-1.1,0-2.2,0-3.29a12.13,12.13,0,0,0-.18-3c-.37-1.4-.21-3.18-1.2-4.36S15.52,45,14.22,45.27c-.45.08-1.58.34-1.67.92a3.45,3.45,0,0,0,.72,2.21,6.51,6.51,0,0,1,.33,3.45c-.11,1-.36,2-.45,3.09a22.4,22.4,0,0,1-.47,3.37c-.53,2.12-.87,4.45-2,6.36S7.53,67.57,6,69.1c-.49.5.43.72.75.72a2.72,2.72,0,0,0,1.93-.76Z"/></g><g class="cls-1"><path class="cls-2" d="M16.8,7.78c-.17.38-.52.64-.71,1a7.39,7.39,0,0,0-.47,1.37,9.68,9.68,0,0,0-.45,2.72c0,1,.11,2.07,0,3.09,0,.44-.17.85-.21,1.29a13.91,13.91,0,0,0,0,1.71l2.91-.55c0-1-.23-2-.23-3s0-1.94,0-2.9a6.65,6.65,0,0,1,1.69-4.49L16.7,7.94a13,13,0,0,1-.6,1.32,8.8,8.8,0,0,0-.42,1.32c-.25,1.15-.33,2.36-.48,3.53s-.48,2.07-.64,3.13a19.83,19.83,0,0,0-.05,3.27l2.91-.32a24.46,24.46,0,0,1,.64-3.6c.08-.65,0-1.29,0-1.94a10.21,10.21,0,0,1,.35-1.57,11.43,11.43,0,0,0,.13-1.54,12.17,12.17,0,0,1,.51-1.95,3.9,3.9,0,0,1,1.1-2.27l-2.37-.11a7.45,7.45,0,0,1-.42,2.62A27.63,27.63,0,0,0,17.14,13l2.91-.32c0-.66.42-1.22.46-1.88a5.79,5.79,0,0,0,0-.72c0-.11,0-.23,0-.35s.17-.37,0-.17L17.77,9.4c-.18.69-.49,1.35-.61,2a11.24,11.24,0,0,0,0,2c0,.66.72.79,1.28.73s1.62-.4,1.63-1a14.48,14.48,0,0,1,.27-2.71,8.52,8.52,0,0,0,.17-1.22c0-.19-.11-.72,0-.88l-.44.43.13-.08-2.26.08a3.88,3.88,0,0,1,.57,1.53A4.78,4.78,0,0,1,18.91,12c-.1,1.29,2.83.77,2.91-.31a5.43,5.43,0,0,0-.44-2.14,4.73,4.73,0,0,0-.78-1.94c-.54-.58-1.71-.28-2.26.09-1,.66-.66,1.44-.81,2.47a23.12,23.12,0,0,0-.38,3.32l2.91-.32a11.25,11.25,0,0,1,0-2c.12-.7.43-1.36.61-2.05.13-.51-.55-.71-.91-.74a2.39,2.39,0,0,0-1.72.6,2.23,2.23,0,0,0-.47,2c0,.73-.43,1.33-.44,2.06,0,1.3,2.88.75,2.91-.32a23.36,23.36,0,0,1,.25-3.34,7.12,7.12,0,0,0,.38-2.89c-.2-.92-1.9-.44-2.37-.12A5.08,5.08,0,0,0,16.39,9c-.19.57-.33,1.17-.5,1.75a9,9,0,0,0-.28,1.93,15.28,15.28,0,0,1-.4,1.78,12.31,12.31,0,0,0,0,1.92c0,1.4-.7,2.68-.67,4.09,0,.67.72.79,1.27.73s1.64-.4,1.64-1a22.08,22.08,0,0,1,0-3.15c.14-1.1.51-2.15.66-3.25s.24-2.29.46-3.41.78-1.79,1-2.75c.13-.51-.56-.72-.92-.74A2.35,2.35,0,0,0,17,7.48a7.94,7.94,0,0,0-2.22,5.2c-.07,1-.05,2.08,0,3.11s.21,2.27.24,3.41c0,.58,1.15.53,1.47.47s1.43-.43,1.43-1,0-1,0-1.49.14-.85.2-1.28a24.35,24.35,0,0,0,0-3.08,9,9,0,0,1,.34-2.63,9.05,9.05,0,0,1,.39-1.25c.19-.37.54-.62.71-1,.6-1.36-2.3-1.11-2.72-.14Z"/></g><g class="cls-1"><path class="cls-2" d="M6.18,61.42a7.86,7.86,0,0,1,.15-1.81,9.23,9.23,0,0,0,.29-1.81A20.7,20.7,0,0,1,7,54a14.26,14.26,0,0,1,.36-1.6c.17-.48.53-.8.69-1.29a4.06,4.06,0,0,1,.35-.69c.22-.16.17-.14-.14.05l.32-.11a3.4,3.4,0,0,0,.88-.52c.12-.09.22-.27.34-.33l-2.23.18c-.07-.11,0,.08-.08.15s-.13.31-.21.46c-.2.35-.43.68-.64,1a12,12,0,0,0-1.12,3.31,36.33,36.33,0,0,0-.93,3.87,28.66,28.66,0,0,0-.23,4.14l2.9-.77A8.73,8.73,0,0,1,7.36,60a10.19,10.19,0,0,0,.17-1.57A27.43,27.43,0,0,1,8,55.17c.15-1,.47-1.87.63-2.82.05-.31.1-.63.18-1s.12-.36.17-.54c.1-.35.12.06-.7.25L6.74,51c.75.48.59,1.83.22,2.51l2.78-.39a2.06,2.06,0,0,1,.18-1.59L7,52.13a9.26,9.26,0,0,1-.31,1.34c0,.24,0,.7-.24.84l2.59-.2c-.07-.31.12-.63.16-1a4.74,4.74,0,0,1,.15-1l-2.89.41a8.42,8.42,0,0,0-.36,1.21,11.23,11.23,0,0,1-.2,1.4c-.24.93,2.65.5,2.88-.41A10.84,10.84,0,0,0,9,53.39a7.42,7.42,0,0,1,.36-1.22c.28-.9-2.59-.49-2.89.41a11.77,11.77,0,0,0-.18,1.19,2.49,2.49,0,0,0-.14,1.11c.09.39.79.38,1,.36a3.07,3.07,0,0,0,1.55-.56,2.06,2.06,0,0,0,.82-1.46,11.92,11.92,0,0,0,.34-1.86c0-.51-1.21-.35-1.43-.3A2,2,0,0,0,7,52a2.55,2.55,0,0,0-.19,1.95c.28.88,2.47.17,2.78-.4.53-1,.91-2.62,0-3.47-.75-.69-2.22-.21-2.91.37a2.83,2.83,0,0,0-.85,1.69c-.33,1.58-.64,3.16-.94,4.74-.19,1-.18,1.92-.3,2.89-.06.45-.19.89-.22,1.35s0,1,0,1.52c0,.79,2.89.27,2.9-.77a26.24,26.24,0,0,1,.28-4.25c.24-1.39.7-2.73,1-4.09a9.46,9.46,0,0,1,1.1-2.8c.38-.59,1-1.44.59-2.13s-1.85,0-2.23.18a2.73,2.73,0,0,0-.74.56s-.24.2-.06.08-.12,0-.16,0a3.41,3.41,0,0,0-1.67,1.42,8,8,0,0,0-.29.82,4.7,4.7,0,0,1-.39.52A5.69,5.69,0,0,0,4.21,54a22.07,22.07,0,0,0-.48,4,13.08,13.08,0,0,1-.34,2.17,9.82,9.82,0,0,0-.11,2c0,.77,2.89.27,2.9-.78Z"/></g><g class="cls-1"><path class="cls-2" d="M5.76,52c-.24.66-.63,1.25-.88,1.92a16.22,16.22,0,0,0-.65,2.39,11.4,11.4,0,0,0-.12,2.48c0,.9,0,1.8,0,2.7,0,1.5,2.91,1.07,2.93-.23A23.92,23.92,0,0,1,8.41,55a16.52,16.52,0,0,1,.82-2.76,21,21,0,0,0,1.42-2.75.85.85,0,0,0-.71-1.18,2,2,0,0,0-1.88.59A9.86,9.86,0,0,0,6.94,50.8a12.85,12.85,0,0,0-.92,2,21.8,21.8,0,0,0-.51,2.12A15.31,15.31,0,0,0,5,57.08c-.11,1.49,2.84,1.08,2.94-.23A11.29,11.29,0,0,1,8.37,55c.16-.62.23-1.26.42-1.87a9.54,9.54,0,0,1,.77-1.69,8.83,8.83,0,0,1,.92-1.65l-2.6-.59a20.55,20.55,0,0,1-1.42,2.76,16.52,16.52,0,0,0-.9,3,25.1,25.1,0,0,0-1.42,6.51l2.93-.23c0-.86,0-1.72,0-2.58a13.64,13.64,0,0,1,.07-2.39,14.7,14.7,0,0,1,.53-2c.22-.67.64-1.25.88-1.92.58-1.55-2.32-1.53-2.77-.32Z"/></g><g class="cls-1"><path class="cls-2" d="M7.2,59.3c.31-.76.66-1.5.91-2.28A6.53,6.53,0,0,1,9,55.16c.22-.32.44-.65.64-1l.29-.51A2.15,2.15,0,0,1,10,53.4s.13-.22.05-.1.06-.06.07-.08l.15-.17a2.35,2.35,0,0,0,.3-.33,2,2,0,0,0,.53-1.06c.11-1.1-1.49-.9-2.09-.66A5.54,5.54,0,0,0,6.5,53.86a.71.71,0,0,0,.39,1,2,2,0,0,0,1.61-.08,3.17,3.17,0,0,0,1.21-1.06c.18-.28.3-.59.46-.88l.1-.18c.06-.09-.17.1.05,0-.11.06-.06.05,0,0a4,4,0,0,0,.31-.27,2.34,2.34,0,0,0,.54-.63,2,2,0,0,0,.1-.21c0-.06.17-.24.09-.16H8.75c.26.72-.26,1.56-.41,2.32A3.27,3.27,0,0,1,8,54.74a2.52,2.52,0,0,0-.32,1.51c0,.27.39.47.6.54a2,2,0,0,0,1.1,0c.61-.18,1.28-.6,1.2-1.31a.4.4,0,0,1,.09-.31c.1-.19.2-.38.28-.57a10.23,10.23,0,0,0,.37-1.42,4.37,4.37,0,0,0,.32-2.61c-.38-1.06-2.07-.58-2.65,0a2.38,2.38,0,0,0-.39.55c0,.06-.2.39-.12.26s.08-.07,0,0l-.19.15a3.3,3.3,0,0,0-.58.6,5.31,5.31,0,0,0-.46.81c-.06.12-.12.25-.19.37s.11-.08,0,0l.21-.13,2,.92a8.78,8.78,0,0,1,.61-1l.18-.23.21-.24c.12-.12.21-.15,0,0,.34-.21-.18.07,0,0l-2.09-.66c0,.12,0,.12,0,0-.07.11-.07.12,0,0a3.17,3.17,0,0,1-.3.34,5,5,0,0,0-.63.81c-.39.66-.75,1.32-1.18,2a7.15,7.15,0,0,0-.87,2c-.22.7-.54,1.36-.82,2-.6,1.48,2.31,1.37,2.75.26Z"/></g><g class="cls-1"><path class="cls-2" d="M18.85,19c-.26-.31-.15-1-.21-1.39A11.88,11.88,0,0,1,18.51,16q0-.92,0-1.83c0-.6.13-1.18.19-1.78s.15-1.1.21-1.65a9.33,9.33,0,0,1,.2-1.5,8.89,8.89,0,0,1,.78-1.46,3.87,3.87,0,0,0,.25-.55c.31-.76.22,0-1,.17l-1.22-.52a3,3,0,0,1-.65,1.26,8.81,8.81,0,0,0-.58,1.47,10.35,10.35,0,0,0-1.07,2.93c0,.38.88.36,1.05.35a3.2,3.2,0,0,0,1.55-.56,5,5,0,0,0,1.49-2c.15-.3.32-.58.49-.86l.26-.4c.41-.56.33-.08-.62,0l-1.23-.34A2.48,2.48,0,0,1,18.7,10c0,.58,0,1.16,0,1.74l2.89-.78V8.12c0-.77-2.89-.26-2.89.78v2.81c0,.76,2.89.26,2.89-.78,0-.58,0-1.15,0-1.73A2.47,2.47,0,0,0,21.51,8c-.2-.43-.84-.38-1.23-.34a3.75,3.75,0,0,0-2.83,2c-.47.75-.77,1.84-1.52,2.35l2.59-.21a3.89,3.89,0,0,1,.5-1.22A16,16,0,0,0,19.65,9a5,5,0,0,1,.56-1.27,2.78,2.78,0,0,0,.6-1.26c.06-.62-.84-.56-1.23-.52a2.81,2.81,0,0,0-2,1c-.28.4-.4.89-.65,1.3a5.29,5.29,0,0,0-.82,1.83c-.11.65-.16,1.34-.24,2a39.29,39.29,0,0,0-.26,4.2,12.76,12.76,0,0,0,.13,2.05c.09.6,0,1.21.41,1.7.59.69,3.36-.33,2.7-1.09Z"/></g><g class="cls-1"><path class="cls-2" d="M17.59,9.12c0,.29-.34.65-.46.89a13.57,13.57,0,0,0-.56,1.37c-.36.93-.73,1.85-1,2.8-.58,2-.36,4-.4,6.06l2.91-.32c0-.56.25-1.07.27-1.63s-.05-1.07-.05-1.6a34.42,34.42,0,0,1,.4-3.93,13.08,13.08,0,0,1,.82-3.44c.19-.47.41-.93.62-1.39a2.54,2.54,0,0,1,.69-1.06l-2.37-.35c-.08,1.1-.51,2.12-.66,3.21a23.31,23.31,0,0,0-.2,3.34c0,.67.73.79,1.28.73s1.63-.4,1.63-1a23.45,23.45,0,0,1,.2-3.35c.15-1.08.58-2.11.66-3.21S19.51,5.49,19,5.86a6,6,0,0,0-1.92,2.71,13.6,13.6,0,0,0-1.19,3.79c-.19,1.36-.41,2.76-.47,4.14,0,.63,0,1.25,0,1.88s-.28,1.22-.27,1.86.73.78,1.28.72,1.62-.39,1.63-1c0-2.13-.17-4.23.47-6.29.3-1,.66-1.87,1-2.79s1-1.56.93-2.5c0-.64-1.28-.52-1.66-.42-.56.15-1.29.53-1.24,1.2Z"/></g><g class="cls-1"><path class="cls-2" d="M18.7,7.58c0,1,.85,1.8.88,2.82v-.18a.36.36,0,0,0,.06.32.45.45,0,0,0,.25.24,1.75,1.75,0,0,0,1,.12,2.54,2.54,0,0,0,1.1-.38l.26-.2a.93.93,0,0,0,.28-.44A3,3,0,0,0,22.35,9a6.29,6.29,0,0,0-.3-.71,3.92,3.92,0,0,1-.46-1.44c0-.24-.4-.39-.57-.43A2.55,2.55,0,0,0,19,6.92l-.18.21a.52.52,0,0,0-.09.45Z"/></g><g class="cls-1"><path class="cls-2" d="M21.77,51.59a16.74,16.74,0,0,0,.05,3.94c.23,1.08,2.18.56,2.65,0a5.54,5.54,0,0,0,.9-3.73c0-1.89,0-3.79,0-5.68,0-1.43-2.91-1-2.92.26A12,12,0,0,0,23,48.94a8.17,8.17,0,0,0,.6,2.2c.56,1.18,2.57.52,2.91-.52a8.66,8.66,0,0,0,0-3.62c-.12-1.18-.3-2.35-.47-3.53l-2.9.78a15.31,15.31,0,0,1,.5,1.88,1.62,1.62,0,0,0,.73,1.25,2,2,0,0,0,2.51-.67c.53-.8.32-2.07.32-3a12.47,12.47,0,0,0-.45-3.56l-2.78,1c.7,1.36.54,2.72,2.18,3.39a1.87,1.87,0,0,0,2.31-1.05,9.86,9.86,0,0,0-.06-3.34,24.39,24.39,0,0,0-.56-3.75l-2.78,1c.57.82.87,1.86,1.74,2.44a2,2,0,0,0,2.32-.43c.73-.72.59-1.91.53-2.84-.07-1.21-.67-2.7-.47-3.85l-2.79.75c.5.69.49,1.72,1.29,2.14a2,2,0,0,0,2.32-.42c1.37-1.77-.15-3.92-.19-5.85l-2.91.51A2.68,2.68,0,0,0,28,32.11c.83.38,2.36.14,2.59-.93A9.25,9.25,0,0,0,30,27.13l-2.58,1.18a8,8,0,0,0,.87.77,2,2,0,0,0,2.32-.43c1.12-1.31.33-2.55.74-4l-2.8.74a3.33,3.33,0,0,0,.29.49c.29.44,1.15.45,1.58.3,1-.32,1.58-.82,1.59-1.89A10.21,10.21,0,0,0,32,23c-.06-.48-.43-.81-.46-1.25-.06-1.2-3-.55-2.89.77,0,.52.36.86.43,1.38,0,.25,0,1.1.12.88l.95-.55-.19.07,1.58.3a3.5,3.5,0,0,1-.29-.49c-.56-1-2.57-.1-2.8.75s.37,2.35-.2,3l2.32-.42a10.29,10.29,0,0,1-.87-.76c-.69-.57-2.88.08-2.57,1.18a8.2,8.2,0,0,1,.58,3.54l2.59-.93c-.4-.18-.5-1-.52-1.4-.07-1.15-2.94-.57-2.91.52a15.69,15.69,0,0,0,.45,2.7c.11.47.6,1.71.27,2.14l2.32-.42c-.13-.07-.2-.57-.26-.72A4.74,4.74,0,0,0,29,32.26c-.63-.87-2.62-.24-2.79.75-.2,1.15.34,2.39.44,3.54,0,.37.06.74.06,1.1s0,1.06,0,1.05L29,38.27c-.6-.4-.93-1.5-1.33-2.08-.6-.87-3.15-.15-2.78,1a21,21,0,0,1,.5,3.38,9,9,0,0,1,.1,3.19l2.31-1.05c-.68-.28-.9-2.17-1.22-2.79-.49-1-3.14-.11-2.78,1a12.32,12.32,0,0,1,.42,3c0,.65.21,2-.14,2.47l2.5-.67c-.16-.11-.09-.67-.12-.87A15.11,15.11,0,0,0,26,43.47c-.37-1.25-3.07-.49-2.9.78.15,1,.32,2,.43,3.06a8.43,8.43,0,0,1,0,3.57l2.91-.52a6,6,0,0,1-.54-1.86,15.31,15.31,0,0,1-.55-2.39l-2.92.26c0,1.57,0,3.14,0,4.71,0,1,.32,2.87-.36,3.69h2.65a15.13,15.13,0,0,1,0-3.43c0-1.43-2.9-.95-2.92.26Z"/></g><g class="cls-1"><path class="cls-2" d="M8.12,69c.1.72.72,1.29.67,2l2.9-.77c0-.91,0-1.81,0-2.71a8.83,8.83,0,0,1,0-2.18l-2.79.75a2.24,2.24,0,0,1,.39,1c.08.35.17.69.25,1,.14.59.16,1.36.7,1.74.36.26,1.12.08,1.49,0a2.26,2.26,0,0,0,1.31-.73,2.09,2.09,0,0,0,.2-1c0-.38.12-.76.16-1.13a14.75,14.75,0,0,1,.28-2.57l-2.79.75c.48.33.55,1.25.69,1.81a4.86,4.86,0,0,0,.81,2.33c.12.15.6.12.74.11a4.86,4.86,0,0,0,1.13-.25,1.55,1.55,0,0,0,1.15-1,7.67,7.67,0,0,0,.13-1.06c0-.06,0-.13,0-.19s0-.24,0-.08c0-.23.09-.45.13-.68a9.31,9.31,0,0,0,.16-1.59l-2.9.78c.18,1.49,1.13,2.78,1.11,4.31,0,.49,2.89.09,2.9-.78,0-1.52-.93-2.82-1.11-4.31,0-.18-.42-.21-.52-.22a3.43,3.43,0,0,0-1.06.14,3.19,3.19,0,0,0-1,.41c-.16.11-.34.23-.33.45a22,22,0,0,1-.28,2.29c0,.23,0,.52-.07.72a2.7,2.7,0,0,1-.08.41s0,.1,0,.14l0,.07a.66.66,0,0,1,.22-.22l.61-.29h0l1.87-.15a5,5,0,0,1-.66-2.23c-.14-.63-.25-1.51-.84-1.91a2.13,2.13,0,0,0-1.49,0,4.66,4.66,0,0,0-.71.26c-.15.07-.53.26-.59.46a13.12,13.12,0,0,0-.3,2.65c0,.38-.13.75-.16,1.13a2,2,0,0,1-.19.91l2.8-.75c-.43-.3-.42-1.13-.56-1.64a4.79,4.79,0,0,0-.79-2.11c-.11-.13-.43-.11-.58-.11a3.59,3.59,0,0,0-.91.14,4.66,4.66,0,0,0-.71.26c-.14.06-.54.27-.59.46a9.24,9.24,0,0,0-.06,2.35c0,.94,0,1.88,0,2.81,0,.18.43.22.51.23a3.43,3.43,0,0,0,1.06-.14c.41-.11,1.29-.34,1.33-.86.05-.76-.57-1.32-.67-2,0-.18-.41-.21-.51-.22a3.16,3.16,0,0,0-1.06.14,3,3,0,0,0-1,.41c-.15.1-.37.24-.34.45Z"/></g><g class="cls-1"><path class="cls-2" d="M7,71.84a2.67,2.67,0,0,0,.15,1,2.88,2.88,0,0,1,.07,1A7.42,7.42,0,0,1,7,76.12c-.48,1.41-1.3,2.63-1.86,4-.27.69.26,1,.87,1.17a5.09,5.09,0,0,0,4.24-1.41,11.2,11.2,0,0,0,1.43-1.49A7.61,7.61,0,0,0,13,76.77l-2.76-.29a13.33,13.33,0,0,1-.57,1.79c-.28.55-.6,1.1-.93,1.62s-.43.79-.71,1.16a2.88,2.88,0,0,0-.75,1.52c0,1.1,1.42,1,2.1.7a8.56,8.56,0,0,0,4.93-4.71l-2.84,0a22.75,22.75,0,0,1-.13,3.09,5.15,5.15,0,0,1-.37,1.15A7.94,7.94,0,0,1,10.4,84c-.72,1,.51,1.7,1.47,1.36A5,5,0,0,0,14,84c.43-.48.75-1.06,1.17-1.55a.81.81,0,0,0-.36-1.36,2.06,2.06,0,0,0-2.05.55c-.31.38-.57.78-.86,1.17a3.45,3.45,0,0,1-.42.51s-.26.17-.14.13l1.47,1.36a9.76,9.76,0,0,0,.78-1.59,8.72,8.72,0,0,0,.52-1.4,15.69,15.69,0,0,0,.24-3.56c0-1.4-2.48-1-2.85,0a5.79,5.79,0,0,1-3.44,3.36l2.1.7c0-.31.34-.61.53-.87.33-.46.58-1,.87-1.45s.57-1,.82-1.44a13,13,0,0,0,.57-1.8c.56-1.56-2.26-1.4-2.76-.29a3.71,3.71,0,0,1-.71.92,13.45,13.45,0,0,1-.92,1.08,6,6,0,0,1-.93.74s-.33.13-.19.1-.38-.06-.38-.06l.87,1.17A15.72,15.72,0,0,1,9,78.26a11.82,11.82,0,0,0,.85-2.05,7.58,7.58,0,0,0,.28-2.41c0-.39,0-.77,0-1.15a8.25,8.25,0,0,1-.23-1.05c.07-1.46-2.87-1-2.93.24Z"/></g><g class="cls-1"><path class="cls-2" d="M20.66,25.78A7.06,7.06,0,0,0,22,23.93,19.51,19.51,0,0,1,23.4,22c.2-.26.48-.56.68-.87s.3-.66.48-1a10.67,10.67,0,0,1,.67-.84,7,7,0,0,0,.6-.9l-2.72-.16A15.28,15.28,0,0,1,22,19.9c-.36.57-.65,1.18-.95,1.78s-.43,1.21-.77,1.75l-.12.16,0,0a3.32,3.32,0,0,0-.32.42,1.33,1.33,0,0,0-.23,1c.14.67,1.24.53,1.67.44a6.06,6.06,0,0,0,2.34-1.26,12.53,12.53,0,0,0,1.89-1.75,15,15,0,0,1,1.76-1.72l.07-.06.24-.19a4.39,4.39,0,0,0,.57-.48,2.86,2.86,0,0,0,.73-1.2L26,19.18a2.92,2.92,0,0,1-.47,1.37c-.27.48-.49.95-.71,1.45A6.3,6.3,0,0,1,24,23.28l-.14.16-.25.31a3.38,3.38,0,0,0-.56.85.63.63,0,0,0,.49.94,2.37,2.37,0,0,0,1.79-.34l.15-.09c.45-.29.81-.93.22-1.27a2.14,2.14,0,0,0-2.06.23l-.15.1,2.28.6a5.92,5.92,0,0,1,1-1.32,6.48,6.48,0,0,0,.9-1.52C28,21,28.84,20,28.89,18.87c0-.66-.75-.81-1.29-.74A1.84,1.84,0,0,0,26,19.18c0-.07-.19.31-.06.14a2.12,2.12,0,0,1-.34.33c.2-.17-.2.16-.24.19-.2.15-.39.31-.58.47a15.17,15.17,0,0,0-1.51,1.49l-.66.73-.38.37-.19.17c.09-.07.07-.06-.05,0s-.51.39-.77.57c-.05,0-.49.31-.19.15l-.21.1c.2-.07.21-.08.05,0l1.67.44c0,.07,0,.05,0-.06,0,.08,0,.06,0-.05s0,0,.11-.14a4.13,4.13,0,0,0,.55-.85c.26-.54.44-1.1.72-1.63a17.49,17.49,0,0,1,.89-1.65,11,11,0,0,0,1-1.55c.27-.6-.24-1-.82-1a2.14,2.14,0,0,0-1.9.83,7.13,7.13,0,0,1-.54.81l0,0-.2.24a5.75,5.75,0,0,0-.44.54c-.18.28-.28.61-.44.91a6.47,6.47,0,0,1-.7.93c-.47.61-1,1.2-1.39,1.85-.19.3-.34.61-.52.92a2.24,2.24,0,0,1-.55.69.65.65,0,0,0,.32,1.17,2.34,2.34,0,0,0,2-.55Z"/></g><g id="zhL5gO.tif"><path d="M32.4,10.2l-1.07,4-.13,0c.25-.64,0-1.36.38-2a1.08,1.08,0,0,0,.21-.75c-.07-.49.34-.94.08-1.44a.29.29,0,0,1,0-.22c.41-.48,0-.85-.16-1.27s-.63-1-.54-1.65a.25.25,0,0,0,0-.13c-.48-.22-.53-.86-1-1.09-.26-.12-.29-.41-.52-.57-.82-.57-1.56-1.26-2.4-1.8-.39-.25-.59-.68-1-.89-.17-.09-.35-.18-.43,0s-.34.17-.48.06a5.29,5.29,0,0,0-1.54-.52c-.21-.07-.27.07-.35.19s0,.23.16.3a.63.63,0,0,1,.35.38s-.07.1-.12.11c-.22,0-.35-.13-.51-.24a.49.49,0,0,1-.13-.33.65.65,0,0,0-.53-.59,13.23,13.23,0,0,1-1.58-.5.92.92,0,0,0-.61.08C20,1.5,19.44,1.67,19,2a2.57,2.57,0,0,0-1.07,1c-.67,0-.58.75-.92,1.09-.11.1-.26.09-.35.18a1.69,1.69,0,0,0-.55.78,6.61,6.61,0,0,1-.92,1.84c-.32.53-.27,1.14-.56,1.59s-.54,1.2-.93,1.69a4.67,4.67,0,0,0-.83,2.12,7.56,7.56,0,0,1-.44,1.45c-.15.36-.11.79-.48,1.1-.18.15,0,.54-.06.82-.23.71-.2,1.47-.38,2.16a5,5,0,0,0-.19,1.85,2.65,2.65,0,0,0,.13,1.11.49.49,0,0,1,0,.39.41.41,0,0,0,.11.49.91.91,0,0,1,.21.88,2,2,0,0,0,.22,1.25,6.16,6.16,0,0,1,.4,1.26,2.45,2.45,0,0,0,1.76,1.6c.33,0,.65.07,1,.07a3.42,3.42,0,0,0,2.21-1c.34-.27.63-.58.95-.85a.3.3,0,0,1,.28-.08.27.27,0,0,0,.33-.23c.07-.47.48-.68.78-.93a4.81,4.81,0,0,0,.64-.48,1.64,1.64,0,0,1-.56,1c-.41.38-.57.94-1,1.29-.17.14-.08.33.13.35a4.36,4.36,0,0,1,1.19.38,8.85,8.85,0,0,0,1.77.23c.2,0,.31-.11.41-.28s.36-.45.72-.27a1,1,0,0,0,1.21-.4,1.3,1.3,0,0,1,1.05-.66.35.35,0,0,0,.23-.12,4.73,4.73,0,0,1,1.28-1.17c0,.38-.09.45-.49.62-.07,0-.15,0-.15.14,0,.58-.52.73-.85,1.05-.59.58-1.41.84-1.94,1.47s-.47.86,0,1.37.19.93.34,1.38c.06.18-.22.32-.38.29a.41.41,0,0,1-.37-.38c0-.75-.65-1.26-.77-2a.14.14,0,0,0-.17-.12c-.75.22-1.47-.17-2.22-.13a3.22,3.22,0,0,1-1.38,0,.26.26,0,0,0-.29.05,1,1,0,0,1-.92.21,6.87,6.87,0,0,1-1.43-.08c-.29-.09-.57.22-.9.27A2.4,2.4,0,0,1,12.47,27a3.63,3.63,0,0,1-.83-1.29,8.56,8.56,0,0,1-.46-1.7,3.63,3.63,0,0,0-.44-1.41.59.59,0,0,1,0-.65c.16-.25-.05-.5-.1-.71a17,17,0,0,1-.12-1.74,17.2,17.2,0,0,1,.19-2.77c0-.35.28-.67.19-1.1,0-.19.32-.33.38-.62a13,13,0,0,1,.47-1.81,11.34,11.34,0,0,0,.79-2.15c.12-.82.6-1.51.79-2.3a5.89,5.89,0,0,1,.74-1.24,16.46,16.46,0,0,0,1-2.11A4.77,4.77,0,0,1,16.27,3.6c.33-.3.54-.73.84-1s.6-.78,1-1c.6-.32,1-.88,1.74-1.06a3,3,0,0,1,2.46.09c.15.1.36.11.38-.12.05-.49.29-.25.48-.15a10.44,10.44,0,0,0,1.12.54,12.64,12.64,0,0,0,1.41.36,2.68,2.68,0,0,1,1.72.91.62.62,0,0,0,.56.3.43.43,0,0,1,.37.12c.55.64,1.36,1,1.9,1.61.21.25.55.37.72.65.46.78,1.27,1.31,1.48,2.26a3.39,3.39,0,0,0,.46,1,11.24,11.24,0,0,1,.38,1.11c.4.74.26,1.56.56,2.31a3.7,3.7,0,0,1,.17,2.35.29.29,0,0,0,0,.22c.38.57.17,1.18.14,1.8a9.6,9.6,0,0,0-.07,1.51A13.12,13.12,0,0,1,34,18.93c0,.41,0,.82,0,1.22A7.43,7.43,0,0,1,34,22.81a.29.29,0,0,0,0,.18c.32.61,0,1.21-.09,1.78s-.3,1.3-.39,1.95c-.15,1.07-.48,2.09-.69,3.14a.82.82,0,0,0,0,.27A8.86,8.86,0,0,1,32.32,33a4.64,4.64,0,0,0-.16.74,23.65,23.65,0,0,1-.73,3.21c-.2,1-.57,2-.81,3-.19.74-.56,1.44-.74,2.19-.1.46-.23.92-.3,1.39A9.5,9.5,0,0,1,29,45.23c-.46,1.22-.69,2.52-1.2,3.71a23.44,23.44,0,0,0-.68,2.78c-.31,1.06-.7,2.1-.93,3.17-.19.85-.61,1.59-.83,2.4-.26,1-.49,1.94-.76,2.91a9.21,9.21,0,0,1-1.2,2.41c-.37.59-.63,1.25-1,1.85-.6,1-.87,2.18-1.44,3.23A17,17,0,0,1,19.74,70,2.68,2.68,0,0,1,18.4,71.2c-.34.09-.5.45-.78.64a2.19,2.19,0,0,1-1.16.42,14.32,14.32,0,0,1-2.27.06,1.94,1.94,0,0,0-1,.14,2,2,0,0,1-1.14.07,13.56,13.56,0,0,0-1.67-.29c-.41,0-.74.3-.57.66s0,1,0,1.48a2.7,2.7,0,0,0,.22,1.12c.13.22-.11.42-.06.69a9.17,9.17,0,0,0,1.42-.49c.51-.33,1-.07,1.28.59a3.33,3.33,0,0,1,0,2.07,3.79,3.79,0,0,1-1.22,2.09,3.26,3.26,0,0,0-.46.7c-.25.36-.4.4-.76.18a.2.2,0,0,0-.29.13c-.1.28-.32.29-.56.35a6.44,6.44,0,0,0-1,.37.31.31,0,0,0-.16.39c.13.24.28.49.61.52a1.63,1.63,0,0,0,.82-.19c.34-.15.74-.17.95-.6.11-.22.5-.18.75-.31a1.9,1.9,0,0,0,1-.9c.23-.58.63-1.14.36-1.84-.1-.25.08-.5.17-.72s.25,0,.29.13a2.76,2.76,0,0,1-.4,2.69A14.06,14.06,0,0,1,11.26,83c-.24.2-.57.22-.77.51a.6.6,0,0,0-.08.59c.11.54.69.66.86,1.16.14-.16.28-.31.51-.28a.22.22,0,0,0,.19-.09c.14-.34.5-.59.57-.88.14-.62.61-1,.87-1.54.06-.11.14-.22.11-.33-.12-.47.2-.86.21-1.31a.36.36,0,0,1,.39-.31c.2,0,.11.21.12.32a5.25,5.25,0,0,1-.78,2.88,7.88,7.88,0,0,0-.74,1.41c-.12.39,0,.61.38.6.75,0,1.54,0,2-.85a2,2,0,0,1,.43-.44c.18-.16.34-.31.2-.57a.22.22,0,0,1,0-.26c.45-.53.18-1-.07-1.52-.15-.3-.44-.56-.23-.94.05-.1,0-.17-.11-.2s-.35,0-.28-.22a.46.46,0,0,1,.41-.37.34.34,0,0,1,.4.27,1.46,1.46,0,0,0,.28.66,1.91,1.91,0,0,1,.32,1.7,18.24,18.24,0,0,1-.79,2.44c-.29.73-.89.85-1.46,1.12a8,8,0,0,1-1.38.38c-.35.08-.55,0-.56-.41s-.28-.56-.64-.58l-.71-.06c-.73,0-1-.54-1.27-1.1-.06-.13-.08-.26-.13-.39-.27-.64-.4-.71-1.05-.58-.47.09-.54-.37-.74-.61-.07-.09-.4-.39.08-.46,0,0,.06-.14,0-.14-.61,0-.28-.59-.46-.86-.06-.09-.06-.16-.18-.25-.45-.29-1-.59-.94-1.25a.35.35,0,0,0,0-.17,2.57,2.57,0,0,1,.53-2.61.79.79,0,0,0,.2-.48c0-.64.29-1.23.26-1.87a.06.06,0,0,1,0,0c.5-.93.22-2,.35-2.92,0-.2-.69-.66-.9-.58s-.51,0-.72-.25a2.05,2.05,0,0,0-1.61-.71,8.18,8.18,0,0,1-1,0,.87.87,0,0,1-.66-.44c-.19-.28-.36-.65-.75-.77a.3.3,0,0,1-.19-.49c.11-.18,0-.29-.06-.46a5.28,5.28,0,0,1-.42-1.33,2.89,2.89,0,0,1-.14-1.72,0,0,0,0,0,0,0C.59,64.61,1,63.72.67,63c0,0,0-.11,0-.17A16.79,16.79,0,0,1,1,60.91a1.67,1.67,0,0,0,.06-.63,1.56,1.56,0,0,1,.29-1.17,3.84,3.84,0,0,0,.38-1.42A11.43,11.43,0,0,1,2.9,54.33c.4-.68.57-1.47,1-2.15s.74-1.35,1.08-2a3.73,3.73,0,0,1,.77-1.38,3.15,3.15,0,0,0,.9-1c.24-.5.71-.85.87-1.42a1.24,1.24,0,0,1,.75-.68,3.4,3.4,0,0,0,1.13-.7.6.6,0,0,1,.5-.18,2.51,2.51,0,0,0,1.6-.38,1.22,1.22,0,0,1,.92-.05c1.08.33,2.19.56,3.28.84.52.13,1,.49,1.59.4a.31.31,0,0,1,.34.41c-.05.2.2.3.13.49a.26.26,0,0,0,.14.08,1,1,0,0,1,1,.88c0,.09,0,.22.06.25.59.4.46,1,.54,1.59a12.06,12.06,0,0,0,.16,1.59,3.49,3.49,0,0,1,0,1.51A2.58,2.58,0,0,1,19,50.61a5.22,5.22,0,0,0-.14-1.86,2.31,2.31,0,0,0-1.27-1.43c-.58-.26-1.15-.55-1.72-.81-.37-.18-.77-.29-1.16-.44a5.2,5.2,0,0,0-1.6-.53c-.1,0-.21-.07-.29,0a.21.21,0,0,0,0,.29c.51.54.37,1.32.69,1.94a1.07,1.07,0,0,1,.07.92c-.11.19.17.22.18.4a4.29,4.29,0,0,1-.09,1.82.42.42,0,0,0,0,.38c.06.14.12.28-.08.43-.13-.57-.15-1.14-.28-1.69s.11-1-.26-1.38c0,0-.07-.1-.06-.11.41-.53-.31-.7-.34-1.09,0-.13-.1-.25-.11-.38a2.15,2.15,0,0,0-1.43-1.7c-.11-.07-.26-.08-.34-.21s-.15-.13-.17-.06c-.15.42-.61.39-.91.58-.54.35-1,.8-1.54,1.14a4,4,0,0,0-1,1.29,5,5,0,0,1-.84,1,.41.41,0,0,0-.17.2,14.7,14.7,0,0,1-1,1.9c-.27.57-.79,1-.85,1.65a3.66,3.66,0,0,1-.49,1.16,14,14,0,0,0-1.13,2.66,16.2,16.2,0,0,1-.54,2.1,6.48,6.48,0,0,0-.49,2.59c0,.59-.15,1.15-.08,1.71s.05,1.35.09,2c.07,1.07.51,2,.68,3.09a1.52,1.52,0,0,0,1.68,1c.58-.16,1.16-.33,1.72-.45A2.55,2.55,0,0,0,7.15,68a.82.82,0,0,1-.39.9,3,3,0,0,1-.86.45c-.24.08-.24.26-.3.4s.13.18.23.26a7.61,7.61,0,0,0,3,1.28c.34.12.76-.05,1,.3.37-.27.77,0,1.14-.07a8.17,8.17,0,0,1,2-.14,5.16,5.16,0,0,1,1.18,0c.13,0,.28,0,.3-.17s.13-.15.26-.09c.33.17.56,0,.83-.19a2.89,2.89,0,0,0,1.14-2.14.28.28,0,0,1,0-.13c.75-.94.55-2.08.66-3.16a1.93,1.93,0,0,1,.19-.82.3.3,0,0,0,0-.29,2.18,2.18,0,0,1-.12-1.26c0-.2-.06-.31-.11-.46s0-.19.09-.22a.15.15,0,0,1,.18.15,5.54,5.54,0,0,1,0,.71,10.29,10.29,0,0,0,.13,1.47c0,.13,0,.31.18.34s.28-.14.32-.27a12.47,12.47,0,0,0,.43-1.35,1.9,1.9,0,0,0,.16-1c0-.08,0-.26.21-.23s.1.14.08.22a33,33,0,0,1-.73,3.48A31.07,31.07,0,0,1,17.36,69c-.15.36-.25.76-.39,1.13s0,.49.17.58.53.23.76,0a5.64,5.64,0,0,1,.89-.87c.38-.26.35-.7.41-1.05a10,10,0,0,1,1.07-2.38c.38-.79.94-1.46,1.25-2.28a1.14,1.14,0,0,1,.28-.35c.36-.36.38-.93.73-1.29.52-.52.49-1.38,1.15-1.81.06,0,0-.1,0-.16A12.05,12.05,0,0,1,24.31,58a3.78,3.78,0,0,1,.33-1.24,5.28,5.28,0,0,0,.51-1.33c.09-.33-.1-.71.14-1a10.79,10.79,0,0,0,.82-2.06,5.31,5.31,0,0,0,.17-.77c.18-.54,0-1.15.36-1.66a3,3,0,0,0,.25-1.07c.16-.76.65-1.37.85-2.09a7.7,7.7,0,0,0,.38-1.29,8.56,8.56,0,0,1,.44-1.53,18.53,18.53,0,0,0,.56-2.1c0-.07,0-.16,0-.21a7.5,7.5,0,0,0,.73-2.4,1.07,1.07,0,0,1,.12-.33,1.66,1.66,0,0,0,.35-1.13,1.67,1.67,0,0,1,.28-.88c.2-.44.21-.92.42-1.36a8.55,8.55,0,0,0,.29-1.39c.16-.64.17-1.33.32-2a22.78,22.78,0,0,1,.71-3.68,9.07,9.07,0,0,0,.47-2.86,3,3,0,0,1,.35-1.32.33.33,0,0,0,.05-.35c-.32-.47-.1-.93,0-1.4a.25.25,0,0,0,0-.17,7.15,7.15,0,0,1-.12-1.85c0-.33.27-.6.21-1a7.2,7.2,0,0,1,0-2.27,9,9,0,0,0-.09-2.43c0-.45-.26-1,.11-1.45.09-.11,0-.22-.14-.28a.3.3,0,0,1-.2-.32c.13-.53-.18-1-.18-1.51A2.29,2.29,0,0,0,32.4,10.2ZM9.9,79.44a1.89,1.89,0,0,0,0-1.08c-.07-.31.09-.43.38-.34a1,1,0,0,1,.59.92,1.24,1.24,0,0,1-.72.9A4.06,4.06,0,0,1,8.41,80c-.41-.12-.78-.46-.6-.86a3.46,3.46,0,0,1,.39-.7c.22-.29.58-.52.69-.84a5,5,0,0,0,.42-2.39c0-.25-.26-.48-.06-.75s-.08-.66.26-.88c0,0,0-.15-.07-.2a1.62,1.62,0,0,1-.37-.94c-.06-.51-.46-.37-.72-.35s-.1.26-.08.42a1.09,1.09,0,0,1,0,.25A8.63,8.63,0,0,0,8,74.86a3.26,3.26,0,0,1-.07,1.33,13.62,13.62,0,0,1-.84,1.92,1.74,1.74,0,0,0,1,2.72,2.45,2.45,0,0,0,1.85-.17A4.14,4.14,0,0,0,11.7,79c.22-.42.29-.89.49-1.33a.88.88,0,0,0-.17-1c-.26-.23-.57-.06-.84,0s-.79.35-1.19.48a.64.64,0,0,0-.47.44,2.46,2.46,0,0,1-.7,1.22.16.16,0,0,0,0,.21A.16.16,0,0,0,9,79.2C9.35,79,9.57,79.38,9.9,79.44Z"/><path d="M4.35,64.75c.38-.15.48-.65,1-.66a.26.26,0,0,0,0-.49C5,63.42,5,63,4.66,62.84a.3.3,0,0,1,0-.47c.15-.13.32-.07.49,0s.27.38.44.55.48.26.65,0c.41-.66,1.15-1.06,1.4-1.87.1-.35.47-.59.64-1a8.36,8.36,0,0,0,1.13-2.68c.06-.68.54-1.23.67-1.92a11,11,0,0,0,.53-2.41,6.81,6.81,0,0,0-.28-1.4c-.08-.26-.23-.58-.28-.82-.1-.43-.42-.57-.65-.8a.36.36,0,0,0-.63.1c-.06.15-.16.09-.27.07a.38.38,0,0,0-.46.25c-.09.2-.42.36-.32.56a2.71,2.71,0,0,0,.82,1.24,1.69,1.69,0,0,1,.61.85c.1.19.12.41.33.56s.12.21,0,.27-.27.1-.35-.08a4.65,4.65,0,0,0-1.34-1.86.39.39,0,0,1-.09-.62.6.6,0,0,0-.74.37A18.33,18.33,0,0,1,5.65,54c-.08.12-.05.27-.08.39-.12.54,0,1.09-.11,1.62,0,.08,0,.21-.08.22s-.17-.1-.17-.21a5.77,5.77,0,0,1,.48-2.91,4.61,4.61,0,0,0,.71-1.46.4.4,0,0,1,.14-.27C7,50.94,7.29,50.3,7.81,50s.62-.7,1-.94a1.23,1.23,0,0,1,1.34,0,2.84,2.84,0,0,1,.77.81c.21.32.23.75.49,1.06a.24.24,0,0,1,0,.17c-.05.38-.19.76.12,1.1-.25.77.08,1.64-.46,2.35a.57.57,0,0,0-.11.38,6.57,6.57,0,0,1-.58,2.22c-.23.68-.53,1.34-.78,2a11.06,11.06,0,0,1-1.57,2.78c-.41.56-.86,1.09-1.28,1.64A5.07,5.07,0,0,1,4.9,65C4.69,65.05,4.57,64.75,4.35,64.75Z"/><path d="M22.91,8.83A5.92,5.92,0,0,0,22.8,11a.46.46,0,0,1-.12.38.6.6,0,0,0-.21.47,11.23,11.23,0,0,1-.85,2.67c-.39,1.3-1.18,2.42-1.67,3.68a2.16,2.16,0,0,1-.85,1.31.37.37,0,0,0-.12.19,8,8,0,0,1-1.37,2.25.79.79,0,0,1-1,.22c-.18-.12-.11-.64.1-.83A7.45,7.45,0,0,0,18.37,19a6.42,6.42,0,0,1,.5-.84A13.44,13.44,0,0,0,20,16,6,6,0,0,1,20.5,15a6.21,6.21,0,0,0,.87-2.15,2.11,2.11,0,0,1,.17-.5,1.46,1.46,0,0,0,.21-1.13,3.25,3.25,0,0,1,.15-1.17c.05-.33.09-.65.14-1a.34.34,0,0,0-.12-.36.26.26,0,0,1-.1-.35.41.41,0,0,0,0-.08c0-.29-.57-.31-.35-.62s-.09-.4-.15-.59c-.13-.42-.53-.58-.7-.92a1.23,1.23,0,0,1,.2-1.42.27.27,0,0,1,.4,0c.26.26.63.46.65.91a.24.24,0,0,0,.07.16C22.76,6.71,22.56,7.86,22.91,8.83Z"/><path d="M23.19,33.35a8.18,8.18,0,0,0,0-2.42c0-.15-.14-.29-.14-.46s0-.44.29-.5.34.19.37.36a8.64,8.64,0,0,1,.3,2.82,7.31,7.31,0,0,1-.41,1.72,1.34,1.34,0,0,0,0,.53,2.93,2.93,0,0,1-.21,1.09c-.17.46-.24.95-.38,1.42a28.35,28.35,0,0,1-1,3.63c-.19.42-.16.91-.35,1.34a9.16,9.16,0,0,1-1.43,2.82c-.2.2-.3.48-.53.66s-.2.18-.35.11a.35.35,0,0,1-.2-.33c0-.2,0-.42.15-.58a4.08,4.08,0,0,0,.91-1.34c.25-.59.52-1.19.76-1.79.33-.82.59-1.67.92-2.5A5.94,5.94,0,0,0,22,38.8c.18-1,.71-2,.85-3.06A5.75,5.75,0,0,0,23.19,33.35Z"/><path d="M44.15,20.57c-1.1.39-2.38-.08-3.55.36a.89.89,0,0,0-.55.35.48.48,0,0,1-.57.22c-.27-.11-.61-.26-.63-.57a5.51,5.51,0,0,0-.5-1.75c-.19-.48.07-.82.25-1.16a2.27,2.27,0,0,1,.77-.66,1.73,1.73,0,0,1,1.48.26,7.44,7.44,0,0,1,1.22,1.29c.16.18.36.3.51.49.55.67.65.66,1.5.42a6,6,0,0,1,1.53-.25.74.74,0,0,1,.53.29c.13.14.07.38-.11.39C45.41,20.28,44.84,20.52,44.15,20.57Zm-5-1.1c-.06.17,0,.25.15.39a1.36,1.36,0,0,0,1.34.24,5.67,5.67,0,0,1,.69-.15c.46-.05.5-.11.33-.54a3.62,3.62,0,0,0-.8-1,.84.84,0,0,0-.86-.32l-.48.06a.58.58,0,0,0-.48.86A1,1,0,0,1,39.17,19.47Z"/><path d="M31.38,54.44a1,1,0,0,1,.8.25,11.46,11.46,0,0,1,1.31,1c.67.72,1.55,1.15,2.18,1.91a10.24,10.24,0,0,1,1.1,1.26,8.33,8.33,0,0,1,.56,1,1.11,1.11,0,0,1-.71,1.62c-.15,0-.32.09-.4-.08s0-.26.12-.39.49-.25.49-.58a2.55,2.55,0,0,0-.39-1.22c-.32-.57-1-.81-1.34-1.34-.08-.12-.24-.19-.28-.37a.29.29,0,0,0-.29-.24c-.6,0-.92-.42-1.32-.71s-.82-.34-1,.06c-.05.12-.09.21,0,.33a.59.59,0,0,1,0,.82,1.1,1.1,0,0,1-.9.41c-.53,0-.77-.32-.87-1a4.84,4.84,0,0,0-.25-.89C29.86,55.1,30.2,54.52,31.38,54.44Zm.55,2c0-.22-.07-.44-.13-.65-.08-.37-.5-.68-.79-.54s-.31.47-.26.78a10.72,10.72,0,0,0,.5,1.29c0,.13.2.15.34.15s.24-.05.21-.11C31.63,57,32,56.77,31.93,56.46Z"/><path d="M40.7,46.47c-.29.07-.55,0-.78.17s-.32-.11-.45-.2a2,2,0,0,0-.57-.27,1.85,1.85,0,0,1-.91-.6,1,1,0,0,0-.68-.45c-.36,0-.7-.28-1.09-.14a.28.28,0,0,1-.23-.1,2,2,0,0,0-1.42-.43A1.84,1.84,0,0,1,33.51,44a.87.87,0,0,1-.37-1,.46.46,0,0,0-.09-.46.86.86,0,0,1,.17-1.2A1.87,1.87,0,0,1,35,40.74c.32.06.86-.15,1.05.38,0,0,.1.06.15.06a1.43,1.43,0,0,1,1.1,2c-.16.29-.28.6-.62.73-.14.06-.23.15-.19.31s.15.19.29.22A22.8,22.8,0,0,1,40.7,46.47Zm-6.09-5.15c-.32.11-.77,0-.88.42A1.26,1.26,0,0,0,33.89,43a5.43,5.43,0,0,0,1.84,1,.34.34,0,0,0,.48-.28,2.34,2.34,0,0,1,.37-.89.93.93,0,0,0-.34-1.11C35.73,41.34,35.12,41.57,34.61,41.32Z"/><path d="M36.83,0c.38.08.69.16.7.61a.57.57,0,0,0,.08.26,2.59,2.59,0,0,1,0,2.57c-.27.78-1.13,1-2.08.89a3.64,3.64,0,0,1-1.93-.89c-.48-.36-1-.78-.81-1.6a.68.68,0,0,1,.57-.57,2.25,2.25,0,0,1,2.47,1.11c.12.22.44.3.51.59,0,.08.13,0,.19,0A1.28,1.28,0,0,0,37,1.37c-.11-.27-.34-.55-.09-.88C37.06.34,36.84.2,36.83,0ZM34.39,2l-.23,0c-.15,0-.39-.08-.44.18s.15.34.32.43c.4.24.82.46,1.23.7.06,0,.12.1.19,0s0-.13,0-.2a4.08,4.08,0,0,0-.63-1A.47.47,0,0,0,34.39,2Z"/><path d="M40.32,36.48A1.62,1.62,0,0,1,39.06,38a.71.71,0,0,1-.41-.15c-.16-.1-.3-.33-.54,0s-.32-.07-.46-.15c-.31-.19-.55-.26-.81.08-.15.19-.42.15-.63.15s-.14-.15-.12-.27a.73.73,0,0,0-.44-.84c-.79-.46-1.52-1-2.27-1.54-.16-.11-.28-.3-.15-.46a.52.52,0,0,1,.59-.22,1.86,1.86,0,0,1,.58.33,6.26,6.26,0,0,0,1.59.9.34.34,0,0,0,.5-.29,2.57,2.57,0,0,1,.34-1c0-.07,0-.2.16-.17s.12.13.12.22c0,.47,0,.94,0,1.41,0,.28.21.61.49.6a.55.55,0,0,1,.49.25.81.81,0,0,0,.93.25,1.12,1.12,0,0,0,.84-.73c.08-.26-.14-.48-.14-.76s.17-.4.28-.4a.33.33,0,0,1,.3.37A6,6,0,0,0,40.32,36.48Z"/><path d="M36.62,7.61a1.19,1.19,0,0,0,.79-.36c.18-.18.14-.39-.1-.46-.64-.2-.38-.73-.43-1.13s.26-.53.54-.63.56-.44.95-.23a.13.13,0,0,0,.17-.1c0-.55.64-.5.84-.86.06-.11.15,0,.19,0s.42.15.28.44a.75.75,0,0,1-.32.36c-.32.12-.41.39-.53.68s0,.48.35.46a1,1,0,0,1,.88.31c.21.24.23.62,0,.72-.7.24-1.21.8-1.88,1.07s-1.14.15-1.69.38c-.24.09-.71,0-.7-.34S36.31,7.58,36.62,7.61Z"/><path d="M21.61,75.32a3.65,3.65,0,0,1-.45,1.18c-.29.47-.24.7.19,1a9,9,0,0,1,1.83,1.81c.11.13.24.22.35.34a.48.48,0,0,1,.11.46.14.14,0,0,1-.21.09c-.16-.08-.41-.07-.41-.3,0-.54-.35-.73-.75-1a9.21,9.21,0,0,1-1.38-1.13c-.18-.16-.25-.15-.35,0s-.21.49-.52.31a.46.46,0,0,1-.17-.68c.18-.41,0-.65-.62-.91-.33-.14-.64-.3-1-.45s-.29-.25-.15-.5.25-.78.52-1c.47-.32.59-.94,1.16-1.15a1,1,0,0,1,1.38.41A2.08,2.08,0,0,1,21.61,75.32Zm-2.35-.1a1.43,1.43,0,0,0,1,1.32c.24.09.3,0,.38-.18A9.05,9.05,0,0,0,21,74.83c.06-.32-.54-.8-.84-.71A2,2,0,0,0,19.26,75.22Z"/><path d="M38.85,30.29c.35.4.76,0,1.17,0a6.29,6.29,0,0,1,1.14.18c.17,0,.37.1.33.3a.39.39,0,0,1-.45.3,3.54,3.54,0,0,0-1.65.09c-.2,0-.37-.24-.61,0s-.31.45,0,.67.48.3.72.45.14.5,0,.76-.28.11-.45.14a5.46,5.46,0,0,1-1.34-.07c-.25,0-.47-.15-.77.05s-.61,0-.83-.29-.28-.27-.45,0a.3.3,0,0,1-.39.11l-1-.3c-.15-.05-.3-.15-.47-.05s-.23,0-.29-.11a.25.25,0,0,1,0-.33c.19-.14.42-.36.64-.23.44.23.9.08,1.33.18s.64,0,.86.29c.06.09.16.06.24,0a.38.38,0,0,1,.33-.11c.21.06.55.18.59,0s.36-.62,0-1,0-.44.13-.54A1.65,1.65,0,0,1,38.85,30.29Z"/><path d="M37.57,27.77c.12-.26,0-.39-.22-.42s-.18-.12-.18-.26,0-.42,0-.63,0-.53.4-.47a.13.13,0,0,0,.09,0c.36-.51.79-.23,1.12,0a1.51,1.51,0,0,1,.6,1.29c0,.54.37.66.68.87.1.08.19,0,.27,0,.34-.32.84-.52.75-1.12a.18.18,0,0,1,.2-.2c.11,0,.24,0,.33.08a1,1,0,0,1-.34,1.47,1.52,1.52,0,0,0-.67.51c-.42.42-1,.35-1.45.39-.79.07-1.1-.59-1.51-1.06C37.54,28.06,37.58,27.89,37.57,27.77Zm.52-.81.06.35c0,.19.17.32.33.27s.1-.23,0-.37a2.46,2.46,0,0,1-.09-.29c0-.1,0-.27-.18-.23A.21.21,0,0,0,38.09,27Z"/><path d="M41.46,12.74c.2.07.29.1.38-.1s.32-.11.49,0a.25.25,0,0,1,.14.26.33.33,0,0,1-.3.3,2.94,2.94,0,0,0-1,.42c-.33.17-.35.33-.1.61a6.1,6.1,0,0,0,.83.61c.12.11.33.2.27.42a.54.54,0,0,1-.44.45c-.3.05-.6.22-.9,0a.2.2,0,0,0-.17,0c-.36.29-.8.2-1.2.26s-.6-.08-.73.32c0,.1-.25.13-.37.1a2.7,2.7,0,0,0-1.06.09c-.28,0-.57.06-.73.36,0,0-.07,0-.1.08a.69.69,0,0,1-.76.08c-.13-.05-.13-.2-.07-.31.13-.27.29-.53.64-.52a.55.55,0,0,0,.38-.1c.37-.32.88-.33,1.28-.59s.67,0,1,0,.55,0,.75-.24.18,0,.28,0a.54.54,0,0,0,.69-.41.47.47,0,0,0-.53-.51.41.41,0,0,1-.43-.32.49.49,0,0,1,.16-.61A5.66,5.66,0,0,1,41.46,12.74Z"/><path d="M39.7,8.39a4.17,4.17,0,0,1,2.5,1.13.31.31,0,0,1,.08.29c-.08.34-.15.67-.24,1,0,.11-.14.25-.23.26-.43.06-.71.63-1.24.35-.09-.05-.19.08-.28.1a2.63,2.63,0,0,1-1.52,0c-.23-.08-.46-.28-.72-.38s-.19-.24-.2-.4a4.78,4.78,0,0,1,.55-1.91.25.25,0,0,1,.13-.12A6.1,6.1,0,0,1,39.7,8.39Zm.41.69a2.74,2.74,0,0,0-1,.21,2.92,2.92,0,0,0-.4.88c.11.33.8.68,1.05.48s.37-.1.59,0a.73.73,0,0,0,.93-.24A.74.74,0,0,0,41,9.49,2,2,0,0,0,40.11,9.08Z"/><path d="M23.71,66.66c.13.1-.08.26.08.39.09-.2.16-.27.38-.06s.87.49,1.26.84c.18.17.43-.12.41-.31-.06-.55.08-1.08.06-1.65.4,0,.56.26.51.65,0,.06,0,.12,0,.18-.07.54.14.73.65.55.25-.08.46-.22.69,0A.2.2,0,0,0,28,67.2a.51.51,0,0,1,.37-.28c.12,0,.21-.08.12-.25s0-.38.2-.48a.2.2,0,0,1,.28.08c.1.2.21.42,0,.63a3.28,3.28,0,0,1-1,.94c-.31.15-.43.49-.69.69s0,.22,0,.33a2,2,0,0,1,.16.51c0,.18.31.39.07.5a.75.75,0,0,1-.72-.14c-.69-.55-1.34-1.16-2.07-1.65-.32-.22-.68-.41-1-.62A.55.55,0,0,1,23.71,66.66Z"/><path d="M31.33,47.82c.59.15.84.79,1.42,1,.23.06.51.17.59-.06s.51-.55.18-.92-.54-.91-1-1.23a.48.48,0,0,1-.17-.63c.13-.24.42-.18.64-.06a1.11,1.11,0,0,1,.34.22c.43.5.95.25,1.44.15,0,0,.07-.05.09-.09s.26-.43.31-.31.37.51.17.76a1.69,1.69,0,0,1-.88.7c-.34.07-.37.26-.26.51a1.87,1.87,0,0,1,0,1.52c-.2.47-.43.6-.92.46s-1.08-.13-1.37-.7c0-.1-.19-.07-.28-.1-.55-.18-.65-.41-.39-.94Z"/><path d="M30,60.5c-.09.26.17.3.24.46.14.34.3.68.44,1,.06.15.11.33-.09.44s-.29.22-.59.1a16.57,16.57,0,0,1-2.29-1.38.45.45,0,0,1-.11-.67c.16-.29.35,0,.47.07a5,5,0,0,0,1.07.85c.36.17.42,0,.47-.28a2.46,2.46,0,0,0-.17-1.31.75.75,0,0,1,.43-1.08c.19-.1.36-.19.46.09.05.13.17.12.27.11s.24,0,.23.08c0,.44.3.4.53.39.46,0,.77.37,1.22.37a.19.19,0,0,1,.16.23.34.34,0,0,1-.33.27,1.83,1.83,0,0,1-.61-.11c-.37-.14-.74-.31-1.1-.48s-.6-.12-.66.36C30.05,60.19,30,60.36,30,60.5Z"/><path d="M16.79,18.92c.21-.14.41-.32.54,0s.2.42-.09.49-.59.24-.65-.19a1,1,0,0,0-.5-.77c-.27-.2-.4,0-.51.21s0,.26-.28.15,0-.17,0-.26,0-.22,0-.3a.6.6,0,0,1,0-.74.22.22,0,0,0,0-.3.42.42,0,0,1,0-.5.67.67,0,0,0,.13-.44c0-.28.68-.47,1-.23A10.7,10.7,0,0,1,18,17.63c.05.06.11.18,0,.22s-.53.19-.66,0a4.51,4.51,0,0,0-1.2-1.11.29.29,0,0,0-.5.14c-.15.37,0,.61.37.78A1.78,1.78,0,0,1,16.79,18.92Z"/><path d="M15.62,11.05a20.45,20.45,0,0,1,.68-2.4,5,5,0,0,1,1-1.74,5.76,5.76,0,0,0,.44-.72A2.69,2.69,0,0,1,20,5.06a1.14,1.14,0,0,1-.85,1c-.54.17-.82.6-1.21.92a2.73,2.73,0,0,0-1,1.57c0,.16-.07.36-.3.4s-.14.2-.13.3a1.22,1.22,0,0,1-.31.86.66.66,0,0,0-.2.53C16,10.9,15.79,10.94,15.62,11.05Z"/><path d="M23.13,69.78a6.91,6.91,0,0,0,1.14,2.89.42.42,0,0,0,.47.18.89.89,0,0,0,.82-.87c0-.26.24-.26.39-.3s.14.13.06.2c-.36.32-.53.65-.2,1.08.08.1,0,.16-.1.22a1,1,0,0,1-.59.17,1.75,1.75,0,0,1-1.56-.49.86.86,0,0,1-.23-.51c0-.33-.3-.6-.34-1a2.16,2.16,0,0,1-.06-.51c0-.17.23-.42-.11-.56C22.76,70.29,22.94,70,23.13,69.78Z"/><path d="M24.75,10.35a.92.92,0,0,1,0-1.06A5.68,5.68,0,0,0,25,7.71c0-.22,0-.45.15-.63s0-.23,0-.34a2.19,2.19,0,0,1-.2-1.55.94.94,0,0,0-.08-.48c0-.15-.06-.28.13-.31a.24.24,0,0,1,.32.18,3.56,3.56,0,0,1,.13.94,6.5,6.5,0,0,0,.05,1.24A11.72,11.72,0,0,1,24.75,10.35Z"/><path d="M18.42,13.06c0-.19,0-.34-.22-.28-.1,0-.21,0-.25-.07-.31-.69-1-1.13-1.3-1.82,0-.11-.11-.21,0-.33s.06-.32.25-.35.2.16.25.27c.2.5.77.75.85,1.32,0,.11.12,0,.19,0a.24.24,0,0,1,.29.22c0,.61.59.92.84,1.41,0,.1.19.19.1.3s-.18,0-.27-.06l-.48-.23C18.46,13.39,18.31,13.29,18.42,13.06Z"/><path d="M18.7,15.25c-.31-.11-.64-.18-.49-.62.05-.16-.12-.25-.22-.31a2.89,2.89,0,0,1-1.41-1.49.3.3,0,0,0-.13-.12c-.11-.08-.32-.06-.33-.25a3.44,3.44,0,0,1,0-.72c0-.18.2-.12.27,0a3.56,3.56,0,0,1,.62.8,8.65,8.65,0,0,0,1.22,1.56c.12.15.26.3.2.48S18.5,15.05,18.7,15.25Z"/><path d="M27.4,63.59c.08,0,.23,0,.3.1.42.4,1.06.31,1.47.69.18.16.61,0,.58.35s-.44.28-.64.32A1.16,1.16,0,0,1,28,64.7a1.07,1.07,0,0,0-.7-.39c-.28,0-.3-.36-.31-.55S27.22,63.66,27.4,63.59Z"/><path d="M24,74.88c-.07.24-.28.3-.49.13-.39-.3-.92-.4-1.13-1-.09-.25-.46-.42-.73-.59-.09-.06-.28-.06-.27-.17,0-.32-.2-.56-.23-.85,0-.11.11-.11.2-.07a2,2,0,0,1,.59.43c.56.56.93,1.32,1.72,1.63A.43.43,0,0,1,24,74.88Z"/><path d="M20.43,10.75c-.32,0-.55-.07-.64-.26-.23-.55-.69-.93-.95-1.46A3.56,3.56,0,0,0,18,8.1a.89.89,0,0,1-.25-.3.22.22,0,0,1,.05-.28.17.17,0,0,1,.27,0,3.57,3.57,0,0,1,.85.84c.37.57.77,1.14,1.18,1.69A5.16,5.16,0,0,1,20.43,10.75Z"/><path d="M6.65,53.91a.8.8,0,0,1,.58.66c0,.31.33.38.5.53a5.9,5.9,0,0,1,1,1.57c.06.11.21.29,0,.39s-.28-.12-.36-.24a14.36,14.36,0,0,0-1.27-1.64A1.06,1.06,0,0,0,7,55C6.45,54.63,6.44,54.57,6.65,53.91Z"/><path d="M18.63,16.83c-.66.06-.69-.68-1.15-.9-.75-.36-1-1.14-1.35-1.78-.07-.12-.07-.21.06-.24s.42-.08.55.15a3.57,3.57,0,0,0,.51.83c.48.52.78,1.18,1.27,1.69A.68.68,0,0,1,18.63,16.83Z"/><path d="M5.87,57.89A4.22,4.22,0,0,0,5.33,60c0,.3-.06.59.41.48.21,0,.32.12.41.29s.49.5.44.9c0,.11,0,.26-.17.28s-.1-.2-.15-.23C6,61.52,6.06,61.27,6,61a.38.38,0,0,0-.61-.21c-.34.27-.38,0-.46-.19a.77.77,0,0,1,0-.4,7.48,7.48,0,0,1,.5-2C5.46,58.08,5.56,58,5.87,57.89Z"/><path d="M8.25,58.13c0,.14-.05.21-.16.16a.7.7,0,0,1-.3-.19,11.49,11.49,0,0,1-1-1.3c-.13-.29-.44-.49-.5-.84,0-.07-.07-.15,0-.2s.13,0,.2.05a3.4,3.4,0,0,1,1.1,1.44c.12.26.4.39.49.67A.83.83,0,0,0,8.25,58.13Z"/><path d="M17.22,8.82s.07,0,.08,0c.12.5.79.57.88,1.12,0,.17.27.3.4.46s.13.15.07.24-.15,0-.24,0c-.43,0-.56-.43-.81-.66s-.73-.48-.55-1C17.08,8.94,17.09,8.83,17.22,8.82Z"/><path d="M18.91,10.75a2.64,2.64,0,0,0,.88,1.39.37.37,0,0,1,0,.41c-.07.12-.21,0-.31-.05-.59-.24-.58-.88-.86-1.33C18.6,11.07,18.78,11,18.91,10.75Z"/><path d="M6.08,59.15c.17.38.67.46.75.9,0,.16.16.19.27.26a.24.24,0,0,1,.08.32c-.07.16-.17.07-.29,0a.76.76,0,0,1-.52-.45A2.74,2.74,0,0,1,6.08,59.15Z"/><path d="M25,62.47c-.31.05-.36-.07-.37-.21s0-.32.17-.36l.74-.13c.09,0,.21-.07.27,0s0,.23-.1.32A1,1,0,0,1,25,62.47Z"/><path d="M20.13,8c-.72-.15-.9-.38-.77-.91.05-.18.2-.21.24-.09C19.72,7.4,20.12,7.61,20.13,8Z"/><path d="M9.76,51.51a1.1,1.1,0,0,0-.59-.23.28.28,0,0,1-.3-.35c0-.13,0-.31.12-.37s.18.15.26.24S9.74,51.1,9.76,51.51Z"/><path d="M21.51,71.28c-.21.09-.45.19-.69.27a.13.13,0,0,1-.17-.17c.09-.2.12-.5.45-.45C21.28,71,21.5,71,21.51,71.28Z"/><path d="M8,53.83c.52.3.54.85.9,1.13,0,0,0,.09,0,.11s-.16,0-.23,0A2.92,2.92,0,0,1,8,53.83Z"/><path d="M6.93,58.31c-.75-.15-.28-1-.8-1.19C6.61,57.34,6.75,57.78,6.93,58.31Z"/><path d="M3.73,65.46c0-.63,0-.63.77-.39C4.3,65.33,3.91,65.17,3.73,65.46Z"/><path d="M7.21,59c.22.1.48.17.48.47a.17.17,0,0,1-.18.16C7.27,59.46,7.34,59.16,7.21,59Z"/><path d="M31.25,14.55c-.06.27-.07.54-.35.69C30.84,14.83,30.88,14.75,31.25,14.55Z"/></g></g></g></svg>