<svg xmlns="http://www.w3.org/2000/svg" viewBox="0 0 94.71 67.41"><defs><style>.cls-1{opacity:0.7;}.cls-2{fill:#fffbf3;}.cls-3{opacity:0.9;}.cls-4{fill:#b12440;}.cls-5{opacity:0.8;}.cls-6{fill:#cec2a1;}</style></defs><g id="Layer_2" data-name="Layer 2"><g id="Layer_1-2" data-name="Layer 1"><g class="cls-1"><path class="cls-2" d="M4.36,9.78a7.86,7.86,0,0,0,.72,1.81c.28.67.46,1.37.8,2a24.13,24.13,0,0,0,2.52,4c.89,1.12,2,2.06,2.8,3.26s1.55,2.38,2.27,3.6a37.08,37.08,0,0,0,2.58,3.3A42.57,42.57,0,0,0,19,31.55a35.32,35.32,0,0,1,2.58,3.61,13.62,13.62,0,0,0,1.34,1.4c.47.46.76,1,1.25,1.48l4.55-.8a9.63,9.63,0,0,0-5.79-.39A3,3,0,0,0,21,38c-.44.79,0,1.75-.21,2.59l4.9-.39a11.15,11.15,0,0,1-2.83-3,32.51,32.51,0,0,0-2-3.47,13.75,13.75,0,0,1-1.15-1.26c-.35-.58-.46-1.27-.83-1.86a26.43,26.43,0,0,0-2.63-3.43c-.93-1-1.83-2.1-2.79-3.11a36.72,36.72,0,0,1-2.79-2.79c-.83-1.08-1.35-2.36-2.21-3.42a3.4,3.4,0,0,1-1-3.09l-4.24.74a2.86,2.86,0,0,1,.3.54c.53,1.11,5.37.56,4.8-.61a2.55,2.55,0,0,0-1.61-1.25c-.92-.35-3.87-.5-4.25.74a3.74,3.74,0,0,0,.79,3C4,19.1,4.7,20.23,5.45,21.39a17.87,17.87,0,0,0,2.68,2.82c1,1,2,2.2,3,3.29a39.06,39.06,0,0,1,2.53,3.2,10.85,10.85,0,0,1,1,2,5.57,5.57,0,0,0,1.1,1.37,16.6,16.6,0,0,1,2.06,3.38,11,11,0,0,0,3,3.32c.82.63,4.6,1.1,4.9-.38a12.34,12.34,0,0,0,0-1.72c0-.08.18-.58.17-.61.21.5-1.18.3-1.51.17a5.57,5.57,0,0,0,3.13.24c.26,0,2.05-.5,1.42-1-.45-.39-.71-.92-1.11-1.34a17.88,17.88,0,0,1-1.48-1.54,40,40,0,0,0-2.3-3.32,40.64,40.64,0,0,1-3-3.7c-.83-1.14-1.85-2.14-2.63-3.32S16.92,22,16.27,20.75A19.24,19.24,0,0,0,13.6,17.5a23.75,23.75,0,0,1-2.5-3.75,13,13,0,0,1-.93-2.09,11.11,11.11,0,0,1-.81-2c-.2-1.32-5.16-.92-5,.16Z"/></g><g class="cls-1"><path class="cls-2" d="M27.69,41.37a14.84,14.84,0,0,0,1.84-1.94A23.64,23.64,0,0,1,31.14,37a16,16,0,0,1,1.73-1.76l.38-.31c.12-.1.49-.16.08-.08s.15,0,.19,0c.31,0,.64,0,.95,0,2.19.08,4.39,0,6.56.28a28.59,28.59,0,0,1,3.34.49,12.18,12.18,0,0,0,2.92.63,3.75,3.75,0,0,0,3.1-1.71,1.11,1.11,0,0,0-1-1.79c-3-.1-6.07,0-9.11-.05a12.9,12.9,0,0,0-4.48.72,11.71,11.71,0,0,0-2.06.88,7.67,7.67,0,0,0-1.06.73c-.22.17-.95.62-.09.26-.89.37-2.32,1.23-2.2,2.38s1.65,1,2.39.71a7.32,7.32,0,0,0,1.93-1.12c.42-.34.4-.43.9-.62A8.42,8.42,0,0,1,39,36.24c2.77.08,5.54-.05,8.3,0l2.1-3.5a30.1,30.1,0,0,1-3.14-.71c-1.31-.18-2.63-.38-4-.5s-2.66-.13-4-.14a30.12,30.12,0,0,0-3.8,0c-2.45.3-4.38,2-6,3.76a16.91,16.91,0,0,0-2.28,2.91c-.16.25-.31.52-.46.78-.05.09-.49.74-.11.32-.4.44-.94.77-1.35,1.2-.64.67-.89,1.81.17,2.17s2.52-.44,3.25-1.2Z"/></g><g class="cls-1"><path class="cls-2" d="M64.3,34.93a10,10,0,0,1,2.61-2.06,21.34,21.34,0,0,1,3.61-1.14,14.6,14.6,0,0,1,3.49-.8,21.63,21.63,0,0,0,3.49-.53,15.46,15.46,0,0,1,7.43.87c.48.15.93.37,1.42.51a10.79,10.79,0,0,0,1.6.13,4.65,4.65,0,0,1,1.18.48c.45.18,1,.1,1.42.31l-3-3.48a26.16,26.16,0,0,0-5.85-.52c-2.09,0-4.16-.29-6.24-.33a20.63,20.63,0,0,0-5.6.45c-1.76.44-3.61.56-5.39,1l0,.15,0,.27c-.11.72,1.48,2,2,2.4.21.18,1.56,1.39,1.65.82,0-.4,2.91-.72,3.13-.75a14.46,14.46,0,0,0,2.08-.29,19.61,19.61,0,0,1,6-.44c1.92.06,3.83.29,5.75.31a27.42,27.42,0,0,1,5.86.52c.55.13-.62-1.39-.64-1.41a8.12,8.12,0,0,0-2.35-2.06A6.31,6.31,0,0,0,86.47,29a11.66,11.66,0,0,1-1.15-.52,5.38,5.38,0,0,0-1.5-.14,6.05,6.05,0,0,1-1.61-.46,16.23,16.23,0,0,0-7.66-1.11,32.12,32.12,0,0,1-3.79.59,11.89,11.89,0,0,0-3.15.67c-1.28.39-2.64.65-3.89,1.16a9.22,9.22,0,0,0-3,2.22c-.48.49,3.06,4,3.55,3.52Z"/></g><g class="cls-1"><path class="cls-2" d="M7.3,5.91a7.11,7.11,0,0,0,1.4.9A4.48,4.48,0,0,1,10,8.57c.7,1.35,1.55,2.61,2.13,4A7.29,7.29,0,0,0,13,14c.39.57.4,1.3.78,1.89s.92,1.11,1.29,1.75.77,1.25,1.2,1.86c1.8,2.53,3.12,5.42,5.05,7.86A18,18,0,0,1,23,30.28a3.56,3.56,0,0,0,2,2.06,5.05,5.05,0,0,0,4.14-1.24A6.34,6.34,0,0,1,31,29.87c.71-.37,1.3-.86,2-1.27l-2.87,1a15.3,15.3,0,0,0,3.47-.78,10.45,10.45,0,0,1,2.39-.65,9.23,9.23,0,0,1,2.92.07c.42.08.83.22,1.26.27a3,3,0,0,0,.94,0,.76.76,0,0,0,.51.46c.79.44,1.78.14,2.61.51a18.43,18.43,0,0,0,2.1,1,15.79,15.79,0,0,0,1.69.64c.4.08.8.09,1.19.19a21.39,21.39,0,0,1,3,1.29,3.94,3.94,0,0,0,2.8-.21c.26-.09,2.25-.9,1.84-1.41-.91-1.15-1.55-2.45-2.35-3.66a41.45,41.45,0,0,1-2.5-3.66c-.64-1.23-1.18-2.53-1.85-3.74-.28-.51-.69-.89-1-1.37A12.15,12.15,0,0,0,48.25,17c-.82-.92-1-2.07-1.75-3-.91-1.18-1.24-2.63-2-3.89-.59-.94-1.45-1-2.23-1.73A6.47,6.47,0,0,0,38.61,7C35.82,6.7,33,6.86,30.2,6.26S24.27,6,21.34,6a27.92,27.92,0,0,1-4.57-.2c-.88-.14-2.54-.23-3.23-.86-1-.92.78-.85-1.81.09-.37.13.19.06,0,0s.93,0,.82,0c.62,0,1.22-.24,1.83-.32.8-.1,1.62-.06,2.43-.17A17.68,17.68,0,0,1,26.55,5.7c.65.29,1.36.39,2,.68A20.23,20.23,0,0,1,30.3,7.59a11.35,11.35,0,0,0,2.16,1.05,4.4,4.4,0,0,0,.79.15,5.75,5.75,0,0,0,.83,0c.31-.13.4-.1.29.08l4.19-1.93c-2-.42-4-1-6-1.44s-4-.72-6.06-1.09a32.2,32.2,0,0,0-5.69-.87A12.28,12.28,0,0,0,17.7,4a13.45,13.45,0,0,0-1.52.49l-.56.21c-.81.35.2-.11.46-.06A6.34,6.34,0,0,0,13,5.36,3.65,3.65,0,0,0,11,7c-.7,1.56.71,2.92,1.47,4.13C14.56,14.53,16.5,18,18.6,21.42a54.81,54.81,0,0,0,3.5,5.19c.65.83,1.26,1.67,1.9,2.51a11.56,11.56,0,0,1,1.74,2.54l4.79-1.44A113.27,113.27,0,0,1,25.12,18.1C24.27,16.05,23.36,14,22.45,12c-.43-.95-.83-1.93-1.32-2.85a5.12,5.12,0,0,1-.83-2.28L15.51,8.32c.29.92.8,1.79,1.17,2.69s.61,1.6.89,2.41a18.78,18.78,0,0,0,2.65,4.65c.85,1.24,1.56,2.59,2.34,3.87,1.07,1.75,2.16,3.5,3.34,5.18a9.74,9.74,0,0,0,1.33,1.72c.78.7,2,.45,2.9.15.48-.15,2.35-.73,2.16-1.52a47.08,47.08,0,0,0-2-5.51c-.67-1.78-1.31-3.57-2.13-5.28s-1.51-3.41-2.39-5c-.36-.68-.74-1.34-1.07-2a16,16,0,0,1-1.23-2.2L18.83,9c1.37.69,1.65,2.29,2.51,3.44a45.39,45.39,0,0,1,3.14,5.13,45.1,45.1,0,0,0,3.11,5.28C28.81,24.52,29.73,26.4,31,28c.65.8,5-.51,4.64-1.62-1-3.33-3.33-6.2-5-9.19S27.16,11,25.55,7.8L20.77,9.23a36.66,36.66,0,0,1,2.52,4.45c.94,1.67,1.91,3.32,2.77,5s1.69,3.3,2.49,5c.42.87.83,1.75,1.25,2.61.35.7.6,1.63,1.31,2s4.94-.27,4.64-1.63c-.36-1.66-1-3.23-1.54-4.85s-1.13-3.34-1.81-5c-.61-1.49-1.23-3-1.88-4.45A14.63,14.63,0,0,1,29.13,8L24.34,9.44a83.76,83.76,0,0,1,4.94,9c.74,1.46,1.36,3,2.1,4.45S33,25.72,33.6,27.25c.45,1.11,4.61-.17,4.77-1.2a10,10,0,0,0-.84-4.7c-.55-1.7-1.1-3.4-1.68-5.09a106.23,106.23,0,0,0-4.28-9.79L26.78,7.91a39.94,39.94,0,0,1,2.15,5.54c.7,1.9,1.48,3.79,2.36,5.62s2,3.54,3,5.31c.44.79.9,1.57,1.36,2.35a4.24,4.24,0,0,0,1.15,1.5c.63.42,1.84.1,2.48-.1s2-.6,2.13-1.28c.23-1.48-.35-2.75-.75-4.14-.47-1.65-.91-3.3-1.41-4.93s-1-3.1-1.55-4.64-.85-3.19-1.46-4.7c-.48-1.2-5.2.38-4.79,1.43,1.22,3.19,2.58,6.3,3.86,9.46,1.11,2.76,1.87,5.55,3.76,7.91.64.8,4.93-.5,4.64-1.63a45.83,45.83,0,0,0-1.27-4.44c-.52-1.41-1.12-2.79-1.61-4.21s-.91-2.84-1.37-4.25a16.48,16.48,0,0,0-1.57-4.26c-.73-1.08-5.26.44-4.79,1.43.76,1.61,1.7,3.1,2.44,4.73C36.32,16.4,37.15,18.18,38,20s1.56,3.32,2.44,4.94a19.54,19.54,0,0,1,1,2,3.51,3.51,0,0,0,1.08,1.66c.61.43,1.86.08,2.49-.1s2-.6,2.13-1.29a7,7,0,0,0-.77-3.73c-.61-1.63-1.19-3.28-1.79-4.91-.53-1.45-1.15-2.84-1.76-4.27A45.88,45.88,0,0,1,41.31,9.8l-4.64,1.63A16.06,16.06,0,0,1,39,15.62c.74,1.67,1.48,3.35,2.26,5s1.65,3.31,2.45,5a6.53,6.53,0,0,0,2.54,3.11c.86.5,2.27,0,3.11-.32.27-.1,2.16-1,1.38-1.49-1.42-.83-1.95-2.13-2.63-3.56-.8-1.68-1.68-3.32-2.46-5-1.31-2.88-2.33-6.3-4.44-8.71-.67-.77-5,.51-4.64,1.62.45,1.42.79,2.91,1.36,4.28s1.18,2.64,1.68,4,1.09,3,1.62,4.44c.47,1.28,1.38,2.78,1.15,4.19L47,26.76a3.25,3.25,0,0,1-.89-1.56c-.31-.73-.73-1.41-1.1-2.11-.88-1.63-1.66-3.29-2.41-5S41,14.68,40.2,13c-.7-1.56-1.61-3-2.34-4.51L33.07,9.88a14.63,14.63,0,0,1,1.49,4c.49,1.49.93,3,1.45,4.47s1,2.67,1.53,4a44.31,44.31,0,0,1,1.35,4.66l4.64-1.63c-1.85-2.3-2.5-5.24-3.63-7.91-1.26-3-2.52-6-3.69-9.07L31.42,9.87c.55,1.37.81,2.87,1.3,4.27s1.07,3.07,1.57,4.62.92,3.11,1.35,4.68c.38,1.33,1.21,2.95,1,4.36l4.62-1.38a4.48,4.48,0,0,1-1.08-1.52c-.47-.77-.91-1.56-1.36-2.35-1-1.76-2.06-3.48-2.93-5.32s-1.58-3.59-2.25-5.43a37.44,37.44,0,0,0-2.07-5.33c-.64-1.17-5.23.47-4.79,1.44,1.42,3.1,3,6.11,4.13,9.34.56,1.62,1.08,3.24,1.61,4.87s1.35,3.27,1.1,4.89l4.77-1.2c-.58-1.45-1.4-2.76-2.12-4.15s-1.43-3.11-2.2-4.65a83.62,83.62,0,0,0-4.94-9c-.69-1-4.9.13-4.79,1.43a14,14,0,0,0,1.31,4.23c.67,1.54,1.33,3.08,2,4.63s1.25,3.15,1.74,4.77S30.58,26.4,31,28.14l4.64-1.63c-.62-.35-.92-1.46-1.22-2.09-.42-.86-.82-1.73-1.24-2.59-.8-1.67-1.65-3.32-2.5-5S28.86,13.67,28,12.07A33.31,33.31,0,0,0,25.55,7.8c-.77-1-5.28.46-4.78,1.43,1.6,3.18,3.31,6.29,5.07,9.39s4,5.86,5,9.18l4.64-1.62c-.69-.86-1.1-1.89-1.71-2.81s-1.21-1.64-1.8-2.46a57.87,57.87,0,0,1-3.16-5.52c-.49-.87-.94-1.76-1.44-2.62s-1-1.38-1.51-2.11c-.8-1.21-1.16-2.75-2.56-3.45a3.89,3.89,0,0,0-2.8.21c-.43.16-2,.71-1.84,1.41a15.1,15.1,0,0,0,1.15,2c.36.76.76,1.48,1.15,2.22.88,1.63,1.6,3.36,2.39,5s1.46,3.51,2.13,5.29a46.93,46.93,0,0,1,2,5.5l2.15-1.52h0l1.76-.28c1,.07.52.23.27-.16-.13-.2-.31-.37-.46-.56-.49-.65-1-1.33-1.4-2-1.05-1.59-2.05-3.22-3-4.86C26,18.25,25.26,17,24.37,15.8a14.44,14.44,0,0,1-2.15-4.23C21.69,10,20.8,8.48,20.3,6.88c-.36-1.15-4.86.19-4.79,1.44a4.58,4.58,0,0,0,.74,2.1c.49.91.88,1.87,1.31,2.81.94,2.09,1.89,4.18,2.77,6.3a114.32,114.32,0,0,0,5.41,12.13c.63,1.13,5.2-.39,4.79-1.44a11,11,0,0,0-1.74-2.53c-.56-.73-1.07-1.49-1.65-2.21a51.84,51.84,0,0,1-3.63-5.31C21.23,16.49,19.23,12.58,16.78,9a4.92,4.92,0,0,1-1.17-2.22,1.19,1.19,0,0,1,.12-.74q-3.19.86-1.65.66a8.63,8.63,0,0,0,1.58-.3A11.15,11.15,0,0,1,18,5.7a27.58,27.58,0,0,1,3.24.5c2.16.42,4.34.77,6.51,1.18S32.35,8.51,34.67,9a5.2,5.2,0,0,0,3.09-.57c.35-.17,1.72-.83,1.1-1.36s-1.33-.42-2.11-.46A3.59,3.59,0,0,1,35.14,6a15.34,15.34,0,0,1-1.59-1.08,11.28,11.28,0,0,0-2.51-1,25.49,25.49,0,0,0-3.89-1.33,21.68,21.68,0,0,0-5.4-.31c-2.84,0-5.75.43-8.39.74C12.1,3.14,6.61,4.55,9,6.69a6.34,6.34,0,0,0,3,1,26.85,26.85,0,0,0,5.36.47c1.6,0,3.19-.08,4.79-.1a25.27,25.27,0,0,1,5,.4c1.59.3,3.19.26,4.79.44a27.27,27.27,0,0,1,4.33.43A4.55,4.55,0,0,1,38,10.43c.44.35,1.05.41,1.46.79,1.09,1,1.18,2.89,2.08,4a9,9,0,0,1,1.15,2.11,17.71,17.71,0,0,0,1.2,1.73c.75,1.33,1.55,2.6,2.23,4a23.7,23.7,0,0,0,2.71,4.58c1.21,1.5,2,3.26,3.19,4.77l4.64-1.62a20,20,0,0,0-4-1.63A14.3,14.3,0,0,1,49,27.84a7.28,7.28,0,0,0-1.8-.69c-.34-.07-.7,0-1-.08-.49-.09-.77-.41-1.22-.57a10.67,10.67,0,0,0-1.78-.22,14.79,14.79,0,0,0-2.31-.34,19.76,19.76,0,0,0-4.79.39,19.52,19.52,0,0,0-2.28.58,14.43,14.43,0,0,0-1.39.5c-1,.43.8,0,.2,0a7.15,7.15,0,0,0-2.93.79,7,7,0,0,0-.74.45s-.93.69-.43.37a16.88,16.88,0,0,0-3.69,2.5l4.13-1.24c-.72-.19-1.23-1.66-1.5-2.26a21.81,21.81,0,0,0-2-3.1c-1.73-2.58-3.37-5.27-5-7.89-.35-.56-.63-1.16-1-1.69a5.86,5.86,0,0,1-1.16-1.79A3.82,3.82,0,0,0,17.41,12a7.11,7.11,0,0,1-.82-1.6c-.64-1.34-1.43-2.69-2.18-4a4.72,4.72,0,0,0-1.09-1.38c-.5-.39-1.09-.51-1.53-1C11,3.17,6.45,5,7.3,5.91Z"/></g><g class="cls-1"><path class="cls-2" d="M50.77,13.74l-.26-.2L48,11.87c.57.45.79,1.45,1.21,2A16.85,16.85,0,0,1,50.73,16c1,1.87,2.15,3.7,3.27,5.49s2.58,3.36,3.44,5.33a8.42,8.42,0,0,0,1.06,1.75c.57.79.55,1.93.82,2.85l1.16.31,1.62,1.09a.62.62,0,0,1-.16-.45c.06-.24,0-.32.1-.58a4.67,4.67,0,0,1,.76-1.06,16,16,0,0,1,2.13-2.22,15.57,15.57,0,0,1,7.61-3.05,33.33,33.33,0,0,1,4.24-.32,22.24,22.24,0,0,1,4.16,0c.61.11,1.16.43,1.76.58s.5.13-.29-.3-.86-.56-.4-.24.9.61,1.36.89a11.52,11.52,0,0,0,1.95,1,14.73,14.73,0,0,1,1.6.48L84.33,26c-.61-.44.61.55.68.6a18,18,0,0,0,1.84,1.19c.4.23,2,1.34,2.16.35.06-.41-.78-1.36-1-1.67-.6-1.13-1.14-2.29-1.75-3.41s-1.12-2-1.64-3c-.26-.51-.47-1.07-.77-1.57s-.63-.85-.85-1.34a8.23,8.23,0,0,0-1.37-2.24A20.94,20.94,0,0,1,79.74,12c-.66-1.07-1.41-2.08-2.06-3.15C77.15,8,76.91,7,76.37,6.17a14.15,14.15,0,0,0-1-1.9A10.69,10.69,0,0,0,72,2a2.7,2.7,0,0,0-2.3-.22c-.91.34-1.82.71-2.74,1-2.08.79-4.25,1.09-6.37,1.73a24.13,24.13,0,0,0-7,3.27,26.42,26.42,0,0,0-2.73,2.33c-.3.28-.57.6-.87.88a3.25,3.25,0,0,1-.44.38c-.21.13-.76.16-.37.35l3,1.89c.26.22,0-.14-.09-.27a4,4,0,0,1-.19-.68,2.45,2.45,0,0,1,.23-1.33c.52-1,1.72-1.44,2.7-1.88,1.28-.58,2.6-1.09,3.92-1.58A13.27,13.27,0,0,1,63,6.68l3.85-.07a5.24,5.24,0,0,1,1.81.16c.51.18,1,.49,1.47.67,1,.39,2.2.28,3.24.74a8,8,0,0,0,3.09,1.15c.4,0-.37-.6-.38-.61a13.7,13.7,0,0,0-2-1.37,6.79,6.79,0,0,0-2.79-1.09c-1-.07-2,.06-2.93.06-1.23,0-2.47,0-3.7,0-.61,0-1.23,0-1.83,0a1.23,1.23,0,0,1-.41-.13l1.51,1.06.21.31a9.24,9.24,0,0,1,3.46-.9,6.21,6.21,0,0,1,2.54,0L66.27,4c-2.9,1.07-5.51,3-8.18,4.49a16.1,16.1,0,0,0-3.42,2.29,9.39,9.39,0,0,0-1.27,1.73c-.39.62-.44,1.31-.78,1.94L56.81,17c-.54-.91-.58-2-1.24-2.9a8.25,8.25,0,0,0-2.18-1.71,5.83,5.83,0,0,0-2.46-1.17l-.12,0A10.68,10.68,0,0,0,53.41,16c.58.73,1.12,1.48,1.67,2.24s.9,1.75,1.5,2.46a9.75,9.75,0,0,0,2.48,1.84c.23.13,1.83.85,1.68.61-.77-1.32-1.62-2.54-2.34-3.89a10.31,10.31,0,0,0-1.15-1.62,6.25,6.25,0,0,1-.89-2.19L52.2,13c1.11,3,3,5.64,4.39,8.5a8.46,8.46,0,0,0,1.88,2.76,15,15,0,0,0,2.76,1.82c.4.22,1,.62,1.49.44l0-.11A11.38,11.38,0,0,0,61.31,24c-.57-.86-1-1.79-1.48-2.7a26.73,26.73,0,0,0-1.69-2.63c-.52-.72-.9-1.56-1.47-2.25a9.32,9.32,0,0,0-2.48-1.83c-.22-.13-1.79-1-1.68-.61,1.48,4.63,3.64,10.26,8.86,11.74l.12,0a7.86,7.86,0,0,0,0-3.38,32,32,0,0,0-.7-4c-.44-1.84-.4-4.05-1.71-5.53a9.64,9.64,0,0,0-2.31-1.63c-.13-.08-1.7-.87-1.71-.73-.06,2.16.87,4.35,1.33,6.43.06.29.18.56.25.84a6.63,6.63,0,0,1,0,1,5.69,5.69,0,0,1,2.42,1.49.51.51,0,0,1-.06-.38,2.64,2.64,0,0,1,.36-.71c.83-1.12,2.22-1.66,3.19-2.63a15.69,15.69,0,0,1,5-3.61l-4.22-2.68c-1.26,1-1.7,2.79-2.66,4A37.49,37.49,0,0,0,57.2,19c-.21.37,3.7,3,4.22,2.68a18.71,18.71,0,0,0,2.22-2.14A12.12,12.12,0,0,1,65,18.39a3.34,3.34,0,0,1,.65-.4c.56-.23.84,0-.12-.48l-3-2.25A9.8,9.8,0,0,1,61.2,19.9c-.62,1.23-1.83,2.36-1.78,3.83,0,.65,3.73,3.06,4.22,2.68,1.06-.82,1.83-1.92,2.82-2.81.64-.58,1.38-1.5,2.27-1.68l-4.19-2.56c.58,1-1.75,3.73-2.36,4.34l4.22,2.68c.75-.78,1.54-1.53,2.29-2.31a4.55,4.55,0,0,1,2-1.47l-4.22-2.68c.13,1-.87,1.86-1.67,2.28-.27.14-.56.15-.81.27,2.11-1,3.57,3.16,2.59,1.37A7,7,0,0,1,66,22.3a20.53,20.53,0,0,1-.65-4.48,11.73,11.73,0,0,1,.19-2.37c.12-.78,0-1.62.19-2.37l-4.19-2.56c.85,1.25.82,3.36,1.09,4.82.3,1.62,1,3.29.83,4.94L67.65,23c0-4.15.1-8.3,0-12.45,0-.58-1.53-1.34-1.94-1.61a16.22,16.22,0,0,0-2.28-1.08,53.47,53.47,0,0,0,.36,6.57c.08,1,.29,2.08.32,3.12,0,.77-.18,1.49.35,2.13.38.45,3.64,3.09,4.19,2.56a3.47,3.47,0,0,0,.76-2.09c.22-1.17.37-2.35.52-3.52a39.59,39.59,0,0,0,.74-6.41L66.48,7.62a7,7,0,0,1,.06,3c-.1,1.05-.11,2.1-.16,3.15-.11,2.17-.17,4.34-.29,6.51,0,.54,1.56,1.36,2,1.6a10.45,10.45,0,0,0,2.27,1.08c.36-2.2.7-4.4,1-6.6a54.34,54.34,0,0,1,1.36-6.45L68.49,7.19a56.51,56.51,0,0,1-.58,6.09c-.09,1-.09,2-.2,2.93a8.94,8.94,0,0,0-.14,2.63c.12.66,4.05,3,4.22,2.68a39.72,39.72,0,0,0,2-5.43,38.05,38.05,0,0,1,1.85-5.22L71.44,8.19a13.59,13.59,0,0,1-.55,3.16,24.51,24.51,0,0,0-.37,3c-.23,1.9-1.07,3.78-1,5.71,0,.69,4,3,4.22,2.68a22.79,22.79,0,0,0,1.7-5,31.33,31.33,0,0,1,1.89-5.17L73.09,9.87c-.6,3.44-.81,7-1.83,10.3-.25.79,4.19,2.75,4.22,2.68a40.42,40.42,0,0,1,2.46-6l-4.19-2.56a3.74,3.74,0,0,1,0,2.34c-.25,1.27-.67,2.5-.84,3.79,0,.37,1.18,1.1,1.38,1.24a10,10,0,0,0,2.46,1.39c1.61.5,2.67-3.08,3.32-4.12l-3.72-2.1c-.44-.39-.25,0-.28.41s-.15.79-.23,1.18a4.67,4.67,0,0,0-.25,1.92c.12.61,3.89,3.11,4.22,2.68s.84-1.54,1.45-1.44l-4.1-2.7c0,1.14-.45,2.62-.1,3.72s2.43,2.12,3.47,2.67c.18.09.95.6,1.19.43,1-.66,1.16-2.34,2.37-2.61l-4-2.36c.39.42.41,1.16.69,1.66A6.4,6.4,0,0,0,83,24.07c.19.11,2,.93,2,.9-.54-3.17-2.4-5.83-3.82-8.64A28.82,28.82,0,0,0,78.55,12c-.5-.67-1-1.32-1.56-2s-.84-1.56-1.38-2.29c-.27-.38-4-3-4.18-2.56a1.52,1.52,0,0,0-.09,1.11,10.22,10.22,0,0,0,.46.94,10,10,0,0,1,.29,1.11c.31,1.16.66,2.29,1,3.44.55,1.86.85,4,2.21,5.47.31.34,4,2.64,4,2.37.24-1-.51-2.25-.89-3.15-.55-1.31-1.17-2.58-1.73-3.88-.86-2-1.64-4.24-3.18-5.83-.31-.31-3.89-2.74-4-2.37a2.91,2.91,0,0,0,.25,1.78c.24.8.43,1.62.66,2.43.63,2.17.91,4.39,1.36,6.6a15.26,15.26,0,0,1,.36,2.69,7.22,7.22,0,0,0,0,2.13c.3.75,1.46,1.37,2.08,1.76.42.27.85.53,1.3.77s2.06,1.12.14,0l-2.48-1.83c.44.59-2,.41-2.16.39a2.88,2.88,0,0,0-2,.29c-.18.11,1.62,1.4,1.66,1.42a7.33,7.33,0,0,0,2.44,1.28c.34.07.68.08,1,.13l-4.1-2.71c-.49.92-1.93,1-2.83,1.09-.49.06-1,.1-1.46.19-.68.14-1.3.48-2,.64a10.23,10.23,0,0,0-2.06.37c-.74.32-1.51.68-2.23,1A4.08,4.08,0,0,0,58,26c-.38.52-.43,1.19-.84,1.68l4.22,2.68c-.39-1.67-.08-3.67-.08-5.38,0-.57-1.53-1.35-1.94-1.61a18.63,18.63,0,0,0-2.28-1.07,9.4,9.4,0,0,0,.16,2.37c.16.65.58,1.19.49,1.89l4.19,2.56a33.39,33.39,0,0,1-3.1-7.22,27.29,27.29,0,0,0-2.36-6l-4-2.25c2.19,2.47,3.65,5.46,5.57,8.13a12.7,12.7,0,0,0,3.07,3.22c.77.54,2.72,2.17,3.81,1.72.48-.2.86-.85,1.31-1.13a6.51,6.51,0,0,1,1.91-.78,13.25,13.25,0,0,1,5.12-.59c1.71.19,3.39.55,5.09.77.88.11,1.77.15,2.64.27a11.53,11.53,0,0,0,2.1.29c.43,0-1.16-1.19-1.26-1.26-.67-.46-1.85-1.46-2.72-1.47h-.79c-.42,0,1.16,1.2,1.27,1.27.66.45,1.84,1.45,2.71,1.46h.79l-4-2.73a10.72,10.72,0,0,1-2.1-.29c-.88-.12-1.76-.16-2.64-.27-1.85-.24-3.69-.66-5.55-.81a13.9,13.9,0,0,0-4.91.68,6.57,6.57,0,0,0-1.9.78c-.44.28-1.1,1.29-1.67,1.07l2.46,1.39c1.47,1,.39.16,0-.29s-.69-.92-1-1.39c-.61-.89-1.18-1.8-1.75-2.72a38.43,38.43,0,0,0-3.79-5.27,9.76,9.76,0,0,0-2.57-1.78c-.17-.1-1.57-.76-1.42-.46A29.45,29.45,0,0,1,54.76,20a32,32,0,0,0,3,6.69c.35.69,1.57,1.28,2.19,1.66.16.09,2,1.07,2,.9a3.69,3.69,0,0,0-.42-1.71,7.81,7.81,0,0,1-.23-2.55l-4.22-2.68c0,1.71-.32,3.71.08,5.38.14.6,3.85,3.13,4.22,2.68a13.79,13.79,0,0,0,.74-1.55,4,4,0,0,1,1.64-1.28c.73-.36,1.48-.72,2.23-1A12.88,12.88,0,0,1,68,26.08c.72-.19,1.36-.53,2.1-.65.56-.09,1.13-.13,1.69-.21.82-.13,2-.23,2.48-1.06.29-.54-3.58-2.62-4.1-2.7-.35-.05-.69-.06-1-.12l4.1,2.7c1.32-.85,3,.49,4.29-.59l0-.12a8.09,8.09,0,0,0-2.35-1.87c-.4-.24-.81-.49-1.23-.7s-1.65-.93.08.13l2.48,1.83c-.34-.47-.13-1.21-.13-1.75a12.54,12.54,0,0,0-.16-2c-.22-1.45-.54-2.9-.79-4.35a39.67,39.67,0,0,0-1-4c-.23-.79-1-2.68-.72-3.52l-4-2.37c1.38,1.42,2.08,3.65,2.84,5.43.5,1.16,1,2.29,1.55,3.45.39.93,1.25,2.33,1,3.35l4,2.36C78,18,77.73,15.79,77.26,14.21c-.33-1.09-.67-2.17-1-3.27-.13-.5-.23-1-.41-1.52-.23-.64-.54-.88-.24-1.58L71.46,5.28c.45.62.68,1.36,1.13,2s1,1.28,1.54,1.94a24.28,24.28,0,0,1,2.67,4.32c1.38,2.87,3.39,5.55,3.94,8.76l4.19,2.56a9.45,9.45,0,0,0-1-2.06,9.93,9.93,0,0,0-2.31-1.63c-.42-.25-1.2-.84-1.71-.73-1.22.27-1.42,1.95-2.37,2.61l1.19.43-.24-.12,3,2.12c-.66-.82-.06-2.9-.07-3.89,0-.5-1.35-1.21-1.67-1.42a7,7,0,0,0-2.43-1.28c-.8-.14-1.29,1-1.69,1.48L79.82,23c-.34-1.7,1.34-3.3-.23-4.67-.33-.28-3.46-2.53-3.73-2.1-.45.73-.8,1.52-1.22,2.27a8.86,8.86,0,0,1-.8,1.28c-.09.12-.61.65-.55.67l3.85,2.63c.18-1.36.64-2.64.88-4a3.75,3.75,0,0,0-.11-2.39c-.25-.43-4-3-4.19-2.56a40,40,0,0,0-2.46,6l4.22,2.68c1-3.35,1.23-6.86,1.83-10.3.13-.72-4.11-2.9-4.22-2.68A29.62,29.62,0,0,0,71.2,15a22.79,22.79,0,0,1-1.7,5l4.22,2.68c0-1.93.79-3.81,1-5.71A24.1,24.1,0,0,1,75.11,14a13.77,13.77,0,0,0,.55-3.17c0-.73-4.09-2.94-4.22-2.68a37.58,37.58,0,0,0-1.85,5.22,39.72,39.72,0,0,1-2,5.43l4.22,2.68a8.33,8.33,0,0,1,.15-2.63c.1-1,.1-1.95.19-2.93a56.51,56.51,0,0,0,.58-6.09c0-.89-4.21-2.72-4.22-2.68a54.34,54.34,0,0,0-1.36,6.45c-.34,2.2-.68,4.4-1,6.6l4.22,2.68c.13-2.32.21-4.64.31-7,.07-1.88.61-4.08,0-5.9C70.43,9.43,69,8.71,68.45,8.4a15.41,15.41,0,0,0-2-.9,39.59,39.59,0,0,1-.74,6.41c-.14,1.1-.28,2.19-.48,3.28a4,4,0,0,1-.8,2.33l4.19,2.56c-.53-.63-.27-1.77-.33-2.56-.09-1-.26-1.92-.31-2.89-.11-2-.42-4.08-.33-6.12L63.43,7.82c.1,4.16,0,8.31,0,12.46,0,.57,1.54,1.35,1.95,1.61A13.3,13.3,0,0,0,67.65,23c.14-1.79-.59-3.64-.92-5.39-.26-1.44-.22-3.37-1.06-4.61-.29-.43-4.12-2.84-4.19-2.56A10.79,10.79,0,0,0,61.4,12c0,.52-.17,1-.24,1.53a13.54,13.54,0,0,0,.15,3.65,10.58,10.58,0,0,0,1.39,4.68,8.89,8.89,0,0,0,2.45,2A6.19,6.19,0,0,0,68,25.19c1.17,0,2.88-1.34,2.72-2.59-.08-.62-1.47-1.31-1.94-1.6s-1.63-1.26-2.28-1.08a4.55,4.55,0,0,0-2,1.47c-.75.78-1.54,1.53-2.29,2.31-.09.1,3.67,3.24,4.22,2.68.77-.77,3-3.33,2.3-4.58a6.56,6.56,0,0,0-2.2-1.66c-.49-.3-1.38-1-2-.9-.89.18-1.63,1.1-2.27,1.68-1,.89-1.76,2-2.82,2.81l4.22,2.68a4.6,4.6,0,0,1,1-2.58A15.26,15.26,0,0,0,66.09,21c.33-.83.93-2.18.66-3.1s-2.34-1.88-3.16-2.31c-1.45-.77-2.27-.41-3.47.63A34.79,34.79,0,0,1,57.2,19l4.22,2.68a38.18,38.18,0,0,1,3.5-4.89c1-1.23,1.41-3.06,2.66-4,.19-.14-1.79-1.5-1.94-1.6-.43-.27-1.73-1.32-2.28-1.08a14.38,14.38,0,0,0-3.77,2.33c-.77.68-1.38,1.45-2.21,2.07-1,.74-3.5,2.14-2.09,3.55a16.54,16.54,0,0,0,3.54,2.5c.45.26,2,1.34,2.17.43a3.5,3.5,0,0,0-.29-1.3c-.15-.57-.22-1.15-.36-1.72a17.78,17.78,0,0,1-1-4.92l-4-2.36a5.34,5.34,0,0,1,.85,2.77c.16,1,.44,2,.65,3a35.78,35.78,0,0,1,.55,3.57c0,.22.24,3-.12,2.87l1.59.75c2.56,1.52,2,1.61,1.39.58-.16-.25-.3-.51-.44-.77-.33-.6-.65-1.22-1-1.82a29.66,29.66,0,0,1-2.13-5.27L52.51,14c.62.73,1,1.64,1.6,2.43a26.35,26.35,0,0,1,1.94,3.17,27.29,27.29,0,0,0,1.68,2.8c.14.22.27.44.4.66.56,1.06.2.5,2,1.74,2.7,1.83,1.87,1.46,1.27.45S60.35,23,59.76,21.86a52.78,52.78,0,0,1-3.4-6.44c-.28-.76-1.82-1.45-2.48-1.83-.22-.13-1.79-.95-1.68-.61A5.23,5.23,0,0,0,53,15a13.73,13.73,0,0,1,1.27,1.78c.72,1.36,1.57,2.58,2.34,3.89l4.16,2.45c-.52-.62-.79-1.45-1.26-2.12s-1.1-1.55-1.68-2.29-1.13-1.38-1.63-2.13a10.43,10.43,0,0,1-.59-1A12.77,12.77,0,0,0,55,14L52.5,12.59c-1.5-1.06-1-.83-.65-.09a5.76,5.76,0,0,1,.27.73,7.24,7.24,0,0,0,.53,1.36c.26.43,4,3,4.19,2.57s.35-1.2.67-1.77a9.11,9.11,0,0,1,1.26-1.76,14.85,14.85,0,0,1,3.54-2.43C65,9.68,67.59,7.78,70.49,6.72c.14,0-1.38-1.24-1.38-1.24a13.93,13.93,0,0,0-2.46-1.4A7,7,0,0,0,63.6,4a10.17,10.17,0,0,0-3.7,1,.42.42,0,0,0,.2.32A20.09,20.09,0,0,0,64,7.88a8.51,8.51,0,0,0,3,1.21,43.44,43.44,0,0,0,4.84,0c.68,0,1.35,0,2,0,.35,0,.69,0,1,0,.56,0,1.26.34-.06-.4l-2.38-2a6.27,6.27,0,0,1-2.27-.88A13.72,13.72,0,0,0,67.26,5a22.29,22.29,0,0,1-2.35-.9,8.9,8.9,0,0,0-3.13-.17c-1,0-2,0-3,0a9.25,9.25,0,0,0-3,.82,57.56,57.56,0,0,0-6.46,2.64A2.65,2.65,0,0,0,48,11.08a5.44,5.44,0,0,0,1.87,1.73c.77.54,2.12,1.63,3.15,1.61a2.41,2.41,0,0,0,1.45-.91c.66-.66,1.35-1.28,2-1.9A17,17,0,0,1,61.92,8.3c1.18-.42,2.34-.9,3.55-1.22s2.43-.51,3.63-.82c1-.27,2-.72,3-1s2-1.06,3.07-.85L74.1,3.94l.22.11-3-2.13a4,4,0,0,1,.44,1c.2.44.51.82.75,1.25a14,14,0,0,1,.66,1.54,11.19,11.19,0,0,0,1,1.64c.74,1.1,1.43,2.23,2.11,3.37s1.46,1.79,2.09,2.78A10.43,10.43,0,0,1,79,14.86c.24.47.62.87.87,1.33.61,1.13,1.15,2.29,1.77,3.41s1.3,2.5,2,3.76c.18.34,1.62,2.31.9,2.44l1.59.75-.23-.13,2.31,1.63a12.64,12.64,0,0,0-5.22-3.27,6.47,6.47,0,0,0-1.07-.28c2.18,1.37,2.71,1.66,1.56.87l-.81-.55a15.69,15.69,0,0,0-2.68-1.43,12,12,0,0,0-4.85-1,54.8,54.8,0,0,0-6.28.31c-3.57.49-7,1.76-9.46,4.49-.66.73-2,1.86-1.51,2.95a4.8,4.8,0,0,0,1.65,1.61,27.35,27.35,0,0,0,2.86,1.79c.15.09,1.27.68,1.16.32-.32-1.09-.3-2.23-1.06-3.13A17.59,17.59,0,0,1,60.93,28c-.67-1.16-1.5-2.2-2.28-3.29s-1.39-2.39-2.16-3.54S55.26,19,54.62,18s-1.38-1.72-1.91-2.74a6.29,6.29,0,0,0-1.91-2.13,9.21,9.21,0,0,0-4-2.06c-.39,0,1.17,1.19,1.27,1.26a7,7,0,0,0,2.71,1.46Z"/></g><g class="cls-1"><path class="cls-2" d="M9.2,17.39c.57,1,1.35,1.81,1.88,2.79S12,22.1,12.35,23c.47,1.11.71,2.3,1.25,3.38A13.85,13.85,0,0,1,15,28.81a16.61,16.61,0,0,0,.64,3c.45,1,.94,2,1.43,2.95a13.64,13.64,0,0,0,4,5c.76.54,2.24,1.36,3.15.68s-.05-1.9-.68-2.34a9.57,9.57,0,0,1-2.74-4,9.76,9.76,0,0,1-1.16-2.7,7.58,7.58,0,0,0-.8-2.95,16.07,16.07,0,0,1-1.25-2.17A34.41,34.41,0,0,0,16.34,23c-.43-.9-.74-1.87-1.22-2.75s-1.31-1.82-1.88-2.79a3.82,3.82,0,0,0-3.07-1.74,1,1,0,0,0-1,1.7Z"/></g><g class="cls-1"><path class="cls-2" d="M10.93,23.68a45.57,45.57,0,0,1,2.44,4.77,24.31,24.31,0,0,0,1.93,3.41c0,.07-.24-.4,0,.07.1.17.19.35.28.52a18.73,18.73,0,0,0,1.06,1.71,27.65,27.65,0,0,0,1.94,2.3s-.15-.37-.17-.36.22.48.24.52A13.08,13.08,0,0,0,20,38.8a32.31,32.31,0,0,0,4.71,4.49c.83.75.53-.95.43-1.24a6.73,6.73,0,0,0-1.82-2.91l-2.12-1.85c-.35-.31-.67-.67-1-1-.7-.6.37.4.28.58,0-.06-.21-.45-.24-.52a14.42,14.42,0,0,0-2-3.12c-.43-.52-1.11-1.17-1.4-1.63-.13-.2-.4-.73-.58-1-.31-.53-.75-1-1-1.54.08.15,0-.09-.06-.21-.17-.44-.37-.86-.57-1.29-.92-1.95-2-3.83-3.05-5.69-.2-.35-1.12-1.78-1.58-1.14s.73,2.49,1,2.95Z"/></g><g class="cls-1"><path class="cls-2" d="M35,36.65c1.18,0,2.36,0,3.54,0a8.51,8.51,0,0,1,2.94.18,6.27,6.27,0,0,1,1,.51l.32.23c-.51-.37.29.23.27.22A4.7,4.7,0,0,0,46.14,39c1.92,0,1.18-2.65.29-3.42A14.49,14.49,0,0,0,41.64,33a10.49,10.49,0,0,0-5.94-.79,14.34,14.34,0,0,0-5.06,2.38,12.54,12.54,0,0,0-1.9,1.74c-.56.63-.87,1.52-1.46,2.08l3.61,3.45a16.16,16.16,0,0,1,3.87-2.79,18.11,18.11,0,0,1,4.59-2,6,6,0,0,1,3.83.54,26.9,26.9,0,0,0,4.67,1.7,1.47,1.47,0,0,0,1.73-1.81A3.28,3.28,0,0,0,47,35.06a39.08,39.08,0,0,1-4.32-1.71,9.59,9.59,0,0,0-5.55-.48,21.83,21.83,0,0,0-5.24,2.18,19.67,19.67,0,0,0-4.64,3.35c-1.68,1.69,1.88,5.09,3.61,3.45a11.12,11.12,0,0,0,1.16-1.73,10.85,10.85,0,0,1,1.5-1.53,12.48,12.48,0,0,1,3.55-1.93,5.14,5.14,0,0,1,3.87.16c.6.21,1.21.42,1.8.66l.68.32c.1.05.87.62.52.32l.29-3.43c1.62,0,1.11.49.72.07-.18-.2.26.21-.11-.08a12,12,0,0,0-1.16-.86,10,10,0,0,0-3.41-1.41,48.31,48.31,0,0,0-7.22,0c-1.22,0-1.4,1.52-1,2.38A3.17,3.17,0,0,0,35,36.65Z"/></g><g class="cls-3"><path class="cls-4" d="M2.66,18.38a1.66,1.66,0,0,0-1-.58C.81,17.61.49,19.36.55,19.87c.15,1.2.75,1.5,1.64,2.16a10.47,10.47,0,0,1,2.43,3.4c.75,1.28,1.83,2.28,2.57,3.55s1.59,2.28,2.31,3.49a32.66,32.66,0,0,0,2.07,3.39,19.14,19.14,0,0,0,3,3.38,47.59,47.59,0,0,1,6.16,6c.73.82,1,2,1.93,2.71,1.06.81,2.52.44,3.65,0,1.45-.56,2.8-1.37,4.27-1.88.67-.23,1.37-.3,2-.51a14.61,14.61,0,0,1,2.13-.67c1.7-.29,3.4-.62,5.12-.8.85-.09,1.7-.06,2.55-.13a19.79,19.79,0,0,0,2-.43,15.49,15.49,0,0,0,2.24-.32c.59-.18,1.12-.47,1.73-.6,1.51-.32,3-.69,4.56-.89s2.67,1.42,3.83,2a4.58,4.58,0,0,0,6.36-2.41c.26-.69.32-1.44.53-2.14A15.34,15.34,0,0,0,64,36.66l-.89,1.7a17,17,0,0,1,3.7,0c1.35,0,2.77-.11,4.12,0,1,.09,2,.59,3.07.65s2.32.26,3.5.32,2.47.63,3.75.7a9.06,9.06,0,0,1,3.28.41,6.45,6.45,0,0,0,2.93.29,28.88,28.88,0,0,1,4.16,0c1,.09,1.43-2.27.8-2.84a21.29,21.29,0,0,1-2.57-2.16c-.63-.81-1-1.77-1.68-2.57-.42-.52-1,.56-1.1.83a2,2,0,0,0,.11,1.92c.67.81,1,1.82,1.72,2.63a26.59,26.59,0,0,0,2.54,2.09l.8-2.84a29.37,29.37,0,0,0-4,0,7,7,0,0,1-3.1-.28,10.64,10.64,0,0,0-3.51-.43c-1.35-.12-2.58-.69-3.94-.69-1.09,0-2.2-.22-3.29-.32s-2.13-.62-3.26-.66c-1.39,0-2.78,0-4.17,0a15.45,15.45,0,0,0-3.66.06c-.62.13-.83,1.22-.88,1.69s0,.82,0,1.19c0-.19,0-.25-.15.16a7.67,7.67,0,0,1-.42,1.82c-.57.95-2.32,1.23-3.3,1-1.31-.25-2.24-1.35-3.35-2A3.12,3.12,0,0,0,52.5,39c-1.23.25-2.48.49-3.72.7a9,9,0,0,0-1.6.5,14,14,0,0,1-2.59.45c-.58.1-1.13.33-1.72.4s-1.26,0-1.89.08c-1.72.12-3.42.44-5.12.73a29.87,29.87,0,0,0-7.69,2.46c-1.11.51-2.5,1.35-3.77,1.18S22.83,44,22.15,43.09c-3.16-4.19-8-6.86-10.59-11.51a23.67,23.67,0,0,0-2.27-3.65c-.86-1.08-1.45-2.32-2.36-3.38s-1.61-2.66-2.54-3.92a5.81,5.81,0,0,0-1.22-1.35c-.14-.11-.3-.19-.45-.29s-.64-.62-.61-.34L1,20.73a.81.81,0,0,1,.66.4c.65.73,1.66-2,1-2.75Z"/></g><g class="cls-5"><path class="cls-6" d="M25.74,44.57a6.67,6.67,0,0,1,2.5-1.41c.8-.22,1.65-.24,2.46-.43,1.81-.42,3.63-.75,5.44-1.22.83-.22,1.62-.62,2.46-.8s1.59,0,2.41-.22a12.62,12.62,0,0,1,2.3-.1c.95-.09,1.84-.36,2.81-.39s1.52-3,.62-2.93a16.62,16.62,0,0,0-2.53.29c-.9.15-1.82-.07-2.71.13a4.68,4.68,0,0,1-1.18.25c-.38,0-.76-.05-1.15,0a24.7,24.7,0,0,0-2.82.87c-1.91.5-3.85.91-5.78,1.29a14.44,14.44,0,0,0-2.76.59,8.57,8.57,0,0,0-2.26,1.41,2.4,2.4,0,0,0-.69,2c0,.42.34,1.19.88.73Z"/></g><g class="cls-5"><path class="cls-6" d="M24.86,43.34c1.87-.16,2.75-2.45,4.15-3.46a9.25,9.25,0,0,1,3.72-1.76c1.08-.21,2.08-.65,3.16-.76,1.29-.12,2.5-.43,3.82-.49a24.66,24.66,0,0,1,4,.07c2.68.33,5,1.62,7.41,2.73.81.37,1.62-2.47.62-2.94-2.4-1.11-4.73-2.4-7.41-2.72A25,25,0,0,0,40.12,34c-1.3.06-2.5.35-3.78.48-1.05.11-2,.51-3,.71a9.84,9.84,0,0,0-3.43,1.33,9.87,9.87,0,0,0-2.68,2.17c-.63.78-1.06,1.7-2.15,1.79-.93.09-1.39,3-.22,2.91Z"/></g><g class="cls-5"><path class="cls-6" d="M10.26,27c.83,1.43,1.72,2.81,2.54,4.26.4.71.46,1.56.86,2.29s.93,1.54,1.36,2.34a17.15,17.15,0,0,0,2.63,3.94c.48.48,1,.89,1.52,1.35.35.33.94.82,1,1.34s.3,1.1.87.73a2.34,2.34,0,0,0,.69-1.95,5.36,5.36,0,0,0-2.24-3.45A13.65,13.65,0,0,1,16.56,34c-.44-.79-.87-1.57-1.35-2.34a17.23,17.23,0,0,1-1-2.41c-.38-.85-1-1.6-1.4-2.45S12,25.34,11.52,24.6c-.34-.58-.87-.09-1.1.32A2.38,2.38,0,0,0,10.26,27Z"/></g><g class="cls-5"><path class="cls-6" d="M17.44,33.2c1.15,1.16,2.12,2.46,3.15,3.73.48.59,1.09,1.09,1.55,1.71S23,40,23.47,40.58c.16.18.44.08.59,0a1.89,1.89,0,0,0,.52-.81,2,2,0,0,0-.12-1.91c-.49-.56-.81-1.25-1.27-1.84s-1.11-1.18-1.62-1.81a46.69,46.69,0,0,0-3.15-3.73c-.46-.46-1,.52-1.1.84-.19.55-.35,1.44.12,1.91Z"/></g><g class="cls-5"><path class="cls-6" d="M56.39,38.11a3.19,3.19,0,0,0,2.26,3.5,2.26,2.26,0,0,0,1.92-.53A4.5,4.5,0,0,0,62,38.6a9.82,9.82,0,0,0,.22-1.32l.06-.53,0-.26v-.1c0-.28-.06.4,0,.13.07-.46.19-1.31-.32-1.58s-.9.54-1,.89l-.06.18c-.07.23.17-.32.06-.12,0,0-.08.15-.08.14s.22-.3.05-.1-.17.11.06,0l-.09.08a.48.48,0,0,1-.11.09s-.18.1,0,0h0l-.13.06-.28.08a3.09,3.09,0,0,1-.6.08h.2c-.54,0-1.08,0-1.62,0a3.89,3.89,0,0,0-1.59.22,1.77,1.77,0,0,0-.83,1.3,1.83,1.83,0,0,0,.23,1.53c.58.65,1.37-.17,1.78-.59l.31-.33.16-.17c.08-.09-.23.22-.08.08l.07-.07a2.69,2.69,0,0,1,.33-.26c.13-.09-.05,0-.09,0l.08,0a.58.58,0,0,1,.18,0h-.21a.43.43,0,0,1,.25.05l-.18-.1a.83.83,0,0,1,.15.11l.07.06c.1.1-.14-.18,0,0s.27.33.52.26a1.08,1.08,0,0,0,.57-.58,2.73,2.73,0,0,0,.32-1.11,1.71,1.71,0,0,0-.15-.95A1.08,1.08,0,0,0,59,35.05a2,2,0,0,0-.89.52l-.53.55-.17.18c-.07.08-.3.29,0,0a3,3,0,0,1-.32.29l-.08,0c-.1.08.22-.09.11-.06a.53.53,0,0,1-.17,0h.2l-.15,0,.18.09-.13-.1-.6,2.83a2.56,2.56,0,0,1,.9-.2l-.2,0c.89,0,1.78.09,2.67,0a3,3,0,0,0,2.32-2.29l-1.33-.69c-.07.49-.13,1-.18,1.46,0,.1,0,.19,0,.29s.07-.37,0-.2a.59.59,0,0,1,0,.13,2.74,2.74,0,0,1-.05.28s0,.09,0,.12.13-.41,0-.17c0,.06-.14.34,0,.09s0,.06-.07.1.19-.25.08-.12l-.08.1s-.08.07-.09.1.14-.14.08-.08l0,0a1.84,1.84,0,0,1-.22.17l-.15.1s.09,0,0,0a2.25,2.25,0,0,1-.51.13h.21a2,2,0,0,1-1-.22l.18.09a2.63,2.63,0,0,1-.52-.35l-.21-.19-.1-.12c-.11-.12,0,.1,0,0s-.1-.16-.15-.24,0-.1-.06-.13.07.23,0,.06,0-.09,0-.14,0-.15,0,.12c0,0,0-.09,0-.12,0,.34,0,.29,0,.13a1.69,1.69,0,0,0-.15-.94.45.45,0,0,0-.52-.27c-.62.22-.82,1.14-.88,1.7Z"/></g><g class="cls-5"><path class="cls-6" d="M59.46,38a13.2,13.2,0,0,1,2.71-2.1c.93-.69,1.74-1.54,2.66-2.25A11.07,11.07,0,0,1,71.28,31c2.26,0,4.3-.27,6.46.5,1.16.4,2.36.67,3.53,1,.93.29,1.76,1.14,2.74,1.15s1.55-2.92.62-2.93-1.85-.88-2.73-1.15c-1.33-.41-2.67-.75-4-1.21-2.19-.76-4.83-.45-7.11-.3S66.36,29.65,64.65,31c-1,.79-1.92,1.74-3,2.47a11.91,11.91,0,0,0-2.77,2.28,2.54,2.54,0,0,0-.45,2.08c.18.57.63.7,1,.21Z"/></g><g class="cls-5"><path class="cls-6" d="M65.9,34.64a13.92,13.92,0,0,1,2.32.84,19.7,19.7,0,0,0,2.34.41A19.06,19.06,0,0,0,76.09,37c.94,0,1.89,0,2.83,0a15.57,15.57,0,0,0,2.16,0,9.71,9.71,0,0,0,1-.31,7,7,0,0,1,1.71-.13c1.06,0,2.12.08,3.19.09s1.54-2.93.62-2.93c-1.83,0-3.82-.36-5.6.17s-3.63.13-5.34.17A18,18,0,0,1,71.34,33a24.37,24.37,0,0,1-2.49-.45,14.64,14.64,0,0,0-2.32-.85c-1-.22-1.64,2.71-.63,2.94Z"/></g><g class="cls-5"><path class="cls-2" d="M51.64,13.42a8.5,8.5,0,0,0,1.58.83,3.32,3.32,0,0,1,1.21,1.57c.77,1.4,1.33,2.85,2,4.29.33.68.7,1.36,1.08,2a7.17,7.17,0,0,1,.89,1.54,19,19,0,0,0,.63,2.11c.26.58,1,1.25,1,1.89l1.41-1.8c-.64.93-.73,1.21-.28.84a3.62,3.62,0,0,1,.48-.25c.32-.17.64-.32.95-.51a14.48,14.48,0,0,1,2.93-1.64,19.76,19.76,0,0,1,6.68-.74c2.22,0,4.44.07,6.66,0,1,0,1.86.41,2.87.39s1.51.68,2.46.8,1.27-2,.94-2.66a10.43,10.43,0,0,0-1.52-1.8c-.67-.8-1.3-1.67-1.9-2.51-.48-.68-1-1.29-1.54-2A14.38,14.38,0,0,1,79,13.13c-.46-.92-1.09-1.72-1.51-2.68s-.7-1.89-1.09-2.82a26.94,26.94,0,0,0-2.41-4.91c-.69-1-1.4.9-1.41,1.44A8.5,8.5,0,0,0,73.72,8.4c.92,1.68,1.88,3.32,2.74,5S78.2,17.05,79,18.88a14.45,14.45,0,0,0,.73,1.41l.43.78c.09.17.17.35.24.52.11.39.14.27.1-.34L81.72,20c-1.07-.61-1.49-1.7-2.11-2.71-.76-1.21-1.74-2.26-2.51-3.46C76,12.09,75.37,9.63,73.5,8.46c-1.07-.66-1.43,2-1.13,2.56.75,1.44,1.09,3.07,1.94,4.46.74,1.2,1.37,2.37,2,3.62.32.63.54,1.31.88,1.92s.9,1.24,1.28,1.9c.69,1.17.8,2.49,1.66,3.58.42.52,1-.57,1.1-.84a2,2,0,0,0-.11-1.91c-.81-1-.88-2.46-1.61-3.56a37.93,37.93,0,0,1-2.14-3.84c-.31-.62-.52-1.28-.88-1.88s-.71-1-1-1.53c-.79-1.35-1.13-2.91-1.84-4.3l-1.13,2.57c1.92,1.19,2.53,3.94,3.8,5.71a37.22,37.22,0,0,1,2.28,3.2,6.36,6.36,0,0,0,2.15,2.65c.69.4,1.1-.74,1.21-1.22a4.69,4.69,0,0,0-.8-3.38c-.8-1.43-1.42-2.93-2.12-4.42-.85-1.82-1.75-3.62-2.71-5.38-.7-1.28-2.26-3.16-2.24-4.7L72.67,5.1A26,26,0,0,1,75.08,10c.39.93.69,1.89,1.09,2.82s1.06,1.75,1.52,2.68a19.36,19.36,0,0,0,1.19,2.57c.51.72,1.13,1.34,1.64,2.05s1.21,1.61,1.82,2.42a15.94,15.94,0,0,1,1.6,1.9l.94-2.66c-.54-.06-.84-.43-1.32-.65a5.71,5.71,0,0,0-1.7-.15c-.57-.07-1.06-.37-1.65-.41s-1.48.06-2.2.06c-3,0-6.11-.2-9.11,0a12.26,12.26,0,0,0-3.89,1c-1.07.47-1.94,1.25-3,1.79a3.63,3.63,0,0,0-1.91,1.62,3.51,3.51,0,0,0,.1,3.14c.65,1.24,1.43-1.37,1.41-1.8a3.35,3.35,0,0,0-.7-2,6.47,6.47,0,0,1-1-2.27,19,19,0,0,0-2-4.07c-.83-1.58-1.44-3.25-2.3-4.82a5.32,5.32,0,0,0-1-1.56c-.58-.49-1.38-.56-2-1.06-.79-.7-1.73,2.09-1,2.75Z"/></g><g class="cls-5"><path class="cls-2" d="M41.92,14.09c1.08.94,1.3,2.5,1.86,3.76.76,1.73,2,3.25,2.91,4.93a6.86,6.86,0,0,0,1.4,2c.35.32.75.54.95,1s.22.73.38,1.08c.57,1.3,2.21,2.35,2.41,3.78l1.27-2c-.51-.33-.67-1-.91-1.5a12.74,12.74,0,0,0-1.24-2c-1.07-1.54-2.23-3-3.18-4.65s-1.73-3.38-2.71-5c-.8-1.32-1.34-2.83-2.46-3.92-.8-.78-1.28,1.62-1.27,2a13.6,13.6,0,0,0,1.1,4.34,39.11,39.11,0,0,0,2.19,4.85c.84,1.57,1.63,3.18,2.55,4.7.46.77.93,1.56,1.44,2.3.24.34,1.17,1,1.23,1.41l.68-1.95c-.43.25-1.26-1.25-1.43-1.51A22.56,22.56,0,0,0,46.66,25a15.19,15.19,0,0,1-2.47-3.24c-.58-1-1.6-2.11-1.7-3.33L41,19.93a7.79,7.79,0,0,0,.8,1.41,19.31,19.31,0,0,1,.64,1.95A16,16,0,0,0,44,26.57L45.13,24c-.68-.69-.68-2-1-2.92a33.77,33.77,0,0,0-1.41-3.48c-.9-2-2.57-3.88-2.9-6.06l-1.37,2.12a24.92,24.92,0,0,1,1.3,3c.59,1.17,1.16,2.34,1.82,3.47a24.84,24.84,0,0,0,3.93,5.63c.81.77,1.53-2,1.12-2.56C45,20.87,43.81,18.31,42.21,16c-1.46-2.1-2.54-4.46-4.34-6.32-.7-.72-1.69,2-1,2.75,1.75,1.81,2.83,4.18,4.25,6.24,1.54,2.24,2.7,4.7,4.24,6.93L46.5,23a24.54,24.54,0,0,1-3.8-5.54c-.61-1-1.13-2.13-1.67-3.2a22.78,22.78,0,0,0-1.29-3c-.33-.48-.74-.22-1,.18a2.74,2.74,0,0,0-.35,1.94c.37,2.4,2.11,4.41,3.1,6.58A22,22,0,0,1,43,23.89a5.51,5.51,0,0,0,1.18,2.86c.76.78,1.54-2,1.12-2.56a14.72,14.72,0,0,1-1.47-3c-.21-.54-.31-1.1-.51-1.64s-.67-.95-.85-1.47-.48-.69-.92-.31a2.43,2.43,0,0,0-.58,1.85c.14,1.69,1,2.77,1.83,4.2a18.14,18.14,0,0,0,2.9,3.9A27.53,27.53,0,0,1,48.3,30.8c.6.84,1.34,1.72,2.41,1.1a2.32,2.32,0,0,0,.68-2,3.11,3.11,0,0,0-.79-1.8,12.76,12.76,0,0,1-1.43-1.92c-1-1.51-1.78-3-2.62-4.61a51.11,51.11,0,0,1-2.42-4.93,13.4,13.4,0,0,1-1.25-4.34l-1.27,2c1.13,1.1,1.76,2.82,2.55,4.17,1,1.64,1.71,3.39,2.72,5s2.13,3,3.18,4.57a11.15,11.15,0,0,1,1,1.88,3.24,3.24,0,0,0,1,1.45c.88.58,1.34-1.45,1.27-2-.25-1.79-1.36-2.81-2.32-4.23-.46-.7-.51-1.6-1-2.26a10.48,10.48,0,0,0-1.12-1,5,5,0,0,1-.82-1.24c-.93-1.78-2.26-3.39-3.07-5.23-.63-1.43-.91-3.06-2.14-4.13-.81-.7-1.74,2.09-1,2.75Z"/></g><g class="cls-5"><path class="cls-2" d="M40.37,25A23.89,23.89,0,0,0,38,24.67c-.85,0-1.7,0-2.54,0l-.63,2.94a48.82,48.82,0,0,1,6,0c1.59.19,3.16.83,4.76.84,1.09,0,1.4-2.2.81-2.85a9.78,9.78,0,0,0-2.12-1.35c-.84-.55-1.65-1.11-2.53-1.59s-1.61-1-2.47-1.42c-.67-.32-1.78-.34-2.25-1l-.74,2.65c1.34-.39,2.77.45,4.06.78a21.31,21.31,0,0,0,3.88,1.08c1,0,1.39-2,.95-2.66-.78-1.1-1.94-1.42-3.09-2a11.78,11.78,0,0,1-1.74-1.25c-.71-.52-1.43-1-2.09-1.6l-.21,2.52c-.26.29-.12.07.06.05a2.74,2.74,0,0,0,.28-.05,4.33,4.33,0,0,1,.88,0,12.64,12.64,0,0,1,1.63.13c1.25.16,2.75.85,4,.21a2.25,2.25,0,0,0,.74-2.65c-.77-1.79-2.62-2.53-4.06-3.67a35.47,35.47,0,0,1-2.87-2.32c-.69-.67-1.19-1.27-2.23-1.21s-1.4,3-.22,2.92c.74-.05,1.39,1,1.9,1.42.85.72,1.74,1.41,2.63,2.09,1.26,1,2.92,1.61,3.58,3.15l.74-2.64c-1.17.62-2.82-.17-4.07-.3s-2.66-.32-3.52.62c-.47.51-.81,2-.21,2.52s1.23,1,1.87,1.44,1.15,1,1.79,1.32c1,.54,2.32.79,3,1.73l.95-2.66c-1.42-.07-2.74-.79-4.11-1.13s-2.74-1.14-4.24-.7c-.78.23-1.19,2-.74,2.64a3.38,3.38,0,0,0,2.07,1.24,14.09,14.09,0,0,1,2.69,1.41c.91.5,1.78,1.07,2.65,1.64a10.74,10.74,0,0,1,2.23,1.43l.81-2.84c-1.6,0-3.18-.64-4.76-.84a50.89,50.89,0,0,0-6-.05c-1.09,0-1.54,2.93-.63,2.94s1.7,0,2.55,0,1.58.23,2.38.33c1,.14,1.61-2.8.62-2.93Z"/></g><g class="cls-5"><path class="cls-2" d="M10.93,6.53a32.5,32.5,0,0,1,1.69,3.52c.46,1.11.65,2.3,1.19,3.37.27.54.78.17,1-.18a2.57,2.57,0,0,0,.35-1.93A31.39,31.39,0,0,0,14,7.25c-.25-.63-.58-1.23-.86-1.84a7.62,7.62,0,0,0-.46-.9c-.06-.1-.13-.2-.2-.3s-.16-.48-.17,0c0-.42,0-1.33-.66-1.21s-.88,1.23-.89,1.7c-.07,2.08,1,3.83,1.6,5.77.28,1,.72,1.87,1,2.83a30.18,30.18,0,0,0,1.08,3c.29.63.9.05,1.09-.32a2.44,2.44,0,0,0,.17-2.06,59.22,59.22,0,0,0-2.13-5.66,11.29,11.29,0,0,1-.57-1.09c0-.07-.16-.37-.1-.41,0,.28,0,.35,0,.21s0-.08,0,.1c.05-.14.05-.14,0,0C13,7,13,7,12.91,7s.15-.18.18-.21c-.11.12.14-.1.13-.1a4.15,4.15,0,0,1,.34-.24c1.78-1.09,4.27-1,6.29-1,1.08,0,1.54-2.93.62-2.93-1.28,0-2.56,0-3.84,0a5,5,0,0,0-3,.48A2.23,2.23,0,0,0,12.9,4.6c0,.28,0,1.25.46,1.22a2.69,2.69,0,0,0,.7-.1,2.52,2.52,0,0,0,.57-.17h0c.13,0,.11,0-.06-.1s0-.2,0-.38c0-.39,0,0,0-.05-.08.14-.14.3-.21.44a4.48,4.48,0,0,0,.1,4.52c.33.5.72,1,1.07,1.45a13,13,0,0,1,1.14,2.06c.68,1.43,1.65,2.69,2.35,4.1.31.62.89.07,1.1-.31a2.47,2.47,0,0,0,.17-2.07c-.74-1.47-1.74-2.8-2.44-4.3a13.22,13.22,0,0,0-1.13-2,17.22,17.22,0,0,1-1.19-1.65c-.08-.14-.27-.76-.21-.18,0,.07-.13.25,0-.05.06-.12.12-.25.17-.37A5.31,5.31,0,0,0,16.05,4c-.05-.52-.21-1.31-.83-1.42-.44-.09-.81.25-1.24.27L13.77,5.7c.75-.48,1.82-.24,2.67-.24h3.41l.62-2.93c-2.45,0-5.72-.13-7.64,1.67a4.82,4.82,0,0,0-.92,5.57,26.53,26.53,0,0,1,1.31,3c.41,1.18.8,2.36,1.27,3.51l1.26-2.38a24.7,24.7,0,0,1-.88-2.5c-.3-.88-.71-1.72-1-2.61A22.67,22.67,0,0,0,13,6.26a5.51,5.51,0,0,1-.71-2.1l-1.55.49a3.62,3.62,0,0,0,.66,2.24c.38.62.63,1.31,1,2a20.26,20.26,0,0,1,1.32,4.31l1.36-2.11c-.53-1.07-.73-2.28-1.19-3.38a29.15,29.15,0,0,0-1.69-3.52c-.34-.58-.87-.09-1.1.32a2.37,2.37,0,0,0-.16,2.06Z"/></g><g class="cls-5"><path class="cls-2" d="M63.15,34.32c1.29-1.52,3.25-2.22,5-3.13a17,17,0,0,1,6-2.3,5.94,5.94,0,0,1,3.28.52,24,24,0,0,0,3,.66,29.19,29.19,0,0,0,3.35.81,10.22,10.22,0,0,1,3.17.77l.62-2.93a28.17,28.17,0,0,0-6.73-1.64,46.36,46.36,0,0,0-7.63-.41A12.58,12.58,0,0,0,67,27.8a4.26,4.26,0,0,0-1.86,1.65,9,9,0,0,1-.72,1.33A8.6,8.6,0,0,0,63.5,32a2.17,2.17,0,0,0,0,2.25c.73.79,2.35-.43,3.09-.71a15.83,15.83,0,0,1,7.25-.82c1.21.15,2.39.43,3.58.67s2.4.33,3.6.54a10.88,10.88,0,0,1,3.56,1.33c.47.27,1.94.62,2.17,1.05l.74-2.64a6.29,6.29,0,0,1-2.34-.36A23.73,23.73,0,0,0,82.6,33c-1.77-.15-3.52-.52-5.29-.63-3.7-.23-7.42,0-11.12,0-1.09,0-1.53,2.94-.62,2.94,3.84,0,7.74-.29,11.58,0,1.83.16,3.65.49,5.49.64,1.48.12,3.14.9,4.6.6.88-.18,1.07-2,.74-2.65s-1.07-.8-1.75-1.07c-1-.39-1.84-1.06-2.85-1.42a18.75,18.75,0,0,0-3.8-.72c-1.28-.18-2.53-.5-3.8-.73a18,18,0,0,0-7.08.16,10.67,10.67,0,0,0-2.49.74c-.28.13-1.51.87-1.75.61l0,2.25c.24-.42.68-.74.94-1.15s.31-.63.48-.93a3.83,3.83,0,0,1,2.21-1.54c2-.73,4.28-.53,6.38-.52a34.93,34.93,0,0,1,6.46.54,27.11,27.11,0,0,1,6,1.5c.84.38,1.58-2.46.62-2.93a10.91,10.91,0,0,0-3.37-.8c-1.29-.19-2.52-.65-3.78-1-.57-.13-1.15-.15-1.71-.28a9.48,9.48,0,0,1-1.36-.56A7,7,0,0,0,73.9,26c-2.29.37-4.16,1.53-6.19,2.56A15.58,15.58,0,0,0,62.57,32a2.5,2.5,0,0,0-.44,2.08c.18.59.62.69,1,.22Z"/></g><g class="cls-5"><path class="cls-2" d="M60.07,35.42q0,.31,0,.63c0,.13-.11.49,0,0,0,.1,0,.21,0,.32l-.08.32c-.06.26.13-.39,0,0l-.12.3c-.08.24.16-.31,0,0a2.49,2.49,0,0,1-.15.28c-.07.12-.06.1,0-.06l-.09.13-.21.25,0,0-.12.11a1.42,1.42,0,0,1-.51.33.66.66,0,0,1-.53,0,1.34,1.34,0,0,1-.47-.3l-.12-.13a.27.27,0,0,1-.07-.08l0,0a5.38,5.38,0,0,1-.6-.88c-.35-.51-.82-1.35-1.5-1.47-.45-.09-.82.58-.92.93a5,5,0,0,0-.17,2.3.69.69,0,0,0,.42.54c.23,0,.47-.16.6-.32a2.79,2.79,0,0,0,.44-2.08,1.23,1.23,0,0,1-.07.63l-.92.93a.65.65,0,0,0,.13,0s-.13-.1,0,0a3.83,3.83,0,0,1,.29.28.81.81,0,0,1,.12.14.39.39,0,0,1,.08.1s-.09-.14,0-.05l.28.39a7,7,0,0,0,1.1,1.48c1.86,1.55,3.59-.91,4.21-2.48a9.44,9.44,0,0,0,.6-3.11,1.94,1.94,0,0,0-.15-.95.45.45,0,0,0-.52-.26c-.58.2-.87,1.15-.89,1.69Z"/></g><g class="cls-5"><path class="cls-2" d="M26.1,42.76c1.9-3.74,5.57-6.1,9.47-7.35,2.27-.72,4.55-.44,6.88-.44a20.25,20.25,0,0,1,6.62.7l.62-2.94a23.45,23.45,0,0,1-3.19-.57,19.68,19.68,0,0,0-3.76-.1,24.35,24.35,0,0,0-7.32,1.35c-1.11.38-2,1.16-3.08,1.62a6,6,0,0,0-2.26,1.79c-1.37,1.69-2.94,2.92-2.44,5.33.05.24.29.67.62.52a16.41,16.41,0,0,0,2.33-1.53,12.06,12.06,0,0,1,3-1.37A47.83,47.83,0,0,1,40,37.83a19.35,19.35,0,0,1,6.66,0c1.81.33,3.64,1,5.49.45.87-.26,1.09-2,.74-2.65l-.14-.28c-.3-.62-.88,0-1.09.32a2.41,2.41,0,0,0-.17,2.06l.14.28.74-2.64c-2,.58-4-.37-5.93-.59a21.6,21.6,0,0,0-6.22.16,47.38,47.38,0,0,0-6.38,1.94A15.47,15.47,0,0,0,31.07,38c-.9.51-1.65,1.29-2.59,1.72l.62.53c-.36.88-.33,1.05.07.52.15-.14.3-.29.44-.44s.48-.54.71-.83A5.32,5.32,0,0,1,32.5,37.8c.77-.36,1.39-.88,2.13-1.26a14.36,14.36,0,0,1,2.74-.8A22.67,22.67,0,0,1,43.51,35a13.22,13.22,0,0,1,3,.26,13.74,13.74,0,0,0,2.55.44c1,0,1.63-2.6.62-2.94-2.41-.81-4.93-.65-7.44-.7a19.47,19.47,0,0,0-7.17.71A17.35,17.35,0,0,0,25.18,41c-.26.51-.56,1.53-.17,2.06s.85.16,1.09-.32Z"/></g><g class="cls-5"><path class="cls-2" d="M10.93,28.32a16.73,16.73,0,0,1,1.57,2,11.42,11.42,0,0,0,1.14,2c.55.7,1,1.47,1.49,2.18s1.29,1.35,1.85,2.11,1.16,1.61,1.73,2.42,1,1.69,1.55,2.44a9,9,0,0,0,.9.84,2,2,0,0,1,.45.75c.25.57.59,1.11,1.26,1.14.51,0,.76-.54.93-.93a4.11,4.11,0,0,0-.8-4c-.92-1.31-1.78-2.66-2.72-4-.55-.76-1.12-1.5-1.6-2.29s-.84-1.57-1.35-2.3-1.14-1.35-1.62-2.09a15,15,0,0,0-1.31-2.18c-.45-.48-1,.54-1.11.84a2,2,0,0,0,.12,1.91,12.77,12.77,0,0,1,1,1.8c.4.63.91,1.17,1.36,1.76,1,1.24,1.62,2.72,2.54,4s1.82,2.56,2.68,3.89c.26.39.55.76.82,1.15a7.39,7.39,0,0,1,.42.66,3,3,0,0,0,.18.36c.23.31-.41.7.12-.6l.93-.93c-.57,0-.58-.58-.81-1-.37-.7-1.12-1-1.51-1.69A45.9,45.9,0,0,0,18,33.85c-.52-.68-1.2-1.22-1.7-1.91s-.88-1.42-1.41-2.09a11.7,11.7,0,0,1-1.14-2,18.23,18.23,0,0,0-1.51-1.9c-.81-1.09-1.82,1.63-1.26,2.38Z"/></g><g id="oKv915.tif"><path d="M58.85,42.17a2,2,0,0,0-.74,0,4.59,4.59,0,0,1-2-.72,1.5,1.5,0,0,1-.62-.63c-.38-.61-1.12-.68-1.55-1.17a.42.42,0,0,0-.37-.12c-.6.15-1.28-.14-1.79.1-.79.37-1.68.18-2.44.61a1.18,1.18,0,0,1-.43.1c-.61.11-1.22.19-1.83.32-1.14.26-2.29.39-3.44.59-.41.07-.81.2-1.21.31a6.19,6.19,0,0,1-2.18.3,1.11,1.11,0,0,0-.89.21.39.39,0,0,1-.21.06,9.37,9.37,0,0,0-2,.36,7.46,7.46,0,0,0-1.71.48,18.26,18.26,0,0,1-2,.65,3.43,3.43,0,0,1-1.32.33.56.56,0,0,0-.37.13.56.56,0,0,1-.56.08c-.28-.21-.4-.12-.52.15s-.23.17-.38.09a.46.46,0,0,0-.66.12c-.11.15-.28.12-.4.13-.65.07-1.22.52-1.88.45s-.92.27-1.37.4A6,6,0,0,1,24,46c-.42,0-.92-.08-1.21.38s-.59.4-.89.54-.58-.16-.81-.36c-.56-.49-.81-1.21-1.31-1.73s-.67-1.47-1.25-2a1.35,1.35,0,0,1-.52-1,.22.22,0,0,0-.21-.24c-.08,0-.16,0-.19-.11a5.42,5.42,0,0,0-1.26-1.71c-.16-.2-.15-.44-.28-.65A11.16,11.16,0,0,0,15,37.44c-.2-.23-.15-.55-.2-.78-.08-.44-.42-.61-.65-.82a3.48,3.48,0,0,1-1-1.17c-.15-.3-.47-.48-.63-.8-.29-.57-.8-1-1.11-1.54a14.18,14.18,0,0,0-1-1.35c-.29-.38-.39-1-.95-1.17-.12,0-.12-.19-.14-.31a.74.74,0,0,0-.4-.56,1.31,1.31,0,0,1-.63-.74c-.07-.23-.28-.29-.4-.46a3.35,3.35,0,0,1-.79-1.47c0-.1-.12-.16-.2-.22a1.45,1.45,0,0,1-.56-.69,6.15,6.15,0,0,0-.84-1.24c-.55-.86-1.45-1.46-1.83-2.47-.11-.31-.48-.51-.71-.79s-.61-.79-.91-1.19A4.56,4.56,0,0,0,.67,18.35a1.19,1.19,0,0,1-.29-.21C.22,18-.11,17.89,0,17.59s.34-.71.75-.68a2.66,2.66,0,0,0,1.43-.48s0,0,0,0c1.12-.27,2.09-1,3.28-1.05.2,0,.4,0,.47.24a.37.37,0,0,1-.26.46,7.59,7.59,0,0,1-1.43.5,13,13,0,0,0-2.3,1c-.08,0-.16.13-.13.16.22.24,0,.59.31.87a6,6,0,0,1,1.08,1.16.61.61,0,0,1,.07.35c0,.21-.14.49.27.25.07,0,.11.05.16.12.36.51.66,1.07,1,1.59A8.27,8.27,0,0,0,6.07,23.4,4.52,4.52,0,0,1,7,24.79a21,21,0,0,0,1.62,2.5,18.35,18.35,0,0,0,1.2,1.47c.54.63,1.31,1.14,1.6,1.93a4.24,4.24,0,0,0,.91,1.41c.6.64.81,1.5,1.38,2.13a5.43,5.43,0,0,1,.57.62c.41.61,1.09,1,1.33,1.78.15.52.73.91,1,1.43.5,1.17,1.51,2,1.91,3.25.11.35.6.58.84.94a2.51,2.51,0,0,1,.32.48A10.85,10.85,0,0,0,21,44.89a2,2,0,0,0,.94.71,1.73,1.73,0,0,0,.95-.06c.52-.13,1.05-.18,1.55-.29A3.86,3.86,0,0,0,26,44.71a3.22,3.22,0,0,1,1.22-.34c.83-.22,1.68-.32,2.52-.52s1.64-.59,2.49-.76a7,7,0,0,0,1.87-.5c.37-.18.81-.12,1.14-.45a1.11,1.11,0,0,1,.66-.22,7.27,7.27,0,0,0,1.65-.42,2.35,2.35,0,0,1,1.57-.14.22.22,0,0,0,.24,0A2,2,0,0,1,40.63,41a2.54,2.54,0,0,0,1-.22c.62-.23,1.27-.19,1.89-.38a17.69,17.69,0,0,1,3.15-.6c.46-.05,1,0,1.33-.37a.15.15,0,0,1,.13,0c.57.18,1.1-.24,1.62-.19s1-.45,1.63-.25c.68-.44,1.53-.2,2.22-.57a.64.64,0,0,1,.84.17,15.75,15.75,0,0,0,2.28,2,2.4,2.4,0,0,0,2,.54A5.33,5.33,0,0,0,62.06,39a2.25,2.25,0,0,0,.43-1.07c0-.28,0-.64.47-.62a.59.59,0,0,1,.41.89,10,10,0,0,0-.56,1.3.93.93,0,0,1-.39.45c-.3.23-.48.6-.8.84a10.27,10.27,0,0,1-2.06,1.31A1.66,1.66,0,0,1,58.85,42.17Z"/><path d="M33.27,28.94a11.85,11.85,0,0,0,1.54-.13,2.89,2.89,0,0,1,1.47.27,5,5,0,0,0,1.08.13c.69.07,1.36.24,2,.33s1.64.21,2.47.27a6,6,0,0,1,1.78.42,2.1,2.1,0,0,0,.64.11,13,13,0,0,1,2.29.82,7.44,7.44,0,0,0,.78.2,2,2,0,0,1,1.08.46c.2.21.58.09.89.18a17.86,17.86,0,0,0,2.2.45,7.42,7.42,0,0,0,1.53.26,4.44,4.44,0,0,1,1.54.3,15.72,15.72,0,0,1,1.61.62.49.49,0,0,1,0,.89.83.83,0,0,1-1,0,5.94,5.94,0,0,0-2-.93,1.92,1.92,0,0,0-.76,0,1.27,1.27,0,0,1-.93-.21.16.16,0,0,0-.13,0c-1,.29-1.94-.23-2.92-.3a1.55,1.55,0,0,1-.74-.3c-.18-.12-.39-.06-.4.11,0,.4-.27.28-.41.2a17,17,0,0,1-1.49-.87,3.88,3.88,0,0,0-.48-.3c-.29-.13-.46-.2-.48.22,0,.21-.28.2-.4.31-.27.25-.56-.09-.81.08s-.48-.13-.67-.31a.57.57,0,0,0-.53-.15,2.39,2.39,0,0,1-1.4,0c-.14-.05-.22,0-.34.05a2.15,2.15,0,0,1-.56.12.33.33,0,0,1-.38-.25c0-.23.19-.18.32-.22a.59.59,0,0,0,.14,0c.1-.06.32.1.33-.11s-.21-.15-.32-.2a2.1,2.1,0,0,1-.63-.4c-.27-.26-.69-.18-1-.34-.09,0-.23,0-.3-.07a1.11,1.11,0,0,0-1.12-.08,4,4,0,0,1-1.26.17,9.52,9.52,0,0,0-2.77.4,18.8,18.8,0,0,0-2,1,7.84,7.84,0,0,0-2,1.26A1.85,1.85,0,0,0,28,34.45c0,.15,0,.33-.21.35s-.25-.17-.3-.33a1.23,1.23,0,0,1,.5-1.34,6.09,6.09,0,0,0,.74-.78c.05-.05.07-.14.13-.18a11.73,11.73,0,0,1,1.91-1.09,8,8,0,0,1,1.49-.61,1.44,1.44,0,0,1,.25-.08.43.43,0,0,0,.43-.26.2.2,0,0,0-.11-.23.46.46,0,0,0-.55.05.82.82,0,0,1-.56.22,8.69,8.69,0,0,0-2.34.61c-.55.21-1,.57-1.51.79s-.76.71-1.06,1.11a4.91,4.91,0,0,0-.77,1.71c-.06.24-.18.45-.43.44s-.28-.27-.34-.47a1.08,1.08,0,0,1,.13-.86c.32-.59.52-1.27,1.17-1.62a.31.31,0,0,0,.08-.11c.51-1.18,1.59-1.47,2.68-1.83.59-.2,1.19-.46,1.79-.65A4.46,4.46,0,0,1,33.27,28.94Zm6.94,1.71c.14.3.39.27.55.38a3,3,0,0,1,.46.48c.06.07.11,0,.19,0a1.09,1.09,0,0,1,1.46,0,1.67,1.67,0,0,0,1.35.24c.08,0,.16,0,.16-.12s-.08-.11-.14-.15a8.61,8.61,0,0,0-2.43-.67C41.32,30.66,40.78,30.75,40.21,30.65ZM34,29.84c.19.21.39.14.58.07,0,0,.05-.1,0-.11-.15-.17-.32-.07-.49,0A.88.88,0,0,0,34,29.84Z"/><path d="M85.62,38.94c-.18.06-.3.07-.36-.07s-.19-.13-.3-.06a1.17,1.17,0,0,1-.9.09c-.81-.09-1.62-.09-2.43-.18s-1.4-.25-2.1-.38c-.07,0-.12-.09-.17-.14a.39.39,0,0,0-.6-.1c-.5.33-1.05.06-1.57,0a4.14,4.14,0,0,0-.84-.09c-.48.09-.72-.45-1.17-.38-.86.16-1.72,0-2.6.11a6.38,6.38,0,0,1-2.19.09c-.54-.09-1.14-.09-1.71-.13-.81-.06-1.62-.18-2.43-.19a6.18,6.18,0,0,0-1.34.24,1,1,0,0,1-.87-.24c-.31-.26-.17-.45,0-.62a1,1,0,0,1,.87-.19c.3.18.42,0,.63-.07a5.46,5.46,0,0,1,1.89.07c.12,0,.22.15.34.09a1.76,1.76,0,0,1,1.26.08,4.87,4.87,0,0,0,1.37.07c1.08,0,2.15-.09,3.23-.15a6,6,0,0,1,.82.17c.64.07,1.31-.2,1.94.13a.44.44,0,0,0,.3,0c.11,0,.24-.1.31-.06.47.31,1,.05,1.5.19.3.08.67,0,1,0a2.76,2.76,0,0,1,1.35.37s.12.1.14.08c.59-.31,1.17,0,1.75,0s1.32.2,2,.17c1.08-.07,2.12.19,3.2.13a9.39,9.39,0,0,1,2.4.18,2.89,2.89,0,0,0,1.3-.06c.23-.07.24-.19.06-.3-.58-.33-1-.89-1.57-1.19a.72.72,0,0,1-.14-1c.14-.14.25-.19.42-.1a2.5,2.5,0,0,1,.65.39c.7.72,1.6,1.18,2.3,1.9,0,0,.09.12.12.11.2,0,.48-.25.47.17,0,.75-.22,1-.7,1.06a4.07,4.07,0,0,1-1.8-.18.51.51,0,0,0-.53,0,1.18,1.18,0,0,1-1,.1A9.16,9.16,0,0,0,88,39.06a2.07,2.07,0,0,0-1.13,0C86.39,39.24,86,39,85.62,38.94Z"/><path d="M5.82,3.23c.16-.1.46-.1.35-.42,0,0,0-.09.08-.09C7,2.73,7.4,2.1,8,1.88A7.66,7.66,0,0,1,9,1.63a3.46,3.46,0,0,0,.78-.21c.11,0,.23-.13.34-.06.36.25.64.06.95-.11a3.43,3.43,0,0,1,2-.38,1.64,1.64,0,0,0,1-.28A2.34,2.34,0,0,1,15,.22,24.11,24.11,0,0,0,17.52,0c.3,0,.63-.12.82.31.08.2.35.14.45-.09s.22-.19.45-.19c.5,0,1,.07,1.5,0a1.91,1.91,0,0,1,.91.16,3.31,3.31,0,0,0,1,.22c.36,0,.82,0,1,.46,0,.06.13.13.17.11a4.24,4.24,0,0,1,2.09.18c.26,0,.58-.12.75.29.05.11.49.07.75.07a.88.88,0,0,1,.56.13,8.22,8.22,0,0,0,2.31,1,7.82,7.82,0,0,1,1.77.65,1.1,1.1,0,0,0,.56.16c.13,0,.33,0,.3.19-.07.42.22.34.45.35a2,2,0,0,1,1.23.52.64.64,0,0,0,.46.09,9.4,9.4,0,0,1,1.42.29c1,.15,1.69.94,2.59,1.26.55.18,1,.47,1.59.66s1.11.2,1.52.72c.18.23.58.3.89.43.09,0,.22,0,.27.14.29.67.91,1.14,1.15,1.86a.2.2,0,0,1-.06.24c-.12.09-.25,0-.38,0s-.25-.09-.21-.24-.14-.29-.3-.42-.68-.36-.74-.81-.34-.36-.57-.4a9.65,9.65,0,0,1-1.81-.69c-.7-.31-1.39-.64-2.09-.93a1.59,1.59,0,0,1-.43-.22c-.52-.37-1.12-.6-1.65-1s-.9-.13-1.34-.29a11.41,11.41,0,0,1-1.77-.56,22.58,22.58,0,0,1-3.05-1.48c-.21-.16-.43-.08-.64-.14a16.59,16.59,0,0,1-2.21-.67c-.3-.14-.78-.1-.91-.55,0,0-.05,0-.07,0-.56.09-1-.35-1.62-.21a1.69,1.69,0,0,1-1.32-.31c-.18-.13-.35-.25-.57-.1a.18.18,0,0,1-.21,0C22.09.87,21.54,1,21,.9A3.09,3.09,0,0,1,19.71.55a.34.34,0,0,0-.46,0c-.3.44-.67.28-1,.12-.08,0-.15-.12-.23,0-.44.42-1,.25-1.48.21a7.66,7.66,0,0,0-2.57.31,31.53,31.53,0,0,1-3.85.75,1.14,1.14,0,0,0-.41.12,1.84,1.84,0,0,1-.75.24c-.41,0-.69.42-1.06.61A2.85,2.85,0,0,1,6,3.37.23.23,0,0,1,5.82,3.23Z"/><path d="M68.41,43.38c.07.45-.07.89,0,1.34s.17.55.58.42a3,3,0,0,0,.83-.31s.13-.08.17-.07c.48.22.78-.28,1.21-.29a.48.48,0,0,0,.35-.18c.06-.06.16-.18.19-.17.65.33,1.17-.61,1.85-.18.12.08.37-.1.58-.11a.67.67,0,0,1,.55.23,7.28,7.28,0,0,1,1,1.4.36.36,0,0,1,0,.21A4.37,4.37,0,0,1,75,48.35c-.23.28-.44.65-.92.52a.32.32,0,0,0-.2.08,1.1,1.1,0,0,1-1.41,0,2,2,0,0,1-.76-.91c0-.08-.11-.2-.08-.24.25-.4-.08-.67-.2-1a1,1,0,0,1-.06-.7c.09-.26-.11-.45-.16-.67s-.18,0-.27,0a.86.86,0,0,1-.54.16c-.74-.17-1.18.46-1.79.66a.26.26,0,0,0-.16.29c.16.52-.1,1,0,1.52a5.08,5.08,0,0,0,.55,1.3.37.37,0,0,0,.53,0,3.23,3.23,0,0,0,.67-.44c.14-.15.38-.28.56-.15s0,.35-.07.53c-.17.68-.87.71-1.28,1.06-.19.16-.74.05-1-.1a1,1,0,0,1-.63-1c0-.15,0-.27-.11-.35s-.11-.1-.1-.14c.15-.65-.34-1.25-.19-1.9.06-.25-.08-.31-.27-.26a2.1,2.1,0,0,1-.75,0,.45.45,0,0,1-.42-.45.45.45,0,0,1,.29-.5,1.66,1.66,0,0,1,.57-.12c.54-.06.7-.34.49-.83a1,1,0,0,1,0-.35,11.35,11.35,0,0,0-.12-1.75c-.05-.3.33-.61.81-.65.32,0,.38.16.42.44S68.37,43.06,68.41,43.38Zm6.48,3.22c.13-.55-.32-1.08-.4-1.7a.13.13,0,0,0-.17-.11c-.48.2-.89-.56-1.38-.09h0c-.4-.19-.38.06-.4.35s.12.86.13,1.27a1.89,1.89,0,0,0,.51,1.58s0,.06,0,.08c.24.22.54.35.8.12a7.45,7.45,0,0,1,.6-.52C74.88,47.34,74.92,47.05,74.89,46.6Z"/><path d="M90.26,29.89A10.11,10.11,0,0,1,87.71,29c-.31-.15-.66-.18-.88-.59-.12-.22-.63-.34-.93-.58-.1-.09-.25-.15-.3-.26-.23-.56-.73-.6-1.21-.67A8.34,8.34,0,0,0,83,26.64a4,4,0,0,0-1.29,0,2.07,2.07,0,0,1-1.45-.05c-.27-.1-.62,0-.78-.38,0,0-.12,0-.17,0a1.77,1.77,0,0,1-1.33.11c-.69-.21-1.45.11-2.09-.33,0,0,0,0,0,0-.33.22-.7-.11-1,.05,0,0-.11,0-.13,0-.34-.39-.71-.07-1,0s-.66-.34-.86-.25-.53.35-.79.27c-.68-.2-1.23.2-1.81.35s-1.34.2-2,.35a6.48,6.48,0,0,0-1.4.32c-.21.11-.32,0-.45-.09s-.45,0-.42.12c.12.37-.18.31-.33.37a9,9,0,0,1-1.47.62c-.2,0-.25.25-.26.43a.78.78,0,0,1-.34.6,24.83,24.83,0,0,0-2.5,2.42,4.47,4.47,0,0,0-.8,1.29.64.64,0,0,1-.61.43c-.29,0-.37-.07-.34-.44.06-.7.71-1,.95-1.52.15-.35.54-.58.44-1.05,0-.12.13-.14.2-.21.27-.26.66-.41.73-.86,0-.2.3-.23.46-.33.54-.33,1-.82,1.52-1.14s1.14-.53,1.67-.83a21.28,21.28,0,0,1,3.12-1,.29.29,0,0,0,.13-.05c.32-.23.66.47,1.07-.08.17-.23.82-.09,1.23-.18a8.19,8.19,0,0,1,1.31-.37.94.94,0,0,1,.57,0c.31.16.63-.11,1-.11a6.46,6.46,0,0,1,2.65.21c.57.29,1.15.12,1.66.4a.36.36,0,0,0,.39,0c.4-.41.77-.07,1.13.05a1.24,1.24,0,0,0,.51.13,5.86,5.86,0,0,1,1.87.05,11,11,0,0,0,1.52-.05h0c.33.47.74.11,1.12.12a2.38,2.38,0,0,1,1.23.65c.6.44,1,1.09,1.85,1.27.33.07.55.47.9.62a1.66,1.66,0,0,0,.59.15,2.14,2.14,0,0,1,1.63.93c.09.11,0,.21-.12.23A2.52,2.52,0,0,1,90.26,29.89Z"/><path d="M82.21,54.1a5,5,0,0,0-.1,1c0,.46-.19,1,.34,1.42.3.21.15.58.22.87a3,3,0,0,1,0,1.77c0,.06,0,.14,0,.17.33.43.11,1,.25,1.42,0,.09,0,.19.13.22.3.13.31.42.37.66a1.18,1.18,0,0,0,1,.9c.07,0,.15,0,.18.09s0,.15-.12.21a.82.82,0,0,1-1.19,0,4.7,4.7,0,0,1-1.33-2c-.13-.31-.29-.35-.52-.09a.76.76,0,0,0-.11.14,1.6,1.6,0,0,1-1.94.85c-.22-.05-.42-.1-.62.12s-.85,0-1.06-.3a5.41,5.41,0,0,1-.77-1.4,6.5,6.5,0,0,0-.86-2.08c0-.06-.12-.15-.1-.19.21-.4-.19-.63-.25-.94s0-.79-.12-1.16a1.08,1.08,0,0,1,0-.77.46.46,0,0,1,.36-.3c.23,0,.17.17.22.26a2.62,2.62,0,0,1,.35,1.77c0,.07,0,.18,0,.22.34.33.3.84.57,1.2a.76.76,0,0,1,.15.55c-.09.61.29,1,.6,1.43.1.14.21.24.11.43-.19.39.14.48.37.63s.32.13.38,0,.27-.46,0-.76a1.33,1.33,0,0,1-.08-1.53c.19-.34.39-.68.56-1a2.28,2.28,0,0,1,1.68-1.2c.36-.08.54-.21.28-.58-.07-.09,0-.2,0-.3s.08-.22,0-.3c-.36-.76.11-1.46.15-2.19,0-.21.05-.47.39-.41a.58.58,0,0,1,.5.54C82.23,53.65,82.21,53.86,82.21,54.1Zm-.77,3.8a.54.54,0,0,0-.22-.43c-.13-.08-.25,0-.36.08s-.19.09-.28.14c-.54.29-.75.87-1,1.34s0,.84.11,1.23a.85.85,0,0,0,.75.56c.37,0,.44-.26.53-.54a.7.7,0,0,1,.31-.37.48.48,0,0,0,.2-.48A3.94,3.94,0,0,1,81.44,57.9Z"/><path d="M58.85,2.7c.47.25.9-.07,1.36-.19a3.74,3.74,0,0,1,1.56-.16c.24,0,.48-.18.76-.2a11.52,11.52,0,0,1,2.26-.26.89.89,0,0,0,.49-.14,3.63,3.63,0,0,1,1.55-.36c.74,0,1.48-.07,2.22-.08a2.51,2.51,0,0,1,1.37.13c.21.12.56,0,.8.23.08.09.17-.06.21-.16a.33.33,0,0,1,.41-.2c.42.15.86,0,1.28.16a1.22,1.22,0,0,0,1,0,.29.29,0,0,1,.38.05.55.55,0,0,0,.66.11,4.76,4.76,0,0,1,2,0,8.68,8.68,0,0,0,1.25,0c.28,0,.51.05.6.26s.29.46,0,.64-.5.35-.78.15a2.55,2.55,0,0,0-2.12-.23,1.23,1.23,0,0,1-.57-.07c-.51-.15-1.06.09-1.55-.22-.36.27-.69,0-1-.08a4.33,4.33,0,0,0-1.52-.08,7.87,7.87,0,0,1-1.38,0,10.85,10.85,0,0,0-2.21,0c-.7,0-1.39.19-2.09.21s-1.57.45-2.39.45c-.65,0-1.29.27-1.9.22a7.91,7.91,0,0,0-2.62.49,12,12,0,0,0-2.59.72,4.93,4.93,0,0,1-1.39.38,1.67,1.67,0,0,0-.69.29,10.43,10.43,0,0,1-2,.82c-.26.1-.33.43-.65.4,0,.24-.2.22-.32.3a2.66,2.66,0,0,0-.68.53,2.12,2.12,0,0,1-.79.57,4.67,4.67,0,0,0-2,2.16,3.6,3.6,0,0,0-.42.83c-.09.36-.45.35-.7.39s-.27-.28-.13-.4a4.11,4.11,0,0,0,.87-1.73A1.64,1.64,0,0,1,48.09,8a6.74,6.74,0,0,0,1.5-1.27c.22-.26.59-.25.87-.45a10.37,10.37,0,0,0,.85-.63,1.54,1.54,0,0,1,1-.49c.2,0,.36-.19.54-.3a9.29,9.29,0,0,1,2.45-.95,6.74,6.74,0,0,1,1.88-.42c.18,0,.33,0,.38-.25a.27.27,0,0,1,.06-.11C58.08,3.13,58.4,2.76,58.85,2.7Z"/><path d="M83.16,16a1.23,1.23,0,0,0-.56-1,1.85,1.85,0,0,1-.7-1.55.2.2,0,0,0-.08-.19,2.7,2.7,0,0,1-1-2.1c0-.06,0-.15,0-.17-.5-.28-.43-.89-.75-1.28-.16-.2-.12-.54-.26-.67-.45-.45-.54-1.12-1-1.53a.64.64,0,0,1-.22-.33c-.16-.71-.8-1.14-1-1.8a5.59,5.59,0,0,0-.9-1.48.3.3,0,0,1,0-.38c.1-.14.21,0,.31,0,.51.24.73.74,1,1.16a12.18,12.18,0,0,0,1.35,2.16c.14.13.16.37.24.57a19,19,0,0,0,1.15,2.13,8.91,8.91,0,0,1,1,2.15c.3,1.17,1.13,2.05,1.5,3.16A5.11,5.11,0,0,0,84,16.22a4.46,4.46,0,0,1,.61,1.34c.16.5.51.83.68,1.28a21.08,21.08,0,0,0,1.17,1.93c.23.43.65.76.73,1.29,0,.07.08.12.14.17a13.64,13.64,0,0,1,2.2,3.12,4,4,0,0,0,.92,1.24,1.5,1.5,0,0,1,.4.67,4.12,4.12,0,0,0,.77,1.13,5.41,5.41,0,0,1,.58.94c0,.09,0,.18,0,.22s-.48.32-.71.12a2.32,2.32,0,0,1-.88-1.39,2.27,2.27,0,0,0-.58-1c-.3-.41-.54-.86-.85-1.26a5,5,0,0,0-.43-.49c-.8-.85-1-2-1.85-2.91a12.34,12.34,0,0,1-1.59-2.25,9.37,9.37,0,0,1-.9-1.79A8.09,8.09,0,0,1,83.71,17c0-.08-.13-.17-.21-.22A.76.76,0,0,1,83.16,16Z"/><path d="M79.73,28c.39-.1.73-.33,1,0,.06.07.23,0,.32-.1s.25-.13.29.1.16.1.24.06.23-.13.33,0c.53.55,1.32.51,1.93.88a1.18,1.18,0,0,1,.19.11c.32.36.9.4,1.1.91,0,.1.19.14.31.16s.22.11.29,0-.16-.14-.16-.3a4.17,4.17,0,0,1,1.8,1,.75.75,0,0,0,.73.2.57.57,0,0,1,.73.27.21.21,0,0,0,.34.1c.47-.42.66.1.92.28s.28.41.42.62a.32.32,0,0,1,0,.45.29.29,0,0,1-.42-.11.93.93,0,0,0-.66-.4A2.62,2.62,0,0,1,88,31.52a2.69,2.69,0,0,0-1.2-.3.44.44,0,0,1-.32-.13c-.34-.3-.92-.19-1.17-.67-.58.18-.87-.41-1.34-.53s-.86-.56-1.35-.72a5.23,5.23,0,0,0-1.22-.44.68.68,0,0,1-.33-.13,1.6,1.6,0,0,0-1.36-.34,1.13,1.13,0,0,1-.39-.08,1.06,1.06,0,0,0-.87.06s-.11.06-.12.05c-.27-.28-.49.1-.77.05a1.68,1.68,0,0,0-.94,0c-.43.17-.94-.09-1.32.28-.13.11-.31.08-.48.1s-.2,0-.26,0c-.54.43-1.21.29-1.82.42a1,1,0,0,0-.32.14c-.16.09-.32.18-.48,0s-.11-.11-.15-.06c-.32.51-.78.38-1.24.27a.39.39,0,0,0-.21,0c-1.31.66-2.71,1.08-4,1.72-.44.22-.83.5-1.24.74-.17.1-.35.07-.52.18a8.56,8.56,0,0,0-1.35.94c-.3.27-.7.16-1,.29-.14.06-.26,0-.26.26s-.27.37-.38.57a.12.12,0,0,1-.19,0c-.08-.08-.16-.16-.12-.28s.12-.45.27-.55a9.75,9.75,0,0,1,1-.83A18.06,18.06,0,0,0,65,30.8,2.63,2.63,0,0,1,67.2,30c.22,0,.33-.22.46-.2.28,0,.53-.26.87,0,.15.11.47-.15.66-.35s.24-.32.45-.34a11.35,11.35,0,0,1,2.25-.36c.44.06.88-.11,1.33-.06a.46.46,0,0,0,.41-.15l0,0c.73-.11,1.31-.65,2-.72l1-.11a20,20,0,0,1,2.68-.22C79.84,27.48,79.89,27.55,79.73,28Z"/><path d="M42.45,34.42c.26-.29.53-.22.81-.24a10.8,10.8,0,0,0,2.66-.24c.08,0,.2-.07.26,0,.61.39,1.14-.1,1.71-.15a1.35,1.35,0,0,1,.69.08,1.16,1.16,0,0,0,.8,0,3,3,0,0,1,2.58.34,5.23,5.23,0,0,0,2.29.76c.33.05.63.13.54.59a.55.55,0,0,1-.64.45,3.27,3.27,0,0,1-1.39-.67c-.28-.2-.75-.21-.8-.7-.55-.06-1.08-.41-1.67-.21-.09,0-.18.16-.28.09-.64-.46-1.29-.05-1.93,0A2.45,2.45,0,0,1,47,34.4c-.13-.06-.23,0-.34,0a8.42,8.42,0,0,1-2.45.33.72.72,0,0,1-.47-.11.25.25,0,0,0-.26,0c-.62.37-1.2.09-1.78-.1-.08,0-.15-.05-.22,0-.46.31-1,.14-1.51.36a.8.8,0,0,1-.57,0,.5.5,0,0,0-.54.24c-.08.12,0,.41.06.37.28-.1.58.09.75,0a2.35,2.35,0,0,1,1.61,0,7.72,7.72,0,0,1,2,.16,1.14,1.14,0,0,1,.36.15c.19.18.32.35.61.07s.5,0,.76.11c.06,0,.14.12.17.11.46-.25.82,0,1.21.2a1.84,1.84,0,0,0,.74.09c.58,0,.91.54,1.39.77.17.08.08.71-.08.85-.37.31-.66.32-.87,0a1.86,1.86,0,0,0-1.22-.8c-.51-.11-.85-.6-1.44-.58a4.51,4.51,0,0,1-.82,0A8.5,8.5,0,0,1,41.65,36a1.9,1.9,0,0,0-.88-.12c-.61.1-1.24-.12-1.83.16a.24.24,0,0,1-.22,0c-.59-.5-1.15,0-1.72.08-.18,0-.37.09-.56.1s-.27,0-.32-.1a.34.34,0,0,1,.14-.39,6.23,6.23,0,0,1,1.74-1c.56-.19,1.11-.43,1.67-.59a3.43,3.43,0,0,1,1.5-.22,7.32,7.32,0,0,0,.94,0C42.34,34,42.64,34,42.45,34.42Z"/><path d="M56.61,31c.08-.15.12-.26-.13-.21s-.25-.12-.28-.23a3.19,3.19,0,0,0-.77-1.36,5.85,5.85,0,0,1-.75-1.37c-.29-.59-.54-1.21-.84-1.8-.1-.2-.2-.43-.47-.49-.11,0-.16-.13-.12-.2.15-.34-.13-.53-.28-.69s-.4-.41-.37-.74a.12.12,0,0,0-.05-.12c-.66-.32-.75-1-1-1.57a4.36,4.36,0,0,0-.94-1.52c-.26-.26-.23-.71-.46-1-.05-.07-.07-.21-.12-.22-.61-.14-.65-.66-.74-1.1s-.56-.75-.72-1.2-.58-.68-.75-1.1-.41-.38-.6-.59c-.45-.48-.72-1.12-1.17-1.55s-.5-1-.94-1.38c-.19-.16,0-.32.12-.46s.23-.13.34,0a2.21,2.21,0,0,1,.55.64,2.19,2.19,0,0,0,.64.77.74.74,0,0,1,.35.63c0,.27.31.36.47.53.41.46.75,1,1.14,1.44A8.59,8.59,0,0,1,50,18.33a10.63,10.63,0,0,0,.68,1,1.56,1.56,0,0,1,.27.53.84.84,0,0,0,.41.65c.25.13.34.43.47.68a15.89,15.89,0,0,0,1.27,2.42c.66.91,1.2,1.88,1.79,2.82.37.59.63,1.28,1,1.9s.72,1,1,1.62a19.38,19.38,0,0,1,.92,1.89,1.18,1.18,0,0,0,.38.59.53.53,0,0,1,.14.61c-.06.23-.31.33-.51.38s-.33-.13-.38-.35a5.38,5.38,0,0,0-.68-1.53A1.56,1.56,0,0,1,56.61,31Z"/><path d="M59.16,46a1.29,1.29,0,0,1,1.29,1.18c0,.28.22.51.25.81a20.12,20.12,0,0,1,0,2.69A4.27,4.27,0,0,1,60,53a1.83,1.83,0,0,1-2.16.65.78.78,0,0,1-.46-.94c.07-.19.14-.2.3-.12a2.34,2.34,0,0,0,.62.24c.34.07.7.12.82-.36a.24.24,0,0,1,.09-.15c.66-.5.48-1.28.61-2,.06-.28.21-.58,0-.89,0-.09,0-.24-.17-.28s-.22.06-.29.16l-.57.8s0,.11-.07.11c-.46,0-.75.44-1.16.46a3.36,3.36,0,0,1-1.37-.36c-.2-.08-.12-.22,0-.34s.17-.29,0-.28-.23-.19-.27-.38a3.58,3.58,0,0,1,.26-1.69,1.83,1.83,0,0,1,1.2-1.08,9,9,0,0,0,1.41-.57A.44.44,0,0,1,59.16,46Zm-2.19,3c.07.21.06.52.37.66s.43.24.62,0a4.57,4.57,0,0,0,1.27-2.08c.09-.39-.07-.46-.41-.48C57.64,47.13,57.16,48,57,49.05Z"/><path d="M43.19,46.41c.05.24-.08.51.12.73a.2.2,0,0,1,0,.17c-.31.65.1,1.23.18,1.84a5.32,5.32,0,0,1,.16,1.43c0,.16.12.23.22.31s.34.25.49.39a.35.35,0,0,1,.09.51c-.14.21-.27.3-.51.22a4.07,4.07,0,0,1-1.2-.59c-.18-.14-.32-.17-.4.09a.72.72,0,0,1-.37.38c-.4.2-.43.71-.85.9a2.11,2.11,0,0,1-1.51-.06c-.37-.11-.39-.63-.51-1a4.66,4.66,0,0,1-.14-2,1.74,1.74,0,0,1,1-1.66,2,2,0,0,0,.68-.59.39.39,0,0,1,.47-.15.61.61,0,0,0,.3,0A.78.78,0,0,0,42,46.26a3.53,3.53,0,0,1,0-1.71c.05-.21.26-.27.46-.3s.26.13.29.27C42.84,45.16,43.29,45.72,43.19,46.41Zm-2.64,5.35a.51.51,0,0,0,.56-.21c.07-.1.18-.09.28-.09s.7-.46.8-.69a.94.94,0,0,0,0-1c-.05-.07,0-.17,0-.26.3-.52-.29-.85-.29-1.31,0,0-.16-.09-.24-.07a1.35,1.35,0,0,0-.63.19,5,5,0,0,0-.81.85.86.86,0,0,0-.23.69c0,.45,0,.89,0,1.34S40,51.76,40.55,51.76Z"/><path d="M86,48.17a2.11,2.11,0,0,1-1.31-.65c-.38-.37-.76-.29-.93.24a1.85,1.85,0,0,1-.31.63c-.43.55-1,.37-1.52.3a.63.63,0,0,1-.51-.54,10.49,10.49,0,0,1-.38-1.54c0-.06,0-.16,0-.17.39-.27.11-.57.07-.86s.25-.45.33-.72a2.5,2.5,0,0,1,2.26-1.78c.37,0,.51.26.63.54a1.2,1.2,0,0,0,.45.67c.29.18.26.59.39.88a6.36,6.36,0,0,0,.71,1.6,1.11,1.11,0,0,0,1.44.36,1.65,1.65,0,0,1,.78-.2c.07,0,.15,0,.2.06s0,.18-.07.24a1.89,1.89,0,0,0-.42.62c-.08.19-.24.35-.44.12s-.19-.07-.31,0A2.15,2.15,0,0,1,86,48.17ZM83.86,46c0-.34-.19-.66,0-.92s-.1-.35-.21-.47-.35-.31-.54-.14a1.86,1.86,0,0,0-.55.68,5.76,5.76,0,0,0-.31,1.79c0,.28.52.62.75.47C83.53,47,83.59,46.4,83.86,46Z"/><path d="M69.88,31.09c1.1,0,1.9-.24,2.72-.31.06,0,.16,0,.17,0,.35.45.69.12,1,0a2.53,2.53,0,0,1,1.39.07.73.73,0,0,0,.48,0,.54.54,0,0,1,.71.09c.14.16.29,0,.41,0a.76.76,0,0,1,.75.11.47.47,0,0,0,.53.07c.29-.08.65-.2.85.22.06.13.17.08.27,0a1.35,1.35,0,0,1,1,0c.4.28.78.15,1.16.21s.84-.08,1.19.2c0,0,.06,0,.09,0,.7-.39,1.31.14,2,.24s1.29.52,2,.36c.11,0,.32,0,.35,0,.33.68,1,.22,1.5.42.33.13.62.46,1,.42a1.37,1.37,0,0,1,.52.1c.42.13.52.47.6.86s-.14.3-.25.42a.23.23,0,0,1-.38,0c-.12-.16-.31-.2-.42-.33a4,4,0,0,0-2.61-1c-.69-.1-1.4-.12-2.09-.29-.09,0-.21,0-.25-.07-.41-.55-1.06-.37-1.59-.46-.25,0-.49-.15-.74-.2-.75-.14-1.49.08-2.25-.08-.51-.11-1-.29-1.55-.36a2.9,2.9,0,0,0-.61-.08,1,1,0,0,1-.81-.44c-.21-.27-.31-.29-.46,0s-.16.28-.44.2a6.13,6.13,0,0,0-1.06-.05.79.79,0,0,1-.22-.05c-.21-.09-.44-.44-.64,0-.29-.19-.59,0-.86.05a10.31,10.31,0,0,0-2,.14,1.65,1.65,0,0,1-1.36.09c-.08-.05-.14,0-.21,0s-.17.11-.24.1c-.81-.14-1.35.58-2.09.67a1.45,1.45,0,0,0-.87.22c-.1.09-.22-.11-.3-.21s0-.2.08-.26a1.49,1.49,0,0,1,.41-.26C67.91,31.59,68.94,31,69.88,31.09Z"/><path d="M41.22,64.1c.24-.26.08-.57,0-.88s.22-.41.29-.63a3.41,3.41,0,0,1,2.57-2.05.46.46,0,0,1,.53.14.26.26,0,0,0,.33,0c.18-.09,0-.19,0-.3-.13-.78-.48-1.49-.64-2.26,0,0,0-.08,0-.12a.71.71,0,0,1,.29-.9.68.68,0,0,1,.77.51c.09.37.42.74.08,1.18a.51.51,0,0,0,.12.68.87.87,0,0,1,.28.63,14.47,14.47,0,0,0,.4,1.47c.09.48,0,1,.31,1.45s-.05.7,0,1.06c0,.16-.17.22-.29.13s-.51-.26-.63-.53-.32-.18-.45,0-.41.61-.62.92a1.43,1.43,0,0,1-1.79.69,1.85,1.85,0,0,1-1.43-.84A.59.59,0,0,1,41.22,64.1Zm3.93-1.49c0-.14,0-.25,0-.35-.06-.48-.43-.92-.79-.84s-1.11.08-1.42.63c-.13.22-.19.5-.37.65a.58.58,0,0,0-.12.83c.23.35.32.88.91.84a1.11,1.11,0,0,0,.87-.54c.15-.23.3-.49.55-.58A.49.49,0,0,0,45.15,62.61Z"/><path d="M36.35,51.33c-.09.26-.17.57.38.69.32.07.56.47,1,.25a1,1,0,0,1,.18,0c.23,0,.57-.11.61.14s-.24.45-.5.54c-.56.19-1.18,0-1.72.3-.23-.28-.64-.34-.81-.69s-.41-.48-.7-.13a3,3,0,0,1-1.19,1.07.29.29,0,0,1-.33,0c-.44-.25-.89-.45-1-1,0-.13-.13-.26-.08-.39.17-.44,0-.92.2-1.36.15-.28.17-.63.54-.77s.12-.2,0-.28-.21-.21,0-.32a.81.81,0,0,0,.3-.58.93.93,0,0,1,.78-.71,7.93,7.93,0,0,1,1.54-.12c.42,0,.51.5.57.84a11.22,11.22,0,0,1,.12,1.74C36.16,50.77,36.42,50.94,36.35,51.33ZM34.78,49.6c.13-.43,0-.61-.27-.7s-.34.13-.46.28a2,2,0,0,0-.24.33,2.44,2.44,0,0,0-.64,1.71,1,1,0,0,1,0,.56c-.11.31.28.37.39.59s.17,0,.2-.06c.27-.35.72-.55.82-1s.43-.65.39-1.07C34.94,50,34.68,49.74,34.78,49.6Z"/><path d="M85.51,58.7A3.31,3.31,0,0,1,86,56.19c.18-.39.56-.37.84-.52a1.59,1.59,0,0,1,2.19.46.7.7,0,0,1-.18,1.12c-.14.1-.28.16-.26.4s-.26.4-.45.52a2.88,2.88,0,0,1-.68.34.33.33,0,0,0-.25.41,4.41,4.41,0,0,0,.21.87c.29.57.73.66,1.31.35a2.22,2.22,0,0,0,.79-.66.43.43,0,0,1,.56-.17c.2.12-.14.32,0,.51-.56.26-.61,1-1.3,1.21a2.45,2.45,0,0,1-2.49-.59A4.21,4.21,0,0,1,85.51,58.7Zm2-2.28a.56.56,0,0,0-.59.61.71.71,0,0,1-.08.47c0,.08-.08.18,0,.23a.3.3,0,0,0,.21,0c.39-.1.56-.42.75-.72C88.16,56.51,88.13,56.46,87.53,56.42Z"/><path d="M28.07,58.8c0,.27.13.35.37.32a.29.29,0,0,1,.3.46c-.3.33-.07.61,0,.86a3.19,3.19,0,0,1,.16.85,21.63,21.63,0,0,0,.39,2.39c0,.14,0,.3.2.31s.18-.13.26-.25c.31-.45.32-1.11,1-1.34.33-.11.55-.34.86.08a7.51,7.51,0,0,1,.58.78c0,.06.1.15.08.2-.21.51.23.83.35,1.25A5,5,0,0,1,32.74,66c0,.32-.2.36-.5.2-.52-.28-.57-.83-.75-1.29-.12-.3-.24-.61-.37-.9s-.33-.28-.4,0c-.13.52-.51.92-.58,1.48a2.45,2.45,0,0,1-.56,1.05.31.31,0,0,1-.39.13.58.58,0,0,1-.37-.57c0-.29-.29-.59,0-.86a.1.1,0,0,0,0-.09c-.59-.25-.13-.84-.37-1.19a2.07,2.07,0,0,1-.29-1.33,8.28,8.28,0,0,0-.12-2c-.09-.52-.07-1-.13-1.54A.24.24,0,0,1,28.07,58.8Z"/><path d="M54.77,47.57c-.13.18,0,.35.08.52a.82.82,0,0,1,.12.63.37.37,0,0,0,.16.48c.57.24.31.78.44,1.18a.84.84,0,0,1,0,.47c-.06.15,0,.48-.2.42s-.53-.11-.44-.49-.28-.56-.4-.86a6,6,0,0,0-.36-1c-.2-.32-.34-.67-.55-1s-.45-.32-.7,0a5,5,0,0,0-.9,1.76A12.47,12.47,0,0,1,51.47,51a.65.65,0,0,1-.59.35c-.3,0-.25-.24-.32-.4a2.08,2.08,0,0,1-.13-1.43.39.39,0,0,0,0-.26,12.3,12.3,0,0,1-.79-2c-.09-.25-.2-.57.14-.74a.65.65,0,0,1,.91.39,5.55,5.55,0,0,1,.4,1.7c0,.18.09.24.22.29s.23,0,.31-.13a1.55,1.55,0,0,0,.27-.75,1.24,1.24,0,0,1,.65-.92c.22-.17.49-.25.63-.54s.75-.18.86,0a3.52,3.52,0,0,0,.69.75A.24.24,0,0,1,54.77,47.57Z"/><path d="M30.81,49.37c-.18.92-.37,1.85-1.44,2.2a.41.41,0,0,0-.31.36,3.45,3.45,0,0,0,.27,2,.84.84,0,0,0,.55.41.25.25,0,0,0,.3-.11c.28-.36.59-.7.89-1,.1-.12.23-.3.4-.13s0,.28-.13.4a1.87,1.87,0,0,0-.48.83c0,.11,0,.25-.12.28-.46.14-.75.54-1.17.73A.46.46,0,0,1,29,55c-.09-.12-.21-.29-.4-.13s-.13.24-.26.07-.35-.25-.23-.49a.72.72,0,0,0-.11-.82c-.15-.21,0-.52,0-.78a.86.86,0,0,0-.45-.93c-.41-.22-.41-.57,0-.78s.53-.57.65-.94a6.09,6.09,0,0,0,.25-1.2,1,1,0,0,1,1.25-.73c.08,0,.16.08.24.1s.4-.16.49.06S30.86,49,30.81,49.37Zm-.78,0c-.53,0-.64.37-.84.65-.08.1-.17.25,0,.35s.28,0,.39-.09A4.85,4.85,0,0,0,30,49.32Z"/><path d="M56.87,64.5a1.59,1.59,0,0,1-1.33-1.1,3,3,0,0,1-.12-1.87c.15-.38-.1-.8,0-1.23s.39-.58.73-.51a2.39,2.39,0,0,0,1.22-.15,1.8,1.8,0,0,1,1.9.81,3.5,3.5,0,0,1-.5,3.13A2.32,2.32,0,0,1,56.87,64.5Zm0-4.39c-.17,0-.15.14-.17.22a9.84,9.84,0,0,0-.18,1.52c0,.4.32.77.24,1.21l0,0A1.5,1.5,0,0,0,58,63.3a2.07,2.07,0,0,0,.73-1.88c-.12-.62-.27-.75-.9-.8a.49.49,0,0,0-.21,0C56.92,60.89,56.81,60.82,56.83,60.11Z"/><path d="M74.26,63.19a2.26,2.26,0,0,1-1.18-.6c-.49-.34-.6-.9-.87-1.36s-.68-.39-1-.61c-.12-.09-.37-.09-.3-.32s.23-.23.43-.23a.94.94,0,0,0,1-.73,3.32,3.32,0,0,1,.75-1.17,1.77,1.77,0,0,1,1.42-.51,1.22,1.22,0,0,1,.71,1.46,2.06,2.06,0,0,1-.92,1.21c-.33.15-.32.65-.73.77-.09,0,0,.22,0,.33a2.37,2.37,0,0,1,.15.65c0,.45.52.3.78.48s.42,0,.51-.25a.74.74,0,0,1,.56-.46c.21-.06.34.11.22.24C75.4,62.57,75.08,63.24,74.26,63.19Zm.07-4.53a.89.89,0,0,0-.77.83c0,.08-.06.18,0,.23s.17,0,.24-.06A1.15,1.15,0,0,0,74.33,58.66Z"/><path d="M24.9,61.74c.81,0,.87,0,.87.51,0,.29-.15.26-.35.26a1.88,1.88,0,0,0-1.36.47,2.12,2.12,0,0,0-.56,1.32c0,.3.12.61-.1.9a.13.13,0,0,0,0,.12c.42.54.66,1.25,1.57,1.23.27,0,.46.06.66-.17s.53,0,.67-.27.67-.57.86-1c.09-.21.37-.33.57-.49s.2-.1.27,0a.19.19,0,0,1-.08.27c-.45.12-.47.53-.62.86s-.6.55-.95.73c-.16.08-.31.1-.3.31a.4.4,0,0,1-.17.3,1.92,1.92,0,0,1-2,0,1.09,1.09,0,0,0-.33-.23,1.52,1.52,0,0,1-.94-1.8c0-.07,0-.15,0-.2-.38-.27-.22-.6-.07-.89a6.11,6.11,0,0,1,.68-1.22A3,3,0,0,1,24.9,61.74Z"/><path d="M94.71,55.3c-.21.12-.49.13-.51.46,0,0-.13.06-.2.06-1,0-2.37,1.57-1.57,2.69.19.26.18.65.32,1s-.28.38-.16.7a2.42,2.42,0,0,1-1.75-1.87,3.85,3.85,0,0,0-.7-1.76.58.58,0,0,1-.14-.46c0-.18,0-.39.2-.46s.3.08.41.25c.29.44.6.43,1,.06a4.62,4.62,0,0,1,1.64-.63A3.14,3.14,0,0,1,94.71,55.3Z"/><path d="M35,36.43a.85.85,0,0,0-.56.1,11.35,11.35,0,0,1-1.77.56c-.44.16-.87.35-1.32.51A10.32,10.32,0,0,0,29,39a.75.75,0,0,1-.12.07,3.51,3.51,0,0,0-2,1.71c-.1.14-.19.29-.38.09a.46.46,0,0,0-.78.05,10.74,10.74,0,0,1-1.54,1.62.53.53,0,0,1-.36.17c-.17,0-.38.09-.48-.12a.41.41,0,0,1,.18-.51c.19-.14.34-.35.61-.33.1,0,.18,0,.17-.15s.13-.22.27-.19a.51.51,0,0,0,.57-.33,2.54,2.54,0,0,1,1.71-1.35.26.26,0,0,0,.15-.09c.35-.54,1-.71,1.45-1.08.27-.21.66-.13.95-.36a4.07,4.07,0,0,0,.67-.54,2.91,2.91,0,0,1,1-.53c.57-.28,1.26-.31,1.74-.78.2-.2.42,0,.69-.09a9.64,9.64,0,0,1,2-.56c.12,0,.29-.08.35.09s-.09.22-.24.25S35.31,36.63,35,36.43Z"/><path d="M41.29,65.08a.93.93,0,0,0-.13.27c0,.23.07.54-.25.59a.92.92,0,0,1-.81-.39c-.33-.41-.74-.82-.66-1.42,0-.29-.21-.38-.33-.54a4.53,4.53,0,0,1-.46-1.68,2.23,2.23,0,0,0-.31-.86c-.3-.4,0-.8.08-1.19,0-.18,0-.29-.12-.36a.4.4,0,0,1-.23-.55A1,1,0,0,0,38,58.3c-.06-.2-.13-.47.1-.61s.29-.33.55-.2a.63.63,0,0,1,.37.62c0,.26.1.53,0,.79a.06.06,0,0,0,0,0c.29.54,0,1.19.38,1.71a.13.13,0,0,1,0,.07c0,.69.39,1.29.4,2a1.89,1.89,0,0,0,.43.89c.08.12.16.19.1.35a.76.76,0,0,0,.85,1.12S41.21,65.06,41.29,65.08Z"/><path d="M28.61,35.2A.68.68,0,0,0,29,35a2.45,2.45,0,0,1,1-.6A4,4,0,0,1,31.5,34a.34.34,0,0,0,.21-.15c.09-.1.18-.16.31-.08a.23.23,0,0,1,.12.27.36.36,0,0,1-.24.24c-.45.2-.9.44-1.36.63a13.2,13.2,0,0,0-1.78,1.15,6.74,6.74,0,0,0-1.08,1.12c-.17.19-.37.35-.54.53s-.4.11-.56,0,0-.29.09-.41a.33.33,0,0,0,.12-.32c0-.07,0-.12-.1-.14a.1.1,0,0,0-.13.09c0,.55-.5.6-.79.72a2.42,2.42,0,0,0-1.13,1c-.06.09-.14.16-.2.25s-.2.13-.34.07-.17-.21-.13-.33a.9.9,0,0,1,.31-.58c.36-.25.5-.77,1.08-.75.16,0,.38-.26.51-.41.39-.45,1-.56,1.39-.94a.27.27,0,0,1,.2-.08c.34,0,.51-.15.7-.39S28.3,35,28.61,35.2Z"/><path d="M21.29,50.54c-.07.18.08.24.17.33a1.71,1.71,0,0,1,.51.92c.05.37.37.63.59.92.06.09.16.06.19-.06.21-.73.88-1.2,1.13-1.85s.77-.7.95-1.23c.09-.26.47-.11.71-.18.07,0,0,.16-.05.19-.37.15-.43.71-.92.71-.06,0-.09.09-.06.14.33.56-.33.74-.44,1.12,0,.06-.16.09-.17.19a19.22,19.22,0,0,0-.44,2.61v0c0,.36-.06.78-.44.84s-.45-.36-.57-.65c-.31-.79-.61-1.59-.93-2.37,0-.09-.07-.17,0-.25s0-.32-.15-.39c-.51-.21-.47-.73-.65-1.12-.08-.18.12-.25.28-.24S21.4,50.25,21.29,50.54Z"/><path d="M62,60.14c.77-.33,1-1,1.51-1.51.5.46.11.81-.11,1.11a3.21,3.21,0,0,0-.57,1.47,5.08,5.08,0,0,1-.17,1.34c-.05.13-.15.33-.25.23s-.58.29-.67-.25c-.11-.71-.3-1.4-.46-2.11a14.14,14.14,0,0,1-.48-1.34c0-.26,0-.36.22-.44a.6.6,0,0,1,.84.58C61.88,59.52,62.18,59.76,62,60.14Z"/><path d="M47,48a6.14,6.14,0,0,0,0,2.18.75.75,0,0,0,1,.64c.17-.06.37-.17.48,0s-.13.29-.25.41a1.5,1.5,0,0,1-1.07.43.91.91,0,0,1-.93-.61c-.09-.3-.29-.53-.38-.84a.85.85,0,0,1,0-.69c.34-.45.15-1,.25-1.44a1.49,1.49,0,0,0,.11-.84c0-.1.14-.21.29-.24s.18,0,.27.15A1.33,1.33,0,0,1,47,48Z"/><path d="M34.75,63.05a3.57,3.57,0,0,0,.39,1.39c.1.31.2.63.31.93s.22.63.66.38a.29.29,0,0,1,.34,0c.1.11-.05.21-.07.32a1.06,1.06,0,0,1-.48.62c-.17.12-.41.26-.53-.09,0-.08-.07-.18-.14-.15-.46.19-.49-.24-.5-.44s-.36-.33-.43-.59a10.18,10.18,0,0,1-.4-1.65,1.89,1.89,0,0,1-.06-.89c.11-.32.18-.54.54-.48S34.81,62.73,34.75,63.05Z"/><path d="M22.22,31.62c.06.29.26.76,0,.85s-.67-.27-.85-.57a4.34,4.34,0,0,1-.53-1.08,2,2,0,0,0-.46-.68c-.34-.41-.7-.79-1.06-1.18a13.2,13.2,0,0,1-1.64-2.25,6.12,6.12,0,0,0-.95-1.41,3.28,3.28,0,0,1-.36-.67c-.1-.16,0-.24.1-.32s.18,0,.25.11a6.53,6.53,0,0,1,1.1,1.79,3.68,3.68,0,0,0,.55.76C19.2,28,20,29.1,20.84,30.14a7.62,7.62,0,0,1,1,1.31c.09.18.23.16.38.18Z"/><path d="M19.44,34.67c-.14.07-.36.16-.4,0-.13-.57-.74-.75-1-1.24a8.94,8.94,0,0,0-.77-1.27,14.54,14.54,0,0,0-1.31-2,2.41,2.41,0,0,1-.69-1.27c0-.06,0-.14-.06-.17a5,5,0,0,1-.9-1.24,2,2,0,0,1-.42-.67c-.12-.43-.63-.64-.65-1.14,0-.07-.14-.15,0-.22s.19,0,.25.11a2,2,0,0,1,.38.55c.24.78,1,1.22,1.28,2,.15.41.58.72.8,1.15.09.18.32.28.2.53s0,.13.1.14.22.18.29.31c.34.61.66,1.23,1,1.82.25.4.52.8.79,1.18s.63.5.84.88a3.14,3.14,0,0,1,.24.57Z"/><path d="M10.68,15.3c.56-.22.7.33.83.59A26.56,26.56,0,0,0,13,18.41c.44.68,1,1.33,1.34,2,.47.88,1.14,1.63,1.57,2.53a3.62,3.62,0,0,0,.27.41,1.35,1.35,0,0,1,.3.78l-.13.06c-.23-.42-.49-.82-.69-1.24a2,2,0,0,0-.28-.36c-.34-.4-.63-.85-.93-1.28-.05-.09-.05-.23-.12-.28a2.89,2.89,0,0,1-.65-.93c-.26-.43-.61-.81-.9-1.23a26.25,26.25,0,0,1-1.41-2.39,8.24,8.24,0,0,0-.69-1.23Z"/><path d="M22.23,31.63c-.26-.47-.36-1-.86-1.34-.26-.16-.17-.53-.32-.72-.44-.52-.63-1.19-1.07-1.72-.29-.35-.41-.84-.73-1.15a1.25,1.25,0,0,1-.44-1c0-.08-.08-.16-.11-.23h0c.37,0,.38.34.49.57a2.14,2.14,0,0,0,.57.93.4.4,0,0,1,.13.33.39.39,0,0,0,.09.33,12,12,0,0,1,1.74,2.46,18.42,18.42,0,0,1,1.6,2.42,14.76,14.76,0,0,0,1.12,2.07c.09.12.2.34.05.44s-.34,0-.49-.13a.63.63,0,0,1-.17-.2c-.24-.64-.64-1.2-.92-1.82-.18-.4-.17-1-.68-1.23Z"/><path d="M17.85,28.71a.25.25,0,0,1,.21.15,8.94,8.94,0,0,1,1,1.92c.07.29.48.42.62.73a1.62,1.62,0,0,0,.3.39,34.81,34.81,0,0,1,2.05,3c.17.2.11.49.3.69,0,0,0,.11-.06.15a.2.2,0,0,1-.21,0c-.19-.1-.29-.29-.43-.44a7.67,7.67,0,0,1-1.17-1.86,13,13,0,0,0-.84-1.33A13.55,13.55,0,0,1,18.21,30a5.15,5.15,0,0,0-.5-1C17.59,28.77,17.71,28.74,17.85,28.71Z"/><path d="M17.57,28.43s-.05.09-.08.1-.16,0-.23-.1a4.77,4.77,0,0,1-.9-1.15,4,4,0,0,1-.72-1.52c0-.11-.19-.07-.25-.15a7.31,7.31,0,0,1-1.1-1.67,2.28,2.28,0,0,0-.59-.86,1.74,1.74,0,0,1-.38-.6.13.13,0,0,1,.06-.19.16.16,0,0,1,.2,0,14.18,14.18,0,0,1,1.57,2.12,9.2,9.2,0,0,1,1.18,1.83,14.56,14.56,0,0,0,1.14,2A.65.65,0,0,0,17.57,28.43Z"/><path d="M33.25,33.2c.21.1.41,0,.64-.2.56-.44,1.34-.25,1.93-.63h0c.3.35.53.33.92,0s.68-.11,1-.34a1.17,1.17,0,0,1,.32-.15c.24-.07.34.07.37.27s-.09.27-.29.29a4.29,4.29,0,0,0-1.4.34c-.23.11-.49.32-.79.1-.09-.07-.15,0-.22.06s-.17.17-.26.12c-.46-.24-.78.19-1.18.21-.63,0-1.13.58-1.8.44-.09,0-.19.06-.24-.06a.21.21,0,0,1,.11-.23A1.23,1.23,0,0,1,33.25,33.2Z"/><path d="M13.43,21.94c0,.12,0,.19-.15.14s-.3.2-.37-.11a5,5,0,0,0-1-1.89,2.85,2.85,0,0,1-.26-.59c-.48-.9-1.25-1.61-1.66-2.56-.05-.11-.2-.24,0-.34a.26.26,0,0,1,.4.15c.38.94,1.15,1.65,1.58,2.56a20.15,20.15,0,0,0,1.4,2.43A1.33,1.33,0,0,1,13.43,21.94Z"/><path d="M10.69,15.29c-.18-.66-.73-1.1-1-1.69s-.88-1.34-1.18-2.1a9.49,9.49,0,0,0-.6-.91.4.4,0,0,1-.08-.33c0-.08,0-.19.12-.22s.14.08.19.14A5.49,5.49,0,0,1,9,11.8c.37.84,1,1.52,1.39,2.31.21.39.45.73.25,1.19Z"/><path d="M10,16.1a.18.18,0,0,1-.11.22c-.11,0-.1-.05-.14-.12C9.34,15.38,8.6,14.83,8.16,14a7.58,7.58,0,0,0-.87-1.11c-.08-.1-.17-.17-.19-.3s-.07-.46-.38-.52c-.09,0-.24-.14-.16-.27s.21-.05.31,0a1.28,1.28,0,0,1,.49.4c.49.88,1.21,1.62,1.66,2.55a11.45,11.45,0,0,0,.82,1C9.89,15.91,10,16,10,16.1Z"/><path d="M12.08,28.28A1,1,0,0,1,11,27.54a1.53,1.53,0,0,0-.42-.72,1.88,1.88,0,0,1-.46-.59c0-.12-.11-.22-.26-.2a.21.21,0,0,1-.26-.13,7.26,7.26,0,0,0-.91-1.35c-.07-.12-.2-.24-.07-.36s.27,0,.35.15c.5.67.94,1.39,1.49,2s1,1.34,1.62,1.95Z"/><path d="M20.15,39.45a1.64,1.64,0,0,1,.47.64,14.22,14.22,0,0,1,.89,1.56c0,.12.13.26,0,.35a.27.27,0,0,1-.36-.07,2.2,2.2,0,0,1-.85-1.62c0-.29-.35-.54-.11-.87Z"/><path d="M15.75,33.39c.07,0,.13.07.16.11A16.84,16.84,0,0,0,17,34.81a10.13,10.13,0,0,1,.72,1c.11.14.2.31,0,.43s-.23-.1-.33-.2C17,35.6,16.78,35,16.25,34.6c-.28-.19-.26-.64-.6-.84a.22.22,0,0,1,0-.28A.48.48,0,0,1,15.75,33.39Z"/><path d="M9.57,19.64c-.33,0-.35-.28-.49-.45A5.49,5.49,0,0,1,8,17.8a3.54,3.54,0,0,0-1.16-1.53.23.23,0,0,1-.08-.35c.14-.15.23,0,.33.09a4.11,4.11,0,0,1,.78,1c.54.79,1,1.6,1.55,2.41a2.6,2.6,0,0,1,.1.25Z"/><path d="M48.21,45.43c0,.3-.33.33-.53.31s-.64-.12-.73-.5c0-.17.49-.63.69-.61S48.21,45.11,48.21,45.43Z"/><path d="M20.94,36.6a.61.61,0,0,1,.16.13,3.77,3.77,0,0,1,.95,1.34c0,.07.07.14,0,.21s-.15.07-.24,0l0,0a2.3,2.3,0,0,1-1-1.45C20.77,36.65,20.81,36.58,20.94,36.6Z"/><path d="M4.8,8.56c.15.53.67.78.87,1.28A3.82,3.82,0,0,0,6.41,11c.12.13.25.26.09.39s-.33,0-.42-.18c-.3-.55-.59-1.12-.88-1.68,0-.08-.08-.2-.14-.22C4.64,9.21,4.72,8.89,4.8,8.56Z"/><path d="M12.07,28.29c.32.57.91.95,1.18,1.56.05.13.22.26.05.39a.28.28,0,0,1-.39-.13A4.09,4.09,0,0,0,12,28.93c-.24-.3-.09-.45.09-.65Z"/><path d="M36.06,59.47c0,.37-.08.54-.39.55s-.71-.4-.64-.62a.58.58,0,0,1,.65-.48C36.09,59,36,59.29,36.06,59.47Z"/><path d="M6.41,7.62a.42.42,0,0,1,.32.18,10.79,10.79,0,0,1,1.1,1.81.22.22,0,0,1,0,.27.17.17,0,0,1-.18.1c-.14,0-.12-.16-.11-.26.06-.58-.43-.86-.7-1.25-.15-.22-.42-.34-.44-.65C6.34,7.71,6.32,7.61,6.41,7.62Z"/><path d="M13.23,17.05a3.28,3.28,0,0,1,.93,1.37c.08.16.4.38.2.52s-.27-.23-.4-.36A2.85,2.85,0,0,1,13.23,17.05Z"/><path d="M11.6,22.82c-.39,0-.52-.42-.7-.63a6,6,0,0,1-.77-1.61c.15.39.76.49.65,1.07,0,.09.19.35.4.45a.72.72,0,0,1,.41.73Z"/><path d="M19.43,34.68a.52.52,0,0,1,.32.23,2.29,2.29,0,0,0,.71,1,.51.51,0,0,1,.2.5,1.92,1.92,0,0,1-1.22-1.69Z"/><path d="M7.46,22.43a.35.35,0,0,1,.31.2l.73,1.11c.06.08.09.18,0,.24s-.2,0-.25-.1a4.78,4.78,0,0,0-.89-1.16c-.06,0-.14-.1-.09-.17S7.41,22.46,7.46,22.43Z"/><path d="M19.06,37.74c-.68-.15-.89-.43-.92-1.3.27.46.88.67.91,1.31Z"/><path d="M11.59,22.83c.17,0,.32.05.38.24a2.23,2.23,0,0,0,.52.77c.19.22.14.41-.09.63-.1-.35-.13-.67-.54-.77-.13,0-.18-.26-.13-.43a.48.48,0,0,0-.13-.45Z"/><path d="M19.05,37.75c.48.1.54.59.8.88a2.84,2.84,0,0,1,.3.82h0c-.13,0-.22.05-.27-.13a1.65,1.65,0,0,0-.65-1c-.22-.13-.06-.4-.18-.57Z"/><path d="M5.31,5.48A3.15,3.15,0,0,1,6.2,7.32a3.23,3.23,0,0,1-.88-1.85Z"/><path d="M18.11,24c-.31.1-.38-.18-.52-.33A1.63,1.63,0,0,1,17,22.54a3.68,3.68,0,0,0,.91,1c.16.11.16.28.18.44Z"/><path d="M18.7,25.45a5.94,5.94,0,0,0-.73-1c-.19-.22.14-.32.14-.51h0c.17.5.7.87.59,1.48Z"/><path d="M4,11.4a3.79,3.79,0,0,1-.84-1.11A1.31,1.31,0,0,1,4,11.4Z"/><path d="M15.74,20.8c.17.25.34.5.5.76.05.08.08.22,0,.28s-.18,0-.22-.14c-.13-.28-.25-.56-.37-.84Z"/><path d="M6.66,21.23c-.37-.1-.87-.66-.86-.93C6.26,20.47,6.36,20.94,6.66,21.23Z"/><path d="M4.75,18.87a2.68,2.68,0,0,0,.58.5.31.31,0,0,1,.11.32.19.19,0,0,1-.16.14c-.19,0-.18-.15-.19-.25S4.67,19.29,4.75,18.87Z"/><path d="M13.18,25c0,.1,0,.2-.16.18-.28-.05-.37-.26-.41-.51,0-.09,0-.22.12-.18A.7.7,0,0,1,13.18,25Z"/><path d="M38.85,32.34c-.08,0-.2,0-.15-.1s0-.46.29-.51c.1,0,.24,0,.22.15A.47.47,0,0,1,38.85,32.34Z"/><path d="M15.41,33.2c-.16-.1-.42-.09-.44-.36,0-.09,0-.23.11-.19a.69.69,0,0,1,.45.4C15.58,33.14,15.51,33.19,15.41,33.2Z"/><path d="M5.93,14.23l.42.69C5.81,14.82,5.71,14.66,5.93,14.23Z"/><path d="M4.74,12.53a1.84,1.84,0,0,1,.54.75A.73.73,0,0,1,4.74,12.53Z"/><path d="M14.77,32.26c-.21-.14-.42-.27-.41-.63A.69.69,0,0,1,14.77,32.26Z"/><path d="M9.56,19.65c.13.18.26.35.38.53s.1.14,0,.2-.15,0-.21,0a.59.59,0,0,1-.19-.72Z"/><path d="M10.69,13.34c.05.22.6.31.14.66C10.8,13.76,10.53,13.61,10.69,13.34Z"/><path d="M5.32,5.47c-.18,0-.41,0-.43-.29A.14.14,0,0,1,5,5c.27,0,.24.25.27.44Z"/><path d="M14.19,31.6c-.27-.24-.51-.37-.37-.76A2.16,2.16,0,0,1,14.19,31.6Z"/><path d="M4,17.47a.65.65,0,0,1,.26.74C4.24,18,4,17.82,4,17.47Z"/></g></g></g></svg>