<?xml version="1.0" encoding="utf-8"?>
<!-- Generator: Adobe Illustrator 25.3.1, SVG Export Plug-In . SVG Version: 6.00 Build 0)  -->
<svg version="1.1" id="Layer_1" xmlns="http://www.w3.org/2000/svg" xmlns:xlink="http://www.w3.org/1999/xlink" x="0px" y="0px"
	 viewBox="0 0 38.6 49.8" enable-background="new 0 0 38.6 49.8" xml:space="preserve">
<g id="Layer_2_1_">
	<g id="Layer_1-2">
		<path fill="#FFFBF3" d="M5.3,12.5c0.3,0,0.6,0.1,0.9,0.2c0.2,0,0.4,0,0.7,0c0.6,0,1.1-0.1,1.7-0.3c0.5-0.2,1-0.3,1.5-0.4
			c0.5-0.1,1-0.1,1.5-0.3s1-0.2,1.4-0.4c0.4-0.2,0.9-0.4,1.4-0.5c0.5-0.1,1-0.2,1.5-0.2c0.5-0.1,1.1,0.1,1.5,0.4
			c-0.2,0.1-0.6,0.2-0.8,0.3s-0.3,0.2-0.5,0.3s-0.3,0-0.5,0c-0.3,0-0.6,0.2-1,0.2c-0.3,0-0.7,0-1,0c-0.6,0.1-1.3,0.2-1.9,0.4
			c-0.3,0.1-0.6,0.2-0.9,0.3c-0.2,0-0.4,0-0.6,0c-0.2,0.1-0.4,0.2-0.6,0.3c-0.6,0.3-1.3,0.4-1.9,0.7C7.2,13.8,6.5,14,5.8,14
			c-0.7,0-1.3,0.2-2,0.5c-0.3,0.2-0.3,0.4-0.8,0.4s-0.8-0.1-0.9,0.4c0.1,0.2,1,0.3,1.2,0.4s0.8-0.1,1.2,0c-0.4,0.1-0.7,0.2-1.1,0.2
			c-0.2,0.1-0.5,0.1-0.7,0.1c0.5,0,0.9,0,1.4-0.1c0.6-0.1,1.1-0.3,1.7-0.4c1.3-0.3,2.7-0.5,4-0.6c0.7,0,1.4-0.2,2.1-0.2
			c0.5,0,1,0,1.5,0c0.8,0,1.6,0,2.3,0c0.3,0,0.6,0.1,0.9,0.1c0.5,0.1,1,0,1.5,0.1c0.4,0.1,0.8,0.2,1.2,0.3c0.4,0,0.7,0.1,1.1,0.2
			c0.7,0.1,1.5,0.1,2.2,0c0.7,0,1.3,0.2,2.1,0.2c-0.4,0-0.8,0-1.1,0c-0.3,0.1-0.5,0.2-0.8,0.3c-0.3,0-0.7,0-1,0c-1,0.1-2,0.2-3,0.3
			c-0.2,0-0.5,0.1-0.7,0.2c-0.3,0.1-0.7,0.2-1,0.2c-0.5,0.1-1,0.1-1.6,0.1c-0.9,0.1-1.8,0.5-2.7,0.5s-1.8,0-2.7,0
			C9.1,17.4,8,17.6,7,17.9C6.6,18,6.2,18,5.8,18.1c-0.4,0.1-0.8,0.2-1.3,0.2c-0.5,0-0.9,0.1-1.4,0.2c-0.4,0.1-0.8-0.1-1.1,0
			c0,0.3,1.2,0.6,1.5,0.6c0.6,0.1,1.2,0,1.7,0.1c1.2,0.1,2.4,0.2,3.6,0.1c1.2,0,2.5-0.2,3.7-0.2c0.6,0,1.1,0,1.7,0s1.1,0.2,1.7,0.2
			c0.3,0,0.7,0,1,0s0.8,0.2,1.2,0.2c0.8,0,1.5,0,2.3,0h2.1c0.4,0,1.9,0.2,2.1-0.1c-0.4-0.1-0.9-0.1-1.4,0c-0.3,0.1-0.5,0.2-0.8,0.3
			s-0.4,0-0.6,0c-1.1,0.2-2.3,0.6-3.4,0.9c-0.4,0.1-0.9,0.1-1.4,0.1c-0.5,0-0.9,0.1-1.4,0.2c-0.5,0-1.1,0-1.6,0.1
			c-0.5,0.1-1.1,0.1-1.6,0.1c-1,0-2,0-2.9,0.2c-0.2,0-0.4,0.1-0.6,0.2s-0.4,0-0.6,0c-0.4,0.1-0.8,0.4-1.2,0.5C6.5,22,5.7,22,5,22
			c-0.7,0-1.4,0-2.1,0c0.6,0.1,1.2,0.2,1.9,0.2h11.6c0.8,0,1.5-0.1,2.2-0.2c0.4-0.1,0.7,0,1.1-0.1c0.4-0.1,0.9-0.1,1.3-0.1
			c0.9,0,1.8-0.2,2.6-0.2c0.7-0.1,1.4-0.1,2,0.2c-0.5,0.2-1,0.4-1.4,0.6c-0.6,0.2-1.1,0.3-1.7,0.4c-1.1,0.1-2.2,0.1-3.2,0.1
			c-1.1,0-2.2,0.1-3.3,0s-2.4-0.2-3.6-0.2c-1.1,0.1-2.3,0.2-3.4,0.5c-0.8,0.2-1.6,0.2-2.4,0.5c-0.3,0.1-0.6,0.2-1,0.3
			S4.9,24,4.5,24.1c-0.7,0.2-1.3,0.7-2,0.9c0.9,0.5,1.8,0.8,2.9,0.9c1.4,0.1,2.8,0,4.3,0.1c1.7,0.1,3.4,0.1,5.1,0
			c1,0.1,2.1,0.1,3.1-0.1c0.7-0.1,1.4-0.1,2.1-0.1c0.7,0,1.3-0.2,2-0.2c0.8,0,1.6-0.1,2.3-0.3c0.4-0.1,0.7-0.3,1.1-0.4
			s0.6,0,0.8-0.1c-0.5-0.3-1-0.4-1.5-0.4c-0.4-0.1-0.8-0.1-1.1-0.1c-1.9,0-3.7,0-5.6,0c-0.8,0-1.7,0-2.5,0.1c-0.8,0.1-1.6,0-2.5,0
			c-0.6,0-1.1,0.2-1.6,0.2s-0.9,0-1.4,0c-1.3,0-2.3,0.8-3.5,1.3c-0.5,0.3-1.1,0.4-1.8,0.5c-0.4,0-1.2-0.3-1.6-0.2
			c-0.5,0.4-0.7,1.1-0.5,1.7c0.4,0.9,1.8,0.8,2.6,0.7c1.8-0.1,3.5-0.4,5.3-0.7s3.8-0.4,5.6-0.7c0.6,0,1.2,0,1.8,0c0.5,0,1,0,1.6,0
			s1.1-0.2,1.6-0.3c0.5,0,0.9-0.1,1.3-0.2c0.5-0.2,0.6-0.4,1.2-0.4c0.5-0.1,1-0.1,1.5,0c0.1,0.5-0.5,1-0.8,1.2
			c-0.8,0.4-1.7,0.7-2.5,0.8c-1.9,0.1-3.9,0.1-5.8-0.1c-1.6-0.1-3.1,0.1-4.6,0.5c-1.2,0.3-2.4,0.4-3.6,0.6c-0.7,0.1-1.4,0.1-2.1,0.2
			c-0.3,0-0.8-0.1-1.1,0.1S4.2,30.2,4,30.4c-0.2,0.1-0.4,0.3-0.7,0.4c0.4,0.7,2,0.6,2.7,0.7c2,0.2,4,0.1,6,0.1
			c1.4,0,2.8-0.1,4.2-0.3c0.6-0.1,1.3,0,2-0.1s1.5-0.4,2.3-0.5c0.7-0.1,1.4-0.2,2.2-0.1h1.5c0.2,0,0.5,0,0.8,0s0.8-0.3,0.9-0.2
			c-1.2,0.5-2.4,0.8-3.6,1.1c-1.1,0.2-2.2,0.2-3.3,0.1c-1.1,0-2.3,0.3-3.5,0.4c-1.1,0.1-2.3,0.3-3.4,0.5c-1,0.2-2.1,0.6-3.1,0.7
			s-1.9,0.4-2.9,0.5c-0.6,0.1-1.1,0.1-1.7,0.2c-0.6-0.1-1.2-0.1-1.7,0c0.7,0.6,1.7,0.9,2.6,0.8c1,0,2,0.2,2.9,0.2h5.2
			c0.9,0.1,1.8,0,2.7-0.2c0.7-0.2,1.5-0.4,2.2-0.5c0.7-0.1,1.5-0.2,2.2-0.2c0.8,0,1.6-0.1,2.3-0.2c0.4-0.1,1.7-0.2,1.9,0
			c-0.3,0.8-1,1.4-1.8,1.5c-1.1,0.4-2.3,0.6-3.5,0.9s-2.2,0.2-3.4,0.4c-0.2,0.1-0.4,0.1-0.6,0.1c-1.2,0.1-2.5,0-3.8,0H6.8
			c-0.7,0-1.5,0-2.2,0.1c-0.3,0-0.5,0-0.8,0c-0.3,0.1-0.7,0.2-1,0.4c-0.2,0.7,6.1,0.8,6.3,0.8c1.4,0,2.9,0.2,4.3,0.2s2.6-0.2,4-0.2
			c0.7,0,1.4,0,2.1,0c0.9,0,1.9-0.2,2.8-0.2c1.2,0,2.5,0,3.8,0c-0.6,0.2-1.2,0.4-1.8,0.5c-1,0.3-2,0.5-3.1,0.8
			c-0.9,0.3-1.9,0.4-2.8,0.6c-0.8,0.1-1.6,0.1-2.4,0.1h-1.9c-0.7,0-1.4-0.2-2.1-0.2c-1.3,0-2.6,0-3.9,0.2c-0.9,0.1-1.7,0.3-2.6,0.4
			c-0.5,0-2-0.3-2.2,0.3c0,0.2,0,0.4,0,0.5c0,0.2-0.1,0.4-0.2,0.7c-0.1,0.3,0,0.5,0.1,0.8c0.3,0.3,1.6,0.2,2,0.2
			c0.8-0.1,1.6-0.2,2.5-0.3c1.6-0.2,3.1-0.3,4.7-0.5c1.4-0.2,2.8-0.2,4.2-0.2h8.4c0.3,0,0.9,0.1,1.1,0c0.6-0.3,0.3-1.4,0.2-1.8
			c-0.1-0.7-0.3-1.4-0.4-2.1c-0.1-0.5,0-1-0.1-1.5s-0.2-1.2-0.3-1.9c-0.2-1.4-0.2-2.8-0.1-4.1c0-1.7-0.1-3.5-0.5-5.2
			c-0.2-0.7-0.4-1.5-0.5-2.2c-0.1-0.9-0.1-1.7,0-2.6c0.1-0.6,0.1-1.2-0.1-1.8c-0.4-0.5-1-0.8-1.7-0.9c-0.6-0.1-1.3,0-1.9,0.1
			c-0.7,0.1-1.4,0.3-2,0.6c0.6,0.1,1.3,0.1,1.9,0c0.8,0,1.5,0.4,1.9,1c0.6,1.3,1,2.7,1.1,4.1c0.2,1.1,0.3,2.2,0.3,3.3
			c0,1,0.1,2,0.1,2.9c-0.1,2,0,4,0.2,6c0.1,0.5,0,1,0.1,1.5s0.2,0.7,0.2,1.1c0.1,0.5,0.2,0.9,0.2,1.4c-0.1,0.5-0.2,1-0.3,1.4
			c0,0.2,0,0.4-0.1,0.5c-0.2,0.3-0.6,0.5-1,0.5l-1.4,0.2c-0.8,0-1.5,0-2.3,0c-0.5,0-1.1,0.1-1.6,0.2c-0.4,0.1-0.9,0.2-1.2,0.5
			c0.4,0.5,2.2,0.3,2.8,0.1c-0.3-0.9-2.1-0.7-2.8-0.8c-0.4,0-0.9,0-1.3,0c-1-0.1-2-0.3-2.9-0.6c-0.8-0.2-1.7-0.3-2.5-0.5
			c-1-0.2-2-0.3-3-0.4c-0.4,0-0.8,0.1-1.1-0.3c-0.2-0.4-0.4-0.7-0.5-1.1c-0.4-0.8-0.7-1.7-1.1-2.5c-0.6-1.5-1.1-3.1-1.3-4.6
			c-0.2-1.3-0.3-2.6-0.2-3.9c0-1.7-0.4-3.4-0.4-5.1c0.1-1.3,0-2.6-0.1-3.9c-0.1-0.5-0.2-1-0.4-1.4s0.2-1.5-0.3-1.7l-0.3,0.3"/>
		<path fill="#FFF9EA" d="M5,14c0.9,0.1,1.7,0.2,2.6,0.1c1-0.2,2-0.6,3.1-0.8c1-0.2,1.9-0.5,2.9-0.8c0.9-0.4,2.5-0.8,3.3-0.1
			l0.6-2.8c-0.6,0.3-1.1,0.5-1.7,0.6c-0.7,0.1-1.3,0.1-2,0.2c-0.9,0.1-1.6,0.4-2.5,0.6c-0.3,0.1-0.6,0-0.9,0.1s-0.8,0.4-1.1,0.5
			c-0.8,0.4-1.6,0.7-2.4,0.9c-0.7,0.2-1.4,0.1-2.1,0.4c-0.5,0.2-1,0.4-1.5,0.6c-0.6,0.1-1.1,0.4-1.4,1c-0.3,0.5-0.6,1.8,0,2.2
			s1.7,0.3,2.5,0.5l0.4-2.9c-0.6,0.2-1.2,0.3-1.8,0.3c-0.9,0.1-1.3,2.9-0.4,2.9c2,0,3.9-0.8,6-1c1.9-0.2,3.8-0.3,5.8-0.2
			c1.7,0.1,3.3,0.2,4.9,0.5c1.8,0.2,3.6,0.3,5.4,0.3l0.6-2.9c-1,0-1.8,0.3-2.8,0.4c-1,0-1.9,0.1-2.9,0.3c-0.9,0.1-1.6,0.4-2.5,0.5
			c-0.9,0.1-1.8,0.2-2.7,0.4c-2,0.5-4.1,0.1-6.2,0.5s-3.9,0.5-5.9,0.8c-0.9,0.1-1,2-0.7,2.6c0.3,0.5,0.9,0.8,1.4,0.8
			c1,0.2,2,0.3,3.1,0.3c2.5,0.1,5-0.2,7.4-0.2c2.2,0,4.4,0.4,6.6,0.4c1,0,1.9,0,2.9,0c0.6,0.1,1.2,0,1.8-0.3
			c0.5-0.4,1.3-2.6,0.2-2.8c-0.8-0.1-1.6,0-2.4,0.3c-0.9,0.2-1.8,0.3-2.8,0.6c-1.9,0.4-3.8,0.7-5.8,0.8c-1.8,0-3.6,0.2-5.3,0.4
			c-0.8,0.3-1.6,0.5-2.5,0.5c-1,0-2,0-3.1,0s-1.6,2.8-0.6,2.9c3.9,0.5,8,0.2,12,0.2c1.8,0,3.6-0.1,5.4-0.3c0.9-0.1,1.8-0.1,2.6-0.2
			c0.9-0.2,1.8-0.1,2.7,0.1l0.4-2.9c-0.9,0.3-1.7,0.7-2.7,0.9c-1.1,0.2-2.3,0.2-3.5,0.1c-2.1,0-4.3-0.2-6.4-0.2
			c-1.9,0.1-3.8,0.3-5.6,0.8c-0.8,0.2-1.6,0.4-2.5,0.6s-1.5,0.7-2.4,0.9s-1.4,2.3-0.6,2.8c1.8,1.1,3.8,1,5.9,1s4.3,0.1,6.5,0.1
			c2,0,3.9,0,5.9-0.2c0.9-0.1,1.9-0.1,2.8-0.2s2-0.6,3.1-0.6c0.8-0.1,1.3-2.4,0.6-2.8c-1.4-0.8-3.2-0.6-4.7-0.6
			c-1.9,0-3.9-0.1-5.8,0.1s-4,0.1-6,0.3c-1.8,0.1-3.2,1.5-4.9,1.7c-0.7,0.1-1.5-0.4-2.2-0.1c-0.5,0.3-0.9,0.9-1.1,1.5
			c-0.4,1.1-0.5,2.9,0.7,3.6s2.9,0.2,4,0c2.1-0.3,4.3-0.6,6.4-0.9c1.2-0.2,2.5-0.3,3.7-0.3c0.9,0,1.8,0,2.7,0
			c0.9-0.1,1.9-0.2,2.8-0.5c0.8-0.4,1.7-0.5,2.5-0.3l-0.5-0.9v0.3l0.3-1.5c-0.6,1.5-4.2,1.2-5.4,1.2c-1.9-0.2-3.7-0.2-5.6,0
			c-1.9,0.2-3.8,0.8-5.7,1c-0.9,0.1-1.8,0.1-2.7,0.2s-1,0.6-1.7,1c-0.9,0.6-1.2,1.9-0.6,2.8c0.9,1,3.1,0.8,4.3,0.9
			c2.1,0.1,4.1,0.1,6.2,0c2.2-0.1,4.4-0.4,6.6-0.8c1-0.2,2.1-0.3,3.2-0.2c0.5,0,1,0,1.5,0c0.3,0,0.6-0.2,0.9-0.1L26,29
			c-1.9,0.8-3.9,1.2-5.9,1.2c-1.8,0-3.7,0.2-5.5,0.4c-2,0.3-3.9,0.9-5.9,1.2c-1,0.2-1.9,0.4-2.9,0.5s-2,0-3,0.1s-1.2,2.3-0.6,2.8
			c1.4,1.2,3.5,1,5.3,1.1c2.2,0.1,4.5,0,6.7,0c1.9,0,3.6-0.8,5.4-0.9c0.9,0,1.8-0.1,2.8-0.3c0.5-0.1,1.6-0.4,2.1-0.2l-0.1-1.9
			c-0.2,0.6-1.7,0.8-2.1,0.9c-0.9,0.2-1.9,0.5-2.8,0.6c-1.8,0.3-3.6,0.5-5.5,0.5c-2,0-3.9,0-5.8,0c-1.7-0.1-3.5,0.1-5.1,0.6
			c-0.6,0.2-0.8,1.1-0.9,1.7c-0.1,1.6,1.2,1.7,2.5,1.8s2.7,0.2,4.1,0.2c1.2,0,2.3,0.1,3.5,0.2c1.4,0.1,2.8-0.1,4.3-0.2
			c3.1-0.1,6.2-0.1,9.4-0.2l0.4-2.9c-1.4,0.5-2.9,0.9-4.4,1.2c-1.6,0.4-3.3,0.7-5,0.8c-3.3,0.1-6.5-0.3-9.9,0.2
			c-0.6,0.1-1.3,0.1-1.9,0.1c-0.4-0.1-0.8-0.1-1.2,0c-1.2,0.4-1.1,1.7-1.3,2.7C2.7,40.9,2.4,42,2.4,42c0,0.3,0,0.6,0,0.9
			c0,0.4,0.2,0.8,0.5,1.1c0.7,0.5,1.9,0.2,2.7,0.1c3.4-0.3,6.8-1,10.2-1h5.2c1.5,0,3.1,0.2,4.6,0.1c2.7-0.3,1.3-4.5,1.1-6.1
			s-0.5-3-0.6-4.5s0.1-3.1,0-4.7c-0.2-1.9-0.6-3.7-1-5.6c-0.2-1.5,0.3-3.1,0-4.6c-0.6-2.6-4.8-1.8-6.4-0.8c-0.6,0.4-1.2,2.6-0.2,2.8
			s1.7-0.1,2.5,0.1c0.8,0.4,1.4,1.2,1.5,2.1c0.5,2.3,0.7,4.6,0.7,7c0.1,2.3-0.1,4.7,0.2,7c0.1,0.9,0.2,1.8,0.4,2.7
			c0.2,0.9,0.1,1.8-0.1,2.6l0.4-1c-0.3,0.4-1.5,0.3-1.9,0.4c-0.8,0.1-1.5,0-2.3,0c-1.1,0-2.1,0.3-3.1,0.8c-0.6,0.5-1.1,2.1-0.4,2.7
			s2.2,0.5,3.1,0.2s1.1-2,0.7-2.7c-0.5-1-1.7-1-2.7-1c-0.7,0-1.4,0-2.1-0.1c-0.9-0.2-1.8-0.4-2.7-0.8c-1.8-0.4-3.5-0.7-5.3-0.9
			c-1-0.1-1-0.6-1.3-1.4S5.2,36,4.9,35.1c-1.4-3.6-1.2-7.5-1.5-11.3c-0.2-2,0.1-4-0.3-6c-0.1-0.5-0.2-1.1-0.2-1.6
			c0.1-0.6-0.2-1.1-0.5-1.5c-0.2-0.2-0.4-0.2-0.6,0L1.4,15c-0.5,0.5-0.8,1.3-0.7,2c0,0.4,0.4,1.2,0.9,0.7l0.3-0.3H1.2
			c0-0.2,0-0.1,0,0.1V18c0,0.3,0,0.6,0.1,0.9c0.2,0.9,0.4,1.9,0.4,2.9c0,1.9,0.1,3.8,0.3,5.6c0,1.8,0.1,3.6,0.3,5.4
			c0.3,1.7,0.8,3.4,1.4,5.1c0.4,0.8,0.7,1.6,1.1,2.5c0.2,0.5,0.4,1.2,0.9,1.5c0.7,0.2,1.4,0.3,2.1,0.3c0.9,0.1,1.9,0.3,2.8,0.5
			c1.7,0.5,3.4,0.8,5.1,1c0.7,0,2.9-0.2,3.3,0.5l0.7-2.7c-0.6,0.2-1.8,0.5-2.4,0L17,44.2c2.1-1.7,6.8,0.9,8-2.2s-0.1-6-0.2-9.1
			c-0.1-3.8,0.1-7.5-0.5-11.2c-0.1-1.4-0.6-2.8-1.5-4c-1.1-1.2-2.4-0.5-3.7-0.8L19,19.6c0.9-0.5,2-0.7,3-0.6c0.4,0,0.8,0.1,1.2,0.3
			c0.6,0.3,0.5,0.6,0.5,1.2c-0.1,1.1-0.1,2.2,0,3.3c0.2,1.5,0.7,2.8,0.9,4.3c0.2,2.4-0.1,4.9,0.3,7.3c0.2,1.2,0.2,2.4,0.4,3.6
			c0,0.6,0.2,1.3,0.4,1.9c0,0,0,0.4,0.1,0.4l0.2-0.9h-0.4c-1.3-0.1-2.6-0.1-3.9,0h-4.2c-2.7,0-5.4,0.2-8.1,0.6
			c-1.2,0.1-2.3,0.4-3.4,0.5c-0.4,0-0.8,0.1-1.3,0.1c-0.2,0-0.4,0-0.5,0s-0.2,0-0.1,0.3c0.1-0.2,0.1-0.3,0.1-0.5
			c0-0.4,0.2-1.1-0.2,0c-0.3,0.8-0.3,0.6,0.2,0.6c0.3,0,0.6,0.1,0.9,0.1c1.1,0,2.3-0.3,3.4-0.4c3.1-0.3,6.2,0.2,9.4,0
			c1.3-0.2,2.7-0.4,4-0.8c1.4-0.3,2.8-0.7,4.2-1.2c0.7-0.3,1.5-3,0.4-2.9c-1.4,0-2.8,0-4.2,0s-2.7,0.2-4,0.2s-2.6,0.1-4,0.2
			s-2.9-0.2-4.3-0.2c-1.1,0-2.1,0-3.2-0.1c-0.7,0-1.4-0.1-2.1-0.2c-0.3,0-0.6-0.1-0.8-0.2s-0.4-0.2-0.3,0l0.1,1v-0.1l-0.9,1.7
			c2-0.8,4.4-0.5,6.6-0.5c2.1,0.2,4.3,0.2,6.4,0c2-0.2,4-0.6,6-1c1.7-0.4,3.1-1,3.8-2.8c0.1-0.4,0.4-1.6-0.1-1.9
			c-1.1-0.6-2.7,0-3.8,0.2s-2,0.1-3,0.2s-1.9,0.5-2.8,0.7c-1.1,0.1-2.1,0.1-3.2,0H9.3c-1.1,0-2.3-0.1-3.4-0.2
			c-1,0.1-1.9-0.2-2.7-0.8l-0.6,2.8c1-0.1,2,0,3-0.1s1.9-0.3,2.9-0.5c2-0.4,3.9-1,5.9-1.2c2-0.2,3.9-0.4,5.9-0.4
			c1.9-0.1,3.7-0.5,5.5-1.2c0.7-0.3,1.5-2.6,0.4-2.9c-0.7,0-1.3,0-2,0.1c-0.9,0-1.8,0-2.6,0c-1.1,0.1-2.1,0.5-3.1,0.6
			s-2.2,0.2-3.4,0.3c-2.2,0.2-4.5,0.2-6.8,0.1c-1.1,0-3.6,0.2-4.4-0.7l-0.6,2.8c0.4-0.2,0.7-0.5,1.1-0.7c0.4-0.2,0.8-0.3,1.2-0.3
			c1.2-0.1,2.3-0.3,3.5-0.4c2.3-0.3,4.5-1,6.9-0.9c3.3,0.1,10.1,1.2,9.9-4c0-0.3-0.1-0.8-0.5-0.9c-1.4-0.4-2.9,0.3-4.2,0.5
			c-1,0.2-2,0.3-3,0.3c-1,0-2,0-2.9,0.2c-2.2,0.2-4.4,0.5-6.6,0.8c-1,0.1-2.1,0.3-3.1,0.4c-0.3,0-0.7,0.1-1,0
			c-0.2,0-0.8-0.2-0.9-0.2c-0.3-0.2-0.3,0-0.1,0.6l0.7,0.1c0.3,0,0.7,0,1,0c0.9-0.2,1.8-0.6,2.6-1.1c0.9-0.4,1.9-0.6,2.9-0.6
			c1,0,2-0.2,3.1-0.2c2.1,0,4.2-0.2,6.3-0.2c1.1,0,2.2-0.1,3.2,0c0.9,0,1.7,0.1,2.5,0.4l0.6-2.8c-1,0.1-1.8,0.4-2.7,0.6
			s-1.8,0.2-2.8,0.2c-1.9,0.2-3.9,0.3-5.9,0.2c-2,0-4,0-6-0.1s-4.2,0.3-6-0.8l-0.6,2.8c0.8-0.4,1.6-0.7,2.4-1
			c0.8-0.2,1.6-0.4,2.5-0.6c2-0.5,4.1-0.8,6.1-0.8c2.1,0.1,4.3,0.1,6.4,0.2c1,0,2,0,2.9-0.2c1-0.2,1.8-0.6,2.7-0.9s1.3-2.5,0.4-2.9
			c-0.8-0.2-1.6-0.3-2.5-0.2l-2.6,0.2c-1.9,0.1-3.7,0.3-5.6,0.3c-4,0-8,0.3-12-0.2l-0.6,2.9c1.6,0.1,3.7,0.3,5.2-0.3
			c1.7-0.6,3.6-0.5,5.4-0.6c1.8,0,3.6-0.2,5.4-0.6c1-0.2,2-0.6,3-0.8c0.9-0.3,1.8-0.4,2.7-0.4l0.2-2.8c-0.3,0.3-1.2,0-1.6,0
			c-1,0-2.1,0-3.1,0c-1.9,0-3.8-0.3-5.7-0.4c-2.1,0-4.2,0.2-6.3,0.2c-1,0-2-0.1-3.1-0.2c-0.3,0-1.8,0-2-0.4L2,20
			c1.8-0.2,3.6-0.4,5.4-0.7c1.1-0.2,2.3-0.4,3.4-0.4c0.9,0.1,1.9,0,2.8-0.1c1.7-0.3,3.5-0.6,5.2-1c1-0.2,2-0.3,3.1-0.3
			c0.9,0,1.7-0.4,2.6-0.4c1.1,0,1.6-2.9,0.6-2.9c-1.8,0-3.6-0.1-5.4-0.4c-1.6-0.3-3.3-0.5-4.9-0.5c-1.9,0-3.6,0.1-5.5,0.2
			c-2.1,0.1-4.1,1-6.2,1l-0.4,2.9c0.6-0.1,1.2-0.2,1.8-0.3c0.7-0.2,1.4-2.7,0.4-2.9c-0.6-0.1-1.7,0.2-2.2-0.3v2.3L2.8,16l-0.6,0.6
			c0.5-0.2,0.9-0.1,1.4-0.3c0.5-0.3,1-0.5,1.6-0.7c1.5-0.3,3-0.7,4.4-1.4c0.6-0.2,1.2-0.4,1.8-0.5c0.7-0.2,1.5-0.4,2.3-0.5
			c0.6,0,1.3-0.1,1.9-0.2c0.5-0.2,1.1-0.4,1.6-0.7c0.8-0.3,1.3-2.3,0.6-2.8c-1.7-1.3-4.1,0.1-5.9,0.5c-1.1,0.3-2.1,0.4-3.2,0.8
			c-0.5,0.2-1.1,0.3-1.7,0.4c-0.5,0-1-0.1-1.5-0.2C4.5,11,4.1,13.9,5,14z"/>
		<g opacity="0.9">
			<path fill="#FFF7E2" d="M13.7,25.9c-0.4,0.4-0.7,0.7-1.1,1c-0.4,0.4-0.8,0.8-1.1,1.3c-0.3,0.4-0.7,0.7-1,1.1
				c-0.2,0.2-0.4,0.3-0.5,0.5s-0.2,0.5-0.4,0.7c0.9,0.3,1.7-0.8,2.1-1.4c0.4-0.4,0.7-0.9,1.1-1.3c0.2-0.4,0.4-0.8,0.7-1.2
				c0.3-0.3,0.4-0.7,0.4-1.1c0-0.5,0.1-0.6-0.5-0.7c-0.7,0-1.4-0.1-2.1-0.4c-1.4-0.5-2.9-0.8-4.4-0.7c-0.5,0-0.6,0.3-0.5,0.8
				c0.1,0.5,0.5,0.8,1,0.8c0.4,0,0.7-0.1,1-0.3c0.4-0.1,0.7-0.1,1.1,0c-0.3-0.1-0.5-0.3-0.8-0.4s-0.6,0.1-0.7-0.1c0.2,0,0.4,0,0.7,0
				c0.2,0,0.4-0.1,0.6-0.2c0.5,0,1,0,1.4,0h1.1c0.2,0,0.4,0,0.6,0s0.5,0.2,0.7,0.1c0.2-0.7-0.4-1.6-0.5-2.3c0-0.4-0.1-0.8-0.2-1.1
				c-0.1-0.4-0.5-0.7-0.5-1.2c0,0.3,0.1,0.6,0.2,0.9c0,0.5,0.1,1,0.1,1.5c0.1,0.3,0.2,0.6,0.2,0.9c0.1,0.3,0.2,0.7,0.1,1
				c-0.2-0.3-0.3-0.7-0.3-1.1c0.3,0.3,0.6,0.6,0.8,1c0.1,0.3-0.1,0.8,0.2,1c0.6,0,1.2-0.9,1.6-1.3s1.1-0.9,1.5-1.4
				c0.2-0.2,0.4-0.5,0.6-0.7s0.5-0.8,0.7-0.9c0.9-0.2-0.2,1.2-0.4,1.4c-0.5,0.6-0.7,1.1-1.4,1.4c-0.6,0.2-1.6,0.4-0.6,1
				c0.6,0.3,1.1,0.2,1.7,0.4s0.8,0.8,1.4,1c0.5,0.1,1.3,0.2,1.6-0.4c0.1-0.4-0.1-0.6-0.3-0.9c-0.1,0-0.3-0.1-0.3-0.2
				c0-0.1-0.1-0.3-0.2-0.3c-0.3,0-0.6,0-0.9,0c-0.3,0-0.5,0.2-0.7,0.3c-0.6,0.1-1.3,0.1-1.9,0c-0.3,0-0.6-0.1-0.9,0.2
				c-0.2,0.3-0.3,0.6-0.4,0.9c0.1,0.3,0.2,0.6,0.4,0.9c0.1,0.3,0.3,0.5,0.5,0.7c0.3,0.2,0.5,0.5,0.7,0.8c0.1,0.2,0.2,0.5,0.3,0.7
				c0.1,0.3,0.2,0.6,0.3,0.9c0.2,0.3,0.3,0.6,0.4,0.9"/>
			<path fill="#7770B4" d="M12.4,26c-0.4,0.4-0.9,0.8-1.3,1.2s-0.7,0.9-1.1,1.3c-0.3,0.4-0.7,0.7-1.1,1c-0.3,0.3-0.6,0.7-0.9,1.1
				C8,30.8,8.3,30.9,8.4,31c1.4,0.2,2.7-0.2,3.8-1.1c0.3-0.3,0.6-0.7,0.9-1.1c0.4-0.4,0.7-0.8,1.1-1.3c0.6-0.7,1-1.6,1.1-2.6
				c0-1-1.4-0.6-2.1-0.8s-1.1-0.4-1.7-0.6c-0.6-0.2-1.2-0.3-1.9-0.3c-1.4-0.3-2.9-0.1-4.2,0.6c-0.5,0.3-0.7,1-0.4,1.5
				c0.1,0.2,0.3,0.4,0.6,0.5C6,26,6.7,26,7.3,25.8c0.4-0.1,0.7-0.2,1.1-0.3c0.6-0.2,0.4-0.2-0.4,0h0.5c0.7,0,1.3-0.1,1.9-0.5
				c0.3-0.2,0.8-0.5,0.2-0.7c-0.3-0.1-0.5-0.2-0.8-0.4c-0.1,0-0.2,0-0.4,0c0.2,0-0.5,0-0.4,0l0.4,0.1H9.3L7.6,25
				c-0.6,0.1,0.2,0,0.3,0c0.3,0,0.7-0.1,1-0.2c0.6-0.1,0.5-0.2-0.1,0h0.2c0.3,0,0.6,0,0.9,0c0.5,0,1,0,1.5,0c0.5,0.1,1,0.1,1.5,0.1
				c0.3,0,1.6-0.3,1.7-0.8c0-0.8-0.2-1.6-0.5-2.3c-0.1-0.4-0.2-0.9-0.3-1.3c-0.2-0.3-0.4-0.7-0.5-1.1c0-0.5-2.9,0-2.9,0.8
				c0,0.3,0.1,0.6,0.2,0.9c0.1,0.4,0,0.8,0.1,1.2c0.1,0.6,0.6,1.4,0.4,2l2.9-0.6c-0.2-0.3-0.3-0.6-0.3-0.9l-2.8,0.8
				c0.3,0.3,0.6,0.6,0.7,1c0.1,0.4-0.1,0.7,0.2,1s0.8,0.2,1.2,0.1c0.8-0.1,1.6-0.4,2.2-0.9c0.5-0.4,0.8-0.9,1.2-1.3
				c0.4-0.4,1-0.9,1.5-1.4c0.2-0.2,0.4-0.4,0.6-0.7s0.3-0.5,0.3-0.5l-1.4,0.5l-0.8-0.1l0,0c0,0,0,0.1-0.1,0.2s-0.1,0.3-0.2,0.4
				s-0.4,0.5-0.6,0.8c-0.2,0.3-0.4,0.5-0.7,0.6c-0.5,0.1-1,0.4-1.5,0.7c-0.9,0.9,1.3,1.2,1.7,1.3s0.8,0.5,1.2,0.8
				c0.4,0.3,0.9,0.5,1.4,0.5c1,0.1,3-0.2,3.4-1.3c0.1-0.2,0.1-0.5,0-0.7c-0.1-0.2-0.4-0.3-0.5-0.5s-0.1-0.3-0.2-0.4
				c-0.2-0.2-0.4-0.3-0.6-0.2c-0.5,0-1,0-1.4,0.1c-0.3,0.1-0.7,0.2-1,0.3c-0.2,0.1-0.3,0.1-0.5,0.2c-0.8,0.4,0.9-0.1,0.6-0.1
				c-1.4-0.3-2.8,0-4.1,0.7c-1.1,0.8-0.6,1.9,0,2.8c0.2,0.3,0.5,0.5,0.7,0.7c0.2,0.3,0.3,0.6,0.4,0.9c0.3,0.6,0.5,1.2,0.7,1.9
				c0.1,0.6,3-0.1,2.9-0.8c-0.2-0.5-0.4-1-0.6-1.5c-0.1-0.5-0.3-1-0.6-1.4c-0.4-0.4-0.7-0.8-1-1.3c-0.1-0.2-0.2-0.5-0.3-0.7
				c0-0.2,0.1-0.4,0.2-0.6l-1,0.4c0,0-0.7,0-0.4,0.1c0.1,0,0.2,0,0.3,0h0.8c0.6,0,1.2,0,1.8-0.2c0.3-0.1,0.7-0.2,1-0.3
				c0.1,0,0.3-0.1,0.4-0.2c-0.3,0.1-0.6,0.2-0.9,0.3l0,0c0.2-0.1,0,0.1,0,0c0,0.2,0.1,0.3,0.2,0.4c0.1,0.1,0.3,0.1,0.4,0.4
				s0,0.2,0,0.4v0.1l1.4-0.5c-0.1,0-0.2,0-0.3-0.1c-0.2-0.1-0.3-0.2-0.5-0.4c-0.3-0.3-0.6-0.5-0.9-0.6c-0.5-0.1-1.1-0.2-1.6-0.4
				c-0.1,0-0.2-0.2-0.3-0.3c0.1,0-0.7,0.2-0.4,0.3c0.1,0,0.2,0,0.3-0.1c0.5-0.1,0.9-0.4,1.3-0.6c0.6-0.4,1-1,1.4-1.6
				c0.2-0.3,0.7-0.9,0.6-1.3c-0.3-0.8-2.5,0.1-2.9,0.3c-0.3,0.2-0.6,0.5-0.8,0.9c-0.3,0.4-0.6,0.7-0.9,1.1c-0.4,0.4-0.9,0.7-1.3,1.1
				c-0.1,0.2-0.3,0.4-0.4,0.5l-0.2,0.2c-0.4,0.4-0.4,0.1,0.6-0.1l1.2,0.1c-0.3-0.4-0.1-0.8-0.2-1.2c-0.2-0.4-0.5-0.7-0.8-1
				c-0.4-0.4-2.7,0.1-2.8,0.8c-0.1,0.4,0,0.9,0.3,1.2c0.2,0.4,1,0.2,1.4,0.1s1.4-0.3,1.5-0.8c0-0.7-0.1-1.4-0.4-2
				c-0.1-0.4-0.1-0.8-0.1-1.2s-0.2-0.8-0.2-1.1l-2.9,0.8c0.1,0.4,0.2,0.7,0.4,1c0.1,0.4,0.2,0.8,0.3,1.2c0.1,0.7,0.6,1.5,0.5,2.3
				l1.7-0.8h-0.2H14c-0.9-0.2-1.8-0.2-2.7-0.2c-1,0-2,0.1-3,0.3l1.1-0.1c-0.4,0-0.9,0.1-1.3,0.1c-0.1,0-2,0.5-1.7,0.9s0.6,0.4,1,0.4
				h0.3c-0.2,0-0.2,0-0.1,0.1s0.5,0.2,0.6,0.2l2.1-1.1c-1-0.1-2,0.1-2.9,0.5c-0.3,0.1-0.2,0.1,0.3,0s0.6-0.1,0.4-0.1
				c-0.1-0.1-0.2-0.2-0.3-0.3c-0.2-0.2-0.2-0.6,0-0.8L7.4,24L7,24.1l-1.1,0.2c1.2-0.1,2.5,0,3.6,0.5c0.6,0.2,1.2,0.4,1.8,0.5
				c0.3,0,0.7,0,1,0.1c0.1,0,0-0.1,0,0.1c0.1,0.4,0,0.8-0.2,1.2c-0.3,0.4-0.5,0.9-0.8,1.3s-0.7,0.9-1.1,1.3
				c-0.1,0.2-0.2,0.4-0.4,0.5c-0.1,0.1-0.2,0.2-0.3,0.3c-0.4,0.3,0,0.2,1.2-0.3l0.2,0.3c0.3-0.4,0.6-0.7,0.9-1c0.4-0.3,0.7-0.6,1-1
				c0.7-0.8,1.4-1.6,2.2-2.4c0.5-0.5-0.4-0.5-0.7-0.5C13.7,25.3,13,25.6,12.4,26L12.4,26z"/>
		</g>
		<g opacity="0.7">
			<path fill="#FFF7E2" d="M13.7,28.8v2.5c0,0.8,0.3,1.5,0.4,2.3c0.1,0.7,0.3,1.3,0.5,1.9c0.1,0.3,0,2,0.5,2.1
				c0.3-0.3,0.6-0.3,0.9-0.5s0.3-0.5,0.5-0.7c0.4-0.3,1-0.6,1.4-0.9c0.9-0.6,1.7-1.4,2.6-1.9c0.1-0.1,0.4-0.2,0.5-0.1
				s-0.3,0.5-0.3,0.7c-0.2,0.5-0.5,0.9-0.9,1.3c-0.3,0.3-0.5,0.5-0.7,0.8c-0.2,0.3-0.3,0.3-0.7,0.4c-0.4,0.2-0.9,0.4-1.4,0.5
				c-0.3,0-0.5,0-0.8,0c-0.2,0.1-0.3,0.3-0.7,0.3c-0.5,0.1-1-0.1-1.5,0s-0.9,0.3-1.3,0.3C12.6,38,12.3,38,12,38
				c-0.3,0-0.3-0.1-0.6-0.3c-0.1-0.2-0.2-0.3-0.4-0.2h-0.2c-0.3-0.2-0.3-0.5-0.6-0.7s-0.5-0.2-0.7-0.3c-0.2-0.2-0.4-0.4-0.6-0.5
				c-0.3-0.1-0.5-0.3-0.8-0.5l-0.6-0.6c-0.3-0.4-0.6-0.8-0.8-1.2c0.3-0.4,1.4,0.3,1.8,0.5c0.6,0.3,1.2,0.6,1.8,1.1
				c0.5,0.4,1,0.9,1.5,1.3c0.3,0.3,0.6,0.5,0.9,0.7c0.2,0.2,0.4,0.4,0.7,0.5c0.2,0.1,0.4,0.1,0.3,0.3"/>
			<path fill="#69C5AB" d="M13,29.4c-0.1,1-0.1,2,0,2.9c0.1,0.8,0.2,1.6,0.4,2.4s0.4,1.2,0.5,1.8c0,0.6,0.1,1.1,0.2,1.7
				c0.2,0.5,0.5,1.1,1.1,0.8c0.3-0.1,0.6-0.3,0.9-0.5c0.2-0.1,0.3-0.3,0.4-0.5l0.2-0.3c-0.1,0.1-0.1,0.1,0,0
				c0.6-0.5,1.5-0.9,2.1-1.4s1.3-1.3,2-1.3l-0.4-0.1l0.1,0.1l-0.2-0.4v0.1l0.1-1.5c0.1-0.4,0.1-0.2,0-0.1s-0.2,0.4-0.3,0.6
				c-0.2,0.3-0.4,0.5-0.6,0.8c-0.2,0.3-0.4,0.5-0.7,0.8c-0.1,0.1-0.5,0.2-0.6,0.3c-0.3,0.2-0.6,0.3-1,0.3c-0.2,0-0.5,0-0.7,0
				c-0.2,0-0.3,0.2-0.4,0.2c-0.4,0.1-0.8,0.1-1.1,0.1c-0.4,0-0.8,0.1-1.2,0.2c-0.5,0.2-1.3,0.3-1.8,0c-0.2-0.1-0.2-0.3-0.4-0.3
				s-0.2,0-0.4-0.1s-0.3-0.5-0.6-0.7c-0.3-0.2-0.6-0.3-0.8-0.6c-0.2-0.2-0.5-0.3-0.8-0.5c-0.6-0.5-1.1-1.1-1.4-1.8l-0.6,2.5
				c0.1-0.1,1,0.4,1.2,0.5c0.7,0.3,1.3,0.7,1.9,1.2c0.6,0.5,1.2,1.1,1.9,1.6c0.3,0.2,0.5,0.5,0.8,0.7s0.5,0.2,0.7,0.4l-0.3-0.8v0.2
				c0.1,0.5,0.3,1.1,0.9,0.7c0.5-0.5,0.8-1.2,0.7-2c0-0.5-0.2-0.9-0.6-1.1c-0.3-0.2-0.6-0.4-0.9-0.6c-0.8-0.7-1.5-1.3-2.3-2
				c-0.7-0.5-1.4-0.9-2.1-1.2c-0.6-0.3-1.3-0.7-1.9-0.2c-0.7,0.7-0.9,1.7-0.5,2.5C6.5,35.6,7.2,36.4,8,37c0.3,0.2,0.6,0.4,1,0.7
				c0.2,0.1,0.4,0.2,0.6,0.3c0.2,0.1,0.3,0.2,0.4,0.4c0.1,0.2,0.3,0.4,0.5,0.5c0.3,0.1,0.2-0.1,0.5,0.2c0.3,0.3,0.7,0.4,1.1,0.4
				c0.5,0,1,0,1.4-0.2c0.6-0.1,1.2-0.2,1.8-0.2c0.5,0,0.8-0.4,1.3-0.4c0.5,0,1-0.1,1.4-0.4c0.3-0.1,0.7-0.3,1-0.5
				c0.3-0.3,0.6-0.6,0.9-1c0.4-0.4,0.7-0.8,1-1.3c0.3-0.4,0.5-0.8,0.7-1.3c0.3-0.8,0.4-2.8-1-2.2c-1.1,0.7-2.1,1.4-3.1,2.2
				c-0.6,0.3-1.1,0.6-1.5,1.1c-0.1,0.2-0.2,0.3-0.3,0.5c-0.2,0.2-0.6,0.3-0.8,0.5l0.4-0.1c0.2,0,0.1,0.1,0.1-0.1l-0.1-0.8
				c0-0.6-0.2-1.3-0.4-1.9c-0.1-0.3-0.1-0.7-0.2-1.1c-0.1-0.4-0.2-0.9-0.3-1.3c-0.1-0.9-0.1-1.9,0-2.8c0-0.5-0.3-1.1-0.9-0.7
				S13,28.8,13,29.4L13,29.4z"/>
		</g>
		<g opacity="0.7">
			<path fill="#FFF7E2" d="M16,37.3c0.3-0.3,0.6-0.5,0.9-0.7c0.2-0.2,0.3-0.4,0.5-0.6c0.5-0.6,1.2-0.6,1.6-1.1"/>
			<path fill="#69C5AB" d="M16.3,38.4L16.3,38.4l-0.1,0.1c0.2-0.2,0.4-0.4,0.7-0.5c0.3-0.3,0.6-0.6,0.9-1l-0.2,0.3
				c0.1-0.1,0.1-0.2,0.2-0.3l-0.2,0.2c0.1-0.1,0.3-0.3,0.5-0.4l-0.2,0.1c0.4-0.2,0.9-0.4,1.2-0.7c0.2-0.2,0.4-0.5,0.5-0.8
				c0.1-0.4,0.2-0.8,0.2-1.2c0-0.2-0.1-0.6-0.3-0.8c-0.2-0.2-0.4-0.2-0.6,0c-0.1,0.1-0.3,0.3-0.5,0.3l0.2-0.1
				c-0.3,0.2-0.7,0.3-1,0.5c-0.4,0.3-0.8,0.7-1,1.2l0.2-0.3c-0.1,0.1-0.1,0.2-0.2,0.3l0.2-0.2c-0.2,0.1-0.3,0.3-0.5,0.4
				c-0.2,0.2-0.4,0.3-0.6,0.6c-0.2,0.3-0.4,0.6-0.4,1c-0.1,0.4-0.1,0.7,0,1.1c0.1,0.2,0.2,0.5,0.4,0.5
				C15.9,38.7,16.1,38.6,16.3,38.4L16.3,38.4z"/>
		</g>
		<g opacity="0.7">
			<path fill="#FFF7E2" d="M15,38.3c0-0.6,0-1.1,0-1.7c-0.1-0.3-0.2-0.6-0.3-0.9c-0.1-0.3,0-0.7-0.1-1c-0.3-0.5-0.6-1.1-0.8-1.7
				c-0.1-0.6-0.1-1.2,0-1.8"/>
			<path fill="#69C5AB" d="M15.7,38.1c0.1-0.8,0.1-1.6,0-2.4c0-0.2-0.1-0.4-0.2-0.6c0-0.1,0-0.1-0.1-0.2s-0.1-0.1,0,0
				c0-0.1,0-0.1,0,0v-0.2c0-0.2,0-0.4-0.1-0.6c-0.1-0.6-0.6-1.2-0.8-1.7c0-0.1-0.1-0.4,0-0.2c0-0.1,0-0.6,0-0.2c0-0.3,0-0.7,0-1
				s0-1.4-0.7-1.2s-1,1.1-1,1.6c0,0.7,0,1.4,0,2.1c0.1,0.7,0.4,1.5,0.7,2.1l0.2,0.4c0-0.3-0.1-0.3,0-0.1c0,0.1,0,0.2,0,0.2
				c0,0.4,0.1,0.8,0.3,1.2l0.1,0.2c0-0.1,0-0.1,0,0c0-0.3,0,0.4,0,0.1c0,0.4,0,0.7,0,1.1s0,1.4,0.7,1.2s0.9-1.2,0.9-1.7L15.7,38.1z"
				/>
		</g>
		<path d="M0.6,13.2c-0.3-0.2-0.3-0.3,0-0.5c0.7-0.4,1.5-0.7,2.3-0.9c0.6-0.2,1.2-0.3,1.8-0.3c0.2,0,0.3,0,0.4-0.1
			c0.8-0.3,1.6-0.6,2.4-0.8c0.4-0.2,0.8-0.6,1.4-0.6c0.5,0,1-0.1,1.5-0.3c0.9-0.3,1.8-0.3,2.7-0.5c0.8-0.1,1.6-0.4,2.3-0.8
			c0.2-0.1,0.4-0.1,0.6-0.1c0.1,0,0.2,0,0.2,0c0.5-0.5,1.2-0.4,1.8-0.7c0.5-0.2,1.1-0.1,1.5,0.3c0.2,0.4,0.2,0.7,0,1.1
			c-0.1,0.4-0.1,0.7-0.2,1.1c0,0.2,0,0.5-0.3,0.6c0,0-0.1,0.1-0.1,0.1c0.2,0.3,0.1,0.7,0.1,1s0.1,0.4,0.5,0.4c1.3-0.1,2.7,0,4,0.3
			c0.4,0.1,0.8,0.1,1.2,0.1c0.5-0.1,1.1,0,1.5,0.2c0.2,0.1,0.5-0.1,0.5,0.2s0,0.7-0.3,0.9c-0.2,0.1-0.4,0.4-0.3,0.7
			c0,0.8,0.1,1.5,0.1,2.3c0.1,0.4,0.2,0.8,0.3,1.2c0.1,0.4,0.2,0.7,0.1,1.1c0,0.4,0,0.7,0.2,1.1c0.2,0.4,0,0.9,0.1,1.3
			c0.2,0.8,0.3,1.6,0.3,2.4c0.1,0.5,0.1,1,0.2,1.5c0,1,0,1.9-0.1,2.9c0,0.6,0,1.1,0.1,1.7c0,0,0,0,0,0c-0.1,0.7-0.1,1.5,0,2.2
			c0,0.2,0,0.4,0.1,0.6c0.1,0.2,0.2,0.5,0,0.8s0,0.2,0.1,0.3c0.1,0.3,0.1,0.6,0,0.9c-0.1,0.1-0.1,0.3,0,0.4s0.1,0.2,0.1,0.2
			c0,1.1,0.1,2.2,0.2,3.3c0,0.7,0,1.4,0,2.2c0,0.3,0.2,0.6-0.1,0.9c0.4,0.3,0.2,0.7,0.2,1c0,0.6-0.4,1.1-0.9,1.3
			c-1.2,0.3-2.4,0.5-3.6,0.4c-0.6,0-1.3,0-1.9,0.2c-0.7,0.2-1.5,0.3-2.3,0.1c-0.5-0.1-1-0.1-1.5-0.1c-0.3,0-0.7,0-1-0.2
			c-0.2-0.1-0.4-0.1-0.6,0c-0.4,0.1-0.8,0.1-1.2-0.1c-0.3-0.2-0.7-0.2-1-0.1c-0.1,0-0.2,0-0.3,0c-0.6-0.1-1.2-0.2-1.9-0.1
			c-0.9,0-1.8-0.2-2.7-0.1c-0.2,0-0.5,0-0.7-0.1c-0.4,0-0.7,0.2-1,0.2c-0.8-0.3-1.6,0.4-2.4,0c-0.4,0.3-0.9,0.1-1.4,0.1
			c-0.6,0.1-1.2,0.1-1.8,0c-0.3,0-0.5-0.3-0.5-0.5c-0.1-1-0.4-2-0.4-3.1c0.1-0.5,0.1-1,0.1-1.5C1,38.3,1.1,37.2,0.9,36
			c-0.1-0.4,0-0.8-0.1-1.2c-0.3-1.3-0.4-2.6-0.3-3.8c0-0.5-0.1-1-0.2-1.5c-0.1-0.5-0.1-1.1-0.1-1.6c0-0.6,0-1.2,0-1.8
			c0-0.4,0.2-0.7,0.2-1.1c0-0.2,0-0.4,0-0.6c0-0.9,0-1.7,0-2.6c0-0.2,0-0.3,0-0.5c-0.2-0.8,0-1.7-0.2-2.6C0,17.8,0.4,16.7,0,15.6
			c0-0.2,0-0.3,0.1-0.5c0.1-0.2,0.1-0.4,0-0.6c-0.2-0.4,0.1-0.8,0.2-1.1C0.3,13.4,0.5,13.3,0.6,13.2z M25.7,43.4
			c0.6,0,1.2-0.5,1.2-0.9c0-0.8,0-1.7-0.1-2.5c0,0,0-0.1,0-0.1c0.2-0.9,0.1-1.8-0.1-2.7c0-0.1,0-0.2,0-0.3c0-1,0-2,0-2.9
			c0-0.4-0.2-0.6-0.2-1c0-0.6,0-1.3-0.1-1.9c0-0.1,0-0.2,0-0.3c0.1-0.5,0.2-1,0.1-1.5c0-0.3,0-0.7,0-1c0.1-0.7,0.1-1.5,0-2.2
			c0-0.4-0.2-0.7-0.1-1.1c0.1-0.6,0-1.2-0.2-1.7c-0.1-0.3-0.2-0.6-0.1-0.9c0.1-0.5,0-1.1-0.2-1.6c-0.3-0.8-0.2-1.6-0.4-2.4
			s-0.1-1.6-0.4-2.4c-0.1-0.4-0.3-0.8-0.4-1.2c-0.1-0.3-0.3-0.6-0.6-0.7c-0.4-0.2-0.9-0.3-1.4-0.3c-0.8-0.2-1.6-0.2-2.4-0.2
			c-0.4,0-0.8,0.1-1.1,0.4c-0.2,0.2-0.5,0.3-0.7,0.1c0,0-0.1-0.1-0.1-0.1c-0.2-0.2-0.4-0.3-0.7-0.2c-0.2,0-0.3,0-0.5,0
			c-0.4-0.2-0.9-0.2-1.4,0c-0.6,0.1-1.3,0.1-1.9,0.1c-0.5,0.1-1,0.1-1.4-0.1c-0.4-0.3-1,0.3-1.4-0.2h-0.1c-0.5,0.4-1,0.1-1.6,0.2
			c-0.2,0.1-0.5,0.2-0.7,0.1c-0.5-0.1-1.1-0.1-1.6,0c-0.1,0-0.3,0-0.4,0c-0.3-0.1-0.5-0.3-0.8,0c0,0.1-0.1,0-0.1,0s-0.3-0.1-0.4,0.1
			C5.2,13.9,5.1,13.9,5,14c-0.6,0.2-1.1-0.1-1.6-0.1c-0.6,0-1.1,0-1.6-0.1c-0.2,0-0.3,0.1-0.4,0.2c0,0,0,0,0,0
			c-0.1,0.5-0.2,1.1-0.2,1.6c0,0.5,0,0.9,0.2,1.3c0.1,0.2,0.2,0.5-0.1,0.7c-0.1,0-0.1,0.1-0.1,0.2c0,0,0,0,0,0
			c0.3,0.7,0.4,1.4,0.3,2.2c0.1,0.9,0.1,1.8,0.2,2.7c0.1,0.6,0.1,1.3,0,1.9c-0.1,0.9,0.3,1.8-0.2,2.7c0.1,0.6,0.1,1.2,0.1,1.7
			c0.2,1,0.3,1.9,0.3,2.9c0,0.8,0,1.5,0,2.3c0,0.2,0.2,0.5,0.2,0.7c-0.1,0.5-0.1,1,0,1.4c0,0.6,0.2,1.2,0.2,1.8
			c-0.1,0.6-0.1,1.3,0.1,1.9c0,0,0,0.1,0,0.1c-0.2,0.5,0.3,1-0.1,1.5c0.3,0.4,0.1,0.9,0.2,1.4s0.4,0.8,1.1,0.8c0.6,0,1.2,0,1.7,0.1
			c0.5,0,1-0.2,1.5,0c0.5-0.5,1.1-0.1,1.6-0.2c0.6-0.1,1.2-0.1,1.8-0.1c0.8,0,1.6,0.1,2.4,0.1c0.5,0,1,0.2,1.5,0.1
			c0.4,0,0.9,0,1.3,0.1c0.2,0,0.4,0.2,0.6,0c0.3-0.2,0.7-0.2,1,0c0.2,0,0.4,0,0.6,0c0.9-0.1,1.8-0.1,2.6,0.1
			c0.4,0.1,0.7,0.1,1.1-0.1c0.5-0.2,1-0.3,1.5-0.2c0.6,0,1.1-0.1,1.7-0.2C24.9,43.5,25.4,43.5,25.7,43.4z M13.4,10.3
			c-0.3-0.1-0.6,0-0.9,0.1c-0.6,0.2-1.2,0.3-1.9,0.4c-0.6,0.1-1.2,0-1.7,0.3c-0.5,0.3-1.1,0.5-1.7,0.7c-0.6,0.2-1.3,0.4-2,0.6
			c-0.6,0.1-1.1,0.4-1.6,0.4c-0.1,0-0.2,0.1-0.2,0.1s-0.1,0.1,0,0.2s0.1,0,0.2,0c0.6-0.1,1.2-0.2,1.8-0.2c0.4-0.1,0.8-0.1,1.2,0
			c0.6,0.2,1.3-0.1,2,0.1c0.1,0,0.2,0,0.3,0c0.8-0.2,1.7-0.3,2.5-0.3c0.1,0,0.2,0,0.3,0c0.5,0.1,0.9,0.1,1.4,0.1c1,0,2,0,2.9-0.2
			c0.5-0.1,1.1-0.1,1.6-0.1c0.4,0,0.4-0.2,0.3-0.5c-0.1-0.7,0-1.5,0.2-2.2c0.1-0.4-0.2-0.9-0.6-0.7s-0.9,0.1-1.2,0.3s-0.5,0-0.8,0.2
			C14.9,10,14.2,10.3,13.4,10.3z"/>
		<path d="M33.8,44c0.5,0.1,1,0.3,1.5,0.6c0.1,0.1,0.3,0.2,0.4,0.3c0.6,0.3,0.8,0.8,0.5,1.6c-0.1,0.3-0.7,0.4-1.1,0.4
			c-0.8-0.1-1.7,0.1-2.5,0.4c-0.8,0.3-1.7,0.6-2.5,0.7c-0.8,0.1-1.5,0.6-2.4,0.8c-1.1,0.4-2.2,0.7-3.3,0.9c-0.6,0.2-1.2,0.2-1.8,0.2
			c-0.7,0-1.3-0.2-1.9-0.6c-0.5-0.4-0.8-0.9-1-1.5c-0.1-0.3,0.1-0.5,0.4-0.5s0.6-0.1,0.6,0.3c0.1,0.4,0.3,0.7,0.5,1
			c0.2,0.3,0.6,0.3,0.9,0.3c1.2,0.3,2.5,0.2,3.6-0.3c0.8-0.3,1.7-0.5,2.5-0.8c0.7-0.2,1.3-0.4,1.9-0.8c0.3-0.2,0.6-0.3,0.9-0.3
			c0.3-0.1,0.4-0.2,0.2-0.6c-0.3-0.4-0.2-1,0.1-1.3c0,0,0,0,0,0c0.2-0.2,0.5-0.3,0.7-0.4C32.6,44.2,33.2,44,33.8,44z M34.6,45.4
			c-0.6-0.2-1.2-0.6-1.9-0.2c-0.2,0.1-0.4,0.2-0.3,0.4s0.3,0.2,0.5,0.2C33.4,45.7,34,45.6,34.6,45.4z"/>
		<path d="M26.6,4.3c-0.1,0.8-0.3,1.6-0.6,2.3c-0.2,0.5-0.4,1-0.6,1.5S25,8.7,24.6,8.9s-0.4,0-0.4-0.2c0-0.3,0-0.7,0.1-1
			c0.4-0.7,0.5-1.5,1-2.1c0.1-0.2,0.1-0.4,0.1-0.7s0-0.3,0.2-0.4c0.4-0.2,0.1-0.3-0.1-0.4c-0.7-0.1-1.4,0-2,0.3
			c-0.7,0.4-1.2,0.9-1.9,1.2c-0.1,0.1-0.3,0.1-0.5,0S21,5.4,21.2,5.2s0-0.6,0.2-0.8s0-0.7,0-1S21.2,3.1,21,3.2
			c-0.6,0.1-1.1,0.5-1.5,1c-0.3,0.4-0.6,0.7-1.1,0.9C18.2,5.2,17.9,5,18,4.7s0-0.8,0.1-1.2c0.1-0.4,0.1-0.9-0.1-1.2
			c0-0.1,0-0.3,0-0.5c0-0.3,0.2-0.5,0.5-0.5c0.2-0.1,0.3,0.2,0.4,0.4c0.2,0.2,0.3,0.6,0.2,0.9c-0.1,0.3,0.2,0.5,0.5,0.3
			c0.4-0.2,0.8-0.4,1.2-0.6c0.4-0.3,0.9-0.3,1.3,0c0.3,0.2,0.3,0.6,0.2,0.8c-0.3,0.7,0.1,0.8,0.6,0.7c0.4-0.1,0.8-0.2,1.2-0.4
			c0.5-0.2,1.1-0.2,1.6-0.1c0.2,0,0.5,0.1,0.7,0.2C26.6,3.6,26.6,4,26.6,4.3z"/>
		<path d="M32.1,14.1c-0.5-0.1-0.9,0.3-1.3,0.1c-0.5,0.5-1.2,0.4-1.8,0.7c-0.2,0.1-0.4,0.2-0.5-0.2s-0.2-0.5,0.2-0.6
			c0.8-0.3,1.4-1,2.2-1.2c0.3-0.1,0.4-0.4,0.7-0.6s0.7-0.3,0.8-0.7c0.1-0.1,0.2-0.2,0.4-0.1c0,0,0,0,0.1,0c0.2,0.1,0.3,0.4,0.2,0.6
			c-0.2,0.2-0.3,0.4-0.6,0.6c-0.1,0.1-0.4,0.2-0.3,0.4c0.1,0.2,0.4,0.3,0.6,0.2c0.3-0.1,0.6,0,0.8,0.2c0.4,0.2,0.5,0.6,0.3,1
			c-0.1,0.2-0.2,0.3-0.4,0.3C33.2,15,33,15,33.1,15.3s0.1,0.3,0.4,0.3c0.5-0.1,1,0,1.5,0.3c0.3,0.2,0.4,0.5,0.2,0.8
			c0,0.1-0.1,0.1-0.1,0.2c-0.7,0.6-1.4,1.1-2.3,1.5c-0.7,0.3-1.3,0.6-1.9,0.9c-0.2,0.1-0.5,0.2-0.7,0.2c-0.2,0-0.5,0.4-0.6-0.1
			s0.2-0.6,0.4-0.7c1-0.5,2-0.8,2.9-1.3c0.3-0.2,0.6-0.4,1-0.6c0.2,0,0.1-0.3,0-0.4s-0.4-0.3-0.5-0.3c-0.6,0.1-1.1-0.1-1.7,0.1
			s-1,0-1.4,0.2c-0.1,0.1-0.4-0.1-0.5-0.3s0-0.3,0.2-0.4c0.6-0.4,1.3-0.7,2-0.9c0.2,0,0.5-0.4,0.8-0.6s-0.1-0.2-0.2-0.2
			S32.2,14.1,32.1,14.1z"/>
		<path d="M34.1,21c0.1-0.1,0.3-0.1,0.5-0.1c0.3,0,0.5,0.1,0.5,0.5c0,0.3-0.2,0.7-0.4,0.9c-0.7,0.7-1.5,1.3-2.5,1.6
			c-0.5,0.1-0.9,0.3-1.4,0.4c-0.7,0.2-1.4-0.1-1.6-0.8c0-0.1-0.1-0.2-0.1-0.3c-0.1-0.2,0-0.5,0.2-0.6c0.2-0.1,0.2-0.3,0.2-0.5
			c-0.1-0.5,0.3-0.7,0.6-0.9c0.2-0.2,0.4-0.3,0.6-0.3c0.8-0.2,1.6-0.5,2.3-1c0.3-0.2,0.6-0.2,0.9-0.3c0.2-0.1,0.4-0.2,0.5-0.3
			c0.7-0.5,1.6-0.8,2.3-1.4c0.2-0.1,0.4-0.3,0.6-0.5c0.2-0.2,0.5-0.4,0.9-0.4c0.2,0,0.3,0.1,0.4,0.2c0.1,0.2,0,0.4-0.2,0.5
			c-0.7,0.3-1.2,1-1.9,1.3s-1.4,0.8-2.1,1.2c-0.1,0.1-0.2,0.2-0.2,0.3S34.1,20.7,34.1,21z M33,21.4c-0.8,0.2-1.6,0.4-2.3,0.6
			c-0.1,0-0.1,0.1-0.1,0.1c0.3,0.3-0.1,0.4-0.1,0.6s-0.1,0.3,0,0.5s0.3,0.1,0.5,0c0.3-0.1,0.7-0.2,1-0.3c0.7-0.1,1.3-0.4,1.7-0.9
			c0.3-0.3,0.2-0.5-0.2-0.6L33,21.4z"/>
		<path d="M14.6,4.2c-1,0.5-2.1,0.7-3.2,0.7c-0.9,0.1-1.8-0.4-2.2-1.2C9.1,3.5,8.9,3.5,8.7,3.5c-0.2,0-0.4-0.2-0.4-0.4
			C8.3,3,8.4,2.9,8.5,2.8s0.3,0.1,0.5,0.1C9,2,9.5,1.4,9.8,0.7c0.2-0.3,0.5-0.5,0.8-0.5c0.2,0,0.5,0,0.7-0.2s0.1-0.1,0.2,0
			c0.4,0.4,0.9,0.3,1.4,0.3S14.1,1,14,1.5s-0.5,0.8-0.9,1.1s-1,0.3-1.5,0.6h-0.1c-0.1,0-0.3-0.2-0.4,0s0.1,0.3,0.2,0.4
			c0.4,0.3,0.8,0.7,1.3,0.4c0.1,0,0.3,0,0.4,0c0.3,0.2,0.8,0.1,1-0.2c0.1-0.2,0.3-0.2,0.2,0.1C14.3,4.1,14.6,4.1,14.6,4.2z M10.6,2
			c0,0.1,0,0.3,0.3,0.3c0.5-0.1,1.1-0.2,1.6-0.4c0.2-0.1,0.3-0.1,0.1-0.3c-0.3-0.3-0.7-0.4-1.1-0.4C10.8,1.2,10.6,1.4,10.6,2z"/>
		<path d="M31.8,29.3c0.2-0.1,0.3-0.1,0.3,0.1s0,0.3-0.2,0.4c-0.1,0-0.1,0-0.2,0c-0.7-0.3-1.5,0-2.3-0.3c-0.4-0.2-0.8-0.5-0.8-0.8
			c0.1-0.3,0.3-0.5,0.5-0.7c0.9-0.5,1.8-1.1,2.7-1.7c0.3-0.2,0.8-0.3,0.8-0.8c0,0,0-0.1,0.1-0.1c0.2-0.1,0.5-0.3,0.7,0
			c0.1,0.2,0.4,0.4,0.7,0.3c0.2,0,0.4,0,0.6,0.2c0.5,0.3,1,0.2,1.4,0.7c0.2,0.2,0.5,0.4,0.4,0.8c-0.1,0.4-0.3,0.7-0.7,0.8
			c-0.9,0.3-1.8,0.1-2.5-0.6c0,0-0.1,0-0.1-0.1c-0.1-0.7-0.5-0.3-0.9-0.2s-0.4,0.2-0.6,0.1c-0.1,0-0.3,0-0.3,0.1
			c-0.3,0.4-0.7,0.5-1.1,0.8s-0.3,0.4,0.1,0.6S31.5,29,31.8,29.3z M34.6,26.8c-0.1,0-0.2,0-0.2,0.1s0.4,0.5,0.5,0.5s0.2-0.1,0.2-0.2
			C35.1,27,34.9,26.9,34.6,26.8z"/>
		<path d="M28.9,12c0.3,0.1,0.6-0.1,1,0s0.4,0.2,0.3,0.4s-0.2,0.2-0.3,0.2c-0.5,0.1-1,0.2-1.6,0.2c-0.2,0-0.5,0-0.7-0.1
			c-0.2-0.1-0.3-0.1-0.5-0.1c-0.1,0.1-0.2,0-0.3-0.1c-0.3-0.6-0.3-1.3,0-1.8c0.2-0.3,0.3-0.6,0.4-0.9c0.1-0.2,0-0.4-0.2-0.5
			c-0.1-0.2-0.3-0.3-0.4-0.5c-0.1-0.1,0-0.3,0.1-0.3c0,0,0,0,0,0c0.2-0.1,0.5-0.1,0.7,0c0.3,0.2,0.6,0.4,1,0.1s0.8-0.4,1.1-0.6
			c0.5-0.3,1.1-0.3,1.5,0c0.3,0.1,0.4,0.4,0.4,0.8c0,0.4-0.2,0.8-0.5,1.1c-0.7,0.5-1.5,0.7-2.3,0.6c-0.3,0-0.6,0.2-0.7,0.5
			c-0.2,0.4-0.1,0.9,0.2,1.2C28.3,12.1,28.6,12,28.9,12z M29.4,9c0.3,0.3,0.6,0.1,0.8-0.1c0.1-0.1,0.1-0.2,0.1-0.3
			c-0.1-0.1-0.2-0.1-0.3-0.1C29.7,8.7,29.5,8.8,29.4,9z"/>
		<path d="M31,42c0.2,0.2,0.3,0.1,0.4-0.1c0.1-0.1,0.1-0.1,0.2-0.1c0.5,0.1,1,0,1.4-0.1c0.6-0.2,1.1-0.4,1.7-0.7
			c0.1,0,0.2-0.2,0.1-0.2s-0.3-0.3-0.4-0.3c-0.4,0.1-0.7-0.2-1-0.2c-0.6,0-1.2-0.2-1.8,0c-0.2,0.1-0.5,0-0.7-0.2
			c-0.1-0.2,0.2-0.7,0.4-0.7c0.8-0.2,1.6-0.5,2.4-0.8c0.5-0.2,1-0.4,1.5-0.5c0.1,0,0.2-0.1,0.3,0s0.4,0.1,0.4,0.3s-0.2,0.2-0.3,0.3
			c-0.4,0.2-0.8,0.4-1.2,0.6c-0.1,0-0.3,0-0.3,0.2s0.2,0.2,0.3,0.2c0.4,0,0.8,0.1,1.2,0.3c0.2,0.1,0.4,0.2,0.5,0.3
			c0.4,0.3,0.3,0.5-0.1,0.8c-0.9,0.6-1.9,1.1-2.9,1.5c-0.6,0.2-1.3,0.2-1.9,0.4c-0.3,0-0.6-0.1-0.9-0.2c-0.1-0.1-0.1-0.2,0-0.3
			S30.8,42.1,31,42z"/>
		<path d="M7.4,1.4C7.1,1.3,6.8,1.3,6.7,1.7c0,0.1-0.3,0.2-0.4,0.2c-0.7,0-1,0.7-1.4,1s-0.2,1-0.1,1.4c0.1,0.5,0,0.9-0.1,1.4
			C4.4,6,4.1,6.1,3.8,6.2C3.5,6.1,3.4,5.8,3.4,5.5C3.4,5.2,3.2,4.8,3,4.5c-0.3-0.6-0.3-1.4-0.7-2c-0.1-0.3,0-0.6,0.2-0.7
			c0,0,0.1,0,0.1,0C2.9,1.6,3.3,1.6,3.4,2S3.6,2.4,4,2.2s0.8-0.7,1.3-0.9C6,1.1,6.7,0.9,7.5,0.9c0.2,0,0.4,0.1,0.4,0.3
			c0,0,0,0.1,0,0.1C7.9,1.6,7.6,1.3,7.4,1.4z"/>
		<path d="M30.7,32.3c0-0.3,0.1-0.6,0.5-0.8c0.5-0.2,0.8-0.7,1.3-0.8c0.1,0,0.2-0.1,0.2-0.1c0.7,0.3,1.3-0.2,1.9-0.5
			c0.4-0.2,0.9-0.3,1.3-0.4c0.1,0,0.3,0.1,0.3,0.2c0,0.1,0.1,0.3-0.1,0.4c-0.5,0.2-0.5,0.5-0.3,0.9c0.1,0.4,0.1,0.7,0.2,1.1
			c0,0.3-0.2,0.4-0.4,0.5s-0.3-0.1-0.4-0.3c-0.3-0.7-1.1-1.1-1.8-0.8c-0.1,0-0.1,0.1-0.2,0.1c-0.6,0.3-1.2,0.6-1.9,0.7
			C30.8,32.6,30.6,32.6,30.7,32.3z"/>
		<path d="M34.4,34.8c0.5,0,0.9-0.1,1.4-0.1c0.3,0,0.5,0.1,0.7,0.3c0.1,0.1,0,0.3-0.1,0.4c-0.3,0.2-0.6,0.2-0.9,0.2
			c-0.1,0-0.1-0.1-0.2-0.1c-1,0.3-2.1,0.4-3.1,0.7c-0.4,0-0.7,0.3-0.9,0.6c-0.1,0.2-0.6,0.2-0.8,0c-0.2-0.1-0.2-0.4-0.1-0.6
			c0,0,0.1-0.1,0.1-0.1c0.3-0.3,0.6-0.4,1-0.5c0.7-0.2,1.3-0.4,1.9-0.6C33.8,34.8,34.1,34.7,34.4,34.8z"/>
		<path d="M38.6,34.5c-0.1,0.4-0.5,0.2-0.8,0.4c-0.1,0.1-0.3-0.1-0.4-0.3s0.4-0.6,0.7-0.6S38.5,34.4,38.6,34.5z"/>
		<path d="M13.8,29.8c-0.2-0.4-0.3-0.9-0.2-1.4c0-0.3,0.1-0.6-0.2-1c-0.2,0.3-0.4,0.7-0.5,1c-0.2,0.9-0.2,1.9-0.2,2.9
			c0.1,0.6,0.2,1.2,0.2,1.8c0,0.3,0.3,0.6,0.3,0.9c0.1,0.5,0.2,0.9,0.3,1.4c0.1,0.4,0,0.8-0.2,1.1c-0.2,0.2-0.1,0.4-0.1,0.5
			s-0.1,0.2-0.2,0.3s-0.2-0.1-0.2-0.2c-0.1-0.6-0.4-1.1-0.8-1.5c-0.5-0.5-1-0.9-1.6-1.2c-0.4-0.2-0.8-0.4-1.1-0.8
			c-0.3-0.5-0.8-0.6-1.3-0.8c-0.3-0.1-0.5-0.2-0.7-0.3c-0.3-0.2-0.6-0.1-0.6,0.2C6.5,33.7,6.7,34.4,7,35c0.3,0.5,0.6,1,0.8,1.5l0,0
			c-0.2,0.1-0.5,0-0.6-0.3c-0.4-0.7-0.8-1.4-1.1-2.2C5.9,33.6,5.9,33,6,32.4c0.1-0.3,0.3-0.4,0.6-0.3c0,0,0,0,0,0
			c0.8,0.3,1.7,0.6,2.4,1c0.3,0.1,0.4,0.4,0.6,0.6c0.5,0.4,1.1,0.6,1.6,1s1,0.6,1.5,1.1c0.1,0.1,0.2,0.2,0.4,0.1s0.1-0.2,0.1-0.3
			s-0.1-0.5-0.1-0.7c0.1-0.8-0.4-1.5-0.4-2.3c0-0.4-0.3-0.8-0.2-1.2s-0.1-0.8,0-1.2c0-0.1,0-0.2-0.1-0.3c-0.2-0.1-0.2,0.1-0.3,0.1
			c-0.4,0.2-0.7,0.5-0.9,0.9c-0.1,0.2-0.3,0.3-0.6,0.4c-0.7,0.4-1.4,0.4-2.1,0.1c-0.3-0.1-0.4-0.4-0.3-0.7c0.2-0.7,0.5-1.3,1-1.8
			c0.4-0.5,0.8-1.1,1.2-1.7c0.4-0.4,0.8-0.7,1.1-1.2c0-0.1,0.1-0.1,0.1-0.2s0.2-0.2,0.1-0.3s-0.3-0.1-0.4,0
			c-0.4,0.1-0.7,0.2-1.1,0.3c-0.8,0.2-1.5,0.3-2.3,0.5c-0.5,0.1-1.1,0-1.6-0.3c-0.6-0.1-1.1-0.4-1.5-0.9c-0.2-0.3-0.2-0.6,0-0.9
			c0.4-0.5,1-0.8,1.6-0.9c0.7-0.2,1.3-0.2,2,0c0.8,0.2,1.4,0.7,2.2,1c0.1,0,0.1,0.1,0.2,0.1c0.2,0,0.5,0.2,0.7,0.1s0-0.4-0.1-0.6
			c-0.1-0.9-0.4-1.7-0.8-2.5c-0.2-0.5-0.2-1-0.1-1.4c0.1-0.5,0.4-0.9,0.8-1.1c1-0.5,1-0.5,1.5,0.5c0.4,0.8,0.7,1.7,1,2.6
			c0.1,0.4-0.1,0.8,0,1.2c0.6-0.4,1.2-0.9,1.7-1.4c0.3-0.3,0.6-0.5,0.9-0.7c0.5-0.3,1-0.7,1.4-1.1c0.2-0.2,0.5-0.3,0.7-0.2
			c0.3,0.1,0.5,0.3,0.5,0.6c0.2,0.7,0.1,1.4-0.2,2c-0.3,0.3-0.4,0.9-0.8,1.1c-0.1,0.1-0.1,0.2-0.1,0.3c0,0,0,0,0,0
			c0.1,0.1,0.2,0.1,0.4,0.1c0.9-0.2,1.8-0.1,2.6,0.3c0.7,0.5,1,1.4,0.8,2.2c-0.2,0.3-0.5,0.5-0.9,0.4c-0.2,0-0.4,0-0.6,0.2
			c-0.3,0.2-0.6,0.3-0.9,0.3c-0.5,0-0.9,0-1.4,0.1s-0.8-0.3-1.2-0.3c-0.2,0-0.5,0-0.7-0.1c0.2,0.5,0.7,0.9,1.2,0.9
			c0.8,0.3,1.2,1.2,1,2.1c-0.3,0.9-1.1,1.7-2,2c-0.3,0.1-0.5,0-0.7-0.3c0,0,0-0.1,0-0.1c-0.2-0.4-0.3-0.8-0.3-1.2
			c-0.1-0.3-0.2-0.6-0.4-0.9c-0.1-0.1-0.1-0.2-0.3-0.2c-0.1,0.1-0.2,0.2-0.2,0.3C14.1,29.5,14.1,29.7,13.8,29.8L13.8,29.8z
			 M12.8,25.3c-0.1,0-0.3,0-0.4,0.1c-0.7,0.6-1.3,1.2-1.9,1.9c-0.7,0.8-1.4,1.6-1.9,2.6c-0.2,0.5-0.1,0.7,0.3,0.9s1.1-0.2,1.7-0.2
			c0,0,0.1-0.1,0.1-0.1c0-0.3,0.2-0.4,0.4-0.5c0.5-0.3,0.9-0.8,1.1-1.3c0.2-0.6,0.5-1.2,0.8-1.8c0.1-0.1,0.2-0.4,0-0.6
			C12.8,26,12.7,25.6,12.8,25.3c0.1-0.1,0.3,0,0.4,0c0.5-0.2,0.9-0.3,1.4-0.4c0.1,0,0.2,0,0.1-0.1c0-0.4,0.3-0.4,0.5-0.6
			c0.5-0.2,1-0.4,1.5-0.7c0.7-0.5,1.2-1.2,1.5-2c0.2-0.4,0.2-0.9,0-1.4C18.3,20,18.3,20,18,20.1c-0.5,0.2-0.8,0.6-1.2,0.8
			c-0.5,0.4-1,0.8-1.5,1.2c-0.4,0.3-0.7,0.7-1.1,1.1c-0.4,0.3-0.7,0.8-0.7,1.3c0,0.4-0.2,0.5-0.5,0.6S12.8,25.1,12.8,25.3L12.8,25.3
			z M14.2,25.7c0.2-0.2,0.4-0.4,0.7-0.3c0.7,0.5,1.5,0.6,2.2,1s1.4,0,2.1,0.2c0.2-0.3,0.5-0.2,0.8-0.3c0.3,0,0.7-0.2,0.9-0.5
			c0.2-0.7-0.2-1.5-0.9-1.7c-0.9-0.2-1.8-0.2-2.6,0c-0.4,0.1-0.8,0-1.1,0.2c-0.5,0.5-1.1,0.8-1.8,1C14.3,25.3,14.2,25.4,14.2,25.7
			L14.2,25.7z M11.6,22.7c0,0.4,0.1,0.9,0.4,1.2c0.3,0.3,0.6,0.2,0.8-0.1c0.2-0.5,0.4-1,0.5-1.6c0.1-0.2,0.1-0.4,0-0.6
			c-0.3-0.7-0.6-1.4-0.9-2.2c-0.1-0.3-0.4-0.5-0.7-0.4c-0.1,0-0.2,0.1-0.2,0.1c-0.5,0.6-0.7,1.4-0.4,2.1
			C11.4,21.6,11.6,22.2,11.6,22.7L11.6,22.7z M17.5,28.8c0-0.4-0.3-0.7-0.8-0.9c-0.8-0.2-1.4-0.7-1.8-1.4c0,0,0-0.1-0.1-0.1
			c-0.2-0.1-0.4-0.2-0.6-0.1c-0.1,0-0.2,0.1-0.1,0.2c0,0.4,0,0.9,0.2,1.3c0.2,0.4,0.4,0.8,0.7,1.2c0.3,0.4,0.3,0.9,0.5,1.4
			c0.1,0.3,0.3,0.6,0.7,0.5C17,30.4,17.5,29.7,17.5,28.8L17.5,28.8z M7.3,23.4c-0.4,0.1-0.9,0.2-1.5,0.3c-0.4,0.2-0.6,0.6-0.4,1
			C5.5,25,5.8,25,6,25.1c0.4,0.3,0.9,0.4,1.4,0.4c1-0.1,2.1-0.4,3.1-0.6c0.1,0,0.3,0,0.3-0.2s-0.1-0.2-0.3-0.3
			c-0.3-0.1-0.6-0.2-0.9-0.4C8.9,23.7,8.1,23.4,7.3,23.4z"/>
		<path d="M22.3,32.1c0,1.2-0.2,2.4-0.8,3.5c-0.5,1-1.3,1.7-2.3,2.1c-0.1,0-0.2,0-0.3,0c-0.1,0-0.1,0-0.1-0.1c0-0.1,0-0.1,0.1-0.1
			c0.3,0,0.7-0.2,0.8-0.5l0,0c0.7-0.4,1.2-1,1.5-1.8c0.4-0.8,0.6-1.6,0.5-2.5c0-0.5-0.1-0.6-0.5-0.4c-0.7,0.3-1.3,0.8-2,1.1
			c-0.9,0.3-1.6,0.8-2.2,1.5c-0.5,0.6-1.1,1-1.4,1.7c-0.2,0.4-0.7,0.6-1.2,0.6c-0.1,0-0.2-0.1-0.2-0.3c0,0,0,0,0-0.1
			c0.4-0.9-0.1-1.7-0.4-2.5c-0.1-0.2-0.1-0.3-0.1-0.5c0.1-0.3,0.1-0.6,0-0.9c-0.1-0.2,0-0.3,0.2-0.3s0.1,0.2,0.1,0.3
			c-0.1,0.7,0,1.5,0.4,2.1c0.1,0.2,0.2,0.4,0.2,0.6c0.1,0.4,0.2,0.5,0.6,0.2c0.4-0.4,0.8-0.8,1.2-1.3c0.5-0.6,1.2-1.1,2-1.4
			c0.4-0.2,0.8-0.5,1.2-0.8c0.2-0.2,0.4-0.3,0.6-0.3c0.5-0.1,1-0.3,1.4-0.5c0.1-0.1,0.3-0.1,0.4,0C22.2,31.6,22.3,31.8,22.3,32.1
			C22.3,32.1,22.3,32.1,22.3,32.1z"/>
		<path d="M7.8,36.6c0.2,0,0.4,0.2,0.5,0.4c0.3,0.3,0.6,0.4,1,0.4c0.5,0.1,0.9,0.3,1.3,0.6c1,0.7,2.2,1,3.4,0.8
			c0.6,0,1.2,0.1,1.9,0.2c0,0,0.1,0,0.1,0.1c0,0,0,0,0,0c0,0.1-0.1,0.1-0.2,0.1c0,0,0,0,0,0c-0.7-0.2-1.4,0.3-2.1,0.1
			c-0.1,0-0.2,0-0.3,0.1c-0.3,0.1-0.7,0-1-0.2C12.3,39,12.3,39,12.2,39c-0.4,0-0.9-0.1-1.2-0.4c-0.9-0.5-1.9-1-2.9-1.3
			C7.8,37.2,7.8,36.9,7.8,36.6L7.8,36.6z"/>
		<path d="M13.8,29.8c0.3,0.2,0.4,0.6,0.3,0.9c-0.1,0.5-0.1,1.1,0,1.6c0,0.1,0,0.2-0.1,0.2c-0.1,0-0.1,0-0.2-0.1
			c-0.1-0.3-0.2-0.6-0.2-0.9c-0.1-0.5,0-0.9-0.1-1.4C13.6,30,13.6,29.8,13.8,29.8L13.8,29.8z"/>
		<path d="M18.6,37.8c-0.4,0.4-0.9,0.6-1.4,0.8C17.5,38.1,18.1,37.8,18.6,37.8z"/>
	</g>
</g>
</svg>
