<svg xmlns="http://www.w3.org/2000/svg" viewBox="0 0 59.57 54.71"><defs><style>.cls-1{opacity:0.9;}.cls-2{fill:#fffbf3;}.cls-3{opacity:0.3;}.cls-4{fill:#8195a5;}</style></defs><g id="Layer_2" data-name="Layer 2"><g id="Layer_1-2" data-name="Layer 1"><g class="cls-1"><path class="cls-2" d="M3.15,42.58c.88,1.1,2.79.9,4,.8a8.18,8.18,0,0,0,3.35-1c.55-.3,1.56-.59,2.38-1s1.59-1,2.43-1.44a15.87,15.87,0,0,0,2.55-1.49A18.75,18.75,0,0,0,22,34.38a40.73,40.73,0,0,0,3-4.86,12.45,12.45,0,0,0,.72-2.87c.23-1.07.56-2.12.81-3.19s.59-2.11.77-3.18a15.82,15.82,0,0,1,.24-2.76c.14-.42.43-.79.57-1.22A6.71,6.71,0,0,0,28.27,15a5.51,5.51,0,0,1,.7-2.22c.55-.8.78-1.76,1.31-2.6s.84-2,1.45-2.83,1.42-1.54,2.06-2.38c.42-.54,1.09-2,1.53-2.2l-1.87.48c-.39,0-.63-.37-.3,0a4.6,4.6,0,0,0,.47.41,7.9,7.9,0,0,0,1,.77c.94.6,1.89,1.23,2.85,1.81a26.86,26.86,0,0,0,2.81,1.48,27.86,27.86,0,0,0,3.63.89l.91-2-.33.15,1.87-.48a10.76,10.76,0,0,0-6.24,2.45,13.09,13.09,0,0,0-3.42,5.39c-.36.95-.87,1.77-1.26,2.7A5,5,0,0,0,35.13,18a5.65,5.65,0,0,1-.67,1.72,12.58,12.58,0,0,0-1.08,2.91c-.27,1.11-.34,2.26-.65,3.34a37.06,37.06,0,0,1-2.46,6.38c-.89,1.81-1.45,3.8-2.46,5.55a11,11,0,0,1-1.92,2.17A24.66,24.66,0,0,0,24,42.63a20,20,0,0,1-1.81,2.19c-.14.13-1.14.81-.72.58s-1.38.45-1.42.62l.84-.15q1.32.1.6-.36a2.93,2.93,0,0,0-.47-.46,7.41,7.41,0,0,0-1.37-.91,6.49,6.49,0,0,0-1.74-.73,6,6,0,0,1-1.16-.52,29.65,29.65,0,0,0-3.26-.75,4.83,4.83,0,0,0-.76-.13c-.18,0-.69-.17-.35,0a3.65,3.65,0,0,1-1-.62L7.3,43.59a54.59,54.59,0,0,0,9.49,2.34,4.61,4.61,0,0,0,2.67-.61c.31-.17,1.51-.92,1.15-1.46a21.69,21.69,0,0,0-4.3-4.52l-4.4,2a10.19,10.19,0,0,0,3.19,1.38l.84.18c.64.14-.27-.06,0,0l1.17.27c1.8.38,4.43.35,5.56-1.38a.68.68,0,0,0,0-.91c-.95-1-2.27-1.09-3.52-1.45a6.13,6.13,0,0,0-4.72,0c-.34.15-1.8,1-1.41,1.61.73,1.16,2.41,1.36,3.66,1.69.93.24,1.87.34,2.8.57a13.66,13.66,0,0,0,2.83.5A4.88,4.88,0,0,0,25.48,43c.57-.46,1.05-1.17.16-1.59-2.06-1-4.2-1.93-6.34-2.75a4.11,4.11,0,0,0-3.11.51c-.48.27-1.67,1.09-1,1.72,1.33,1.21,3.08,1.76,4.65,2.57a5,5,0,0,0,5.42-.13c.39-.26,1.05-.75.88-1.31-.3-1-1.34-1.57-2.2-2.09-1.09-.65-1.86-1.67-3-2.31a3.58,3.58,0,0,0-3.17.18c-.35.17-2.16,1.33-1.24,1.87a15.81,15.81,0,0,0,6.07,2.24c1.2.12,3.86-.5,3.82-2.07s-3.43-3-4.47-3.71l-4.08,2.24a17.2,17.2,0,0,0,6,1.8c.93,0,3.77-.38,3.83-1.76,0-1.06-.7-1.54-1.54-2-1.06-.64-2-1.4-3.15-2s-5.4,1.12-4.08,2.23A9.8,9.8,0,0,0,25,38.89c.91,0,3.07-.64,3.29-1.77.37-2-2.94-2.6-4.08-3.55l-4.08,2.24a39.9,39.9,0,0,0,4.56,1.12c1,.13,4.18-.58,3.82-2.07-.16-.66-1.18-1-1.68-1.39s-.72-.55-1.11-.79-1.26-.41-1.65-.83l-3.64,2.33a31.67,31.67,0,0,1,4.86.85,4.15,4.15,0,0,0,2.85-.36c.44-.21,1.75-.93,1.42-1.61a8.51,8.51,0,0,0-3.81-3.12,4,4,0,0,0-3.12.51c-.38.22-1.77,1.19-1,1.72,2.39,1.59,5.1,2.59,7.62.5.35-.29.7-.86.27-1.25-.94-.86-2-1.62-2.91-2.47l-4.08,2.23a33.77,33.77,0,0,0,3.23,1.19c1.11.3,4.52-.27,4.26-2-.21-1.43-2.17-3-3.22-3.78L22.4,28.67c1.5,1,3.1,1.87,4.69,2.74,1.16.64,3.41-.36,4.11-1.32,1.25-1.7-2.27-3.22-2.73-4.42l-4.26,2c1,.36,1.62,1.23,2.59,1.52a5.22,5.22,0,0,0,3.92-.85c.39-.23,1-.78.88-1.32a4.27,4.27,0,0,0-.86-1.56c-.44-.5-.86-.67-1-1.37l-4.26,2a7.78,7.78,0,0,0,3.44.83c.6,0,3.94-.87,3.28-2.08-.54-1-1.17-1.94-1.7-3l-4.58,1.79a19.66,19.66,0,0,0,3,1.88,4,4,0,0,0,2.85-.37c.45-.21,1.74-.93,1.41-1.6a18.35,18.35,0,0,0-2.81-4L26.26,21.8a21,21,0,0,1,2.64,1.42c1,.53,4.63-.45,4.26-2S31.67,19,30.71,18l-4.08,2.23c.59.21,1.72,1.27,2.55,1.71a4.59,4.59,0,0,0,4.74-.45c.29-.21,1.15-.8.87-1.31-.67-1.23-1.46-2.39-2.21-3.58-.35-.56-1.14-1.25-1.19-1.92L26.8,16.46a20.8,20.8,0,0,0,2.56,2.13,28.26,28.26,0,0,1,2.8,1.79c1.15.95,5.65-.85,4.4-2.05a45.16,45.16,0,0,1-4.82-5.06l-4.41,2a27.34,27.34,0,0,0,2.25,2.19,3.31,3.31,0,0,0,3,.64c.49-.08,3.21-1,2.68-2a19.47,19.47,0,0,0-1.4-2.2c-.33-.49-1.14-1.14-1-1.77l-4.59,1.48c.75.47,1.26,1.18,2,1.71a9.91,9.91,0,0,0,1.51.88,4.79,4.79,0,0,0,5-.29c.29-.21,1.17-.81.88-1.31a23,23,0,0,0-2.19-3.24,14.94,14.94,0,0,0-1.14-1.25c-.25-.23-.89-.6-.83-1l-3.29,1.77c-.72,0-.17,0,.17.26s.54.43.82.62a9,9,0,0,0,1.4.82,4.33,4.33,0,0,0,4.81-1.23c.92-1.31-1-3.43-2-4.14a3.23,3.23,0,0,0-2.86.06c-.53.21-2,.91-1.72,1.72a6.21,6.21,0,0,0,2.26,2.61c.83.63,1.72,1.74,2.72,2s4.5-.29,4.26-2c-.18-1.28-1.38-2-2.25-2.83s-1.53-2-2.81-2.65c-.89-.44-2.35.07-3.12.51-.43.24-1.71,1.12-1,1.72a17,17,0,0,0,3.63,2,8,8,0,0,0,3.53,1.17c1,0,3.05-.62,3.29-1.77s-1-2.17-1.92-2.78a44.09,44.09,0,0,0-3.66-2.65c-1-.55-5.34,1-4.08,2.23a9.69,9.69,0,0,0,1.81,1.21c.68.44,1.35.9,2,1.3a4.63,4.63,0,0,0,5.13-.83c.19-.16.62-.67.45-1-.61-1.14-2-1.94-3-2.83l-.7,1.58,0,0-2.4.77c-.9,0-.4,0,.13.3.3.14.59.3.88.47a5.35,5.35,0,0,0,2.74,1l-1.31-.3c.79.57-1.89,4.25-2.27,4.79a49.72,49.72,0,0,0-2.74,4.54c-.5.89-.77,1.88-1.25,2.79A22.51,22.51,0,0,0,30.14,23a27.26,27.26,0,0,0-1.36,5.69c-.13.88,0,1.78-.2,2.64a10.8,10.8,0,0,1-.9,2.17c-.41.81-.82,1.61-1.21,2.42A13.41,13.41,0,0,1,25,38c-.47.63-.87,1.3-1.3,1.95s-1.21,1.18-1.74,1.85-.6,1.32-1.31,1.69c.25-.13.23,0-.21,0s-1,.19-1.54.3c-.81.18-2.54.67-2.68,1.7s1.51.93,2.09.8c2.34-.53,4.43-.93,6.37-2.47a13,13,0,0,0,1.69-2.18,19.7,19.7,0,0,0,2-2.28,27.63,27.63,0,0,1,1.81-2.52,13.84,13.84,0,0,0,1.42-2.59c.47-.92,1-1.82,1.38-2.77a7.53,7.53,0,0,0,.5-3A21.33,21.33,0,0,1,35,21.85c.43-1.06,1.07-2,1.52-3.08s1-2,1.53-3c1-2,2.42-3.71,3.48-5.69a5.3,5.3,0,0,0,.89-2.87c-.09-1.11-1-1.2-2-1.22l1.3.3c-2.33-1.41-4.58-3-7.29-1.29-.44.28-1.28,1-.7,1.57s1,.94,1.53,1.37c.33.28.87.54,1.08.94l.45-1-.2.17,2.23-1c1.08-.16,1,0,.24-.45l-1.19-.77a9.22,9.22,0,0,1-1.81-1.21L32,6.86a22.5,22.5,0,0,1,1.83,1.46c.32.24.65.46,1,.69s1.89,1.13,1.76,1.77L39.89,9c.39,0,.52.17.15-.07a6.63,6.63,0,0,0-.59-.31C39,8.4,38.58,8.19,38.13,8A13.2,13.2,0,0,1,35.32,6.4L31.24,8.63c.94.46,1.43,1.6,2.17,2.29s1.74,1.22,1.89,2.31l4.26-2c-.33-.1-.63-.54-.89-.76s-.79-.61-1.19-.91a5.14,5.14,0,0,1-1.9-2.08L31,9.3a5.38,5.38,0,0,1,1.18,1.2,4.56,4.56,0,0,1,.51.73c.45.86-.15.44.9-.21l2.4-.77c.33,0,.76.27.39,0A2.6,2.6,0,0,0,36,10c-.38-.23-.72-.5-1.07-.76a4.35,4.35,0,0,0-2.92-1c-.9,0-3.1.61-3.29,1.77s.81,1.74,1.51,2.46a17.37,17.37,0,0,1,2.67,3.65l.88-1.31-.1.08,1.79-.7c.69-.13,1.08.08.31-.28a6.72,6.72,0,0,1-.75-.4c-.88-.54-1.47-1.4-2.34-1.95-1.19-.75-4.19,0-4.59,1.47a2.42,2.42,0,0,0,.79,2.17,15.69,15.69,0,0,1,1.6,2.43l2.68-2-.3,0,1.59,0c-1-.31-2-1.74-2.74-2.47-1-1-5.53.59-4.41,2a45.38,45.38,0,0,0,4.83,5.07l4.4-2.05a27.14,27.14,0,0,0-2.8-1.79,20.71,20.71,0,0,1-2.55-2.13c-1.08-.95-4.71.19-4.58,1.79.05.7.82,1.36,1.19,1.92.78,1.16,1.55,2.35,2.21,3.58l.88-1.32,2.64-.58-.2-.08a4,4,0,0,0-.42-.22,10.84,10.84,0,0,1-1-.69,6.64,6.64,0,0,0-1.57-1,4.11,4.11,0,0,0-3.11.51c-.51.29-1.64,1.06-1,1.72a6.26,6.26,0,0,1,2.1,2.74l4.26-2A19.17,19.17,0,0,0,30,19.39c-.93-.32-5.38.74-4.09,2.23a15.6,15.6,0,0,1,2.46,3.43l4.26-2a16.64,16.64,0,0,1-2.34-1.51,3.27,3.27,0,0,0-2.86.06c-.46.18-2.12,1-1.72,1.73.53,1,1.16,1.95,1.7,2.95l3.28-2.09a5.18,5.18,0,0,1-1.48-.6c-1-.41-4.61.37-4.26,2,.26,1.23,1.5,1.72,1.86,2.93l.88-1.32-.26.16,1.79-.7-.26.05,1.58,0c-.38-.1-.77-.61-1.12-.83A7.56,7.56,0,0,0,28,25.23c-.89-.32-4.85.41-4.26,2A5.86,5.86,0,0,0,25.28,29a10.28,10.28,0,0,1,1,1,3,3,0,0,0,.31.38c.3.19-.26.49.16-.08L30.85,29c-1.37-.76-2.75-1.49-4-2.38-.9-.61-2.27-.24-3.17.18-.45.21-2.08,1.22-1.24,1.87s2.69,2,2.87,3.26l4.26-2c-1.11-.3-2.16-.79-3.23-1.19a4,4,0,0,0-3.12.51c-.47.26-1.67,1.08-1,1.72.95.85,2,1.61,2.92,2.47l.27-1.25-.1.08,1.58-.86c1.29-.47,1.8,0,.91-.35a6.59,6.59,0,0,1-.71-.34,10.91,10.91,0,0,1-1-.63L22,32.36a6.52,6.52,0,0,1,1.58,1.13c.41.34,1,.61,1.22,1.1l4.26-2a35.8,35.8,0,0,0-5.74-1c-.79-.1-4.92,1-3.64,2.33a2.77,2.77,0,0,0,1.28.72,5,5,0,0,1,1.32.8c.26.18.53.34.8.51s.35.24.52.36.2.28.16.09l3.82-2.07a29.11,29.11,0,0,1-3.68-.92,4.32,4.32,0,0,0-3.12.51c-.45.26-1.7,1.11-1,1.72.56.47,3.84,1.66,3.7,2.4l3.29-1.77a7.58,7.58,0,0,1-3.32-1.73l-4.09,2.23c.82.42,1.52,1,2.3,1.49.26.16,1.38.64,1.37,1l3.82-1.76a14.62,14.62,0,0,1-5.16-1.6,4,4,0,0,0-3.12.51c-.39.22-1.76,1.18-1,1.72s1.83,1.15,2.73,1.76c.47.32,1.36.78,1.38,1.43l3.81-2.08A12,12,0,0,1,21,37.57l-4.41,2c1,.59,1.72,1.55,2.71,2.16.7.43,1.85.87,2.1,1.71l.88-1.31-.13.09,1.79-.7c1.36-.25,1.12.16.59-.13-.19-.1-.41-.18-.61-.28-.39-.2-.76-.41-1.16-.59a12,12,0,0,1-3.14-1.77L15.54,41c2.14.82,4.28,1.75,6.34,2.74l3.32-2.51a30.1,30.1,0,0,1-4.4-.8c-.59-.11-1.15-.32-1.72-.48-.3-.08-1.11-.11-1.29-.4l-1.41,1.61.13-.06-1.86.48c-.31,0,.41.17.51.2.35.11.69.21,1.06.29a3.47,3.47,0,0,1,2.05.88l0-.91-.05.07,1.26-1,1.78-.38-.34,0c-.16,0-.34-.05-.5-.08l-.8-.19a9.87,9.87,0,0,1-3.29-1.16,3.46,3.46,0,0,0-3.17.18c-.47.22-2,1.19-1.23,1.86a20,20,0,0,1,3.94,4l3.82-2.07a50.89,50.89,0,0,1-8.61-2.14A4.11,4.11,0,0,0,8,41.69c-.47.26-1.68,1.08-1,1.72a5.67,5.67,0,0,0,1.79,1.05,8.3,8.3,0,0,0,1.29.22c.62.13,1.2.35,1.83.45a25.46,25.46,0,0,1,2.43.78,5.87,5.87,0,0,1,2.62,1.54,3.42,3.42,0,0,0,2.84.89,6.83,6.83,0,0,0,2-.57c.16-.07.3-.15.45-.23,1.7-.87-.9.39,1-.41,2.07-.88,3.44-2.6,4.83-4.28.64-.77,1.1-1.7,1.79-2.44a16.28,16.28,0,0,0,2.29-2.54c1.09-1.79,1.64-3.85,2.57-5.72.5-1,1.09-2,1.5-3.09s.77-2.4,1.15-3.59c.33-1,.34-2,.61-3.07A16.47,16.47,0,0,1,39.21,19a6.68,6.68,0,0,0,.66-1.67,5.15,5.15,0,0,1,.4-1.6c.57-1.11,1-2.27,1.52-3.38a9.57,9.57,0,0,1,2.09-3.17c.22-.17.8-.42.29-.26a19.93,19.93,0,0,0,2.55-.66c.5-.23,2.37-1.62.91-2-1.11-.33-2.37-.37-3.44-.81A21.15,21.15,0,0,1,41,3.63,28.91,28.91,0,0,1,38.39,2a5.07,5.07,0,0,0-2-1.35C33.68,0,31.25,2.17,30,4.22a20.73,20.73,0,0,1-2,2.47,12.51,12.51,0,0,0-1.72,3c-.47,1-1,1.83-1.47,2.8-.18.37-.41.62-.62,1a7.18,7.18,0,0,0-.44,1.65,11.13,11.13,0,0,0-.22,1.52,5.27,5.27,0,0,1-.54,1.45c-.47,1.07-.23,2.21-.44,3.33-.49,2.49-1.26,4.93-1.74,7.43-.41,2.15-2.12,4.33-3.41,6.07a16.73,16.73,0,0,1-2.91,2.79,33.09,33.09,0,0,1-2.91,1.7c-1,.66-2.29.82-3.32,1.49s.85-.29.79-.13l-.76,0c-.36,0-.42.06-.67-.25-.94-1.17-5.53.64-4.41,2Z"/></g><g class="cls-3"><path class="cls-4" d="M29,7.89c-.8,2.84-2.93,5.4-3.83,8.37a4.49,4.49,0,0,0-.72,2.23q-.33,2.19.38-1.18A14.7,14.7,0,0,0,24,19.83c-.14.5-.82,4.33-.13,1.4a24.39,24.39,0,0,1-1.17,3.23,63,63,0,0,1-5.93,10.77,16.51,16.51,0,0,1-1.53,2.28l-.92.86c.68-.31.69-.42.06-.33-2.1.31-3.71-.14-5.63,1.26l9,5.18v-.26c.51-7.71-11.49-7.68-12,0v.26c-.28,4.3,5.41,7.82,9,5.18-1,.74-2.42.53.37.34a13.27,13.27,0,0,0,4-.83A14.32,14.32,0,0,0,25,44.46a74.33,74.33,0,0,0,7.45-12.53c2-4,2.29-8.21,3.84-12.2-1.49,3.83.84-1.69,1.41-2.84,1-2,2.24-3.7,2.84-5.81C42.68,3.64,31.1.46,29,7.89Z"/></g><g class="cls-3"><path class="cls-4" d="M4.9,43.09a11.71,11.71,0,0,0,1.83.56c.26.06.53.11.78.19-.35-.11.36.15.43.18.9.43,1.83,1,2.71,1.56.52.3,1,.62,1.56.88a6.08,6.08,0,0,0,1,.36l.38.11c-.2-.06-.18,0,0,0,.51.23,1,.5,1.52.72.1,0,.56.25.28,0a3.19,3.19,0,0,1,.35.47c.62.82,2.2.79,3.1.63.45-.08,2.32-.56,1.69-1.39a3.12,3.12,0,0,0-1.18-1.07c-.52-.26-1.08-.47-1.61-.73s-1.28-.44-1.93-.68c.25.09-.08-.06-.17-.12-.26-.17-.53-.32-.79-.48-1.1-.64-2.19-1.3-3.32-1.86a10,10,0,0,0-1.84-.63l-.88-.21c-.31-.06.24.1-.06,0l-.45-.18a4.62,4.62,0,0,0-3.54.14c-.3.15-.71.4-.7.79s.47.6.76.73Z"/></g><g class="cls-3"><path class="cls-4" d="M21.72,35.61c.82.37,1.69.89,2.59,1.21s1.86.61,2.78,1a14.65,14.65,0,0,0,2.82.74l1.2.18c.36.05.71,0,1.06.05l-.91-.32.13.06-1.5-1.21.1.11-.71-2c-.17.12-1.14-.25-1.38-.31a8.47,8.47,0,0,1-1.87-.9,16.47,16.47,0,0,0-1.88-1c.22.07.33.26.08,0s-.45-.38-.68-.55a5.58,5.58,0,0,0-.73-.46c-.39-.2-.38-.39.32.29l1.12,1.4-.08-.14.06,1c-.11.09.07,0,0,0,.15,0,.33,0,.49.06s0,0,.17,0l.39.12c.84.25,1.67.55,2.49.86s1.86.67,2.78,1a5.38,5.38,0,0,0,2.78.52c.76-.15.14-1.33-.09-1.63-1.49-1.91-3.54-2.72-5.69-3.67-.94-.41-1.89-.81-2.85-1.15-.43-.16-.87-.25-1.3-.4.29.1-1-.43-.59-.28a2.69,2.69,0,0,0-.8-.2c-.65-.06-.8.41-.61,1a4.57,4.57,0,0,0,1.71,2c1.64,1.1,3.67,1.27,5.56,1.71.93.22,2,.34,2.86.54a2.68,2.68,0,0,0,2.22-.07c.42-.28-.16-1.25-.33-1.48a8,8,0,0,0-2.59-2.25l-.37-.19c-.31-.16.28.17-.06,0s-.79-.51-1.21-.73a17.51,17.51,0,0,0-2.06-.85c-.31-.12-.68-.25-.94-.37l-.33-.16s-.49-.28-.23-.11l1.09,3c1.32,0,2.6-.14,3.91-.17.61,0,1.25,0,1.86,0A4.74,4.74,0,0,0,34,31.92c1.52-.45-1.48-3.07-2-3.31a13.64,13.64,0,0,0-2.49-.88c-.76-.22-1.49-.56-2.24-.83-1.55-.57-3.19-.88-4.72-1.51l2.09,3.55a17.88,17.88,0,0,1,2.07,0c.6.07,1.2.21,1.81.29s1.16.08,1.74.19a3.85,3.85,0,0,0,1.62.16c1.42-.31-1.13-2.75-1.45-3a16.1,16.1,0,0,0-3.22-1.4c-.56-.25-1.12-.5-1.69-.71s-1.12-.25-1.64-.46l2.81,3.13c-.43.15-.5.24-.22.25q-.26-.06,0,0l.32.12a19.42,19.42,0,0,0,2,.43c1.25.29,2.44.79,3.7,1.05.55.11.78-.3.69-.77-.31-1.77-2.41-3-3.83-3.86l-1.74-1c-.31-.19-.64-.37-1-.53l-.66-.3q.29.15,0,0l1,.74-.14-.12.85.94L27.62,24l.09,1.62c-.23-.08-.27-.09-.1,0a2.29,2.29,0,0,0,.28.09c.23.07.46.12.7.18l.65.19.26.1h0a9.76,9.76,0,0,0,2.81,1c1.7.19-.16-2.24-.58-2.58a21.35,21.35,0,0,0-4.11-2.58l-2.08-1a8,8,0,0,0-2.36-1c-.82-.1-.77.65-.54,1.19.93,2.14,3.29,2.83,5.26,3.61.89.35,1.76.73,2.65,1a8.32,8.32,0,0,0,2.46.66c.56,0,.76-.21.69-.77a4.45,4.45,0,0,0-1.66-2.41,14.26,14.26,0,0,0-2.32-1.63,9.45,9.45,0,0,0-4-1.71c-.78,0-.8.59-.53,1.18a4.74,4.74,0,0,0,2.15,2.14c1.36.62,2.65,1.41,4,2a9.26,9.26,0,0,0,4,1c1-.05-.24-1.86-.46-2.1a3.82,3.82,0,0,0-2.76-1.52A3.81,3.81,0,0,1,31,22.3a10.19,10.19,0,0,1-1.3-.49c-1-.49-2-1.08-3.06-1.56l1.61,3.33a2.89,2.89,0,0,1,1.42.6l.87.5.38.28c.36.24-.35-.29-.37-.32l-.64-.93-.07-.15.69-.77a9.83,9.83,0,0,1-3.18-1.05L25.45,21l-.78-.3-.31-.11a4,4,0,0,1,1.3,1l.64.93,0-.11-.54,1.19c-.52-.07.11.09.27.17l.81.38,1.54.75c.46.23.92.45,1.37.7l.4.22c-.2-.12.68.51.27.18l-.57-2.59a11.54,11.54,0,0,1-2.37-.91c-.82-.26-2.11-.8-3-.56s-.15,1.28.08,1.62a6.6,6.6,0,0,0,2.29,2.07c.59.3.86.38,1.38.68s1,.59,1.51.92c0,0,.66.4.39.22.14.09.85.72.33.24l-.84-.94.1.14L29.29,26l0,.16.69-.77c-.72-.15-1.41-.4-2.11-.62a24,24,0,0,0-2.37-.57c-.87-.18-2.34-1.06-2.76.14-.19.53.52,1.36.82,1.7a5.3,5.3,0,0,0,2,1.43c.85.34,1.75.47,2.6.84.41.18.81.4,1.24.56a4.62,4.62,0,0,0,.9.25c.33.05.34.21-.17-.17l-1.45-3a5.7,5.7,0,0,1-1.19-.22c-.59-.08-1.17-.11-1.75-.19a25.57,25.57,0,0,0-3.6-.29c-.94,0-.76.8-.4,1.41a5.23,5.23,0,0,0,2.49,2.13c1.46.6,3,.9,4.48,1.42.67.23,1.32.52,2,.75a17,17,0,0,1,2,.61l-2-3.31a3.75,3.75,0,0,1-1.16,0c-.61,0-1.22,0-1.83,0-1.22,0-2.39.22-3.62.17-.65,0-.81.38-.61,1a4.4,4.4,0,0,0,1.71,2,19.68,19.68,0,0,0,3.84,1.85,7.15,7.15,0,0,1,1.09.47c-.13-.08-.08,0,.15.1l.69.43.37.19c.37.2.25.11-.36-.29l-.85-1,.13.17L30,32c.14-.09-.32-.08-.41-.1s-.39-.08-.17,0l-.49-.12c-.84-.2-1.71-.29-2.56-.47s-1.41-.38-2.13-.51l-.78-.13-.4-.07-.08,0c-.27-.09-.13,0,.43.26l1.1,3c-.16,0-.55-.24-.21,0a4,4,0,0,0,.74.31c.34.11.69.18,1,.3.74.25,1.46.56,2.19.85s1.41.62,2.12.94l.46.2.17.08.22.11c.26.1-.31-.23-.32-.25l-.85-.94.1.12-.09-1.63a3.34,3.34,0,0,1-1.1-.25c-.36-.12-.83-.37-1.22-.51-1-.38-2-.76-3-1.11a21.84,21.84,0,0,0-2.23-.65,2.22,2.22,0,0,0-2,.18c-.25.22-.05.82.06,1a6.43,6.43,0,0,0,2,2.19,3.12,3.12,0,0,0,.86.5c-.57-.45-.74-.57-.48-.35l.23.21a20.67,20.67,0,0,0,3.55,2.14,12.91,12.91,0,0,0,3.52,1.51c.77.18,1.82.67,2.75,0,.58-.37-.5-1.72-.71-2a5.44,5.44,0,0,0-2.21-1.6,6.12,6.12,0,0,0-1.26-.13A13,13,0,0,1,26,34.55c-1.05-.34-2.08-.73-3.13-1.08a30.2,30.2,0,0,1-2.85-1.3c-.26-.12-.8-.21-1,0s-.06.76.06,1a5.24,5.24,0,0,0,2.63,2.37Z"/></g><g class="cls-3"><path class="cls-4" d="M27.17,31.1a12.6,12.6,0,0,0,3,1.2c.49.14,1,.27,1.45.43a2.8,2.8,0,0,0,2.11,0,6.53,6.53,0,0,0,1.91-1.15c.34-.29.9-.76.91-1.26,0-.68-.63-1-1.18-1.2s-1.09-.7-1.69-1l-3.49,3,1.31.09s.38.06.18,0l.27.05.49.13a10.08,10.08,0,0,0,1.09.24,3.57,3.57,0,0,0,1.77-.22,5.9,5.9,0,0,0,2.13-1.35c.23-.22.93-.9.63-1.31a5.93,5.93,0,0,0-1.4-1.18l.21.16c-.4-.31-.84-.55-1.25-.85l.21.15a1.75,1.75,0,0,1-.35-.37l-2.76,2.66c-.77.11-1,.17-.66.19-.18,0-.21,0-.06,0l.36.09c.19.06.38.1.57.15a4.68,4.68,0,0,0,1,.16,4.11,4.11,0,0,0,2-.56,6.38,6.38,0,0,0,1.75-1.3c.28-.3.61-.68.46-1.12a2.42,2.42,0,0,0-.79-.95c-.24-.22-.62-.44-.69-.79L35.53,27l0,0-1.12.71a2.36,2.36,0,0,1-1,.33c-.15,0-.19,0-.1,0h.12l-.15,0c.1,0,.34.08.44.12a2.64,2.64,0,0,1,.71.36c.26.2,1.05-.08,1.26-.16a6.07,6.07,0,0,0,1.68-.95,3.18,3.18,0,0,0,1-1.15c.13-.32.14-.5-.16-.72-1.51-1.13-3.49-.28-4.81.74a3.73,3.73,0,0,0-.93,1,.83.83,0,0,0-.16.74c.07.35.45.57.69.79a2.42,2.42,0,0,1,.79.95l2.21-2.42c1.17-.24,1.51-.36,1-.34h0l-.31-.07-.58-.14a4.34,4.34,0,0,0-.87-.18,3,3,0,0,0-1.29.21,5.69,5.69,0,0,0-2.13,1.35c-.25.24-.91.89-.63,1.32a4.64,4.64,0,0,0,1.42,1.09l-.21-.15c.34.26.68.5,1,.75l-.21-.16a3.24,3.24,0,0,1,.56.55l2.76-2.66.36-.11c.29,0,.36,0,.23,0H37c-.14,0,.22.05,0,0l-.2,0L36,28.36a17.29,17.29,0,0,0-2.58-.3,3.5,3.5,0,0,0-1.49.45,6.8,6.8,0,0,0-1.35.91c-.32.28-1.42,1.31-.66,1.67.49.23.88.62,1.37.85a5.4,5.4,0,0,1,1,.48l-.2-.16a.68.68,0,0,1,.23.32l0-.25a.53.53,0,0,1,0,.13L35.06,30a1.2,1.2,0,0,1,.79-.16c.11,0,.1,0,0,0l-.28-.08-.43-.14-1.47-.43A11.55,11.55,0,0,1,31,28.12c-.3-.17-1,.07-1.26.16a6.07,6.07,0,0,0-1.68.95c-.38.32-1.68,1.4-.88,1.87Z"/></g><g class="cls-3"><path class="cls-4" d="M25.31,38.73a11.4,11.4,0,0,0,3.26.62,4.28,4.28,0,0,0,1.9-.38c.37-.19.93-.59,1-1,.25-1.1-1.05-1.68-2-1.67H27.88l-.28,0,.2,0a5.9,5.9,0,0,0-.95-.17l-1.1-.18c-1.64-.24-3.58-.54-5.13.22a1.68,1.68,0,0,0-1.05,1.25,1.2,1.2,0,0,0,.83,1.2,26.74,26.74,0,0,0,3.65.93L25.8,40l.81.22.4.12.27.09-.14,0,2.73-2.74c-.65-.21-1.31-.38-2-.58l-.39-.11-.26-.08c.32.1.37.12.15,0s-.59-.23-.88-.36a13.27,13.27,0,0,0-1.93-.65l-.45-.14c-.4-.11.45.18.1,0l-.42-.17-.2-.11.15.09-2.54,2.56c.4,0-.58-.15-.17,0l.35.09a3.41,3.41,0,0,0,.55.14c.52.1,1,.23,1.52.37a5.8,5.8,0,0,0,.72.17c.28.05.58.08.87.12-.16,0-.54-.08-.16,0,0,0,.26.1.32.07L25,39l.17.06a5.26,5.26,0,0,0,1.62.34l1-3.09c-.24,0-.46,0-.69,0s.57.1.17,0l-.37-.07c-.43-.1-.86-.22-1.29-.34a11.55,11.55,0,0,0-3.14-.54,3.56,3.56,0,0,0-2.55.85,1.12,1.12,0,0,0,0,1.72,3.73,3.73,0,0,0,1.66.86,3.61,3.61,0,0,0,1.93-.07,2.68,2.68,0,0,0,1.4-.87A1.08,1.08,0,0,0,25,36.58a2.14,2.14,0,0,0-1.25-.77c.34.13.43.16.28.09s-.07,0,.2.13c0-.07-.18-.15-.24-.21l-2.54,2.57h.38c.1,0,.48.06.07,0H22l.37.08c.44.1.86.22,1.29.34a11.24,11.24,0,0,0,3.15.53,4.15,4.15,0,0,0,1.9-.38c.37-.19.93-.59,1-1,.25-1.12-1-1.66-1.95-1.67-.19,0-.17,0,.06,0a1,1,0,0,1,.48.12c-.25-.09-.51-.19-.76-.26a4.7,4.7,0,0,0-.63-.13l-.74-.1.35,0a1.67,1.67,0,0,1-.38-.06c-.25,0-.49-.13-.73-.2-.47-.13-.94-.22-1.41-.32a7.84,7.84,0,0,0-1.8-.34,3.52,3.52,0,0,0-2.54.85,1.1,1.1,0,0,0,0,1.72,8,8,0,0,0,2.4,1.08l.78.23.22.07-.21-.07.41.16a40.43,40.43,0,0,0,4.4,1.45,3.61,3.61,0,0,0,1.93-.07,2.91,2.91,0,0,0,1.23-.7,1.16,1.16,0,0,0,.42-1,1.33,1.33,0,0,0-.85-1c-1.28-.45-2.59-.79-3.9-1.12-.54-.14-1.09-.25-1.65-.35l-.75-.17-.38-.1c-.21-.06-.16,0,.17.06a1.09,1.09,0,0,1-.23-.09l-.22,2.45a3.08,3.08,0,0,1-1,.29l.16,0c-.79.1-.54,0-.29,0l.61,0a7.38,7.38,0,0,0,.81.07c-.38,0-.45-.06-.2,0l.21,0,.48.07c.8.13,1.58.3,2.39.38a17.94,17.94,0,0,0,1.94,0l1-3.09h-.33c-.09,0-.41,0,0,0s0,0-.1,0l-.33-.08-1.24-.35a3.82,3.82,0,0,0-1.93.07,2.7,2.7,0,0,0-1.41.88,1.08,1.08,0,0,0-.11,1.2,2.06,2.06,0,0,0,1.25.77Z"/></g><g class="cls-3"><path class="cls-4" d="M31.74,36.72l.13,0A2.6,2.6,0,0,0,33.57,35a2,2,0,0,0-.71-2.14,6.73,6.73,0,0,0-1.44-.73c-.53-.17-1.06-.31-1.59-.46l.59.17a4.88,4.88,0,0,1-1-.43,7.49,7.49,0,0,0-1.55-.54l.59.17a3.66,3.66,0,0,1-.62-.25,2.73,2.73,0,0,0-3.35,1.11,2.15,2.15,0,0,0-.2,1.73,2.38,2.38,0,0,0,1.19,1.27l.09,0L25,34.59a14.3,14.3,0,0,0,2.72,1.47,25.62,25.62,0,0,0,3.3,1l-.59-.18c.31.1.59.26.9.39a3.68,3.68,0,0,0,2.49.13,2.49,2.49,0,0,0,1.7-1.72,2,2,0,0,0,0-1.18,2,2,0,0,0-.68-1c-1.4-1.42-3.39-1.95-5.08-2.94l.52.31a6.76,6.76,0,0,1-.87-.61l.1,3.18.07-.07-.5.4.07,0-.6.28.07,0-.66.14H28l-.64,0a16.72,16.72,0,0,0,2.12.21l-.64,0c.48,0,.94.19,1.42.22a3.87,3.87,0,0,0,2.31-.44,2.51,2.51,0,0,0,1.28-2.27,2.87,2.87,0,0,0-1.41-2.22c-.49-.32-1-.55-1.52-.84l.51.3a7.59,7.59,0,0,1-1.29-.89l.4.42a3.11,3.11,0,0,1-.23-.28L30,31.08l.05,0-.49.41a.62.62,0,0,1,.17-.11l-.61.29.21-.07-.65.13a2.81,2.81,0,0,1,.65,0l-.64,0a30.93,30.93,0,0,1,3.68.58,2.76,2.76,0,0,0,1.9-.39,2.5,2.5,0,0,0,1.09-1.44,2.14,2.14,0,0,0-1.81-2.61c-1-.19-2.05-.39-3.08-.53a4.7,4.7,0,0,0-4.07,1,2.17,2.17,0,0,0-.3,2.75c.82,1.2,2.23,1.72,3.43,2.43l-.52-.31a2.89,2.89,0,0,1,.45.33L29.09,33a.76.76,0,0,1,.17.23L29,32.7a.29.29,0,0,1,0,.1l-.1-.59a.76.76,0,0,1,0,.15l.07-.58v0l1.1-1.44-.11.05.61-.28a.53.53,0,0,1-.12,0l.65-.13a1.32,1.32,0,0,1-.28,0l.63,0A5.23,5.23,0,0,1,30.6,30a6.87,6.87,0,0,0-1.36-.11l.64,0a10.21,10.21,0,0,1-1.11-.15,3.19,3.19,0,0,0-2.86.9A2.14,2.14,0,0,0,26,33.8c1.4,1.16,3.17,1.68,4.71,2.6l-.51-.31a6.05,6.05,0,0,1,1.24,1l1-3.87-.09,0,.66-.13h-.17l.63,0-.17,0,.59.17a4.17,4.17,0,0,1-.57-.26,6.15,6.15,0,0,0-1.1-.36c-.5-.14-1-.24-1.5-.38l.59.17a13.13,13.13,0,0,1-1.51-.59c-.45-.21-.92-.39-1.34-.63l.51.31c-.4-.24-.75-.53-1.17-.76l-2.36,4.11a7.2,7.2,0,0,0,1.42.48l-.59-.17c.46.13.83.4,1.27.57a16.68,16.68,0,0,0,1.83.54l-.59-.17a4.65,4.65,0,0,1,1.1.46l-.51-.31.09.06,1-3.87-.12,0a2.69,2.69,0,0,0-1.47,1.18,2.14,2.14,0,0,0-.2,1.73,2.42,2.42,0,0,0,3.07,1.33Z"/></g><g class="cls-3"><path class="cls-4" d="M4.42,43.38a25.33,25.33,0,0,0,4.52.32,11.34,11.34,0,0,1,2.1,0,15,15,0,0,1,1.52.49l1.83.4c.68.16,1.35.11,2,.22s1,.5,1.48,1c.17.16,1.08.37.77.69l1.55-.83-.14.06,2.68-.88a4.1,4.1,0,0,1-2.38-.56c-.94-.36-1.91-.6-2.84-1a11.58,11.58,0,0,0-2.35-.92,19.88,19.88,0,0,0-3,0L7.75,44.26a14.42,14.42,0,0,1,3.46,1c1.27.34,2.57.63,3.86.88.92.17,1.82.56,2.74.69a3.59,3.59,0,0,0,1.38-.13,14,14,0,0,0,3.42-1.34s.62-.29.61-.46c0-.71-1-.83-1-1.5l-4.56,1.84a9.1,9.1,0,0,0,2.09.73,6.35,6.35,0,0,0,2.64-.78c.27-.11,2-.68,1.92-1a1.08,1.08,0,0,0-.3-.59l-4.3,1.81a3.71,3.71,0,0,1,1,.17,3.73,3.73,0,0,0,1.55-.23,9,9,0,0,0,3.92-1.84c.26-.27-1.64.24-1.76.28A7.22,7.22,0,0,0,21.64,45l-.16.14,3.16-1.33-.2,0,1.14-.24a16.32,16.32,0,0,0-2-.13,12.19,12.19,0,0,0-2.68.88c-.15.06-1.73.78-1.61.93a1,1,0,0,1,.3.59l4.55-1.84a9.19,9.19,0,0,1-2.08-.73c-.23-.09-1,.19-1.14.24a15.75,15.75,0,0,0-1.5.54c-.31.12-1.94.63-1.92,1,0,.68,1,.8,1,1.5l.61-.46-.12.07L22.33,45c.59-.15.24,0,0-.07l-.53-.1c-.29-.07-.57-.17-.85-.26-1-.29-2-.43-3-.65s-2-.45-3-.75a10.12,10.12,0,0,0-2.83-.79,8.31,8.31,0,0,0-2.94.91A5.86,5.86,0,0,0,7.9,44c-.05,0-.45.3-.15.3,1.48,0,2.76-.18,4.16.43,1.24.54,2.48.94,3.75,1.39a10.84,10.84,0,0,0,1.79.69,4.43,4.43,0,0,0,1.77-.16,14.25,14.25,0,0,0,3.44-1.33c.36-.19,1.06-.58.52-1-.13-.09-.33-.06-.46-.15s-.32-.38-.49-.55A2.46,2.46,0,0,0,20.71,43a20.72,20.72,0,0,1-3.83-.65,6.86,6.86,0,0,0-1.54-.47,14.86,14.86,0,0,0-2.11,0,24.59,24.59,0,0,1-4.37-.32,3.37,3.37,0,0,0-1.14.24,17.05,17.05,0,0,0-1.81.66,6,6,0,0,0-1.34.67c-.08.06-.43.27-.15.31Z"/></g><g class="cls-3"><path class="cls-4" d="M25.53,28.31c1.12.3,2.2.66,3.34.88.79.16,1.58.29,2.37.45a16.37,16.37,0,0,0,1.84.29c.26,0,1.08.17,1.19-.19.17-.57-.46-1.6-.67-2.08s-.46-1-.72-1.42a3.27,3.27,0,0,0-.66-1,14.44,14.44,0,0,0-2.79-1.21,23.48,23.48,0,0,0-3.36-1.18c-.11,0,.18.89.13.75A14.27,14.27,0,0,0,26.75,25c.22.49.45,1,.71,1.43.16.26.38.82.66,1a21.64,21.64,0,0,0,4.39,1.42c.72.18,1.43.47,2.17.59.35.06,1,.19,1.27-.05s-.47-1.64-.53-1.78A13.29,13.29,0,0,0,34.08,25a3.92,3.92,0,0,0-1.78-1.2c-.34-.15-.65-.36-1-.54s-.78-.28-1.17-.45l2.05,4.46c.86.2,1.68.57,2.55.76a6.65,6.65,0,0,0,2.62.21c.21,0-.52-1.75-.53-1.77-.54-1.2-1.09-2.67-2.26-3.41-.65-.42-1.23-.92-1.88-1.34-.23-.14-.12.24-.1.33a7.61,7.61,0,0,0,.53,1.4A18.47,18.47,0,0,0,34,25.22a3.1,3.1,0,0,0,.66,1,3,3,0,0,0,1.42.52,1.84,1.84,0,0,0,1.14-.06c.28-.18-.61-1.94-.67-2.08a8.24,8.24,0,0,0-1.38-2.39c-.52-.52-1.26-.72-1.79-1.23l2,4.47c.49-.25,1-.05,1.52-.16l0-.11a7.33,7.33,0,0,0-1-2.79,9.6,9.6,0,0,0-1.26-1.93l1.06,1.89-.05-.11.81,2.38a.87.87,0,0,1,.52.12c.23.13.13-.21.1-.33a8.72,8.72,0,0,0-.52-1.4,18.56,18.56,0,0,0-.86-1.73c-.16-.28-.36-.79-.65-1a1.32,1.32,0,0,0-.74-.21c-.2,0,.81,2.38.81,2.38A10.2,10.2,0,0,0,36.76,25L35.53,22.9l0,.1-.84-2.26c0,.09-.7,0-.73,0a1.47,1.47,0,0,0-.75.13c-.28.14.62,2,.67,2.08a7.87,7.87,0,0,0,1.37,2.39c.54.51,1.28.7,1.8,1.23l-2-4.46a1.72,1.72,0,0,1-1,.07,2.6,2.6,0,0,1-1.32-.44l1.94,4.42c.48.31.9.71,1.37,1a5.06,5.06,0,0,1,1.13.81l-.39-.52.07.1L35.7,25.44l0,.11-.53-1.78a6.51,6.51,0,0,1-2.63-.22c-.87-.19-1.69-.55-2.54-.75-.13,0,.17.88.12.75.16.45.35.89.55,1.33a15.76,15.76,0,0,0,.72,1.42c.15.27.37.83.65,1s.67.21,1,.36.68.4,1,.58,1.23.39,1.57.87L33.8,24.8c-.29.23-.89.11-1.22.05a20,20,0,0,1-2-.54,23.21,23.21,0,0,1-4.38-1.38l2.05,4.47a22.78,22.78,0,0,1,3.31,1.16,13.28,13.28,0,0,1,2.62,1.13l-2-4.46c-.11.36-.94.21-1.19.19-.62-.06-1.23-.17-1.84-.29-.79-.16-1.59-.29-2.38-.45-1.14-.23-2.22-.58-3.34-.88-.11,0,.18.88.13.75a14.39,14.39,0,0,0,.68,1.63c.26.53.53,1.06.84,1.56.12.19.28.5.51.57Z"/></g><g id="_1ct6b1.tif" data-name="1ct6b1.tif"><path d="M29,49a2.44,2.44,0,0,0,.46,1.59.36.36,0,0,1-.12.54.46.46,0,0,1-.61,0,9.34,9.34,0,0,1-.91-.64c-.19-.16-.41-.28-.47-.56,0-.05,0-.16-.07-.13-.46.27-.39-.14-.48-.35s-.12-.12-.21-.16a2.55,2.55,0,0,1-1.26-1.25c-.05-.08-.1-.16-.2-.17s-.29-.13-.37-.32c-.17-.43-.42-.49-.79-.22a8.06,8.06,0,0,1-3.25,1.48,14.19,14.19,0,0,0-2,.55,1.61,1.61,0,0,0-.58.41.35.35,0,0,1-.58,0,2.42,2.42,0,0,0-.85-.64,3.47,3.47,0,0,1-1-.93.83.83,0,0,0-.57-.35A1.42,1.42,0,0,1,14,46.69,1.11,1.11,0,0,0,12.93,46c-.56-.05-1.16.14-1.69-.34a2.41,2.41,0,0,0-1.08-.32,8.75,8.75,0,0,0-1.74-.46c-.31,0-.57-.22-.87-.32-1.12-.36-2.26-.59-3.4-.85A22.81,22.81,0,0,1,1.09,43C.87,42.93.66,43,.43,43a.49.49,0,0,1-.35-.59c0-.29.27-.23.45-.24s.68,0,.76-.44c0-.06.13-.13.21-.15a8.22,8.22,0,0,1,2.76-.72s.08,0,.09,0c.23-.43.75-.3,1.07-.54a.43.43,0,0,1,.28-.13c.72.11,1.21-.61,2-.5.32.05.72-.32,1.11-.43.76-.22,1.4-.71,2.16-.93.14,0,.24-.18.36-.26.85-.58,1.71-1.13,2.55-1.73a9.12,9.12,0,0,1,1.1-.89c.48-.24.68-.71,1.06-1a17.06,17.06,0,0,0,3.23-3.29c.26-.35.62-.6.87-1a1,1,0,0,0,.25-.48.44.44,0,0,1,.11-.25,4,4,0,0,0,.84-2c.3-1.13.51-2.27.73-3.42a13.88,13.88,0,0,1,.22-1.94,2.48,2.48,0,0,0,.06-1.4.69.69,0,0,1,0-.35,24.93,24.93,0,0,0,.52-3c.22-.8.49-1.59.73-2.38a5.8,5.8,0,0,0,.21-.82A1.58,1.58,0,0,1,24.32,13c.14-.1.19-.36.24-.56a10.3,10.3,0,0,1,1.09-2.33c.47-.81.87-1.66,1.26-2.52a5.48,5.48,0,0,1,1-1.44c.2-.21.43-.36.45-.73a2,2,0,0,1,.54-1c.31-.37.37-.85.72-1.2s.46-.4.79-.3.21.76,0,1-.52.73-.8,1.08a.71.71,0,0,0-.19.48c0,.46-.45.65-.69,1a13,13,0,0,0-1,1.61A28.54,28.54,0,0,0,26.21,11a15.53,15.53,0,0,1-.82,1.63A16.12,16.12,0,0,0,24.17,16c-.19.68-.38,1.39-.51,2.1a8.42,8.42,0,0,1-.45,2.22s0,.06,0,.08a5,5,0,0,1-.2,2.18c-.08.64,0,1.27-.12,1.92s-.29,1.46-.43,2.19a10.91,10.91,0,0,1-1.52,4,10.28,10.28,0,0,1-1.82,2.07.82.82,0,0,0-.17.2,3.06,3.06,0,0,1-1.05,1.18,1.34,1.34,0,0,0-.28.34,1.38,1.38,0,0,1-1,.76c-.06,0-.14,0-.16.05-.56,1.15-1.84,1.48-2.68,2.31a5.08,5.08,0,0,1-1.67,1,12.71,12.71,0,0,0-1.19.73,6,6,0,0,1-1.75.75,1,1,0,0,0-.45.2c-.1.09-.23.21-.35.17-.57-.15-1,.21-1.59.28a2.42,2.42,0,0,0-.89.36,9,9,0,0,1-2.23.78c-.13,0-.29,0-.35.17s-.29.32.14.46.79-.12,1.06.27a.3.3,0,0,0,.21,0c.46-.33.89-.11,1.29.11s1,.27,1.52.48a9,9,0,0,0,1.75.63,7.9,7.9,0,0,1,2.1.72,4.72,4.72,0,0,0,2,.25.8.8,0,0,1,.54.18c.41.43,1,.46,1.47.75s.67.14,1,.26.63,0,.79.38c0,.06.37.07.58,0s.58-.28.68.25c0,.1.45.2.67.16a1,1,0,0,1,.58.14c.16.07.4.17.34.36a.47.47,0,0,1-.52.2c-.31-.23-.7,0-1-.24-.1-.08-.28,0-.32-.26s-.18-.17-.31-.06a1,1,0,0,1-1.2.12.26.26,0,0,0-.34.13c-.11.18.08.17.17.23l1.16.81a.64.64,0,0,0,.68.08,7.89,7.89,0,0,1,1.84-.64,9.16,9.16,0,0,1,1.63-.54,2.34,2.34,0,0,0,1.1-.53A9.78,9.78,0,0,1,25,45.63c.56-.23,1-.71,1.48-1a4.88,4.88,0,0,0,1.63-1.86c.41-.63.83-1.26,1.22-1.91s.88-1.62,1.34-2.42a14.11,14.11,0,0,0,1.06-2c.08-.22.32-.38.5-.57A5.34,5.34,0,0,0,33,34.59c.41-.81,1-1.53,1.42-2.31s.88-1.72,1.39-2.53a5.74,5.74,0,0,0,1-2,6.35,6.35,0,0,1,.7-1.72c.34-.64.19-1.35.48-2a30.15,30.15,0,0,0,.82-3c.22-.67.23-1.38.44-2.05a.54.54,0,0,1,.08-.21,1.6,1.6,0,0,0,.29-1.08,2.24,2.24,0,0,1,.28-1.09c.13-.3.39-.57.3-.94a.22.22,0,0,1,0-.18c.48-.67.44-1.56,1.06-2.21a2.91,2.91,0,0,0,.81-1.21c.06-.23.32-.41.52-.6a23.16,23.16,0,0,1,1.8-1.64c.55-.41,1-.91,1.63-1.29s1-.79,1.6-1.12c.06,0,.13-.09.11-.17s-.12-.09-.19-.1a.87.87,0,0,1-.7-.48.24.24,0,0,0-.44-.06c-.14.17-.26.08-.39,0a6.43,6.43,0,0,0-1.7-.57,7.78,7.78,0,0,1-2.26-.84,7,7,0,0,1-1.29-.57c-1.06-.8-2.41-1-3.52-1.77A6.48,6.48,0,0,1,35.8,1.6c-.12-.16-.25-.22-.52-.13a4.77,4.77,0,0,1-1.88.17c-.21,0-.31-.27-.28-.45a.56.56,0,0,1,.45-.51,3,3,0,0,1,1.57.1.91.91,0,0,0,.48.08,1.48,1.48,0,0,1,1.48.79c.17.25.5.32.75.43,1,.42,1.89,1,2.85,1.39.72.33,1.42.71,2.17,1s1.73.57,2.57.92,1.69.45,2.49.79a4.31,4.31,0,0,1,1.5.71c.1.1.21,0,.33,0a5.42,5.42,0,0,1,.87-.19c.18,0,.46-.15.52.22a.59.59,0,0,1-.38.71,24.51,24.51,0,0,0-3.41,1.41,10.91,10.91,0,0,1-1.31.8c-.33.15-.41.52-.72.71a10,10,0,0,0-2.17,1.93A9.22,9.22,0,0,0,42,14.34a12.31,12.31,0,0,1-1,2.11,1.22,1.22,0,0,0-.25.71c0,.5-.21.95-.23,1.45a5.91,5.91,0,0,1-.33,1.14c-.13.46-.24.92-.41,1.37a9,9,0,0,0-.18,1c-.36,1.51-.69,3-1.15,4.52a15.67,15.67,0,0,1-1,2.57c-.4.74-.82,1.47-1.17,2.23-.5,1.09-1.2,2.07-1.79,3.1a9.8,9.8,0,0,1-1.23,2A9.41,9.41,0,0,0,31.67,39c-.45.91-1.07,1.72-1.46,2.66a7.55,7.55,0,0,1-1,1.5,9.59,9.59,0,0,1-2,2.36c-.57.39-1.08.85-1.64,1.25-.17.12-.09.14,0,.27a2.56,2.56,0,0,0,.92.93,7.91,7.91,0,0,1,1,.9c.17.15.32.33.57.32s.39-.07.33-.38A1.19,1.19,0,0,1,29,47.47c.3-.18.57-.39.93-.19s.69.22.95.54a8.45,8.45,0,0,0,1.07,1,1,1,0,0,1,.33.41c.08.2,0,.34-.22.31a2.53,2.53,0,0,0-.83,0c-.26,0-.46-.22-.61-.45a2.37,2.37,0,0,0-.62-.75c-.16-.11-.37-.21-.53-.1s-.48.23-.4.58C29.08,48.85,29,48.94,29,49Z"/><path d="M47.34,30.36l-.1.06c-.12.11-.21.39-.33.33a3.82,3.82,0,0,1-.56-.3c-.16-.12,0-.56.22-.64a.88.88,0,0,1,1.17.41c.09.15.2.23.35.07s.26-.13.48,0a6.28,6.28,0,0,0,1.44.41c.32.07.44-.11.39-.41a2.91,2.91,0,0,0-.12-.39,1.14,1.14,0,0,1,.3-1.31c.08-.08.17,0,.25-.05s.44,0,.57-.22a.24.24,0,0,1,.2-.06c.49.16,1,0,1.51.33a.51.51,0,0,0,.4.05A1.69,1.69,0,0,1,55,29c-.13.13-.32.19-.37.4s-.2.23-.38.25a9.85,9.85,0,0,1-2.3-.2c-.43-.06-.54.12-.54.53,0,.72.55,1,1,1.4a.79.79,0,0,1,0,1.11.27.27,0,0,1-.4,0c-.44-.45-1-.42-1.6-.59a3.11,3.11,0,0,0-.81-.21.53.53,0,0,0-.59.59c0,.06,0,.17,0,.17-.66.23-.08.89-.43,1.25-.13.13,0,.38,0,.55a2.15,2.15,0,0,0,2.2.88c.28-.11.35-.25.2-.51a.8.8,0,0,1-.08-.16.26.26,0,0,1,.09-.35c.07-.06.16-.12.25-.08s.14.22.12.35c-.06.35-.18.68.16,1,.15.14-.09.25-.16.37a1.35,1.35,0,0,1-2.1.37c-.33-.28-.77-.33-1.07-.64a.18.18,0,0,0-.25,0,1.39,1.39,0,0,0-.32.77.51.51,0,0,0,.46.48c.84,0,.72.67.77,1.09s.08.91.12,1.37a.89.89,0,0,1-.25.65c-.27.31-.39.74-.84.89-.14,0-.27.14-.43.09a4.17,4.17,0,0,1-2.06-1.33c-.2-.26-.13-.65-.37-.86-.45-.39-.21-.78.06-1a5,5,0,0,1,1.25-1c.21-.1.43-.16.19-.45a.49.49,0,0,1,0-.66,1.18,1.18,0,0,0,.11-.19c.31-.63.3-.74-.27-1.11-.27-.17-.49-.45-.86-.42a2.16,2.16,0,0,1-.6-.85c0-.22.55-.37.89-.29a1.14,1.14,0,0,1,.68.36,1.72,1.72,0,0,0,1,.46c.26.06.38-.11.37-.33a.49.49,0,0,1,.24-.49c.43-.22.4-.68.62-1,.11-.16-.09-.24-.24-.29a5,5,0,0,1-.88-.29C47.28,30.83,47.15,30.7,47.34,30.36Zm-.08,6.73c-.5,0-1,.21-1.18.63A1.18,1.18,0,0,0,46.37,39c.24.23.6.34.81.6s.41.09.49-.13a3.38,3.38,0,0,1,.33-.72,1.44,1.44,0,0,0-.5-1.56A1.4,1.4,0,0,0,47.26,37.09Z"/><path d="M48.75,21.4c.27,0,.45,0,.59-.16a.31.31,0,0,1,.41-.06.3.3,0,0,0,.48-.22,1.86,1.86,0,0,0-.16-1.59,1.85,1.85,0,0,0-.73-.49c-.55-.3-1-.81-1.66-.9-.38-.05-.51.09-.55.38-.09.48-.12,1-.2,1.44a3.67,3.67,0,0,1-.2.87,2.12,2.12,0,0,1-2.06,1,.6.6,0,0,1-.39-.4c-.16-.39-.28-.79-.41-1.18a.39.39,0,0,1,0-.26,5.8,5.8,0,0,0,.07-1.44c.07-.54.1-1.21.63-1.44.71-.3,1.41-.92,2.32-.46a5.78,5.78,0,0,0,1.14.31,9.5,9.5,0,0,1,2,1c.33.17.55.46.86.65a1.86,1.86,0,0,1,.61,2.45,3.66,3.66,0,0,0-.18.46,2.19,2.19,0,0,1-1.28.93.27.27,0,0,1-.18,0ZM45,19.21a2.22,2.22,0,0,0,.19,1.13.28.28,0,0,0,.26.21.31.31,0,0,0,.27-.2A12.15,12.15,0,0,0,46.35,18s0-.07-.06-.11a.71.71,0,0,0-1.1,0A1.84,1.84,0,0,0,45,19.21Z"/><path d="M24.7,3.63a5,5,0,0,1-.05-.69,1.91,1.91,0,0,1,.82-1.75c.05,0,.08-.11.12-.17A2.16,2.16,0,0,1,28.41.21c.95.41,1.72,1.17,2.78,1.34a.51.51,0,0,1,.24.18,2.45,2.45,0,0,0,.71.56,2.29,2.29,0,0,1,1.23,2.14.45.45,0,0,1-.18.4c-.66.41-1.1,1.11-1.83,1.43a.56.56,0,0,1-.2.08c-.18,0-.42.22-.53,0s.05-.39.2-.61c.33-.49.79-.87,1.09-1.39.07-.12.13-.27,0-.38a4.47,4.47,0,0,0-1-1.1,14.44,14.44,0,0,1-1.78-1,2.33,2.33,0,0,0-.69-.38.74.74,0,0,0-1.05.86.54.54,0,0,1,0,.31c-.11.17-.35.3-.07.51,0,0,0,0,0,0-.45.38-.26,1.1-.81,1.43a1.15,1.15,0,0,1-1,.15C24.81,4.6,24.69,4.46,24.7,3.63Zm1-.53c0,.12-.07.36.18.44a.43.43,0,0,0,.53-.29,4.73,4.73,0,0,0,.42-1.61c0-.17-.18-.31-.38-.13A1.91,1.91,0,0,0,25.66,3.1Z"/><path d="M35.58,54.16c-.08-.61.35-1,.56-1.5s.06-.84-.46-.94-.7-.5-.89-.86A1.16,1.16,0,0,1,35.68,49a2,2,0,0,1,1.08,0c.12.05.27.06.31.22s-.07.23-.18.33a.78.78,0,0,1-.85.24.35.35,0,0,0-.46.18c-.06.18.09.27.18.4s.48.38.66.65.39.27.67,0,.38-.71.87-.73c.16,0,.14-.21.2-.32.18-.35.52-.62.48-1.07,0-.13.23-.32-.12-.34-.05,0-.1-.23,0-.28.27-.19.37-.57.76-.63a1.59,1.59,0,0,1,.9,0,3,3,0,0,1,1.35,1,3.67,3.67,0,0,1,.92,1.42c.07.3-.15.55-.31.75-.46.59-.6.65-1.23.25a10,10,0,0,0-1.84-1,.32.32,0,0,0-.44.25,1.07,1.07,0,0,1-.34.51,1.43,1.43,0,0,0-.1,1.65s.1.09.14.08c.66-.07,1,.54,1.56.71.3.1.21.45.13.63a.43.43,0,0,1-.58.14A9.61,9.61,0,0,1,37.57,53c-.24-.18-.41-.19-.6.06a4.64,4.64,0,0,0-.51.68A.7.7,0,0,1,35.58,54.16Zm5.62-4.34a2.87,2.87,0,0,0-1.08-1.36.22.22,0,0,0-.27.11c-.06.13-.24.26-.13.4a2.77,2.77,0,0,0,1.19,1C41.09,50.06,41.2,50,41.2,49.82Z"/><path d="M40.58,36.11a1,1,0,0,1-.22.62c-.3.45-.14.71.39.86a1.33,1.33,0,0,1,1,.79c.05.16.16.36,0,.47s-.44.28-.61.13c-.63-.55-1.52-.59-2.16-1.08a20.16,20.16,0,0,0-2.26-1.28c-.28-.16-.59-.3-.25-.77a3.53,3.53,0,0,0,.66-1.41.54.54,0,0,1,.16-.26c.33-.34.74-.55,1.06-.92s1-.06,1.27.19c.69.59.69,1.47,1,2.22A2,2,0,0,1,40.58,36.11Zm-1.11-.65a1.87,1.87,0,0,0-.4-1,.53.53,0,0,0-1,.12c-.15.6-.46,1.24.17,1.79.18.16.7.36.77.22A2.48,2.48,0,0,0,39.47,35.46Z"/><path d="M38.58,44.34c-.24-.13-.56-.3-.9-.46a27,27,0,0,0-3-1.47c-.35-.11-.64-.22-.48-.76.11-.36-.11-.83.08-1.22.28-.61.54-1.28,1.36-1.36.11,0,.11-.15.17-.19s.43-.28.66-.1a1.57,1.57,0,0,0,.65.28,1,1,0,0,1,.72,1.07c0,.35.2.67.1,1a1.13,1.13,0,0,1-.46.78c-.14.09-.28.23-.23.4a.47.47,0,0,0,.42.36,1.49,1.49,0,0,1,1,.44c.1.1.23,0,.34.05.28,0,.4.24.5.46s-.16.3-.28.38A1.08,1.08,0,0,1,38.58,44.34Zm-2.52-4.67a.64.64,0,0,0-.46.46c-.05.14,0,.32-.16.41s-.18.33,0,.48a.49.49,0,0,1,.14.32c.06.38.4.42.68.48s.37-.23.44-.42l.23-.63A.87.87,0,0,0,36.06,39.67Z"/><path d="M55,26.07a1.84,1.84,0,0,0,1.69-1.56c0-.27.07-.54.11-.8a.15.15,0,0,1,.14-.15.19.19,0,0,1,.17.12,1.43,1.43,0,0,1,0,1.7c-.3.41-.37.92-.8,1.29a2.23,2.23,0,0,1-1.82.47,1.65,1.65,0,0,1-.82-.28,1.57,1.57,0,0,1-.8-1.42c0-.31-.26-.47-.27-.73a3.37,3.37,0,0,1,.26-1.52,1.64,1.64,0,0,1,1.07-1c.59-.2,1,.07,1.16.69a4.58,4.58,0,0,1,.09,1.21c0,.43-.34.88-.55,1.32-.06.11-.34.12-.21.32S54.67,26.17,55,26.07Zm-.83-2c0-.14-.07-.32-.24-.33s-.16.16-.18.27a.28.28,0,0,0,.16.32C54,24.38,54.11,24.26,54.13,24.1Z"/><path d="M11.43,29s.08-.05.09-.09c.28-.72.62-.83,1.25-.37.43.31.83.66,1.23,1a.93.93,0,0,0,1,0,.4.4,0,0,0,0-.42,2.9,2.9,0,0,0-.71-1.2c-.31-.26-.48-.69-.81-1-.13-.12,0-.4.07-.39.34.16.61-.34.94-.07s.84.51,1.22.86a1.61,1.61,0,0,0,2.28,0c.2.81,0,1.29-.57,1.46a2.69,2.69,0,0,1-.75,0c-.47,0-.68.15-.56.62a.59.59,0,0,1-.35.79.57.57,0,0,0-.24.31c-.08.14-.22.3-.35.24-.39-.17-.76.05-1.13,0s-.53-.32-.79-.47-.47-.36-.71-.55c-.09-.08-.27-.13-.11-.3s0-.13,0-.14c-.35-.06-.61-.38-1-.32Z"/><path d="M42.73,25.19c-.49-.12-.62-.33-.44-.73a2.71,2.71,0,0,0,.23-.9c0-.33,1-.88,1.29-.71a6.37,6.37,0,0,0,1.25.43,9.33,9.33,0,0,0,1.6.67.29.29,0,0,1,.16.48c-.32.16-.59.45-1,.41-.06,0-.14,0-.16-.06-.34-.64-1.07-.4-1.58-.7s-.89.26-.84.77a6.8,6.8,0,0,0,.23,1.5,2.63,2.63,0,0,0,.66,1.06c.18.18.23.49.51.57,0,0,.05.11,0,.16a1.13,1.13,0,0,1-1,.46,8.06,8.06,0,0,1-2.06-.9c-.23-.15-.38-.31-.32-.57s.27-.33.49-.41.47.15.58-.09a1,1,0,0,0-.07-.77C42.22,25.51,42.29,25.33,42.73,25.19Z"/><path d="M11.42,29a.48.48,0,0,1,.09.58,2.74,2.74,0,0,1-.78,1.11,3.66,3.66,0,0,0,1.75,1.81.47.47,0,0,0,.76-.21c.06-.28.2-.5.44-.43s.32.35.31.57a1.73,1.73,0,0,1-.33,1c-.22.27-.57.22-.85.28a1.43,1.43,0,0,1-1.33-.51c-.31-.32-.74-.48-1-.9s-.67,0-.76.46a1.14,1.14,0,0,1-.88.91.42.42,0,0,1-.42-.07c-.15-.11-.09-.27,0-.41A1.55,1.55,0,0,1,9,32.42a1.31,1.31,0,0,0,.16-1.57c-.32-.6-.89-.93-1.27-1.45A.49.49,0,0,1,7.76,29c0-.14.23-.09.36-.1.51,0,.79.38,1.1.68l.55.51c.36.33.56.31.88-.07s.52-.67.78-1Z"/><path d="M22.83,11.52a1.83,1.83,0,0,1-1-.31,4.11,4.11,0,0,0-1.74-.5c-.55-.08-.82-.26-.76-.68,0-.22.12-.46.44-.32a.43.43,0,0,0,.31,0,.93.93,0,0,1,.9.2.35.35,0,0,0,.52,0c.14-.17-.09-.23-.18-.33a1.73,1.73,0,0,1-.61-1.15.52.52,0,0,0-.08-.3c-.43-.61,0-1.12.23-1.61.1-.2.48-.14.66-.37s.45-.08.7-.06a8.93,8.93,0,0,1,1.27.4.7.7,0,0,1,.46.33c.1.16.22.28.44.22s.29.06.3.27,0,.3-.26.37a1.59,1.59,0,0,1-1.52-.3c-.63-.48-1.49-.25-1.44.38A1.77,1.77,0,0,0,22,9.15a5.42,5.42,0,0,1,1.17,1.56A.51.51,0,0,1,22.83,11.52Z"/><path d="M32.6,42.9a2.36,2.36,0,0,1,1.88,1.3,2.39,2.39,0,0,0,.21.34,1.24,1.24,0,0,1,.41,1,.55.55,0,0,0,.13.47c.15.13.11.27.06.44s-.17.5-.23.76-.51.37-.83.42a1.72,1.72,0,0,1-1.67-.43c-.27-.31-.53-.64-.78-1s-.46-.77-.78-1.1c-.17-.17-.24-.38,0-.57a3.39,3.39,0,0,0,.89-1.2A.89.89,0,0,1,32.6,42.9Zm1.64,3.28a5.23,5.23,0,0,1-.25-1c-.13-.45-.5-.71-.67-1.11a.41.41,0,0,0-.64-.12,1.21,1.21,0,0,0-.23,1.29.84.84,0,0,1,0,.17,1.76,1.76,0,0,0,1.26,1.18C34.07,46.69,34.18,46.47,34.24,46.18Z"/><path d="M59.57,16.46A5.91,5.91,0,0,1,59.16,18a2.26,2.26,0,0,1-1,.76.36.36,0,0,1-.44-.14c-.1-.18.08-.36.16-.47a4.16,4.16,0,0,0,.48-1.67c0-.2-.1-.32-.3-.25-.37.14-.82.09-1.07.52-.14.24-1.14.23-1.52,0a3.7,3.7,0,0,1-.65-.47.61.61,0,0,1-.14-.82c.16-.4.29-.82.41-1.23a1.17,1.17,0,0,1,.31-.53c.17-.16.4-.32.64-.12s.44.48.23.82a2,2,0,0,0-.28.84c-.06.37.12.38.36.39a2.71,2.71,0,0,0,1.11-.27,2.55,2.55,0,0,1,.78-.19A1.22,1.22,0,0,1,59.57,16.46Z"/><path d="M24.39,53.18c0-.33.48-.56.19-.94s-.55,0-.83,0a4.2,4.2,0,0,1-1.89-.3.53.53,0,0,1-.34-.71,2.55,2.55,0,0,1,.36-1.11c.22-.26.55-.43.62-.81,0-.13.2-.16.34-.17s.26,0,.33-.1.43-.33.59-.1,0,.5-.23.7a2.21,2.21,0,0,0-.72.61.89.89,0,0,0-.15.76c.08.28.37.19.58.23a8,8,0,0,0,1.54-.1,1.62,1.62,0,0,1,1.25.62.29.29,0,0,1,0,.33c-.5.66-.65,1.52-1.29,2.11a2.28,2.28,0,0,1-.6.43c-.39.16-.59,0-.62-.44s-.11-.61-.16-.92c0-.13-.11-.38.1-.36s.45-.39.64,0A.4.4,0,0,0,24.39,53.18Z"/><path d="M19.56,18.44c.4-.21,1.13.06,1.2.44s-.15.34-.4.35a3.14,3.14,0,0,1-1.56-.62,1.93,1.93,0,0,0-1.42.06c-.12.12-.05.24,0,.37a3,3,0,0,0,1.68,1.5c.29.15.53.28.44.6a.57.57,0,0,1-.74.42A21.26,21.26,0,0,1,16.59,21a1.65,1.65,0,0,1-.55-.5c-.07-.08-.11-.21-.19-.24-.63-.24-.3-.36.05-.49a.46.46,0,0,0,.35-.54A1.62,1.62,0,0,1,17,17.65a1,1,0,0,1,.68-.21,5.63,5.63,0,0,1,1.56.32C19.55,17.89,19.54,18.15,19.56,18.44Z"/><path d="M7.78,38.09c-.67,0-1-.45-1.43-.85s-.54-.67-1-.77-.51-.39-.15-.71a.79.79,0,0,0,.33-.69c-.07-.64.42-1,.76-1.44a.58.58,0,0,1,.71,0,1.54,1.54,0,0,1,.67.64c.09.15.24.36-.08.47-.12,0-.11.16-.1.26a.21.21,0,0,1-.11.23c-.32.21-.52.56-.44.8a1.54,1.54,0,0,0,1.14.89c.19,0,.38-.07.39-.29s.29-.47.45-.69.28-.08.25,0c-.07.3.16.59,0,.9s-.22.56-.35.81S8.15,38,7.78,38.09Z"/><path d="M54,16.8c.45-.1.55,0,.39.43-.26.69.16,1.16.62,1.57a3.51,3.51,0,0,0,1.52,1,1,1,0,0,1,.67,1.1.36.36,0,0,1-.43.35c-.84-.09-1.68-.08-2.52-.13a.66.66,0,0,1-.59-.63c0-.25.26-.34.51-.35s.38-.12.23-.41-.27-.67-.69-.74a.23.23,0,0,1-.14-.11c-.1-.63-.47-1.24-.09-1.91C53.64,16.74,53.83,16.79,54,16.8Z"/><path d="M16.33,22c-.29.41.16.78.22,1.2s.44.66.84.83.78.37,1.18.54.31.4.21.7-.25.32-.54.28c-1.2-.19-2.38-.47-3.56-.78-.29-.07-.72-.15-.71-.49s.44-.21.68-.21c.49,0,.57-.32.59-.68a3.63,3.63,0,0,1,.57-1.75c.08-.14.18-.12.3-.08S16.36,21.73,16.33,22Z"/><path d="M41.4,46c.32.11.46,0,.46-.29,0-.58.51-.92.64-1.44,0-.15.21-.12.34,0a.17.17,0,0,1,0,.29c-.17.19-.08.31,0,.5.26.37.39.82.69,1.18a3.31,3.31,0,0,0,.84.83c.62.35.66.67.13,1.16-.06.07-.15.14-.23.1-.35-.2-.81,0-1.13-.35-.14-.15-.4-.11-.56-.18A5.46,5.46,0,0,1,41,46.86a.46.46,0,0,1-.09-.6A.48.48,0,0,1,41.4,46Z"/><path d="M.53,36.36a1,1,0,0,1,.58.32c.21.23.3.15.48,0,.57-.62.94-1.4,1.54-2,.07-.07.08-.21.2-.24s.29-.18.42-.09,0,.29-.09.39a7.22,7.22,0,0,0-.77,1.64c0,.1-.07.2-.19.23s-.2.07-.13.13c.29.26,0,.53,0,.79a1.59,1.59,0,0,0,.45,1.3.55.55,0,0,1-.11,1c-.26.14-.55-.06-.76-.23a5.48,5.48,0,0,0-.58-.48c-.06,0-.16-.15-.15-.21.09-.48-.29-.63-.56-.91a12.78,12.78,0,0,1-.84-1.07C-.12,36.66.16,36.36.53,36.36Z"/><path d="M43.2,31.34a1.26,1.26,0,0,1-1,1.18,1.6,1.6,0,0,1-1.52-.23A4.79,4.79,0,0,1,39.34,31c-.18-.31.06-.56.25-.79s.43-.15.64,0a.45.45,0,0,1,.23.26c.14.59.74.62,1.12.9.22.16.51,0,.69-.26s.16-.57.51-.43S43.07,31.15,43.2,31.34Z"/><path d="M20.82,15.88a4.77,4.77,0,0,1-1.17-.29A11.62,11.62,0,0,0,18,14.92c-.16-.06-.32-.11-.34-.32a.47.47,0,0,1,.23-.4.67.67,0,0,1,.71-.14,7.92,7.92,0,0,0,2.22.63c.3.05.45.33.74.36,0,0,.06.1.05.16A1,1,0,0,1,20.82,15.88Z"/><path d="M29.77,33.29l.35-1.37c0-.17.16-.39-.09-.46a.45.45,0,0,0-.54.2c-.22.48-.7.66-1.07,1-.18.14-.27-.14-.24-.27a2.77,2.77,0,0,0,.19-1.14c0-.12.15-.18.26-.19s.18.1.18.21c0,.43.13.46.47.24a2,2,0,0,1,1-.37c.14,0,.32-.07.39.11s.19.37,0,.54-.14.56-.2.85a.18.18,0,0,0,.16.23c.1,0,.26,0,.21.2s-.1.26-.26.26a.88.88,0,0,0-.54.2C29.84,33.67,29.76,33.58,29.77,33.29Z"/><path d="M22.23,43c-.06.19,0,.53-.36.67-.13,0-.13.2-.16.31s0,.29-.19.23-.19-.22-.12-.38.2-.36.28-.55a.3.3,0,0,0,0-.38c-.12-.1-.22,0-.31.09a8.49,8.49,0,0,1-1.21.68c-.13.06-.25.15-.36,0s-.05-.28.07-.39c.3-.27.59-.56.91-.8s.43-.35.69,0c.08.1.25.06.39,0C22.17,42.43,22.28,42.6,22.23,43Z"/><path d="M32.45,18.21a5.78,5.78,0,0,1,0,1c0,.13,0,.3.13.37a.32.32,0,0,0,.4-.13c.17-.3.61-.21.77-.55,0-.1.17,0,.19.16a6.39,6.39,0,0,1,.09.75c0,.32.15.43.44.4s.33,0,.35.2-.17.16-.29.19a1.76,1.76,0,0,0-.2.09c-.37.19-.64.05-.6-.35a4.56,4.56,0,0,0-.06-.75c0-.31-.17-.28-.34-.12a3,3,0,0,1-.89.64A.28.28,0,0,1,32,20,2.38,2.38,0,0,1,32.45,18.21Z"/><path d="M21.89,33.81c.51,0,.56,0,.49.51s-.08,1-.56,1.29c-.1.07-.2.23-.34.09s-.24-.21-.08-.4a4.13,4.13,0,0,0,.33-.58c.06-.11.13-.22.06-.34a.25.25,0,0,0-.33-.05.39.39,0,0,1-.53,0c-.19-.2.05-.35.11-.52s.22-.45.33-.68.12-.23.27-.16a.25.25,0,0,1,.14.3.78.78,0,0,1-.09.21C21.48,33.78,21.55,33.88,21.89,33.81Z"/><path d="M34.85,6.47a.33.33,0,0,0-.29.14.29.29,0,0,1-.36.09c-.13-.08,0-.21,0-.32a3.86,3.86,0,0,0,.1-.89c0-.11,0-.27.14-.28s.18.13.21.24,0,.12,0,.18-.17.3,0,.41.33-.08.47-.17.24-.24.4-.13,0,.27,0,.41a2,2,0,0,0,0,.49.45.45,0,0,1-.48.56c-.28,0-.2-.3-.21-.5A1.76,1.76,0,0,1,34.85,6.47Z"/><path d="M37.09,12c0-.35-.12-.43-.43-.32l-.58.22c-.32.12-.41,0-.42-.32a1.55,1.55,0,0,1,.06-.31c.05-.16,0-.41.28-.36s.17.21.11.38.11.19.21.19a1.87,1.87,0,0,0,.53,0c.4-.08.71-.05.79.45,0,.17.19.18.32.1s.21-.1.27,0a.22.22,0,0,1-.07.28c-.26.24-.63.09-.93.26C37.19,12.53,37.07,12.17,37.09,12Z"/><path d="M23.92,41.88a1,1,0,0,1,.2-1.08c.27-.33.41-.72.65-1,.08-.11.13-.24.25-.31s.13-.1.2,0,.05.13,0,.21c-.07.29-.3.48-.4.74s-.2.47.24.36c.09,0,.22,0,.27.09s-.06.19-.14.26a1.73,1.73,0,0,1-.59.3A.84.84,0,0,0,23.92,41.88Z"/><path d="M38.69,7.21c-.1.29.05.3.3.25.7-.13.89,0,.71.87a2.66,2.66,0,0,1-.26.6A.3.3,0,0,1,39,9c-.15-.11-.1-.26,0-.39s.09-.08.13-.13.35-.42.18-.62a.61.61,0,0,0-.67-.05c-.46.18-.47.18-.42-.33a.89.89,0,0,1,.09-.39.47.47,0,0,1,.31-.29C38.66,6.78,38.69,6.89,38.69,7.21Z"/><path d="M24.46,35.3c.66-.39.84-.3.86.32,0,.19.06.28.27.22a.15.15,0,0,1,.22.07.2.2,0,0,1-.11.26,1.15,1.15,0,0,1-.61.26.27.27,0,0,0-.3.2c0,.12-.07.29-.26.2a.29.29,0,0,1-.12-.39,5.24,5.24,0,0,1,.29-.64C24.8,35.58,24.82,35.39,24.46,35.3Z"/><path d="M25.64,20.88c.37.61.74.56,1.13.19a.27.27,0,0,1,.12-.06c.09,0,.19,0,.17.11-.09.34.54.38.32.76-.11.2-.34.27-.49.44s-.17,0-.2-.15.09-.51-.11-.64-.23.31-.47.33-.24.24-.4.15-.13-.29-.12-.45S25.61,21.19,25.64,20.88Z"/><path d="M27.84,27.25a1.72,1.72,0,0,0,0-.93c-.07-.2.2-.41.44-.4s.17.24.13.39a.87.87,0,0,0,0,.36q0,.41.39.18c.21-.13.51-.43.64-.23s-.32.24-.46.42-.58.29-.77.58a.16.16,0,0,1-.24,0A.45.45,0,0,1,27.84,27.25Z"/><path d="M30.51,17.29a5.09,5.09,0,0,0-.36,1.18c0,.09-.06.17,0,.24a.23.23,0,0,0,.26,0c.18-.09.37-.17.55-.27s.14-.15.21,0,0,.17-.09.23-.38.08-.51.25-.41.37-.56.28a.76.76,0,0,1-.26-.72,3.89,3.89,0,0,1,.17-.65.72.72,0,0,0,0-.56c-.05-.09-.3-.15-.15-.25a1,1,0,0,1,.61-.07C30.52,17,30.52,17.12,30.51,17.29Z"/><path d="M27.23,30.81a2.71,2.71,0,0,0,0,.4c0,.22.1.3.32.22s.2-.21.3-.05a.29.29,0,0,1-.07.37c-.31.15-.47.49-.8.61-.12,0-.23.11-.36,0A.3.3,0,0,1,26.5,32c.16-.43.33-.86.5-1.29,0-.07.09-.13.17-.1S27.25,30.72,27.23,30.81Z"/><path d="M27.17,35.74a.58.58,0,0,1-.13.4.4.4,0,0,0-.09.24.92.92,0,0,1-.6,1,.23.23,0,0,1-.25,0,.21.21,0,0,1,0-.25,4,4,0,0,1,.4-.89.67.67,0,0,0,.21-.48c0-.22.08-.46.33-.44S27.1,35.62,27.17,35.74Z"/><path d="M32.94,9.91c.12-.15-.08-.72.47-.33.1.08.22,0,.33-.06.31-.13.45,0,.47.31,0,.16,0,.33.08.47s.17.19.05.34-.28.12-.45.1-.24-.11-.23-.27c0-.35,0-.65-.46-.27C33,10.37,33,10.07,32.94,9.91Z"/><path d="M34.11,16.26c0-.61.33-1,.33-1.45,0-.11.12-.12.21-.09a.21.21,0,0,1,.16.28.76.76,0,0,0-.11.42c0,.14-.06.31.11.4s.28,0,.41-.08.22-.31.35-.11-.11.26-.23.34a4,4,0,0,1-.81.45C34.18,16.54,34.09,16.42,34.11,16.26Z"/><path d="M33.58,28.81c0-.24-.17-.31-.37-.18s-.54.32-.81.14-.22-.56-.2-.87a1,1,0,0,1,.21-.58c.09.36.17.68.24,1s.08.27.28.11.56.06.58-.39c0-.07.37-.13.41.12s.07.59-.35.64Z"/><path d="M23.81,34.54c0,.39-.33.68-.13,1.05.05.09-.81.84-.94.84s-.21-.17-.17-.3c.13-.48.54-.81.69-1.28C23.33,34.66,23.57,34.64,23.81,34.54Z"/><path d="M15.64,40c.1.21,0,.44.21.59s0,.22-.09.28c-.32.19-.64.37-1,.54-.08.05-.21.1-.27,0a.39.39,0,0,1,0-.45A6.47,6.47,0,0,1,15.64,40Z"/><path d="M39.56,28.43a.79.79,0,0,1-.43.7c-.24.14-.41,0-.56-.22s-.15-.1-.22-.15-.2-.35,0-.43a2.65,2.65,0,0,1,1.12-.19C39.56,28.13,39.55,28.33,39.56,28.43Z"/><path d="M19,37.4c-.05.17-.11.32-.14.48s-.27.26.07.3c.11,0,0,.15,0,.21a1.49,1.49,0,0,1-.82.48c-.26.06-.28-.06-.23-.21a8.84,8.84,0,0,1,.92-1.42c0-.05.1-.09.15,0A1.11,1.11,0,0,1,19,37.4Z"/><path d="M21.27,39.64c0-.09,0-.2.06-.26a1.37,1.37,0,0,0,.34-.81.22.22,0,0,1,.32-.2c.17.07.2.2.08.36s-.14.25,0,.36.25.06.38,0,.24-.16.3,0-.16.15-.26.21c-.27.16-.55.31-.81.49-.09.06-.15.14-.27.1S21.29,39.73,21.27,39.64Z"/><path d="M29.6,17.29c-.27.23-.47.43-.69.58a.62.62,0,0,1-1-.37c-.06-.23.09-.34.22-.45s.26,0,.34.15a.41.41,0,0,0,.58.15A.65.65,0,0,1,29.6,17.29Z"/><path d="M25.14,31.54a1.2,1.2,0,0,1-.65.69c-.13.06-.26.1-.37,0a.32.32,0,0,1,0-.33c.13-.34.24-.69.34-1.05,0-.11.07-.21.2-.17s.11.13.09.22,0,.17-.06.26-.11.36.05.5S24.91,31.42,25.14,31.54Z"/><path d="M27.68,26.45a2,2,0,0,1-1.07,1.11c-.14.07-.31,0-.27-.18.13-.43-.06-.89.21-1.32.15.25.05.64.33.74S27.34,26.58,27.68,26.45Z"/><path d="M20.77,37.66c.11.27-.06.51.15.76s-.61.77-.85.67-.11-.22-.09-.35C20,38.25,20.49,38,20.77,37.66Z"/><path d="M27.83,13.71c-.17-.51.12-.84.26-1.2a3.51,3.51,0,0,0,.22-.48c0-.18.15-.27.32-.21a.23.23,0,0,1,.1.37c-.19.25-.2.57-.36.81S28,13.44,27.83,13.71Z"/><path d="M18.29,37.19c0,.14-.11.2-.21.26l-1,.57c-.09,0-.18.13-.27,0s-.06-.22,0-.33A2.47,2.47,0,0,1,18.12,37C18.24,37,18.27,37.09,18.29,37.19Z"/><path d="M30.07,23.52c.29-.05.38-.3.71-.32a1.65,1.65,0,0,1-.67.71c-.13.06-.25.08-.33-.14a2.93,2.93,0,0,1-.12-1.17c0-.14,0-.25.2-.22s.22.13.16.22C29.8,22.93,30.18,23.18,30.07,23.52Z"/><path d="M29.78,13.57c.17.06.3-.12.48,0a1.5,1.5,0,0,1-.84.71c-.06,0-.16.05-.2,0a.32.32,0,0,1,0-.34l.36-.76c0-.1.09-.22.22-.18s.1.18.08.3S29.73,13.44,29.78,13.57Z"/><path d="M24.76,26.64v-1c0-.08,0-.16.11-.17s.16.07.19.16a.61.61,0,0,1-.08.56c-.22.31-.12.42.21.45.1,0,.29-.07.24.14a.66.66,0,0,1-.49.58c-.14,0-.21-.14-.21-.29s0-.27,0-.4Z"/><path d="M13.28,40.8a3.84,3.84,0,0,1,1.48-1.65.11.11,0,0,1,.16,0,.14.14,0,0,1,0,.2c-.5.12-.53.64-.81,1A1,1,0,0,1,13.28,40.8Z"/><path d="M23.58,39.91c.25,0,.36-.18.62-.27-.2.39-.53.48-.78.65-.05,0-.25-.22-.2-.39a7,7,0,0,1,.36-1c.05-.12.18-.3.34-.21s.06.37,0,.4C23.56,39.28,23.78,39.65,23.58,39.91Z"/><path d="M19.26,41.74a1.69,1.69,0,0,1-.32.66c.13.16.3,0,.46.11-.34.15-.47.51-.78.67-.07,0-.16.18-.2.07s-.27-.15-.14-.32C18.6,42.54,18.64,41.91,19.26,41.74Z"/><path d="M31.12,14.64c-.44.12-.4-.16-.32-.43a6.07,6.07,0,0,1,.29-.7.19.19,0,0,1,.25-.13c.1,0,.08.17,0,.24-.11.25-.15.45.15.59.09,0,0,.16,0,.24S31.35,14.75,31.12,14.64Z"/><path d="M16.31,42.52c-.11,0-.14-.15-.1-.28a1.45,1.45,0,0,1,.54-.73.26.26,0,0,1,.36,0c.13.11.1.23,0,.36A1.2,1.2,0,0,1,16.31,42.52Z"/><path d="M28.22,21.8c.19.1.12.26.15.4s0,.52.38.56a.13.13,0,0,1,.07.23c-.19.15-.43.06-.64.07s-.23-.2-.21-.35A1.55,1.55,0,0,1,28.22,21.8Z"/><path d="M30.37,27.5a.85.85,0,0,0,.09.55c.11.16-.06.23-.17.29s-.19,0-.24-.14c-.21-.53.05-1.08-.05-1.62,0,0,.06-.08.09-.07s.14.07.13.08C30.12,26.93,30.47,27.2,30.37,27.5Z"/><path d="M36.9,7.43c-.35,0-.4-.09-.27-.36a1.4,1.4,0,0,0,.19-.63c0-.14,0-.25.19-.26s.15.15.16.26a2.14,2.14,0,0,0,.17.77C37.44,7.41,37.06,7.4,36.9,7.43Z"/><path d="M33,15.45a1,1,0,0,1,0-1.11c0-.07.1-.17.2-.16s.11.16.13.25,0,.1,0,.13C33.63,15,33.34,15.22,33,15.45Z"/><path d="M26.2,40.75c0,.4-.46.56-.62.9,0,0-.12,0-.16,0a.17.17,0,0,1,0-.21,1,1,0,0,0,.24-.82c0-.15.16-.26.32-.23S26.22,40.56,26.2,40.75Z"/><path d="M34.48,24.37c-.17-.27-.34-.37-.61-.16a.3.3,0,0,1-.41,0,.44.44,0,0,1-.1-.41c0-.1.1-.21.17-.15.23.19.51.1.75.19S34.39,24.17,34.48,24.37Z"/><path d="M28.43,37.92c-.11,0-.14-.13-.09-.21.29-.44.32-1,.6-1.42.06-.1.1-.2.23-.15a.14.14,0,0,1,0,.23,8,8,0,0,0-.52,1.26A.48.48,0,0,1,28.43,37.92Z"/><path d="M36.13,17.11c-.23-.14-.09-.3-.09-.45s0-.53-.07-.8c0-.1-.12-.25.05-.3a.32.32,0,0,1,.34.17.62.62,0,0,1,0,.6A3.45,3.45,0,0,0,36.13,17.11Z"/><path d="M30.89,8.86a3,3,0,0,1-.69.5c-.16.07-.33.2-.48,0a.3.3,0,0,1,0-.41c.14-.15.3-.32.53-.16A.62.62,0,0,0,30.89,8.86Z"/><path d="M27.54,16.81c0,.18-.13.36.08.53s-.06.14-.12.18a.49.49,0,0,1-.5.09.19.19,0,0,1-.07-.28c.09-.21.19-.42.29-.62s.09-.18.19-.16S27.54,16.7,27.54,16.81Z"/><path d="M23.52,30.5a1,1,0,0,1,0,.35c-.07.2-.23.42-.43.37s0-.28,0-.43a2,2,0,0,1,.05-.26c.06-.18,0-.47.26-.46S23.46,30.39,23.52,30.5Z"/><path d="M31.52,23.81c0-.18-.15-.37,0-.58s.08-.17.18-.17.1.12.11.2a1.71,1.71,0,0,0,.11.74c.07.13.12.36-.07.43s-.18-.19-.27-.29S31.48,23.94,31.52,23.81Z"/><path d="M31,9.9c0-.34.28-.52.39-.79a.12.12,0,0,1,.19,0,.14.14,0,0,1,0,.2.83.83,0,0,0-.27.83.14.14,0,0,1-.18.15C30.92,10.21,31,10,31,9.9Z"/><path d="M10.65,41.88a.58.58,0,0,1-.51.35c-.14,0-.19-.07-.17-.19,0-.28.23-.36.48-.33S10.67,41.72,10.65,41.88Z"/><path d="M40.52,9.16c-.16,0-.27-.06-.26-.21s.2-.35.38-.45.15,0,.13.11S40.76,9.07,40.52,9.16Z"/><path d="M33.57,28.8a.75.75,0,0,1-.18.89c0-.37-.25-.68.2-.88Z"/></g></g></g></svg>