<svg xmlns="http://www.w3.org/2000/svg" viewBox="0 0 78.82 87.26"><defs><style>.cls-1{opacity:0.8;}.cls-2{fill:#fffbf3;}.cls-3{opacity:0.7;}.cls-4{fill:#69c5ab;}</style></defs><g id="Layer_2" data-name="Layer 2"><g id="Layer_1-2" data-name="Layer 1"><g class="cls-1"><path class="cls-2" d="M.84,19.71a20.62,20.62,0,0,0,.31,2.23c.09.7,0,1.42.11,2.12.19,1.62.46,3.22.74,4.83.25,1.45.48,2.9.73,4.34s.08,3,.72,4.36l-.34-1.27c.24,3.26.9,6.43,1.16,9.68.15,1.85.12,3.7.33,5.56a38.73,38.73,0,0,0,1,5.74A14,14,0,0,0,7.73,62a8.11,8.11,0,0,1,.88,1.36c-.3-.63.1.56.17.77.13.38.27.74.38,1.13.45,1.68.9,3.38,1.23,5.08.28,1.46.62,3.37,1.6,4.5a2.48,2.48,0,0,0,3,.39l-.16,0-3.07-1.74a3.18,3.18,0,0,0,2.4,2.41,11.09,11.09,0,0,0,2.82.92,9.68,9.68,0,0,0,3.55-.27,12.78,12.78,0,0,1,2.72-.51,21.85,21.85,0,0,0,3.11-.46c1-.2,2-.29,3-.54a33.55,33.55,0,0,0,5.53-2.33c1.92-.87,3.93-1.47,5.89-2.25a23.41,23.41,0,0,1,6.08-1.59,34.19,34.19,0,0,0,7-2,31.93,31.93,0,0,1,6.77-1.39,5.39,5.39,0,0,0,2-.44c.56-.28-.06,0-.17,0a11.55,11.55,0,0,0,1.45-.25c1.21-.25,2.43-.28,3.64-.53,2.34-.49,4.63-1.51,7-1.27l-1.26-.34c-.44-.72-.57-.83-.4-.32.12.29.24.58.37.86C74.35,65.59,78,64.33,78,62a6.41,6.41,0,0,0-.43-1.84c-.26-.91-.49-1.8-.83-2.69-.77-2.06-1.2-4.15-1.84-6.25-.27-.89-.66-1.74-1-2.61s-.43-1.89-.83-2.76a3.92,3.92,0,0,0-.47-.79c-.47-.63,0-.06,0,0-.15-.47-.3-.94-.47-1.4a9.64,9.64,0,0,1-.79-2.82c-.2-3.89.54-7.75.29-11.64-.14-2.16-.39-4.31-.54-6.46-.07-1-.25-2-.42-3a25.68,25.68,0,0,0-.34-2.88c-.27-.88-.49-1.77-.76-2.66a18.75,18.75,0,0,0-.93-2.33c.06.12-.4-.77-.24-.43s0-.13,0-.14a3.94,3.94,0,0,0-1-1.5A4.1,4.1,0,0,0,64.59,9c-2,0-3.82.48-5.8.46a38.1,38.1,0,0,0-6.58.34,50.19,50.19,0,0,1-6,.3,33.18,33.18,0,0,0-6.36.83,61.2,61.2,0,0,1-6.43,1.5c-2.09.27-4.21.17-6.3.48-1.13.17-2.19.59-3.3.8A16.69,16.69,0,0,1,20.5,14a26.28,26.28,0,0,0-3.65.29,15.52,15.52,0,0,0-3.08.81c-.93.32-1.91.27-2.85.53s-2.07.49-3.13.69c-1.53.29-3.76.21-5.16,1.74C.45,20.46,4,24,6.16,21.62c.33-.35.17,0-.18,0,.14,0,.28-.11.43-.12l.73-.09c.87-.08,1.72-.23,2.58-.38s1.8-.44,2.71-.63a18.39,18.39,0,0,0,2.85-.55A11.64,11.64,0,0,1,18,19.17,18,18,0,0,1,20.71,19a23.37,23.37,0,0,0,6.49-1c1.91-.54,4-.34,6-.54a41,41,0,0,0,6.47-1.31,30.1,30.1,0,0,1,6.12-1c2-.1,4.08-.05,6.08-.26,1.16-.12,2.29-.41,3.46-.44s2.48,0,3.71,0a13.08,13.08,0,0,0,3.48-.37,5.44,5.44,0,0,1,1.4-.1c.23,0,.47,0,.7,0,.6,0,.51.22-.06-.13l-.9-.89c-.24-.34.19.47.27.64.16.33,0,0,.19.34A15.2,15.2,0,0,1,65,16.3a18.59,18.59,0,0,1,.59,2.06c.15.86.1,1.81.27,2.7a34,34,0,0,1,.45,5.23c0,.92.22,1.8.31,2.71s0,1.9,0,2.84c0,3.52-.78,7.18-.11,10.68A15.73,15.73,0,0,0,67.3,45a13.9,13.9,0,0,0,1,2.61c0,.06.48.87.29.33s0,.14,0,.2a9.09,9.09,0,0,0,.25,1,26.31,26.31,0,0,0,.93,2.48c.74,2,1,4.11,1.75,6.11.34.93.73,1.85,1,2.82.1.34.16.68.26,1s.22,1.1.21.37l4.66-1.26a4,4,0,0,0-1.76-2.34A7.46,7.46,0,0,0,72.4,58c-2.18.14-4.27,1.27-6.45,1.55-1.29.17-2.54.36-3.82.58a7.17,7.17,0,0,0-1.53.39c-.29.12-.38,0,.06,0-.31,0-.61.06-.92.09a38.1,38.1,0,0,0-7.39,1.55c-2.18.71-4.23,1.65-6.54,1.81a23.32,23.32,0,0,0-6.54,1.77c-2.12.82-4.27,1.52-6.35,2.45A24.91,24.91,0,0,1,28,70.27c-.54.11-1.14.11-1.7.22a15.7,15.7,0,0,1-1.9.41,22.18,22.18,0,0,0-3,.28,12.21,12.21,0,0,1-3.55.73,2.53,2.53,0,0,1-.86-.22c-.3-.1-.61-.3-.9-.4-.08,0-.87-.32-.46-.11l.9.9.06.1a2.54,2.54,0,0,0-3.08-1.75,2.48,2.48,0,0,0-1,.47l3,.39-.12-.14.64,1.1c-.88-3-1.29-6.17-2.31-9.13a17.89,17.89,0,0,0-.68-2,10.41,10.41,0,0,0-1.17-1.84,10.69,10.69,0,0,1-1.66-4.05C9.39,51.6,9.53,48,9.07,44.35c-.18-1.45-.33-2.92-.49-4.38-.09-.89-.36-1.74-.41-2.62a6.89,6.89,0,0,0-.52-2.56L8,36.05c-.35-2.76-.63-5.51-1.13-8.25-.24-1.32-.49-2.66-.63-4-.08-.71,0-1.42-.09-2.13s-.29-1.29-.3-2c0-3.22-5-3.23-5,0Z"/></g><g class="cls-1"><path class="cls-2" d="M5.06,25.76c0,3.67,1.64,6.75,2.41,10.25,1,4.33,1.25,8.84,2.18,13.18C11.2,56.5,10,69.74,18.91,72c4.11,1,7.33-2.11,11.17-2.72,3.64-.59,7.61-.91,11.18-2,7.94-2.39,15.43-8.85,24.05-7.35L59.8,52.7l0,.34,1-3.79-.18.24,14,3.78C74.24,49.35,73,45.81,72.26,42c-.57-3.16-.5-6.4-1.49-9.48a73.89,73.89,0,0,1-2.57-10,23.68,23.68,0,0,0-1.06-3.79c-.59-1.63-.56-2.61-2.48-4.49-5.81-5.69-16,.29-22.19,2.18-7.28,2.24-16.19,4.45-23.73,2.72l1.79,13.7c4.28-3.08,10.35-3.54,15.33-5,3.14-.9,6.08-2.34,9.24-3.19,1.41-.38,2.86-.64,4.29-.93.85-.17,4-.52,3-.59L45.9,19.45l.25.5-.76-5.78c-1.3,5.54-.73,10.54,0,16.12S48,41.38,47.88,46.9l14-3.79C59,37.05,58.22,24,48.77,25.09c-6.4.76-9.28,9.21-5.82,14.45l-1-3.79a88.4,88.4,0,0,0,2.14,14.4c2.3,9.43,16.4,5.41,14.46-4a63.34,63.34,0,0,0-7-18.76c-3-5.34-12.42-4.65-13.71,1.79-1.19,5.94-.67,11.82-.06,17.62l14-3.79C49.53,39.48,49.4,35.51,46,32.54a7.61,7.61,0,0,0-12.54,3.31c-1.33,3.9-1,9.66-.46,13.7l14-3.79c1.08,1.68-.29-2-.41-2.45-.54-2-1-4-1.7-6a19.65,19.65,0,0,0-5.11-8.14C35,24.27,27.38,28.27,27,34.5a76.29,76.29,0,0,0,.78,17.93l14.47-4c-1.83-5.4-2.95-11.18-6-16.1-4-6.57-13.52-3.53-14,3.78a122.9,122.9,0,0,0,.08,16.73l14.73-2c-1.43-4.33-2.41-8.83-3.65-13.22-2.36-8.32-14.29-6.35-14.73,2a52.52,52.52,0,0,0,.59,11.88c.94,5.2,9.17,7.65,12.53,3.31l.25-.33c2.5-3.22,3.09-7.45,0-10.6-2.55-2.62-8.12-3.2-10.6,0l-.25.32,12.53,3.31c.47,2.56.06-2.25,0-2.73-.06-1.74-.18-3.42-.09-5.16L19,41.63c1.25,4.39,2.22,8.89,3.66,13.21,2.52,7.6,15.4,6.88,14.73-2a122.9,122.9,0,0,1-.08-16.73l-14,3.79c2.32,3.8,3,8.34,4.44,12.52,3.13,9.25,16.13,5.46,14.47-4C41.44,44,41.68,39,42,34.5l-12.8,5.31C32,42.73,31.37,49.18,34,53.33c3.62,5.63,15,4.15,14-3.78-.34-2.69-.95-7.16-.07-9.72L35.4,43.14c1.72,1.51,2.13,5.42,3.42,7.45,3.65,5.76,14.81,4.09,14-3.78-.47-4.45-1.36-9.19-.48-13.63L38.62,35a50.23,50.23,0,0,1,5.44,15.18l14.46-4a69.27,69.27,0,0,1-1.47-8.6A18,18,0,0,0,55.9,32l.83,2.53c0-1.12-.09-1.08-.21.1l-5.24,5.24.49-.15-7.3-1.93-1.19-2c.26.82.56,1.63.88,2.43.5,1.34,1,2.67,1.5,4a78.37,78.37,0,0,0,3.25,8.48c3.33,7,13.83,3.18,14-3.78.15-7.17-2.26-14.28-3.08-21.38-.69-6.05,2.55-16.91-7.43-17.36-7-.32-13.95,3.37-20.5,5.24C25.62,15.19,18.34,16,13,19.88c-4.85,3.5-5,12.15,1.79,13.71,7.78,1.79,15.35.71,23.13-.64a78.42,78.42,0,0,0,11.94-3.18c2.91-1,6.17-2.8,9.21-2.88l-3.78-1,.32.14-3.44-4.49a29.79,29.79,0,0,1,1.79,7c.41,3,1.43,5.17,2.38,8,.89,2.59.82,5.38,1.24,8.07.47,2.94,1.81,5.82,2.13,8.74.82,7.63,9.4,9.92,14,3.79A6.52,6.52,0,0,0,74.8,52.7c-.38-3.05-2-6.63-5.5-7.23-11.32-2-19.1,1.61-28.85,5.91a23.39,23.39,0,0,1-5.4,1.88c-1,.19-2.09.32-3.13.5-.24.05-3,.68-1.84.5a44.34,44.34,0,0,0-13,4l5.78-.76-.55-.18,5.24,5.23c-1.67-5.3-2.35-11.45-3.75-17.94-.7-3.29-1-6.78-1.5-10.1a41.13,41.13,0,0,0-1.5-6c-.24-.79-.5-1.56-.72-2.36-.41-1.59-.06,2-.06-.46,0-9.66-15-9.67-15,0Z"/></g><g class="cls-1"><path class="cls-2" d="M21,71.37c8.06,0,16.35.43,24.3-1.07,4-.75,7.82-1.85,11.75-2.72,3.73-.82,5.56-.57,9-2.22,8.71-4.16,1.11-17.1-7.57-13l-.38.18,3.78-1c-6.57.75-13.2,3.35-20.06,4.18S28,56.37,21,56.37c-9.65,0-9.66,15,0,15Z"/></g><g class="cls-1"><path class="cls-2" d="M53.92,29.54A50.91,50.91,0,0,0,57.16,45.6a56.34,56.34,0,0,1,1.9,5.48c.28,1,.56,1.89.87,2.83.06.18,1.39,4.54.91,2.58,2.28,9.38,16.74,5.4,14.47-4-1.88-7.73-6-14.84-6.39-23-.48-9.61-15.48-9.67-15,0Z"/></g><g class="cls-1"><path class="cls-2" d="M38.28,41.73c6.33,0,12.59.37,18.78-1.18,9.36-2.35,5.39-16.82-4-14.46-4.73,1.18-9.92.64-14.79.64-9.66,0-9.67,15,0,15Z"/></g><g class="cls-3"><path class="cls-4" d="M5.85,17.29l-.26-.1c-1-.37-2.73-.54-3.45.47a6.7,6.7,0,0,0-.83,3.49c-.14,1.7,0,3.46,0,5.17a7.5,7.5,0,0,0,.41,3.36c.73,1.56,2.48,1.89,4.05,1.76,1.26-.1,2.48-.24,3.76-.28a14.92,14.92,0,0,1,3.86.54,16.68,16.68,0,0,0,4.23.46c.78,0,1.55,0,2.33,0a9.43,9.43,0,0,0,2.9-.6,14.76,14.76,0,0,1,1.77-.23,9.1,9.1,0,0,0,2.11-.67,13.85,13.85,0,0,1,4-1.27,10.83,10.83,0,0,0,2-.42c.67-.24,1.3-.3,2-.48s1.36-.45,2.06-.63,1.47-.15,2.2-.3c2.86-.63,5.71-1.28,8.52-2.15A25.19,25.19,0,0,1,55.7,24.1a37.85,37.85,0,0,0,4.52-.05,11.59,11.59,0,0,0,2-.46,10.69,10.69,0,0,1,2.32-.3,17.19,17.19,0,0,0,4.07-.37c1.71-.58,1.65-1.78,1.12-3.19s-.56-2.64-1-3.94a22,22,0,0,1-1.15-4.16,3,3,0,0,0-1.9-2.73,7.61,7.61,0,0,0-3.34-.48A13.37,13.37,0,0,0,58.58,9c-.19.06-1.31.41-.52.27-.2,0-.4,0-.59,0a14.64,14.64,0,0,0-2.64.89c-1.28.48-2.48,1.11-3.79,1.5a11.43,11.43,0,0,1-1.93.32c-.75.09-1.5.33-2.25.38a40.92,40.92,0,0,0-4.42.17c-1.62.28-3.28.41-4.91.56-1.23.11-2.47-.08-3.7,0-1.53.09-3.1.22-4.63.37a26.72,26.72,0,0,0-5.19.9c-.11,0-.91.33-.37.21-.41.09-.92,0-1.35.07-.89.11-1.77.28-2.66.4-1.66.23-3.23.7-4.87,1a26.7,26.7,0,0,1-5.28.43,19.39,19.39,0,0,0-2.53,0,15.84,15.84,0,0,0-2,.54c-1.34.37-3.06.7-3.14,2.45-.07,1.44.76,3,1,4.38.17.84.45,1.69.59,2.55a5.57,5.57,0,0,0,.38,2A2.75,2.75,0,0,0,6.5,29.81c.82,0,2.3-.5,2.24-1.59-.07-1.38-.28-2.76-.26-4.14a17.85,17.85,0,0,1,.17-1.78,3.8,3.8,0,0,1,.19-1.36L4,20.72c1,2.54.86,5.4,1.79,8,.68,1.87,3.9,1.74,4.82.21.67-1.11.28-2.79.28-4,0-1.84,0-3.68,0-5.52L6,19.61c.63,2.95.69,6.26,2.39,8.87,1,1.54,4.33,1.23,4.69-.65.21-1.09.12-2.27.22-3.37.06-.65.08-1.29.08-1.93a7.49,7.49,0,0,1,0-2.06l-4.82-.22a15,15,0,0,1,1,3.63c.31,1.37.72,2.73,1.13,4.08.6,2,3.9,1.63,4.82.21a8.81,8.81,0,0,0,1-3.92c.16-1.6.32-3.21.56-4.8l-4.32,1,.19.13-.61-.79a21.05,21.05,0,0,1,.74,3.73,14.26,14.26,0,0,0,1.2,4.05c.8,1.38,3.95,1.3,4.59-.2,1-2.4.22-5.09,1.17-7.5l-4.82-.22a37.32,37.32,0,0,1,.47,4.25c.17,1.17.83,2.48.72,3.65-.19,2.1,3.6,2.23,4.62,1.07s1-3.22,1.21-4.61c.07-.45.11-.9.16-1.35a3.84,3.84,0,0,0,.11-.81c0-.37.48-.61-.35,0L18,21c.19,1.11.36,2.24.56,3.35a4.25,4.25,0,0,0,.78,2.41c1.16,1.25,4.33,1.47,4.69-.65a29.72,29.72,0,0,0,.46-3.24A13.65,13.65,0,0,1,24.77,20l-4.21.57c-.24-.16,0,.24,0,.46.06.38.06.77.09,1.15a9.36,9.36,0,0,0,.39,3.25c.81,1.87,4.47,1.9,4.92-.24s.2-4.26.35-6.41l-4.93.24c.87,2.17.66,4.6,1.71,6.74.81,1.63,3.93,2,4.82.22a9.31,9.31,0,0,0,.52-2.74A21.23,21.23,0,0,0,28.71,20L24,20.66c.09.09.05.08.15.38s.14.53.2.8.11.53.15.79c.07.43,0-.47,0,.11.08,1.17.05,2.56,1.1,3.33,1.31.94,3.94.83,4.32-1a16.3,16.3,0,0,1,.88-4.1L26,20.72c.43,1.45,0,3.53,1.3,4.55.94.73,3.79,1,4.21-.57.37-1.41.62-2.84,1.06-4.23l-4.58.2A10,10,0,0,1,29,22.55c.75,1.57,4,2.05,4.81.21a24.8,24.8,0,0,0,1-2.93c.27-.93.28-1.88.49-2.81L31,18c.29.19.37,1.64.45,2.08a5,5,0,0,0,.93,2.69,3,3,0,0,0,2.45.93c.69,0,1.9-.33,2.13-1.13s.5-1.73.7-2.62c.12-.56,0-1.43.26-1.9l-4.59.2c.78,1.32.49,3.09,1,4.5a2.61,2.61,0,0,0,2.36,1.37c.76,0,2.22-.25,2.46-1.15.3-1.16.46-2.35.84-3.48l-3.12,1.06c-.61-.14-.72-.64-.33.28a6.41,6.41,0,0,0,.68,1.23c1,1.29,3.82,1.35,4.59-.21.88-1.79,1.19-3.78,1.91-5.64l-4.58.21c.43.5.48,2.22.51,3,.07,1.61.4,2.7,1.84,3.54,1.2.71,3.62.29,3.83-1.31.16-1.2.29-2.44.41-3.65.05-.58.05-1.73.29-2l-4.31-.2c-.13-.26-.13-.14,0,.34.06.32.1.63.13.95s.1.94.14,1.41a25,25,0,0,1,.07,3c-.06,2.1,3.53,2.27,4.62,1.08,1.4-1.54.85-3.71,1.17-5.54l-3.24,1.51.16.05-1.08-.49c-.32-.22-.08,0,0,.36s.05.84.07,1.25a13,13,0,0,0,.41,2.92c.59,2,4.58,1.81,4.93-.24a32.59,32.59,0,0,1,1-5.28L45.22,17a41.15,41.15,0,0,1,.72,5c.25,2.2,3.89,2.43,4.88.68a8.51,8.51,0,0,0,.52-2.85A22.63,22.63,0,0,1,52.1,16l-4.59.2a3.67,3.67,0,0,1,.36,1.72c.09,1,.15,2.05.25,3.07.21,2,4.16,2.66,4.89.67a16.15,16.15,0,0,0,.72-3.91,28,28,0,0,1,1.06-3.89l-3.13,1.06h.05l-1.08-.49c-.32-.24-.41-.73-.32-.21,0,.25.14.5.2.75.12.56.22,1.13.3,1.69a11.81,11.81,0,0,1,.25,2.51c-.15,2,3.64,2.36,4.61,1.07.73-.95.68-2,.88-3.1,0-.13.12-.45.22-.78s.17-.46.23-.7.35-.58,0-.17l-.92.58,0,0-3.62-1.19A22.79,22.79,0,0,1,53,18c0,.95.23,1.92.21,2.87,0,2.33,4,2.23,4.89.67.56-.93.5-2.49.7-3.55.16-.79.41-1.55.6-2.33a5.76,5.76,0,0,1,.26-1.36l-3.94.17c-.49-.44-.15-.13-.15.16s0,.35.07.52c.07.59.12,1.19.17,1.78.1,1.13.06,2.65.89,3.52,1.11,1.18,3.71,1.44,4.58-.2A12.15,12.15,0,0,0,62,17a34.88,34.88,0,0,1,.78-3.51l-4.2.57.23.21-.61-.79c.54,1,.35,2.45.4,3.57a8,8,0,0,0,.54,3.4c.94,1.78,4.39,2,4.92-.23A27.23,27.23,0,0,0,64.65,17c0-.36,0-1.84.24-2l-4.55-.61c.19,1.1.25,2.23.47,3.33a35.31,35.31,0,0,0,1,3.51l4.24-1.48-.21-.16a3.27,3.27,0,0,0-3.53-.16,1.4,1.4,0,0,0-.11,2.42l.21.17c1.16.88,5,.76,4.25-1.48a36.05,36.05,0,0,1-1-3.51c-.21-1.1-.28-2.23-.47-3.34-.14-.81-1.38-1.24-2-1.32a3.13,3.13,0,0,0-2.53.7c-.88.76-.77,1.82-.88,2.86a31.26,31.26,0,0,1-.66,4.1L64,19.75c-.57-1.07-.42-2.59-.46-3.77,0-1.58,0-3.1-1.31-4.19-.95-.81-3.76-1-4.21.57a32.75,32.75,0,0,0-.84,3.52,12.66,12.66,0,0,1-.67,3.28l4.59-.2c-.27-.29-.23-1.16-.26-1.54-.07-.67-.12-1.34-.19-2a4.34,4.34,0,0,0-1.28-3.16,3.16,3.16,0,0,0-3.93.17c-.93,1-1,2.75-1.3,4-.22.85-.37,1.7-.52,2.56a4.68,4.68,0,0,1-.29,1.47l4.89.68A32.49,32.49,0,0,0,58,17.87c-.1-1.25-.4-2.49-.62-3.72S54.7,12.54,53.77,13a3.46,3.46,0,0,0-1.89,2.64A13.44,13.44,0,0,0,51.55,17a10.55,10.55,0,0,1-.11,1.36l4.61,1.07a17.32,17.32,0,0,0-.48-4.05C55.3,13.78,55,12,53.14,11.66c-.89-.17-2.82-.11-3.13,1.06-.35,1.34-.91,2.62-1.16,4a22.1,22.1,0,0,1-.62,3.81l4.89.68c-.2-1.88.14-5-1.21-6.54-.94-1.05-4-1.57-4.59.2a18.09,18.09,0,0,0-.91,4,7.84,7.84,0,0,1-.36,2.62l4.88.67a48.41,48.41,0,0,0-.85-5.88c-.42-1.75-4.23-1.89-4.82-.22A39.42,39.42,0,0,0,44,22.27L49,22c-.77-2.6.38-5.57-2.92-6.64-1.2-.39-3,.14-3.24,1.51-.17,1,.18,3.2-.41,3.84L47,21.82a30.63,30.63,0,0,0-.16-3.95,8.2,8.2,0,0,0-.79-3.51c-.83-1.36-3.3-1.17-4.31-.2a4.7,4.7,0,0,0-1,3.17c-.11,1.38-.27,2.78-.45,4.15l3.83-1.31-.16-.1.86.65c-.42-.46-.2-2-.34-2.64-.22-1-.25-2.32-1-3.16-1-1.12-3.92-1.51-4.59.2C38.19,17,37.88,19,37,20.76l4.58-.2c-.38-.52-.48-1.21-.86-1.76a3.83,3.83,0,0,0-2.41-1.46c-.94-.21-2.74-.08-3.12,1.06s-.54,2.32-.84,3.48l4.81.21c-.64-1.8-.44-3.61-1.45-5.34-.91-1.54-3.74-1.11-4.59.21A4.08,4.08,0,0,0,32.76,19a13,13,0,0,1-.61,2.44l4.59-.21c-.5-.56-.47-1.85-.61-2.59a3.91,3.91,0,0,0-1.52-2.91c-1.36-.88-3.89-.87-4.32,1-.18.78-.19,1.57-.42,2.33A21.94,21.94,0,0,1,29,21.63l4.81.22a14,14,0,0,0-1.41-2.72c-.87-1.12-4-1.51-4.58.21-.44,1.39-.69,2.82-1.06,4.23L31,23l-.13-.11.61.79a9.82,9.82,0,0,1-.09-1.3A13.42,13.42,0,0,0,30.86,20c-.54-1.83-4-1.81-4.81-.22s-.76,3.33-1.1,5l4.31-1c.8.57.27.55.33.17a3.38,3.38,0,0,0-.06-.78c0-.42-.08-.84-.15-1.25a5.58,5.58,0,0,0-1-2.82,3.16,3.16,0,0,0-2.79-.92c-.78.12-1.91.64-1.91,1.58a21.76,21.76,0,0,1-.21,2.9,7.92,7.92,0,0,1-.35,2.21L28,25.1c-1-2.13-.85-4.56-1.71-6.74-.7-1.74-4.78-2-4.93.24s.1,4.29-.34,6.41l4.92-.24c-.87-2,.51-4.94-1.71-6.43-1-.66-3.75-1.06-4.21.57-.63,2.23-.55,4.64-.94,6.92l4.69-.66a5.18,5.18,0,0,1-.32-1.58c-.2-1.11-.36-2.23-.55-3.34-.26-1.54-3.17-1.68-4.14-.94s-1.22,2.08-1.36,3.4c-.06.61-.16,1.2-.26,1.81s-.15,1-.24,1.44c0,.23-.09.46-.13.69s-.06.35,0,.07l4.62,1.07c.12-1.4-.58-2.74-.79-4.1A43.69,43.69,0,0,0,20.07,19c-.47-1.76-4.17-1.87-4.82-.21a12.53,12.53,0,0,0-.73,3.59,12.22,12.22,0,0,1-.44,3.91l4.58-.21a9.62,9.62,0,0,1-.38-1.85c-.22-.8-.42-1.61-.57-2.43-.23-1.26-.18-2.75-1.31-3.57s-4-.87-4.32,1c-.23,1.48-.38,3-.53,4.47A7.16,7.16,0,0,1,10.72,27l4.82.22c-.42-1.35-.82-2.7-1.13-4.08a15.09,15.09,0,0,0-1-3.62c-.86-1.68-3.84-1.93-4.82-.22a3.76,3.76,0,0,0-.2,2c0,.83,0,1.66,0,2.49a36.34,36.34,0,0,1-.26,3.77l4.69-.66a12.06,12.06,0,0,1-1.18-3.58c-.32-1.47-.43-3-.75-4.44-.4-1.89-5-1.88-4.92.23,0,1.7,0,3.39,0,5.08,0,.69,0,1.38,0,2.06a2.54,2.54,0,0,1-.1,1.5l4.82.22c-.93-2.58-.77-5.45-1.79-8-.72-1.77-3.92-1.84-4.82-.21a9.26,9.26,0,0,0-.57,3.6A39.22,39.22,0,0,0,3.75,28l4.92-.24a4.75,4.75,0,0,1-.3-1.56c-.1-.57-.26-1.13-.4-1.69-.33-1.37-.68-2.71-1-4.07a4.29,4.29,0,0,0-.15-.67c.81.67-1.86.78-.52.67.59-.06,1.1-.38,1.67-.49a37.15,37.15,0,0,1,4.36-.09c2.84-.19,5.49-1,8.29-1.41,1.2-.16,2.39-.38,3.59-.46s2.65-.62,4-.83a42.11,42.11,0,0,1,7.76-.63,27.45,27.45,0,0,0,3.85-.24c.83-.1,1.67-.05,2.51-.16s1.47-.3,2.21-.37c1.26-.11,2.52.11,3.79-.06a34.26,34.26,0,0,0,4.53-.76,26,26,0,0,0,3.63-1.36,22.32,22.32,0,0,1,3.39-1.1A16,16,0,0,1,61.44,12l.76-.1s.7,0,.25,0c.36,0,.9-.08.95,0l-.71-.4q-.18-.18-.09.12a3.12,3.12,0,0,0,.18,1.24c.35,1.36.79,2.71,1.24,4,.23.7.26,1.39.43,2.11.08.35.19.7.3,1a6.13,6.13,0,0,1,.44,1.06l.38-.86-.09.13.93-.57c.13-.06,1.07,0,.34-.09a5.25,5.25,0,0,0-.79,0c-.56,0-1.12.07-1.68.13a22.07,22.07,0,0,0-3.64.44,21.16,21.16,0,0,1-5.9.37,25.4,25.4,0,0,0-6.32.74c-2.17.54-4.27,1.32-6.44,1.86a45.44,45.44,0,0,1-5.76,1.13,19.55,19.55,0,0,0-3.09.82,10.82,10.82,0,0,1-1.27.2c-.64.1-1.16.4-1.77.55-1,.23-2,.3-3,.58a24.9,24.9,0,0,0-3,1.18,9.83,9.83,0,0,1-2.41.43c-.58.11-1.05.37-1.6.52a9.5,9.5,0,0,1-1.58.06,11.78,11.78,0,0,1-3.25-.16c-1-.29-2.15-.46-3.21-.68a17.4,17.4,0,0,0-3.68-.14,20.46,20.46,0,0,0-2.21.12l-.66.1c-.77.12-.56-.14.21.22l.86.66c-.33-.37-.26-1.1-.25-1.64,0-1,0-2,0-3A25.55,25.55,0,0,1,6.57,19l-.38.85.19-.26L2.93,20l.27.1a3.17,3.17,0,0,0,3.44-.46,1.5,1.5,0,0,0-.79-2.39Z"/></g><g class="cls-3"><path class="cls-4" d="M19.53,29.59a5,5,0,0,0,1-.13c.13,0,1.07-.42.8-.36s.36,0,.44,0c.27,0,.54,0,.81,0,1.1-.1,2.16-.41,3.26-.55.6-.08,1.17-.28,1.75-.38a10,10,0,0,0,1.8-.33c1.23-.42,2.43-1,3.64-1.48a26.63,26.63,0,0,1,3.29-1.14,20.54,20.54,0,0,1,3-.26,12.38,12.38,0,0,0,3.56-1q.3-.12.6-.27c-.28.14-.56.12-.09.08a3.68,3.68,0,0,0,2.24-.95,2,2,0,0,0,.5-2.54c-1-1.46-2.87-1.64-4.51-1.8a55.53,55.53,0,0,1-5.73-.78,24.41,24.41,0,0,0-5.57-.81l-2.6,0a7.57,7.57,0,0,0-1.34.11,5.59,5.59,0,0,0-.56.12q-.89.13.57.15L27.59,19l0,.17-.66.95c.32-.32-.14.06.27-.15-.68.35.52-.21.72-.31a15.12,15.12,0,0,1,1.88-1,7.89,7.89,0,0,1,4.8-.28c1.68.44,3.32,1,5,1.46.76.18,1.52.07,2.27.19a7.06,7.06,0,0,0,2.79.08c1.82-.38,3.6-1,5.43-1.3a20.3,20.3,0,0,1,2.7-.18,12.68,12.68,0,0,0,1.63-.17s1.21-.24.63-.19a7.58,7.58,0,0,0,1.64-.08A7.18,7.18,0,0,0,58,17.71a20,20,0,0,0,2.31-1.06,11.24,11.24,0,0,0,2-1.26,4.43,4.43,0,0,0,1-2.07l-4.54.74c1,1.82.26,3.89,2.48,5a2.89,2.89,0,0,0,3-.5c1.43-1.3,1.16-3.07,1.07-4.81-.14-2.85-5-2.4-4.94.22,0,1.06.34,2.09.49,3.14s.45,1.88.52,2.77L66,18.64c-2.31-3.52-7.88-2.72-11.35-2.22a46.15,46.15,0,0,0-6.83,1.82c-2.11.65-4.37,1.78-6.6,1.81a2.6,2.6,0,0,0-2.58,2.2c-.07,1.31,1.21,2,2.35,2a20,20,0,0,0,5.89-1.37c2-.65,4-1.31,6.07-1.91a20.78,20.78,0,0,1,5.31-.83c.91,0,2.82,0,3.38.87,1.07,1.63,4.82.9,4.65-1.28-.08-1-.36-2-.51-3s-.46-2-.5-2.88L60.35,14c0,.45.08.9.1,1.34a4.54,4.54,0,0,0,0,.74c.11.4-.27.36.39-.24l3-.5c.47.63.61.71.42.25a4.87,4.87,0,0,1-.12-.52c0-.26-.09-.52-.14-.78a8.68,8.68,0,0,0-.92-2.57c-1-1.74-3.92-.86-4.54.74a9,9,0,0,0-.24.93c0,.14-.17.46,0,.18l.67-.95a13.56,13.56,0,0,1-1.48.87c-.42.21-1.11.22-1.48.55s-.44.27.18.17l-.63-.05c-.86,0-1.68.3-2.54.34a27.85,27.85,0,0,0-2.88.19,52,52,0,0,0-5.5,1.23s-1.22.19-.71.23c-.3,0-.62-.17-.93-.21a12.7,12.7,0,0,1-2.38-.3c-1.7-.54-3.44-1.08-5.18-1.46a12.35,12.35,0,0,0-5.57.26,14,14,0,0,0-2.52.81,10.64,10.64,0,0,0-1.06.55c-.12.08-1.14.63-.74.43.56-.27-.64.25-.79.33a5.27,5.27,0,0,0-1,.59,2.86,2.86,0,0,0-1.13,2.08A1.85,1.85,0,0,0,23.8,21a4.38,4.38,0,0,0,2.56.19c.29-.05.6-.15.9-.18-.52,0,.77,0,.73,0a20.62,20.62,0,0,1,4.78.36,45.16,45.16,0,0,0,5.16,1c.82.09,1.66.09,2.48.17.43,0,.87.16,1.3.16s.41.28.11-.15L42.31,20l-.18.16,1.14-.61s-.83.12-1.13.21-.87.4-1.24.53a7.56,7.56,0,0,1-2.62.45,18.63,18.63,0,0,0-7,1.84c-1,.42-2.09,1-3.13,1.28a21.65,21.65,0,0,1-2.69.51,24.88,24.88,0,0,1-3.07.51,9.31,9.31,0,0,0-3.59.82l1.28-.35-.35,0a2.63,2.63,0,0,0-2.58,2.2,2.09,2.09,0,0,0,2.35,2Z"/></g><g class="cls-3"><path class="cls-4" d="M30.32,19.05h3.42a3.16,3.16,0,0,0,1.57-.28.77.77,0,0,0,.43-.89,1.88,1.88,0,0,0-1-.95,4.37,4.37,0,0,0-1.87-.49H29.47a3.07,3.07,0,0,0-1.58.28.78.78,0,0,0-.42.89,1.89,1.89,0,0,0,1,.95,4.41,4.41,0,0,0,1.87.49Z"/></g><g class="cls-3"><path class="cls-4" d="M61.73,11.91a14.1,14.1,0,0,1,1.21,2.76c.32,1,.3,2,.62,3,.61,2,1.57,3.87,3.81,4.25.56.09,1.34-.15,1.46-.79a11,11,0,0,0,.1-2.62c0-1,0-2-.12-2.94a15.58,15.58,0,0,0-.6-2.79,7.8,7.8,0,0,1-.53-2.47l-4.26-1c.26,1.13.72,2.21,1,3.35a36.61,36.61,0,0,0,.9,3.86l.27.82c.33,1,0-.32.07.26s.18,1,.29,1.42A4.67,4.67,0,0,0,68,22c.79.52,2.2.64,2.58-.41.51-1.43-.15-3.39-.41-4.82-.29-1.6-.45-3.65-1.33-5.06a3.62,3.62,0,0,0-2.24-1.64C66,9.94,65,10,64.88,10.8a9,9,0,0,0,.17,3.58c.25,1.23.3,2.45.61,3.67,0,.14.11,1.11.14,1.13-1.24-.58,1.27-.35.21-.37a3.21,3.21,0,0,0-.53.07,16.71,16.71,0,0,0-3.06.51c-1.14.35-2.26.75-3.41,1.1a16.29,16.29,0,0,1-3.55.93,15,15,0,0,0-3.81.72,12.79,12.79,0,0,1-3.31.48l2.8,3.81a6,6,0,0,1,2.24-.83c.94-.2,1.85-.45,2.76-.72s2-.43,3-.73l3.44-1.07c2-.64.42-2.89-.75-3.58a14.07,14.07,0,0,0-4.5-1.2,9.32,9.32,0,0,0-2.11-.12l-.94,0s-.72,0-.53.08L55.52,22c1.16-.7,2.56-.71,3.81-1.16a24.14,24.14,0,0,0,3.83-1.76l-3.24-3.68a22.76,22.76,0,0,1-3.24,1.52c-.44.18-.89.28-1.33.45l-.59.26c-.28.12,0,.08-.22.09l1.05.12-.16-.06,1.12.63-.1-.08.85,1,0-.1.35,1c-.19.49-.2.6,0,.32a3.33,3.33,0,0,1,.25-.28,5.48,5.48,0,0,1,.44-.4c-.2.16.14-.09.18-.12l.53-.3c.93-.54,2-1.14,2-2.36a3.37,3.37,0,0,0-2.86-2.71,5,5,0,0,0-2.54.66,10.48,10.48,0,0,1-2.38.76c-.9.18-1.81.34-2.72.44-.37,0-.73.07-1.09.14s-1.13.05-.29.26l2.27,3c-.07.27,0,.07.25-.08s.51-.2.77-.3c.76-.28,1.5-.6,2.24-.91,1.36-.58,3-1.48,4.51-1.52L56,13.28a8.4,8.4,0,0,1-1.57.92c-2,1.2,1.49,4.71,3.23,3.67a10.65,10.65,0,0,0,2.24-1.46c.63-.62,0-1.83-.48-2.33a3.38,3.38,0,0,0-2.66-1.2,10.08,10.08,0,0,0-2.66.71c-1,.34-2,.79-3,1.21-1.21.51-3.6,1-4,2.46-.33,1.27,1.14,2.75,2.27,3a5,5,0,0,0,2.5,0c.89-.16,1.81-.21,2.7-.37a21.93,21.93,0,0,0,2.64-.61,11.68,11.68,0,0,0,1.5-.54l.5-.26c.09,0,.55-.18.28-.19l-2.86-2.71c.21-.51.22-.64,0-.38l-.12.08a4.93,4.93,0,0,1-.73.45,8.78,8.78,0,0,0-1.24.85c-1.16,1-1.69,2.1-.69,3.49a3.64,3.64,0,0,0,3.1,1.58A7.31,7.31,0,0,0,58.58,21a25,25,0,0,0,4.58-2c2-1.23-1.49-4.68-3.24-3.68a19.82,19.82,0,0,1-3.74,1.73c-1.31.43-2.68.46-3.89,1.19-1.69,1,.57,3.37,1.75,3.69a14.38,14.38,0,0,0,3.71.13,11.67,11.67,0,0,1,2,.36l.86.16c.08,0,.52.17.35.06l-.75-3.57L56.81,20.2c-1.12.34-2.26.5-3.37.84-1.77.53-4,.63-5.54,1.71-.85.61-.58,1.62,0,2.36a3.33,3.33,0,0,0,2.83,1.45,14.78,14.78,0,0,0,3.85-.65,18.78,18.78,0,0,1,3.63-.57,24,24,0,0,0,3.87-1.1c1.23-.35,2.45-.91,3.7-1.15.93-.18,1.91-.16,2.83-.38,1.27-.3,1.64-1.16,1.57-2.4a9,9,0,0,0-.34-1.78,17.5,17.5,0,0,1-.22-1.79c-.17-1.17-.66-2.39-.42-3.57l-4-.92c-.14-.23.06.23.08.32.08.33.14.67.22,1,.16.69.28,1.39.41,2.08s.23,1.33.34,2a3.3,3.3,0,0,1,.08,1.56l2.57-.42-.07-.05,1,.83.41.65a2.29,2.29,0,0,1-.09-.28s-.11-.41-.07-.23c-.06-.28-.11-.56-.16-.84-.21-1-.63-2-.87-3s-.34-1.9-.56-2.84c-.26-1.09-.69-2.13-.94-3.22-.35-1.57-4.22-3.57-4.25-1,0,1.72.85,3.24,1.08,4.9a20.37,20.37,0,0,1,.15,2.7,11.24,11.24,0,0,1,0,2.32L66,18l-.12,0,1.12.37-.11-.07,1,.83c.31.36.26.46.09,0l-.21-.62c-.23-.7-.24-1.44-.41-2.16a18.27,18.27,0,0,0-2-4.93,3.31,3.31,0,0,0-3-1.71c-1.19.19-1.13,1.42-.65,2.24Z"/></g><g class="cls-3"><path class="cls-4" d="M49.41,17a4.59,4.59,0,0,1-1.14.75c-.38.23-.71.53-1.08.77a24.65,24.65,0,0,1-2.48,1.57c-.61.29,1.46,1,1.57,1a5.61,5.61,0,0,0,3.08.28c.47-.17.87-.47,1.33-.65s1.08-.36,1.61-.55,1.1-.3,1.62-.52a16.73,16.73,0,0,0,1.52-.78,22.81,22.81,0,0,1,3.18-1.25c.48-.16,1-.31,1.42-.49.25-.09.49-.19.74-.27.06,0,.56-.08.4-.08l-4-1.37A7.76,7.76,0,0,1,54,16.53c-.65.15-1.29.39-1.94.54a6,6,0,0,0-1.78.47c-.4.24.41.57.53.63a9.2,9.2,0,0,0,4,.85c.35,0,.7,0,1.05-.05.15,0,.33,0,.08,0l.9,0c.75-.05,1.49-.18,2.24-.26.31,0,.63-.05.94-.06a3.11,3.11,0,0,1,.54,0L60,18.54l-2.34-1c-.21.54-.88.7-1.38.89-.77.3-1.53.61-2.31.85a15.06,15.06,0,0,1-2,.49,3.31,3.31,0,0,0-1.7.49c-.41.37.82.76,1,.82a9.88,9.88,0,0,0,3.92.6c.65-.07,1.26-.32,1.91-.41s1.41-.13,2.11-.25c.35-.06.71-.08,1.06-.15l.43-.1c.81-.19.76.13-1.08-.24l-2.34-1c-.14.39-.58.6-.9.84s-.81.66-1.23,1A9.8,9.8,0,0,0,53.12,23c-.27.36,2.32,1,2.33,1a13.06,13.06,0,0,0,3.18.26c.09,0,.74,0,.79-.21s-.56-.48-.64-.52a8.39,8.39,0,0,0-3.46-.73l-.49,0c-.57,0-.84-.19.84.16l2.34,1a11.13,11.13,0,0,1,2.18-1.79c.42-.33.83-.67,1.26-1a1.85,1.85,0,0,0,.77-.8c.18-.5-2.2-1-2.33-1a8,8,0,0,0-3.15-.17c-.65.13-1.3.23-2,.34s-1.24.11-1.86.2a7.89,7.89,0,0,0-1,.23c-.59.15-1.06,0,.39.22l1.87.45L54,20.68l1,.82c.38-.35,1-.3,1.44-.4.82-.17,1.66-.4,2.46-.65s1.56-.58,2.33-.88a2.14,2.14,0,0,0,1.37-1c.19-.48-2.22-1-2.33-1A17,17,0,0,0,55,17.26c-.66.07-1.33.2-2,.24l-1,0c-1.49.11.89-.12,2.4.65l.52.63a6.54,6.54,0,0,1,1.66-.43c.62-.16,1.22-.37,1.84-.51a8.31,8.31,0,0,0,3.4-1.21c.44-.35-.86-.77-1-.82a10.46,10.46,0,0,0-3-.55,9.23,9.23,0,0,0-3.22.79,32.21,32.21,0,0,0-3.44,1.27c-.59.28-1.14.62-1.73.89a15.27,15.27,0,0,1-1.61.55c-.58.19-1.18.36-1.75.58s-.92.51-1.42.7l4.65,1.27A18.9,18.9,0,0,0,52,19.66,12.46,12.46,0,0,0,54.3,18c.27-.3-2.16-1-2.34-1-.6-.13-2.06-.56-2.55,0Z"/></g><g class="cls-3"><path class="cls-4" d="M47.09,16.07c-.79,1-1.59,2.26-2.77,2.79a21.43,21.43,0,0,1-2.14.48c-.84.27-1.73.41-2.55.71L44,21.6c.92-1.46,3-1.81,4.24-2.9.74-.65,1.46-1.33,2.25-1.93a7.85,7.85,0,0,1,2.26-1.49l-4.06-1.71a13.13,13.13,0,0,0-1.81,1c-.58.33-1.21.56-1.81.84s-1.24.53-1.83.86c-.3.17-.54.39-.82.58s-.63.18-.12.18l2.19,2c1.8,0,2.89-1.23,4.42-2a12,12,0,0,1,2.18-.78c.35-.1.71-.16,1.06-.25l.36-.11c.48-.18.44.09-.63,0L50,15.36l.14.06-.82-.48a11.79,11.79,0,0,1-.81,1.52c-.62,1.05-1.34,2-2,3.1A11.69,11.69,0,0,1,44.79,22c-.41.42-1.19,1.14-.79,1.79a3.16,3.16,0,0,0,1.92,1,4.93,4.93,0,0,0,2.53.07c2-.6,3.4-2.12,5.15-3.16a22.76,22.76,0,0,1,2.24-1c.38-.17.75-.34,1.14-.47-.06,0,.55-.18.35-.1,1-.11.25-.28-2.12-.5-.13-.07-.11,0,0,.1.7.79,2.31,1,3.29,1,.63,0,1.83-.21,1.12-1C58.45,18.31,56,18,54.29,18.18a11.79,11.79,0,0,0-3.37,1.2,15.89,15.89,0,0,0-3.19,1.79,10.89,10.89,0,0,1-3.35,2l4.44,1.09c-.06-.11.1-.31.25-.48s.46-.47.69-.71a14.57,14.57,0,0,0,1.69-2.54c.57-1,1.24-1.88,1.82-2.86a4.86,4.86,0,0,0,.91-1.87c.08-1.38-2.47-1.82-3.37-1.91a8.93,8.93,0,0,0-3.07.45,13.53,13.53,0,0,0-3.17,1.1c-.53.27-1,.58-1.55.9l-.63.41c-.24.16-.67.27-.11.26-.53,0-1.89.25-1.11,1a5.2,5.2,0,0,0,3.3,1,4.22,4.22,0,0,0,2.31-.59,14.19,14.19,0,0,1,1.85-1.08c.7-.32,1.42-.62,2.11-1a19.13,19.13,0,0,1,2-1.08c1-.37-.18-1.15-.65-1.35a5.29,5.29,0,0,0-3.41-.36,9.09,9.09,0,0,0-2.51,1.56c-.85.61-1.61,1.33-2.4,2a5.38,5.38,0,0,1-1,.82c-.45.25-.95.43-1.4.69a5.35,5.35,0,0,0-2,1.56c-.43.69.73,1.12,1.22,1.3a5,5,0,0,0,3.13.25,8.39,8.39,0,0,1,1.2-.29c.51-.12,1-.32,1.48-.46a11.76,11.76,0,0,0,2.2-.53,10,10,0,0,0,3.16-3c.8-1-3.79-2.42-4.64-1.39Z"/></g><g id="zF9zuM.tif"><path d="M8.39,66.06c-.36.1-.42,0-.5-.27A4.52,4.52,0,0,0,7,63.91a.49.49,0,0,1-.16-.41,2.64,2.64,0,0,0-.32-1.43,4.42,4.42,0,0,1-.14-1.45c0-.3.07-.54-.16-.83A2.17,2.17,0,0,1,6,58.91c-.18-.86-.4-1.71-.6-2.57,0,0,0-.07,0-.08.39-.47,0-.94,0-1.38A4,4,0,0,1,5.28,53c.07-.21-.16-.46-.25-.7a2.75,2.75,0,0,1-.4-1.73c0-.06,0-.19,0-.21-.4-.21-.27-.59-.26-.9a2.12,2.12,0,0,0-.16-.78c-.14-.39,0-.8-.22-1.16a.15.15,0,0,1,0-.09c.37-.63-.09-1.19-.15-1.79a.9.9,0,0,1,0-.4c0-.13.1-.27,0-.39-.42-.6-.28-1.33-.44-2a2.61,2.61,0,0,1-.14-1.74.13.13,0,0,0,0-.13c-.6-.63-.27-1.48-.49-2.21-.17-.56-.23-1.16-.38-1.74a2.66,2.66,0,0,1-.17-1,.55.55,0,0,0-.06-.39.58.58,0,0,1,0-.89c.05-.05,0-.2,0-.2-.52,0-.18-.37-.2-.57,0-.47-.17-.92-.24-1.38a8.25,8.25,0,0,1-.26-1.85,14.08,14.08,0,0,0-.19-2.05C1.14,28,1,27.34.87,26.7a16.46,16.46,0,0,1,0-2.11A2.82,2.82,0,0,0,.66,22.9c-.16-.26,0-.59,0-.89s-.21-.82.07-1.22a.21.21,0,0,0,0-.2C.4,20.3.51,20,.55,19.65a1.65,1.65,0,0,0-.13-1,1.37,1.37,0,0,1-.15-.56,1.5,1.5,0,0,0-.24-.8C-.12,17.1.36,15.92.59,16c.74.16,1.46-.18,2.19,0a5.77,5.77,0,0,0,1.9.07,10,10,0,0,1,1.45.08c.69,0,1.35-.22,2-.17,1,.07,1.95-.12,2.91,0a17.64,17.64,0,0,0,3.09-.19c.1,0,.19,0,.23.08s-.06.16-.14.2a2.1,2.1,0,0,1-1.92.16c-.21-.11-.35.28-.64.22-.57-.13-1.17.2-1.75-.07a.22.22,0,0,0-.31.07.6.6,0,0,1-.79.22.92.92,0,0,0-.76,0,.14.14,0,0,1-.09,0,3.78,3.78,0,0,0-1.86,0,8.92,8.92,0,0,1-1.55,0c-.93-.13-1.86.08-2.8,0S.61,16.94.9,17.79a12.69,12.69,0,0,1,.32,2.51,6.41,6.41,0,0,0,.16,1.51.42.42,0,0,1,0,.22c-.27.66.12,1.28.13,1.93s.08,1.51.14,2.26A7.28,7.28,0,0,0,1.72,28a18.67,18.67,0,0,1,.43,3.14c.07.48.37.55,1.07.43a35.24,35.24,0,0,1,4.1-.61h0c.6-.38,1.3-.21,1.94-.37a11.69,11.69,0,0,0,1.43-.29.12.12,0,0,1,.17.14c0,.19,0,.44-.25.53s-.44.32-.69.07c-.06-.05-.12-.16-.18-.09-.36.44-.88.21-1.31.27a4.6,4.6,0,0,0-1.67.37c-.19.1-.41,0-.6-.09s-.34-.13-.43,0c-.44.55-1.14.19-1.63.52a2.75,2.75,0,0,1-1.53.46c-.21,0-.26.27-.23.47.09.72.15,1.46.27,2.16.08.49.1,1,.19,1.45s.22.7.31,1.08c.18.8.23,1.62.35,2.43.08.51.31,1,.38,1.47a1.17,1.17,0,0,1,0,.49.44.44,0,0,0,.21.61.76.76,0,0,0,.83,0,1,1,0,0,1,1.2-.2c.27.13.56,0,.83,0,.8,0,1.6.08,2.41,0a11,11,0,0,1,1.9-.15,3.26,3.26,0,0,0,1-.08c.26-.06.35-.15.36-.48a6.62,6.62,0,0,0-.21-2,1.71,1.71,0,0,1,0-.45c0-.08.06-.22,0-.25-.55-.48-.35-1.21-.51-1.79a6.81,6.81,0,0,1-.31-1.71,2.77,2.77,0,0,0-.4-1.66A1.8,1.8,0,0,1,11,32.7c0-.29-.24-.49-.27-.78,0-.13-.17-.24,0-.34s.17-.51.5-.42.25.27.35.46a14.28,14.28,0,0,1,.54,2.5A11.44,11.44,0,0,1,12.66,37c0,.5.28,1,.34,1.59s.17,1.13.23,1.71a4,4,0,0,0,.44,1.6.24.24,0,0,0,.26.14c.27,0,.56-.14.7.24,0,0,.09.05.11,0,.36-.3.9,0,1.23-.37.06-.06.1,0,.15,0a.67.67,0,0,0,.8-.07,2.26,2.26,0,0,1,1.57-.22,1.16,1.16,0,0,0,.84-.17,1.55,1.55,0,0,1,1.31-.11,3.19,3.19,0,0,0,1.73-.3c.08,0,.21-.19.2-.22-.24-.44.18-.92-.17-1.4a1.66,1.66,0,0,1-.11-1.34c.05-.2.09-.33-.16-.42s-.26-.54-.26-.72c0-.6-.41-1.07-.42-1.66a6.55,6.55,0,0,0-.51-2.33,4.61,4.61,0,0,1-.19-2.19.67.67,0,0,0-.26-.67c-.18-.14-.3-.22-.54-.06a1.08,1.08,0,0,1-.78.14,2.29,2.29,0,0,0-1.27.07.24.24,0,0,1-.29-.05.38.38,0,0,0-.46,0c-.55.41-1.16.09-1.74.19-.13,0-.29,0-.43.05a4.77,4.77,0,0,1-1.76.23,1.31,1.31,0,0,0-.59.14,4,4,0,0,1-1.3,0c-.16,0-.2-.17-.2-.31s.15-.23.28-.22c.61,0,1.17-.44,1.82-.15.13.06.37-.16.57-.21s.66.08,1,0c1-.19,2.09,0,3.11-.22.33-.06.64.16,1,0a7,7,0,0,1,2-.2,10.28,10.28,0,0,1,1.43-.21,11.51,11.51,0,0,1,1.85-.08.59.59,0,0,0,.42-.12,2.32,2.32,0,0,1,1.37-.19c.27,0,.14.25,0,.36-.29.28-.69.1-1,.21s-.81,0-1.19.18a.22.22,0,0,1-.17,0c-.62-.39-1.13.14-1.69.21-.33,0-.35.5-.28.84.15.71.18,1.43.32,2.15A19.81,19.81,0,0,1,22.32,35a12.64,12.64,0,0,0,.42,2c.24.93.32,1.91.49,2.86a6.38,6.38,0,0,0,.22.86c.09.31.38.27.6.28a2.67,2.67,0,0,1,.79.09.68.68,0,0,0,.56,0,3.24,3.24,0,0,1,2-.37c.9,0,1.71-.44,2.61-.29.22,0,.52-.11.81-.11s.19-.12.15-.29a20.59,20.59,0,0,1-.64-3.31,10,10,0,0,1,0-1.1.44.44,0,0,0-.07-.3c0-.05-.11-.1-.1-.14.14-.71-.62-1.33-.2-2.07a.21.21,0,0,0-.08-.31c-.51-.26-.46-.81-.45-1.19a12,12,0,0,0-.27-1.25c0-.53.12-.77.61-.76s.46.36.38.6c-.24.74.23,1.36.29,2a5.72,5.72,0,0,0,.3,1c.08.27-.25.56-.16.69a1.66,1.66,0,0,1,.25.65c.09.49.24,1,.34,1.47,0,.08.09.18,0,.25-.34.36,0,.61.1.93a2.67,2.67,0,0,1,.18,1.58,1,1,0,0,0,1,1.16c.43,0,.79-.33,1.23-.14.09,0,.2,0,.25.19-.67,0-1.05.64-1.71.75-.36.07-.3.56-.23.87a3.59,3.59,0,0,1,.11,1.13c0,.25.13.57.11.75A3,3,0,0,0,32.68,45a.52.52,0,0,1,0,.44.25.25,0,0,0,.08.41.29.29,0,0,1,.13.22,2.65,2.65,0,0,0,.31,1.56.86.86,0,0,1,0,.67c-.11.24.1.37.36.35s.68-.26,1,0c0,0,.12-.06.17-.11s.16-.14.17-.13c.41.39.68-.19,1-.15s.77-.13,1.11-.12a3.25,3.25,0,0,0,1-.25,3.57,3.57,0,0,1,1.12-.15c.86.12,1.58-.51,2.45-.32.4.09.87-.21,1.31-.28s.64.12,1-.09.33-.21.19-.47,0-.86-.22-1.29-.13-1.16-.39-1.61a3.78,3.78,0,0,1-.39-1.43,5.64,5.64,0,0,1-.22-1.75c0-.37-.28-.66-.42-1s-.64-.25-1-.21c0,0,0,0,0,0-.9-.24-1.76.38-2.64.11-.4-.12-.61.16-.9.22a8.43,8.43,0,0,1-1.85.37,1.41,1.41,0,0,0-1,.26.36.36,0,0,1-.35.06c-.13,0-.33,0-.38-.16s.12-.24.24-.33a1,1,0,0,1,1.11-.26.75.75,0,0,0,.53-.08.76.76,0,0,1,.64-.08.15.15,0,0,0,.13,0c.29-.3.67-.24,1-.31a13.65,13.65,0,0,0,1.87-.23c.65-.2,1.31,0,1.92-.23,0,0,.13,0,.18,0s.31.25.44,0-.06-.34-.09-.52-.28-.51,0-.79a.14.14,0,0,0,0-.2c-.22-.16-.23-.42-.33-.63-.27-.51-.19-1.09-.41-1.57a2.72,2.72,0,0,1-.31-1.17.26.26,0,0,0-.13-.22.63.63,0,0,1-.25-.67c0-.08,0-.16,0-.22a3.77,3.77,0,0,1-.3-1.14c-.05-.37-.23-.78-.28-1.2a1.11,1.11,0,0,1,0-.6c.12-.24-.22-.36-.24-.62s-.23-.47-.14-.76a.22.22,0,0,0,0-.08.94.94,0,0,1-.61-.3c-.22-.15-.44-.21-.65,0a.39.39,0,0,1-.33.08c-.93-.07-1.85.22-2.79.13a.34.34,0,0,0-.26.14.55.55,0,0,1-.69.15.78.78,0,0,0-.66.11,4,4,0,0,1-1.82.12,2.06,2.06,0,0,0-.89.18,1.32,1.32,0,0,1-.87.13,4.36,4.36,0,0,0-1.53.08c-.64.05-1.28.13-1.91.22-.23,0-.39-.08-.4-.26s.21-.21.38-.21a3.19,3.19,0,0,0,.91-.05,6.44,6.44,0,0,1,1.48-.28,6.41,6.41,0,0,1,1.45-.12,6.8,6.8,0,0,0,1.8-.19,1.82,1.82,0,0,1,.62,0,2.3,2.3,0,0,0,1.29-.27.44.44,0,0,1,.22-.05,1.82,1.82,0,0,0,1.1-.05c.28-.07.66-.3.9.2.24-.56.75-.27,1.13-.36a3.62,3.62,0,0,0,.47-.13A8.69,8.69,0,0,1,40,26.94,7.16,7.16,0,0,0,42,26.6a.27.27,0,0,1,.3,0c.16.13.3,0,.44-.05s.2-.12.24-.09c.47.3.7-.18,1-.3a1.21,1.21,0,0,1,.25-.08,7.08,7.08,0,0,0,2.5-.4,5,5,0,0,1,.91-.12c.76-.21,1.57.29,2.28-.23a.57.57,0,0,1,.39-.07,14.8,14.8,0,0,0,2.49-.06,1.41,1.41,0,0,0,.91-.22.37.37,0,0,1,.23-.12,10.62,10.62,0,0,0,1.94-.32c.44-.08.82-.38,1.26-.38.94,0,1.77-.67,2.74-.41.62-.38,1.4-.09,2-.51.35-.23.88-.09,1.33-.17.61-.11,1.23-.14,1.84-.25.88-.15,1.78-.14,2.67-.21a8.52,8.52,0,0,1,1.88.15c.36,0,.43-.12.4-.4s-.2-.75,0-1.14c0,0,0-.12,0-.17a3.64,3.64,0,0,1-.49-1.79c0-.38.08-1-.41-1.28a.24.24,0,0,1-.08-.2c.14-.74-.29-1.37-.39-2.05a10.45,10.45,0,0,0-.14-1.36c-.09-.32-.41-.58-.22-1,0-.09-.29-.2-.31-.43s0-.68-.06-1a6.64,6.64,0,0,0-.13-1.4.36.36,0,0,0-.52-.24.91.91,0,0,1-.74,0c-.43-.16-.87,0-1.3-.13-.15-.06-.25.2-.46.21a14.31,14.31,0,0,1-2.45.1,3.65,3.65,0,0,0-1.8,0c-.22.09-.57.18-.71-.22,0-.06-.14-.05-.15,0-.06.47-.35.11-.52.15-.51.11-1,.19-1.52.32a1.57,1.57,0,0,1-.91.07.94.94,0,0,0-.62,0,3.1,3.1,0,0,1-1.25.08c-.11,0-.12-.07-.13-.14s0-.28.15-.3a5.48,5.48,0,0,1,1.71-.11,2.55,2.55,0,0,0,.73,0c.49,0,.92-.4,1.44-.22.12,0,.28-.09.43-.11a2.29,2.29,0,0,1,1,0,.37.37,0,0,0,.38,0,1.37,1.37,0,0,1,1.19-.16c.26,0,.46-.13.73-.07.45.1.93-.08,1.38.15a.18.18,0,0,0,.13,0c.44-.4,1-.15,1.46-.2a11,11,0,0,0,1.39-.27.85.85,0,0,1,.91.18.29.29,0,0,0,.33.09c.36-.14.43,0,.45.36a6.32,6.32,0,0,0,.21,1.67,6.63,6.63,0,0,1,.13,1.29c.08.56.2,1.11.28,1.67a1,1,0,0,1-.14.89c-.1.1-.13.23.09.23s.26.21.24.38a2.17,2.17,0,0,0,.21,1,17.56,17.56,0,0,1,.64,2,2.9,2.9,0,0,0,.39,1.28s0,0,0,0c-.38.81.45,1.4.4,2.16a3.31,3.31,0,0,1,0,.34A5.25,5.25,0,0,0,71.32,25a1.6,1.6,0,0,1,.06.95c-.07.3.13.65.2,1a6.72,6.72,0,0,1,.29,1.54c0,.49.24.86.25,1.28a15.18,15.18,0,0,0,.31,1.66,8.62,8.62,0,0,0,.42,1.79,3.87,3.87,0,0,1,.05.49c.17,1,.35,2,.53,3a5.43,5.43,0,0,0,0,1c.3,1,.46,2.06.86,3,0,0,0,.06,0,.08-.27.53.23.86.33,1.29a1.1,1.1,0,0,1,0,.31,1.78,1.78,0,0,0,.34,1.14,3.18,3.18,0,0,1,.28,1.1,9.27,9.27,0,0,1,.51,2,10.9,10.9,0,0,0,.46,2.3c.26,1,.44,2.08.66,3.12a23,23,0,0,1,.39,2.37c.17,1.57.46,3.13.63,4.7a23.12,23.12,0,0,0,.5,3.09,4.07,4.07,0,0,0,.2.68,1.21,1.21,0,0,1-.3,1.44,1.41,1.41,0,0,0-.49.68c-.13.46-.37.58-.81.41a3,3,0,0,0-1.37,0,27.07,27.07,0,0,1-3,.29c-.33,0-.59.33-.92.29s-.75.11-1.11-.12c-.12-.07-.35.11-.57.08s-.39.12-.57-.08c0,0-.1,0-.12,0-.28.43-.79.35-1.19.48a26.09,26.09,0,0,1-2.63.7c-.41.09-.84-.07-1.27.11-1.22.49-2.52.7-3.78,1.07a1.86,1.86,0,0,1-.53,0,1.51,1.51,0,0,0-1,.29c-.39.25-.84.41-1.23.68-.14.1-.26-.07-.39-.15s-.49-.29-.8,0a1.22,1.22,0,0,1-.79.34,6.77,6.77,0,0,0-2.13.46.9.9,0,0,1-.49,0,.58.58,0,0,0-.48,0,2.13,2.13,0,0,1-1.52.31c-.47-.06-.89.24-1.36.27s-.4.4-.33.71a1.22,1.22,0,0,1-.37,1.05c-.15.17-.36,0-.53-.08s-.2-.14-.15-.31a1.44,1.44,0,0,0-.12-.79c-.06-.19-.23-.36-.45-.25a3.34,3.34,0,0,1-1.46.22A1.64,1.64,0,0,1,45.6,71a.15.15,0,0,0-.2,0c-.49.8-1.34.68-2.08.74a4.83,4.83,0,0,0-1.11.37,7.71,7.71,0,0,0-1.51.44,5,5,0,0,1-1.65.41c-.13,0-.07.14-.09.21-.18.64-.51.76-1.05.4a.83.83,0,0,0-.54-.14,21.65,21.65,0,0,0-2.29.49,5.85,5.85,0,0,0-1.6.51,1.43,1.43,0,0,1-.69.16c-.35,0-.69-.12-.88.31,0,.07-.22.08-.33.08a5.23,5.23,0,0,0-1.89.18l-.08,0c-.29-.41-.71,0-1.07-.18a2.7,2.7,0,0,0-.9,0c-1.24,0-2.48.07-3.72,0a8.1,8.1,0,0,0-2.44.31.6.6,0,0,0-.53.47c-.05.22-.19.42-.49.29-.12,0-.16.06-.22.1s-.34.13-.47-.12c-.25-.48-.38-.49-.86-.25a.8.8,0,0,1-.89-.07c-.12-.09-.22-.14-.36,0a3.08,3.08,0,0,1-1.12.28,11.12,11.12,0,0,0-2.2.5,1.86,1.86,0,0,1-.87.15,3.32,3.32,0,0,0-1.76.57.73.73,0,0,1-1-.5A10.42,10.42,0,0,0,10.18,75a1.55,1.55,0,0,1-.18-1,4.46,4.46,0,0,0-.14-1.31,9.32,9.32,0,0,0-.77-3c-.47-.92-.45-1.95-.95-2.83A.54.54,0,0,1,8.39,66.06Zm8.82-4.41a2.64,2.64,0,0,1,.88-.26,14.15,14.15,0,0,1,2.35-.19c.4-.54,1.19.25,1.56-.45,0,0,.14,0,.21,0,.46-.1,1,.26,1.4-.17h.05c1.13,0,2.19-.5,3.32-.46.12,0,.34,0,.34-.21a2.61,2.61,0,0,0-.07-1,5.73,5.73,0,0,1-.48-2.06,4.65,4.65,0,0,1-.15-.76c0-.34.2-.72,0-1a1.41,1.41,0,0,1-.08-1.49c0-.09.07-.19,0-.26a.69.69,0,0,1-.18-.66,6.48,6.48,0,0,0-.31-2c-.05-.26-.18-.31-.41-.24a2.73,2.73,0,0,1-.9.21c-.44,0-.88-.21-1.24.22,0,0-.14,0-.21,0a.67.67,0,0,0-.52.08c-.44.26-.93.1-1.39.19-.11,0-.18-.09-.21-.2s.07-.19.16-.23.21,0,.31-.07c1.27-.25,2.58-.3,3.85-.59.41-.09.56-.35.31-.69s-.57-1-.89-1.51a5.12,5.12,0,0,1-.68-1.51A.47.47,0,0,0,24,46a.72.72,0,0,1-.35-.84,1.19,1.19,0,0,0-.13-.89A1.3,1.3,0,0,1,23.33,43c.2-.42-.24,0-.29-.21.29-.44-.05-.78-.23-1.13s-.41-.12-.57,0c-.71.38-1.48.09-2.21.24-.47.1-1,.08-1.48.14a2.94,2.94,0,0,0-1,.12,2.64,2.64,0,0,1-1.16.2,9.77,9.77,0,0,0-2,.23c-.47.1-.79.43-.69.84s.12,1.07.26,1.58c.28,1,.38,2.12.69,3.16a12,12,0,0,1,.12,2.88c0,.29,0,.43.38.52.72.19,1.34-.22,2-.26.37,0,.73-.18,1.11-.24S19,51,19.45,51a2.7,2.7,0,0,1,1.61.06,1.74,1.74,0,0,1-1.24.47.67.67,0,0,0-.43,0c-.33.3-.71.22-1.09.24a5.16,5.16,0,0,0-1.86.17c-.52.22-1.08.41-1.6.61C15.68,55.55,16.65,58.53,17.21,61.65Zm9.43-1c-.2.06-.14.31-.32.33-.55,0-1.08.4-1.64.24a4.87,4.87,0,0,0-2.28.21c-1,.17-2,.17-2.94.41a.63.63,0,0,1-.36,0c-.51-.2-.77.25-1.15.41-.55.23-.54.59-.3,1,0,.05,0,.12,0,.17.22.54.15,1.15.38,1.67a2.75,2.75,0,0,1,.34,1.06c0,.74.32,1.42.37,2.15.1,1.42.95,2.61,1.28,4,.13.59.28,1.18.42,1.77s.26.75.83.68,1.17-.11,1.75-.17a6.68,6.68,0,0,0,1.47-.06,6.63,6.63,0,0,1,1.43-.07c.9,0,1.8.1,2.7.07a4.62,4.62,0,0,0,1.57-.08c.54-.2.63-.35.57-.93,0-.4-.38-.64-.4-1,0-.58-.29-1.12-.37-1.72A5.41,5.41,0,0,1,30,69c0-.12.07-.25,0-.35a5.71,5.71,0,0,1-.58-1.45,7.86,7.86,0,0,1-.63-2.08,15.13,15.13,0,0,0-.28-2.67A5.33,5.33,0,0,0,27.69,61a.64.64,0,0,0-.59-.19C26.79,61,26.7,60.89,26.64,60.63Zm14.1,11.54c.15-.07,0-.41.22-.31s.42,0,.58-.22a.53.53,0,0,1,.52-.2.93.93,0,0,0,.81-.16c.34-.25.76-.13,1.11-.27a7,7,0,0,1,1.26-.36c.75-.15,1.52-.23,2.29-.34a.55.55,0,0,0,.54-.64c-.06-.68-.12-1.36-.24-2-.19-1-.6-1.87-.77-2.85s-.32-1.7-.51-2.55c-.09-.4.15-.84.11-1.29,0-.16.1-.34,0-.55a2.69,2.69,0,0,1-.41-1.3c0-.57-.11-.66-.66-.47a3,3,0,0,1-1.68.32c-.92-.2-1.82.19-2.73.06a.62.62,0,0,0-.34.11,1.37,1.37,0,0,1-.77.15c-.31,0-.62-.13-.92,0a10.36,10.36,0,0,1-3.07.53c-.67,0-1.06.48-.84,1.08.29.8.67,1.56.94,2.36a12,12,0,0,0,.42,1.64c0,.07,0,.21-.09.3-.25.38.37.74,0,1.12l0,0c.26.15.2.41.21.64a2.87,2.87,0,0,0,.06,1c.43,1.07.63,2.2,1,3.27a1.57,1.57,0,0,1,.09.48c0,.34.57.85.81.68a1.42,1.42,0,0,1,.76-.18C39.89,72.15,40.33,71.79,40.74,72.17Zm35.62-17c.59-.49-.29-1.16.2-1.69-.48-.51-.13-1.21-.41-1.79a11.72,11.72,0,0,1-.45-1.79c-.1-.34,0-.71-.17-1-.34-.49,0-1.15-.46-1.62-.1-.11.2-.29.05-.45s-.26-.65-.4-1a1.39,1.39,0,0,1-.2-.91c.08-.29-.06-.38-.3-.41a2.15,2.15,0,0,0-.67,0,11.15,11.15,0,0,1-3.26.16s-.11,0-.12,0c-.07.36-.36.17-.49.14-.59-.18-1.22.11-1.8-.18,0,0-.09,0-.13,0-.83.43-1.81.1-2.66.46a1.06,1.06,0,0,1-.53,0,.88.88,0,0,0-.9.88c.14.72.28,1.46.48,2.16.15.53.24,1.08.41,1.61s.33,1.1.47,1.65c.23.93.71,1.76.87,2.71.08.51-.1,1,.26,1.53.18.25.36.5.69.36a.81.81,0,0,1,.37-.07c.62,0,1.23-.31,1.87-.09,0,0,0,0,.07,0,.25-.3.58-.26.91-.23A11,11,0,0,0,73,55.37c.4-.07.78-.35,1.21-.19a1,1,0,0,0,.94-.12A.94.94,0,0,1,76.36,55.16ZM34.49,54.09c-.28.27.13.59-.07.86a.55.55,0,0,0,0,.67,2,2,0,0,1,.19,1.51.37.37,0,0,0,.06.34,1.11,1.11,0,0,1,.19.63,1.22,1.22,0,0,0,.49,1c.3.2.44-.08.65-.11.6-.08,1.21-.14,1.81-.16a19.44,19.44,0,0,0,3.32-.31,12.57,12.57,0,0,0,2.13-.31c.32.33.52.18.9,0A2,2,0,0,1,45.5,58a.39.39,0,0,0,.49-.22c.07-.23.37-.46,0-.72-.09-.07-.06-.18-.07-.29a4.69,4.69,0,0,0-.2-1.16c-.13-.33.16-.77-.28-1,.21-.48-.11-.9-.24-1.3a17.59,17.59,0,0,1-.43-2.68,20.18,20.18,0,0,0-.4-2.43.38.38,0,0,1,.06-.38c.06-.07.14-.13.06-.23s-.18-.07-.29,0a7.21,7.21,0,0,1-1.23.11,5.65,5.65,0,0,0-1.73.29,1.31,1.31,0,0,1-.89,0,.87.87,0,0,0-.81.08,7.24,7.24,0,0,1-1.8.48,5.43,5.43,0,0,1-1.59.24,6.36,6.36,0,0,0-1.94.37c-.54.16-.63.21-.56.76s.29.82.35,1.25c0,.25-.23.45-.13.63.23.41.14.87.32,1.29S34.34,53.76,34.49,54.09Zm36-29.22c.25-.33-.12-.52-.15-.8s-.3-.46-.62-.31c-.12.06-.23.16-.36,0-.29-.22-.62-.15-.94-.2s-.81.11-1.22.06-.91-.3-1.38,0c0,0-.16,0-.24-.07-.26-.12-.56.1-.81-.09-.22.44-.66.34-1,.43-.15,0-.27.07-.25-.16s0-.2-.13-.2-.1.13-.11.21a.21.21,0,0,1-.15.15c-.33.08-.66.18-1,.23-.59.1-1.18.16-1.76.25-.31.05-.48.21-.38.56s.1.55.19.82-.12.47-.17.69.4.28.43.61a22,22,0,0,0,.53,2.54,26.09,26.09,0,0,1,.65,2.78c0,.22,0,.55.1.67.43.44.34,1,.43,1.5,0,.15.1.25.21.21a.61.61,0,0,1,.54.12c.08,0,.21.12.27,0,.15-.31.41-.16.63-.16s.27.08.39.06a19.8,19.8,0,0,0,2.76-.33.25.25,0,0,1,.17,0c.42.21.85-.1,1.29.07a.94.94,0,0,0,.69-.05,1.59,1.59,0,0,1,1.18-.25,2.85,2.85,0,0,0,1.33,0c.43-.13.67-.29.44-.71a2.11,2.11,0,0,1-.21-.76c-.07-.58.14-1.18-.15-1.74a.28.28,0,0,1,0-.25.4.4,0,0,0-.1-.56,1,1,0,0,1-.27-1,1,1,0,0,0-.13-.8,1.91,1.91,0,0,1-.26-1.24c.1-.35-.34-.7,0-1A.33.33,0,0,0,70.9,26C70.37,25.75,70.66,25.23,70.47,24.87ZM43,38.22c.33.43.8.1,1.19.22.23.07.53,0,.78.06s.19.06.24,0c.2-.42.6-.29.84-.18a.71.71,0,0,0,.53,0,22,22,0,0,1,3.24-.39c.46-.09,1,0,1.37-.28a.54.54,0,0,1,.31,0c.42,0,.56-.18.6-.59.08-.76-.45-1.44-.24-2.21,0,0,0,0-.05-.08-.36-.51-.33-1.17-.58-1.72s-.07-.85-.28-1.26a4.41,4.41,0,0,1-.59-2.59.4.4,0,0,0-.1-.28,1.72,1.72,0,0,1-.41-1.33,2.68,2.68,0,0,0-.21-1,.33.33,0,0,0-.38-.25c-.36.05-.71,0-1.07,0-.84.09-1.69.13-2.53.14-.3,0-.45.3-.78.25A1.5,1.5,0,0,0,43.4,27a.73.73,0,0,1-.46.16,10.75,10.75,0,0,0-1.58.23c-.39.13-.6.29-.5.68.23.92.23,1.87.49,2.79a16,16,0,0,0,.38,2c.13.33.16.83.3,1.12.35.75.22,1.6.6,2.32a15.49,15.49,0,0,1,.46,1.51C43.19,38,43.2,38.13,43,38.22ZM10.13,70.16a.62.62,0,0,0,.09.59,3.28,3.28,0,0,1,.64,1.92,21,21,0,0,0,.52,2.48.82.82,0,0,0,.72.63c1.12.26,2.16-.32,3.27-.27a7.81,7.81,0,0,0,1.33-.14,13.14,13.14,0,0,0,2.18-.29c.75-.22.84-.36.53-.94a1.79,1.79,0,0,1-.22-1,1.19,1.19,0,0,0-.32-.9c-.18-.23.09-.43-.05-.63-.25-.38-.27-.85-.53-1.24-.54-.8-.23-1.76-.43-2.63-.12-.53,0-1.11-.38-1.58a.69.69,0,0,1-.05-.13c-.29-.5-.25-1.12-.51-1.61a6.3,6.3,0,0,1-.47-1.57c-.08-.28-.15-.5-.51-.29a.51.51,0,0,1-.48,0,.87.87,0,0,0-.88.06A3.22,3.22,0,0,1,13.5,63a8.08,8.08,0,0,0-1.75.47c-.39.17-.81,0-1.18.16a10.44,10.44,0,0,1-1.84.51c-.25,0-.36.19-.4.46a1.42,1.42,0,0,0,.23.77c.3.64.48,1.33.73,2a2.58,2.58,0,0,1,.25,1,.56.56,0,0,0,.1.29A4,4,0,0,1,10.13,70.16ZM54.47,57.81c.2,0,.41,0,.62,0,.45-.06.68-.34.53-.75a18.77,18.77,0,0,1-.54-1.85c-.22-1-.77-1.9-.37-3,0,0,0-.08,0-.13a3.2,3.2,0,0,1-.28-1.74c.07-.3,0-.64.17-.93a.47.47,0,0,0,0-.35,7,7,0,0,1-.31-2.1c0-.35-.13-.87-.49-1a6.84,6.84,0,0,0-2-.06,12.18,12.18,0,0,0-1.42.21,8.52,8.52,0,0,1-2.42.34,2.42,2.42,0,0,0-1.24.39,1.72,1.72,0,0,1-1,.32.38.38,0,0,0-.35.62,1.93,1.93,0,0,1,.21,1c0,.14-.08.28,0,.43a3.83,3.83,0,0,1,.3,2A4.25,4.25,0,0,0,46,52.63c0,.19,0,.41.05.61a9.18,9.18,0,0,1,.64,2.29,16.21,16.21,0,0,0,.42,1.93.42.42,0,0,0,.51.33,6.43,6.43,0,0,1,1.64,0,9.11,9.11,0,0,1,2.27.16.74.74,0,0,0,.39,0C52.75,57.77,53.62,57.93,54.47,57.81Zm8.64-10.94a1.76,1.76,0,0,0-.18-.95c-.07-.16,0-.45-.2-.47a3.72,3.72,0,0,0-1.66,0,2.15,2.15,0,0,1-1.22.26,14.9,14.9,0,0,0-2.49-.18,4,4,0,0,0-.7-.05,3.77,3.77,0,0,0-1.54.42c-.15.07-.13.18-.09.29s.11.2.1.29a6.39,6.39,0,0,0,.12,2c.1,1,0,2,.22,3.07a12.34,12.34,0,0,0,.15,1.71c.15.45,0,.95.19,1.36s.16,1.12.5,1.59c0,.06,0,.17,0,.26a.9.9,0,0,0,.95,1,2.1,2.1,0,0,0,1.13-.14,1.48,1.48,0,0,1,.6-.16,6.86,6.86,0,0,0,2.06-.31c.51-.2,1.05,0,1.58-.19.69-.2,1.43-.12,2.12-.35.3-.1.82,0,.26-.55,0,0,0-.12,0-.17-.31-.74.08-1.58-.45-2.34a7.37,7.37,0,0,1-.78-2.72,12,12,0,0,0-.43-1.89C63.13,48,63.36,47.36,63.11,46.87ZM59.82,28a.69.69,0,0,0-.13-.41,3.15,3.15,0,0,1-.29-.65c-.28-.67-.25-1.4-.49-2.07-.15-.41-.36-.37-.64-.28a1.82,1.82,0,0,1-.77.19.75.75,0,0,0-.57.16,1.43,1.43,0,0,1-.88.27,5.25,5.25,0,0,0-2.14.4c-.08.05-.15.12-.25.08a2,2,0,0,0-1.55.26c-.12.05-.21.09-.32,0a.69.69,0,0,0-.61-.06c-.75.16-.89.37-.61,1.08a31.72,31.72,0,0,1,.94,3.47c.05.2-.06.44,0,.57.39.45.32,1,.49,1.54.31,1,.36,2,.62,2.95.05.19-.13.35,0,.56a1.83,1.83,0,0,1,.32,1c0,.21.13.28.29.23.57-.19,1.17-.24,1.74-.39.4-.1.8-.24,1.18-.35s.62-.16.94-.23.74,0,1-.23.89-.16,1.24-.46c.08-.07.19,0,.29.07a.45.45,0,0,0,.58,0,3.05,3.05,0,0,1,1.21-.53c.25-.06.27-.18.14-.34-.57-.7-.44-1.64-.83-2.4a.4.4,0,0,1,0-.22,1.72,1.72,0,0,0-.27-1.08.64.64,0,0,1-.12-.64.48.48,0,0,0-.08-.43C59.9,29.4,59.48,28.77,59.82,28ZM56.05,59.57a1.9,1.9,0,0,0-.08-.71.6.6,0,0,0-.61-.49c-.89,0-1.77.09-2.66.1-.46,0-.9.24-1.39.09-.3-.09-.65,0-.93-.19a.15.15,0,0,0-.21,0c-.39.35-.79.2-1.19,0-.17-.09-.32-.16-.48,0a.4.4,0,0,1-.3.07.87.87,0,0,0-.92,1.08,3.89,3.89,0,0,1,.12,1.11,11.55,11.55,0,0,0,.29,2.56,13.61,13.61,0,0,0,.75,3.1,3.31,3.31,0,0,1,.23.8c0,.84.32,1.63.34,2.47,0,.23.48.48.69.39a7.51,7.51,0,0,1,2.85-.53c.29,0,.69.07.93-.28.08-.13.27-.1.42-.06a.41.41,0,0,0,.4-.1c.72-.54,1.65-.3,2.43-.65,0,0,.05,0,.08,0,.31.13.44-.07.48-.3a1.47,1.47,0,0,0,0-.83,10.66,10.66,0,0,1-.24-1.5,12.44,12.44,0,0,0-.39-1.87,7.12,7.12,0,0,1-.45-3A11.77,11.77,0,0,0,56.05,59.57Zm7.26-24.13c-.61-.17-.72.24-.84.44a1.14,1.14,0,0,0,0,.83,9,9,0,0,1,.27,2.63,4.2,4.2,0,0,0,.14,1.27,11.94,11.94,0,0,1,.38,3.16c0,.27,0,.69.31.73a2.27,2.27,0,0,0,1,0,11.06,11.06,0,0,1,2.54-.33c1.69-.19,3.4-.27,5.1-.38a5,5,0,0,0,1.64-.32c.36-.14.39-.3.13-.52a.8.8,0,0,1-.25-.64c0-.39.17-.8-.07-1.18a2.35,2.35,0,0,1-.42-1.27,1.13,1.13,0,0,0-.15-.67,4.89,4.89,0,0,1-.5-2,2.58,2.58,0,0,1-.07-1c.1-.43-.17-.75-.3-1.1a.32.32,0,0,0-.43-.15,12.27,12.27,0,0,1-2.55.44c-1.13.19-2.25-.13-3.38,0-.32,0-.72.2-.94.11C64.35,35.2,63.73,35.69,63.31,35.44ZM60.25,57.73c-1.1-.06-2,.51-3,.6a.29.29,0,0,0-.26.32c0,.57,0,1.16,0,1.71a6.85,6.85,0,0,0,.29,2.23,14.93,14.93,0,0,1,.41,1.53,9.07,9.07,0,0,1,.43,3.24.79.79,0,0,0,.33.7c.25.19.24-.18.39-.23a2.67,2.67,0,0,1,.34-.11c.39,0,.75-.3,1.17-.18.29-.49.85-.22,1.25-.42s1.05-.25,1.54-.47,1.25-.15,1.8-.49c0,0,.12,0,.18,0a3.53,3.53,0,0,0,1.9-.49c.16-.09.35-.15.28-.39-.18-.62,0-1.28-.19-1.9-.09-.35-.06-.74-.37-1a.62.62,0,0,1-.21-.53c0-.61-.29-1.16-.25-1.79a2.56,2.56,0,0,0-.2-1.3,7,7,0,0,1-.49-1.24c-.18-.52-.44-.61-1-.52-.69.12-1.39.23-2.08.28a5.8,5.8,0,0,0-1.17.17C61,57.53,60.64,57.85,60.25,57.73Zm16.65-.5c-.05-.33-.09-.65-.13-1,0-.09-.07-.22-.14-.2-.44.12-.85-.13-1.27-.09-.69.06-1.37.11-2,.23a11.54,11.54,0,0,0-2,.12,1.28,1.28,0,0,1-.6.16,7,7,0,0,0-2.46-.08,8.91,8.91,0,0,0-1.78.44c-.18.08-.31.32-.22.37.33.17.25.56.42.73a1.89,1.89,0,0,1,.47,1.25c.14.7.2,1.4.38,2.09a11,11,0,0,1,.67,3.45c0,.45.28.73.58.58.57-.27,1.18-.11,1.75-.27.24-.07.5-.09.74-.14.47-.08,1,.11,1.4-.09a1.31,1.31,0,0,1,.51-.15,8.45,8.45,0,0,0,1.59-.12c.3-.06.63-.26.87-.19.66.17,1.22-.25,1.84-.18.09,0,.12-.07.13-.15,0-.5-.26-1,.07-1.49,0,0,0-.08,0-.12a6.51,6.51,0,0,1-.45-2.55,2,2,0,0,0-.11-1.11C76.83,58.25,77,57.72,76.9,57.23ZM16.27,61.71a3,3,0,0,1-.22-2.15A.2.2,0,0,0,16,59.4c-.67-.54,0-1.54-.72-2.07A1.68,1.68,0,0,0,14.9,56a.34.34,0,0,1-.05-.26.57.57,0,0,0-.16-.57c-.46-.45-.38-1.06-.46-1.58a8.59,8.59,0,0,0-.39-1.08c0-.14-.21-.14-.35-.1-.5.16-1.08-.1-1.52.34a.15.15,0,0,1-.13,0c-.35-.24-.65.07-1,.1s-.3.26-.52.23A5.79,5.79,0,0,0,9,53.31c-.76.09-1.48.44-2.25.51-.52,0-.63.22-.57.74a2.26,2.26,0,0,1,0,.45c0,.56,0,1.14.07,1.69A15.44,15.44,0,0,0,7,59.14a14.64,14.64,0,0,1,.53,3.6c0,.08,0,.13.11.14.27,0,.28.24.26.42-.07.43,0,.63.53.59a.5.5,0,0,0,.46-.25,1.19,1.19,0,0,1,.78-.49A10.9,10.9,0,0,0,11,62.88c.88-.33,1.85-.33,2.76-.62S15.42,61.89,16.27,61.71ZM5.61,43.08a1.21,1.21,0,0,0-.37,0c-.33.05-.78,0-.87.37a1.81,1.81,0,0,0-.09,1,4.7,4.7,0,0,1,.39,1.75,14.92,14.92,0,0,0,.48,3.25,10.86,10.86,0,0,0,.59,2.29.61.61,0,0,1,0,.3,1.1,1.1,0,0,0,.52,1.1c.13.06.23.2.41.14.55-.2,1.15-.23,1.69-.48A1.37,1.37,0,0,1,9,52.7a2.92,2.92,0,0,0,1-.12A12.46,12.46,0,0,1,12.51,52c.24-.06.44.15.61,0a1.31,1.31,0,0,0,.72-1.14A2,2,0,0,1,14,50a.81.81,0,0,0-.09-.67,1.41,1.41,0,0,1-.14-1.13c0-.1,0-.1-.07-.1-.31,0-.22-.2-.13-.33s.07-.26,0-.41a9.07,9.07,0,0,1-.65-3.41,1,1,0,0,0-.34-.83A2.09,2.09,0,0,0,11,42.89a15.62,15.62,0,0,1-2.35.19C8.1,43.11,7.55,43,7,43S6.07,43,5.61,43.08ZM30,60.63c-.32-.11-.64,0-1,.06s-.38.13-.21.38c.38.55.28,1.26.67,1.8,0,0,0,.09,0,.13a16.57,16.57,0,0,1,.35,2.09,4.09,4.09,0,0,0,.25,1.17,7.62,7.62,0,0,1,.63,1.79c.14.75.28,1.51.35,2.26.11,1.12.64,2.13.72,3.24,0,.42.33.5.71.28a2.39,2.39,0,0,1,.58-.22,15.31,15.31,0,0,0,1.62-.4c.19-.08.48-.24.67,0s.3.1.39-.07.29-.37.51-.26.59-.13.78-.26a.72.72,0,0,0,.12-.78,1.84,1.84,0,0,1-.31-1.42.25.25,0,0,0-.05-.21c-.6-.42-.44-1.14-.68-1.71-.06-.15-.27-.33-.16-.48s.07-.39-.08-.55-.13-.17-.08-.24a1,1,0,0,0-.08-1.32s0-.12,0-.17c-.12-.34.14-.76,0-1-.28-.46-.08-1-.47-1.46s-.32-1.4-.85-2c-.1-.11,0-.26,0-.39a.7.7,0,0,0-.63-.9,5.1,5.1,0,0,0-1.78.23A12.93,12.93,0,0,1,30,60.63Zm31.9-15.91c.41,0,.77,0,.73-.35a12.87,12.87,0,0,0-.13-1.43,21.34,21.34,0,0,0-.37-2.24.73.73,0,0,1,.07-.77c.1-.1,0-.19-.07-.25s-.13-.23-.15-.37a4.38,4.38,0,0,0-.13-1.39.48.48,0,0,1,.06-.51.24.24,0,0,0,0-.2c-.36-.3-.24-.71-.25-1.08s-.11-.35-.3-.25-.82-.19-1.07.3c0,.07-.17.06-.25,0s-.29,0-.43.08a.59.59,0,0,1-.41.16,4,4,0,0,0-1.93.53.5.5,0,0,1-.47,0,1.4,1.4,0,0,0-1.36.16,7.23,7.23,0,0,1-1.88.65c-.37.1-.47.22-.3.58a2.78,2.78,0,0,1,.28,1.49,1.93,1.93,0,0,0,.18,1.1,14.74,14.74,0,0,1,.59,2.51c.14.42.28.84.45,1.25A.35.35,0,0,0,55,45a12.07,12.07,0,0,0,1.47,0c.87,0,1.73,0,2.6-.06a6.59,6.59,0,0,0,2.46-.19A.54.54,0,0,1,61.86,44.72Zm-8.56.44a.28.28,0,0,1,.13,0A.45.45,0,0,0,54,45c.12-.18-.08-.28-.19-.4s-.09-.24-.12-.37c-.17-.94-.36-1.87-.53-2.81A.67.67,0,0,0,53,41a.86.86,0,0,1-.19-.76c0-.08.06-.21,0-.25-.38-.4-.32-.92-.4-1.41s-.66-.68-.87-.44a.85.85,0,0,1-.73.24,4.77,4.77,0,0,0-1.42.09c-.55.17-1.12.18-1.67.31a13.21,13.21,0,0,1-1.58.11c-.85.09-1.7,0-2.55.12-.39.08-.37.21-.25.46a2.22,2.22,0,0,1,.35,1.64s0,.08,0,.12a7.35,7.35,0,0,1,.53,1.9,7.07,7.07,0,0,0,.44,1.62,2.57,2.57,0,0,1,.24,1c0,.54.27.69.81.69.28,0,.43-.29.7-.2.51.17.92-.24,1.44-.21s1.26-.58,2-.29c.09,0,.19-.05.29-.09a3,3,0,0,1,1.06-.36A14.52,14.52,0,0,1,53.3,45.16Zm-22,14.58c.15,0,.33,0,.44,0a5,5,0,0,1,1.79-.35c.41,0,.54-.22.53-.55A7.47,7.47,0,0,0,34,57.28a12.1,12.1,0,0,1-.05-1.38c-.1-.74-.18-1.48-.3-2.21a3.09,3.09,0,0,1-.08-1.35,1,1,0,0,0,0-.51A9.61,9.61,0,0,1,32.92,50c0-.17.16-.45-.16-.53a1.87,1.87,0,0,0-.65-.12c-.79.08-1.52.44-2.32.52a6.87,6.87,0,0,1-2.51.29.11.11,0,0,0-.08,0,1.68,1.68,0,0,0-.26,1.2.59.59,0,0,1,.11.67c-.11.17,0,.29,0,.44,0,.52.36,1,0,1.57a.19.19,0,0,0,0,.21,1.2,1.2,0,0,1,.22,1.07c-.18.75.41,1.37.28,2.1,0,0,.06.1.11.14A1.19,1.19,0,0,1,28,58.67c0,.43.29.72.41,1.09,0,.1.19.11.32.11a2.82,2.82,0,0,0,.58,0c.38-.09.77.15,1.15,0A1.23,1.23,0,0,1,31.31,59.74Zm-2.22-19c-.7.42-1.3.92-2.13.49a.28.28,0,0,0-.22,0,3.84,3.84,0,0,1-1.11.22c-.17,0-.14.27-.35.18a1.73,1.73,0,0,0-1.45.22c-.12.07-.32.24-.22.34.42.4,0,1,.37,1.43s.24,1.14.47,1.67c.17.37-.43,1,.35,1.12,0,0,0,.08,0,.13.13.4.21.83.67,1,.1,0,.23.13.15.23-.2.29,0,.39.2.48a1.2,1.2,0,0,1,.56.86c.1.45.54.59,1,.51a6.72,6.72,0,0,1,1.84-.1.67.67,0,0,0,.62-.14,1.06,1.06,0,0,1,.7-.25c.52,0,1-.23,1.49-.24.17,0,.44,0,.38-.26s0-.71-.09-1.06c-.31-.89-.26-1.86-.58-2.76a11.13,11.13,0,0,1-.36-2,9.59,9.59,0,0,0-.14-1.29c0-.14.08-.33-.15-.41s-.34-.34-.5-.25-.62,0-.92.17S29.11,41.12,29.09,40.71Z"/><path d="M61.79,1.24c.41-.12.75.21,1.15.29a.4.4,0,0,1,.27.22c.1.47.52.79.57,1.29a4,4,0,0,0,.31,1.15,4.39,4.39,0,0,1,.23,2.19,6.61,6.61,0,0,1-.25,1.53,2.78,2.78,0,0,1-1.21,1.36c-.22.15-.69,0-1-.09a6.72,6.72,0,0,1-1.22-.48c-.19-.09-.44,0-.66-.06s-.49-.22-.36-.56c0-.07.1-.18.13-.17.52.16,1.08-.24,1.61.21.3.25.81.2,1.19.4a.17.17,0,0,0,.22-.09,3.09,3.09,0,0,0,.58-2.17,4.34,4.34,0,0,1,0-1,2.87,2.87,0,0,0-.23-1c0-.1-.08-.2-.21-.2a.23.23,0,0,0-.25.21c0,.25-.16.33-.35.4a.51.51,0,0,0-.24.13c-.34.39-.69.71-1.23.29,0,0-.14,0-.21,0a1.35,1.35,0,0,1-1.71-.86A.62.62,0,0,1,59,3.68s.07-.07.08-.11c.13-1.15,1.26-1.43,1.87-2.16C61.11,1.16,61.46,1.24,61.79,1.24Zm.05,1a.79.79,0,0,0-.7.11,3.31,3.31,0,0,0-1,1.17c-.13.24-.29.63.12.82a1.35,1.35,0,0,0,1.89-.88,1.27,1.27,0,0,1,.3-.68c.24-.23.19-.43-.13-.52A3.54,3.54,0,0,0,61.84,2.2Z"/><path d="M16.34,82.33a3.83,3.83,0,0,1-.28,1.35.87.87,0,0,0,.15.84.39.39,0,0,0,.68-.06A3.46,3.46,0,0,1,18,83a.22.22,0,0,0,.1-.19c0-.19,0-.29.26-.31s.44,0,.6.17.08.15,0,.19c-.34.16-.37.59-.58.76-.49.39-.43.93-.61,1.4s-.14.59.44.82c.36.14.38.51.41.82s-.16.34-.41.36a.32.32,0,0,1-.36-.18,4.05,4.05,0,0,0-.21-.35c-.42-.52-.57-.55-1-.11a5.61,5.61,0,0,1-1.18.78.9.9,0,0,1-1,0c-.23-.19-.21-.51,0-.82a3.4,3.4,0,0,0,.35-1.6c0-.45-.23-.69-.77-.85s-.74-.54-.59-1.14.57-1,.72-1.63c.09-.35.47-.52.7-.79s.37-.06.54,0a1.72,1.72,0,0,1,.89,1.26C16.29,81.82,16.32,82.08,16.34,82.33Zm-1,.23h0v-.63a.48.48,0,0,0-.36-.41c-.2-.07-.15.19-.22.31s-.14.44-.28.65a.86.86,0,0,0,.22,1c.3.22.55.13.62-.23A3.6,3.6,0,0,0,15.35,82.56Z"/><path d="M31.52,6.15a2.9,2.9,0,0,0,.39,1.4c.33.57.22,1.31.69,1.81.21.22.17.46.22.69s-.06.17-.15.21c-.27.13-1.07-.22-1.13-.53-.1-.49-.4-.89-.49-1.39-.05-.27-.26-.24-.39-.05-.26.38-.7.58-1,.93s-.5.15-.74,0-.24-.14-.35,0c-.34.45-.58.06-.79-.12a1.92,1.92,0,0,1-.54-1.81,2.36,2.36,0,0,1,.59-1,3.36,3.36,0,0,1,1.49-1,.47.47,0,0,0,.23-.76c-.07-.11-.16-.2-.14-.33a4.2,4.2,0,0,0-.52-1.72c-.08-.25-.08-.47.17-.56s.4.06.57.24c.67.73.58,1.77,1,2.59a.79.79,0,0,1,0,.31c0,.3.23.57.43.54C31.6,5.54,31.54,5.81,31.52,6.15ZM28.9,8.48a3.17,3.17,0,0,0,1.58-1.1s0-.1,0-.13c-.14-.23-.09-.54-.25-.75s-.22-.64-.47-.57a2.24,2.24,0,0,0-1,.4,2.09,2.09,0,0,0-.54,1.21A.75.75,0,0,0,28.9,8.48Z"/><path d="M13.82,9.85a1.31,1.31,0,0,1-.13.94c-.18.31-.5.32-.74.48a.17.17,0,0,1-.13-.08A6.91,6.91,0,0,1,12,8.81c0-.29-.32-.47-.39-.78A6.52,6.52,0,0,1,11.38,7c0-.29-.35-.47-.49-.75a2,2,0,0,1-.32-1.14.62.62,0,0,0-.06-.3c-.07-.12-.23-.27,0-.38a.45.45,0,0,1,.55,0s.1.09.11.14c.06.66.54,1.15.69,1.77s.59,1.29.81,2c.17.5.53.45.86,0A3.41,3.41,0,0,1,15.12,7.1a.86.86,0,0,1,.17,0,3.31,3.31,0,0,1,1.61,1c.18.28.52.43.67.75.26.56.54,1.12.8,1.68.06.12.1.26.22.33a.31.31,0,0,1,.09.52.64.64,0,0,1-.74.23.52.52,0,0,1-.33-.35,16,16,0,0,0-.67-1.66,2.9,2.9,0,0,0-.55-.84c-.05-.06-.13-.1-.15-.17-.3-.7-.87-.49-1.4-.42-.22,0-.29.25-.41.39C13.9,9.13,13.83,9.28,13.82,9.85Z"/><path d="M68.66,78.3a3,3,0,0,1-1.56-.45c-.28-.12-.41-.48-.52-.78a2.45,2.45,0,0,0-.48-1c-.13-.12-.09-.28.07-.37.55-.31.72-.87,1-1.37a2.3,2.3,0,0,1,1-.9c.42-.22.86-.58,1.4-.43.37.1.75.14,1.12.23s.33.54.27.79a2.79,2.79,0,0,1-2.09,1.9c-.33.12-.58.45-1,.51-.1,0-.12.18-.07.28s.16.25,0,.4,0,.14.09.16a6.44,6.44,0,0,0,1.24.47c.29,0,.63.12.8-.27,0-.1.18-.18.26-.13.36.22.54-.05.76-.24s.21-.17.31-.06,0,.22-.12.28A3.5,3.5,0,0,1,68.66,78.3ZM67.94,75a.35.35,0,0,0,.15.39c.15.12.25,0,.35-.08s.34-.37.55-.42c.39-.1.49-.45.72-.68a.22.22,0,0,0,0-.32.25.25,0,0,0-.33,0c-.2.15-.48.18-.66.3S68,74.49,67.94,75Z"/><path d="M77.33,72.32c-.29.34-.59.17-.84.05a.38.38,0,0,0-.48,0,1,1,0,0,1-.39.22c-.71.16-.92.74-1.11,1.33a.41.41,0,0,0,.48.57,2.2,2.2,0,0,1,1.11,0,1.94,1.94,0,0,0,.93-.09,1.16,1.16,0,0,1,1.52.58.41.41,0,0,1,0,.34A2.65,2.65,0,0,1,76.36,77a.35.35,0,0,0-.25.06c-.51.41-1.09.19-1.64.15-.3,0-.36-.33-.35-.57s.26-.16.42-.2a4.84,4.84,0,0,1,1.74,0,1.06,1.06,0,0,0,.78-.36,2.2,2.2,0,0,0,.45-.6c.1-.2.1-.39-.19-.49A1.76,1.76,0,0,0,76.1,75a2.16,2.16,0,0,1-1,.17.49.49,0,0,0-.34.07.47.47,0,0,1-.3.08A1.5,1.5,0,0,1,73.3,74a2.21,2.21,0,0,1,.89-1.77,4,4,0,0,1,2.64-1.12c.11,0,.25,0,.33.08s.27.41.06.6S76.89,72.21,77.33,72.32Z"/><path d="M41.1,6.82c-.58.31-.82.91-1.63,1s-1.08-.6-1.59-1c-.15.33-.31.65-.46,1-.06.14-.1.29-.3.28s-.18,0-.13.12c.28.5-.26.39-.41.51A.45.45,0,0,1,36,8.57,6,6,0,0,1,35,7.23c-.3-.66-.68-1.31-1-1.95a2.24,2.24,0,0,1-.32-.86.33.33,0,0,1,.17-.4.31.31,0,0,1,.47.06,5.19,5.19,0,0,1,.88,1.39c.05.11.05.23.15.31a3.6,3.6,0,0,1,1,1.47.28.28,0,0,0,.36.17c.17,0,.17-.14.19-.32a4.09,4.09,0,0,1,.32-1,1,1,0,0,0,0-.89,2.56,2.56,0,0,1-.18-1c0-.37.32-.43.57-.52s.3.14.35.3c.22.61.36,1.25.62,1.86A2.38,2.38,0,0,0,39.62,7a.94.94,0,0,0,.72-.09A1.08,1.08,0,0,1,41.1,6.82Z"/><path d="M61.94,74.78a2.15,2.15,0,0,1,1.51,1c.26.49.5,1,.73,1.47.09.18.31.1.42.29.22.37-.14.69,0,1,0,.05-.07.09-.13.06-.3-.16-.7-.21-.82-.57a10.13,10.13,0,0,0-.83-1.29,3.74,3.74,0,0,0-.36-.45.67.67,0,0,0-1.1-.08c-.17.21-.44.23-.6.45a6.82,6.82,0,0,0-1,2.39c-.1.39-.78.81-1.14.65s-.18-.42-.25-.63c-.23-.73-.38-1.49-.62-2.21-.09-.27,0-.57-.22-.82s.05-.15.12-.19.29-.1.4,0a3.91,3.91,0,0,1,.82,1.37c0,.19.09.41.36.35s.29-.26.22-.49.15-.62.34-.87a3.1,3.1,0,0,1,.93-.85A11,11,0,0,1,61.94,74.78Z"/><path d="M39.87,79a.49.49,0,0,1,.5.31,11,11,0,0,0,.9,1.53c.24.3.51,1,1.2.62.23-.12.33.11.45.27s0,.31-.13.42a1.14,1.14,0,0,1-1.55,0c-.2-.19-.47-.09-.69-.26s-.35-.63-.71-.61-.23.52-.55.65c-.14.06-.2.25-.22.42-.06.5-.48.64-.86.72a.91.91,0,0,1-1-.43,4.94,4.94,0,0,1-.61-1.72,5.09,5.09,0,0,0-.31-.83c-.11-.25-.22-.45,0-.71a.39.39,0,0,1,.47-.15.79.79,0,0,1,.58.56c.19.6.35,1.2.56,1.79.13.4.3.4.64.14a2.18,2.18,0,0,0,.71-2C39.2,79.24,39.41,79,39.87,79Z"/><path d="M56.8,6.5c-.55.16-.52-.34-.6-.56-.19-.54-.66-.86-.88-1.36a1.83,1.83,0,0,0-.53-.86c-.52-.42-.95-.35-1.16.28a5.86,5.86,0,0,0-.13,1.67c0,.29.09.6-.25.78a.67.67,0,0,1-1-.31c-.22-.4-.6-.74-.56-1.26,0-.17-.17-.2-.24-.3A3.76,3.76,0,0,1,51,2.93a.47.47,0,0,1,.16-.4c.11-.11.32-.12.3.06s.16.42.36.54.21.39.35.56.2.43.45.39.22-.3.28-.46a1.57,1.57,0,0,1,1.42-1.1,1.17,1.17,0,0,1,1.29.59c.34.59.73,1.14,1.1,1.71.14.22.17.5.48.65.16.07.21.54.17.8S57,6.5,56.8,6.5Z"/><path d="M49.25,77.24a2.72,2.72,0,0,1-1.07.39c-.33.05-.59.46-.88.71a.2.2,0,0,0,0,.17,3.81,3.81,0,0,1,.53,1.38.81.81,0,0,0,.69.63.9.9,0,0,0,.83-.45c.06-.1.1-.28.28-.22a.3.3,0,0,1,.23.3s0,.12,0,.12c-.5.22-.49,1-1.17,1-.3,0-.69.29-.87-.22,0-.06-.16-.08-.24-.11a1.24,1.24,0,0,1-.77-1,.94.94,0,0,0-.22-.7.66.66,0,0,1-.11-.24c-.08-.21.14-.6-.27-.59a2,2,0,0,0-.72.07c-.38.15-.76.5-1.23.12-.18-.15-.21-.25,0-.38s.44-.39.79-.3a1.6,1.6,0,0,0,.49,0c.42,0,.56-.34.46-.75A2.09,2.09,0,0,0,45.08,76a.54.54,0,0,1-.2-.71c.13-.24.33-.31.67-.25a1.48,1.48,0,0,1,1.13,1.09c.4,1.27.82,1.13,1.93,1.1C48.81,77.22,49,77.12,49.25,77.24Z"/><path d="M24.52,6.77A1.62,1.62,0,0,1,23.79,8c-.34.3-1,.28-1,1a1.77,1.77,0,0,0,1,1.52.24.24,0,0,0,.25,0c.35-.25.86-.1,1.18-.47.06-.06.17,0,.22.12a.15.15,0,0,1,0,.23c-.18.11-.35.3-.53.32s-.51,0-.62.34c-.06.19-.29.06-.44,0s-.17-.16-.28-.09-.28.32-.52.13c-.39-.31-.85-.5-1.1-1a18,18,0,0,0-.81-2.27.42.42,0,0,1,.15-.59c.26-.1.3-.27.38-.48a2.07,2.07,0,0,1,.91-1.14c.37-.22.77,0,1.08.22a2.59,2.59,0,0,1,.71.58A.68.68,0,0,1,24.52,6.77Zm-1.94.42c0,.29.09.45.29.45a.89.89,0,0,0,.68-.74.45.45,0,0,0-.4-.46C22.93,6.38,22.61,6.84,22.58,7.19Z"/><path d="M32.09,85a3.46,3.46,0,0,1-1.15-.33.6.6,0,0,1-.29-.32c-.14-.47-.45-.86-.62-1.31a.79.79,0,0,1-.08-.6,1.14,1.14,0,0,0,0-.75A1.81,1.81,0,0,1,30.53,80c.13-.17.3-.31.42-.14.23.33.52.22.8.21a1.43,1.43,0,0,1,1.25.46,1.56,1.56,0,0,1,.38.7,7.65,7.65,0,0,1,.34.88,1.7,1.7,0,0,1-.15.78,3.3,3.3,0,0,1-.84,1.9A.82.82,0,0,1,32.09,85Zm-.66-3.67c-.17.07-.43.12-.43.48s.12.77.14,1.13a1.44,1.44,0,0,0,1,1.31c.19.09.39.19.48-.2a4,4,0,0,1,.31-1,1.5,1.5,0,0,0-.44-2c-.38-.32-.47-.3-.64.17C31.76,81.3,31.77,81.5,31.43,81.36Z"/><path d="M43.35,4.26c.1.29,0,.8.23,1a10.36,10.36,0,0,0,1,.95A.28.28,0,0,0,45.05,6c0-.14.09-.28.11-.43s.2-.26.36-.24a.3.3,0,0,1,.3.33,1.12,1.12,0,0,1-.25.83c-.24.22-.16.63-.51.79-.69.3-1.14.14-1.62-.58a10.73,10.73,0,0,1-1.27-2.83,24.53,24.53,0,0,0-1.3-3c-.11-.25-.18-.55.11-.73s.55.06.72.27a3.24,3.24,0,0,1,.49.8c.2.43.32.91.55,1.33a11.46,11.46,0,0,0,.54,1.3A.46.46,0,0,1,43.35,4.26Z"/><path d="M6.59,11.3c.11-.39-.24-.65-.27-1A3.55,3.55,0,0,1,7.94,7.33a.37.37,0,0,0,.2-.19.44.44,0,0,1,.74-.08c.13.13.28.28.23.46s-.26.12-.39.12-.27.14-.38.22A2.79,2.79,0,0,0,7.24,10c0,.44.28.74.55,1,.11.12.32,0,.46,0a5.14,5.14,0,0,1,1.1-.61c.14,0,.1-.2.11-.32a.94.94,0,0,1,.62-.92c.16-.07.35-.12.44,0s-.1.24-.22.28-.31.17-.15.38a.2.2,0,0,1,0,.29c-.55.4-.72,1.12-1.31,1.49-.18.12-.33.25-.56.2s-.24,0-.3.06c-.24.38-.54.21-.75,0S6.47,11.83,6.59,11.3Z"/><path d="M27.2,81.31c-.35-.21-.47.07-.64.33a3,3,0,0,1-.46.48c-.17.19-.41.39-.26.66s.17.69.33,1a.68.68,0,0,1-.49.85c-.12,0-.15,0-.2-.08a4.64,4.64,0,0,1-.83-1.41A6.71,6.71,0,0,0,24,82a2.39,2.39,0,0,1-.13-.28.53.53,0,0,1,.08-.59c.16-.17.37,0,.55,0a.42.42,0,0,1,.22.14c.33.52.61.16.9,0a4.35,4.35,0,0,1,1.78-.55,3.17,3.17,0,0,1,1.19,0c.06,0,.16,0,.19.06s-.05.17-.14.19A9.05,9.05,0,0,1,27.2,81.31Z"/><path d="M2.88,7.18a.53.53,0,0,1-.42.45c-.17,0-.33.12-.5.18a.58.58,0,0,0-.44.46c-.05.25.18.39.35.47a10.45,10.45,0,0,1,1.43.9,1.57,1.57,0,0,1,.81,1.13.79.79,0,0,1-.39.8,18.2,18.2,0,0,1-2,.89c-.31.09-.63.08-.69-.25s.18-.43.55-.47a2.87,2.87,0,0,0,1.76-1c.15-.17.1-.35-.14-.4a1.45,1.45,0,0,1-.81-.56,1.83,1.83,0,0,0-.87-.34C1.12,9.32,1,9,.66,8.73s.08-.42-.05-.67S.84,7.71,1,7.6A2.63,2.63,0,0,1,2.88,7.18Z"/><path d="M33.72,12.4c.18.12.37-.06.58-.09a14.93,14.93,0,0,1,3-.46c.33,0,.68.18,1-.15.16-.18.58-.09.64-.06.5.27.82-.26,1.25-.25.17,0,.33-.09.51,0a.2.2,0,0,0,.21,0c.41-.37.91-.08,1.36-.18.1,0,.28,0,.26.17a.17.17,0,0,1-.26.14c-.23-.17-.43,0-.64,0-.7.18-1.44.08-2.14.25a1.17,1.17,0,0,0-.27.05,3.29,3.29,0,0,1-2.31.21.31.31,0,0,0-.13,0,8.17,8.17,0,0,1-2.63.59,2.56,2.56,0,0,0-1.22.32.18.18,0,0,1-.12,0c-.94-.21-1.78.44-2.71.31a2.18,2.18,0,0,0-.61.11c-.09,0-.2,0-.21-.12s.11-.07.16-.09A3.59,3.59,0,0,1,30.53,13c.91-.1,1.77-.46,2.69-.48C33.39,12.51,33.48,12.29,33.72,12.4Z"/><path d="M49.67,6.37c-.17.29-.49.33-.74.46s-.3.07-.28-.18-.1-.14-.18-.17a1.13,1.13,0,0,1-.72-.78c-.25-.6-.76-1-1-1.63-.07-.17-.29-.29-.19-.51s.23-.58.35-.51.58.18.81.48c.51.69.68,1.59,1.36,2.17.18.16.44.24.52.51A1,1,0,0,0,49.67,6.37Z"/><path d="M45.19,11.09c.07-.26.26-.32.48-.34A7.53,7.53,0,0,1,47,10.54c.54.06,1.13-.29,1.63.13.11.09.22,0,.33,0a2,2,0,0,1,.91-.2c.84,0,1.68.07,2.51,0,.53,0,1.06-.14,1.6-.12.14,0,.28,0,.35.11a.37.37,0,0,1-.08.42c-.12.12-.31.2-.43.06s-.43-.16-.66,0-.69,0-1,0-.86,0-1.29,0c-.09,0-.2.05-.26,0-.46-.28-.89,0-1.32.06a3,3,0,0,1-.85,0,4.17,4.17,0,0,0-.8.08A7.14,7.14,0,0,1,45.19,11.09Z"/><path d="M53.65,80.38c-.3,0-.41-.15-.62-.35-.64-.63-.41-1.55-.88-2.2a1,1,0,0,1-.1-.48c0-.21-.13-.5.14-.6s.46.07.65.22a.74.74,0,0,1,.31.53A7.31,7.31,0,0,0,53.53,79a.72.72,0,0,0,.37.49.56.56,0,0,1,.24.52C54.16,80.41,54,80.43,53.65,80.38Z"/><path d="M24.19,14a1.25,1.25,0,0,0,1-.12A.74.74,0,0,1,26,14a.12.12,0,0,1,0,.19.81.81,0,0,1-.74.22,1.87,1.87,0,0,0-1.55.16c-.34.22-.67-.07-1,0,0,0-.08-.06-.08-.09s0-.11.1-.13Z"/><path d="M21.65,14.65a.25.25,0,0,1-.25.22c-.73,0-1.41.47-2.17.29a.4.4,0,0,0-.5.18c-.1.19-.29.18-.76.06C18.43,14.92,20.1,14.57,21.65,14.65Z"/><path d="M15.06,15.58c.31.08.56-.16.85-.19a3.94,3.94,0,0,0,1.48-.18c.15-.07.26,0,.31.19a.26.26,0,0,1-.21.34,2.14,2.14,0,0,1-.62,0,3.35,3.35,0,0,0-1.66.17l0,0a.43.43,0,0,1-.49-.13.14.14,0,0,1,0-.2C14.75,15.48,14.91,15.58,15.06,15.58Z"/><path d="M43.28,11.44c-.05,0-.07,0-.08,0-.17,0-.45.14-.49-.11s.31-.14.37-.21c.42-.39,1-.11,1.4-.31.27-.13.31.15.34.33s-.15.19-.27.17C44.1,11.24,43.69,11.59,43.28,11.44Z"/><path d="M53.38,74.19c.22.22.74-.06.84.39,0,.1-.45.46-.6.42s-.7,0-.68-.5C52.94,74.26,53.1,74.17,53.38,74.19Z"/><path d="M27.58,13.55c.28,0,.49,0,.64-.17s.31-.07.46-.11.21,0,.22.12a.24.24,0,0,1-.15.25,5.16,5.16,0,0,1-1.51.33c-.13,0-.3,0-.33-.14s.12-.2.26-.24A1.3,1.3,0,0,1,27.58,13.55Z"/><path d="M48.32,1c.09.25,0,.4-.31.42S47.39,1,47.42.77s.36-.25.57-.28S48.3.51,48.32,1Z"/><path d="M29.32,80.44c.12,0,.32,0,.32.15s-.19.15-.32.15-.32,0-.32-.16S29.19,80.45,29.32,80.44Z"/><path d="M22.37,14.26c-.08.3-.06.62-.5.41A.91.91,0,0,1,22.37,14.26Z"/></g></g></g></svg>