<svg xmlns="http://www.w3.org/2000/svg" viewBox="0 0 60.26 53.95"><defs><style>.cls-1{opacity:0.4;}.cls-2{fill:#7770b4;}.cls-3{opacity:0.9;}.cls-4{fill:#fffbf3;}.cls-5{opacity:0.7;}</style></defs><g id="Layer_2" data-name="Layer 2"><g id="Layer_1-2" data-name="Layer 1"><g class="cls-1"><path class="cls-2" d="M11.84,11.43c-.66.16-1.13.72-1.8.94a2.23,2.23,0,0,0-1.5,1.12c-.33.57-.48,1.21-.79,1.77-.45.82-.91,1.6-1.33,2.44A12.07,12.07,0,0,0,4.86,22a13.78,13.78,0,0,0,0,2.8A12.5,12.5,0,0,0,5.6,27c.19.57,4.25,2.65,4.44,2.3A12,12,0,0,0,10.87,26a6.84,6.84,0,0,1,1.72-3.33,14.19,14.19,0,0,1,2.85-2.39c.64-.42,2.12-.87,2.4-1.65s-.59-2.05-.57-3,.19-1.58-.56-2.25a14.22,14.22,0,0,0-3-1.93c-.76-.4-2.13-1.3-3.05-1l.05.1c1.26,2.58,1.95,5.66,4.43,7.36a16.38,16.38,0,0,0,4.78,2.35,3.56,3.56,0,0,0,.78.14c.41,0,.65-.1.12-.2.76.14,1.49.67,2.27.83.13,0,.15,0,.07-.12a18.28,18.28,0,0,0-2.45-3.62,13.86,13.86,0,0,0-4-2.8,9,9,0,0,0-1.79-.81c-.06,0-.74-.23-.5,0,1.55,1.49,3,3.22,4.64,4.6a15.23,15.23,0,0,0,5.62,2.87,23.29,23.29,0,0,0,5.6.22h3.15a13.53,13.53,0,0,1,3,0l-4.07-2.27c-.3.75-.42,1.56-.78,2.28A8.05,8.05,0,0,1,30.41,23a5.87,5.87,0,0,0-1.2,1.87,7.58,7.58,0,0,0-.08,2.47c0,.49,1.73,1.2,2.1,1.39a19.08,19.08,0,0,0,2.34.91c0-1.14,0-2.29,0-3.43a9.52,9.52,0,0,0,0-2.61c-.26-.79-1.13-1.16-1.8-1.53A7.39,7.39,0,0,0,29,20.78c-.62,0-1.18.55-1.67.88a7.84,7.84,0,0,0-1.87,2c-1,1.37-2.05,2.9-3.82,3.33-.46.11-.91,0-1.34.1q3.2,2.2,2.12,1.09c-.13-.13-.24-.27-.36-.4a17.82,17.82,0,0,0-1.69-1.89,15.06,15.06,0,0,0-5.41-3c-1.36-.41-2.51.55-3.56,1.36a7.76,7.76,0,0,0-2.91,4c-.13.53,4.28,2.58,4.44,2.3.79-1.4,1.29-2.94,2-4.37.31-.61.67-1.19,1-1.79a3.39,3.39,0,0,1,1-1.5l-4.44-2.3c-.41,2.19-1.37,4.21-1.41,6.44,0,.66,4.34,2.51,4.44,2.3.56-1.2,1.26-2.33,1.7-3.58a12.66,12.66,0,0,1,1.29-3l-4.44-2.3a6.11,6.11,0,0,1-.77,2.14,18.7,18.7,0,0,0-.67,2.29A16.89,16.89,0,0,1,12,27a6.33,6.33,0,0,0-.8,2c0,.54,4.1,2.64,4.44,2.3,1.34-1.33,1.88-3,2.66-4.68.33-.72.8-1.37,1.09-2.1a4.88,4.88,0,0,1,.85-1.78l-4.44-2.3a17.87,17.87,0,0,1-1.33,4.06,16.63,16.63,0,0,0-.57,2,4.89,4.89,0,0,0-.37,2c.14.59,4.22,2.65,4.44,2.3a33.05,33.05,0,0,0,1.71-3.42c.55-1.14,1.38-2.08,2-3.19.18-.34-4.24-2.67-4.44-2.31a26.87,26.87,0,0,0-1.72,3.79,15.56,15.56,0,0,1-.57,1.62,5.54,5.54,0,0,0-.76,1.91c-.05.54,4,2.62,4.44,2.3,1.25-.93,1.77-2.35,2.41-3.72.73-1.57,1.82-2.93,2.56-4.5.14-.3-4.1-2.7-4.44-2.3-1.19,1.42-1.38,3.29-1.87,5-.32,1.11-1.22,2.63-.66,3.76.23.46,4.08,2.6,4.39,2.2,1.07-1.39,1.54-3.1,2.34-4.64.41-.78.87-1.53,1.22-2.34a3.59,3.59,0,0,1,1.08-1.8l-3.45-1.52.19.11L21.41,21c.22.38-.35.88-.52,1.18a13.33,13.33,0,0,0-.78,2.17c-.56,1.7-1.24,3.38-1.88,5.06-.14.36,4,2.63,4.44,2.3a12,12,0,0,0,2.47-2.94,19,19,0,0,1,2.11-3.24l-4.44-2.3c-.21,1.36-1.25,2.63-1.81,3.88-.43.95-1.35,2.11-1.18,3.21.09.58,4.06,2.67,4.44,2.3a19.6,19.6,0,0,0,2.52-3.14,5.57,5.57,0,0,1,2.1-2.35l-4.44-2.3c0,2.33-2.14,4.58-1.6,6.9.11.5,1.43,1,1.8,1.23a7.23,7.23,0,0,0,2.52,1.09c.87.05,1.17-1,1.45-1.66a7.14,7.14,0,0,1,2.3-2.7l-4.44-2.3c-.35,1.91-1.64,3.84-2.55,5.54-.13.24,4,2.73,4.44,2.3A27.48,27.48,0,0,0,30.93,32a8.65,8.65,0,0,1,1.92-2.58l-4.44-2.3c.37,1.11-.47,2.32-.89,3.31a11.8,11.8,0,0,0-1.37,3.9c0,.56,4.17,2.64,4.44,2.3a19,19,0,0,0,1.74-3.27c.27-.52,1.25-2.87,2-2.74L30,28.34a18.14,18.14,0,0,1-1.1,2.52,23.71,23.71,0,0,0-.79,2.77c-.13.43,4,2.59,4.44,2.3a14.25,14.25,0,0,0,2.6-2.66L30.76,31a4.71,4.71,0,0,1-.72,2.1c-.31.52-.86,1-.88,1.62,0,.41,1.56,1.1,1.8,1.23A7.05,7.05,0,0,0,33.48,37c1.63.08,2.27-2.72,3.39-3.56l-4.44-2.3a9.87,9.87,0,0,1-.72,2.17,5.13,5.13,0,0,1-.88,2l4.43,2.31a7.46,7.46,0,0,1,1.87-3.47l-4.44-2.3c-.41.8-.75,1.63-1.11,2.46-.15.36,4.19,2.67,4.44,2.3.62-.93.74-2,1.51-2.88l-4.43-2.3c0,.57-.77,3.68-1.49,3.67l4.33,2.32a9.44,9.44,0,0,1,.37-2.53,6.9,6.9,0,0,1,.6-2.38l-4.44-2.3a5.52,5.52,0,0,0,0,1.15c.07.47,1.48,1.06,1.8,1.23a6.41,6.41,0,0,0,2.52,1.09c.93,0,1.44-.69,2.17-1.16s1.9-.58,2.75-1.12A13.53,13.53,0,0,0,44.28,29c.41-.46.68-1,1.08-1.46a7.21,7.21,0,0,0,1-1.07c.15-.26-3.87-2.55-4.44-2.3-1.69.76-2.88,2.2-4.2,3.45a22.51,22.51,0,0,0-4,4.67,10.34,10.34,0,0,0-1.55,4c-.2,1.48-.18,2,1.13,2.82.26.16,3.25,1.89,3.44,1.52A10.91,10.91,0,0,0,38,37c.1-.67.2-1.9.95-2.17l-4.4-2.2c1,1.2,0,3.23.34,4.66.12.58,4,2.68,4.44,2.3C40.51,38.44,40.4,36.52,41,35l-4.43-2.3c.7,1.68.33,3.57.23,5.33,0,.46,1.76,1.22,2.1,1.39a12,12,0,0,0,2.34.92,30.64,30.64,0,0,0,.67-6.24c0-.5-1.71-1.18-2.09-1.38a17.85,17.85,0,0,0-2.35-.92c0,1.82.56,3.55.69,5.35,0,.51,1.7,1.19,2.09,1.39a22.46,22.46,0,0,0,2.34.91c0-1.89.06-3.78,0-5.68l-4.39-2.19a12.79,12.79,0,0,1,.74,3,30.29,30.29,0,0,0,.62,3c.19.6,1.59,1.13,2.1,1.39.34.18,1.95,1.22,2.34.92s.42-1.07.94-1.43l-4.4-2.19a3.42,3.42,0,0,1,.39.73c.29.6,1.81,1.16,2.35,1.43s1.6,1,2.05.76a28,28,0,0,0,2.87-2.13c.47-.32.87-.74,1.34-1.06a8.45,8.45,0,0,0,1.29-.85c.14-.14-1.93-1.3-2.1-1.39-.38-.19-1.9-1.2-2.34-.91-.9.59-1.12,1.66-1.88,2.39l4.44,2.3c.33-1.49,2.24-2.13,2.32-3.73l-4.44-2.3c0,.75-.17,1.95-.91,2.34l4.44,2.3a5.45,5.45,0,0,1,2-3l-4.44-2.3A16,16,0,0,1,49.4,36c.07,1.41-.08,3.53-1.59,4.16a8.08,8.08,0,0,1-2.25.29c-1,.11-1.88.26-2.85.28a6.49,6.49,0,0,1-3-.58c-.41-.17-.83-.35-1.26-.49s-1.89-.74-.29.06l2.45,1.41a16.14,16.14,0,0,0-2.75-1.85c-.47-.24-2.47-1.55-2.89-.74-.06.12.6.52.56.5a26.2,26.2,0,0,0,7,3.48c1.72.55,4.09.93,5.4-.65.27-.33.57-.69.39-1.1s-1-.81-1.4-1c-1.06-.62-2.5-1.61-3.78-1.5-1.58.13-2.64,1.58-4.09,2l4.44,2.3c-.32-.71.23-1.35,0-2.05s-1.26-1.21-1.86-1.55c-1.54-.87-3.25-1.81-5.08-1.55-1.22.17-2.18,1.15-1,2.15a13.35,13.35,0,0,0,3.19,1.74,4,4,0,0,0,1.09.39c.3,0,.6-.14.89,0l-3.84-2a18.81,18.81,0,0,0,4.62,2.71,6.22,6.22,0,0,0,.84.25l.23.05c.38.1.38.07,0-.11s-.36-.23.32.13l.6.28c.41.19.83.37,1.26.52a3.3,3.3,0,0,0,3.47-.53c1-.82,2.41-1.66,3-2.83.14-.27-4.12-2.73-4.44-2.3-.51.68-1.17,1.23-1.71,1.88a8,8,0,0,1-1.21,1.45l4.39,2.19c-.88-.93,2.82-3.83,3-4.87.12-.51-3.92-2.54-4.43-2.3a5.61,5.61,0,0,0-1.88,1.68,8,8,0,0,1-1.76,1.57,5.81,5.81,0,0,1-2.49,1.31,7,7,0,0,1-2.85,0L40.66,42c-1.39-.81-2.74-1.59-4.2-2.26l3,1.66c-.51-.37-.79-1-1.22-1.5a14.07,14.07,0,0,0-1.4-1.27c-1.11-.91-2.3-1.71-3.32-2.73-2-2-4.33-4.13-7.23-4.48A63.12,63.12,0,0,1,18,29.34c-3.19-.84-6.33-1.82-9.46-2.83a.48.48,0,0,0-.37,0c.87,3.47,5.14,5.83,8.26,6.78a22.86,22.86,0,0,0,2.74.53c1.11.21,2.19.57,3.31.76a27.9,27.9,0,0,1,3,.4,11.14,11.14,0,0,0,2.93.73c.3,0-1.33-1.06-1.4-1.09a21.5,21.5,0,0,0-2.93-1.44,6.5,6.5,0,0,0-1.17-.4c.07-.07,2.56,1.38,1,.43a32.66,32.66,0,0,0-5.36-2.59A35.09,35.09,0,0,0,14,29.11a14,14,0,0,0-5-.72c-.13,0-.15,0-.07.12a12,12,0,0,0,4.19,2.56,15.88,15.88,0,0,0,3.69,1.12c1.4.26,2.82.51,4.23.7a16.73,16.73,0,0,0,2.55.18c.84,0,1.61-.36,2.43-.37.35,0-1.27-1-1.39-1.09-.74-.41-1.93-1.26-2.82-1.25-2,0-4,0-6,0l4.32,2.33c.45-.41,1.5-.31,2.07-.33s1.17,0,1.76,0L19.71,30h0c-.35,0,1.28,1,1.4,1.1a7.61,7.61,0,0,0,2.82,1.25c1,0,2.64.53,3.61,0,.47-.24.27-.32.09-.85-.09-.25-.18-.49-.28-.74-.2-.52-.42-1-.65-1.55a19.59,19.59,0,0,0-4.59-6.46,35.28,35.28,0,0,0-5.3-4.31c-1.1-.66-2.65-1.71-4-1.83-.94-.09-.61,1.22-1.05,1.86l4.44,2.3a13,13,0,0,0-.87-2.76c-.31-.62-1.79-1.16-2.35-1.44-.18-.08-2.05-.82-2-.76a10.08,10.08,0,0,0,.75,3.35c.69,1.47,2.69,2.25,4.07,2.83,0,0,1.17.53,1.21.37a5.37,5.37,0,0,0,0-2.92c-.16-.58-1.61-1.13-2.1-1.38a15.35,15.35,0,0,0-2.34-.92A16.48,16.48,0,0,0,14,23.75c.21.61,1.56,1.12,2.09,1.39.35.18,1.95,1.22,2.34.92,1.42-1.08.4-3.77.07-5.17-.13-.57-1.62-1.14-2.09-1.39A12.89,12.89,0,0,0,14,18.59a6,6,0,0,0,.7,2.79c.36,1.06.71,2.11,1.16,3.14.27.63,1.53,1.09,2.1,1.39.39.2,1.88,1.2,2.34.91a1.85,1.85,0,0,0,.78-1.38c.15-.73.18-1.09,1-.91s2.6.33,1.91-1.07A7.36,7.36,0,0,0,21.6,20.8a19.79,19.79,0,0,0-2.75-1.51c-.44-.21-.89-.41-1.34-.59-.21-.08-1.18-.53-.32-.1l1.49,1.32c1.16.5,2.28,1.11,3.44,1.64.58.27,1.16.53,1.76.75.22.08,1.37.47.67.17l-2.67-1.43c-.34-.22-1-.12-1.37-.21l1.1.38-.24-.1,3,1.66c-.16-.11.83-.64.91-.68a2.2,2.2,0,0,1,1.49-.19l-2.56-1.19.3.17L23,19.81a2.15,2.15,0,0,1-.36.48c-.1.12,3.79,2.48,4.44,2.3a7.34,7.34,0,0,1,1.61-.35l-4.33-2.32c-.48.74-1.3,1.08-1.81,1.78-.24.32,3.88,2.22,4.32,2.32,1.12.25,2.23-.11,3.35.15l-4.33-2.33a5.16,5.16,0,0,1-1,.1c-.65.15,2.46,1.69,1.37.64-.48-.46-1-.87-1.46-1.35a52.37,52.37,0,0,0-3.74-3.71L19,16.89c-1-.5.45.34.62.45.38.25.75.49,1.14.72a22.29,22.29,0,0,0,3.62,1.82,4,4,0,0,0,1.21.34c-1.6-.87-2-1.08-1.21-.64l.88.46A8.46,8.46,0,0,0,28,21.1c.3,0-1.27-1-1.4-1.09a8.29,8.29,0,0,0-2.82-1.25c-2.16-.24-4.3-.54-6.46-.8a14.73,14.73,0,0,1-2.88-.68l-.8-.24q2.85,1.68,1.71.83c-.34-.38-.69-.59-.84-1.1L10.66,15c2.67,1.73,5.42,4.09,8.57,4.85a.46.46,0,0,0,.36,0c-.16-.64-.65-.87-1.11-1.3-.65-.59-1.2-1.26-1.9-1.79a15.22,15.22,0,0,0-2.72-1.54c-.23-.1-1.59-.54-1.43-.38,2.26,2.3,5.64,3.76,8.53,5.07,1.57.71,3.17,1.37,4.78,2a7,7,0,0,0,1.91.5,9.25,9.25,0,0,1,2.17,0l-2-.88.19.1L26,20.38c.73.65-1.13,2-1.35,2.68s3.8,2.35,4.33,2.32c1-.05,1.19-.79,1.75-1.47A5.72,5.72,0,0,1,33,22.18L28.58,20c.33.66-.19,1.67-.4,2.3-.29.85-.47,1.74-.71,2.61-.41,1.48-1.25,3.66-.5,5.16.31.61,1.8,1.16,2.35,1.43s1.47.92,2.05.77,1.05-.56,1.68-.52L32,31.35l.27.12-3-1.66c.49.42.63,1.11,1.18,1.54a14.55,14.55,0,0,0,3.43,1.85,1.82,1.82,0,0,0,1.66.14c.6-.3,1-.93,1.66-1.07l-4.28-2.22a1.25,1.25,0,0,1-.09,1.34c-.19.36,4.26,2.64,4.44,2.3a1.45,1.45,0,0,0,0-1.54c-.26-.52-1.58-1-2-1.29s-1.63-1.05-2.23-.93c-.87.16-1.61,1.35-2.47,1.22l1.64.64-.21-.1,2.45,1.4c-.42-.35-.56-1-1-1.36a10.34,10.34,0,0,0-2.66-1.58,5.11,5.11,0,0,0-2.21-.78,8.21,8.21,0,0,0-1.59.59l4.39,2.19a5.27,5.27,0,0,1,0-2.76c.17-1,.55-2,.81-3.06s1.36-3.12.8-4.25c-.3-.61-1.8-1.16-2.35-1.43s-1.52-1-2-.77a5.77,5.77,0,0,0-2.07,1.52C25.94,22,25.66,23,24.75,23l4.33,2.32c.27-.8,1.6-1.49,1.53-2.39,0-.57-.8-.92-1.22-1.17A14.45,14.45,0,0,0,26,20.17a8.74,8.74,0,0,0-2.34-.11,8,8,0,0,1-2.7-.85,11.93,11.93,0,0,1-4.17-2.27L12.62,15a17.24,17.24,0,0,1,1.51,1.45c.34.33.9.61,1,1.09l.37,0q3.3,1.83,1.94,1l-.52-.32-.9-.59c-.69-.47-1.37-1-2.07-1.41A19.72,19.72,0,0,0,11.58,15c-.1-.05-1.49-.52-1.48-.49.33,1.1,1.48,1.81,2.4,2.41A22.06,22.06,0,0,0,18,19.45,54.15,54.15,0,0,0,28,21.1l-4.22-2.34c1.68.86,2.18,1.1,1.51.73l-.73-.39c-.45-.23-.92-.46-1.39-.66-.78-.35-1.59-.44-2.39-.72l2,.88c.33.17-.36-.27-.44-.32-.31-.21-.63-.42-1-.62-.71-.45-1.45-.86-2.2-1.25a5.69,5.69,0,0,0-2-.87c-.31,0-.54-.11-.13.24,2.07,1.77,3.68,4,5.92,5.58a22.62,22.62,0,0,0,4.51,2.45,3.9,3.9,0,0,0,2.81.34S28.6,23,28.53,22.92A10.83,10.83,0,0,0,26,21.82c-1.12-.26-2.23.1-3.35-.14L27,24c.52-.7,1.34-1,1.82-1.78.19-.29-3.81-2.35-4.33-2.32a8.3,8.3,0,0,0-1.83.39l4.44,2.3a2.35,2.35,0,0,0,.36-.47c.11-.19-1.47-1.05-1.52-1.08-2.07-1.15-4-2.24-6.08-.61l0,.1c.8,1.07,2.47,1.7,3.64,2.21a3.77,3.77,0,0,0,2.58.41l0-.1c-1.08-1.29-3.22-2.13-4.78-2.63a50.3,50.3,0,0,1-4.63-2.07c-.19-.08-1.4-.72-1.06-.18s1.92,1.19,2.55,1.5a17.71,17.71,0,0,0,2.33,1c-2.64-.88-2.72-1.73-1.79-.69a8.8,8.8,0,0,1,.65.83c.47.69.7,1.48-.45,1.58a17.49,17.49,0,0,1-1.83-.31l-.11,0c-.39.84-.2,1.89-1.07,2.43l4.44,2.3a26.84,26.84,0,0,1-1.16-3.14c-.28-1-.82-1.74-.7-2.79L14,18.59c.34,1.4,1.36,4.08-.06,5.16l4.43,2.31A16.73,16.73,0,0,1,17,19.5l-4.44-2.3a5.37,5.37,0,0,1,0,2.92l1.21.36-.17-.07,2.67,1.43c.43.3-.1-.29-.21-.55a6.27,6.27,0,0,1-.36-1.19,15.77,15.77,0,0,1-.29-1.93L11,16a12,12,0,0,1,.78,2.56c.15.57,4.19,2.67,4.44,2.3a2.78,2.78,0,0,0,.36-1c0-.19.07-.39.11-.58s.05-.29.25-.25c-.08.81-3.89-2.29-2.3-1,.27.22.52.45.77.69a44.54,44.54,0,0,1,4.22,4,21.4,21.4,0,0,1,3,5.1q.3.72.57,1.47c.2.57.52.76-.34.89A18.35,18.35,0,0,1,19.7,30l4.22,2.35h0c.34,0-1.28-1-1.4-1.1A7.68,7.68,0,0,0,19.71,30c-.66,0-1.34,0-2,0s-1.6,0-2.05.37A20.46,20.46,0,0,0,20,32.73c2,0,4,0,6,0l-4.21-2.34c-1.06,0-2,.4-3.11.35a27.79,27.79,0,0,1-3.76-.47c-.78-.14-1.57-.25-2.34-.39-.41-.08-.82-.21-1.23-.27-1.47-.24,2.47,1.22,2,1.18.23,0,.55-.1.83-.09a25,25,0,0,1,7.1,1.79c.28.1.55.24.84.32.81.22-1.41-.87-.69-.36a16.89,16.89,0,0,0,1.75,1q1,.54,2,1c.6.26,2.52,1.22.39,0l-1.39-1.09c-1.41,0-2.65-.85-4.05-1a31.66,31.66,0,0,1-4.42-.76c-.68-.16-1.37-.24-2.06-.37s-2-.77.21.4,1.16.64.67.16a6.86,6.86,0,0,1-2-3l-.36,0c3.28,1.06,6.58,2.09,9.92,3,1.57.41,3.12.84,4.68,1.3.72.22,1.45.43,2.18.59a11.32,11.32,0,0,1,1.59.2l-2.71-1.36a13,13,0,0,1,1.25,1.4,18,18,0,0,0,1.45,1.31A28.32,28.32,0,0,1,34,38a16.55,16.55,0,0,0,1.09,1.41,9.56,9.56,0,0,0,1.93,1.23c.47.25,1,.49,1.43.71l.53.23c1,.43.34.07-2-1.07a12.67,12.67,0,0,0,1.72,1.07c2.15,1.21,5,2.2,7.41,1.18a9.61,9.61,0,0,0,2.83-2,8.68,8.68,0,0,1,2.39-2.29l-4.43-2.3c-.26,1.19-4.09,3.88-3,5.08a8.41,8.41,0,0,0,2.35,1.43c.32.17,1.69,1,2,.77A8.32,8.32,0,0,0,49.58,42c.54-.67,1.2-1.2,1.71-1.89l-4.44-2.3a6.46,6.46,0,0,1-2,1.91A10.14,10.14,0,0,1,43,41.15a2.33,2.33,0,0,1-.86.22c-.57-.07-.52,0,.15.31A9,9,0,0,0,40.8,41a9.94,9.94,0,0,0-1.53-.55c-.28-.07-1.45-.45-.43,0l2.67,1.44a27.33,27.33,0,0,0-3.36-2.08,5.71,5.71,0,0,0-1.49-.56,6.82,6.82,0,0,0-1,0l1.09.39-.19-.09,3.18,1.84c-.61-.68-.12-1.31.59-1.59,1.52-.63,3.34.89-.09-1.08l-1.46-1c.74.7-.07,1.59.29,2.42.27.62,1.52,1.09,2.1,1.39s1.69,1.1,2.34.91a9.1,9.1,0,0,0,1.84-1.05c.54-.32,1.67-1.12,2.35-.93l-2-.88.13.07L44,38.58c.31.27-.93,1.4-1.14,1.53a3.42,3.42,0,0,1-1.93.49,6.61,6.61,0,0,1-2.07-.35c-1.41-.47,1.08.76,0,0l.56.51c.17-.18.1-.29-.19-.34l-3.14-1.63c.83.53,1.54,1.16,2.43,1.62a36,36,0,0,0,3.64,1.41A12.26,12.26,0,0,0,45.7,43a18.56,18.56,0,0,0,3.87-.24,10.9,10.9,0,0,0,2.68-.37,2.8,2.8,0,0,0,1.47-2.31c.47-2.45-.51-4.7-1.43-6.9-.26-.62-1.54-1.1-2.1-1.39-.39-.2-1.88-1.2-2.34-.91a5.45,5.45,0,0,0-2,3c-.14.42,3.94,2.56,4.44,2.3.74-.39.91-1.59.91-2.34,0-.48-1.74-1.2-2.1-1.38a16.47,16.47,0,0,0-2.34-.92c-.08,1.6-2,2.23-2.32,3.73-.1.47,4.09,2.64,4.44,2.3.76-.72,1-1.8,1.88-2.39l-4.44-2.3a6.79,6.79,0,0,1-1.15.77c-.53.33-1,.79-1.48,1.14a28,28,0,0,1-2.87,2.13l4.39,2.2a4.63,4.63,0,0,0-.39-.73c-.38-.63-1.74-1.13-2.35-1.43-.35-.18-1.66-1-2-.77s-.43,1-.94,1.42l4.44,2.31c-.62-2-.53-4.36-1.46-6.26-.29-.61-1.8-1.16-2.34-1.43a16,16,0,0,0-2-.77c.08,1.89,0,3.79,0,5.68l4.43,2.3c-.12-1.8-.7-3.53-.68-5.35l-4.44-2.3A29.13,29.13,0,0,1,36.76,38l4.44,2.31c.1-1.77.47-3.66-.24-5.34-.24-.58-4.33-2.58-4.43-2.3-.56,1.51-.46,3.42-1.69,4.61l4.44,2.3c-.32-1.55.72-3.55-.43-4.87a7.84,7.84,0,0,0-2.35-1.43c-.45-.23-1.52-1-2-.76-.75.27-.84,1.5-1,2.17a11.14,11.14,0,0,1-1.25,3.58l3.45,1.53-.08-.05.95.67c-.41-.65,0-2.18.15-2.87a12.7,12.7,0,0,1,2.05-4,27.59,27.59,0,0,1,3.65-3.91,14.73,14.73,0,0,1,3.93-3.2l-4.44-2.3a4,4,0,0,1-.79.86,15.06,15.06,0,0,0-1,1.36,15.68,15.68,0,0,1-2.52,2.5A10.67,10.67,0,0,1,35,30c-.84.36-1.46,1.37-2.43,1.39l4.33,2.32a4.91,4.91,0,0,1,0-1.15c0-.59-4.26-2.58-4.44-2.3a6.9,6.9,0,0,0-.6,2.37,9.57,9.57,0,0,0-.37,2.54c0,.45,1.52,1.08,1.8,1.23a7,7,0,0,0,2.52,1.1c1,0,1.67-3,1.71-3.72,0-.55-4.11-2.64-4.43-2.3-.78.83-.9,1.95-1.52,2.88L36,36.62c.36-.82.7-1.65,1.11-2.46.13-.26-4-2.71-4.44-2.3a7.37,7.37,0,0,0-1.86,3.46c-.11.48,4.1,2.65,4.43,2.31a5.11,5.11,0,0,0,.89-2,9.87,9.87,0,0,0,.72-2.17c0-.54-4-2.62-4.44-2.3-1,.73-1.8,3.58-3.16,3.52L33.6,37c0-.63.58-1.1.88-1.62a4.54,4.54,0,0,0,.71-2.09c0-.55-4.11-2.65-4.43-2.31a14.36,14.36,0,0,1-2.61,2.67l4.44,2.3a21.91,21.91,0,0,1,.79-2.77,17.63,17.63,0,0,0,1.1-2.52c.17-.61-3.79-2.24-4.33-2.33-1-.16-1.8,1.91-2.13,2.55a20.7,20.7,0,0,1-1.87,3.51l4.44,2.3A11.44,11.44,0,0,1,32,32.77c.43-1,1.26-2.19.89-3.31-.2-.6-1.58-1.12-2.1-1.39s-1.9-1.2-2.34-.91a8.46,8.46,0,0,0-1.91,2.58A28.65,28.65,0,0,1,23.92,33l4.44,2.3c.91-1.7,2.2-3.63,2.55-5.54.09-.5-4-2.63-4.44-2.3a7,7,0,0,0-2.2,2.47c-.24.5-.59,1.89-1.32,1.84l4.32,2.33c-.53-2.32,1.65-4.57,1.61-6.9,0-.49-1.73-1.2-2.09-1.39s-1.79-1.16-2.35-.91a5.63,5.63,0,0,0-2.1,2.35,19.6,19.6,0,0,1-2.52,3.14l4.44,2.3c-.18-1.1.75-2.25,1.18-3.21.55-1.24,1.6-2.53,1.81-3.88.07-.5-4.09-2.64-4.44-2.3a19.29,19.29,0,0,0-2.11,3.23,11.9,11.9,0,0,1-2.47,3l4.44,2.3c.8-2.09,1.53-4.2,2.28-6.3.2-.57.72-1.13.87-1.69.21-.76-.62-1.07-1.2-1.41a20.63,20.63,0,0,0-2.24-1.16c-.18-.08-1-.53-1.2-.37a3.59,3.59,0,0,0-1.08,1.8c-.35.8-.81,1.56-1.22,2.33-.8,1.54-1.27,3.25-2.34,4.65l4.4,2.19c-.5-1,.57-2.87.83-3.86.42-1.63.67-3.37,1.79-4.7l-4.44-2.3c-.74,1.57-1.83,2.93-2.56,4.5-.64,1.37-1.16,2.79-2.41,3.72l4.44,2.3a4.61,4.61,0,0,1,.68-1.73,16.66,16.66,0,0,0,.65-1.79,25.88,25.88,0,0,1,1.72-3.79L17.2,21.82c-.58,1.12-1.41,2.06-2,3.2a34.08,34.08,0,0,1-1.71,3.42L18,30.74A3.81,3.81,0,0,1,18.29,29a18.55,18.55,0,0,1,.62-2.21,17.71,17.71,0,0,0,1.33-4.06c.06-.52-4.1-2.64-4.44-2.3A4.74,4.74,0,0,0,15,22.21c-.29.73-.76,1.38-1.09,2.1C13.08,26,12.54,27.66,11.2,29l4.44,2.3a6.42,6.42,0,0,1,.8-2,16.89,16.89,0,0,0,.69-2.08,19.87,19.87,0,0,1,.67-2.28,6.31,6.31,0,0,0,.77-2.15c0-.58-4.23-2.61-4.44-2.3a12.23,12.23,0,0,0-1.28,3C12.4,24.67,11.7,25.8,11.14,27l4.44,2.3c0-2.23,1-4.25,1.41-6.44.09-.51-4-2.59-4.44-2.3a2.93,2.93,0,0,0-1,1.37c-.34.65-.73,1.27-1.06,1.92-.75,1.43-1.25,3-2,4.37l4.44,2.3c.6-2.41,2.7-3.78,4.64-5.08a7.12,7.12,0,0,0,.63-.35c.57-.09.29-.27-.85-.56-1.09-.67-1.35-.75-.8-.24a16.63,16.63,0,0,0,1.17,1.37,10.74,10.74,0,0,0,3.34,2.44c2.21,1.15,4.61,2.06,6.76.27a16.54,16.54,0,0,0,2.43-2.91,6,6,0,0,1,1.36-1.39c.35-.24,1.15-1,1.6-.95L28.92,20.9c.62.58.22,2,.21,2.72,0,1.23,0,2.46,0,3.68l4.44,2.3a7.87,7.87,0,0,1,.07-2.47,5.9,5.9,0,0,1,1.21-1.87A8.05,8.05,0,0,0,36,23.7c.36-.71.48-1.54.77-2.27.2-.5-3.63-2.16-4.07-2.27a17,17,0,0,0-4-.1H23.54c-.63,0-1.27,0-1.9,0a9.54,9.54,0,0,0-1-.16L22.88,20l-.64-.64c-1.17-1.18-2.33-2.37-3.53-3.52L16.42,15c-1.4-.73-.43-.12-.1.24a8.41,8.41,0,0,1,.72.86A19.3,19.3,0,0,1,18.27,18l.34.6.91.46a6,6,0,0,0-1.32-.59,3.82,3.82,0,0,0-1.91-.34c2.05,1.35,2.67,1.63,1.84.84l-.25-.29a6.91,6.91,0,0,1-.6-.92c-.4-.74-.67-1.56-1-2.33a15.1,15.1,0,0,0-1.05-2.27q-4.07-2.77-2.6-1.51l.13.14a2.9,2.9,0,0,1,.11,1.14,4.54,4.54,0,0,0,.29,2c.22.62.48,1.22,0,1.78a5.43,5.43,0,0,1-1.52.91,16.3,16.3,0,0,0-1.94,1.34,9.14,9.14,0,0,0-3,3.6C6.2,24,6.33,25.65,5.6,27L10,29.3a12.67,12.67,0,0,1-.72-2.21,13.11,13.11,0,0,1,0-2.8A12,12,0,0,1,10.86,20c.38-.77.79-1.5,1.21-2.24s.55-1.33.91-2a2.25,2.25,0,0,1,1.5-1.13c.65-.23,1.15-.78,1.79-.94.1,0-.69-.59-.56-.5a13.74,13.74,0,0,0-1.53-.88c-.57-.3-1.67-1.08-2.34-.92Z"/></g><g class="cls-1"><path class="cls-2" d="M37.74,27.52c-.18-.19-.14-.11.13.24-.11-.22-.07-.13.11.27.16.6,0,.35.07.07l-.09.57a6.06,6.06,0,0,1,.39-1.08c.2-.45.2-.95.38-1.41l-.26.53a10.8,10.8,0,0,0,.84-1.53A12.45,12.45,0,0,1,39.75,24l-.25.52a4.12,4.12,0,0,1,.64-1l-.4.42a5,5,0,0,1,1.1-.83l-.5.28a3.85,3.85,0,0,1,.5-.24,1.31,1.31,0,0,0,.21-.08l-.41.11c.23,0,.1,0-.4,0l-2-3.68a3.87,3.87,0,0,1-.35.45l.4-.43A13.6,13.6,0,0,0,36,21.69a15.24,15.24,0,0,0-1,2c-.23.53-.3,1.11-.53,1.64a2,2,0,0,0,0,1.16,2.54,2.54,0,0,0,.85,1.3,2.67,2.67,0,0,0,2.64.55c1.4-.42,2.29-1.79,3.22-2.81l-.4.43a6.38,6.38,0,0,1,1.35-1.14l-.5.29a3.55,3.55,0,0,1,.63-.28c.21-.08-.62.11-.14.05.17,0,.67,0-.07,0l-.57-4.53h-.41a2.06,2.06,0,0,0-1.48.86,2.11,2.11,0,0,0-.26,1.68,2.7,2.7,0,0,0,1.1,1.53,3.22,3.22,0,0,0,1.82.47h.41A2,2,0,0,0,44.13,24a2.07,2.07,0,0,0,.31-1.39,2.49,2.49,0,0,0-.64-1.38,2.65,2.65,0,0,0-1.71-.9,6,6,0,0,0-2.31.31,5.37,5.37,0,0,0-1.51.89,20.69,20.69,0,0,0-2.19,2.3l.4-.43a4.51,4.51,0,0,1-1,.85l.5-.29a1.35,1.35,0,0,1-.35.14l3.48,3c.29-.67.41-1.38.72-2l-.25.53a6,6,0,0,1,.9-1.5l-.4.42a15.31,15.31,0,0,0,2.25-2.16,2.54,2.54,0,0,0-2-3.67,5.23,5.23,0,0,0-3.69,1.45,5.31,5.31,0,0,0-1.16,1.46,19.58,19.58,0,0,0-.82,2l.25-.52a7.91,7.91,0,0,0-.85,1.6c-.08.29-.09.59-.18.87a5.89,5.89,0,0,1-.24.58,3.66,3.66,0,0,0,.68,4.11,3,3,0,0,0,1.72.91,2.29,2.29,0,0,0,1.68-.42,2.21,2.21,0,0,0,.07-3.2Z"/></g><g class="cls-1"><path class="cls-2" d="M45.82,32.85a2,2,0,0,1,0-.6l-.08.47a1.26,1.26,0,0,1,.15-.38l-.25.43c.15-.24.34-.45.51-.68a9.87,9.87,0,0,0,.8-1.32c.32-.62.62-1.26,1-1.86l-.24.42a3.77,3.77,0,0,1,.6-.78l-.39.36a1.57,1.57,0,0,1,.26-.19l-.51.28a11.6,11.6,0,0,0,1.18-.57,2.08,2.08,0,0,0,1-1.71c0-1.45-2.1-1.95-3.18-1.68a6.1,6.1,0,0,0-3.4,2.5,6.4,6.4,0,0,0-1.39,3.35,1.64,1.64,0,0,0,.74,1.25,3,3,0,0,0,1.77.5c1,0,2.45-.54,2.49-1.79a1.63,1.63,0,0,1,0-.31l-.08.47a5.32,5.32,0,0,1,.63-1.54l-.25.42a7.65,7.65,0,0,1,1.29-1.65l-.38.36a3.56,3.56,0,0,1,.62-.46l-.51.28a1.94,1.94,0,0,1,.3-.13l-.59.18.09,0-3.18-1.68a.76.76,0,0,1,0,.15l.09-.48a.42.42,0,0,1,0,.12l.25-.42-.11.13.39-.36-.1.06.5-.28a7.8,7.8,0,0,0-1.29.65,4.09,4.09,0,0,0-1.1,1.21c-.55.89-1,1.85-1.49,2.76l.25-.43c-.24.4-.55.73-.8,1.12a2.69,2.69,0,0,0-.51,1.9,1.67,1.67,0,0,0,.74,1.24,3.27,3.27,0,0,0,3.54,0,1.55,1.55,0,0,0,.72-1.26Z"/></g><g class="cls-1"><path class="cls-2" d="M45,34.49a3,3,0,0,1,.11-.52l-.08.25c.36-1.12,1.42-1.7,2-2.65s.9-2.06,1.82-2.68L48.7,29a1.47,1.47,0,0,1,.28-.14l-3.73-3.21a17.27,17.27,0,0,1-1.81,2.1c-.56.61-1.07,1.25-1.68,1.81A16.42,16.42,0,0,0,40.32,31a2.54,2.54,0,0,0-.71,1.87,4,4,0,0,0,2,2.38,3.1,3.1,0,0,0,1.43.59c.24,0,.68,0,.63-.39a1.52,1.52,0,0,1,.06-.67l-.08.25c.4-1.13,1.49-1.87,2.31-2.68.55-.55,1-1.17,1.56-1.73a13.48,13.48,0,0,0,1.63-1.91c.19-.28,0-.72-.18-.95a5.29,5.29,0,0,0-1-1.08,6,6,0,0,0-1.33-.89c-.33-.15-.87-.43-1.24-.28-1.28.53-1.63,1.92-2.33,3A11,11,0,0,1,41.84,30a3.49,3.49,0,0,0-.9,1.95c0,.36.38.91.57,1.13A6.1,6.1,0,0,0,43,34.3c.39.23,1.93,1.12,2.06.19Z"/></g><g class="cls-1"><path class="cls-2" d="M37.63,28.55c.26-.62.62-1.2.9-1.81A13.45,13.45,0,0,1,39.4,25l-.29.44a6.69,6.69,0,0,1,.75-.92c.15-.15.31-.28.47-.42s-.06,0-.09.06.23-.16.29-.2l.22-.14c.07,0,.34-.17,0,0s0,0,.12,0a2.27,2.27,0,0,0,.25-.06,4.83,4.83,0,0,0,.88-.37,2.19,2.19,0,0,0,.29-.17c.17-.13-.5.14-.08.05l-2.64-3.76a8,8,0,0,0-2,2c-.63.77-1.32,1.49-1.93,2.28a8.93,8.93,0,0,0-2.07,5.62,2.66,2.66,0,0,0,2.26,2.5c1,.16,2.59-.21,2.57-1.51a7.39,7.39,0,0,1,.23-1.88l-.13.51a7.14,7.14,0,0,1,.94-2.13l-.3.44a26.53,26.53,0,0,1,2.07-2.53c.29-.33.55-.68.83-1a4.69,4.69,0,0,1,.46-.54,2.44,2.44,0,0,0,.23-.22l-.22.16.22-.14a1.74,1.74,0,0,0,.43-2.58,3,3,0,0,0-3.07-1.18,4.07,4.07,0,0,0-.9.34l-.23.13s-.43.2-.1.08,0,0-.05,0l-.26.06a4.53,4.53,0,0,0-.86.34,7.74,7.74,0,0,0-2.11,1.71,8.94,8.94,0,0,0-1.44,2.34c-.34.78-.78,1.51-1.11,2.29a2.33,2.33,0,0,0,1.5,2.81c1,.4,2.57.4,3.08-.8Z"/></g><g class="cls-1"><path class="cls-2" d="M38.74,29.45v.09a4.33,4.33,0,0,1,.42-1.65l-.16.32a4,4,0,0,1,1.27-1.45L40,27c1.47-1,3.46-1.15,4.49-2.72a1.74,1.74,0,0,0-.37-1.93,4,4,0,0,0-2.24-1.57,3.83,3.83,0,0,0-2.72.36,12,12,0,0,0-2,1.55c-.58.52-1.2.94-1.8,1.42a3.39,3.39,0,0,0-.84.89,12.5,12.5,0,0,0-.61,1.53l.16-.33c-.26.46-.71.83-.75,1.4A3.16,3.16,0,0,0,35,30.28a2.73,2.73,0,0,0,1.52.52c.35,0,.83-.18.86-.61a.88.88,0,0,1,.1-.36l-.16.32a12,12,0,0,0,.66-1c.16-.36.21-.75.39-1.11l-.16.33a7.56,7.56,0,0,1,2.05-1.85c.67-.55,1.26-1.17,2-1.66l-.29.2a3.74,3.74,0,0,1,1.28-.59l-.4.08a2.87,2.87,0,0,1,.41-.05c.07,0,.3,0,0,0h.06L40.67,21a3.54,3.54,0,0,1-.89.92l.3-.21c-1.17.79-2.59,1.06-3.73,1.9a4.87,4.87,0,0,0-1.75,4.06,2.76,2.76,0,0,0,.73,1.44,4.33,4.33,0,0,0,1.55,1.16,1.86,1.86,0,0,0,1.38.15.91.91,0,0,0,.48-.94Z"/></g><g class="cls-1"><path class="cls-2" d="M47,33.42a6.15,6.15,0,0,0,.66-1.14l-.14.24a2.38,2.38,0,0,1,1-.83,3.22,3.22,0,0,0,.92-1.26l-.15.24c.3-.5.81-.85,1-1.44a1.36,1.36,0,0,0-.09-.77,4.22,4.22,0,0,0-.74-1.26,4.45,4.45,0,0,0-2-1.57c-1-.32-1.64.23-2.32.82A24.3,24.3,0,0,0,43.17,28a8.06,8.06,0,0,0-1.42,2.14c-.17.39-.35.76-.54,1.13a3,3,0,0,0-.38,1.5,3.13,3.13,0,0,0,.63,1.43,6.59,6.59,0,0,0,1.11,1.19,2.67,2.67,0,0,0,1.09.63.58.58,0,0,0,.75-.31c.17-.33.33-.66.52-1l-.14.25a6.17,6.17,0,0,1,1.52-1.66c.38-.31.7-.69,1.07-1s.86-.57,1.24-.91.14-.74.05-1a4.51,4.51,0,0,0-.94-1.52,4.32,4.32,0,0,0-1.38-1.14c-.29-.13-.73-.34-1-.09-.46.41-1,.67-1.46,1.11s-.9.82-1.36,1.23a7.74,7.74,0,0,0-1.68,2.46l3.58,2.94v.25A4,4,0,0,1,45,34.22c.24-.44.4-.91.65-1.34l-.14.24A7.4,7.4,0,0,1,47.3,31c.36-.28.74-.52,1.09-.82a3.86,3.86,0,0,1,1-.73l-.26.11a1.13,1.13,0,0,1,.48-.08l-.34,0a1.22,1.22,0,0,1,.26.06L46.67,26a1.06,1.06,0,0,1-.09.25l.14-.24a6.88,6.88,0,0,1-.54.67,6.67,6.67,0,0,0-.57,1l.14-.24a1.58,1.58,0,0,1-.53.56c-.17.11-.37.18-.54.29a3.7,3.7,0,0,0-1,1.43l.14-.25a1.28,1.28,0,0,1-.2.26,1.05,1.05,0,0,0-.05,1,4.67,4.67,0,0,0,.94,1.52A4.47,4.47,0,0,0,46,33.33c.25.12.77.37,1,.09Z"/></g><g class="cls-1"><path class="cls-2" d="M32.44,17c0,.59-.08,1.18,0,1.77a3.85,3.85,0,0,0,.26,1.2,2.68,2.68,0,0,0,.41.69,4.84,4.84,0,0,0,1.07,1,6.5,6.5,0,0,0,2.55,1.09,2.63,2.63,0,0,0,1,0c.31-.05.6-.16.59-.53a1.08,1.08,0,0,0-.23-.51,2.17,2.17,0,0,0-.49-.56,5.91,5.91,0,0,0-1.63-1l-.57-.2a2.83,2.83,0,0,0-1-.14,1.87,1.87,0,0,1-.34,0l.44,0a.64.64,0,0,1-.2,0l.51.12-.1,0,.57.2-.1,0,.6.3-.07,0,.57.35-.08-.05.47.37-.07-.06.36.38a1.71,1.71,0,0,1-.11-.14l.25.37a1.81,1.81,0,0,1-.18-.37l.11.33a8.39,8.39,0,0,1-.09-2.6,1,1,0,0,0-.22-.51,2.38,2.38,0,0,0-.49-.56,5.38,5.38,0,0,0-1.64-1L34,16.55a2.86,2.86,0,0,0-1-.13c-.32,0-.59.15-.59.53Z"/></g><g class="cls-1"><path class="cls-2" d="M9.25,13.79a24.92,24.92,0,0,0-2.83,2.6A9.65,9.65,0,0,0,4.6,19.81a9.14,9.14,0,0,0-.49,3.36c.07,1.42,0,2.85,0,4.27,0,.93,1.61.38,2.07.19a6,6,0,0,0,1.67-1c.27-.23.77-.62.77-1,0-1.28,0-2.57,0-3.85a9.3,9.3,0,0,1,.29-3.2A8,8,0,0,1,10.08,16c.17-.21.36-.4.54-.59s.19-.19.05-.05l.29-.26c.42-.36.84-.7,1.25-1.06s1.32-1.39.23-1.51a4.93,4.93,0,0,0-3.19,1.27Z"/></g><g class="cls-1"><path class="cls-2" d="M22.42,35.44c.42,0,0-.08.12,0a2.25,2.25,0,0,0,.46.15,5.11,5.11,0,0,0,1.3.2c.31,0,.62,0,.93,0l.51,0c.05,0,.59,0,.31,0s.26,0,.26,0l.38.09a8.71,8.71,0,0,0,1.36.14h.5c.14,0,.14,0,0,0l.19,0c-.25-.17-.09,0,.1.06l.46.2a9.82,9.82,0,0,0,1.16.38c.37.1,0,0-.13,0,.34.14-.37-.26-.45-.33s-.22-.21-.13-.1.06.06-.17-.26c0,.09.37.54.4.57.21.3.43.57.67.85l.3.34c.32.38.14,0,0,0,.08,0,.31.58.38.69a4.12,4.12,0,0,0,1.35,1.34,2.83,2.83,0,0,0,.93.39h.11c.79.08.72.06-.21-.09l-1-.78.13.13c.71.7,2.12,1.57,3,.66a2.29,2.29,0,0,0-.24-3.1,4.26,4.26,0,0,0-1.55-1.08,2.53,2.53,0,0,0-.66-.15c-.84-.07.34.09-.06,0l1.09.52c.72.47.71,1,.48.52a3.55,3.55,0,0,0-.2-.39,8.36,8.36,0,0,0-.84-1.14c-.18-.21-.36-.43-.55-.63s.28.41,0,0-.33-.5-.52-.73A4.49,4.49,0,0,0,31,32.62a8.42,8.42,0,0,0-1.11-.35c.31.09.08,0-.09-.06L29.3,32a7.12,7.12,0,0,0-2.58-.45c-.08,0-.49-.07-.17,0l-.49-.11a9.15,9.15,0,0,0-1.16-.13,8.18,8.18,0,0,0-1,0l-.52,0c-.07,0-.53,0-.18,0A11.73,11.73,0,0,0,21,31a1.66,1.66,0,0,0-1.32,2.34,3,3,0,0,0,2.75,2.14Z"/></g><g class="cls-3"><path class="cls-4" d="M2.29,26.75c.2,1.64,2.07,2,2.74,3.38A7.19,7.19,0,0,0,9.2,33.81c.93.35,1.91.72,2.85,1,.34.11.69.17,1,.28.75.24.25.09.18.05.6.27,1.18.58,1.81.82,2.26.86,4.61,1.33,6.91,2a26,26,0,0,0,3.54,1,9.39,9.39,0,0,0,1.67.12,5.68,5.68,0,0,0,.91,0c1.25-.26-1.5-1-1.22-.43a9.89,9.89,0,0,0,3.6,3.83c3.77,2.49,8.24,3.46,12.46,5a13.3,13.3,0,0,0,7.65.33A12.87,12.87,0,0,0,54,46.26c.75-.46,1.53-1.47,2.33-1.77l-4.5-1.27.06.49c.17,1.44,5,1.72,4.91.93l-.06-.49c-.15-1.34-3.57-1.63-4.5-1.27a5.38,5.38,0,0,0-1.53,1.06,12.18,12.18,0,0,1-2.34,1.55,7,7,0,0,1-2.57.84c-.28,0-.56,0-.84,0,.16,0,1,.33,0,0-.32-.12-.65-.22-1-.33-1.87-.59-3.68-1.32-5.57-1.87a15.09,15.09,0,0,1-4.85-2.45c-1.15-.85-1.44-2.42-2.66-3.26a7.29,7.29,0,0,0-3.08-1.08,9.42,9.42,0,0,0-1.68-.09l-.71.05c-.27,0-1.06,0-.14.11s-.49-.25-.7-.33c-.47-.16-.94-.31-1.42-.44-1-.28-2.07-.52-3.1-.81-1.93-.56-3.69-1.5-5.61-2.05-1.56-.46-3.48-.9-4.29-2.47a5.79,5.79,0,0,0-1.36-2c-.49-.42-1.51-.9-1.6-1.62-.18-1.44-5-1.71-4.91-.93Z"/></g><g id="BbYmxQ.tif"><path d="M52.33,43.08a.75.75,0,0,1-.76.46c-.53,0-1,.39-1.49.4a.82.82,0,0,1-.55-.08c-.15-.1-.36-.13-.44.12a.23.23,0,0,1-.27.18c-.56-.1-1,.32-1.51.33-.8,0-1.57.25-2.37.25a5,5,0,0,0-1.76,0,1,1,0,0,1-1-.35.73.73,0,0,0-.76-.22c-.24.09-.46.1-.58,0-.38-.46-1-.18-1.42-.49-.17-.11-.45-.12-.63-.36s-.39-.11-.6,0a.77.77,0,0,1-1-.34,1,1,0,0,0-.66-.46c-.39-.06-.57-.49-1-.52,0-.23.2-.16.25-.25a.33.33,0,0,0,0-.38c-.1-.11-.2,0-.26.06s-.28.14-.43,0c-.41-.4-1-.51-1.4-.91a10.39,10.39,0,0,0-2.21-1.75c-.27-.17-.66-.18-.67-.65,0-.11-.21,0-.3.06-.32.26-.51.1-.65-.21,0-.07,0-.18-.08-.19-.56-.12-.93-.62-1.46-.76a6.38,6.38,0,0,0-1.72-.43c-.26,0-.28-.27-.35-.47-.17-.47-.18-.47-.5-.13l-.11.08c-.35.13-.65-.2-1-.12a.64.64,0,0,1-.77-.44c-.09-.2-.21-.25-.43-.12a1,1,0,0,1-1.19-.39c-.06-.12-.14-.26-.25-.18-.51.32-1,0-1.51,0a2.53,2.53,0,0,1-1.54-.56s-.07,0-.08,0c-.19-.6-.66-.28-1-.3s-.66,0-.84-.38a.26.26,0,0,0-.27-.14,1.65,1.65,0,0,1-1.36-.49s-.08-.07-.11-.06c-.63.23-1.18-.34-1.81-.16-.14,0-.31-.12-.42-.24s-.3-.3-.51-.08c0,0-.11.1-.15,0a.89.89,0,0,0-1.14-.17A.28.28,0,0,1,11,32c0-.32-.25-.32-.48-.33a1.11,1.11,0,0,1-.43-.19,1.92,1.92,0,0,0-1.48-.3A.52.52,0,0,1,8,30.72c0-.08,0-.23,0-.23-.55,0-.58-.56-.91-.79a1,1,0,0,0-.34-.19C6.3,29.4,6,29.25,6,28.75a.65.65,0,0,0-.36-.53c-.15-.09-.33-.23-.3-.36.12-.49-.28-.59-.53-.81a1.47,1.47,0,0,1-.42-.44c-.32-.64-.35-.69-.88-.26-.26.21-.6.38-.74.77a.68.68,0,0,0,0,.62,4.44,4.44,0,0,0,2,2c.47.24.71.71,1.17,1A12,12,0,0,1,7,31.32c.14.09.3.13.38.3s.56.43.77.71a3.2,3.2,0,0,0,1.32.88,1,1,0,0,1,.37.26,2.31,2.31,0,0,0,1.93.8,3.79,3.79,0,0,1,1.67.42c.33.17.57.49,1,.47.24,0,.44-.06.51-.33s.23-.34.41-.24c.49.27,1.08.25,1.55.64a3,3,0,0,0,1.1.4c.16,0,.31,0,.42.19a.28.28,0,0,0,.36.08c.26-.12.49-.2.62.15.37-.15.66.17,1,.2a4.06,4.06,0,0,1,1.83.35,2,2,0,0,1,1,1,.12.12,0,0,0,.22,0c.35-.38.59-.1.75.16a.43.43,0,0,0,.55.22A.57.57,0,0,1,25,38c.69.37,1.4.72,2.09,1.11s1.31,1,2,1.37,1.66.89,2.47,1.39A9.5,9.5,0,0,1,33.45,43a5.65,5.65,0,0,0,1.57.71,18.22,18.22,0,0,1,2.29,1.16c.22.14.41.27.67.13a.22.22,0,0,1,.32.07c.34.58.82.5,1.31.27.21-.09.29-.05.43.12a1,1,0,0,0,1.08.45s.07,0,.09,0a19.73,19.73,0,0,0,3.67.56,2,2,0,0,0,.85,0,14.13,14.13,0,0,1,2-.15,2.42,2.42,0,0,0,1.48-.54c.1-.08.21-.26.28.06s.36.15.56-.08A1.64,1.64,0,0,1,51.63,45c.23,0,.49-.18.66-.36a13.37,13.37,0,0,1,1.34-.93,2.84,2.84,0,0,0,1-1.42,1.07,1.07,0,0,1,.39-.57.42.42,0,0,1,.5,0,.39.39,0,0,1,.18.42,1.63,1.63,0,0,1-.48,1.11c-.37.4-.57,1-1,1.31a4.57,4.57,0,0,1-1.24.83,15.86,15.86,0,0,0-1.5,1,13.06,13.06,0,0,1-3.62,1c-1,.2-1.93.24-2.9.36a5,5,0,0,1-2-.29c-.53-.16-1.08-.15-1.62-.26a2.05,2.05,0,0,1-.8-.2.81.81,0,0,0-.59-.14,9.52,9.52,0,0,1-1.31,0,2.44,2.44,0,0,1-1.53-.72c-.25-.19-.71-.15-.7-.62-.56.18-.85-.35-1.28-.5a11.87,11.87,0,0,1-1.72-.92c-.07,0-.12-.15-.16-.14-.79.08-1.07-.81-1.71-.92-1-.17-1.64-1-2.52-1.32s-1.56-1.2-2.46-1.65a6.26,6.26,0,0,0-.85-.37,2.74,2.74,0,0,1-1.4-1.2A1.49,1.49,0,0,0,23.21,38c-.7,0-1.14-.5-1.7-.76-.15-.07-.09-.24-.08-.37a.21.21,0,0,0-.12-.22.2.2,0,0,0-.23.1c-.25.33-.56.27-.92.19a9.76,9.76,0,0,0-1.53-.25,5.06,5.06,0,0,1-1.3-.23,9.75,9.75,0,0,1-1.87-.42.32.32,0,0,0-.3,0c-.26.12-.46.1-.58-.2s-.19-.22-.29-.06c-.23.33-.43.2-.62,0a.31.31,0,0,0-.42-.1,1.21,1.21,0,0,1-1.07-.33A1.8,1.8,0,0,0,11,35.11a.73.73,0,0,1-.81-.32.43.43,0,0,0-.36-.22A1.55,1.55,0,0,1,9,34.21a2.44,2.44,0,0,0-.73-.39,2.82,2.82,0,0,1-1.2-.92,2.33,2.33,0,0,0-1.17-.82c-.62-.16-1-.63-1.44-.92s-.75-.63-1.16-.91a3.38,3.38,0,0,1-1-1.18A7.2,7.2,0,0,0,1.53,28c-.18-.23-.22-.5,0-.67s.12-.5.26-.73a4.27,4.27,0,0,0,.53-1.12,1.47,1.47,0,0,1,.84-.82c.18-.09.5-.16.13-.44-.16-.11,0-.24,0-.34a2.12,2.12,0,0,0,.28-1.55c0-.23.18-.33.2-.53a3.52,3.52,0,0,1,.64-1.73A11.68,11.68,0,0,0,5.33,18a3.82,3.82,0,0,1,.81-1.36.32.32,0,0,0,.1-.2c-.08-.66.43-1,.82-1.34a.5.5,0,0,0,.15-.2,4.17,4.17,0,0,1,.88-1.6c.62-.69,1.12-1.46,1.71-2.17A.23.23,0,0,1,9.88,11c.67-.36,1-1.13,1.85-1.31.25-.06.37-.38.74-.32s.56.18.65.5.15.22.35.14c.85-.36,1.44,0,1.87.81.13.27.22.7.61.85a.22.22,0,0,1,.14.16c.09.89,1,1.14,1.37,1.85.14.28.53.48.74.78s.3.27.36.5.24.24.42.3a14.92,14.92,0,0,1,1.94.69c.38.18.87.21,1.12.67.05.1.44.07.65.16s.4.14.47.43c0,.13.34,0,.53.09a1.9,1.9,0,0,0,.68.09,13.77,13.77,0,0,1,2.51.63,3,3,0,0,1,1.06.4.82.82,0,0,0,1-.14.78.78,0,0,1,.81-.19,1.19,1.19,0,0,0,1,0c.1-.06.22-.11.33,0a.26.26,0,0,0,.42-.07A2.27,2.27,0,0,1,33,17.25a.38.38,0,0,0,.16-.06,5.58,5.58,0,0,1,2.32-.63c.29,0,.2-.2.12-.3-.3-.42.09-.75.14-1.11,0-.17.22-.09.25.08.17.89.86,1.07,1.59,1.24.38.09.68.39,1.11.42s.51-.05.57-.39a2.18,2.18,0,0,0,.18-.91.18.18,0,0,1,.05-.16c.42-.37.34-.81.26-1.29,0-.25.23-.5.27-.79s.17-.27,0-.42a.4.4,0,0,0-.53,0,5.52,5.52,0,0,1-1.33.72c-.12,0-.24.19-.36,0s-.23-.42-.13-.54c.44-.54.51-1.31,1.14-1.74.24-.16.51-.12.75-.27a1.72,1.72,0,0,1,1-.09A.61.61,0,0,1,41,12a11,11,0,0,0-.64,2.44,2.81,2.81,0,0,1-.24.81,1.81,1.81,0,0,0-.2.86,2.44,2.44,0,0,1-.51,1.38.49.49,0,0,1-.71.14c-.43-.31-1-.27-1.41-.55a.26.26,0,0,0-.39.23c0,.51-.15,1.06.42,1.41.2.12.2.31.09.55s.39,1.08.76,1,.42-.3.64-.45a3.13,3.13,0,0,0,1-.68c.13-.18.39,0,.52.17a5.64,5.64,0,0,0,1.28,1.1,3.62,3.62,0,0,1,1.34,1.79c.07.19.14.36.22.53A1.93,1.93,0,0,1,43,24.58c-.11.19-.16.37,0,.54a2.16,2.16,0,0,1,.29.54c.06.13.23.26,0,.38a.38.38,0,0,1-.5,0,1.52,1.52,0,0,0-.5-.37c-.23-.12-.42-.18-.48.17,0,.12-.11.16-.22.18s-.21.05-.24.11c-.24.57-.88.78-1.19,1.31-.17.3-.39.61-.82.59-.06,0-.18.07-.18.11,0,.52-.52.78-.59,1.27,0,.2-.18.33-.32.48s-.36.28-.45.55-.45.31-.7.27a2.4,2.4,0,0,1-1.52-.46c-.15-.14-.27,0-.3.09s-.2.26-.39.23-.39-.06-.4-.33-.19-.25-.34-.32a2.81,2.81,0,0,1-1.25-1.09c-.16-.26-.07-.5-.09-.72a3.19,3.19,0,0,1,.34-2.1.29.29,0,0,0,.08-.2A2,2,0,0,1,34,24.15c.32-.36.51-.8.83-1.14a.3.3,0,0,0,0-.3,2.27,2.27,0,0,0-.64-1.07.9.9,0,0,1-.22-.52,1.37,1.37,0,0,0-.75-1c-.47-.23-.79-.76-1.34-.8s-1.14-.49-1.72.08c-.24.23-.67.05-1,.07a5.62,5.62,0,0,1-1.53-.08,13.14,13.14,0,0,1-2.81-.83,1,1,0,0,0-.42-.15,1,1,0,0,1-.92-.4c-.11-.13-.23-.15-.34,0a.19.19,0,0,1-.31,0c-.55-.51-1.31-.42-1.95-.67-.47-.18-1-.17-1.41-.57-.12-.11-.31,0-.44,0a6.69,6.69,0,0,1-1.42-1c-.21-.19-.15-.56-.42-.7s-.32-.73-.8-.81c-.13,0-.25-.25-.33-.4-.28-.58-.82-1-1.06-1.61-.14-.36-.56-.57-.67-1a.71.71,0,0,0-.68-.42c-.72.13-1.46,0-2.18.14-.17,0-.35,0-.34.31s-.18.23-.3.31A5,5,0,0,0,9.48,12.9,14.54,14.54,0,0,1,7.7,15.27a2.12,2.12,0,0,0-.63,1c-.19.75-.73,1.34-1,2.08-.42,1.36-1.19,2.6-1.24,4.07,0,.09,0,.18-.06.25-.45.4-.29.84,0,1.26.12.21,0,.37,0,.56,0,.53.32.87.58,1.24a7.29,7.29,0,0,1,.49.74,1.38,1.38,0,0,0,.63.66c.32.13.3.62.67.76,0,0,0,.17.14.1.24-.18.36,0,.52.12a1.49,1.49,0,0,0,1,.38,1,1,0,0,1,.92.45c.18.23.48.35.54.68.4-.1.57.23.79.45s.66.46.93.7a2.9,2.9,0,0,0,1.43.59c.31.07.61.35,1,.41.53.09,1.08.11,1.62.16a.81.81,0,0,1,.43.11,3.27,3.27,0,0,0,1.39.43c.27,0,.6-.07.71.35,0,.11.2.08.32.09a1.77,1.77,0,0,1,1.18.42,1.52,1.52,0,0,0,1.22.41,1.88,1.88,0,0,1,1.49.24.25.25,0,0,0,.17.07c.57-.07.93.37,1.39.57a5.14,5.14,0,0,0,1.23.23,9.71,9.71,0,0,0,1.32.16,3,3,0,0,1,1.81.77,5.29,5.29,0,0,0,1.59.76A6.33,6.33,0,0,1,32,37.65s.06.09.1.1c.75.17,1.08.88,1.66,1.29.32.23.59.58.95.82a7.18,7.18,0,0,0,1.3.65c.31.14.58.25.46.67,0,.06,0,.17,0,.17.41.12.52.65,1,.7a2.73,2.73,0,0,1,1.58.63c.18.16.56.14.85.17s.37,0,.38.33.7.39.94.33a1.47,1.47,0,0,1,1.17.16,1.15,1.15,0,0,0,.44.15,1.39,1.39,0,0,1,.8.26.39.39,0,0,0,.49-.11c.16-.18.33-.18.44,0s.37.24.59.08c.06,0,.13-.13.18-.12.71.08,1.29-.45,2-.39h0c.46.41.77,0,1.16-.17a1.51,1.51,0,0,1,.7,0,1.42,1.42,0,0,0,.87-.14,1.86,1.86,0,0,1,1.23-.11c.18,0,.42.11.4-.23,0-.1,0-.12.12-.14A1.75,1.75,0,0,0,53.08,42a5.87,5.87,0,0,0,.7-2c.16-.89.06-1.78.22-2.66,0-.05,0-.15,0-.16-.41-.25-.09-.61-.16-.91a3.66,3.66,0,0,0-.39-1.55c-.28-.38-.51-.79-.79-1.17-.15-.19-.26-.41-.59-.4s-.43-.34-.42-.4c0-.38-.22-.29-.44-.31a.46.46,0,0,1-.43-.19,2.78,2.78,0,0,0-1.25-1,3.57,3.57,0,0,1-.49-.38c-.16-.14-.37-.26-.51-.07-.37.47-1,.71-1.19,1.35-.1.31-.2.81-.73.84,0,0-.09.08-.11.13A4,4,0,0,1,45,35c-.43.32-.85.87-1.54.77a2.87,2.87,0,0,1-1.73-.82c-.2-.23-.48-.33-.7-.54a.64.64,0,0,1-.21-.76c.07-.17.11-.27-.11-.32a.17.17,0,0,1-.15-.19,3.84,3.84,0,0,1,.55-2.61c.35-.49.52-1.12.87-1.64s.42-1,.91-1.28c.12-.08.11-.35.23-.47.62-.64,1-1.46,1.9-1.89.46-.22.7.06,1,.19s.65.12.85.43c.58-.2.9.3,1.33.52A2.52,2.52,0,0,1,49.49,29a1.08,1.08,0,0,0,.31.91,10,10,0,0,0,1.58,1.24c.52.33.95.8,1.46,1.15a6,6,0,0,1,1.53,1.64,2.1,2.1,0,0,1,.35.81A8.4,8.4,0,0,0,55,36.36s0,.06,0,.09c-.32,1,.08,2-.21,3a12.82,12.82,0,0,1-.6,1.91c-.12.25-.22.49.06.76s-.06.74-.53.82a3.55,3.55,0,0,0-.79.29C52.59,43.45,52.59,43.45,52.33,43.08ZM34.24,27.18a1.22,1.22,0,0,0,.22.67c.25.4.63.68.85,1.08a.79.79,0,0,0,1.31.17,2.41,2.41,0,0,1,.24-.21c.71-.68,1.65-1.13,2.09-2.09a.22.22,0,0,1,.07-.06,8.47,8.47,0,0,1,1.11-1,3.76,3.76,0,0,1,1-.71.24.24,0,0,0,.1-.14c0-.2.17-.26.33-.32.46-.16.61-.62.89-1a.74.74,0,0,0,.06-.6c-.14-.54-.25-1.09-.82-1.38a.19.19,0,0,1-.09-.09,1.37,1.37,0,0,0-.81-.94c-.6-.25-.72-.36-1.26,0a11.64,11.64,0,0,0-2.09,1.48,6.22,6.22,0,0,0-1.09,1.24c-.33.69-.89,1.17-1.23,1.82s-.6,1.24-.89,1.86A.81.81,0,0,0,34.24,27.18ZM49,28.53c.28-.38-.27-.45-.38-.73a1.53,1.53,0,0,0-.89-.94c-.4-.16-.59-.57-1.18-.56a5.59,5.59,0,0,0-1.47.13c-.41.12-.57.51-.86.75a6.38,6.38,0,0,0-1.86,2.69,10.69,10.69,0,0,1-.73,1.57c-.08.15-.32.39-.13.64a.61.61,0,0,1,0,.6.64.64,0,0,0,.12.73.75.75,0,0,1,.21.39c0,.41.35.41.62.45.09,0,.18,0,.26,0a1,1,0,0,0,1,.21,10.11,10.11,0,0,0,.94-.56c.37-.28.57-.78,1.1-.88,0,0,.09-.09.1-.14,0-.3.27-.45.4-.68.24-.4.68-.62.91-1s.19-.67.58-.82A.4.4,0,0,0,48,30c0-.31.18-.43.37-.48C48.88,29.4,49,29.06,49,28.53ZM35.16,17.2c0,.53-.5.18-.67.49a2.18,2.18,0,0,1-.52.53A.45.45,0,0,0,34,19a2.75,2.75,0,0,1,.37.28c.34.25.42.64.65.92a1.84,1.84,0,0,1,.42,1.07.32.32,0,0,0,.23.31.53.53,0,0,0,.73-.16.91.91,0,0,1,.36-.32c.36-.14.63-.21.26-.69-.19-.26-.06-.69-.45-1A2.14,2.14,0,0,1,36,17.88C35.89,17.3,35.43,17.53,35.16,17.2Zm3.52-4.26a6.69,6.69,0,0,0,1.43-.61c.09,0,.09-.17.07-.28a.69.69,0,0,0-.84-.41,1.65,1.65,0,0,0-.87,1C38.42,12.85,38.45,13,38.68,12.94ZM7.73,29.52c-.05.12,0,.18.15.24.3.14.6.3.9.46.08,0,.15.13.23,0s0-.19-.1-.25l-.76-.67c-.09-.07-.15-.2-.29-.15S7.79,29.39,7.73,29.52ZM37,29.83h.43c.2,0,.26-.12.29-.27s.06-.23,0-.29a.31.31,0,0,0-.36.1C37.23,29.5,37,29.57,37,29.83Zm-29.43-.7c-.13-.18-.37-.2-.55-.32s-.19.05-.16.15a.54.54,0,0,0,.5.32A.17.17,0,0,0,7.61,29.13Z"/><path d="M47.24,20.69a1.22,1.22,0,0,1-.07-.72c.23-1,.15-2,.3-3,.05-.31,0-.55-.43-.47s-.52-.37-.92-.09c.07-.32,0-.65.27-.73a.79.79,0,0,1,.82.2c.26.27.54.25.63-.05a10.22,10.22,0,0,1,.88-1.67c.14-.26,0-.6.28-.84.09-.09.14-.24.28-.32s.22-.12.23-.2c.06-.5.47-.64.82-.89s.64-.3.93,0a2.7,2.7,0,0,1,.64,1.3.41.41,0,0,1-.28.51.26.26,0,0,1-.31-.25c.06-.34-.17-.58-.23-.87s-.31-.25-.47-.16A3.11,3.11,0,0,0,49,14.57c-.09.4-.55.6-.62,1,0,.13-.11.28,0,.38.3.38.59.82,1.12.87.34,0,.67.06,1,.11s.28.13.28.3-.07.28-.27.28a2.23,2.23,0,0,1-1-.14,4.2,4.2,0,0,0-1.25-.24c-.25,0-.32.19-.33.39a21,21,0,0,1-.34,2.51A1.32,1.32,0,0,1,47.24,20.69Z"/><path d="M28.23,9.91a2.1,2.1,0,0,1,.29-1.62c.13-.29-.22-.45-.19-.73,0-.06-.23,0-.35.08-.52.21-1,.41-1.55.64s-.74.38-.67.92a.82.82,0,0,1-.18.58c-.28.33-.13.61.06.87.09.11.18.22.13.35-.26.62,0,1.29-.21,1.92a9.19,9.19,0,0,1-.35.92.36.36,0,0,1-.48.18c-.16-.08-.18-.28-.11-.47A4.44,4.44,0,0,0,25,12.18,7.41,7.41,0,0,0,24.81,11a2.69,2.69,0,0,1,.39-1.65.56.56,0,0,0-.06-.68c-.18-.22,0-.42.15-.59s.23-.08.14-.17c-.39-.42,0-.73.13-1.07,0-.07,0-.17.11-.16a.19.19,0,0,1,.15.14c.05.15,0,.32.09.48s.21.41.51.18a1,1,0,0,1,1.07-.23c.11.06.33.07.36-.07.08-.35.4-.27.59-.36.35-.14.54,0,.56.43a4.88,4.88,0,0,1-.52,2.46.3.3,0,0,1-.26.22Z"/><path d="M21.65,45c-.08,1.15-.51,1.51-1.5,1.22-.52-.15-.91,0-1.17.72a3.68,3.68,0,0,0-.19,1.23c0,.31.4.64.72.69s.72-.11.73,0-.4.42-.64.57c-.49.32-.7.16-1.1-.28a1.83,1.83,0,0,1-.19-2.11c.11-.33.29-.77-.15-1.11-.12-.09-.16-.4.06-.43.66-.09.81-.65,1.05-1.09a1.16,1.16,0,0,1,1.25-.77c.22,0,.37-.24.65,0A1.68,1.68,0,0,1,21.65,45Zm-.51,0c0-.17.08-.35-.06-.49s-1.19-.09-1.28.14a3.52,3.52,0,0,1-.55,1,.24.24,0,0,0,.06.33.14.14,0,0,0,.23,0c.27-.42.62-.24.95-.14s.52,0,.59-.35C21.1,45.26,21.12,45.11,21.14,45Z"/><path d="M30.38,50.73a1.42,1.42,0,0,1-1.12-.82A2.53,2.53,0,0,1,29.42,48c.12-.29.42-.39.69-.52a2,2,0,0,1,1-.13c.17,0,.42,0,.28.35s.07.16.18.15c.44,0,.6.32.78.63a.24.24,0,0,1-.07.33c-.13.09-.22,0-.29-.11a2.2,2.2,0,0,0-1-.67c-.29-.14-1.09.42-1.12.75a4,4,0,0,1-.11.68c-.08.38.33.49.54.63.52.32.93.77,1.46,1.07.22.12.21.4.2.61a3,3,0,0,1-.49,1.61,1.31,1.31,0,0,1-1.26.59,7,7,0,0,1-1.46-.49.32.32,0,0,1-.22-.39c0-.22,0-.47.2-.62s.2,0,.29.11c.88.76,1.51.86,2.33.1a.26.26,0,0,0,.11-.34.61.61,0,0,1-.07-.39c.18-.61-.41-.78-.66-1.14A.21.21,0,0,0,30.38,50.73Z"/><path d="M11.8,46.07a2.42,2.42,0,0,1-.16-1.38,8.85,8.85,0,0,0,.06-1.62c-.09-.82.13-1.61,0-2.41-.05-.31.24-.55.25-.88,0-.16.15-.3,0-.48s.35-.75.45-.76.19.12.17.24a2.56,2.56,0,0,1-.17.6c-.36.83,0,1.74-.29,2.56s0,1.62-.17,2.41c0,.08-.05.23.11.24s.28-.08.25-.24c-.07-.35.14-.51.38-.69a2.89,2.89,0,0,0,.64-.79c.2-.3.37-.62.79-.66a.19.19,0,0,0,.19-.16c0-.28.21-.29.41-.32,0,0,.12,0,.17,0s0-.38.32-.22a1.48,1.48,0,0,1,.7.78,4.08,4.08,0,0,1,.07.52c.07.36.07.73.13,1.1s.19.94.24,1.41c0,.17,0,.29-.22.33s-.24-.13-.24-.28a2.59,2.59,0,0,1,0-.92c.06-.22.1-.47-.18-.63s-.15-.32-.18-.49,0-.36-.08-.54a.48.48,0,0,0-.71-.38c-.16.06-.32.09-.47.14a.55.55,0,0,0-.48.49,1.6,1.6,0,0,1-.54.74,3,3,0,0,0-.66,1.1A3.71,3.71,0,0,1,11.8,46.07Z"/><path d="M9.2,44.06c-.25.4-.47.76-1.06.63-.26-.06-.52.27-.83.35a.79.79,0,0,1-1-.79A12.17,12.17,0,0,1,6.62,42a.34.34,0,0,0-.08-.37c-.14-.11-.26,0-.36.08s-.31.08-.43-.08,0-.28.13-.38A2.13,2.13,0,0,1,6.3,41c.18-.05.41.18.5,0A1.85,1.85,0,0,0,7,40.1a4.9,4.9,0,0,1,.18-1.53c.07-.28.26-.54.1-.86a.34.34,0,0,1,.09-.28.65.65,0,0,0,.25-.67.19.19,0,0,1,.14-.25c.13,0,.15.12.19.21a.66.66,0,0,1,0,.44c-.23.71-.25,1.46-.42,2.18-.1.4.07.82-.15,1.22-.1.19.17.33.36.37a1.44,1.44,0,0,1,.63.22c.07.05.16.09.16.19s-.11.11-.2.14a8.45,8.45,0,0,1-.89.3q-.36.07-.33.39c0,.56-.24,1.07-.15,1.66.06.41.22.45.5.48A3.28,3.28,0,0,0,9.2,44.06Z"/><path d="M29.05,47.72c-.27-.58-.92-.45-1.32-.81-.11-.1-.3.05-.47,0a3.58,3.58,0,0,0-2.05,0c-.36.1-.77,1.07-.66,1.56a12.61,12.61,0,0,1,.11,1.74c0,.21-.16.34-.24.51s-.16.06-.24,0a.31.31,0,0,1-.22-.35,6.07,6.07,0,0,0-.4-2.39.92.92,0,0,1,0-.69.23.23,0,0,0,0-.32s-.07,0-.06-.06c.23-.54-.21-1-.05-1.58,0-.13.09-.29.24-.29s.19.17.21.3a2.14,2.14,0,0,1,.06.62,1.76,1.76,0,0,0,.1.91c.05.12,0,.31.18.32a.45.45,0,0,0,.42-.28c.07-.11.07-.26.13-.38s.11-.28.33-.19.46-.09.67-.16a3,3,0,0,1,1.44.15,11.16,11.16,0,0,1,1.46.37A.62.62,0,0,1,29.05,47.72Z"/><path d="M55.57,25.12a5,5,0,0,1,.2-1.15c0-.07,0-.16,0-.22-.34-.88.24-1.67.25-2.52a.2.2,0,0,1,.2-.2c.16,0,.19.13.17.26,0,.4-.09.8-.15,1.19,0,.12,0,.22.1.28s.19,0,.28-.07c.42-.15.71-.6,1.23-.53,0,0,.09-.05.14-.09A1.19,1.19,0,0,1,59.4,22c.11.05.21.17.29,0s0-.4.24-.29a.61.61,0,0,1,.33.5.66.66,0,0,1-.2.47c-.15.11-.29,0-.39-.19s-.14-.12-.18-.1c-.33.14-.69,0-1,.1a4.68,4.68,0,0,0-1.38.68,1.83,1.83,0,0,0-.75,1.42,1.38,1.38,0,0,1-.17.59.59.59,0,0,0,0,.08c-.12.19-.29.39-.49.32S55.59,25.24,55.57,25.12Z"/><path d="M33.45,8.32a.49.49,0,0,1,.2.64c-.26.31-.07.68-.22,1-.06.12-.09.28,0,.37s.2-.12.3-.16c.37-.16.48-.71,1-.66.11,0,.21-.09.29-.19.27-.37.71-.29,1-.27s.29.44.35.71c0,.11,0,.23.06.35a4.57,4.57,0,0,1-.09,2.46c0,.11,0,.28-.18.26s-.12-.19-.12-.29c0-.6-.25-1.23.13-1.8l0-.08c-.4-.17-.24-.69-.58-.91s-.54,0-.82,0c0,0-.12.23-.22.3a4.08,4.08,0,0,0-1,1.36,7.27,7.27,0,0,0-.53.71c-.06.12-.18.18-.28,0s-.3-.16-.13-.36a1.54,1.54,0,0,0,.18-1.38A.69.69,0,0,1,33,9.93a1,1,0,0,0,.14-.76C33.07,8.83,33.36,8.62,33.45,8.32Z"/><path d="M22.23,11.43a6.17,6.17,0,0,1-.56,1.78c-.07.1-.09.23-.25.18s-.25-.12-.25-.28a1.63,1.63,0,0,1,0-.31c.11-.63,0-1.27.18-1.92.07-.28-.09-.67.08-1,.31-.58,0-1.22.19-1.82.09-.26,0-.57.13-.84a.33.33,0,0,0,0-.24,1.06,1.06,0,0,1,.87-1.55,1.33,1.33,0,0,0,.34-.1c.3-.18.29-.18.63,0a2,2,0,0,1-1,.83c-.53.23-.47.78-.49,1.24a5.46,5.46,0,0,1,0,.57,9.88,9.88,0,0,0-.28,1.7,7.24,7.24,0,0,0-.06,1.47.61.61,0,0,0,0,.14c.06.16-.27.35,0,.45S22.11,11.64,22.23,11.43Z"/><path d="M.15,40.43c.13.13.29.17.38.32s.87,0,1-.31a2.33,2.33,0,0,1,.4-.57,4.1,4.1,0,0,0,.61-1.61c.06-.16-.47-.73-.67-.68-.36.09-.31-.18-.34-.35a.79.79,0,0,1,.33-.68c.21-.18.46,0,.67.08s.23.33.17.55a.87.87,0,0,0,0,.53,2.4,2.4,0,0,1-.37,2c-.24.44-.54.85-.8,1.26s-.41.71-.89.79-.76-.13-.65-.66a.69.69,0,0,0,0-.58.24.24,0,0,1,0-.22c.4-.38.21-.92.38-1.36,0-.09,0-.22.12-.27s.17-.16.28-.11.06.17,0,.27A4.23,4.23,0,0,0,.53,40.2C.55,40.45.28,40.32.15,40.43Z"/><path d="M51.29,22.54c-.56.2-.61-.32-.73-.55a.83.83,0,0,1,.23-1,.62.62,0,0,0,.23-.7c0-.08-.05-.16,0-.21.44-.37.48-.95.75-1.4s.53-.4.84-.06a2.06,2.06,0,0,1,.69,1.67,1.46,1.46,0,0,1-.58,1.11c-.39.29-.6.76-1,1C51.56,22.51,51.47,22.72,51.29,22.54Zm-.19-.94c.07.2-.16.44.12.5a.59.59,0,0,0,.62-.16,2.39,2.39,0,0,1,.69-.62A1.25,1.25,0,0,0,52.84,20c-.19-.37-1-.51-1.18-.19A3.66,3.66,0,0,0,51.1,21.6Z"/><path d="M20,5.31c0,.58-.06,1-.48,1.35-.24.2-.22.66-.48,1a1.69,1.69,0,0,1-.94.45c-.18,0-.47-.58-.41-.89a7.81,7.81,0,0,1,.25-1A8.5,8.5,0,0,1,18.34,5a2.78,2.78,0,0,1,.73-.86c.22-.2.43-.13.61.09A1.71,1.71,0,0,1,20,5.31Zm-.49.43c0-.49-.2-.78-.44-.67a1.38,1.38,0,0,0-.63.52,3.63,3.63,0,0,0-.34,1.32c0,.17-.19.33.08.48s.37,0,.52-.12C19.28,6.88,19.25,6.18,19.51,5.74Z"/><path d="M9.82,2.29c0,.15-.09.32-.23.37-.44.13-.21.26,0,.46a1.77,1.77,0,0,1,.27.78c0,.17.1.32.29.23.52-.22.55.29.73.51a.63.63,0,0,1,0,.83A3.48,3.48,0,0,1,9.46,6.68a3.35,3.35,0,0,1-1.18,0,.2.2,0,0,1-.15-.28c.09-.19.28-.37.46-.26.36.22.64,0,1,0s.36-.39.54-.58c.42-.47.36-.44-.06-.92a6,6,0,0,1-1.28-1.5c-.11-.25-.09-.4.09-.52s.56-.51,1-.29Z"/><path d="M24.4,5.28c-.14,0-.3.08-.37-.09s0-.15.07-.2a.23.23,0,0,1,.35-.08.66.66,0,0,0,.64,0c.29-.13.39,0,.41.29a2.69,2.69,0,0,1-.23,1.46,5.11,5.11,0,0,1-1.44,1.9c-.35.25-.79.34-1.09.69a.2.2,0,0,1-.25,0c-.14-.14,0-.34-.08-.51a.11.11,0,0,1,.15-.11c.6.16.85-.28,1.16-.65.49-.58.92-1.21,1.36-1.83a.52.52,0,0,0,0-.54A.57.57,0,0,0,24.4,5.28Z"/><path d="M14.83,4.27c0,.09,0,.26-.11.25-.49-.06-.56.46-.9.62a.93.93,0,0,0-.46.73,2.72,2.72,0,0,1-.41,1c0,.08-.09.17-.19.15a.25.25,0,0,1-.2-.22,4.42,4.42,0,0,1,.25-1.65s0-.06.06-.06C13.6,5,14,4.13,14.83,4.27Z"/><path d="M15,4c.31-.32.65-.23.87-.41a2.59,2.59,0,0,1,.27.62,9.82,9.82,0,0,1,.26,2.16,1,1,0,0,0,.13.73c.1.13-.22.81-.38.84s-.31-.19-.33-.36a1,1,0,0,1,.06-.48,4.35,4.35,0,0,0,0-2.85C15.74,3.88,15.4,4,15,4Z"/><path d="M30,11.74c0-.4,0-.76,0-1.13A4,4,0,0,1,30,9.06c.07-.28.33-.51.23-.84,0-.08.15-.11.22-.06s.4.44.28.61c-.31.43-.07.89-.18,1.33s0,.68-.26,1c-.06,0,0,.2,0,.3S30.22,11.65,30,11.74Z"/><path d="M13.26,2.81c0,.56-.08,1-.11,1.48,0,.08,0,.21-.11.17s-.19-.08-.15-.18c.21-.55-.06-1.12.1-1.68.11-.37-.07-.75,0-1.15S13.2.71,13,.32c-.07-.14.13-.26.26-.31s.24.09.28.22a1.12,1.12,0,0,1,0,.7c-.15.41-.17.85-.35,1.25C13.08,2.4,13.33,2.65,13.26,2.81Z"/><path d="M28.22,9.9a3.19,3.19,0,0,1-1.46,1.59.31.31,0,0,1-.44-.09c-.08-.16-.2-.38-.08-.55s.26-.12.44-.08c.44.07.66-.33,1-.54s.29-.38.58-.32Z"/><path d="M16.37,46.3a.79.79,0,0,1-.1.51c-.09.13-.11.41-.33.35s0-.27,0-.42,0-.21,0-.3c-.13-.34,0-.59.32-.61S16.28,46.17,16.37,46.3Z"/><path d="M9.83,2.3c.08-.49.5-.3.75-.31a.8.8,0,0,1,.72.39c0,.05,0,.12-.05.14-.3.07-.49-.12-.7-.3s-.48.12-.73.07Z"/><path d="M31.29,5.89c.16,0,.25.09.23.2s-.1.38-.31.44A.17.17,0,0,1,31,6.35C31,6.15,31.25,6.08,31.29,5.89Z"/></g><g class="cls-5"><path class="cls-4" d="M52,38.09a2.21,2.21,0,0,0,.05-.51.81.81,0,0,0,0-.22,1.65,1.65,0,0,0-.1-.44,3.13,3.13,0,0,0-.33-.72,3.9,3.9,0,0,0-.4-.51,6.55,6.55,0,0,0-.56-.49l-.51-.32-.61-.28-.63-.19A2.6,2.6,0,0,0,48,34.3a1.15,1.15,0,0,0-.49,0,.7.7,0,0,0-.4.12.36.36,0,0,0-.26.22.4.4,0,0,0-.12.44,6,6,0,0,0,.45,1.32A5.15,5.15,0,0,0,48,37.66a3.24,3.24,0,0,0,.66.51,4,4,0,0,0,.87.44,3.76,3.76,0,0,0,.93.25,3,3,0,0,0,.84.06l.45-.08a.78.78,0,0,0,.53-.42l0-.32a1.42,1.42,0,0,0-.41-.71l-.13-.15.28.36a3.89,3.89,0,0,1-.54-1l.14.35a4.44,4.44,0,0,1-.21-.71l-3.9-.09,0,0-.41-.35a1.62,1.62,0,0,1,.18.19l-.28-.36a1.5,1.5,0,0,1,.23.41l-.13-.35a1.8,1.8,0,0,1,.11.73l0-.32,0,.15a.56.56,0,0,0,.05.49,1.06,1.06,0,0,0,.35.54,2.77,2.77,0,0,0,.66.51,4,4,0,0,0,.87.44l.63.19a3.63,3.63,0,0,0,1.14.12l.45-.08a.74.74,0,0,0,.52-.42Z"/></g></g></g></svg>