<svg xmlns="http://www.w3.org/2000/svg" viewBox="0 0 98.39 72.93"><defs><style>.cls-1{opacity:0.4;}.cls-2{fill:#b27440;}.cls-3{opacity:0.2;}.cls-4{opacity:0.3;}.cls-5{fill:#936226;}.cls-6{fill:#c4dbf2;}</style></defs><g id="Layer_2" data-name="Layer 2"><g id="Layer_1-2" data-name="Layer 1"><g class="cls-1"><path class="cls-2" d="M53.46,34.19A11.44,11.44,0,0,1,54.78,33a5.07,5.07,0,0,1,.55-.34A2.19,2.19,0,0,0,56,32c.66-.85.76-2,1.44-2.83l-.29.34.1-.11a.82.82,0,0,0,.36-.55.93.93,0,0,0,0-.68,2.6,2.6,0,0,0-.93-1.39,3.5,3.5,0,0,0-1.76-.8l-.57,0a1.63,1.63,0,0,0-.92.32,4.81,4.81,0,0,0-.75,1,7.91,7.91,0,0,0-.37.84,5.37,5.37,0,0,1-.77,1.53l.29-.34a6.44,6.44,0,0,1-.92.62,14.2,14.2,0,0,0-1.21,1.12,1.26,1.26,0,0,0-.4,1.23,2.62,2.62,0,0,0,.93,1.4,3.49,3.49,0,0,0,1.76.79,1.88,1.88,0,0,0,1.48-.29Z"/></g><g class="cls-1"><path class="cls-2" d="M81.19,28.68a7,7,0,0,1-.8,2.75,3.86,3.86,0,0,0,.91,4.23c1.46,1.48,3.27,3.47,5.49,3.43a2.1,2.1,0,0,0,1.81-1.34c1.31-2.47-1.18-4.85-1.1-7.26l-4.64-1c0,3.69,3.56,6.3,3,10.11a4.12,4.12,0,0,1-.84,2c-.47.62-.64.38-1.43.47-.46,0-.91.19-1.37.26-.17,0-1.08.17-.9.09l.16.07c-.26-.13-.25-.11,0,0,.28.33.25.63.21.18-.06-.16,0-.13,0,.1,0-.15-.06-.29-.08-.44s-.05-.48-.06-.72c0,.31,0-.44,0-.53,0-.3,0-.6,0-.9a11.1,11.1,0,0,0-.37-3.85,36.6,36.6,0,0,0-1.61-4.91c-.44-.88-.57-1.82-.94-2.72s-.9-1.91-1.3-2.9c-1-2.43-4.81-2-4.42.88,0-.07.4-1.31.59-1.23a2.44,2.44,0,0,0-.47.17,3.32,3.32,0,0,1-.92.2c-.57-.05-1.18-.77-1.82-1a2.16,2.16,0,0,0-3.1,2.29,6.48,6.48,0,0,0,.75,2.22c.27.66.31,1.39.62,2.05.61,1.33,1.59,2.49,2.3,3.77a32.17,32.17,0,0,1,2.12,4.13c.25.69.5,1.39.71,2.09a5.57,5.57,0,0,1,.2.92c0,.09-.07.84-.07.84a.42.42,0,0,0,.68-.34c0-.06-.11,0-.13,0-.18-.55-1.25-.85-1.6-1.28a6,6,0,0,1-.57-1.4c-.33-.77-.71-1.51-1-2.3A12.16,12.16,0,0,0,69,33.73a5.23,5.23,0,0,0-.78-.78c-.31-.33-.36-.34-.17,0L68,32.56a6.42,6.42,0,0,0-.65-1.28l-.2-.23c-.67-.81-.65-.62.05.57l-.41,1.11c.57-1-.54.24-.43.27l-1.12-.54c-.29-.56-.37-.68-.23-.37a2.86,2.86,0,0,1,.15.41c.07.19.13.39.21.59.28.73.72,1.36,1.06,2.07.24.5.36,1,.58,1.54a14,14,0,0,1,.87,1.67l3.63-1.95c.49.47.14.4.14,0a4.45,4.45,0,0,0-.33-1.21,19.86,19.86,0,0,0-1-2.54,11.66,11.66,0,0,0-2.71-3.83,2.41,2.41,0,0,0-2.82-.19,7.54,7.54,0,0,0-2.25,1.53A7.84,7.84,0,0,0,61.08,33a13.27,13.27,0,0,0-.51,6.9c.1.47.26.93.38,1.4.06.23.1,1.23.26,1.38-.07-.33.14-.58.63-.77.19-.06.13-.07-.2,0-.3-.11-.68,0-1-.11.32.13-.12-.13-.24-.25-.35-.36-.67-.77-1-1.15-.09-.1-1-1.2-1.18-1.2.41,0-.09,1.72.38.64l-1.81,1.34c-.72,0,.3.49.55.7.44.37.87.74,1.29,1.14A7.31,7.31,0,0,0,62,45.15c2.86.63,4.24-2.23,6.71-2.84,1.94-.48,1.52-3.12.38-4.11a14,14,0,0,0-1.71-1.12l-.89-.55c-.4-.25.28.29,0,0a2.22,2.22,0,0,0-3.24.23,6.92,6.92,0,0,0-.74,4.05c0,.56,0,1.12.08,1.67,0,.22,0,1.15,0,1.18s.88-.73.89-.76c.2,0,.22,0,.05,0l-.36-.07c-.37-.09-.74-.2-1.12-.28a4.32,4.32,0,0,0-3.28.45A2.15,2.15,0,0,0,58,45.1a4.52,4.52,0,0,0,.93,2.08L58.37,46c.13.5,0,1,.23,1.56a10.15,10.15,0,0,0,1,1.77,12.9,12.9,0,0,1,.56,1.19c.25.53.65,1,.88,1.51l-.19-1.23a4.66,4.66,0,0,0,1.1,3.54c.33.42.72.83,1,1.27s.5,1,.83,1.45a11.63,11.63,0,0,0,6.53,4.13l-1.11-.55c.17.14.12.21.09.09s.14.25.13.23c.14.4.34.79.48,1.19.35,1,.67,2,1,2.92s.94,2.11,1.32,3.2A11.26,11.26,0,0,0,74.3,71.5a2.22,2.22,0,0,0,3.91-2.08c-.43-1.34-1.23-2.53-1.79-3.82s-1.23-2.28-1.84-3.4a8.13,8.13,0,0,0-3.33-3.37,11.12,11.12,0,0,1-3-2.38,13.29,13.29,0,0,0-3.23-2.89,2.79,2.79,0,0,1-1.37-2.06,7.22,7.22,0,0,0-.87-2s-.48-.69-.5-.68,0,.37,0,.35c0,.35.17-.42.21-.49a3.45,3.45,0,0,1,.3-.61,4.91,4.91,0,0,1,1-1.27L61.62,47c.74.25-.37-.2-.23-.36a8.38,8.38,0,0,0,.31.81c.22.62.43,1.23.68,1.83.6,1.49,1.28,3,1.8,4.46a4.83,4.83,0,0,0,2.39,3.17A2.45,2.45,0,0,0,70,55.49c.62-1.87,0-4.26-.22-6.15-.1-.72-.27-1.46-.3-2.18a13.65,13.65,0,0,0-.1-2.12c-.16-.86-.48-1.68-.65-2.55L64.64,44c.73,1.11.79,2.66,1.08,3.93a25.25,25.25,0,0,0,1.77,4.91c.67,1.49,1.09,3.27,2.17,4.53s3.33,2,4.51.28.09-4.54-.53-6.43c0-.14-.08-.25,0-.05-.13-.42-.22-.86-.32-1.3-.21-.92-.38-1.87-.66-2.77s-.68-1.51-.91-2.3-.42-1.93-.69-2.89a2.74,2.74,0,0,0-2.38-2.25,2.06,2.06,0,0,0-2.23,1.91c0,2.55,1.15,5.14,2.1,7.49s1.71,5.35,3.43,7.28c1.18,1.33,3.13,1.53,4-.26s-.22-4.53-.69-6.39c-.54-2.12-1.46-4.18-1.82-6.33C73,40.91,69,40,68.81,43a8.55,8.55,0,0,0,.78,3.85,24.05,24.05,0,0,1,1.09,3.3A34.83,34.83,0,0,0,72.08,54a11,11,0,0,0,1.4,2.93c1.28,1.64,3.72,1.29,4.11-.84a12.81,12.81,0,0,0-.43-5.77c-.53-1.84-1.47-3.56-1.63-5.49l-4.43.88q.84,2.81,1.83,5.57c.83,2.28,1.89,6.08,5,5.44a2,2,0,0,0,1.36-1.81c-.07-3.37-.95-6.64-1-10L75.2,46.55l0,0-1-.84c.25.28-.37-.47-.13-.2s-.08-.35,0,.08.19.86.27,1.29c.13.7.23,1.42.37,2.12A23.54,23.54,0,0,0,76,52.8c.49,1.31.83,2.76,2,3.6s3.09.92,3.52-.75a12.94,12.94,0,0,0-.13-4.88c-.25-1.8-.54-3.59-.76-5.39l-4.6.26c.43,1.52.82,3,1.25,4.58a36.16,36.16,0,0,0,1.18,4.22,2.48,2.48,0,0,0,3.61,1.26c1.5-.84,1.45-3.42,1.47-4.88,0-1.74-.06-3.48-.18-5.21L80.87,48.1c-1.59-.31-1.8-2-1.37-.79-.15-.44,0,.07,0,.24.11.53.2,1.07.28,1.61a17.51,17.51,0,0,0,.54,2.78c.68,2,4.51,2.31,4.44-.27,0-1.9-.32-4,.26-5.85l-4,.27a5.77,5.77,0,0,1,.34,2.56c0,1.07.11,2.13.07,3.2a2.75,2.75,0,0,0,2.1,2.84,2.11,2.11,0,0,0,2.54-1.88c.29-2.58,1-5.11,1-7.73l-4.64-1v5.17a2.79,2.79,0,0,0,2.11,2.84,2.09,2.09,0,0,0,2.53-1.88,20.19,20.19,0,0,1,1-5.1,20,20,0,0,0,.66-5.22l-4.64-1c0,5.62.83,11.66-1.58,16.94l4.51,1.55a8.33,8.33,0,0,1,.07-2.06c.17-.76.46-1.48.67-2.23.44-1.61.69-3.28,1-4.92.4-2-3-4.18-4.23-2.07a13.94,13.94,0,0,0-1.47,4,9,9,0,0,1-1.37,3.62,17.54,17.54,0,0,1-1.24,1.35,8.53,8.53,0,0,0-.8.8c-.09-.33,1.48.58,1-.11a6.09,6.09,0,0,0-3-1.64c-2.92-.81-4.8,1.68-4.52,4.43a14.4,14.4,0,0,0,1.26,3.82c.22.52.35,1.08.58,1.59a6.93,6.93,0,0,0,1.56,2l-.8-1.07.15.26L79,62.28c.33.21.34.37.15,0a4.73,4.73,0,0,0-.35-.56,9.27,9.27,0,0,0-.92-1.17A18.83,18.83,0,0,0,75.33,58a2.37,2.37,0,0,0-2.56-.33A2.13,2.13,0,0,0,71.7,60a23.63,23.63,0,0,0,1.77,4.29c.72,1.5,1.39,3,2.18,4.49S77.85,71,79.26,70c1.71-1.15.73-4.25.39-5.86a18.74,18.74,0,0,0-1.82-5.84l-1.41,3.74h0l-1.18-.24c-.2-.08-.8-.75-.75-.59s.16.2.21.32c.19.46-.24-.46,0,0,.09.18.19.36.29.54.48.91.93,1.83,1.38,2.75.72,1.45,1.37,3.41,2.62,4.5a2.18,2.18,0,0,0,3.63-1.95,39.43,39.43,0,0,0-1.68-7l-4.25,1.5c.54,1.39,1.46,2.71,2.1,4.07a11.35,11.35,0,0,0,2.65,3.83c1.42,1.3,4.2.14,3.63-1.94a38.94,38.94,0,0,0-1.29-4c-.36-.92-1.14-2-1.2-3l-4.09,1.46c.8.86,1.53,1.79,2.33,2.66a31.22,31.22,0,0,1,2.24,2.36c1.32,1.75,4.66,1.08,4.09-1.46-.62-2.76-3-4.52-4.41-6.89L79.2,61.7c1,1.1,1.83,2.32,2.85,3.4a19.28,19.28,0,0,0,3.09,2.53,2.28,2.28,0,0,0,3,0,2.42,2.42,0,0,0,.09-3.13,33,33,0,0,1-2.51-3.78c-.36-.59-.74-1.18-1.11-1.76-.23-.36-.45-.73-.7-1.07l-.18-.23c-.27-.36-.26-.28,0,.25l-.1,1.2.09-.31L82,60.12a1.82,1.82,0,0,1-1-.3c-.2-.23-.19-.22,0,0s.43.58.62.88c.31.47.57,1,.86,1.45a10.66,10.66,0,0,0,3.45,4c1.84,1.12,3.74-1.14,2.92-2.9S87.09,59.76,86.3,58L82.38,60a19.25,19.25,0,0,1,1.76,2.67c.72,1.08,1.46,2.15,2.24,3.19,1.33,1.77,2.82,3.94,5,4.55l-.17-4.76a2.26,2.26,0,0,1-.52-.26,2.16,2.16,0,0,0-3,1.1,2.71,2.71,0,0,0,1.4,3.23,6.83,6.83,0,0,0,2.87.74c1.17.08,2-1.22,1.93-2.23a2.75,2.75,0,0,0-2.09-2.53c.58.16.16,0-.12-.37s-.4-.48-.61-.72a30.08,30.08,0,0,1-2-2.53c-.59-.84-1.2-1.67-1.73-2.54A12.87,12.87,0,0,0,86,57.37c-.79-.84-1.89-1.45-3-.82a2.26,2.26,0,0,0-.9,2.9c.79,1.8,1.76,3.52,2.59,5.31l2.92-2.91c.25.15-.37-.6-.42-.68-.25-.37-.48-.76-.72-1.14-.33-.54-.63-1.08-1-1.62-.89-1.45-2.29-3.32-4.22-3.1a2,2,0,0,0-1.81,1.34c-.69,2.27.85,3.71,2,5.49a48.8,48.8,0,0,0,3.27,5L87.81,64a16.14,16.14,0,0,1-2.65-2.07c-.85-.91-1.54-2-2.38-2.89a2.45,2.45,0,0,0-3.28-.68c-1.15.85-.92,2.27-.3,3.34a19.78,19.78,0,0,0,1.91,2.65c.37.46,1.35,1.26,1.48,1.84l4.1-1.46a28.62,28.62,0,0,0-2.4-2.53c-.76-.79-1.43-1.68-2.18-2.49C80.53,58,77.84,58.56,78,61.17a10.42,10.42,0,0,0,1.2,3.32,28.47,28.47,0,0,1,1.3,3.59l3.63-2a7.42,7.42,0,0,1-1.47-2.54c-.51-1.08-1.29-2.16-1.7-3.23-1.12-2.87-5.41-1.52-4.25,1.5a31.8,31.8,0,0,1,1.33,5.81l3.63-2c.61.53.46.48.25.2s.29.59.06.09-.43-.82-.64-1.24c-.48-1-1-1.93-1.44-2.9-.83-1.67-1.93-4.78-4.26-4.61-2,.14-2.28,2.32-1.42,3.73-.52-.86-.17-.3-.08,0s.29.94.15.45c.24.82.44,1.65.63,2.49s.34,1.59.47,2.4c0,.31.07.63.13.94s-.05.08,0-.12c-.27.88,1.67-1.77.73-1.13l3.61,1.26c-.71-1.33-1.33-2.7-2-4.06a22.06,22.06,0,0,1-1.62-3.49l-3.63,1.94c1.89,1.4,2.76,3.68,4.74,4.93,1.73,1.1,3.9-1.17,2.92-2.91a6.94,6.94,0,0,0-.71-1.08l-.33-.35c-.19-.21-.15-.13.13.24a12.52,12.52,0,0,0-.52-1.45c-.19-.48-.42-.95-.62-1.44,0-.07-.29-1.14-.33-1.16s0,0,0-.05l-.43.33c-.58,0-.72,0-.43.05a2.52,2.52,0,0,1,.69.34c-.26-.16.12.1.2.16l.45.33a4.81,4.81,0,0,0,1.92,1c1.38.27,2.32-.52,3.22-1.44a17.08,17.08,0,0,0,2.56-2.88c1.31-2.14,1.15-4.77,2.37-6.89l-4.23-2.07a44.27,44.27,0,0,1-1,4.6,14.24,14.24,0,0,0-.75,4.62,2.75,2.75,0,0,0,1.81,2.74A2.13,2.13,0,0,0,87,58c2.6-5.68,1.86-12.06,1.84-18.11a2.77,2.77,0,0,0-2.11-2.84A2.09,2.09,0,0,0,84.22,39a17.17,17.17,0,0,1-.67,4.94,20.25,20.25,0,0,0-1,5.38l4.64,1V45.08a2.78,2.78,0,0,0-2.1-2.84,2.11,2.11,0,0,0-2.54,1.88c-.06,2.61-.74,5.14-1,7.73l4.64,1A46.21,46.21,0,0,0,86,48a8.64,8.64,0,0,0-1.33-4.53c-.9-1.39-3.42-1.51-4,.27a21.16,21.16,0,0,0-.52,7l4.45-.27c.2.6.1.43,0,0l-.12-.81c-.11-.74-.22-1.48-.37-2.21-.34-1.64-1-3.66-2.86-4a2.14,2.14,0,0,0-2.52,2.49c.09,1.31.14,2.25.14,3.44,0,.73,0,1.47-.08,2.19,0,.15,0,.3,0,.44,0,.33.06.1,0,0,.06.17-.26.4,0,.15.06-.07.46-.47.3-.39L82.72,53a34,34,0,0,1-1-3.46c-.38-1.37-.74-2.74-1.12-4.11A2.75,2.75,0,0,0,78,43.1a2.15,2.15,0,0,0-1.92,2.54c.19,1.51.41,3,.63,4.49.1.68.19,1.37.27,2,0,.3.07.61.1.91s0,1,.11.43l3.52-.75c.39.27.21.48,0-.05q-.17-.49-.36-1c-.26-.7-.55-1.4-.77-2.12a19.85,19.85,0,0,1-.44-2.17c-.3-1.79-.51-4.32-2.37-5.21-1.24-.59-3.14.07-3.12,1.68a35.88,35.88,0,0,0,.39,5.28,34.21,34.21,0,0,1,.62,4.73L76,52.11h0l1.17-.07a2.23,2.23,0,0,1,1.33.85l-.12-.16c-.25-.36.25.56.07.12s-.37-.78-.53-1.17c-.44-1.06-.82-2.14-1.19-3.21-.48-1.42-1-2.85-1.38-4.29a2.54,2.54,0,0,0-2.79-1.6,2.15,2.15,0,0,0-1.63,2.48c.3,3.49,2.67,6.42,2,10l4.11-.84a9.66,9.66,0,0,1-.78-1.9,26.45,26.45,0,0,1-1.1-2.89,23.13,23.13,0,0,0-.85-3,6.24,6.24,0,0,1-.88-2.51l-4.62-.34A54.74,54.74,0,0,0,70.42,49c.24.87.45,1.75.65,2.63.11.44.21.89.31,1.33.05.26.11.52.17.78s.1.46,0,.13l4-.26c-1.32-1.49-1.86-3.88-2.59-5.7-.4-1-.75-2-1.12-3.06a8.29,8.29,0,0,1-.76-2.4l-4.62-.35a34.27,34.27,0,0,0,1.36,5A24.93,24.93,0,0,1,69,51.39c.21.8.48,1.56.74,2.34.13.39,0,0,.07.22s.1.41.14.61a4.91,4.91,0,0,0,.1.7c-.35-.44,1.21-1.4.94-1.26l1.75.13c.24.12.27.55.26.26a3.16,3.16,0,0,0-.22-.55c-.25-.64-.5-1.27-.77-1.9a31.44,31.44,0,0,1-1.57-3.74c-.7-2.39-.82-4.76-2.24-6.9-1.27-1.92-4.58-1-4.09,1.46.16.8.43,1.56.62,2.35a15,15,0,0,1,.13,2.22c.05.68.17,1.36.26,2,.14,1,.27,1.89.36,2.84l.06.73c0,.73,0-.4,0,.24a4.43,4.43,0,0,0,0,.51l0,.14c.07-.75.56-1.25,1.48-1.49l1.17.24s.54.51.55.51,0,0-.06-.17a4.15,4.15,0,0,0-.22-.68c-.28-.81-.61-1.6-.94-2.38-.6-1.43-1.11-2.89-1.69-4.33s-2.14-3.44-4-3.05c-1.65.34-2.88,2.54-3.49,4a5,5,0,0,0,.32,4.86,4.64,4.64,0,0,1,.7,1.15,11.64,11.64,0,0,0,1.1,2.74A5.86,5.86,0,0,0,62,57a20,20,0,0,1,2.06,1.32,35,35,0,0,0,3.67,3.74,23.87,23.87,0,0,1,2.35,1.4,10.45,10.45,0,0,1,1.37,2.39A25.73,25.73,0,0,1,74,70.92l3.91-2.08a14.85,14.85,0,0,1-1.1-1.28,9.87,9.87,0,0,1-.51-1.41c-.35-1-.84-1.84-1.18-2.79A22.29,22.29,0,0,0,73,58.19a4.76,4.76,0,0,0-2.55-1.81,10.14,10.14,0,0,1-2.23-1.18,7.17,7.17,0,0,1-1.54-2.11c-.52-.75-1.19-1.39-1.66-2.18l.51,1.19a8.72,8.72,0,0,0-.22-1.57A11.9,11.9,0,0,0,64.38,49c-.28-.5-.45-1.06-.74-1.56a9.27,9.27,0,0,1-.79-1.4L63,47.29a4.17,4.17,0,0,0,0-1.41c0-.14-.66-2-.46-1L61.74,47c-.61.15-.76.22-.46.19.15,0,.14,0,0,0a1.94,1.94,0,0,0,.49.1c.44.11.89.24,1.35.31a3.4,3.4,0,0,0,3.37-1,5.21,5.21,0,0,0,.75-3.67c0-.6-.07-1.19-.09-1.79,0-.24,0-.48,0-.73s.21-.95,0-.52l-3.24.23a7.89,7.89,0,0,0,1.59,1l.89.56c-.38-.25,0,0,.15.12l.38-4.1a11.71,11.71,0,0,0-3.43,1.79c-.32.22-.78.86-1.16,1,.39-.1.22.05,0-.28-1.47-1.76-3.84-3.73-6.17-3.86a2,2,0,0,0-1.81,1.34c-1.27,3,1,4.82,2.89,6.78,1.68,1.8,4.82,3.15,7.21,1.76,2.92-1.7.85-5.16.73-7.62a9.33,9.33,0,0,1,.58-3.89c.46-1.27.84-1.33,2.08-2l-2.82-.2c-.36-.26.15.25.24.38s.33.51.51.76a10.84,10.84,0,0,1,1,2.08c.64,1.57.82,3.05,2.16,4.32s4.19.11,3.63-1.94A27.37,27.37,0,0,0,70,32.62c-1-1.89-1.28-4.12-3.85-4.44a3.16,3.16,0,0,0-3.59,4,3.72,3.72,0,0,0,.73,1.32c.95,1.18.33.38.25.19.1.23.17.48.27.7A11.8,11.8,0,0,0,66,37a7.65,7.65,0,0,1,1.1,2.39c.39,1,.88,2,1.28,3A9.54,9.54,0,0,0,72.62,47c1.87,1,4.32.92,5.41-1.11s.51-4.51-.23-6.66a48.5,48.5,0,0,0-3.08-6.47c-.51-1-1.34-1.83-1.8-2.81a12.29,12.29,0,0,1-.42-1.5,7.41,7.41,0,0,1-.6-1.54l-3.09,2.29c.8.3,1.56,1,2.5,1.26a6.12,6.12,0,0,0,3.15,0c2-.45,3.45-1.75,3.16-3.94l-4.42.88c.33.85.73,1.67,1.11,2.5s.51,1.72.85,2.56a14.53,14.53,0,0,1,.9,1.92,26.35,26.35,0,0,0,.72,2.88c.08.2.25.87.16.35,0,.21.06.42.08.63,0,.4,0-.09,0,.33s0,.59,0,.88a18.39,18.39,0,0,0,.11,3.48c.57,3.24,3.22,4.81,6.37,4.19,1.61-.32,3.16-.1,4.46-1.3a8.42,8.42,0,0,0,2.47-4.62A12.13,12.13,0,0,0,89.8,35a24.86,24.86,0,0,0-1.43-2.82c-.19-.38-.37-.76-.54-1.15l-.21-.45c-.12-.29-.12-.8-.12-.1a2.78,2.78,0,0,0-2.11-2.84,2.09,2.09,0,0,0-2.53,1.88,13.79,13.79,0,0,0,.67,3.87A13.34,13.34,0,0,0,84,35c.08.21.16.42.25.63,0,0,.31-.68,0-.05L86,34.28c.73.34.87.34.43,0L86,33.87c-.22-.2-.46-.37-.69-.56s-.38-.36-.57-.54l-.36-.33c-.35-.34-.3-.28.16.2l.2,1.23c0-.73.6-1.62.74-2.39a11.28,11.28,0,0,0,.3-3.06,2.68,2.68,0,0,0-2.68-2.28,2.15,2.15,0,0,0-1.91,2.54Z"/></g><g class="cls-3"><path class="cls-2" d="M71.65,42.07c-1.6,1.37-1,3.25.22,4.63a3.8,3.8,0,0,0,2.27,1.11c.49,0,1.51,0,1.68-.62a2.68,2.68,0,0,0,.15-1l-4.61-1a8.93,8.93,0,0,0,.45,1.18c.13.28.26.55.41.82l.2.37.07.13c-.08-.16.14.3.17.37s.2.44.31.66a6,6,0,0,0,1,1.4,3.8,3.8,0,0,0,2.55,1.11c.58,0,1.56-.24,1.5-1a5.58,5.58,0,0,0-1.27-2.83,9.13,9.13,0,0,0-2.17-2.54,6,6,0,0,0-3.51-1,5.87,5.87,0,0,1-1,0h.21c-.19,0-.09,0,.28.08a2.9,2.9,0,0,1,1.11.68c.2.27.23.3.11.1l-.93,1.9a1.74,1.74,0,0,1-.68-.08,1.4,1.4,0,0,1,.29.09l-.16-.07.23.11a3.1,3.1,0,0,0,.51.27q-.54-.33-.21-.12l.19.13-1-2.1c.24-.37,0,.08-.07,0,.18-.1.21-.12.1-.07l-.19.06c.28-.11.17,0-.08,0s-.25,0-.37,0,.43,0-.06,0l-.36,0-1.21,0c-.37,0,.51,0,0,0-.14,0-.28,0-.42,0l-1-.07a6.21,6.21,0,0,0-2.64.29c-1,.42-.84,1.6-.09,2.23a4.37,4.37,0,0,0,3.89,1.2c.17,0,.33-.09.49-.15.33-.14-.14,0,.13,0s.74-.06,1.1-.09c.71-.06,1.41-.21,2.13-.26l.54,0s.67,0,.31,0c.35,0,.7,0,1,0h.17c.21,0,.22,0,0,0s-.2,0-.08,0a1.41,1.41,0,0,1,.22.06c-.1,0-.58-.25-.15,0s-.51-.32-.14-.07-.28-.29-.08-.07l.26.25.25.27c.2.23.16.12,0,0a8.3,8.3,0,0,1,1,1.27A11.37,11.37,0,0,0,76,51.05a3.61,3.61,0,0,0,3.07,1.06,1.11,1.11,0,0,0,.68-1.85c-.47-.66-1-1.32-1.39-2a8.35,8.35,0,0,1-1-1.82c0-.13-.06-.35-.06-.11v-.06l.09-.17c-.18.14.14-.1.14-.1a3.87,3.87,0,0,1,.34-.21A1.93,1.93,0,0,0,79,44.18c0-1.12-1.37-2-2.31-2.28s-2.33-.29-2.38.89c.08-.19.09-.21,0-.06q.18-.21.06-.09l-.32.22a3.8,3.8,0,0,0-.71.47,2.28,2.28,0,0,0-.53,2.58,21.36,21.36,0,0,0,2.77,4.7l3.76-.79a5.67,5.67,0,0,1-.61-.59l-.25-.29c.17.19.18.23,0,0-.41-.53-.81-1.06-1.24-1.58a8.15,8.15,0,0,0-3.71-2.59,12.35,12.35,0,0,0-4.77-.32c-.75.06-1.48.21-2.24.27-.35,0-.7,0-1,.09a5.18,5.18,0,0,0-.82.21l-.17.06c-.35.1-.21.1.41,0l1.23.37-.14-.06,1,.73L67,46l-.09,2.24c.18-.08.37-.1.08-.06l.58,0c.16,0,.12,0-.1,0l.27,0,.54,0c.49,0,1,.06,1.46.07s-.5,0-.06,0l.4,0c1.54.1,3.45.21,4.4-1.26.47-.74-.51-1.73-1-2.1a8.33,8.33,0,0,0-4.88-1.77c-1.13,0-1.43,1-.93,1.9,1.14,2,3.46,2.31,5.52,2.21.48,0-.46-.06,0,0a2.81,2.81,0,0,1-1.06-.44c-.41-.23.07.2-.13-.1l.33.49c.21.32.43.63.65.94a3.46,3.46,0,0,1,.22.31c.1.18.12.21.07.09s.09.45.07.24l4,.09c.32.35,0,0-.06-.15.1.18,0,0,0-.07a13.35,13.35,0,0,0-.57-1.21l-.36-.67a7.05,7.05,0,0,1-.41-1.08,3.33,3.33,0,0,0-2.53-1.92c-.66-.14-2.18-.1-2.08,1a.3.3,0,0,0,0,.25l3.94.48c.37.41-.24-.25.07.1,0-.18-.06-.21,0-.11s0,.07,0-.11-.11,0,.09-.23a1.24,1.24,0,0,1,.23-.23c1.69-1.44-2.5-4.1-4-2.83Z"/></g><g class="cls-3"><path class="cls-2" d="M86.67,58.12a23.5,23.5,0,0,1-3.14,0,12.85,12.85,0,0,1-3-.89,5.05,5.05,0,0,0-4-.07,3.52,3.52,0,0,0-1.42,1.2,4.17,4.17,0,0,0-.35.66c-.34.8,0-.13.56-.35l3.49,2c.07-.17.08-.14,0,0,.12-.16.22-.34.34-.5s.26-.39.19-.25-.47.26-.13.12l-1.28.36c.35,0-.26-.13.18,0,.22.07.49.12.73.18l1.49.36c1.62.4,3-.16,4.62-.43l-2.87-2.26a1.5,1.5,0,0,1-.2.24c-.45.49-.12,0,0,.06.25-.13.28-.16.09-.1l-.25.08a4.66,4.66,0,0,0-1,.42c-.73.42-1.62,1.37-1.27,2.31.57,1.49,1.73,2.26,2.92,3.21s2.54,1.86,3.86,2.77c.65.45,1.25,1,1.9,1.42s1.59.94,2.37,1.43c1.38.86,2.53,2.15,4.1,2.67a3.1,3.1,0,0,0,3-.52,1.87,1.87,0,0,0,.51-2.44c-1.25-1.93-3.38-3.38-5.05-4.94a25.74,25.74,0,0,1-2.31-2.24,7.58,7.58,0,0,0-1.07-1.19c-.41-.33-1-.51-1.34-.81-1.94-1.51-5.95,1.26-3.62,3.07.39.3.84.45,1.24.72.24.17.08.07.19.2s.3.39.45.57c.78.9,1.72,1.67,2.57,2.5s1.7,1.51,2.52,2.3a12.9,12.9,0,0,1,2.06,2.12l3.51-3c-1.27-.42-2.29-1.61-3.43-2.3-1.3-.77-2.48-1.61-3.71-2.48s-2.41-1.51-3.5-2.43c-.67-.56-2.09-1.33-2.35-2L83,62.23c-.23,0-.19,0,.1,0a4.51,4.51,0,0,0,.87-.31,4.81,4.81,0,0,0,1.11-.72A6.87,6.87,0,0,0,86.75,59a1.58,1.58,0,0,0-.53-1.9,2.83,2.83,0,0,0-2.34-.35c-.57.1-1.15.34-1.73.4.24,0,.48.1,0-.06l-.88-.23a13.12,13.12,0,0,0-2.39-.47c-2.2-.13-3.94,1.59-4.73,3.53a1.65,1.65,0,0,0,.77,2,3,3,0,0,0,2.72,0,3.25,3.25,0,0,0,1.81-2.09c.3-.77-.37-.51-2,.81l.34.12c.21.1.45.16.67.24.5.19,1,.38,1.51.55a20.46,20.46,0,0,0,6.48.56A2.62,2.62,0,0,0,89,60c.08-1.31-1.24-1.85-2.33-1.85Z"/></g><g class="cls-3"><path class="cls-2" d="M84.31,37.64a3,3,0,0,0,.24,1.45A4.67,4.67,0,0,1,85,40.35l0-.25a10.25,10.25,0,0,0,.17,1.11,8.64,8.64,0,0,1,.25,1l0-.24a15.61,15.61,0,0,1,0,1.81c0,.92,1.63.3,2,.12a6.33,6.33,0,0,0,1.65-1c.27-.24.76-.62.76-1a17.22,17.22,0,0,0,0-1.76c-.06-.6-.29-1.16-.38-1.76l0,.25a5.37,5.37,0,0,0-.28-1.38A5.64,5.64,0,0,1,88.74,36l0,.25a2.26,2.26,0,0,1,0-.52c0-.34-.26-.45-.55-.48a3.71,3.71,0,0,0-1.5.36,6.44,6.44,0,0,0-1.65,1c-.29.26-.72.6-.76,1Z"/></g><g class="cls-3"><path class="cls-2" d="M74.13,41a2.2,2.2,0,0,1,.2-.23l-.2.2c.21-.2.44-.37.65-.55a4.41,4.41,0,0,1,.6-.44l-.21.12a.87.87,0,0,1,.34-.12.73.73,0,0,0,.3-.22.91.91,0,0,0,.27-.37,2,2,0,0,0,.21-.52,2.45,2.45,0,0,0,.11-.59v-.37a1.47,1.47,0,0,0-.15-.58l-.14-.18a.38.38,0,0,0-.38-.09,1,1,0,0,0-.23.07,3.42,3.42,0,0,0-.42.23,5,5,0,0,0-.44.33,7.53,7.53,0,0,0-1.09,1,2.74,2.74,0,0,0-.43,1,2.86,2.86,0,0,0-.06.58,1.67,1.67,0,0,0,0,.5c.06.21.17.51.42.54a.68.68,0,0,0,.6-.32Z"/></g><g class="cls-3"><path class="cls-2" d="M69.88,40.6c0-.13,0-.25,0-.38v.36a4.36,4.36,0,0,1,0-.51l-.05.39a2.56,2.56,0,0,1,.05-.27l-.11.39a1.57,1.57,0,0,1,.09-.23l-.15.33a1.75,1.75,0,0,1,.2-.35l-.18.27a3.83,3.83,0,0,1,.39-.51l-.19.2a1.12,1.12,0,0,1,.2-.17l-.2.11a.74.74,0,0,1,.33-.09h-.2c.16,0,.32,0,.48,0a.37.37,0,0,0,.31-.07.66.66,0,0,0,.29-.26,2.39,2.39,0,0,0,.44-1,2.46,2.46,0,0,0,0-1.08l-.1-.26a.5.5,0,0,0-.32-.28H70.7a1.35,1.35,0,0,0-.77.24A3.89,3.89,0,0,0,69,38.6a4.23,4.23,0,0,0-.58,1.54,7.52,7.52,0,0,0-.09.83v.85a1.13,1.13,0,0,0,.29.76.44.44,0,0,0,.58,0,2.48,2.48,0,0,0,.69-1.95Z"/></g><g class="cls-3"><path class="cls-2" d="M79.66,38.59v0l-.06.4,0-.11-.11.38a.78.78,0,0,1,0-.14l-.15.34a1.35,1.35,0,0,1,.15-.26l-.18.27a3.81,3.81,0,0,1,.4-.5c.14-.14.25-.3.39-.45l-.2.2.16-.13-.2.11a.45.45,0,0,1,.2,0h-.21l.42,0a.35.35,0,0,0,.3-.06.69.69,0,0,0,.3-.26,1.48,1.48,0,0,0,.25-.44,2.09,2.09,0,0,0,.18-.55,2.19,2.19,0,0,0,0-1.08l-.1-.26a.45.45,0,0,0-.32-.28c-.13,0-.25,0-.38,0a1,1,0,0,0-.68.2,4.22,4.22,0,0,0-.64.69,3.69,3.69,0,0,0-.43.53,4.44,4.44,0,0,0-.42.73,4.2,4.2,0,0,0-.17.5,3.28,3.28,0,0,0-.14.72,1.58,1.58,0,0,0,0,.53,1.11,1.11,0,0,0,.12.42.45.45,0,0,0,.52.26l.21-.11a1.71,1.71,0,0,0,.37-.47,3.27,3.27,0,0,0,.31-1.12Z"/></g><g class="cls-3"><path class="cls-2" d="M65.3,36.9a5.88,5.88,0,0,1-.72.51l.2-.11a3.61,3.61,0,0,1-.84.34c-.31.07-.63.1-.94.19a1.21,1.21,0,0,0-.57.59,2.93,2.93,0,0,0-.29.91,2.22,2.22,0,0,0,0,.89c.06.18.18.54.42.54h.81a3.38,3.38,0,0,0,.78,0,6.49,6.49,0,0,1,1-.29h-.2a.46.46,0,0,1,.2,0l0-2.61-.06.07.19-.2a4.47,4.47,0,0,1-.6.45,3.82,3.82,0,0,1-.48.34l.2-.11c-.21.12-.43.22-.63.36a2.48,2.48,0,0,0-.8,1.41,2.37,2.37,0,0,0,0,.92c0,.18.09.5.26.6a.87.87,0,0,0,.4.16,1.49,1.49,0,0,0,.47-.07,2.39,2.39,0,0,1,.57-.19h-.2a.37.37,0,0,1,.18,0l-.18-.1a.58.58,0,0,1,.12.1l-.14-.18,0,0,0-1.73c-.06.16.11-.26.1-.23s.2-.26.11-.16l-.11.13.19-.19c-.14.14-.31.26-.45.4a3,3,0,0,0-.89,2.67c.08.31.26.59.62.52a9,9,0,0,1,1.15-.24h-.09a.73.73,0,0,0,.6-.33,2.38,2.38,0,0,0,.43-1,2.32,2.32,0,0,0,0-1.08c-.06-.18-.17-.54-.42-.54a3.15,3.15,0,0,0-.81.1c-.22.06-.43.12-.65.16l.5,2s0,0,0-.07l-.11.27c0-.07,0,0-.05.07s0,0,0,0l-.2.2c.24-.24.51-.43.73-.69a2.7,2.7,0,0,0,.48-.84,2.85,2.85,0,0,0,.2-1.22,1.28,1.28,0,0,0-.33-.82.81.81,0,0,0-.84-.15,3.45,3.45,0,0,1-.62.2h.2a.45.45,0,0,1-.23,0l.18.09h0l.23,1.52c-.31,1.18-.6,1.13-.35.86l-.19.2a1.27,1.27,0,0,1,.34-.23l-.2.11c.16-.09.33-.17.49-.27s.2-.16.31-.23a6.16,6.16,0,0,0,.92-.77,1.79,1.79,0,0,0,.32-.61,2.9,2.9,0,0,0,.17-1,1.75,1.75,0,0,0-.1-.64.57.57,0,0,0-.37-.4.86.86,0,0,0-.45,0,1.58,1.58,0,0,0-.36.09,2.68,2.68,0,0,1-.68.21h.2c-.41,0-.83,0-1.25,0l-.42,2.92a9.68,9.68,0,0,0,1.41-.35,4.89,4.89,0,0,0,1.29-.8,1.89,1.89,0,0,0,.52-.81,2.78,2.78,0,0,0,.17-1.14c0-.25-.07-.62-.29-.77a.44.44,0,0,0-.58,0Z"/></g><g class="cls-3"><path class="cls-2" d="M71.31,45.2a5.58,5.58,0,0,0,1.8-.62c.56-.19.79-1,.86-1.5,0-.31.1-1.41-.44-1.42a1.73,1.73,0,0,0-1,.22c-.23.13-.44.3-.67.41A2,2,0,0,0,71,44c0,.49,0,1.25.66,1.21A7.81,7.81,0,0,0,72.86,45a2.94,2.94,0,0,1,1-.16,4.79,4.79,0,0,1,.81.34,5.06,5.06,0,0,0,.86.18A3.48,3.48,0,0,0,79,44a2.68,2.68,0,0,0,.49-1.57c0-.27,0-1-.46-1-.65,0-.17,2.13.12,1.52a2.33,2.33,0,0,0,.17-.57,2.85,2.85,0,0,0,0-1.3c-.11-.42-.42-.69-.82-.41a4.33,4.33,0,0,0-.69.73c.06-.07-.17.14-.17.14a5,5,0,0,0-.47.45l.58,2.29a2.53,2.53,0,0,1,1.77-1.34l0-2.61c-.14.18-.4.41-.59.65a6.13,6.13,0,0,1-.49.59,2.5,2.5,0,0,0-.69,2c0,.44.33,1.17.88.74L79,43.9l.18-.14c0,.05.12,0,0,0l-.41-1.62,0,.06.26-.72c-.09.19.2-.2,0,0a1.66,1.66,0,0,0-.13.14c.14-.15-.09.08-.1.09s-.11.1-.16.16c-.33.32-.61.69-.94,1a2.49,2.49,0,0,0-.68,2c0,.38.36,1.24.87.74.28-.28.55-.56.81-.86l.19-.22c-.11.1-.13.13-.07.07l.24-.23a3.81,3.81,0,0,0,1.16-1.87c.08-.3.18-1.63-.41-1.62a2.31,2.31,0,0,0-1.42.75l.19,2.69a9.37,9.37,0,0,0,.79-.88c.2-.25.45-.46.68-.76A2.75,2.75,0,0,0,80.59,41c0-.24-.06-1.06-.47-1a4,4,0,0,0-3,2A2.59,2.59,0,0,0,76.71,44c.17.63.61.64,1,.22-.06.06.18-.14.17-.13a4.44,4.44,0,0,0,.38-.37,4.51,4.51,0,0,1,.38-.42l-.82-.42.09-1.14,0,.11c0,.09-.06.22-.09.3a3,3,0,0,0-.13,1.12c0,.43.18,1,.7,1l0-2.61s-.28.32-.17.22l-.24.19a2.48,2.48,0,0,1-.71.24,3.94,3.94,0,0,1-1.53,0c-.6-.13-1.08-.51-1.7-.44s-1.41.35-2.14.4l-.22,2.91c.4-.18.8-.62,1.22-.61l.42-2.92c-.42.15-1,.59-1.4.59-.62,0-.93.8-1,1.32-.06.3-.2,1.62.41,1.62Z"/></g><g class="cls-3"><path class="cls-2" d="M74.25,42.72a3.58,3.58,0,0,1-1.84.08c-.65-.1-1.23-.42-1.87-.52a2.5,2.5,0,0,0-2.87,1.63c-.14.45-.43,1.81.3,2a3.4,3.4,0,0,0,1.41-.16,10.37,10.37,0,0,1,1.93-.11,3.53,3.53,0,0,1,1.41.17c.28.11.55.19.81.31a4.09,4.09,0,0,0,.85.15l0-2.62c.16-.16.21-.11,0-.16a1.55,1.55,0,0,0-.22,0l-.56,0a4.08,4.08,0,0,0-1.6.35,2.11,2.11,0,0,0-.6,2.82c.72.78,2.07.2,3,.1a9.59,9.59,0,0,0,1.66-.34,6,6,0,0,0,1.66-.5,2.28,2.28,0,0,0,.69-1.77c0-.32-.12-1.26-.67-1a3.9,3.9,0,0,0-.71.42c-.08,0-.16.12-.24.16l-.21.09c-.15,0-.12,0,.08.06l0,2.24a3.31,3.31,0,0,1,.73-.66,5,5,0,0,0,1-1.1,2.76,2.76,0,0,1,.86-.73c.38-.24.65-.6,1-.85L80.05,40c-.24.25-.46.57-.72.79a4.91,4.91,0,0,0-.75.54,11.34,11.34,0,0,1-1.43,1.34,9.76,9.76,0,0,1-1.42.86,2.6,2.6,0,0,0-1.24,1.93,1.84,1.84,0,0,0,.66,1.92,11.83,11.83,0,0,1,1.36.84c.56.49,1.11,1,1.62,1.51a4.41,4.41,0,0,1,.63.81c.1.18.4.47.43.63.11.61.67.66,1,.22a2.65,2.65,0,0,0,.44-2.08,4.5,4.5,0,0,0-.8-1.45,9.85,9.85,0,0,0-1.48-1.62A8.15,8.15,0,0,0,77,45.11c-.21-.13-.44-.22-.66-.34a1.31,1.31,0,0,1-.28-.17c-.15-.11-.19-.31-.12,0l0,.69v-.08L75.7,46.3c0,.11-.15.1-.06.11a1.34,1.34,0,0,0,.28-.18l.34-.17A6.9,6.9,0,0,0,77.78,45c.22-.2.47-.37.69-.57s.37-.46.58-.65.42-.22.6-.37.38-.47.59-.68a2.55,2.55,0,0,0,.69-2c0-.48-.32-1.13-.88-.74s-.74.68-1.18,1a4,4,0,0,0-1.24,1.25,4.19,4.19,0,0,1-.87.81A5.39,5.39,0,0,0,75.7,44.3c-.26.43-.62,1.86,0,2.24a.89.89,0,0,0,1,0c.26-.14.72-.47.84-.52l0-2.8a6,6,0,0,1-1.36.3,6.77,6.77,0,0,1-1.35.3c-.48,0-1,.14-1.42.22s-.72.14-1-.13l-.6,2.83a3.32,3.32,0,0,1,1.61-.29A1.68,1.68,0,0,0,75,46a2.56,2.56,0,0,0,.49-1.58c0-.32,0-1-.47-1a2.83,2.83,0,0,1-.76-.14,6.23,6.23,0,0,0-.83-.28,2.11,2.11,0,0,0-.64-.22c-.28,0-.56,0-.84,0a11.44,11.44,0,0,0-1.85,0,4.54,4.54,0,0,1-1.49.23l.3,2c0,.13-.28.37-.2.4a1,1,0,0,0,.27-.11,1.94,1.94,0,0,1,.48-.09,4.12,4.12,0,0,1,1.54.35,4.83,4.83,0,0,0,3,.09c.61-.23.84-1.12.88-1.7,0-.33,0-1.45-.66-1.21Z"/></g><g class="cls-3"><path class="cls-2" d="M84.78,40.48c0,.07,0,.13,0,.2.09.64.78-1.75.36-1.28a2.63,2.63,0,0,0-.38.56,5.93,5.93,0,0,0-.29.69c-.1.29.12-.3.16-.27l-.11.13c.08-.08.09-.09,0,0a6.26,6.26,0,0,0-.5.53,1.46,1.46,0,0,0-.16.19s-.18.17-.05.08-.08,0-.1.06l-.17.11a2.21,2.21,0,0,0-.64,1,2.62,2.62,0,0,0-.14,1.3c0,.26.13.65.44.7.53.09,1-.34,1.3-.69a4.33,4.33,0,0,0,.79-1.16,4.19,4.19,0,0,0,.31-2.85,5.36,5.36,0,0,0-.36-.94c0-.09-.08-.18-.13-.27s.07.26,0,.06,0,.31,0,.11l-.06.77q-1,1.37-.51,1c.06-.05,0,0-.1,0l.15,0,.3-.07a3.36,3.36,0,0,0,.71-.18,3.19,3.19,0,0,1,.84-.28,1.82,1.82,0,0,0,.88-.3A2.28,2.28,0,0,0,88.09,38a2.68,2.68,0,0,0,0-.69.69.69,0,0,0-.42-.53,1.35,1.35,0,0,0-1,.09c-.3.11-.58.27-.88.36-.48.15-.75.87-.83,1.3a3.34,3.34,0,0,0-.06.77,1.13,1.13,0,0,0,.29.76c.24.19.49.36.73.56.06.07,0,.05,0-.07l0,.08,0,.05a.86.86,0,0,1-.09-.39,1.8,1.8,0,0,1,0-.52q0,.21.06-.18c-.08.24.14-.29,0,0s-.22.4-.34.6-.09.15-.14.23l0-.06-.09.11a3,3,0,0,0-.54.89,3.77,3.77,0,0,0-.16.6c0,.15,0,.31-.07.47A1.67,1.67,0,0,1,84.7,42a2.92,2.92,0,0,0-.15,1.31c0,.22.14.68.44.7a1.63,1.63,0,0,0,1.44-1.14,14.25,14.25,0,0,0,.78-1.68l-1.38-.3c0,.25.07-.31,0-.13s.11-.32,0-.14a.62.62,0,0,0-.07.19c0-.05.13-.28,0-.1l-.19.35a1,1,0,0,0-.08.14c0-.1.13-.19,0,0A3.69,3.69,0,0,0,85,42.27c0,.06,0,0,0-.09a.78.78,0,0,1,.11-.2c0-.07.12-.21.22-.21-.1,0-.23.07-.34.08h.2c-.3,0-.61,0-.92,0a2.15,2.15,0,0,1-.94-.17l.18.09a1.37,1.37,0,0,1-.2-.13c-.52-.37-1,.45-1.1.84a2.64,2.64,0,0,0-.17,1.15,1,1,0,0,0,.28.76,2.54,2.54,0,0,0,1.59.39c.25,0,.5,0,.76,0a1.35,1.35,0,0,0,.92-.43,2.45,2.45,0,0,0,.63-1.09c-.1.21-.13.27-.07.16s0,0,0,0,0,0,.06-.08.24-.36.35-.55a5.47,5.47,0,0,0,.77-2.4,2.28,2.28,0,0,0-.1-.82c-.06-.16-.17-.38-.37-.41-.47,0-.8.56-.92.93a.85.85,0,0,1-.06.17c.1-.19.11-.23,0-.09l-.17.31-.24.48a.89.89,0,0,1-.08.17l0,.11c-.06.11,0,.06.09-.13-.21.19.15-.12,0,0,.19-.13.06,0,0,0l.2,0h-.06l.3,2a5.58,5.58,0,0,0,.18-.81s.07-.52,0-.15-.55,1.1-.28.8a6.17,6.17,0,0,0,.52-.74,6.6,6.6,0,0,0,.91-2,2.59,2.59,0,0,0-.21-2,3.88,3.88,0,0,0-.94-.82l-.6,2.83a6.13,6.13,0,0,1,1.42-.49h-.21a.62.62,0,0,1,.27.05l.22-2.81c-.08,0-.06,0,0,0l-.13,0a1.28,1.28,0,0,1-.27.05,2.56,2.56,0,0,0-.48.1,6.73,6.73,0,0,1-1.07.36,1.82,1.82,0,0,0-.9.33,2.7,2.7,0,0,0-.71,2.64,5.91,5.91,0,0,0,.45,1.07c0,.08,0,.06,0-.06a1.09,1.09,0,0,0,0,.17l0,.16c0-.18,0-.2,0-.06,0-.23,0-.26,0-.11a1.94,1.94,0,0,1,.12-.53c-.08.24.15-.3.08-.17l-.08.15c-.15.26.15-.22,0,0l-.27.35c-.16.2.16-.14,0,0l-.16.13c-.18.15.11,0,0,0l-.15.05.2,0a.33.33,0,0,1-.1,0l.29,2c-.2.56-.57.75-.2.49l.17-.14a4,4,0,0,0,.47-.54c.06-.06.19-.2.05-.06l.39-.39a2.35,2.35,0,0,0,.44-.64,4.09,4.09,0,0,0,.3-.71c-.1.21-.11.25,0,.11q-.19.27-.06.12l.12-.16A3,3,0,0,0,86.36,40a6.35,6.35,0,0,0,0-.76c0-.44-.34-1.17-.87-.74a2.45,2.45,0,0,0-.68,1.95Z"/></g><g class="cls-3"><path class="cls-2" d="M77.84,62.52c.27-.3.65-.48.93-.78a8.81,8.81,0,0,0,.62-.85c.26-.38.83-.66,1.2-.2,0,0-.07-.17,0,.08s0,.26.08.38a3.05,3.05,0,0,0,.35,1c.19.29.46.47.64.77s.39.68.63,1c.44.59,1,1.06,1.43,1.67a15.4,15.4,0,0,0,1.45,2c1.13,1.16,1.85,2.66,3,3.84.45.47,1-.53,1.1-.84a2,2,0,0,0-.12-1.91,16.79,16.79,0,0,1-1.61-2.06c-.25-.36-.49-.72-.75-1.08s-.58-.62-.85-.95c-.55-.67-1-1.44-1.51-2.12-.25-.31-.53-.57-.81-.86a4.29,4.29,0,0,1-.63-.94,3.91,3.91,0,0,0-.4-.6c-.09-.11-.24-.2-.33-.32A3.1,3.1,0,0,1,82.1,59a1.72,1.72,0,0,0-1.32-1.49,2,2,0,0,0-1.88.92,7,7,0,0,1-.64.9c-.32.3-.69.52-1,.86a2.47,2.47,0,0,0-.44,2.07c.17.62.61.65,1,.22Z"/></g><g class="cls-3"><path class="cls-2" d="M85.66,58.86c.7,1,1.35,2,2,3a16.82,16.82,0,0,0,1.06,1.45c.18.22.36.43.55.63a4.66,4.66,0,0,1,.51.47c.14.21.23.45.38.65a6.76,6.76,0,0,0,.54.66c.39.41.73.85,1.11,1.26s.77.77,1.13,1.17a3.27,3.27,0,0,0,1.19.93c.21.09.5-.2.6-.32a2.48,2.48,0,0,0,.43-1c.1-.51.18-1.37-.41-1.62a3.2,3.2,0,0,1-.92-.84c-.35-.39-.74-.75-1.09-1.13s-.73-.85-1.11-1.26-.48-.78-.77-1.15-.73-.68-1.05-1.07a13.06,13.06,0,0,1-.93-1.28c-.64-1-1.29-2-2-2.92-.38-.54-.85-.14-1.1.31a2.37,2.37,0,0,0-.17,2.07Z"/></g><g class="cls-4"><path class="cls-5" d="M10.43,66.4c.48-.48,1-.75,1.54-1.21a6.11,6.11,0,0,0,1.58-2.33,14.44,14.44,0,0,1,.76-2c.4-.67.82-1.38,1.24-2l-4.66-1.26c0-.33-.11.46-.11.46-.06.35-.11.7-.18,1a7.83,7.83,0,0,1-.44,2c-1.62,2.83,2.51,5.13,4.32,2.52a6.36,6.36,0,0,0,1.11-2.44c.12-.68-.13-2.15.34-2.76-.49.63.71.12,1,0a15,15,0,0,0,2.53-.93c.69-.3,1.41-.64,2.13-.89.46-.16.94-.22,1.39-.4s.64-.39.94-.51c.86-.35,1.79-.32,2.64-.74A4.71,4.71,0,0,0,28.52,53c1.05-1.69,2.56-3.11,3.77-4.69a20.79,20.79,0,0,1,2.93-3.72,6.67,6.67,0,0,1,1.9-.88,17.81,17.81,0,0,0,2.66-1.5c1-.67,3-1.76,3.93-1.77L41.3,37.28l-.06.2.64-1.1c.1-.12,0,0-.21.1a2.51,2.51,0,0,0,.66,4.91,9.91,9.91,0,0,0,4.91-1.07c.7-.42-.54,0,.79-.22a6.77,6.77,0,0,0,1.15-.39,4.3,4.3,0,0,1,1.76-.24c1.87,0,3.08-1,4.59-2a8.61,8.61,0,0,0,1.89-1.39,6.36,6.36,0,0,0,.62-.85l.22-.38c.25-.37.22-.35-.11.06l-3.42-3.42a12.66,12.66,0,0,1-2.67,2.32,5.17,5.17,0,0,1-1.22.78c-.67.31-1.19.84-1.84,1.14a5,5,0,0,1-1.6.18c-.7.07-1.33.3-2,.43s-1.41,0-2.09.11-1.25.28-1.9.38c0,0-.16-.1-.25,0,.47-.51.44,2.59,1.16,1.89.28-.28.57-.93.78-1.15a11.46,11.46,0,0,0,1.31-1.42,10.52,10.52,0,0,1,1.08-1.43c1-1.12,1.85-2.28,2.72-3.48a7.11,7.11,0,0,0,1.86-3.79A2.5,2.5,0,0,0,47.89,25a2.57,2.57,0,0,0-2.75,1.8c-.1.24-.34.38-.54.56a5,5,0,0,0-1.07,1.23c-.4.66-1.39,2-2,2.14,0,0-.77-.05-1-.06a2.13,2.13,0,0,0-.75,0c-.31,0-.25,0,.19.16a.62.62,0,0,1,.52.39c.31.37,0,.43.32.24a10,10,0,0,0,.86-1.12c1.41-1.48,3-2.81,4.54-4.21s3.13-3.12,2.77-5.5A2.51,2.51,0,0,0,46,18.88a9.72,9.72,0,0,0-4.32,3.44c-1,1.21-2.59,2.87-4.13,3.3a10.21,10.21,0,0,1-2.15.05l-.63,0a1.33,1.33,0,0,1,.82,1.65.42.42,0,0,1-.17.29c.41-.17,1-1,1.39-1.29.22-.18.46-.35.67-.55s.76-.8.55-.65-.1.12.51-.19a3.8,3.8,0,0,0,.85-.59c.54-.46.23-.2,1-.59a6.94,6.94,0,0,0,2.18-1.93,27.41,27.41,0,0,0,3-3.7c.92-1.68,1.12-3.94-.71-5.1A5.08,5.08,0,0,0,42,12.48a8.48,8.48,0,0,0-2,.18c-.23.05-1.41.25-.82.37l.6,4.57c-.43.22-.1.08-.1.07s-.36,0,.16,0c.19,0,.35-.07.27,0-.37.38-1.28-2.44-1.08-1V15.36c.07-.31.63-.56.06-.26a2.82,2.82,0,0,0-.36.24c-.49.37-1,.75-1.44,1.15a20.3,20.3,0,0,1-3.07,2.1c-1,.59-2.09,1.12-3.13,1.7S29.07,21.46,28,22c-2.18,1.12-3.38,3.08-4.9,4.92-.18.23-.36.46-.56.68s0,0,.14,0A12.25,12.25,0,0,1,21,27.52a4.94,4.94,0,0,0-1.87.19,3.5,3.5,0,0,0-.82.41c-.3.19-1.23.72-.3.37l2.82,1.15c.17.31-.08.33.13-.22a4.3,4.3,0,0,1,.55-.88,14.73,14.73,0,0,1,1.76-2.18c1.3-1.21,3.15-1.73,4.51-2.88.61-.51,1-1.24,1.65-1.72s1.67-1.06,2.46-1.65A9.77,9.77,0,0,0,34,17.8c.19-.27.35-.57.56-.83-.09.15,0,.09.18-.17.47-.38.26-.36-.64.08L31.7,13.71c.09-.24-.18.17-.22.2-.22.21-.41.45-.62.66A5.17,5.17,0,0,1,29,16a15.27,15.27,0,0,0-2.32,1.08c-.73.49-1.3,1.12-2,1.67s-1.41.94-2.1,1.42-1.34,1.13-2.07,1.6c-1.63,1-3.26,1.76-4.33,3.47A16.17,16.17,0,0,0,14,29.67c-.49,1.74-1.28,3.37-1.74,5.12-.2.77-.56,1.47-.8,2.21-.31,1-.43,2-.73,2.91a12.44,12.44,0,0,1-2,3.86c-1.32,1.64-2.84,3-4.23,4.54a15.91,15.91,0,0,0-2,2.76A6.52,6.52,0,0,1,1.23,53a2.57,2.57,0,0,0-.89,3.42,2.54,2.54,0,0,0,3.42.9A16.1,16.1,0,0,0,7.64,53.4c1.12-1.37,2.16-2.82,3.3-4.18s1.88-2.64,3-3.89c.57-.67.93-1.45,1.51-2.08a19,19,0,0,0,1.65-2.14,18.71,18.71,0,0,1,2.85-3.25c.37-.32.79-.58,1.14-.93s.5-.8.84-1.07c-.58.46.41-.07.46-.1a7.22,7.22,0,0,0,1-.65c1.52-1.14,3.1-2.31,4.5-3.58l1.87-1.66c.68-.6,1.18-1.36,1.91-1.92l-3.93-3c-2.72,3.8-6,7.07-8.81,10.83S12.67,42.29,10.08,46c-1.43,2.06,1.38,4.76,3.42,3.42,1.09-.71,2-1.64,3-2.44a27.09,27.09,0,0,0,2.76-2.49c1.83-1.9,3.7-3.74,5.59-5.56s3.71-3.58,5.52-5.42c.86-.88,1.73-1.77,2.67-2.57a16,16,0,0,1,2.75-2.19l-3-3.92A50.43,50.43,0,0,0,27.67,31c-1.67,2.16-3.66,4-5.5,6-.88,1-1.65,2-2.52,3s-1.85,1.85-2.76,2.8a35.44,35.44,0,0,0-2.52,3.07c-.86,1.11-1.93,2-2.78,3.14C10.1,51,13,53.88,15,52.45a64.14,64.14,0,0,0,5.73-5.2c2-1.87,4.09-3.66,6.12-5.51s3.74-3.67,5.58-5.55a35.8,35.8,0,0,1,2.78-2.59c.83-.67,1.51-1.46,2.31-2.15l-1.1.65.25-.11H35.35l.27.05-1.5-3.67a9.26,9.26,0,0,1-1.71,2c-.79.92-1.56,1.85-2.32,2.79-1.55,1.89-3.12,3.77-4.75,5.6s-3.12,3.37-4.58,5.17c-.78,1-1.58,1.91-2.37,2.87S16.78,48.45,16,49.34a2.6,2.6,0,0,0-.39,3,2.52,2.52,0,0,0,2.83,1.15,13.64,13.64,0,0,0,4.47-3.23c1.94-1.78,3.92-3.53,5.87-5.29s3.7-3.55,5.6-5.26a27.62,27.62,0,0,1,2.85-2.19A16.11,16.11,0,0,1,40,35.61l-2.83-3.68q.45-.27-.39.33l-.61.6-1,1.06c-.81.82-1.64,1.62-2.47,2.43C31.09,37.87,29.54,39.41,28,41s-3,3.13-4.58,4.63-3.45,3-5.06,4.55c-2.31,2.27,1.15,5.66,3.53,3.53.33-.29.71-.53,1-.82,1.78-1.59-.09-5.14-2.43-4.18a58.85,58.85,0,0,0-7.46,3.81c-1.13.67-2.19,1.45-3.26,2.2a26.33,26.33,0,0,0-3,2.08l3.93,3a19.92,19.92,0,0,1,1.83-2.63c.39-.47.79-.92,1.16-1.41a9.88,9.88,0,0,0,.67-1.08l-.9.89.2-.1-3.42-3.42c-.81,1.6-2,3-3,4.49-.5.79-1,1.59-1.5,2.37a13.83,13.83,0,0,1-1.1,1.88l4.27,1.77a17.55,17.55,0,0,1,2-5.5,44.78,44.78,0,0,0,2.43-6.22c.65-2.28-2.54-4.42-4.18-2.44A23.68,23.68,0,0,0,6,53c-.75,1.5-1.75,2.79-2.56,4.25L8,59.2c.81-2.46,2.91-4.41,4-6.73A2.5,2.5,0,0,0,7.64,50c-.75,1-1.4,2-2.15,3a14.91,14.91,0,0,1-2.17,2,2.5,2.5,0,1,0,3.53,3.54,17,17,0,0,0,2.69-2.67c.83-1.11,1.58-2.28,2.42-3.39L7.64,50c-1.27,2.75-3.52,5-4.48,7.92-.88,2.7,3.2,4.39,4.57,1.93.74-1.34,1.67-2.52,2.36-3.88a20.3,20.3,0,0,1,2.59-4L8.5,49.53C7.22,54,4.39,57.9,3.94,62.58c-.22,2.24,2.83,3.18,4.27,1.77A12.09,12.09,0,0,0,9.73,62c.52-.84,1.09-1.65,1.61-2.49,1-1.66,2.33-3.16,3.22-4.9a2.52,2.52,0,0,0-3.42-3.42,3.37,3.37,0,0,0-1.36,1.49,10.24,10.24,0,0,1-.91,1.16A26.83,26.83,0,0,0,6.38,57.3c-1.47,2.48,1.88,5,3.93,3a20.29,20.29,0,0,1,2.2-1.43c1-.71,2-1.44,3.08-2.07s2.11-1.16,3.2-1.69,2-1.19,3.07-1.62l-2.43-4.18c-.33.29-.71.53-1,.83l3.53,3.53c1.62-1.58,3.43-3,5.06-4.54s3.29-3.29,4.9-5,3.31-3.32,5-5c.76-.74,1.5-1.49,2.25-2.23a17.31,17.31,0,0,0,2.38-2.54c1.12-1.73-.77-4.47-2.82-3.68a13.74,13.74,0,0,0-3,1.83c-1.08.76-2.19,1.47-3.23,2.29-2.06,1.62-3.86,3.53-5.78,5.32s-4,3.68-6.06,5.49l-1.95,1.77a11,11,0,0,1-1,.84c-.13.11-.93.52-.52.38l2.43,4.18c.74-.89,1.63-1.64,2.36-2.54s1.58-1.92,2.37-2.88c1.56-1.91,3.26-3.67,4.9-5.53s3.26-3.82,4.85-5.76c.77-.94,1.53-1.88,2.34-2.77a10,10,0,0,0,2-2.5c.58-1.35.26-3.35-1.5-3.68a3.45,3.45,0,0,0-3.53,1.32,32.14,32.14,0,0,1-2.71,2.37c-2.1,1.9-3.94,4.06-6,6S20.5,40.7,18.4,42.61c-1,.94-2,1.89-3.06,2.85a29.92,29.92,0,0,1-2.85,2.67l3.42,3.42c.31-.4.82-.73,1.17-1.12s.91-1.11,1.35-1.68a29.19,29.19,0,0,1,2.28-2.69c1.85-1.88,3.51-3.87,5.3-5.8s3.75-3.84,5.4-6a48.73,48.73,0,0,1,4.9-5.92c2.12-2-.58-5.22-3-3.92a16.89,16.89,0,0,0-2.93,2.27c-1,.8-1.87,1.61-2.74,2.49-1.85,1.86-3.71,3.71-5.6,5.53s-3.74,3.56-5.52,5.43a32.39,32.39,0,0,1-2.64,2.6A33.8,33.8,0,0,1,11,45.11l3.42,3.42a40.75,40.75,0,0,1,4.23-4.77,54.6,54.6,0,0,0,4.58-5.49c2.77-3.75,6.08-7,8.81-10.82a2.49,2.49,0,0,0-.65-3.23,2.55,2.55,0,0,0-3.28.2c-.67.52-1.13,1.21-1.75,1.78s-1.36,1.19-2,1.8a41.66,41.66,0,0,1-3.84,3,18.81,18.81,0,0,0-2.11,1.28c-.56.52-.91,1.12-1.5,1.61a21.39,21.39,0,0,0-3.5,3.74c-.39.53-.71,1.11-1.12,1.62a16.92,16.92,0,0,0-1.64,2,14.15,14.15,0,0,1-1.37,1.74c-.56.69-.91,1.46-1.44,2.16-1,1.33-2,2.66-3.11,3.94-.59.7-1.14,1.42-1.74,2.11A8.86,8.86,0,0,1,1.23,53l2.53,4.32c1.61-1.24,2.41-2.79,3.5-4.46s2.6-2.65,3.81-4.06a23.81,23.81,0,0,0,3.19-4.56,26.57,26.57,0,0,0,2-5.51c.2-.77.57-1.48.81-2.24.29-.94.47-1.88.82-2.8s.72-1.67,1-2.54a5.08,5.08,0,0,1,.76-1.89A9.85,9.85,0,0,1,21,27.22,19.87,19.87,0,0,1,23.19,26c.74-.47,1.34-1.13,2.06-1.62s1.66-1.07,2.45-1.69A13.56,13.56,0,0,1,29.77,21a26.44,26.44,0,0,0,2.76-1.25,10.76,10.76,0,0,0,4-4.72,2.51,2.51,0,0,0-2.41-3.16A4.67,4.67,0,0,0,31,13.49c-.68.76-1.12,1.76-1.87,2.45-.91.82-2.1,1.29-3,2.09a14.62,14.62,0,0,1-2.36,2.16c-.94.53-1.9,1-2.8,1.66a12.47,12.47,0,0,0-2.77,2.89c-1.7,2.2-3.14,4.67-1.66,7.42a2.52,2.52,0,0,0,2.83,1.15,4.09,4.09,0,0,0,1.58-.9l.2-.18c-.84.21-.95.3-.31.27a7.91,7.91,0,0,0,2.95,0c1.71-.36,2.75-1.81,3.79-3.09.52-.64,1-1.35,1.5-2a5.85,5.85,0,0,1,1.88-1.31c1.48-.84,3-1.59,4.49-2.46a42.32,42.32,0,0,0,4.85-3.09c1.12-.91,2.68-1.78,3.38-3.08a3.25,3.25,0,0,0-2-4.58,5.74,5.74,0,0,0-4.3.37,2.52,2.52,0,0,0,.6,4.56,4.77,4.77,0,0,0,2.06.06c.48-.1.93-.36,1.42-.43s1.06.16,1.48,0c-.84-2.27-1.4-2.89-1.66-1.85l0-.14c-.2.26-.34.6-.54.87s-.17.24,0,0a5.48,5.48,0,0,1-.52.56c-.62.65-1.16,1.35-1.76,2-.43.48-.3.33-1,.65a14.3,14.3,0,0,0-1.41,1l-.47.19a3,3,0,0,0-.85.57c-.24.22-.44.47-.66.7-1,1-2.29,1.76-3,3.08a3.65,3.65,0,0,0,1.74,5.17,5.92,5.92,0,0,0,2.83.36,12.76,12.76,0,0,0,2.83-.11A14.07,14.07,0,0,0,44.18,27c1-.91,1.83-2.79,3.12-3.25L44.22,22l0,.23V20.85c0,.3-.17.39-.5.74s-.87.86-1.32,1.28c-1,1-2.08,1.92-3.14,2.88-2,1.84-4.45,4.61-3.21,7.55a3.93,3.93,0,0,0,3.58,2.35c1.56.11,3.17.21,4.54-.68a12.64,12.64,0,0,0,3.48-3.51,8.38,8.38,0,0,1,.93-1A7,7,0,0,0,50,28.15l-4.91-.66c0-.92,0-.36-.31.06s-.57.81-.86,1.21c-.46.63-.9,1.26-1.41,1.85S41.24,32,40.69,32.72c-.24.32-.44.71-.7,1s-.46.4-.66.64c-1.1,1.28-2.26,3-1.84,4.73a3.72,3.72,0,0,0,3.79,2.79,11,11,0,0,0,2.06-.32,15.46,15.46,0,0,1,2-.17c.91-.07,1.75-.39,2.64-.47a8.15,8.15,0,0,0,3.16-.64c.71-.36,1.29-.9,2-1.25a10.46,10.46,0,0,0,2.26-1.53,16.24,16.24,0,0,0,3.59-3.43c1.41-2.14-1.34-4.64-3.42-3.42-1.06.61-1.46,1.83-2.33,2.38-.57.36-1.11.75-1.67,1.12a1.91,1.91,0,0,1-1.43.32,7.41,7.41,0,0,0-2.2.32c-.39.13-.76.42-1.15.53.53-.14-.71,0-.83.09-.6.19-1.13.59-1.71.76a7.39,7.39,0,0,1-2,.23L43,41.3a4.13,4.13,0,0,0,3.12-2.69,2.52,2.52,0,0,0-2.41-3.16,12.6,12.6,0,0,0-5.44,1.85c-.86.46-1.63,1.06-2.48,1.53S34,39.4,33.16,39.9a14,14,0,0,0-4.08,4.32c-1.14,1.69-2.53,3.16-3.79,4.76a6.94,6.94,0,0,0-1,1.35c-.27.36-.26.41.05.17,0-.13-.08-.12-.31,0a9.71,9.71,0,0,0-2.68.89c-1.58.64-3.24,1.34-4.86,1.95-1.85.69-3.77.65-4.9,2.56a7.26,7.26,0,0,0-.82,2.92c0,.37,0,.95-.06,1.29a4,4,0,0,1-.55.91l4.32,2.52a10.82,10.82,0,0,0,.94-3.2,18,18,0,0,0,.47-2.83C16,55,12.5,54.3,11.23,56.28c-.38.6-.62,1.17-1,1.74a7.68,7.68,0,0,0-1,2.29,4.2,4.2,0,0,1-.44,1.1c-.51.53-1.27.91-1.82,1.45-2.28,2.28,1.26,5.82,3.54,3.54Z"/></g><g class="cls-4"><path class="cls-5" d="M38.37,41.14a6.89,6.89,0,0,0-3,.82,13.79,13.79,0,0,0-2.08.87,13.06,13.06,0,0,0-3.63,2.52,6.89,6.89,0,0,0-.66.94c-.05.09-.58,1.11-.31.76a7.25,7.25,0,0,1-.68.53,7.68,7.68,0,0,0-.88,1,4.79,4.79,0,0,1-1.59,1.34c-.45.26-.87.6-1.33.86.64-.37-.54.16-.73.24a2.65,2.65,0,0,1-1.5.3c-.91,0-1.84-.09-2.74,0a7.73,7.73,0,0,0-4.4,2.4c-1.25,1.18-2.29,2.59-3.5,3.81a9.31,9.31,0,0,0-1.76,2.1,3.92,3.92,0,0,0-.29.71l-.14.5c-.17.38-.1.34.2-.12l1.18-.54-.22.07,2.92,2c0,.2-.13.16.07-.12a6.22,6.22,0,0,1,.51-.64c.4-.4.86-.76,1.27-1.14a12.91,12.91,0,0,0,2.54-3c1-1.76-1.45-2.82-2.77-2.59A6.29,6.29,0,0,0,12.27,56a9,9,0,0,1-1.5,1.17l1.3-.28h-.31L14,58.46c-.1.55-.08.62.08.22a1.85,1.85,0,0,0,.19-.27c.15-.22.32-.43.48-.65.51-.65,1.14-1.18,1.65-1.83,1.15-1.45-.16-3.15-1.82-3.15a4.55,4.55,0,0,0-3.45,1.73c-.25.29-.48.6-.71.9-.66.82-.62.25.51.28l2.21,1.56c.09,1,.21.28.55-.21a8.71,8.71,0,0,1,1.06-1.36l-3.65-2.54c-.16.17-.31.34-.45.52-.24.33-.57.4.07.09l3.41,2.38c.41-1,1.12-1.78,1.15-2.92,0-1.66-1.49-2.24-2.92-2.05A3.67,3.67,0,0,0,10,52.57a1.91,1.91,0,0,0,1.19,3.07,6.17,6.17,0,0,0,4.9-.91c1.1-.7,2-1.69,3-2.43l-4.06-.94c.27-.71.27-.87,0-.51a1.83,1.83,0,0,0,.39,2.7,2.87,2.87,0,0,0,3.26-.16c1.26-.84,2.81-2.06,2-3.78a2.57,2.57,0,0,0-2.43-1.43,4.13,4.13,0,0,0-1.51.32,2.72,2.72,0,0,0-.47.19c-.44.19-.29.16.46-.08l1.19.28-.16-.09.82.76-.07-.16.24,1.08c0-.46.73-1.35.94-2,.09-.29.08-.63.18-.91-.17.48.22-.22.31-.44a7.71,7.71,0,0,0,.41-1.77c.48-2.67,2.14-5,3.12-7.51L19,37.28c-.35,1.34-1.49,2.53-2.19,3.7a21,21,0,0,0-2.2,3.84c-.84,2.43,2.35,3.24,3.95,2,1.83-1.37,2.53-3.79,3.81-5.61.68-1,1.42-1.91,2.12-2.87l.9-1.23c.2-.29.68-.61.24-.46l-3.52-1.28c.08-.37.05-.36-.06,0l-.21.51c-.18.42-.36.83-.56,1.24-.47,1-.87,2-1.3,3-.74,1.69-2.07,3.12-2.71,4.84-1,2.67,3,3.36,4.37,1.62a43.35,43.35,0,0,0,4.28-6.52,16.68,16.68,0,0,1,1.47-2.6c.71-.91,1.28-2,2.05-2.85l-1,.75.3-.12-3.41-2.37c-1.34,2.26-2.51,4.63-4,6.81s-2.48,4.56-4,6.68a1.84,1.84,0,0,0,.38,2.7A2.88,2.88,0,0,0,21.05,49a11.53,11.53,0,0,0,2.45-3,46,46,0,0,0,2.34-4c.76-1.3,1.51-2.58,2.33-3.85.42-.66.92-2.09,1.37-2.38l-4.05-.94c0,.63-1,1.82-1.3,2.38-.5,1.11-.79,2.27-1.35,3.35-1.2,2.33-2.1,4.83-3.47,7.06a2,2,0,0,0,1.82,3.16c1.84-.05,2.87-1.23,3.64-2.76.63-1.24,1.49-2.42,2.18-3.73a40.82,40.82,0,0,1,2.52-4.14c.38-.55.73-1.12,1.06-1.7l.34-.59c.24-.43.32-.27-.11-.09l-1.3.28h.15l-2.25-2.12a12,12,0,0,1-1.28,3.69c-.58,1.33-1.13,2.67-1.75,4a27.42,27.42,0,0,1-1.89,3.11,20.89,20.89,0,0,1-1.75,2.83l4.08,2.11A81.84,81.84,0,0,0,30,44.08a34.93,34.93,0,0,1,2.37-3.52c.34-.45.66-.9,1-1.35.11-.17.68-1,.64-1L30.4,36.43a3.62,3.62,0,0,1-.8,1.8,32.17,32.17,0,0,0-1.55,3.11c-1,2.11-2.4,4-3.38,6.06C23.48,50,27.74,50.79,29.05,49c1.09-1.48,1.9-3.16,2.95-4.64s2.19-2.6,3.15-4H30.87l.06.14-.24-1.08c0,.3.08-.06-.07.3,0-.09-.37.67-.25.45a19.18,19.18,0,0,0-.95,1.93c-.31.74-.68,1.45-1,2.18a14.71,14.71,0,0,0-1.17,2.22c-.57,2,1.66,3.22,3.41,2.37,1.9-.92,3.16-2.47,2.69-4.65a20,20,0,0,1-.41-5.78,10.76,10.76,0,0,0-.33-5.23A11.69,11.69,0,0,0,31.41,31c-.21-.31-.42-.63-.61-1l-.38-.67c-.26-.69-.49-.43-.7.78l-1.3.28h.26l-1.19-.29a5.81,5.81,0,0,1,1.08,1.4,6.12,6.12,0,0,1,0,2.34A14.21,14.21,0,0,0,29,38.73a3.93,3.93,0,0,0,1.37,1.8,9.88,9.88,0,0,1,1.44,1.81c.05.06.58.76.36.36.16.3.26.72.39,1A2.94,2.94,0,0,0,34,45.36c1.46.68,3.65,0,3.88-1.78s-.43-3-.86-4.55a30.88,30.88,0,0,0-1.41-4.5c-1-2.18-5.14-.76-4.68,1.58a19.52,19.52,0,0,0,1.44,4.48,11.19,11.19,0,0,0,1.92,3.16c1.83,1.89,5.88-.79,3.78-3a9.26,9.26,0,0,1-1.2-2.24,16.44,16.44,0,0,1-1.06-3.5l-4.68,1.58a24.47,24.47,0,0,1,1,3.46c.31,1.12,1,2.25.8,3.44l3.89-1.78c.65.3.43.4.22-.11a8.53,8.53,0,0,0-.36-.88c-.26-.48-.7-.83-1-1.29-.18-.28-.28-.59-.47-.86a4.14,4.14,0,0,0-.82-.85c-.24-.2-.84-.92-.62-.35a7,7,0,0,1-.26-2.08c-.09-1.91.51-4.16-.51-5.9-.88-1.52-2.27-3.24-4.17-3.2-2.23.05-4.14,2.13-3.34,4.34.56,1.55,1.85,2.73,2.38,4.28.62,1.79-.08,3.77,0,5.61.07,1,.18,2,.21,3.09a6.82,6.82,0,0,0,.16,1.35,6.57,6.57,0,0,1,.21.76c.2-.4.19-.54-.05-.42l3.4,2.37a19.22,19.22,0,0,1,1.44-2.77c.41-.84.75-1.69,1.14-2.54.09-.18.09-.19,0,0,.15-.23.29-.47.43-.71a7.28,7.28,0,0,0,.4-.72,2.91,2.91,0,0,0,.06-2.59c-.66-1.59-3.46-1.21-4.27,0-1,1.43-2.11,2.68-3.15,4a24.71,24.71,0,0,0-1.28,2.17c-.53.85-1.08,1.66-1.67,2.47l4.37,1.62c.52-1.11,1.25-2.08,1.87-3.14s1.17-2.19,1.69-3.32a21.54,21.54,0,0,1,1.28-2.54,5.83,5.83,0,0,0,1.17-3.05,2.34,2.34,0,0,0-3.55-1.84A8.79,8.79,0,0,0,29,37.49c-.89,1.26-1.86,2.45-2.67,3.77-1.72,2.8-3.55,5.62-5.54,8.24a1.89,1.89,0,0,0,.62,2.87,2.92,2.92,0,0,0,3.46-.76,21.87,21.87,0,0,0,1.87-3,33,33,0,0,0,2.35-3.92c.66-1.38,1.24-2.79,1.84-4.19a14.17,14.17,0,0,0,1.47-4.56,2.11,2.11,0,0,0-2.25-2.12,4.28,4.28,0,0,0-3.63,2.5c-.19.32-.37.64-.55,1-.33.57.4-.53-.24.37-.49.69-1,1.37-1.45,2.06-.94,1.41-1.58,3-2.48,4.38-.43.67-.88,1.33-1.25,2a6,6,0,0,0-.34.73c-.19.54-.47.36.32,0l1.3-.29h-.15l1.81,3.15c1.65-2.7,2.85-5.62,4.26-8.44.58-1.15.83-2.43,1.46-3.55a6.56,6.56,0,0,0,1.2-4c-.15-2-3-1.64-4.05-.95a7.16,7.16,0,0,0-2.17,3.07c-.15.29-.47.74-.81,1.26-.47.71-.9,1.45-1.3,2.2-.73,1.35-1.51,2.69-2.27,4A9,9,0,0,1,17.82,46l3.65,2.53c1.57-2.24,2.71-4.76,4.21-7.05s2.86-5,4.32-7.43a1.8,1.8,0,0,0-.68-2.21,2.83,2.83,0,0,0-2.72-.16c-1.3.54-1.78,1.68-2.55,2.76a20.44,20.44,0,0,0-2.28,3.33,33.57,33.57,0,0,1-4.22,6.76l4.37,1.62c.73-2,2.24-3.61,3-5.6s2.4-4,2.07-6.21c-.26-1.67-2.35-1.68-3.52-1.28a5.05,5.05,0,0,0-2.25,2.09c-.71,1-1.42,2-2.16,3A27.57,27.57,0,0,0,17,41.2a8.88,8.88,0,0,1-1.69,2.7L19.25,46A18.47,18.47,0,0,1,21.55,42a15.16,15.16,0,0,0,2.38-4.69c.29-1.12-1-2-1.94-2.08a2.74,2.74,0,0,0-2.87,1.49c-.79,2-1.92,3.87-2.66,5.91a15.28,15.28,0,0,0-.73,2.67l-.12.77c.13-.4.06-.31-.23.27A11.6,11.6,0,0,0,15,47.54c-.39,1.09-1.63,2.54-.88,4a2.72,2.72,0,0,0,2.51,1.31,3.86,3.86,0,0,0,1.45-.32c.13,0,1-.3.47-.2H17.26l.18,0-1-.54.13.11-.55-1v-.15l.43-1a3.32,3.32,0,0,1-.92.68L19.15,53a2.91,2.91,0,0,0,.79-2.67c-.61-1.76-2.66-1.91-4.06-.95-.72.5-1.33,1.11-2,1.67-.25.2-.54.4-.77.58-.65.48-.12,0-.24,0l1.19,3.07.2-.24-1,.75-.07,0-2.91-2.05c0,.65-.62,1.24-.86,1.84-.86,2.06,1.83,3.14,3.4,2.37a8.27,8.27,0,0,0,2.3-2.11c1.94-2.06-1.94-4.2-3.65-2.54-1.41,1.38-3.45,3.47-3.26,5.6.09,1,1.36,1.54,2.22,1.56a4.54,4.54,0,0,0,3.45-1.7c.24-.26.46-.53.68-.81a3.9,3.9,0,0,0,.31-.4c.32-.56.46,0-.78,0L12.3,53.82c-1.28,1.62-3.62,3.35-3.21,5.7a2.22,2.22,0,0,0,2.22,1.57,4.68,4.68,0,0,0,3.13-1.26c.26-.22.51-.47.8-.67.13-.1.64-.34.5-.31L13,56.26c-1.24,2.14-4.56,3.16-4.67,6a2.22,2.22,0,0,0,2.92,2,3.66,3.66,0,0,0,2.26-1.61,15.92,15.92,0,0,0,.58-1.53,7.57,7.57,0,0,1,1.51-1.64q.9-.93,1.77-1.89a14.18,14.18,0,0,1,1.27-1.41c.27-.23.56-.41.82-.64.63-.56-.05-.1.1-.11,1.85-.17,3.53.26,5.32-.46a24.78,24.78,0,0,0,4.31-2.3,26.26,26.26,0,0,0,3-2.89c.63-.56.81-1.33,1.31-2a4.44,4.44,0,0,1,1.25-1c.22-.13.48-.21.71-.33,0,0,1.33-.7.58-.43.46-.17.94-.21,1.4-.42l.47-.25c.4-.19.42-.22.07-.08a2.6,2.6,0,0,0,2.69-2.07,2.1,2.1,0,0,0-2.24-2.12Z"/></g><g class="cls-4"><path class="cls-5" d="M35.89,24.45a4.26,4.26,0,0,0,2.41-.62l.35-.23c.05,0,.28-.16.12-.08.26-.14.55-.23.82-.36a15.48,15.48,0,0,0,1.88-1l.33-.2.24-.12a7.41,7.41,0,0,0,1-.56,11.35,11.35,0,0,0,2.77-2.76c.57-.8,1.52-1.54,1.55-2.6,0-.64-.76-.73-1.26-.66s-1.62.37-1.64,1c0,.83-.79,1.41-1.25,2a10.87,10.87,0,0,1-.78,1,10.18,10.18,0,0,1-1.21,1.07l-.36.24c-.15.08-.57.27-.79.4-.41.22-.86.53-1.17.69-.47.23-1,.42-1.42.65a5.59,5.59,0,0,0-.75.43,1.92,1.92,0,0,0-.28.18c.18-.18,1.09-.16.56-.2a2.23,2.23,0,0,0-1.91.8c-.37.6.32.86.8.9Z"/></g><g class="cls-4"><path class="cls-5" d="M41.42,30.63a14.07,14.07,0,0,0,2.89-2.33,9.64,9.64,0,0,1,1.21-1.18,9.11,9.11,0,0,0,1.38-1,10.9,10.9,0,0,0,2.18-2.65c.37-.76.32-1.89,1-2.45.52-.4-.46-.41-.66-.39a3.83,3.83,0,0,0-1.94.67c-.78.61-.85,1.53-1.15,2.4a8.14,8.14,0,0,1-2,2.59,6.39,6.39,0,0,1-1.25.94,8.84,8.84,0,0,0-1.28,1.17A11.82,11.82,0,0,1,40.6,29.6a11.51,11.51,0,0,1-1.38,1c-.08,0-.39.23-.35.39s.41.16.5.16a4.22,4.22,0,0,0,2.05-.55Z"/></g><g class="cls-4"><path class="cls-5" d="M44.13,36.1s.17-.27.1-.18.14-.15.13-.15.25-.26.38-.38-.23.19.06,0l.18-.15.47-.39c.73-.63,1.39-1.33,2.07-2a7.05,7.05,0,0,0,1.7-2c.36-.84.84-1.62,1.21-2.46.28-.62-.25-1.1-.86-1.14a2,2,0,0,0-1.89.87c-.37.81-.84,1.58-1.19,2.4a2.21,2.21,0,0,1-.63.83c-.33.3-.64.6-1,.92l-.91.92-.52.49c.1-.09.06,0,0,0l-.23.19a7.34,7.34,0,0,0-1.86,2c-.35.61.31,1.1.86,1.14a2,2,0,0,0,1.9-.87Z"/></g><g class="cls-4"><path class="cls-5" d="M55,36c-.2.19,0,0,0,0l.17-.14.33-.24.65-.44a5.58,5.58,0,0,0,1.35-1.26c.15-.19.28-.39.44-.58s-.17.15-.08.07l.09-.08.22-.2c.37-.35.85-.76.81-1.32,0-.12-.19-.22-.28-.26a1.68,1.68,0,0,0-.77-.07A3.05,3.05,0,0,0,56.4,32a5.77,5.77,0,0,0-.89.82c-.12.14-.24.27-.37.4l-.14.15c.12-.11.13-.13,0-.05l-.1.09a6.78,6.78,0,0,0-1.59,1.38c-.15.22-.18.43.07.58a1.68,1.68,0,0,0,1,.11,5.13,5.13,0,0,0,2.63-1.28l.36-.28.17-.12c.1-.08-.3.18-.12.08l.08-.05c.25-.14-.35.16-.09,0l-.25.09c.19-.06-.41.07-.25,0s.19,0-.07,0h-.25c-.21,0-.21-.06-.08,0l-.29-.26a.66.66,0,0,1,0,.14v-.18a1,1,0,0,1-.12.37l.11-.19c0,.07-.09.14-.14.2s-.29.25,0,0l-.19.16-.12.09c-.15.11.24-.15.12-.08l-.21.13-.11,0c.42-.22.27-.12.16-.08l-.1,0c-.16.06.43-.13.24-.08s-.3,0,.25,0c-.19,0,.41,0,.23,0a3.35,3.35,0,0,0-1.13.23,1.82,1.82,0,0,0-.79.52c-.37.55.31.74.75.72a5.19,5.19,0,0,0,2.94-1.1c.51-.38,1.12-1,1-1.7a.41.41,0,0,0-.28-.26,4.14,4.14,0,0,0-3.68.83c-.26.18-.51.4-.76.6l-.19.14.13-.09-.1.06-.09,0s.39-.17.19-.1.44-.12.25-.08c0,0,.47-.08.24,0l1.11.69.16-.21.08-.1-.08.08.37-.29a7.54,7.54,0,0,0,.73-.53,10.19,10.19,0,0,0,.8-.81l.32-.35c-.11.11-.13.13,0,.05l.1-.09.21-.16-2.59.22v-.12a.55.55,0,0,1-.06.18l.11-.19a1.43,1.43,0,0,1-.14.2c-.06.08-.3.29,0,0L55.6,33a3.85,3.85,0,0,0-.51.56c-.15.2-.28.4-.45.59l-.12.13c-.13.15.11-.09,0,0l-.29.25-.59.41a9.59,9.59,0,0,0-1.33,1,.39.39,0,0,0,0,.53,1.14,1.14,0,0,0,.76.19A2.85,2.85,0,0,0,55,36Z"/></g><g class="cls-4"><path class="cls-5" d="M39.74,43c.11-.16.6-.29.83-.4s.34-.19.52-.27a.54.54,0,0,1-.21.08,4.38,4.38,0,0,0,.88-.09,14.19,14.19,0,0,0,3.94-1.42c.56-.26,1.18-.38,1.74-.66s1.26-.64,1.89-.94c.36-.17.71-.34,1.05-.52l.3-.16c-.16.07.08,0,.11,0a4.32,4.32,0,0,0,1.85-1,.57.57,0,0,0-.28-1.05,2.47,2.47,0,0,0-2,.55c.11-.11-.07,0-.17.06a6.29,6.29,0,0,0-1.11.45c-.57.3-1.15.57-1.73.86-1.23.61-2.5,1.06-3.74,1.65a6.08,6.08,0,0,1-1.42.53,11,11,0,0,0-2,.35,11.42,11.42,0,0,0-1.54.7A3.92,3.92,0,0,0,37,43c-.4.56.35.86.79.88a2.39,2.39,0,0,0,1.92-.8Z"/></g><g class="cls-4"><path class="cls-5" d="M29.63,22.21A3.62,3.62,0,0,0,32.7,21l.35-.37c.23-.26-.21.15.06-.07l.25-.19c.3-.23.61-.45.9-.7a10.83,10.83,0,0,0,1.66-2,8.05,8.05,0,0,0,1.24-2.57c.1-.4-.3-.73-.63-.84a1.92,1.92,0,0,0-1.47.12,4,4,0,0,0-1.46,1.47c0,.06-.22.41-.06.1a3.37,3.37,0,0,1-.28.38,8.61,8.61,0,0,1-.55.68,1.58,1.58,0,0,1-.28.3c.27-.2-.08,0-.13.07s-.1.07.1-.05l-.15.08-.29.15a4.5,4.5,0,0,0-1,.73l-.25.25q.22-.2.06-.06a1.69,1.69,0,0,1,.38-.19l1.47,1.39a18.18,18.18,0,0,1,2.5-2.54s-.22.2-.09.07l.32-.28.27-.26a6.75,6.75,0,0,0,.53-.54,2.84,2.84,0,0,0,.79-1.58c0-.7-.73-1-1.33-.92S34,14,34,14.74c0,0,0,.08,0,.13s0-.09,0-.08l-.13.26c-.08.16,0,0,0-.05s-.1.14-.13.17-.15.17-.23.26-.33.33-.5.49L33,16,33,16l-.44.39a16.84,16.84,0,0,0-2.4,2.45c-.25.37-.4.79,0,1.14a1.62,1.62,0,0,0,1.48.25,2.77,2.77,0,0,0,1.14-.59,3.39,3.39,0,0,0,.44-.41c.1-.1.08-.09-.06,0l.14-.11c-.17.1-.18.11,0,0l.16-.09.31-.17a4,4,0,0,0,.89-.63,9.11,9.11,0,0,0,1.25-1.45c.18-.26.35-.52.52-.79-.16.26.06-.07.1-.12l.12-.13a.73.73,0,0,1-.3.22l-2.11-.72c0,.19,0,0,0,.1l-.09.25c-.06.15-.13.3-.2.44a8.08,8.08,0,0,1-.52.9c.09-.15,0,0,0,.05l-.12.18-.33.44c-.21.27-.42.55-.65.81-.1.11,0,.07,0,0a1.63,1.63,0,0,1-.2.17l-.37.28a8,8,0,0,0-.95.79,3.47,3.47,0,0,0-.63.64c.09-.14.19-.08,0,0s.33-.15.07,0c0,0,.34-.11.13-.06a.67.67,0,0,1,.31,0c.12,0,.12,0,0,0a1.89,1.89,0,0,0-1.89.88c-.28.66.24,1.11.87,1.19Z"/></g><g class="cls-4"><path class="cls-5" d="M29.23,46.59c-.78.72-1.4,1.67-2.24,2.31a5.58,5.58,0,0,1-1.36.68,11,11,0,0,0-1.45.85c-.34.22-.7.35-1.05.55s-.85.63-1.31.89a14.06,14.06,0,0,1-3.4,1,9.3,9.3,0,0,0-2.7,1.58,10.22,10.22,0,0,0-2.19,2.36,17.35,17.35,0,0,1-1.93,2.64,4.85,4.85,0,0,0-1.54,2.4C9.81,63.34,12.78,63,13,61.64c0-.28.43-.59.6-.79.36-.42.77-.78,1.13-1.19.64-.73,1-1.65,1.58-2.41a7.62,7.62,0,0,1,2-1.83,3.4,3.4,0,0,1,1.07-.55,15.15,15.15,0,0,0,1.87-.39,28.52,28.52,0,0,0,5.23-2.85,16.67,16.67,0,0,0,2.6-1.4c.79-.67,1.37-1.53,2.13-2.22,1.45-1.32-.82-2.44-1.95-1.42Z"/></g><path class="cls-6" d="M71.08,37.61a2.07,2.07,0,0,0-1.69,1,1.76,1.76,0,0,0-.18.59,1.8,1.8,0,0,0,0,.4,1.52,1.52,0,0,0,.06.47c.06.16.15.27.22.42l-.12-.25a3.69,3.69,0,0,1,.11.45,4.25,4.25,0,0,0,.31.6L69.64,41a.84.84,0,0,1,.08.31l0-.27s0,.07,0,.11a.55.55,0,0,0,.07.4.6.6,0,0,0,.27.32,1.64,1.64,0,0,0,1,.22,2.13,2.13,0,0,0,1.09-.4c.22-.18.51-.45.51-.76v-.12a.51.51,0,0,0-.08-.4.58.58,0,0,0-.27-.31,1.53,1.53,0,0,0-1-.22,2,2,0,0,0-1.09.4,1.11,1.11,0,0,0-.51.76v.11L72.64,41a1.91,1.91,0,0,0-.07-.63,3,3,0,0,0-.3-.56l.13.24a1.94,1.94,0,0,1-.12-.43A2.1,2.1,0,0,0,72,39l.12.24a.4.4,0,0,1,0-.15l0,.27a1.94,1.94,0,0,1,0-.59l-.08.27a.77.77,0,0,1,.07-.16l-.17.26a.1.1,0,0,1,0,0l-.25.23,0,0-.32.19h0l-.38.14h0l-.39.07h0a2.33,2.33,0,0,0,1.09-.39,1.24,1.24,0,0,0,.51-.77.78.78,0,0,0-.35-.71,1.7,1.7,0,0,0-1-.22Z"/><path class="cls-6" d="M73.61,40a.7.7,0,0,1,.14.16l-.1-.19a3.86,3.86,0,0,1,.16.48,1.88,1.88,0,0,0,.29.54,1.3,1.3,0,0,0,.76.47,1.91,1.91,0,0,0,.92,0A2.38,2.38,0,0,0,77,40.89a1.07,1.07,0,0,0,.34-.54,1.22,1.22,0,0,0,0-.57,1.66,1.66,0,0,0-.11-.38,5.52,5.52,0,0,1-.16-.54,1.34,1.34,0,0,0-.25-.49.86.86,0,0,0-.29-.21,1.7,1.7,0,0,0-.63-.14,1.46,1.46,0,0,0-.21,0,1.8,1.8,0,0,0-.22,0,3.06,3.06,0,0,0-1.1.37,1,1,0,0,0-.35.31.61.61,0,0,0-.19.33v.22a.54.54,0,0,0,.3.33,1.6,1.6,0,0,0,1,.12h-.32s0,0,0,0l-.32-.05h0l-.27-.09.05,0-.19-.15a.48.48,0,0,1,.09.11l-.11-.19a2.62,2.62,0,0,1,.19.62c0,.09.08.18.11.27a2,2,0,0,1,.08.43v-.22a.45.45,0,0,1,0,.2l.1-.22a.21.21,0,0,1,0,.06l.19-.22s0,0,0,0l2.05-.55-.06,0,.27.1-.11-.07L77,40a1.14,1.14,0,0,1-.26-.32l.11.19a1.72,1.72,0,0,1-.16-.43,1.43,1.43,0,0,0-.08-.22,1.31,1.31,0,0,0-.27-.38.63.63,0,0,0-.32-.19,1.22,1.22,0,0,0-.46-.09,2.89,2.89,0,0,0-1.14.22l-.33.17a1.6,1.6,0,0,0-.44.42c-.1.18-.19.46,0,.63Z"/><path class="cls-6" d="M81.89,38.27v.14c0-.25,0-.5,0-.75a.84.84,0,0,0,0-.27,1.09,1.09,0,0,1,0-.26v.2c0-.12.06-.23.08-.35a.28.28,0,0,0,0-.28.37.37,0,0,0-.24-.2,1.07,1.07,0,0,0-.43-.09,1.81,1.81,0,0,0-.52,0,2.87,2.87,0,0,0-1.1.37l-.27.18a1,1,0,0,0-.29.4c0,.09,0,.17-.06.26a1.42,1.42,0,0,0,0,.29.68.68,0,0,0,0,.14,1.55,1.55,0,0,1,.06.23,2.71,2.71,0,0,1,0,.29v-.19c0,.22,0,.44,0,.66a.32.32,0,0,0,.19.22.7.7,0,0,0,.36.14,1.68,1.68,0,0,0,.5,0,1.9,1.9,0,0,0,.58-.09,2.44,2.44,0,0,0,1-.47l.19-.2a.46.46,0,0,0,.11-.39Z"/><g id="kefAR8.tif"><path d="M56.48,28.76c.15-.58-.26-1-.45-1.46a.35.35,0,0,0-.45-.21c-.27.08-.52.22-.81.07a.1.1,0,0,0-.14.07c-.13.46-.54.47-.9.51a.38.38,0,0,0-.24.11,2,2,0,0,1-.88.58c-.35.07-.33.46-.49.68-.42.56-1,.95-1.42,1.47-.27.33-.33.77-.7,1.05-.17.13,0,.44,0,.68s.27.32.49.34c.48.05.85.44,1.36.4.14,0,.16.15.08.23s-.1.39-.36.32a1.07,1.07,0,0,1-.22-.15c-.18-.12-.35-.17-.36.13s-.17.31-.39.34c-.9.13-1.75.47-2.64.68a3.09,3.09,0,0,0-1,.54,3.19,3.19,0,0,1-1.34.46,4.86,4.86,0,0,0-2.09,1.22,10.38,10.38,0,0,1-.88.59.26.26,0,0,1-.3,0c-.13-.1,0-.18,0-.26,0-.55.36-.8.83-1.05A6.83,6.83,0,0,0,45,34.79a18.4,18.4,0,0,1,1.58-1.32c.06,0,.15-.1.15-.15a3.15,3.15,0,0,1,.66-1.52c.07-.11.08-.3.2-.34.79-.22.82-1.13,1.4-1.51s.46-.94.86-1.28a.29.29,0,0,0,.08-.25,2.13,2.13,0,0,0-.87-1.7,2.28,2.28,0,0,1-.94-.93.33.33,0,0,0-.62,0c-.43.71-1,1.34-1.36,2.08a4,4,0,0,1-1.23,1.54c-.63.44-1.31.8-2,1.2a5.53,5.53,0,0,0-.83.78,10.53,10.53,0,0,0-1.35,1.32.32.32,0,0,1-.44.08c-.14-.1,0-.23.05-.38a8.67,8.67,0,0,1,1.12-1.22c.25-.29.42-.64.69-.92a2.81,2.81,0,0,1,.82-.59,2.57,2.57,0,0,1,1.15-.49c.12,0,.18-.16.22-.27a1.07,1.07,0,0,1,.6-.58.5.5,0,0,0,.36-.5c0-.53.44-.85.7-1.24.1-.14.28-.24.31-.45a.32.32,0,0,1,.23-.25.73.73,0,0,0,.58-.75c0-.18.13-.27.22-.38a7.64,7.64,0,0,0,.47-.83c.2-.34.11-.89.7-1,.29-.07.32-.67.25-1a4.06,4.06,0,0,0-.54-1.13.54.54,0,0,0-.15-.21c-.35-.23-.66-.47-.64-1a.3.3,0,0,0-.34-.31c-.24,0-.26-.36-.28-.55s.26-.49.47-.65.33.08.46.22c.33.34.58.72.95,1a2.2,2.2,0,0,1,.63,1.42,1.68,1.68,0,0,0,.23.79c.17.25-.06.45-.09.67a3.25,3.25,0,0,1-.4,1.27c-.05.09-.11.21-.19.24-.52.15-.35.64-.49,1-.06.13.07.19.19.25a3.29,3.29,0,0,1,1.27,1.24c.18.3.57.44.69.83a1.33,1.33,0,0,1,.07.74c-.14.48,0,1.06-.42,1.46a.1.1,0,0,0,0,.16c.07.06.14,0,.19-.05l.12-.18a2.64,2.64,0,0,1,1.07-1c.19-.08.52-.14.46-.55,0-.21.28-.34.44-.48.33-.28.63-.7,1.17-.51a.22.22,0,0,0,.3-.13c.16-.45.6-.49,1-.65s.53-.19.78-.33c.42-.25.54-.16.75.27A5.59,5.59,0,0,1,57,27.25a5.8,5.8,0,0,1-.07,3.12,1.47,1.47,0,0,0-.08.3c0,.09,0,.2.11.22s.13-.1.13-.19c0-.34.28-.35.52-.37a.38.38,0,0,1,.43.41c0,.37.24.76-.06,1.12A.19.19,0,0,0,58,32c0,.18.31.28.22.51-.31.8-.17,1.77-.81,2.45a16.08,16.08,0,0,1-2.92,2.85,11,11,0,0,1-2.34,1.48c-.25.09-.53.12-.71.39s-.41,0-.62.09a20.42,20.42,0,0,1-2.64,1,.65.65,0,0,1-.31,0,2.93,2.93,0,0,0-2,.37,2.29,2.29,0,0,1-.83.13,3.89,3.89,0,0,0-1.77.73,11.09,11.09,0,0,0-1.61,1c-.84.8-1.94.92-2.93,1.35a7.45,7.45,0,0,0-2.11,1.31,2.15,2.15,0,0,1-.58.42,4,4,0,0,0-.78.59c-.67.53-1.27,1.14-1.89,1.72a12,12,0,0,0-.86,1.29A9.91,9.91,0,0,1,31,51.34a6.54,6.54,0,0,0-1.45,1.11c-.4.54-1,.76-1.44,1.2s-1,.73-1.39,1.18c-.15.16-.36.26-.47.47s-.26.27-.37.19c-.39-.28-.42,0-.54.27a.6.6,0,0,1-.42.31,6.32,6.32,0,0,0-1.5.56,2.79,2.79,0,0,1-1.29.34,5.72,5.72,0,0,0-2.33.93c-.7.34-1.21,1-1.92,1.29a5.12,5.12,0,0,0-2,2,.61.61,0,0,0-.14.53.76.76,0,0,1-.22.61,19.62,19.62,0,0,1-2.13,2.42.59.59,0,0,1-.18.14,6,6,0,0,0-2.13,1.85c-.08.11-.18.31-.38.15s-.25-.26-.07-.45c.49-.55.72-1.3,1.47-1.68a2,2,0,0,0,.87-.87,4,4,0,0,1,.46-.64s0-.07.05-.07c.58.32.44-.32.6-.5s.49-.56.71-.86a.41.41,0,0,0,0-.22,1.57,1.57,0,0,1,.83-1.41.8.8,0,0,0,.35-.54c.13-.82.78-1.15,1.38-1.52.18-.1.4-.15.43-.41a.09.09,0,0,1,.05-.07c.71-.31,1.26-.94,2.08-1l0,0c.63-.52,1.55-.15,2.14-.74.12-.11.29-.05.43-.08A6.92,6.92,0,0,0,24,55.39c.25-.11.56-.32.79.07.06.09.18.09.21,0,.11-.62.59-.84,1.09-1,.24-.09.26-.31.42-.45a10.84,10.84,0,0,1,1.6-1.24,9.4,9.4,0,0,0,1.54-1.3c.34-.3.67-.66,1-.9.51-.37.66-1,1.18-1.31a.72.72,0,0,0,.33-.47c.14-.74.76-1.13,1.24-1.59.19-.19.29-.44.5-.59s.51-.55.94-.52c0,0,.08,0,.08,0,.17-.5.81-.51,1-1,.15-.34.61-.31.92-.47s.46-.49.82-.17c0,0,.06-.1.09-.17.13-.3.16-.75.69-.57,0,0,.08,0,.08,0,.32-.76,1.08-.61,1.64-.68a2.28,2.28,0,0,0,1.23-.75,1.86,1.86,0,0,1,.38-.3c.88-.43,1.62-1.1,2.53-1.46a11,11,0,0,1,1.94-.62h0a3.38,3.38,0,0,1,1.92-.32c.58,0,1-.39,1.47-.48a3.25,3.25,0,0,1,.93-.23c.27,0,.41-.22.63-.31a8.42,8.42,0,0,0,.93-.29A1.42,1.42,0,0,0,53,37.06s0-.1,0-.12c-.37-.46-.25-1.18-.84-1.53-.21-.13-.16-.37,0-.52s.42-.59.66-.22a8.09,8.09,0,0,1,.77,1.22c.06.14.13.26,0,.41a.27.27,0,0,0,0,.37.41.41,0,0,1,.11.48.16.16,0,0,0,.14.23c.13,0,.22-.05.18-.19s.06-.18.19-.18a.67.67,0,0,0,.66-.44,2.93,2.93,0,0,1,.71-.78c.16-.17.48-.2.42-.54,0,0,.05-.1.09-.1.63,0,.56-.61.78-1a4.41,4.41,0,0,0,.27-2.38c0-.13,0-.34-.15-.39s-.22.11-.3.21a2.42,2.42,0,0,1-1.26.82c-.28.08-.59.42-.94.49-.53.11-1,.41-1.51.49a.58.58,0,0,1-.43-.06c-.14-.09-.3-.18-.29-.37s.22-.2.38-.23a2.42,2.42,0,0,1,.93-.05.5.5,0,0,0,.64-.28c.14-.34.54-.23.77-.47s.79-.61,1.15-1a1.65,1.65,0,0,0,.29-1.17A3.1,3.1,0,0,0,56.48,28.76Zm-6.89,2.18c-.45-.14-.7.07-.77.25-.15.38-.49.6-.65.95a.47.47,0,0,1-.61.26,1.15,1.15,0,0,1-.06.84c0,.14-.26.26-.06.42a.52.52,0,0,0,.54.09c.53-.2,1-.45,1-1.13a.59.59,0,0,1,.1-.28,1.23,1.23,0,0,0,.2-.73A.48.48,0,0,1,49.59,30.94Z"/><path d="M77.48,39.08a3.64,3.64,0,0,0-.48-1,.28.28,0,0,1,0-.33c.28-.29.09-.54-.15-.65s-.38-.47-.37-.78a.56.56,0,0,0-.23-.52,1.81,1.81,0,0,1-.5-1c-.05-.24,0-.5-.06-.75s.09-.31-.18-.24c-.07,0-.1,0-.1-.08a3,3,0,0,0-.5-1.7.42.42,0,0,1,0-.35c0-.09.07-.21,0-.25-.62-.31-.4-1-.72-1.47-.09-.13-.2-.28,0-.45s0-.17,0-.24-.55-.29-.57-.74c0-.18-.35-.4-.27-.72a.26.26,0,0,0-.13-.22c-.42-.23-.47-.66-.6-1a2.69,2.69,0,0,0-.41-.74c-.26-.33.11-.4.25-.54s.21,0,.3.15a.74.74,0,0,0,1,.3A5.12,5.12,0,0,1,75.11,25c.5-.13,1-.32,1.48-.47.31-.09.49.15.73.19s.47.11.48.43c0,.1.1.13.19.16s.26.11.23.19c-.13.34.16.56.2.85a1.38,1.38,0,0,0,.52.95c.13.11.18.28.28.4a11.08,11.08,0,0,1,.8,1.62c.11.18.29.35.26.6,0,.07,0,.17,0,.21.71.67.79,1.64,1.19,2.46a10.57,10.57,0,0,1,.67,2.4,1.3,1.3,0,0,1-.08.84c-.1.22,0,.34.19.57.4.44.95.18,1.33.51a1.38,1.38,0,0,1,.53.64c.09.31.52.31.65.63.06.13.17.16,0,.34s0,.38,0,.57a2.21,2.21,0,0,1-.49,2c-.27.32-.44.78-.89.88-.24.05-.39,0-.48.32s-.92.36-1.12.26a1.32,1.32,0,0,1-.58-1.16c.13-.37.39-.45.73-.17s.5.23.72,0,.41-.17.58-.32a1.49,1.49,0,0,0,.46-1.56.16.16,0,0,1,0-.12c.35-.33,0-.48-.18-.63s-.39-.31-.44.13a.88.88,0,0,1-.46.58c-.1.07-.21.13-.31,0a.27.27,0,0,1,0-.32,1.69,1.69,0,0,0-.48-1.65c-.13-.09-.22-.08-.27.08a2.48,2.48,0,0,1-.37.81.17.17,0,0,0,0,.24c.33.34.31.49.06.92s-.1.75-.25,1.12-.22.49-.72.32c-.2-.08-.19-.14-.1-.28s0-.25,0-.39c0-.32-.1-.4-.4-.25s-.32.18-.5,0-.16,0-.22.05-.3.1-.47,0-.31-.6-.75-.41c0,0,0-.13,0-.22a1.07,1.07,0,0,1,1.41-.42c.19.14.26,0,.44,0,.57-.17.57-.58.59-1,0-.16.08-.34.09-.52s.32-.42.11-.47-.59-.21-.86.11-.59.45-.57.9a.18.18,0,0,1-.23.16.49.49,0,0,1-.32-.45c0-.26.24-.53,0-.78,0,0,0-.09,0-.11.38-.32.56-.93,1.23-.86.33,0,.65-.13,1-.09s.57-.57.42-.84c-.26-.44-.2-1-.51-1.41-.5-.68-.42-1.63-1-2.25a.05.05,0,0,1,0,0,2.69,2.69,0,0,0-.62-1.55s-.07-.1-.06-.12c.26-.46-.19-.54-.39-.77a4,4,0,0,1-.55-.91c-.24-.5-.45-1-.66-1.54,0-.07-.07-.16,0-.21.24-.48-.07-.41-.38-.43a3.42,3.42,0,0,0-1.72.54,6.59,6.59,0,0,0-1,.47.51.51,0,0,0-.21.68c.21.63.71,1.1.87,1.74.12.46.5.85.4,1.39,0,.15.14.28.25.4a.69.69,0,0,1,.21.72.33.33,0,0,0,0,.22c.66.81.51,1.89.91,2.78A7.25,7.25,0,0,1,77.24,36a6.44,6.44,0,0,1,.36,2.3C77.56,38.52,77.74,38.81,77.48,39.08Z"/><path d="M76.37,42.9a1.25,1.25,0,0,1,.13,1.4,1.55,1.55,0,0,0-.11,1.53c.3.53.25,1.14.5,1.69a8.77,8.77,0,0,0,1,1.87c.1.12.25.28.13.43s-.22-.12-.35-.1c-.46.07-.46-.55-.85-.58a.66.66,0,0,0,0-.55c-.26-.4-.62-.75-.54-1.29,0-.07-.1-.2-.18-.24s-.26-.28-.38-.42a3.28,3.28,0,0,1,.06-2,.39.39,0,0,0,.08-.2,2.29,2.29,0,0,1,.28-1.08.64.64,0,0,0-.16-.76,1.22,1.22,0,0,0-1,0,.73.73,0,0,1-.8,0c-.46-.34-1.08-.38-1.46-.88-.17-.23-.45-.12-.56.15a1.29,1.29,0,0,1-1.2.77c-.23,0-.49.09-.42.5-.17-.13-.28-.3-.47-.06s-.53.13-.78.08a3.78,3.78,0,0,0-.75-.12,1,1,0,0,1-.78-.42,18.24,18.24,0,0,1-1.14-1.81c-.17-.26,0-.51-.14-.76a6.33,6.33,0,0,1-.71-2.63.38.38,0,0,0,0-.16c-.57-.43-.79-1.16-1.39-1.57a1.16,1.16,0,0,1-.44-.75,1.21,1.21,0,0,0-.19-.59c-.27-.33.08-.7-.13-1l.23-.17c.14-.09.21,0,.25.1a11.36,11.36,0,0,1,.59,1.15,1.38,1.38,0,0,0,.51.7c.17.11.42.21.29.52a.15.15,0,0,0,0,.12,4.13,4.13,0,0,1,1.21,2.58,4.34,4.34,0,0,0,.25,1.1c.42.84.75,1.84,1.83,2.14.13,0,.29.15.41,0s0-.24-.1-.36a3.24,3.24,0,0,1-.47-2.29c0-.09,0-.13-.08-.19-.13-.24,0-.4.2-.48s.22-.1.33-.13.16-.3.35-.06.23.38.07.51c-.4.33-.25.72-.16,1.07A2.47,2.47,0,0,0,69.76,41a.7.7,0,0,1,.12.68c-.07.35.16.42.39.32a3.61,3.61,0,0,0,1.34-.77A1.2,1.2,0,0,1,72,41c.4-.2.49-.55.18-.85a.75.75,0,0,1-.23-.5c-.1-.68-.19-1.37-.35-2a2.15,2.15,0,0,0-.8-1.24,1.13,1.13,0,0,1-.48-.86,3.09,3.09,0,0,0-.47-1.69.66.66,0,0,1-.11-.43c0-.18,0-.36-.2-.45,0,0-.1-.06-.09-.08.06-.61-.6-.88-.68-1.42,0,0,0-.06,0-.08.24-.5-.19-.8-.38-1.14a12.13,12.13,0,0,0-.66-1.15c-.3-.39-.55-.33-.89-.26a7.63,7.63,0,0,1-1.07,0,2.71,2.71,0,0,0-1,.23c-.26.12-.57,0-.79.25a.17.17,0,0,1-.24-.05c-.06-.08,0-.13.06-.19.35-.45.69-.9,1.36-.83.08,0,.22,0,.24-.1.26-.56.85-.49,1.29-.7s.81,0,1.19.19c.17.08.14.32.08.45s0,.27.21.33a.81.81,0,0,1,.49.41c.35.68.66,1.36,1,2,.15.28.27.57.41.84s.42.63.34,1,.23.4.33.61a14.67,14.67,0,0,1,.37,1.45A3,3,0,0,0,72,36.35a.36.36,0,0,1,.11.23c.09.66.17,1.32.26,2a.79.79,0,0,0,.13.33,1.73,1.73,0,0,1,.26,1.38c0,.16.07.21.15.29a2.47,2.47,0,0,0,1.79.75,2.71,2.71,0,0,1,1,.09c.06,0,.18,0,.21,0,.23-.33.72-.27.93-.64a.51.51,0,0,1,.37-.24c.14,0,.38.07.3-.26,0-.07.17-.17.3-.11s0,.14,0,.22a1.26,1.26,0,0,1-.35,1.12c-.07.07-.12.17-.24.19s-.27.09-.17.33S76.63,42.85,76.37,42.9Z"/><path d="M90.68,37.05a17.88,17.88,0,0,1-.23,2.08A12.25,12.25,0,0,1,90,41.86a24.75,24.75,0,0,0-.34,2.81c-.08.44.08.92,0,1.38-.18,1.1,0,2.22-.23,3.31-.13.78-.36,1.54-.41,2.31a5.23,5.23,0,0,1-1.17,2.69c-.42.62-.84,1.25-1.22,1.9a.85.85,0,0,0,.11,1.11.75.75,0,0,1,.21.48,3,3,0,0,0,1.16,1.76,3.41,3.41,0,0,1,.6.6,10.16,10.16,0,0,0,1.58,1.43c.42.43,1,.58,1.42,1,.19.2.49.12.7.28a5.9,5.9,0,0,1,1.11,1.18A6.55,6.55,0,0,0,95,65.65a.66.66,0,0,1,.24.31c0,.15.25.34,0,.46s-.45.25-.62-.07a.69.69,0,0,0-.36-.31A4.86,4.86,0,0,1,93,65c-.48-.5-.74-1.16-1.55-1.39a4.84,4.84,0,0,1-1.82-1.14c-.4-.34-.9-.61-1.29-1a6.64,6.64,0,0,1-1.65-2.21c-.11-.27-.36-.42-.49-.69A13.79,13.79,0,0,0,85.72,57c-.23-.42.06-1,.27-1.35s.33-.41.33-.71a.1.1,0,0,1,0-.08c.73-.35.59-1.22,1-1.73.13-.15.14-.41.44-.36,0,0,.11,0,.11,0,0-.41.31-.76.27-1.17a.66.66,0,0,1,0-.34c.19-.69.12-1.41.34-2.09a1.79,1.79,0,0,0,.07-.8.62.62,0,0,1,.07-.43c.16-.21.13-.33,0-.59a2,2,0,0,1,0-1.21,7.78,7.78,0,0,0,.08-1.44c0-.22,0-.52.15-.65s.18-.57.36-.81c0,0,0-.1,0-.13a.88.88,0,0,1,.12-1.23.26.26,0,0,0,0-.21,2.59,2.59,0,0,1,0-1.84c.12-.38.07-.82.19-1.22,0-.09,0-.19.07-.26.33-.3,0-.73.2-1.06,0,0,0-.07,0-.08-.47-.49-.36-1.2-.69-1.75-.16-.29-.08-.69-.24-1,0-.09.09-.24.23-.3a.35.35,0,0,1,.4.13A2.83,2.83,0,0,1,90.47,36,6.33,6.33,0,0,1,90.68,37.05Z"/><path d="M35.64,17.86c0-.07,0-.19,0-.2.42-.2.29-.71.59-1s-.11-.44,0-.68,0-.41-.22-.58a.57.57,0,0,1-.21-.75,2.65,2.65,0,0,0,.1-1.62.49.49,0,0,0-.65-.42,1.05,1.05,0,0,0-.85.42c-.16.22-.58.24-.87.36s-.74.5-1.16.66c-.12,0-.16.18-.2.29-.08.28-.13.59-.55.44-.06,0-.11,0-.12.1-.15.86-.92,1.18-1.5,1.63a4.11,4.11,0,0,1-1.52.44,1.64,1.64,0,0,0-.73.31.64.64,0,0,1-.63.22c-.11,0-.14,0-.16.08-.07.27-.28.36-.53.41a.35.35,0,0,0-.27.21,3.64,3.64,0,0,1-1,1,5.5,5.5,0,0,0-1.33,1.43A3.91,3.91,0,0,1,22.44,22a16.3,16.3,0,0,1-1.86.84.23.23,0,0,0-.11.08,5.51,5.51,0,0,1-2.16,1.47,6.46,6.46,0,0,0-1.55,1.44,8.16,8.16,0,0,0-.83,1.5,7.34,7.34,0,0,0-.68,1.48c-.07.17-.14.37-.41.36s-.21.26-.19.33c.12.35-.12.57-.24.82a2,2,0,0,0-.25.71c0,.15,0,.42-.31.26-.07,0-.17.06-.14.12.3.49-.13.84-.27,1.21A8.92,8.92,0,0,0,13,33.84a.25.25,0,0,1-.1.18c-.11,0-.13-.08-.19-.14a1.27,1.27,0,0,1,.05-1.44,6.93,6.93,0,0,0,1-2.33s0-.1,0-.13c.51-.46.31-1.34,1-1.7.18-.09.15-.32.18-.49a1.26,1.26,0,0,1,.47-.92A1.15,1.15,0,0,0,16,25.8c-.06-.3,0-.64.38-.75.11,0,.13-.15.16-.26a.68.68,0,0,1,.33-.46c.49-.17.72-.62,1.1-.91a.46.46,0,0,1,.2-.09,15.19,15.19,0,0,0,2.24-1,.58.58,0,0,0,.23-.21c.37-.55,1-.71,1.54-1a2.18,2.18,0,0,0,.53-.43,8.76,8.76,0,0,1,2.63-2.38c.43-.21.49-.61.84-.81a2.63,2.63,0,0,0,1-.79.91.91,0,0,1,.88-.3,7,7,0,0,0,1.59-.24.38.38,0,0,0,.22-.14,22.08,22.08,0,0,0,1.69-1.8A3.54,3.54,0,0,1,33,12.74c.62-.21,1.09-.78,1.82-.74.18,0,.38-.22.57-.33a.64.64,0,0,1,1,.54c0,.34.2.64.19,1a7.12,7.12,0,0,1,0,.8c0,.21-.09.46.16.61a.18.18,0,0,1,.09.14,7.35,7.35,0,0,1-.59,2.66C36.17,17.64,35.8,17.61,35.64,17.86Z"/><path d="M74.6,16.88c-.4.21-.69.22-.94.61a1.93,1.93,0,0,1-1.33,1A1.54,1.54,0,0,1,70.92,18s0-.06,0-.08c.25-.33,0-.84.35-1.13l0,0a9.26,9.26,0,0,1,1-1.52s0-.1.06-.11c.5-.26.75-.87,1.27-1.05a1.85,1.85,0,0,1,1.52.14,5.87,5.87,0,0,1,.65.46c.48.43.49.54.22,1.14a1.81,1.81,0,0,0-.14.61,6.21,6.21,0,0,1-.93,2.83c-.39.66-.75,1.44-1.64,1.67-.18,0-.24.27-.4.39a4.62,4.62,0,0,1-2.31.67,3.41,3.41,0,0,1-2.63-.64c-.19-.13-.14-.31-.09-.49a.33.33,0,0,1,.38-.29,2.46,2.46,0,0,1,.85.25,2.65,2.65,0,0,0,1.8-.05c.51-.16,1-.28,1.55-.41a.36.36,0,0,0,.24-.18,9.18,9.18,0,0,1,1.25-1.32,2.72,2.72,0,0,0,.47-1.17A5.06,5.06,0,0,1,74.6,16.88Zm-2.14.43c.1,0,.22,0,.27-.07.35-.4,1-.39,1.31-.89.21-.31.73-.38.72-.91,0-.14.22-.27,0-.43s-.38-.26-.58-.14A3.55,3.55,0,0,0,72.75,16a4.88,4.88,0,0,0-.45,1c0,.08-.17.12-.11.22S72.37,17.29,72.46,17.31Z"/><path d="M57.31,44.18c0,.17,0,.33,0,.49s0,.52.31.7a1,1,0,0,1,.4.93,6.3,6.3,0,0,0,.31,1.33c.11.47,0,1,.34,1.43a1,1,0,0,1,.25,1,.14.14,0,0,0,0,.11c.47.07.37.49.45.78a7.32,7.32,0,0,0,1,2c.08.12.4.15.6.28a1.9,1.9,0,0,1,.72,1c.27.8.59,1.59.84,2.4a5,5,0,0,0,.94,1.52c.31.4.84.42,1.26.63a7.23,7.23,0,0,0,1.65.53c.13,0,.27.12.26.21s-.09.44-.17.46-.34.3-.55.25c-.72-.17-1.55,0-2.1-.7a.5.5,0,0,0-.29-.2c-.67-.19-1-.74-1.29-1.28a4.64,4.64,0,0,1-.41-1.31.72.72,0,0,0-.19-.39c-.19-.16-.2-.41-.28-.63-.25-.68-.28-1.48-.91-2a.57.57,0,0,1-.19-.29c-.1-.32-.28-.52-.66-.45-.08,0-.23,0-.23-.07,0-.38-.37-.51-.51-.8s-.37-.65-.21-1.05a.35.35,0,0,0-.09-.37c-.36-.23-.36-.67-.63-1s-.17-.53-.24-.8c-.17-.68-.28-1.37-.45-2a3.45,3.45,0,0,0-.34-.73c-.07-.15-.24-.31,0-.43s.06-.18,0-.27-.12-.1-.21-.05-.26.05-.22-.07c.16-.52-.29-.85-.33-1.29,0-.25,0-.58.43-.63s.5.14.55.45a1.61,1.61,0,0,1,0,.31Z"/><path d="M45.7,17.51s0-.09,0-.14c.34-.46.15-1,.32-1.53.09-.25.18-.56-.19-.73a.13.13,0,0,1-.07-.1c0-.66-.5-.91-.91-1.27a7.16,7.16,0,0,1-1.21-1.31c-.15-.21,0-.37.12-.5a.34.34,0,0,1,.52,0c.31.38.78.61,1,1.07a.3.3,0,0,0,.21.15,1.36,1.36,0,0,1,1,1.32,2,2,0,0,0,.21.59c.21.5,0,1.06.18,1.57,0,.1-.09.25-.14.37-.22.53-.46,1.05-.67,1.58a.87.87,0,0,1-.41.45A13.4,13.4,0,0,0,44,20.17c-.32.26-.55.59-.85.86-.57.55-1.2,1-1.76,1.56a5.2,5.2,0,0,1-1,.62c-.44.25-.45.78-.66,1.17s-.25.59-.65.65c-.15,0-.28.17-.4.27s-.22.28-.36.32-.47.33-.68,0,.09-.39.23-.55a12.07,12.07,0,0,1,1.6-1.25s.19,0,.09-.12c-.3-.29,0-.35.15-.47a.69.69,0,0,0,.28-.28c.27-.64.89-.93,1.36-1.34a10.88,10.88,0,0,1,1.78-1.54c.09,0,.08-.15.12-.23a1.85,1.85,0,0,1,.57-.65c.45-.37.91-.74,1.33-1.14.07-.07.11-.13.21-.14S45.82,17.81,45.7,17.51Z"/><path d="M39.06,15.43c.38.67-.07.84-.48,1A3.81,3.81,0,0,0,37,18.09a5.34,5.34,0,0,1-.66.9.45.45,0,0,1-.36.16c-.11,0-.24,0-.27.12-.3,1-1.32,1-2,1.46a1,1,0,0,1-1,0,.6.6,0,0,1-.61.66c-.42,0-.82.37-1.26.05-.24-.16-.29.19-.44.28-.6.34-1.27.48-1.88.77A6.61,6.61,0,0,0,26.18,24c-.25.29-.63.5-.93.78s-.77.55-1,1A.67.67,0,0,1,24,26c-.1.06-.23.14-.32,0a.24.24,0,0,1,0-.36,2.5,2.5,0,0,0,.72-1,3.61,3.61,0,0,1,1-1.16c.33-.3.64-.63,1-.91a3.48,3.48,0,0,1,1.17-.63,4,4,0,0,0,1-.49,2.09,2.09,0,0,1,.66-.27c1-.2,2-.51,3-.74a3.57,3.57,0,0,0,2-1.07,2.27,2.27,0,0,1,1.08-.59c.42-.12.58-.44.79-.71.44-.57,1-1.06,1.34-1.67a1.11,1.11,0,0,1,.71-.42A.93.93,0,0,0,39.06,15.43Z"/><path d="M58.6,38.54a1.25,1.25,0,0,0,0-.31c0-.49,0-1-.56-1.28-.34-.14-.27-.6-.57-.84-.13-.12.27-.4.44-.32.44.21,1,.11,1.32.64.09.16.38,0,.59,0s0-.19,0-.29c.11-.72-.2-1.53.44-2.15a.27.27,0,0,0,.08-.2,2.38,2.38,0,0,1,.23-1.41c0-.14,0-.26,0-.39a3.61,3.61,0,0,1,.73-2.32.26.26,0,0,0,.05-.12.89.89,0,0,1,.57-.91,1.71,1.71,0,0,1,1-.36c.21,0,.44,0,.46.29A.34.34,0,0,1,63,29a.41.41,0,0,0-.47.32.23.23,0,0,1-.1.14c-1.09.63-1,1.75-1.22,2.76a11.92,11.92,0,0,1-.43,1.91,4.16,4.16,0,0,0-.18,2,2.22,2.22,0,0,1-.13,1.44.26.26,0,0,0,0,.33c.07.09.15.18.22.28.46.58.46.58-.26.8a.79.79,0,0,0-.51.39c-.11.2-.3.3-.51.12s-.39-.14-.58-.29A.86.86,0,0,1,58.6,38.54Z"/><path d="M2.57,50.3c-.2,0-.14-.16-.13-.28.05-.46.41-.71.69-1a7.24,7.24,0,0,0,1.26-1.38c.14-.25.36-.5.53-.77a12.23,12.23,0,0,1,.63-1.18A19.58,19.58,0,0,1,7,44.06a5.77,5.77,0,0,0,.71-1c.53-.91,1-1.83,1.52-2.76.08-.13.17-.28,0-.45s0-.23,0-.34c.38-.63.73-1.28,1.15-1.88a11.32,11.32,0,0,0,1.19-2.45,5.52,5.52,0,0,1,.42-1c.08-.12.17-.32.32-.24a.55.55,0,0,1,.33.5.76.76,0,0,1-.1.3c-.4.82-.73,1.67-1.2,2.47a13.13,13.13,0,0,0-1.52,3.13,3.54,3.54,0,0,0-.4,1.52c.05.32-.41.46-.55.77A3.56,3.56,0,0,1,8,43.7c-.72.67-1.13,1.58-1.85,2.25a2.93,2.93,0,0,0-.63,1.1,5,5,0,0,1-.84,1.41,10.5,10.5,0,0,1-2,1.8Z"/><path d="M46.45,4a11.25,11.25,0,0,0,0,2.38c0,.31-.15.61,0,.92.06.09,0,.24.17.27a.36.36,0,0,0,.39-.17,1,1,0,0,1,.62-.64c.15-.07.23-.41.41-.6.38-.4.47-1,.85-1.4.08-.08,0-.2,0-.3a1.82,1.82,0,0,1-.07-.57.44.44,0,0,1,.51-.44c.29,0,.38.21.36.46-.06.7,0,1.4,0,2.1a1.65,1.65,0,0,0,.2,1.06,1.68,1.68,0,0,1,.18.77.49.49,0,0,0,.31.5c.12.07.29.15.2.39s-.1.64-.47.76c0,0-.16,0-.16-.05,0-.35-.39-.36-.55-.58s-.17-.19-.06-.4-.12-.5-.19-.75a4.08,4.08,0,0,1-.27-1c0-.09,0-.19-.11-.21a.26.26,0,0,0-.19.08c-.25.42-.7.73-.69,1.27,0,.22-.06.25-.25.23s-.35,0-.45.29a.65.65,0,0,1-.73.45c-.41,0-.51-.26-.59-.63a6.79,6.79,0,0,1-.31-1.35c0-.32,0-.64,0-1a3.64,3.64,0,0,0-.06-1A11.22,11.22,0,0,1,45.7,3.2c0-.15.15-.22.3-.17s.39,0,.41.24S46.43,3.68,46.45,4Z"/><path d="M87.31,33a1,1,0,0,1,0-.11,5.89,5.89,0,0,0-.72-2.19A2.68,2.68,0,0,1,86,29.43l0,0a2.22,2.22,0,0,0-.69-1.61c-.05-.05-.09-.17-.06-.21.19-.3-.07-.49-.18-.69a.82.82,0,0,0-1.43,0,.48.48,0,0,1-.38.2,1.22,1.22,0,0,0-.93.69c0,.05-.09.11-.08.15.16.57-.37.62-.65.83s-.4-.13-.42-.48c-.06-.91.69-1.27,1.16-1.83.3-.35.77-.42,1.14-.67a.3.3,0,0,1,.21-.06c.34.2.6,0,.87-.17s.45-.21.58.14a.18.18,0,0,0,.22.11c.53-.09.57.31.58.64a2.09,2.09,0,0,0,.43,1.16,4.9,4.9,0,0,1,.51,1.54c0,.14,0,.31.12.42.46.57.36,1.35.73,2a.41.41,0,0,1,0,.39.4.4,0,0,0,.12.49c.64.51.58,1.32.85,2,.12.27-.17.27-.29.37s-.23,0-.28-.15c-.15-.38-.52-.63-.56-1.09C87.52,33.32,87.12,33.26,87.31,33Z"/><path d="M70.84,13.17a2.41,2.41,0,0,1-.09,1,1.3,1.3,0,0,0,0,.52,7.39,7.39,0,0,1-.19,2.73.31.31,0,0,1-.46.21,1.16,1.16,0,0,1-.48-.89,7.17,7.17,0,0,0,.29-2.11,1.14,1.14,0,0,1,.12-.48c.17-.34-.1-.56-.2-.83,0-.1-.16-.06-.26,0a12.28,12.28,0,0,0-1.6,2.3c-.12.2-.4.17-.59.28,0-.26-.39-.34-.32-.64a6.59,6.59,0,0,1,.48-1.93c.46-.74.13-1.47.25-2.19,0-.15-.06-.35.15-.41s.37-.18.55,0a.38.38,0,0,1,.11.49c-.23.45.11.89,0,1.35,0,.2.34.22.5.09s.67-.28,1-.5.5,0,.64.23A1.17,1.17,0,0,1,70.84,13.17Z"/><path d="M60.11,11.68c-.08.08-.06.23-.24.23,0-.57,0-1.14,0-1.71,0-.27-.13-.45-.17-.68s-.18-.15-.3-.07l-.37.25c-.31.2-.55,0-.68-.23a.48.48,0,0,1,.13-.6,1.71,1.71,0,0,1,1-.28c.35,0,.52-.21.52-.43a3.8,3.8,0,0,1,.26-1.34c.12-.35-.15-.78.18-1.1,0,0-.06-.16-.08-.24a5.28,5.28,0,0,1,0-1.9c0-.2.22-.29.41-.28s.23.19.26.35A10,10,0,0,1,61,5.9a9.76,9.76,0,0,1-.18,1.95c-.14.57.16.6.53.69s.81.45,1.3.47c.1,0,.21.06.17.21s-.05.34-.29.39-.73-.14-1.1,0a3.56,3.56,0,0,1-.47.1c-.17,0-.31.15-.31.34a8.61,8.61,0,0,0,.12,2.09c.1.38.27.46.64.3a1.09,1.09,0,0,1,.31-.08c.11,0,.24-.23.33,0s-.09.28-.25.35a3,3,0,0,0-.8.54.4.4,0,0,1-.61,0,1.07,1.07,0,0,1-.21-1.15A.42.42,0,0,0,60.11,11.68Z"/><path d="M72.7,70.15a.81.81,0,0,0,.2.68c.26.25.14.56.26.82A.24.24,0,0,1,73,72c-.12,0-.21,0-.29-.14-.25-.32-.62-.59-.42-1.08a.16.16,0,0,0-.05-.12,1.29,1.29,0,0,1-.31-1.16.24.24,0,0,0-.08-.28A1.87,1.87,0,0,1,71,67.9c0-.11,0-.21-.13-.27-.39-.21-.35-.58-.35-.94,0,0,0-.16,0-.16-.34-.14-.31-.49-.46-.74s-.14-.66-.58-.68a.27.27,0,0,1,0-.2c.09-.37-.2-.56-.4-.73-.68-.58-1.31-1.2-2-1.8A3.82,3.82,0,0,1,66.28,61a.42.42,0,0,1,.36-.53c.26-.05.31.08.36.32s.39.6.58.91c.32.53,1,.63,1.35,1.11a17.39,17.39,0,0,1,1.37,1.55c.42.7.67,1.46,1,2.18a15.23,15.23,0,0,1,1.32,3.27C72.68,69.91,72.76,70,72.7,70.15Z"/><path d="M56,5.51A3,3,0,0,0,54.23,6,.52.52,0,0,0,54,6.3a2.38,2.38,0,0,0,1,1.86,1.9,1.9,0,0,1,1.13,1.2,1.4,1.4,0,0,1-.68,1.46,4.06,4.06,0,0,1-2,.46.36.36,0,0,1-.43-.4.5.5,0,0,1,.5-.51A3.55,3.55,0,0,0,54.9,10c.25-.09.32-.29.11-.49s-.42-.87-1-1a.14.14,0,0,1-.11-.17c.08-.33,0-.45-.39-.44-.19,0-.21-.08-.2-.2A2,2,0,0,0,53,6.62a.78.78,0,0,1,.37-1.07A6.87,6.87,0,0,0,54.07,5a6.44,6.44,0,0,1,1.7-.63,1.22,1.22,0,0,1,1,.26c.07,0,.18.16.12.21-.23.15,0,.57-.42.61Z"/><path d="M37.49,3.47a3.36,3.36,0,0,1-.21.61.89.89,0,0,1-.72.52c-.52.08-.57.24-.64.74a5.56,5.56,0,0,0,.36,1.82,1.2,1.2,0,0,1-.09.76c-.11.27-.4.2-.54,0a2.37,2.37,0,0,1-.42-1.39,2.76,2.76,0,0,0-.06-.65.72.72,0,0,1,0-.48c.25-.57,0-.89-.58-.76a5.81,5.81,0,0,1-2.16,0c-.15,0-.28-.06-.3-.22s.14-.17.24-.22a1.46,1.46,0,0,1,1-.14,2.73,2.73,0,0,0,.75,0l.27,0c.17,0,.35.29.51,0A1.25,1.25,0,0,0,35,3.11a6.06,6.06,0,0,1-.29-1.89.76.76,0,0,0-.22-.56.4.4,0,0,1,0-.5c.15-.22.41-.15.62-.16s.23.19.27.35a1.55,1.55,0,0,1,0,.88.48.48,0,0,0,.09.57s.07.1.05.12c-.28.54.26,1,.21,1.48,0,.35.08.59.53.42.2-.07.45,0,.66-.07A3.62,3.62,0,0,0,37.49,3.47Z"/><path d="M40.31,5.87c.17-.26,0-.48-.17-.72-.24-.42,0-1-.24-1.38,0-.06,0-.18.12-.21a.24.24,0,0,1,.32.09c0,.1.06.22.11.34.11.29.24.39.6.23s.71-.61,1.23-.4c0,0,.18-.09.25-.16.34-.32.7-.14,1,0,.16,0,.08.21.09.32s-.07.2-.21.23c-.37.11-.75.23-1.11.36a1.52,1.52,0,0,0-.75,2.11.68.68,0,0,1-.05.76c-.15.18-.35.27-.53.07A2.42,2.42,0,0,1,40.31,5.87Z"/><path d="M65.32,10.73a.52.52,0,0,1-.06.35,2.76,2.76,0,0,0-.37,1.46c0,.45-.36.8-.36,1.27,0,.25,0,.34.27.39s.53.33.32.67a1.26,1.26,0,0,1-.65.59c-.5.17-.9-.27-.95-.79a7.75,7.75,0,0,1,.42-2.12,10,10,0,0,0,.41-1.88c0-.36.3-.48.6-.46S65.38,10.43,65.32,10.73Z"/><path d="M53,39.42a2.12,2.12,0,0,1,.72.71,6.41,6.41,0,0,1,.78,1.06c.33.76,1.19,1,1.56,1.74.17.33-.06.42-.16.54s-.23,0-.3-.18-.36-.16-.52-.29-.62-.44-.66-.88c0-.08-.11-.22-.19-.23-.44-.06-.63-.44-.92-.7,0,0-.07,0-.06,0,.09-.46-.39-.57-.55-.87a.94.94,0,0,1,0-.68A.24.24,0,0,1,53,39.42Z"/><path d="M72.62,24.33l-.31.55c0,.07-.07.21-.17.15-.53-.3-1.09.17-1.61-.09a.23.23,0,0,0-.31.11c-.2.31-.49.27-.78.14s-.28-.08-.23.16c.09.44-.28.29-.46.34s-.25-.1-.22-.28a.36.36,0,0,0,0-.14c0-.17-.36-.27-.22-.43a1.84,1.84,0,0,1,.73-.5,6.08,6.08,0,0,1,2.13-.24C71.69,24.09,72,24.59,72.62,24.33Z"/><path d="M37.65,13.3c0-.21.11-.28.32-.41.47-.29,1-.21,1.49-.49a2.93,2.93,0,0,1,1.37-.3c.41,0,.83-.22,1.27-.26.07,0,.14-.08.2-.07s.49,0,.54.23-.25.23-.4.33c-.48.32-1.12.24-1.58.62a.21.21,0,0,1-.17,0,2.55,2.55,0,0,0-1.73.28.44.44,0,0,1-.22.05c-.26-.06-.48-.11-.7.16S37.63,13.69,37.65,13.3Z"/><path d="M64.18,45.15c-.45,0-.6-.18-.51-.55,0-.16.1-.23.27-.22a1.59,1.59,0,0,0,.85-.37,1.83,1.83,0,0,1,1.15-.27,1.35,1.35,0,0,0,.69,0c.16-.06.38-.06.45.07s-.14.26-.25.35a1.9,1.9,0,0,1-1,.41,2.54,2.54,0,0,0-1,.43A1.22,1.22,0,0,1,64.18,45.15Z"/><path d="M68.22,25.61c.08.37-.18.53-.45.66a.57.57,0,0,0-.36.35c-.12.33-.47.38-.74.41a.34.34,0,0,1-.34-.46,1.58,1.58,0,0,1,.46-.74,3.19,3.19,0,0,0,.56-.6c.12-.21.42-.14.65-.1S68.17,25.44,68.22,25.61Z"/><path d="M75.56,37.63a1.28,1.28,0,0,1-.86,1.15c-.48.22-.65.66-1,1-.08.09-.12.3-.25.25a.49.49,0,0,1-.23-.36c0-.16,0-.34-.13-.48s0-.12.07-.17c.35-.24.61-.61,1-.84S75.07,37.93,75.56,37.63Z"/><path d="M71.16,45.22c.1.08.56-.17.29.35-.07.14.14.35.3.3a1.07,1.07,0,0,1,.87.24c.37.22.74.43,1.12.63.07,0,.2.06.15.18a.48.48,0,0,1-.19.23c-.11.06-.15,0-.17-.14s-.13-.16-.2-.12a.91.91,0,0,1-1.08-.29c-.34-.55-1.07-.44-1.36-1-.06-.1-.17-.17-.12-.31S71,45.24,71.16,45.22Z"/><path d="M75.27,35.28c0,.31-.16.44-.49.39a.82.82,0,0,0-1.09.58c-.14.31-.45.26-.68.31a.4.4,0,0,1-.45-.3.63.63,0,0,1,.29-.68,1.58,1.58,0,0,1,1.2-.11c.1,0,.23.12.3,0C74.6,35.2,74.93,35.28,75.27,35.28Z"/><path d="M80.15,33.81c-.46.28-.75.77-1.27.93-.22.07-.41.24-.64,0-.37-.42-.35-.58.2-.77a1.27,1.27,0,0,1,1.15-.08C79.78,34,79.9,33.53,80.15,33.81Z"/><path d="M65.62,8.45a.8.8,0,0,1-.81-1c0-.26.48-.38.75-.22a.92.92,0,0,1,.39,1C65.89,8.47,65.89,8.47,65.62,8.45Z"/><path d="M30.93,28.12l0-.22c0-.14.05-.23.21-.22s.2,0,.22.15A2.14,2.14,0,0,0,32,29.08c.06.07.18.14.13.26s-.16.05-.24.05C31.22,29.41,31,29.14,30.93,28.12Z"/><path d="M84.07,58l-.16,0c-.22,0-.54.18-.56-.19s.3-.4.55-.43a2.62,2.62,0,0,0,.91-.21.34.34,0,0,1,.43.12c.11.16-.07.24-.16.32A1.64,1.64,0,0,1,84.07,58Z"/><path d="M35.43,32.46a1.06,1.06,0,0,0,.15,1,.16.16,0,0,1-.06.26.19.19,0,0,1-.27-.08,1.55,1.55,0,0,0-.5-.66c-.08-.07,0-.2,0-.3s.1-.28,0-.39c-.13-.34.1-.4.33-.43s.24.21.25.39A1.5,1.5,0,0,0,35.43,32.46Z"/><path d="M75.57,48.17c-.51.09-.85-.34-1.31-.42-.23,0-.29-.31-.17-.62.47.39,1.14.47,1.47,1Z"/><path d="M37.36,37.3c0-.24-.18-.46-.14-.72s.07-.35.26-.36.11.2.15.3c.18.37-.22.78.09,1.15,0,0-.08.11-.15.13a.12.12,0,0,1-.17-.09A.53.53,0,0,1,37.36,37.3Z"/><path d="M68,34.88a.68.68,0,0,1-1,.61c-.08,0-.18-.08-.16-.19s.16-.25.25-.22C67.45,35.24,67.69,34.91,68,34.88Z"/><path d="M37.69,3.44a3,3,0,0,1,.74-.35c.16,0,.27,0,.28.2s-.11.21-.22.2S38,3.6,37.69,3.44Z"/><path d="M75.56,48.18c.12-.07.25-.15.35,0s.23.11.19.26-.13.11-.22.11-.21-.07-.2-.22,0-.15-.11-.16Z"/><path d="M38,40.45a.25.25,0,0,1,.12,0c.2,0,.24.2.32.34s0,.11-.09.12c-.24,0-.16-.22-.26-.31S37.94,40.53,38,40.45Z"/></g></g></g></svg>