<svg xmlns="http://www.w3.org/2000/svg" viewBox="0 0 64.49 86.47"><defs><style>.cls-1,.cls-2{fill:none;stroke:#010101;stroke-miterlimit:10;}.cls-1{stroke-width:0.25px;}.cls-2{stroke-width:0.5px;}.cls-3{opacity:0.5;}.cls-4{fill:#a97c50;}.cls-5{opacity:0.25;}.cls-6{opacity:0.75;}.cls-7{fill:#ec008c;}.cls-8{opacity:0.8;}.cls-9{fill:#e5b380;}.cls-10{fill:#3c2415;}.cls-11{opacity:0.2;}.cls-12{fill:#73c1ec;}</style></defs><g id="Layer_2" data-name="Layer 2"><g id="Layer_1-2" data-name="Layer 1"><path class="cls-1" d="M19.22,21.88a9.37,9.37,0,0,1-5.34,4.47c-1.44.45-3.06.59-4.19,1.58A6.89,6.89,0,0,0,8,31l-4,11.54c-1.73,5-3.47,10-3.73,15.22a6.39,6.39,0,0,0,.66,3.74,7.28,7.28,0,0,0,2.9,2.31L14,69.43c4.43,2.41,9.57,4.9,14.31,3.15"/><path class="cls-1" d="M15.85,43.08q-1.54,6.41-3.42,12.72"/><path class="cls-1" d="M19.22,27c.06,5.77,2.28,11.28,4.47,16.62a24.51,24.51,0,0,0,2.06,4.25,24.38,24.38,0,0,0,3.84,4.22"/><path class="cls-1" d="M14.9,50.44a7.15,7.15,0,0,0,1.68,3.79"/><path class="cls-1" d="M12.46,56.75c-.39,3.74,2.85,6.75,5.79,9.09A21.62,21.62,0,0,0,21.37,68a21.77,21.77,0,0,0,6.41,1.9,15.83,15.83,0,0,0,4.59.39,15.4,15.4,0,0,0,4-1.2l11-4.42"/><path class="cls-1" d="M25.41,74.2c.73-.16,1.38.48,2.1.69a3.63,3.63,0,0,0,2.08-.2,49.23,49.23,0,0,0,11.69-5.34"/><path class="cls-1" d="M42.53,2.23c-2.35-1-4.86-2.06-7.39-1.68-3.47.51-6,3.49-8,6.38-3.17,4.6-5.93,9.67-6.69,15.21s.79,11.65,5.05,15.27"/><path class="cls-1" d="M39.56,10.34a16.1,16.1,0,0,0-5.73,1c-1.78.79-3.79,3.08-3.9,5a24.48,24.48,0,0,1,11.88-3.59c-2.73-.29-6.83-1-8.93.74"/><path class="cls-1" d="M37.72,7.41C34.44,8.6,30.67,8,29,11.08a12.63,12.63,0,0,1,3.38-5.25,6.39,6.39,0,0,1,5.87-1.46"/><path class="cls-1" d="M26.24,40c-2.64-2.88-2.53-7.26-2.17-11.15.45-4.94,1.09-10,3.54-14.32-3.54,6.41-5.87,13.66-3.24,20.5C24.78,36.12,25.2,39.55,26.24,40Z"/><path class="cls-1" d="M43.5,5.58c.91.83,2.1,1.3,3.09,2a8.92,8.92,0,0,1,3.22,5.92c.33,2.28-1.18,4.87-1.64,7.13A12.48,12.48,0,0,0,45,11.45"/><path class="cls-1" d="M50.3,41.13l-2.76-5.66c-1.18-2.43-2.4-5.08-1.92-7.74,1.63.6,4.54,1.08,6.17,1.68a4.37,4.37,0,0,1,2,1.19,4.52,4.52,0,0,1,.71,1.85c1.38,6.39,2.77,12.83,3,19.37A30.77,30.77,0,0,1,55.35,65.5c-.3.68-1.12,1.45-1.65.92"/><path class="cls-1" d="M37,57.29a5.22,5.22,0,0,1,4-2.71,14.26,14.26,0,0,1,4.95.32c2,.39,4.2.89,5.65,2.39s1.7,4.3,0,5.46"/><path class="cls-1" d="M40.26,57.51a16.08,16.08,0,0,0-6.33,2.59,8.08,8.08,0,0,0-2.74,4.15,7.42,7.42,0,0,1,5.87-1.31c.65.13,1.28.35,1.92.51a9.87,9.87,0,0,0,7.12-1c.57-.32,2.58.58,3,1.05s.78,1.07,1.25,1.53a3.24,3.24,0,0,0,3,.83"/><path class="cls-1" d="M13,57.54a5.88,5.88,0,0,1,4.36-4.28,15.46,15.46,0,0,1,6.39,0,6.94,6.94,0,0,0,3.3,0,12.78,12.78,0,0,0,2.32-1.4,2.83,2.83,0,0,1,2.57-.43c.32.15.59.39.9.54a3.24,3.24,0,0,0,2.91-.45C36.63,51,35,50,36,49.89a1,1,0,0,0,1.26-.36,4,4,0,0,0,.52-1.34A8.42,8.42,0,0,1,41,43.92a23.68,23.68,0,0,1,4.85-2.5,3.26,3.26,0,0,1,1.71-.37,3.35,3.35,0,0,1,1.6.91c2.13,1.8,4.37,3.8,5,6.51a6.75,6.75,0,0,1-4,7.55c-.14.06-.32.15-.29.3s.32,0,.17-.06"/><path class="cls-1" d="M44.28,9.54a4,4,0,0,1,3.87,2A9.59,9.59,0,0,1,49.33,16"/><path class="cls-1" d="M31.18,47.68a14.46,14.46,0,0,1-.15,4"/><path class="cls-1" d="M44.08,4.29a9.54,9.54,0,0,1,3.21,1,6.61,6.61,0,0,1,3,5,19.64,19.64,0,0,1-.56,6"/><path class="cls-1" d="M35.74,51.51c1.23,0,2.42-.85,3.6-.5s1.7,1.77,2,3"/><path class="cls-1" d="M7.21,58.39c1-.43,1.56-1.37,2.41-2s2.32-.64,2.68.34"/><path class="cls-1" d="M26.61,13.26C22.8,18.16,22,24.72,21.87,30.92a19.41,19.41,0,0,0,.26,4.31,17,17,0,0,0,2.28,5.37"/><path class="cls-1" d="M50.27,31.09a15.31,15.31,0,0,1-1.73-11.71C47.74,24.29,48.21,26.56,50.27,31.09Z"/><path class="cls-1" d="M42.84,3.22a7.37,7.37,0,0,1,6.3,2.65A13.35,13.35,0,0,1,50.88,9c1,2.26,1.86,4.82,1,7.14"/><path class="cls-1" d="M37.24,2.79c-1-.44-2.1.27-2.94,1-3.14,2.63-6.08,6-6.66,10l0-.68"/><path class="cls-1" d="M44.65,8.2a4.68,4.68,0,0,1,5,1.68,8.16,8.16,0,0,1,1.53,5.27A13.19,13.19,0,0,1,49.69,21"/><path class="cls-1" d="M35,.7a11.1,11.1,0,0,0-5,5.22c-1.1,2.19-1,5.46-1.11,7.9,0,.16-.3.11-.32-.05s.11-.29.22-.39c2.18-2,4.5-4,7.37-4.54"/><path class="cls-1" d="M30.46,29.24c1.82,1.81,4.65,2,7.21,2.06a3.94,3.94,0,0,0,1.81-.23A3.93,3.93,0,0,0,40.71,30l3.8-4.37"/><path class="cls-1" d="M33.47,23a9.37,9.37,0,0,0,3.8.75"/><path class="cls-1" d="M42.58,24.66a2.84,2.84,0,0,0,2.52-.45"/><path class="cls-1" d="M37.8,28.54c.7-.37,1.47.4,2.26.45a1.31,1.31,0,0,0,1.08-.46"/><path class="cls-1" d="M46.27,23l1.41-3.92"/><path class="cls-2" d="M4.17,68.37a59.89,59.89,0,0,0-1.53,6.75A12.88,12.88,0,0,1,4.29,72c.15-.22.39-.45.64-.36s.26.34.28.55a4.56,4.56,0,0,1-.33,2.43A2.36,2.36,0,0,1,3,76c-.53,0-1.17-.33-1.11-.86"/><path class="cls-2" d="M8,73.69a10.45,10.45,0,0,0-1.22,4.57,3.3,3.3,0,0,1,4-3.06"/><path class="cls-2" d="M12.06,78.7c.55.6,1.66.21,2-.52a3.94,3.94,0,0,0,.12-2.43,4.13,4.13,0,0,0-2.3,3,2.14,2.14,0,0,0,.58,2.07c.59.46,1.69.18,1.76-.57"/><path class="cls-2" d="M25.88,80.5A1.37,1.37,0,0,0,24,79.82a1.7,1.7,0,0,0-.73,2,2.25,2.25,0,0,0,1.62,1.44c.32.08.71.12.9.4.35.52-.36,1.15-1,1.21s-3.64-1.48-4.1-1.06c-.22.79-1.5.72-1.95,0a3.28,3.28,0,0,1-.18-2.38L19,78.89a5.35,5.35,0,0,1-3.45,3.76,8.61,8.61,0,0,1,.76-3A3,3,0,0,1,18.8,78l0,1.54"/><path class="cls-2" d="M28.81,78.74l.63,6.47a1,1,0,0,0,.11.44.7.7,0,0,0,.92.15,2,2,0,0,0,.66-.77"/><path class="cls-2" d="M34.69,77.15a1.29,1.29,0,0,0-1.79.55,3.34,3.34,0,0,0-.14,2.1,16.1,16.1,0,0,0,2.78,6.52"/><path class="cls-2" d="M27.17,82.51a4.62,4.62,0,0,0,2.27-.24c1-.38,4.29-1.08,5.31-1.49.66-.27,3.28,0,3.75-.52a2,2,0,0,0,.48-2,.89.89,0,0,0-1.13.2,2.21,2.21,0,0,0-.46,1.15,10.51,10.51,0,0,0-.15,2.24,1.26,1.26,0,0,0,.36,1,1.21,1.21,0,0,0,.65.19c1.23.1,2.72-.34,3-1.54"/><path class="cls-2" d="M47.37,73.43c-1.09.65-1.35,2.1-1.5,3.37a1.53,1.53,0,0,0,0,.64c.22.68,1.29.65,1.74.11s-2.2,1.12-2.21.41a1.9,1.9,0,0,1-2.88,1.27,2.41,2.41,0,0,1-.29-3.4l1-.13a1.73,1.73,0,0,1-.39,1.82"/><path class="cls-2" d="M50.67,72.93a5.08,5.08,0,0,0,1.2,3.73.61.61,0,0,0,1,.1A4,4,0,0,0,54.19,75"/><path class="cls-2" d="M45.5,70.18l3.15,8.64"/><path class="cls-2" d="M49.89,71.44a.74.74,0,0,0-.74,1"/><path class="cls-2" d="M53.65,71.43l1.5,1.9a3.36,3.36,0,0,1-.78-1.66c0-.62.42-1.32,1-1.29s1,.69,1.3,1.23.95,1.08,1.49.77"/><path class="cls-2" d="M59.92,65.7a1.57,1.57,0,0,0-2,.47,3.37,3.37,0,0,0-.59,2.09,2.51,2.51,0,0,0,.27,1.35,1.06,1.06,0,0,0,1.18.53L59.62,65a43.83,43.83,0,0,1,3.59,5.65,5.81,5.81,0,0,1,.94,3.94c-.46,2-2.67,3-4.65,3.46"/><g class="cls-3"><path class="cls-4" d="M30,26.07c0,2.62,2.52,4.65,5,4.86a13.63,13.63,0,0,0,2.79.18,4.53,4.53,0,0,0,3.37-2.21A2.94,2.94,0,0,1,42,28,7.2,7.2,0,0,0,43,26.65c.56-.75,1.43-1.66,2-2.52,1.71-2.43,2.27-4.82,1.07-7.6,0,.08.11.85,0,.11A4.36,4.36,0,0,0,46,15.7a2.9,2.9,0,0,0-1.29-1.61,4.33,4.33,0,0,0-3.44,0,15.19,15.19,0,0,0-2.83,1,5.67,5.67,0,0,1-2.94.52,20.93,20.93,0,0,0-3.61.51,14,14,0,0,0-4,1.06,4.33,4.33,0,0,0-2.2,2.48,12.7,12.7,0,0,0-.87,3.29c-.14,3,2.71,4.15,4.95,2.53a23.56,23.56,0,0,0,2.18-1.92c.3-.28.6-.58.92-.83-.27.21-.09,0,0,0l.14-.09q-.56.2-.21.12l-2.82-1.15.14.27-.34-1.26c.07,1.1-.59,2.57-.26,3.94a2.53,2.53,0,0,0,2.41,1.84A4.37,4.37,0,0,0,35,24.78c.56-.63,1-1.53,1.78-1.9L33.35,22l.11.23-.34-1.27a4.12,4.12,0,0,1-.42,1.48A3.89,3.89,0,0,0,32.52,25c.4,1.16,1.76,2.29,3.08,1.75,1.95-.8,3-2.49,4.82-3.49L36.66,21.1c0-.32.26-.54,0-.18-.14.2-.28.43-.4.64-.43.74-.79,1.5-1.28,2.21-1.58,2.31,2.14,5.25,3.93,3,1-1.31,2.12-2.59,3.16-3.9s1.79-2.77.84-4.29a2.55,2.55,0,0,0-2.83-1.15c-1.62.55-3.1,1.39-4.68,2a17.56,17.56,0,0,1-4.05.77,7.56,7.56,0,0,0-4.15,2.61c-1,1-2.25,1.74-2.82,3.08-1.21,2.85.25,5.6.66,8.41.25,1.66.56,3.29.85,4.94a10.85,10.85,0,0,0,.82,2.55c.12.27.67,1.09.68,1.23l1.83-2.41c.41-.07.32,0-.05-.17a7.18,7.18,0,0,0-1.1-.48,2.91,2.91,0,0,0-2.92.79,2.85,2.85,0,0,0-.58,2.87,7.22,7.22,0,0,0,1.5,2.12c.76,1,1.45,2.64,2.6,3.39s3.25,1.89,4.74,1.73a2.53,2.53,0,0,0,2.16-3.76c-.1-.17-.72-1.21-.66-.94s.17-.45.07-.18L31.89,47.8a12.11,12.11,0,0,0,3.66.4,4.37,4.37,0,0,0,3.32-1.85c.67-.81,1.51-1.43,2.21-2.24a8.14,8.14,0,0,1,2.38-2c.89-.47,1.82-.79,2.69-1.27a3.14,3.14,0,0,0,1.37-3.69c-.57-2.41-.93-4.82-2.15-7a2.52,2.52,0,0,0-3.93-.51,10.1,10.1,0,0,1-1.8,2.08,5.91,5.91,0,0,1-3.23.69A5.67,5.67,0,0,1,33.77,32a4.23,4.23,0,0,1-1.11-.61c-.38-.35-.65-.87-1-1.26a2.46,2.46,0,0,0-2.43-.64A3.11,3.11,0,0,0,28,34.77l-.64-1.1c.66,2.21,1.31,4.89,2.19,7.22.56,1.48,1.4,4.41,3.28,4.7,1.24.19,2.82-.3,3.08-1.75a14.72,14.72,0,0,0,.16-3.38,24.85,24.85,0,0,1,.16-3l-3.76,2.16.16.12-.9-.9c-.17-.3.2.51.24.59a9.19,9.19,0,0,0,.62,1.44,3.55,3.55,0,0,0,2.26,1.73c2.21.5,3.6-1.42,4-3.34L35.74,41c-.27-.07-1.59-1.22-.38,0a3.45,3.45,0,0,0,.64.5,3,3,0,0,0,2.64.12,3.49,3.49,0,0,0,1.54-1.33,3.74,3.74,0,0,0,.32-.49c.64-1.18.07.86-1.57.27l-1.11-.64c-.38-.38.22.27.29.33a2.87,2.87,0,0,0,1,.64,3,3,0,0,0,2.53-.14,5.63,5.63,0,0,0,1.24-1,2.83,2.83,0,0,0,.35-.34c.13-.21,0,.06-.17.1H41.71l.17,0L40.13,36l-.14.37a2.51,2.51,0,0,0,1.74,3.07,2.57,2.57,0,0,0,3.08-1.74l.14-.37c.52-1.31-.58-2.69-1.74-3.08a3.15,3.15,0,0,0-2.72.48c-.5.33-.9.92-1.4,1.21l1.27-.34h-.3l1.26.34-.18-.12.89.89c-.93-1.28-2.38-2.09-4-1.36a3.87,3.87,0,0,0-1.56,1.39q-.18.26-.33.51c-.44.8-.4-.08.59-.3h1.33l-.18,0,1.1.64c.18.3.18.32,0,.07L38.53,37a3.22,3.22,0,0,0-1.46-.82A2.53,2.53,0,0,0,34,37.94c0,.17-.08.34-.11.52-.11.89-.78-.21,1-.67H36.2c.67.69.88.83.66.43-.08-.14-.1-.18,0-.11a6,6,0,0,0-.26-.71A4.13,4.13,0,0,0,35,35.31c-1.64-1.26-3.65.5-3.77,2.16A24.28,24.28,0,0,0,31.07,40a11.34,11.34,0,0,1,0,2.47l3.08-1.74,1.19.88c0-.07-.09-.15-.14-.23s-.18-.33-.25-.48-.14-.29-.2-.44c-.18-.39,0,0-.09-.19-.25-.6-.46-1.21-.68-1.82-.43-1.2-.64-2.41-1-3.61-.17-.51-.46-1.08-.59-1.58-.09-.32-.08-.64-.18-1a1.89,1.89,0,0,0-.45-.85c-.31-.42-.27-.33.11.26v1.33l-.06.16-1.49,1.14.24-.08-2.44-.64c.45.46.76,1,1.24,1.48a7.87,7.87,0,0,0,2.29,1.34,11,11,0,0,0,4.77.93,11.72,11.72,0,0,0,5.31-1.15c1.49-.72,2.21-1.9,3.26-3.08l-3.93-.51a8.94,8.94,0,0,1,1,3.07c.1.57.2,1.13.34,1.68,0,.2.11.4.17.59s.14.68.12.34L43,37.09l-.09.19.9-.9c-.24.17-.83.34-1.33.58s-1.17.61-1.74.92a11.9,11.9,0,0,0-3,2.42c-.38.41-.69.89-1.09,1.27a13,13,0,0,0-1.36,1.22l-.39.5c-.12.12,0,.12.27,0s.42-.08.14-.07h-.65A4.9,4.9,0,0,1,33.21,43a2.58,2.58,0,0,0-3.07,1.75,5,5,0,0,0,0,2.83,8,8,0,0,0,1.12,2.15l2.16-3.77c.17.08.16.08,0,0a3,3,0,0,1-.45-.17c-.3-.13-.59-.29-.88-.43l-.41-.19c-.34-.21-.35-.18,0,.07s.31.27.08-.08a3.23,3.23,0,0,0-.37-.54c-.19-.25-.44-.47-.62-.72-.32-.46,0-.15-.34-.68a6.87,6.87,0,0,0-.89-1.05l-.26-.27c-.32-.41-.25-.18.2.7l-.73,1.77.17-.15-1.77.73c-.59-.22-.73-.26-.43-.1L27,45a5,5,0,0,0,1,.39,5.81,5.81,0,0,0,2.59.08,2.49,2.49,0,0,0,1.84-2.41,12.58,12.58,0,0,0-1.31-3.67,11.2,11.2,0,0,1-.47-2.14c-.15-.78-.41-1.5-.51-2.3a25.51,25.51,0,0,0-.69-3.67,21.17,21.17,0,0,1-.5-3.17q0,.13,0-.12c.1-.31,0-.22-.24.28,0-.1.48-.5.54-.57.44-.41.94-.74,1.36-1.17a7.09,7.09,0,0,1,1.26-1.25,2.92,2.92,0,0,1,1.29-.19c3.06-.21,5.45-1.88,8.26-2.84l-2.82-1.15.09.14L38.31,20c.25-.7.26-.85,0-.43.14-.17.15-.18,0,0-.28.38-.6.74-.9,1.11l-2.1,2.58,3.93,3c.55-.8,1-1.68,1.48-2.52a4.49,4.49,0,0,0,.9-2.67c-.23-1.84-2-3.15-3.76-2.15a12.21,12.21,0,0,0-2.34,1.71c-.33.3-.87,1.09-1.29,1.27l3.07,1.74c-.07.72,0,.84.08.35.07-.17.13-.35.2-.52s.2-.56.28-.84a4.18,4.18,0,0,0-.23-3.2,2.55,2.55,0,0,0-3.42-.9,6.54,6.54,0,0,0-2.18,1.94c-.17.21-.34.43-.52.64s-.25.28-.38.41c-.47.39-.24.34.7-.15l2.41,1.83c0,.37,0,.41,0,.13s.07-.36.11-.54.13-.62.19-.92a3.86,3.86,0,0,0-.35-2.81,2.57,2.57,0,0,0-2.83-1.15,6.67,6.67,0,0,0-2.95,2c-.41.39-.82.79-1.23,1.17-.15.13-.44.52-.19.18a2.7,2.7,0,0,1-.31.2,1.92,1.92,0,0,1,1.84.08l1.24,2.15a3.64,3.64,0,0,1,.39-1.78,4.44,4.44,0,0,0,.15-.52c.1-.3,0-.23-.21.19l0,0c-.15.13,0,.1.44-.1a24.8,24.8,0,0,1,4.74-.91,11.19,11.19,0,0,0,5-.86A9.92,9.92,0,0,1,42.15,19l.57-.15.41-.12c.49-.1.37-.11-.36-.05L41.67,18l.14.12L41.17,17a4.14,4.14,0,0,0,.12.86c.11.41.42.77.53,1.17a1.56,1.56,0,0,1-.29,1.33,16.76,16.76,0,0,1-1.25,1.78,14.36,14.36,0,0,0-1.43,1.69c-.12.22-.25.64,0,.23-.24.37-.79.59-1.1.94a7.75,7.75,0,0,0-.86,1.18c-.55,1,.17-.05.17,0s-.46-.09-.48-.09A11.14,11.14,0,0,1,35.28,26c-.06,0-.15-.11-.23-.11s-.09,0,0,.06c-.23-.42-.25-.36-.06.17,0-3.22-5-3.22-5,0Z"/></g><g class="cls-3"><path class="cls-4" d="M30.77,34.76a3.6,3.6,0,0,0,1.16.66c.44.19-.24-.22-.06,0a1.76,1.76,0,0,0,.4.27,9.37,9.37,0,0,0,2.21,1,8.37,8.37,0,0,0,4.3.22,5.74,5.74,0,0,0,2-1c.27-.19-.49.26.07,0a7.07,7.07,0,0,0,.76-.43c.28-.18.53-.39.81-.56a14.5,14.5,0,0,0,1.76-1.11,8.62,8.62,0,0,0,.79-.81c.22-.25.13-.11,0,0,.29-.26-.43.13-.54.14a2.06,2.06,0,0,0,1.81-2.53,2.79,2.79,0,0,0-2.88-2.06,3.45,3.45,0,0,0-2.21,1.28,3.45,3.45,0,0,0-.26.28c-.25.28.12-.14.13-.13l-.7.5c-.56.35-1.13.66-1.67,1,0,0-.49.31-.25.17l-.34.18a6.1,6.1,0,0,0-.94.58c-.23.19.31-.12,0,0-.43.16,0,0,.11,0s-.58.07-.69.07c-.46,0-.05-.08,0,0a1.22,1.22,0,0,0-.34,0c-.26,0-.51-.08-.77-.12s.18,0,.23.06a2.08,2.08,0,0,0-.48-.17c-.1,0-.8-.25-.84-.38.25.16.3.19.16.08l-.15-.11a5.08,5.08,0,0,0-.82-.49l-.3-.15c-.49-.19.43.37,0,0a2.38,2.38,0,0,0-3.31.34c-.77,1.2-.19,2.38.76,3.24Z"/></g><g class="cls-3"><path class="cls-4" d="M35.61,30.54l.74.08-.26,0,1.09.15-.27,0a8.47,8.47,0,0,0,1.12.1c.3,0,.6,0,.91-.05a1,1,0,0,0,0-2,11,11,0,0,1-1.52,0l.27,0-.93-.13.26,0-1.41-.18a1,1,0,0,0-1,1,1,1,0,0,0,.3.71,1.08,1.08,0,0,0,.7.29Z"/></g><g class="cls-3"><path class="cls-4" d="M43.36,27v0l0,.26a.08.08,0,0,1,0,0l-.1.24a.41.41,0,0,1,0-.09l-.15.2c.06-.08.14-.15.21-.23s.24-.32.36-.48l-.15.2a4.11,4.11,0,0,1,.29-.3,1.82,1.82,0,0,0,.27-.35,1.79,1.79,0,0,0,.13-.32,1,1,0,0,0,0-.17,1.1,1.1,0,0,0,0-.18l-.73,1h0l-.27,0h.09l-.27,0h0a.65.65,0,0,0,.39,0,.66.66,0,0,0,.38-.12.84.84,0,0,0,.28-.25.86.86,0,0,0,.18-.34,1.06,1.06,0,0,0-.11-.78l-.15-.2a1,1,0,0,0-.44-.25,2,2,0,0,0-.34-.05l-.17,0-.18,0-.23.1a.78.78,0,0,0-.28.26.42.42,0,0,0-.13.22.75.75,0,0,0-.09.39v0l0-.26a.19.19,0,0,1,0,.07l.1-.24a.54.54,0,0,1-.07.13l.15-.2a3,3,0,0,1-.25.26c-.14.14-.25.32-.38.48l.16-.2-.24.28a1.28,1.28,0,0,0-.42.93,1,1,0,0,0,.29.7.72.72,0,0,0,.33.21.82.82,0,0,0,.38.09,1,1,0,0,0,.71-.3,1,1,0,0,0,.29-.7Z"/></g><g class="cls-3"><path class="cls-4" d="M46.18,22.52a5.07,5.07,0,0,0,.63-1.63,9.36,9.36,0,0,0,.08-2.05,7.38,7.38,0,0,0,0-1.82c-.07-.26-.16-.52-.21-.79s0-.27-.08-.41-.08-.37-.07-.14a1,1,0,0,0-2,0,2.94,2.94,0,0,0,.17.78c.06.24.08.49.15.73,0,0,.13.42.1.25a1.61,1.61,0,0,1,0,.31c0,.28,0,.57,0,.85s0,.58,0,.87,0,.63,0,.8a4,4,0,0,1-.18.67l-.14.36c0-.09,0-.07,0,0s-.07.12-.1.18a1,1,0,1,0,1.72,1Z"/></g><g class="cls-3"><path class="cls-4" d="M34.13,33.39s.59,0,.37,0,.26.16.25.16a3.72,3.72,0,0,0,.93.29,9.08,9.08,0,0,0,1,.07c.28,0,.56.13.84.17a4.83,4.83,0,0,0,2-.27,7.38,7.38,0,0,0,1.73-.6,7.6,7.6,0,0,0,2.19-2.49c.29-.45.67-.84.94-1.3a7,7,0,0,0,.94-1.45l-.45.6A6.38,6.38,0,0,0,47,26.31c.58-1.15-1.15-2.17-1.72-1a3.63,3.63,0,0,1-.92,1.18c-.39.34-.78.48-1,1l.26-.45a7.94,7.94,0,0,0-.93,1.23c-.22.4-.57.71-.82,1.1a5.45,5.45,0,0,1-1.67,2.07,7.56,7.56,0,0,1-1.4.43,2.56,2.56,0,0,1-1.45.07,9.19,9.19,0,0,1-1.67-.21,5.24,5.24,0,0,0-.68-.31,3,3,0,0,0-.9-.06,1,1,0,0,0,0,2Z"/></g><g class="cls-3"><path class="cls-4" d="M45.51,25.18l-.12.11.2-.15a3.8,3.8,0,0,0-.55.42,4.61,4.61,0,0,0-.44.55l.16-.2c-.19.23-.42.44-.63.65a3.65,3.65,0,0,0-.3.27,1.55,1.55,0,0,0-.24.33.76.76,0,0,1-.09.18l.15-.2a.47.47,0,0,1-.1.1l.2-.16c-.13.1-.27.17-.4.26a1.81,1.81,0,0,0-.34.28,1.73,1.73,0,0,0-.35.58,1,1,0,0,0,.11.77,1,1,0,0,0,.59.46,1,1,0,0,0,.77-.1l.21-.15a1,1,0,0,0,.25-.45v0l-.1.24a.56.56,0,0,1,0-.08l-.16.2a.8.8,0,0,1,.13-.13l-.2.15c.14-.1.3-.18.44-.28a1.72,1.72,0,0,0,.49-.48c0-.09.07-.19.13-.28l-.15.21a2.43,2.43,0,0,1,.29-.26c.1-.09.19-.2.28-.29a5.75,5.75,0,0,0,.68-.8l-.16.21a1.47,1.47,0,0,1,.21-.22l-.2.16a4.51,4.51,0,0,0,.59-.47,1,1,0,0,0,0-1.41,1,1,0,0,0-.71-.29,1,1,0,0,0-.7.29Z"/></g><g class="cls-3"><path class="cls-4" d="M45.42,25.18a3.42,3.42,0,0,1-.4.36l.2-.15a4.62,4.62,0,0,0-.64.53l-.43.45a6.81,6.81,0,0,0-.53.65c-.12.16-.22.34-.34.5l.15-.2-.09.11a1,1,0,0,0-.29.71,1,1,0,0,0,.29.7,1,1,0,0,0,.71.3,1,1,0,0,0,.7-.3c.25-.27.43-.59.65-.88l-.16.2a6.28,6.28,0,0,1,.49-.54,6.5,6.5,0,0,1,.52-.53l-.2.16a4.94,4.94,0,0,0,.79-.66,1.08,1.08,0,0,0,.29-.7,1,1,0,0,0-.29-.71,1,1,0,0,0-.71-.29,1,1,0,0,0-.71.29Z"/></g><g class="cls-3"><path class="cls-4" d="M45,25.68a4.36,4.36,0,0,0-.43.43c-.13.18-.22.37-.33.55,0,0-.14.18,0,0s0,0,0,0L44,27c-.13.14-.26.27-.4.4s-.26.25-.38.38a5.13,5.13,0,0,0-.44.6,4.84,4.84,0,0,0-.33.46l-.14.24a.41.41,0,0,1-.05.09c-.09.17.15-.17,0,0a1,1,0,0,0,0,1.41,1,1,0,0,0,1.42,0,2.64,2.64,0,0,0,.41-.58,2.8,2.8,0,0,1,.3-.46l.18-.25s.12-.17,0,0,0,0,0,0,.26-.25.39-.38a7.5,7.5,0,0,0,.89-1,2.36,2.36,0,0,0,.29-.48c.07-.14-.13.13-.05.06l.1-.1.2-.18A1,1,0,1,0,45,25.68Z"/></g><g class="cls-3"><path class="cls-4" d="M41.84,29.43a2.41,2.41,0,0,0-.36.48c0,.05,0,.09-.07.14l-.06.08-.06.08-.22.33-.07.09c.11-.13.12-.16.06-.08l-.13.15a4.42,4.42,0,0,0-.39.47,1.13,1.13,0,0,0-.1.13l-.06.09c-.06.09,0,.06.06-.07-.06,0-.1.11-.15.15s-.08.07-.12.12c.14-.1.16-.13.08-.07l-.09.05-.18.09.24-.1a6.22,6.22,0,0,0-.71.29c-.17.09-.3.23-.48.31l.24-.1-.08,0,.27,0-.23,0,.27,2a1.23,1.23,0,0,0,.41-.17,3.4,3.4,0,0,0,.28-.21c.12-.1-.18.12-.07,0l.51-.27a1,1,0,1,0-1-1.73,3.68,3.68,0,0,0-.44.23,2.6,2.6,0,0,0-.33.25c-.13.1.17-.12.07-.06l-.1.06.24-.11-.09,0a1,1,0,0,0-.72,1.1,1,1,0,0,0,1,.87,2.23,2.23,0,0,0,.88-.21c.17-.09.31-.23.49-.31l-.24.1a4.17,4.17,0,0,0,1.08-.53,2.46,2.46,0,0,0,.41-.38c.1-.11.18-.23.27-.35l.06-.09c0-.06.14-.14,0,0a5.47,5.47,0,0,0,.71-.88l.08-.11s.1-.14,0,0,.12-.15.13-.16a.61.61,0,0,0,.07-.1,1.62,1.62,0,0,0,.1-.18l.07-.11c.05-.09-.17.2,0,.07a1,1,0,1,0-1.41-1.41Z"/></g><g class="cls-3"><path class="cls-4" d="M33.38,50.8c0-.29,0-.59,0-.89s-.07-.69-.11-1c0,.11,0,0,0,0v-.21c0-.14,0-.28,0-.42a2.91,2.91,0,0,0-.12-1c-.17-.51-.38-1-.53-1.52a3.93,3.93,0,0,0-.89-1.61,1,1,0,0,0-1.41,0,1,1,0,0,0,0,1.41l.13.15c-.06-.08-.06-.07,0,0s.19.36.1.16a5.31,5.31,0,0,1,.21.64c.14.47.36.91.49,1.38l0,.13c0-.11,0-.11,0,0v.41a4.43,4.43,0,0,0,0,.89c0,.07,0,.14,0,.21s0-.06,0,.07,0,.22,0,.33c0,.3,0,.6,0,.89a1,1,0,0,0,1,1,1,1,0,0,0,1-1Z"/></g><g class="cls-5"><path class="cls-4" d="M35.76,49.47c0-1,0-2.06.07-3.08.06-.71-.12.1.08-.3a2,2,0,0,0,.15-.53,9.59,9.59,0,0,1,.27-1.18,5.6,5.6,0,0,1,.33-.89c.19-.43.4-.85.6-1.27a18,18,0,0,0,.72-1.7c.05-.11.16-.34,0-.11,0,0,.4-.6.2-.33a8.86,8.86,0,0,0,1-1.35c-.05.09-.38.31-.14.14l.77-.59a8.85,8.85,0,0,1,.84-.64,3.86,3.86,0,0,1,.56-.32h0l.25-.09c.25-.07.51-.15.75-.24L42,37l.67-.09a3.39,3.39,0,0,0,1-.36c.38-.2-.07,0,.2-.1l.62-.23c.08,0,.64-.11.36-.11s-.13,0,.14,0l-.2,0,.23.06c-.24-.11-.23-.1,0,0a2.5,2.5,0,0,0,2.53-4.32,5.51,5.51,0,0,0-4.07-.59,10.62,10.62,0,0,0-1.63.6c-.25.11-.76.32-.21.14s-.68.1-.85.15a9.66,9.66,0,0,0-3.32,1.61l-1,.75c.3-.24-.19.15-.24.18a7.23,7.23,0,0,0-1.54,1.68c.22-.3-.26.32-.25.31a9.41,9.41,0,0,0-.7.93,12.41,12.41,0,0,0-.75,1.76c.16-.38-.19.4-.19.39l-.36.77c-.29.62-.58,1.25-.82,1.89a19.64,19.64,0,0,0-.94,7,2.5,2.5,0,0,0,5,0Z"/></g><g class="cls-5"><path class="cls-4" d="M34.08,35.83h-.37c-.29,0-.23,0,.16,0,0,0-1-.22-.22,0a4.92,4.92,0,0,1-.61-.3c-.43-.2.32.29,0,0a8,8,0,0,0-1.66-1.11l-.79-.33c.28.13.31.13.07,0a4.26,4.26,0,0,0-.55-.34c-.14-.1-.1-.06.13.1l-.3-.26c-.18-.19-.36-.38-.53-.58a3.43,3.43,0,0,0-.53-.55c-.39-.29.2.36-.11-.15a2.7,2.7,0,0,0-.68-.83c.49.86.54.89.16.07a.71.71,0,0,0-.16-.28c-1.21-2,.35,2-.07-.14,0-.17-.09-.34-.11-.51v1.33a1.55,1.55,0,0,1-.58.9c-.16.12-.14.11.07,0-.13.06-.69.12-.47.15a7.36,7.36,0,0,0,1.05,0,2.5,2.5,0,0,0,0-5,3.22,3.22,0,0,0-1.55.4,2.43,2.43,0,0,0-1.24,2.16,3.78,3.78,0,0,0,.52,1.91,4.08,4.08,0,0,0,.6.77l.12.11c.19.2.13.13-.18-.22l-.34-1.26V32l.35-1.27c.24-.26.3-.33.16-.2l-.16.14.27-.22-.62.48a4.51,4.51,0,0,0-.81.88,3.58,3.58,0,0,0-.4,3.1A18.34,18.34,0,0,0,25.73,37a8.53,8.53,0,0,0,.57,1c.09.14.16.29.25.43l-.08-.16a2.25,2.25,0,0,1,.08.24s.15.4.11.44c0-.34,0-.42,0-.23s0,.11.07-.26c-.21,0-.16,1.49-.14,1.65a3.31,3.31,0,0,0,2.49,2.73A7.06,7.06,0,0,0,30,43c-.67-.1-.23,0-.06.07l.5.17c.44.13-.25-.13,0,0s.1,0-.23-.19l-.23-.31a2.48,2.48,0,0,0,.27.39,8.66,8.66,0,0,0,1,1.08,2.5,2.5,0,1,0,3.54-3.53l-.38-.35c-.42-.32.25.42,0,0a4.87,4.87,0,0,0-1-1.09,7.28,7.28,0,0,0-2.4-1.1c-.32-.09-.67,0-1-.14.88.24,2,.78,1.48,2.17a3.57,3.57,0,0,0,.19-1.4,7.15,7.15,0,0,0-.81-2.9c-.33-.62-.68-1.21-1-1.85a8.28,8.28,0,0,0-.55-.92c.22-.07.12,1,.13.94,0,.14-.5.85-.25.56s-.33.29-.11.08.51-.37.74-.57a3.39,3.39,0,0,0,1-1.5A2.78,2.78,0,0,0,30.09,30c0-.05-.27-.32-.29-.3s.34.82.34.85L28.9,32.7l.14-.06L27.78,33h.15V28a6.53,6.53,0,0,0-3.11.51A3.13,3.13,0,0,0,23,32a.83.83,0,0,0,0,.15c.05.18.05.17,0,0q-.09-.57.06.51a1.1,1.1,0,0,0,.16.46,3.8,3.8,0,0,0,.6,1c.29.35-.18-.35-.23-.45a4.94,4.94,0,0,0,.71,1.25.82.82,0,0,0,.17.2c.12.12.08.07-.12-.17-.15.17.78,1,1,1.22a17.81,17.81,0,0,0,1.95,1.83,9.64,9.64,0,0,0,.86.55c.3.17.66.23,1,.4-.49-.28,0,.07.12.14s.4.18.48.3c-.23-.19-.28-.22-.14-.1a6.41,6.41,0,0,0,.58.45,4.59,4.59,0,0,0,.87.48,6.75,6.75,0,0,0,3,.67,2.52,2.52,0,0,0,2.5-2.5,2.55,2.55,0,0,0-2.5-2.5Z"/></g><g class="cls-6"><path class="cls-7" d="M16.82,26.08a12.79,12.79,0,0,0-4.92,1.46c-.35.16-.69.33-1,.52-.12.06-.87.41-.5.25a4.15,4.15,0,0,0-1.8,1.32,7.78,7.78,0,0,0-1.5,4.28c-.17,1.36-.65,2.57-.74,3.94l.34-1.26a13.4,13.4,0,0,0-.93,2.74c-.35,1.05-.52,2.16-.84,3.23a30.76,30.76,0,0,1-1,3c-.39,1-.87,1.91-1.18,3-.59,2-1.18,4-1.73,6.08-.26,1-.46,1.92-.77,2.87A3.24,3.24,0,0,0,1.09,61c.7.66,1.57,1,2.31,1.61S4.57,64,5.26,64.6C6.91,66,9,66.73,10.75,67.9c.79.51,1.73.79,2.5,1.28.41.26.75.67,1.16.95a7,7,0,0,0,1.81.81,12.55,12.55,0,0,0,3.13.65,17,17,0,0,1,2.62.58c1.09.26,2.07.88,3.16,1.16s2.35.46,3.52.8c2.83.81,5.42.19,8.14-.64s2.24-5-.67-4.91-5.51,1.5-8.39.49a18.62,18.62,0,0,1-3.32-1.71c-1.26-.75-2.55-1.43-3.82-2.17a13.7,13.7,0,0,1-2.87-2c-.88-.85-1.84-1.49-2.79-2.26a29,29,0,0,1-2.54-2.54,6.44,6.44,0,0,1-1.06-1.28,10.09,10.09,0,0,0-.63-1.76,2.54,2.54,0,0,0-4.57.59c-.71,2,0,5.07,1.85,6.3a2.51,2.51,0,0,0,3-.39,2.62,2.62,0,0,0,.4-3c-.09-.18-.19-.5-.1-.13a3.79,3.79,0,0,1-.09-.89,8,8,0,0,1,.12-1,2,2,0,0,0,0-.34c0-.31,0-.18,0,.4l-.9.9c1.37-1.05,3.22-2.57,3-4.54a2.57,2.57,0,0,0-1.54-2.29,2.47,2.47,0,0,0-2.73.52c-.19.23-.37.46-.55.7s-.16.29,0,.09l1.1-.64-.25.09,3.17,2.41A21.51,21.51,0,0,1,14,49a47.07,47.07,0,0,0,1.45-5.23c.18-.95.29-1.92.41-2.89s0-1.92.24-2.83a11.87,11.87,0,0,0,.27-5.4c-.32-1.45-2.41-2.45-3.67-1.49-1.84,1.39-2.39,4-2.9,6.12-.63,2.66-1.29,5.37-2.05,8-.62,2.11-2,3.86-2.7,6-.37,1.2-.35,2.49-.75,3.68-.17.47-.39.92-.52,1.41,0,.2-.07.4-.12.58s-.33.5-.11.28l4.27,1.77c0,.58.19-.17.29-.38.25-.56.4-1.15.66-1.7.6-1.31,1.24-2.6,1.8-3.92,1.1-2.57,2.36-5.1,3.29-7.73a34,34,0,0,1,3.35-6.69,16.75,16.75,0,0,0,1.63-3.91,12.25,12.25,0,0,0,.91-3.83h-5a38.14,38.14,0,0,0,2.4,12.5c.35.91.57,1.87,1,2.76s1,1.57,1.44,2.32a10.34,10.34,0,0,0,2.07,2.21A9.89,9.89,0,0,1,23.13,52l1.49-3.67a3.94,3.94,0,0,1-1.07-.09,15.14,15.14,0,0,0-2.69-.11l-2,.15c-.64,0-1.49.48-2,.51l1.26.34-.17-.1.9.89c.23.42,0-.19,0-.3,0-.28-.16-.55-.18-.83-.06-.73.09-1.5.09-2.23,0-1.63.08-3.27,0-4.89l-4.91.66a15.92,15.92,0,0,0,1.95,4.73c.31.58.52,1.2.85,1.76a7.3,7.3,0,0,0,2.06,2,2.51,2.51,0,0,0,3.42-.9,2.57,2.57,0,0,0-.9-3.42c-.4-.3-.21-.09-.42-.49-.31-.59-.57-1.21-.9-1.81A10.32,10.32,0,0,1,18.65,41c-.49-2.76-5.07-2.14-4.91.67a54,54,0,0,1,0,6.23c-.08,1.49,0,3.9,1.19,5a3.09,3.09,0,0,0,3.05.68A10.65,10.65,0,0,1,19,53.24c.35-.05.78,0,1.14,0,1.95-.2,3.85.26,5.77-.07a2.51,2.51,0,0,0,1.5-3.67,13.62,13.62,0,0,0-1.93-2.16A12.38,12.38,0,0,1,24,45.93c-.44-.6-.92-1.35-1.3-2a14.05,14.05,0,0,1-.79-2.2,33.38,33.38,0,0,1-2.16-11c-.07-3.21-5-3.22-5,0a11.33,11.33,0,0,1-.9,3.12,17,17,0,0,1-1.64,3.24c-.71,1.23-1.33,2.5-2,3.77-.56,1.08-.85,2.25-1.37,3.34C7.64,46.73,6.72,49.4,5.6,51.94c-.59,1.33-1.31,2.61-1.81,4a11.53,11.53,0,0,0-1,3c-.15,2.23,2.8,3.2,4.27,1.77a6.17,6.17,0,0,0,1.48-2.88c.27-1.1.7-2.08.88-3.21a9,9,0,0,1,.82-2.93c.52-.94,1-1.93,1.49-2.91,1.1-2.4,1.46-5.05,2.16-7.58.33-1.21.6-2.45,1-3.65.18-.59.37-1.17.55-1.76s.47-.85-.22-.32L11.55,34c.33,1.51-.41,2.88-.52,4.37a39.15,39.15,0,0,1-.67,5.38c-.73,3.47-2.58,6.8-2.71,10.39a2.51,2.51,0,0,0,3.16,2.41,3.51,3.51,0,0,0,1.44-.82c.15-.15.69-1,.49-.7L8.48,53.23l0,.29.35-1.26a5.57,5.57,0,0,1-.58.93c-.16.23-.11.2.14-.06a2.06,2.06,0,0,0-.37.23,3.63,3.63,0,0,0-1.63,2.75,8.83,8.83,0,0,0,.68,5.22l3.42-3.42-.16-.1.9.89a1.79,1.79,0,0,1-.3-1.44l-4.57.6c-.11-.16.07.48.09.56a4.43,4.43,0,0,0,.47,1,17.66,17.66,0,0,0,1.54,2c.45.55,1,1,1.5,1.48a16.9,16.9,0,0,0,1.42,1.51c1,.86,2.06,1.55,3,2.46a15.36,15.36,0,0,0,1.72,1.51c.61.4,1.3.69,1.93,1.07,1.39.81,2.81,1.6,4.21,2.4a22.67,22.67,0,0,0,4.12,2,12,12,0,0,0,4.79.53c.84-.08,1.65-.28,2.48-.42a19.06,19.06,0,0,1,2.45-.43l-.66-4.92a10.79,10.79,0,0,1-4.61.85,15.05,15.05,0,0,1-2-.56c-.79-.21-1.61-.23-2.4-.44a12.19,12.19,0,0,1-1.82-.7,20.62,20.62,0,0,0-2.43-.74c-1.42-.44-2.85-.42-4.25-.83a3,3,0,0,1-1.3-.7,10.76,10.76,0,0,0-2.17-1.28c-1.3-.64-2.52-1.46-3.79-2.16a13.91,13.91,0,0,1-2.09-1.19A12.08,12.08,0,0,1,7.5,59.66a8.83,8.83,0,0,0-1.87-1.52,8.6,8.6,0,0,0-.92-.55c.08,0-.22-.38-.11-.14l.25,1.92c.1-.6.57-1.8.76-2.65s.44-1.71.62-2.57a27.47,27.47,0,0,1,.87-2.8c.26-.78.4-1.62.69-2.39s.7-1.48,1-2.22a25.68,25.68,0,0,0,.94-2.85c.27-.89.44-1.8.67-2.7a14,14,0,0,0,.7-2.94l-.34,1.26a10.17,10.17,0,0,0,.89-3.18c.22-1,.28-2.06.54-3,0-.11.1-.63.09-.4s.28-.5-.09,0c-.31.2-.28.2.09,0l.54-.23c.27-.13.51-.33.78-.47a8.1,8.1,0,0,1,3.22-1.18c3.21-.11,3.23-5.11,0-5Z"/></g><g class="cls-6"><path class="cls-7" d="M46.65,31.83a4.87,4.87,0,0,1,1,2.4c.18,1.29.26,2.6.47,3.9a9.61,9.61,0,0,0,1.45,3.59,3.35,3.35,0,0,0,3.7,1.48A2.41,2.41,0,0,0,55,41.45a9.82,9.82,0,0,0-.17-2.72,20.93,20.93,0,0,1-.15-2.27c0-1,.09-1.91.14-2.87a7.64,7.64,0,0,0,0-1.07,2.17,2.17,0,0,0-.17-.91c-.3-.72-.34-.8-.12-.23h-5a28.89,28.89,0,0,0,.48,3.69,17.55,17.55,0,0,1,.06,3,7.81,7.81,0,0,0,.14,1.74c.13.58.47,1.1.57,1.67.25,1.3,0,2.48.87,3.63a4.17,4.17,0,0,1,1.1,2c.12.53,0,1.13.11,1.68s.22,1.1.31,1.65a10.3,10.3,0,0,1,.06,2.88,7.77,7.77,0,0,1-.53,1c0,.08-.3.34,0,.16s-.54,0-.58,0c-1.75.33-2.08,2.33-1.5,3.67.44,1,1.16,1,1.25,2.09,0,.37-.06,1,0,1.23,0,0,0,.33-.06.29.33-.28.37-.34.13-.17s-.18.14.21,0c-3.21.11-3.23,5,0,5h.24c3.22,0,3.22-5,0-5h-.24v5c2.75-.1,4.49-2.36,4.7-5a8.14,8.14,0,0,0-.28-3.47,10.73,10.73,0,0,0-.65-1.48,6,6,0,0,0-.67-.84c-.09-.09-.36-.44-.28-.25l-1.49,3.67a6.31,6.31,0,0,0,4.83-6,18.63,18.63,0,0,0-.2-4,26.71,26.71,0,0,0-.57-3.81,16.89,16.89,0,0,0-.75-1.94c-.16-.33-.64-1.43-1-1.41-.22-.21-.17-.1.14.33V42a5.36,5.36,0,0,0,0-.8,16,16,0,0,0-.62-2.28,20.86,20.86,0,0,1-.05-3.36c-.09-1.4-.54-2.76-.57-4.16-.07-3.22-5-3.23-5,0a3.81,3.81,0,0,0,.3,1.63c.28.67,0-.69,0,.4s-.15,1.9-.15,2.86a19.91,19.91,0,0,0,.55,4.88V39.83l-.05.29L52,38.37l-.32.05H53l.19.08.9.9c-1.11-1.51-1.24-3.25-1.36-5.06a9.68,9.68,0,0,0-1.74-5,2.57,2.57,0,0,0-3.42-.9,2.51,2.51,0,0,0-.9,3.42Z"/></g><g class="cls-8"><path class="cls-9" d="M38.72,50.18a3.54,3.54,0,0,0,.86.78,8.39,8.39,0,0,1,1.11.67c.51.41,1.5,1.16,1.56,1.87L44,52.79c-.47-.6-.83-1.26-1.26-1.88a4.42,4.42,0,0,0-1.21-1.47,5,5,0,0,0-1.93-.34A4.59,4.59,0,0,0,38.28,49a4,4,0,0,0-1,.39l1.23,1.24c.06-.26.31-.45.44-.68a9,9,0,0,0,.45-1.12,6.54,6.54,0,0,1,.7-1.62L38.6,46.12c.11-.28-.05,0-.14.1a1.74,1.74,0,0,0-.28.5,4.85,4.85,0,0,0-.17,1c-.11.79.91,1.19,1.5.86a2.85,2.85,0,0,0,1.18-1.25,6.23,6.23,0,0,1,1-1.62,7.94,7.94,0,0,1,3.07-1.95c.69-.28,1.41-.22,2.09-.5a1.67,1.67,0,0,1,1.7.26,9,9,0,0,1,2.86,3.16,6.2,6.2,0,0,1,.9,4,2.73,2.73,0,0,1-.71,1.51,10.37,10.37,0,0,1-1.66.85,4.39,4.39,0,0,0-.66.47,1.48,1.48,0,0,0-.3.31l-.14.16h.38a3,3,0,0,0-.62-.46,4.43,4.43,0,0,0-1-.39,6.5,6.5,0,0,0-1.91-.29c-.32,0-.65,0-1,0a4.45,4.45,0,0,0-.48-.1c.09-.13.22.75.25.25A7.68,7.68,0,0,0,44,50.78a3.49,3.49,0,0,0-.91-1.7,5.59,5.59,0,0,0-1.64-1c-.09-.05-.27-.22-.37-.2s-.15,0,0,.23l.07-.18a4.47,4.47,0,0,0,.7-1.13L40,46a14.61,14.61,0,0,0-.46,2.46,1,1,0,0,0,1.71.71,4.35,4.35,0,0,0,.9-1.65,3,3,0,0,0,.29-.83c0-.22,0-.58.19-.74L41,45.49c.17.91-.23,1.85,0,2.76a1,1,0,0,0,1.83.24,6.38,6.38,0,0,0,.65-1.63c.09-.31.09-.93.33-1.13l-1.68-1c-.16,1.17-.56,2.29-.63,3.49s1.33,1.22,1.87.5a3.83,3.83,0,0,0,.38-1.14c.11-.31.34-.56.46-.88s.15-.59.22-.88.1-.37.14-.55.19-.29,0-.18l-1.37-.35c-.19-.4,0-.28-.11-.08a3.54,3.54,0,0,0-.11.44c-.11.39-.24.77-.35,1.16-.19.71-.32,1.49.4,2a1,1,0,0,0,1.21-.16,6.46,6.46,0,0,0,.94-1.68,3.45,3.45,0,0,1,.14-.34c.29-.64.2,0-.56-.16l-.7-.7c.14.91-.72,1.7-.38,2.64.27.73,1.43,1.08,1.83.24.26-.54.48-1.06.75-1.59a5.93,5.93,0,0,1,.6-1.27l-1.7-.71a5.32,5.32,0,0,1-.22.85c-.07.33-.07.65-.17,1a1,1,0,0,0,1.93.53c.16-.53.21-1.09.4-1.61.08-.23.23-.43.3-.67,0-.06.15-.64,0-.41l-1.86-.51c0,.42-.25.68-.34,1.06q-.45.57.87.21l-.1-.17c-.1-.44,0-.14-.15,0-.34.34-.2.16.17.21a4.18,4.18,0,0,1,.79.21,11.47,11.47,0,0,1,1.27.62,5.7,5.7,0,0,1,1.19.58,2,2,0,0,1,.66,1A16.33,16.33,0,0,1,50.62,49c.15.66.23,2.07-.34,2.54a3.86,3.86,0,0,1-2.54.28,3.54,3.54,0,0,1-1.42-.55,5.39,5.39,0,0,1-1.16-.69c-.64-.67-.58-1.84-.8-2.67a1,1,0,0,0-2,.27c.05,1,.09,1.91.19,2.86a2.57,2.57,0,0,0,.92,2,1,1,0,0,0,1.47-.6,8.57,8.57,0,0,0,.13-2.37,6.52,6.52,0,0,1-.14-2H43q.32,1.56.51,3.15c.08.62.08,1.52.6,2a1,1,0,0,0,1.67-.44c.72-2,.49-4.43.43-6.53l-2,.26a16.07,16.07,0,0,1,.26,2.94A8,8,0,0,0,44.86,52a1,1,0,0,0,1.93,0,12.46,12.46,0,0,0,.31-2.65c.07-.89.15-1.75.15-2.64h-2c0,.82,0,1.63,0,2.45a9.16,9.16,0,0,0,0,2.22,1,1,0,0,0,1.83.24,7.44,7.44,0,0,0,.77-3.12c.08-1.18.14-2.37.21-3.56s-1.85-1.24-2,0A23.41,23.41,0,0,0,46,47.58c0,.41,0,.82,0,1.22s.14.92.15,1.39c0,1.08,1.79,1.41,2,.26A21,21,0,0,0,48.22,46c0-.56-.08-1.13-.17-1.68,0-.17-.07-.33-.09-.5-.06-.46.12-.32-.31-.14l-1-.26c.27.23.4.62.64.88a5.06,5.06,0,0,0,1.13.88c.19.13.63.28.75.48s-.22.86-.27,1.1c-.19,1-.25,1.92-.47,2.87a8.53,8.53,0,0,0-.25,1.32,2.5,2.5,0,0,1-.09.95l1.83.24a9.71,9.71,0,0,1-.25-2.63c0-1-.09-2.09-.17-3.12a1,1,0,0,0-2-.27,16.12,16.12,0,0,0-.39,2.49c-.1.92-.28,1.82-.4,2.73-.14,1.16,1.64,1.29,2,.26s.55-1.86.83-2.78a3.05,3.05,0,0,0,.22-2.13,1,1,0,0,0-1.83.23c-.21.72-.42,1.44-.66,2.15-.12.38-.25.75-.35,1.13a6.68,6.68,0,0,1-.18.89l1.87.5c0,.66-.85.54-.21.52a2.76,2.76,0,0,0,.4-.06,1.68,1.68,0,0,0,.9-.62,4,4,0,0,0,.54-1c.07-.19.12-.57.27-.69L49,49.47a2.23,2.23,0,0,1,.1,1,1.49,1.49,0,0,0,.43,1.06,1,1,0,0,0,1.57-.2c.15-.22.22-.51.38-.71l-1.67-1c-.18.55-.38,1.1-.53,1.66a1,1,0,0,0,1.93.53c.15-.56.35-1.1.53-1.66.29-.92-1-1.74-1.67-1a11.53,11.53,0,0,0-.7,1.11l1.58-.21c.17.19.11.4.16,0a2.6,2.6,0,0,0,0-.56,2.77,2.77,0,0,0-.36-1.15,1,1,0,0,0-1.57-.21,2.08,2.08,0,0,0-.63,1.1,5.1,5.1,0,0,0-.19.55c0,.06-.17.3,0,.19-.22.17-.73.07-1,.24a1.46,1.46,0,0,0-.63,1.23c-.07.95,1.47,1.42,1.86.51.3-.71.39-1.49.63-2.22s.52-1.61.76-2.42l-1.83.24c-.22-.47,0-.55-.14-.39a1.6,1.6,0,0,0-.11.43l-.27.89c-.26.81-.47,1.63-.73,2.44l2,.27c.11-.82.28-1.63.37-2.45a16.82,16.82,0,0,1,.34-2.24l-2-.26c.09,1.11.15,2.24.18,3.36A10.22,10.22,0,0,0,48,52.64a1,1,0,0,0,1.83.24,10.39,10.39,0,0,0,.53-2.75c.29-1.2.31-2.45.7-3.63a2.17,2.17,0,0,0-.89-2.62A12.92,12.92,0,0,1,49,43.13c-.39-.33-.54-.82-.93-1.15a1,1,0,0,0-1-.26c-1.33.54-1.22,1.76-1,3a17.3,17.3,0,0,1,0,5.23l2,.27c0-.42-.12-.82-.14-1.23s0-.92,0-1.38a23.41,23.41,0,0,1,.15-2.65h-2c-.06,1-.14,2-.18,3.06a6,6,0,0,1-.53,2.61l1.83.24a9.18,9.18,0,0,1,0-2V46.7a1,1,0,0,0-2,0,23.31,23.31,0,0,1-.12,2.36,12.88,12.88,0,0,1-.27,2.4h1.93a8.06,8.06,0,0,1-.24-2.59A15.51,15.51,0,0,0,46.21,46c-.19-1.11-2-.85-2,.27s0,2,0,3a8.15,8.15,0,0,1-.37,3l1.68-.44c.25.22.08.22,0-.08a2,2,0,0,0,0-.24c0-.25,0-.51-.09-.76-.14-1.06-.31-2.12-.52-3.16a1,1,0,0,0-1.93,0c-.36,1.44.31,2.91,0,4.38l1.47-.6c.34.25.11,0,.07-.28s0-.39-.05-.59c0-.76-.1-1.51-.14-2.27l-2,.27c.31,1.18.36,2.47,1.22,3.45a6.25,6.25,0,0,0,1.55,1,5.72,5.72,0,0,0,1.9.81,6.85,6.85,0,0,0,3.73-.22,3.12,3.12,0,0,0,1.82-3,7.73,7.73,0,0,0,0-1.8,17.93,17.93,0,0,0-.72-2.14,4.16,4.16,0,0,0-2.53-2.46c-1.27-.58-4.22-2.31-5.19-.31-.48,1,.23,2.74,1.39,2.86,1.38.14,2.12-2,2.1-3,0-.93-1.42-1.44-1.86-.5-.22.46-.31.94-.49,1.42s-.28,1.17-.46,1.75l1.93.53c.11-.39.12-.8.22-1.19a5.69,5.69,0,0,0,.24-1.16,1,1,0,0,0-1.71-.71,14,14,0,0,0-1.67,3.27l1.83.24c0,.08.06-.21.09-.32s.13-.44.19-.67a4,4,0,0,0,.1-1.65,1,1,0,0,0-.7-.7c-1.65-.34-1.75,1.77-2.47,2.7l1.22-.16c.75.5.29.95.45.57a2.08,2.08,0,0,0,.11-.41c.1-.34.21-.68.3-1a2.6,2.6,0,0,0,0-1.9,1,1,0,0,0-1.37-.36,3.33,3.33,0,0,0-1.15,2.19,2.73,2.73,0,0,1-.39.91c-.21.37-.17.92-.41,1.24l1.86.51c.06-1,.42-2,.56-3a1,1,0,0,0-1.67-1c-.89.75-.73,2.22-1.29,3.17l1.83.24a3.84,3.84,0,0,1,0-1.22,6.1,6.1,0,0,0,0-1.54,1,1,0,0,0-1.67-.44,3,3,0,0,0-.71,1.62,3.51,3.51,0,0,1-.33.83,4,4,0,0,1-.34.76l1.7.71A12.69,12.69,0,0,1,42,46.51c.14-1.06-1.2-1.82-1.83-.77a4.7,4.7,0,0,0-1,2.27,1.84,1.84,0,0,0,1.23,1.69c.57.29,1.31.51,1.62,1.14a7.24,7.24,0,0,1,.28,1,10.4,10.4,0,0,1,.31,1.34,1.55,1.55,0,0,0,1,1.44,9.77,9.77,0,0,0,2.53.22,3.8,3.8,0,0,1,2,.76,1.59,1.59,0,0,0,2.12-.14,5.71,5.71,0,0,1,1.68-1.15,3.57,3.57,0,0,0,1.79-1.55,6.54,6.54,0,0,0,.48-5,12,12,0,0,0-2.75-4.45c-1.1-1.13-2.69-2.6-4.43-2.29-.4.08-.74.31-1.14.39a9.45,9.45,0,0,0-1.56.34,11.5,11.5,0,0,0-2.44,1.26A8.73,8.73,0,0,0,40,44.69a6.68,6.68,0,0,0-.88,1.16c-.19.39-.2.79-.61,1l1.51.86c.05-.42.35-.68.51-1.07.36-.88-.77-1.49-1.46-1.13s-1,1.32-1.34,2.07A12.74,12.74,0,0,1,37.18,49a4,4,0,0,0-.63,1.15c-.15.68.46,1.53,1.23,1.23a7.35,7.35,0,0,1,.76-.34,2.49,2.49,0,0,1,.93.1c.25,0,.48.05.73.07s.2-.13.42.17c.7.91,1.22,1.93,1.93,2.85a1,1,0,0,0,1.7-.71,4.44,4.44,0,0,0-1.62-2.82c-.77-.73-1.8-1.15-2.5-1.91-.87-1-2.28.47-1.41,1.41Z"/></g><g class="cls-8"><path class="cls-9" d="M40.42,14.51a1.83,1.83,0,0,1-1.4.7l-.3,0-.52,0-1,.05a14.59,14.59,0,0,0-2.36.42c-.38.11-.75.24-1.13.34l-.27.06-.16,0c-.14,0,.12,0,0,0L33,16.1l-.26,2a9.08,9.08,0,0,0,1.85-.45c.64-.09,1.34.12,2,0a8.69,8.69,0,0,0,1-.28c.35-.1.72-.11,1.08-.19s.65-.22,1-.28a2.74,2.74,0,0,0,1-.33l-1.37-1.37a3.79,3.79,0,0,1-1.29,1.06l-.93.51-.16.08a.29.29,0,0,1,.16,0,1.71,1.71,0,0,0-.78.05,1,1,0,0,0-.72.83,1,1,0,0,0,.48,1,2.81,2.81,0,0,0,1.17.26,3.32,3.32,0,0,1,.83,0l-.74-1a1,1,0,0,1,.18-.46c.1-.07.1-.08,0,0s-.27.13-.1.06l-.26.08-.15,0H37c-1.29,0-1.29,2,0,2,.86,0,2.35-.63,2.24-1.7a1,1,0,0,0-.73-1,3.29,3.29,0,0,0-.94-.07c-.15,0-.45.1-.58,0l-.24,1.83-.16,0,.27,0a1.7,1.7,0,0,0,.39,0,2.22,2.22,0,0,0,.65-.24c.4-.2.78-.42,1.17-.64A6,6,0,0,0,41,16.19,1,1,0,0,0,40.8,15a1,1,0,0,0-1.21-.16,3,3,0,0,1-.8.19c-.29.08-.57.2-.86.25a8,8,0,0,0-1,.19,5.62,5.62,0,0,1-.77.23c-.67.07-1.33-.13-2,0a9.8,9.8,0,0,1-1.44.39,1,1,0,0,0-.27,2,3,3,0,0,0,1.37.08,9.35,9.35,0,0,0,1.26-.33,9.11,9.11,0,0,1,1.37-.33,5.65,5.65,0,0,1,1-.14c1.56-.1,3.29-.05,4.38-1.38a1,1,0,0,0-1.42-1.41Z"/></g><g class="cls-8"><path class="cls-9" d="M41.28,27.3v-.74a5.45,5.45,0,0,1,0-.7l0,.27a2.11,2.11,0,0,1,.17-.5,2.12,2.12,0,0,0,.14-.75,1,1,0,0,0-.29-.7,1,1,0,0,0-.71-.3,1,1,0,0,0-1,1,.76.76,0,0,1,0,.15l0-.27a2.57,2.57,0,0,1-.15.47,2,2,0,0,0-.16.73c0,.44,0,.89,0,1.34a1.05,1.05,0,0,0,.29.71,1,1,0,0,0,1.71-.71Z"/></g><g class="cls-8"><path class="cls-9" d="M28.9,27.38A2.58,2.58,0,0,0,30,28.44s.33.24.18.11a3.2,3.2,0,0,1,.27.25c.17.17.34.34.53.5a7.6,7.6,0,0,0,1.4,1,3.16,3.16,0,0,0,.5.22c.26.08-.17-.15,0,0a1.62,1.62,0,0,0,1.37.27h-.53a.38.38,0,0,1-.19-.14q-.23-.23.06.12A1.29,1.29,0,0,0,34,31a2.27,2.27,0,0,0,.62.12c.31,0,.62,0,.93,0a1,1,0,0,0,0-2c-.21,0-.41,0-.61,0h-.27c.22,0-.06,0-.14-.05l.6.46a1.61,1.61,0,0,0-.59-.57,1.36,1.36,0,0,0-.59-.15l-.26,0a.19.19,0,0,1,.13,0l.44.26a1.93,1.93,0,0,0-.84-.51c-.25-.07.12.09-.11,0l-.25-.15c-.2-.13-.4-.26-.59-.41l-.12-.1-.26-.23a7.3,7.3,0,0,0-1-.9l-.27-.16-.07,0c-.09-.06-.07-.05,0,0l-.09-.1.07.1c-.06,0-.12-.2-.16-.26a1,1,0,1,0-1.72,1Z"/></g><g class="cls-8"><path class="cls-9" d="M42.71,37.14a23,23,0,0,0-2.54,1.11A8.46,8.46,0,0,0,39,39a10.79,10.79,0,0,0-.9.89A7.29,7.29,0,0,0,36.7,42,6.9,6.9,0,0,0,36,44.68h2a.57.57,0,0,1,.09-.33c.12-.25.22-.51.33-.76A10.06,10.06,0,0,1,39,42.44c.11-.2.22-.39.35-.58a2.83,2.83,0,0,1,.35-.39c.32-.32.67-.6,1-.95a1,1,0,0,0,0-1.42,1,1,0,0,0-1.41,0c-.33.4-.73.7-1.08,1.07a7.12,7.12,0,0,0-1,1.36,12.61,12.61,0,0,0-.75,1.52A4.14,4.14,0,0,0,36,44.68a1,1,0,0,0,2,0,2.93,2.93,0,0,1,.16-1,5.26,5.26,0,0,1,.33-.84,5.52,5.52,0,0,1,1.08-1.68,8.18,8.18,0,0,1,.73-.72,8.71,8.71,0,0,1,.87-.49,16.34,16.34,0,0,1,2.06-.91,1,1,0,0,0,.7-1.23,1,1,0,0,0-1.23-.7Z"/></g><g class="cls-8"><path class="cls-9" d="M30.86,42.24A2.4,2.4,0,0,0,30.12,41c-.28-.28-.51-.61-.77-.9a9,9,0,0,0-2.06-1.78,1,1,0,0,0-1.51.86c0,.79.71,1.32,1.3,1.71.21.14.43.27.65.39l.45.26a.91.91,0,0,1,.23.15s-.18-.14-.07,0l.13.11.7-1.71-.29,0,.26,0A5.71,5.71,0,0,0,28.05,40a1,1,0,0,0-1,1,1,1,0,0,0,1,1,1.51,1.51,0,0,1,.3,0l-.26,0a8,8,0,0,0,1.08.14,1,1,0,0,0,.71-1.7,9.39,9.39,0,0,0-1.6-1L28,39.16l-.13-.09L27.83,39c-.1-.07.1.08.1.09s-.09-.08-.12-.11l-.11-.1-.06-.07c-.07-.06.13.2.09.12l-.06-.11.1.24a.24.24,0,0,1,0-.08l0,.27v0l-1.5.87.45.3c.1.07-.18-.15,0,0l.11.09.2.18c.28.25.56.51.82.79s.46.56.71.84l.31.32.07.09c.06.07.07.14-.06-.08l.12.19-.11-.23a.85.85,0,0,1,.08.24,1,1,0,0,0,1.23.69,1,1,0,0,0,.69-1.23Z"/></g><g class="cls-8"><path class="cls-9" d="M26.07,41.37c.3.28.41.73.76,1s.88.48,1.29.78.85.93.5,1.4L29,44.2l.09,0h.53c.12,0,.3.26.19.07a1.46,1.46,0,0,0-.16-.19l-.25-.31c-.31-.4-.65-.78-1-1.18a9.09,9.09,0,0,0-1.84-2.16,1,1,0,0,0-1.47.6c-.27,1.12.78,2.21,1.38,3.07a8.46,8.46,0,0,1,.78,1.49c.18.38.61.91.61,1.33l1.87-.51c-.54-.83-.46-1.93-.83-2.84a13.43,13.43,0,0,1-.6-1.6,3.49,3.49,0,0,1-.12-.72,1.31,1.31,0,0,1,0-.28l-.06.19-.29.22s.73,0,.89,0a2,2,0,0,0,1.4-.52c.89-.94.07-2.15-.49-3l.14.51v-.13l-1,1s.31.11.43.15a6.71,6.71,0,0,0,.76.13,2.16,2.16,0,0,0,1.51-.31,1.4,1.4,0,0,0,.62-1.37c0-.39-.36-.78-.4-1.06v.53l0,.08-.35.36.09-.05-.5.13c.25,0,.56.14.83.14a2.13,2.13,0,0,0,1-.24c.59-.33.68-.86.91-1.42l-.26.44,0,0-.7.3c-.14,0-.31-.11-.07,0a1.69,1.69,0,0,0,.43.15,3.42,3.42,0,0,0,.78.06,1,1,0,0,0,0-2c-.39,0-.68-.22-1.08-.23a1.12,1.12,0,0,0-1.07.78,1.36,1.36,0,0,0-.06.29c0-.18.37,0,0-.1a1.54,1.54,0,0,0-1.31,0,1.21,1.21,0,0,0-.57,1.31,1.68,1.68,0,0,0,.37.85.57.57,0,0,1,.22-.6c.14,0,.12,0-.06,0a2.35,2.35,0,0,1-.37,0,7.37,7.37,0,0,0-1.15-.26,1,1,0,0,0-1,1,1.62,1.62,0,0,0,.37.94c.14.18.21.38.33.56s.07.13.05.11q0-.49.33-.48h0a3.17,3.17,0,0,0-.54,0c-1-.07-2,.3-2.09,1.45A7.26,7.26,0,0,0,27,44.16c.41,1.06.35,2.24,1,3.23a1,1,0,0,0,1.86-.5,3.15,3.15,0,0,0-.47-1.52c-.28-.53-.5-1.09-.77-1.62a11.85,11.85,0,0,0-.89-1.33A4.17,4.17,0,0,1,27,41.14v.53l0-.14-1.47.6a4.68,4.68,0,0,1,.92,1.19c.44.58.9,1.14,1.37,1.69-.11-.13-.06-.08,0,0l.26.34a2.48,2.48,0,0,0,.48.49,1.18,1.18,0,0,0,1.76-.33A2.87,2.87,0,0,0,30,42.22a4.86,4.86,0,0,0-1.5-1.13,2.88,2.88,0,0,1-.38-.22c-.12-.08,0,.06-.11-.12a4.28,4.28,0,0,0-.56-.8c-.94-.87-2.36.54-1.41,1.42Z"/></g><g class="cls-8"><path class="cls-9" d="M43.25,52.68l.11.14,1.13-1.47c.18.07-.14-.16-.17-.19l-.3-.27a1.8,1.8,0,0,0-.87-.46,1,1,0,0,0-1.23.7c-.35,1.65,2,2.89,3.38,2.55A1,1,0,0,0,45.74,52a6.52,6.52,0,0,0-1.81-.78c-1.16-.53-2.18,1.16-1,1.73a13.68,13.68,0,0,0,3.67,1.28,11.13,11.13,0,0,0,1.92.1,6.14,6.14,0,0,0,1.8-.37,1,1,0,0,0,.44-1.67C50,51.51,49,52,48.16,52c-1.28.06-1.3,2,0,2a7.44,7.44,0,0,1,1.7,0l-.24-1.82a2.89,2.89,0,0,1-2-.14,7.54,7.54,0,0,1-2.07-.8,10.17,10.17,0,0,1-1.72-1.49,3.18,3.18,0,0,0-1.49-1.18,1,1,0,0,0-1.27,1,2.58,2.58,0,0,0,.16.78,5.38,5.38,0,0,1,.24.53L43,50a8.23,8.23,0,0,1-.9-.65,5.13,5.13,0,0,1-.81-.65,1,1,0,0,0-1-.25l-.35.14c-.25.19-.27.21-.07.06l.77.1c.14.06.06.08,0,0a3.37,3.37,0,0,0-.21-.31,1.76,1.76,0,0,0-1-.7,1.14,1.14,0,0,0-1.06.23,1.4,1.4,0,0,0-.33.39c-.07.1-.28.31,0,.13l1.22.16c.4.41.08.57.22.37a2.71,2.71,0,0,0,.13-.3c.05-.08.13-.22.17-.27s-.08,0,.06,0l-.5.14h0l-1-.73c0-.2,0,.25,0,.31a2.41,2.41,0,0,0,0,.54,1.33,1.33,0,0,0,.64,1,1,1,0,0,0,1.37-.36c.36-.63.44-1.52.93-2.06l-1.67-.44C40,48,39.24,49.88,40.4,51a1,1,0,0,0,1.67-.44c.13-.68,0-1.38.12-2,.12-.44.32-1.16.74-1.4l-1.21-.15c-.24-.21-.08-.36-.11-.13s0,.3,0,.44,0,.47,0,.7A7.39,7.39,0,0,0,42,50.28a4.69,4.69,0,0,0,2.51,3.25,7.13,7.13,0,0,0,4.82.18,5.33,5.33,0,0,0,2-1.11,5.76,5.76,0,0,0,1.14-1.74,1,1,0,0,0-1.72-1,7.76,7.76,0,0,0-.37.77,4,4,0,0,1-.23.46c-.17.31-.2.16.13.07l1.23.69c0,.25,0-.12.15-.24.85-1-.56-2.37-1.42-1.41a2.55,2.55,0,0,0-.66,2.19,1,1,0,0,0,1.23.69c1-.29,1.18-1.43,1.66-2.21l-1.72-1A4.74,4.74,0,0,1,50,51.13a3.69,3.69,0,0,1-1.6.78A4.27,4.27,0,0,1,46.3,52a3.39,3.39,0,0,1-1.41-.53,4.87,4.87,0,0,1-1.32-3.26c0-.86.31-2-.44-2.67a1,1,0,0,0-1.21-.15,3.52,3.52,0,0,0-1.45,2,5.17,5.17,0,0,0-.33,1.27c0,.45.08.92,0,1.36l1.67-.45c.06.06,0-.25-.05-.35s0-.46,0-.69a13,13,0,0,0-.07-2.34A1,1,0,0,0,40,45.73a11.36,11.36,0,0,0-1.24,2.46l1.36-.35c.32.19.31.63.32,0a2.38,2.38,0,0,0-.05-.65,1,1,0,0,0-1-.73c-1.32.16-2.62,2.43-1.55,3.52a1,1,0,0,0,1.21.16,2.27,2.27,0,0,0,.55-.52,1.32,1.32,0,0,0,.12-.2c.14-.21,0-.16-.29.15H38.9c-.09,0-.14-.19-.1-.06a.91.91,0,0,0,.15.23,2.34,2.34,0,0,0,.52.61,1.3,1.3,0,0,0,1.68-.22l-.44.26.11-.05-1-.25a6.77,6.77,0,0,0,1.07.85,8.77,8.77,0,0,0,1,.76,1,1,0,0,0,1.5-.87,2.18,2.18,0,0,0-.19-.83,1.71,1.71,0,0,1-.21-.48l-1.27,1c.19.05.4.43.53.57a9.14,9.14,0,0,0,.88.88,8.62,8.62,0,0,0,2.31,1.56A14.31,14.31,0,0,0,48,54.2a3.77,3.77,0,0,0,2.6-.28,1,1,0,0,0-.24-1.82A8.31,8.31,0,0,0,48.16,52v2A5,5,0,0,0,49,53.9a2.05,2.05,0,0,1,.34-.07h.15c.24,0,.18,0-.17-.12L49.78,52a4.35,4.35,0,0,1-1.27.3,9.6,9.6,0,0,1-1.61-.07,12,12,0,0,1-3-1l-1,1.73c.32.15.64.32,1,.44.12,0,.63.22.43,0l.44-1.67c-.24.06-.47-.17-.66-.3a1.59,1.59,0,0,0-.21-.15c-.09,0-.09-.15-.08-.07v.53l0-.1-1.23.7c.26,0-.08-.11.17.1s.2.19.3.28a2.94,2.94,0,0,0,.87.54c.78.3,1.66-.79,1.13-1.47l-.1-.14a1,1,0,0,0-1.37-.36,1,1,0,0,0-.36,1.37Z"/></g><g class="cls-3"><path class="cls-4" d="M34.73,62.44c.6-.52,1.15-1.07,1.78-1.55s1.26-.8,1.89-1.19a8.28,8.28,0,0,1,2-1.07A19.11,19.11,0,0,0,42.66,58c.45-.19.92-.69.69-1.24a2.18,2.18,0,0,0-2.24-1.27,2.48,2.48,0,0,0-1.25.38c-.14.08-.84.52-.91.47l.36,1.37c-.2.14-.21.17,0,.07l.37-.16c.18-.09.31-.21.5-.29a7.08,7.08,0,0,1,1.59-.29,13,13,0,0,1,3.41-.16A14.6,14.6,0,0,1,49,58a1.74,1.74,0,0,1,1.23,1.12c.15.47.32,1,.44,1.44l1.23-1.23c-.55-.1-1.13-.79-1.62-1.08a12.66,12.66,0,0,0-2-.92,10.39,10.39,0,0,0-4.7-.4,16.51,16.51,0,0,0-2.21.4,17.09,17.09,0,0,0-2.15.61,13.68,13.68,0,0,0-1.84.91A15.35,15.35,0,0,1,35.46,60a1,1,0,0,0-.6,1.46c.71,1.14,2.37,1,3.48,1.38a8.94,8.94,0,0,0,4.76.07c.77-.17,1.56-.24,2.31-.48A8.06,8.06,0,0,1,48,61.87a2.33,2.33,0,0,1,1,.05c.17.1.31.35.45.48a1.49,1.49,0,0,0,1.48.58,1,1,0,0,0,.7-1.23c-.89-2.14-4-3.12-6.15-3.13a21.49,21.49,0,0,0-4,.32,26.16,26.16,0,0,0-3.08,1c-.86.28-1.05,1.76,0,1.93a12.27,12.27,0,0,0,3.92,0,16.12,16.12,0,0,0,1.7-.39c.52-.15,1.12-.65,1.64-.68l-.26-2a9.86,9.86,0,0,0-2.63.85,1,1,0,0,0,0,1.73,3.57,3.57,0,0,0,1.65.24c.64,0,1.28.12,1.92.16,1.1.06,1.67,1.29,2.67,1.58l.26-2h0c-1.28,0-1.28,2,0,2h0a1,1,0,0,0,.27-2c.34.1-.31-.4-.42-.47a4.83,4.83,0,0,1-.62-.37A3.08,3.08,0,0,0,47,59.89c-.62-.09-1.24-.09-1.86-.16-.27,0-.55-.07-.83-.08-.11,0-.82,0-.64,0v1.73a8.11,8.11,0,0,1,2.15-.66c1.11-.17.85-2-.27-2a3.64,3.64,0,0,0-1.46.44,6.51,6.51,0,0,1-1.51.49,9.9,9.9,0,0,1-3.76.19v1.93c.81-.26,1.62-.64,2.42-.87a12,12,0,0,1,3.05-.33,8.12,8.12,0,0,1,3,.32,7.82,7.82,0,0,1,1.56.7,2.79,2.79,0,0,1,.47.36c.06,0,.38.46.3.26l.7-1.23c.59.19.75.17.46-.06l-.25-.27a2.71,2.71,0,0,0-.47-.42,2.88,2.88,0,0,0-1.67-.42,8.18,8.18,0,0,0-2.31.24c-.7.19-1.37.46-2.09.6a11.82,11.82,0,0,1-4.3.4c-.59-.1-1.12-.32-1.71-.4a7.27,7.27,0,0,1-1.12-.26c-.26-.08-.45-.27-.28,0L36,61.93c1.24-.52,2.31-1.35,3.51-2a10,10,0,0,1,1.78-.57,15.31,15.31,0,0,1,2.21-.49,8.94,8.94,0,0,1,4.5.44,8.69,8.69,0,0,1,1.74.9,4.56,4.56,0,0,0,1.61,1A1,1,0,0,0,52.57,60c-.32-1.37-.78-2.83-2.09-3.56A15.69,15.69,0,0,0,45.54,55a14.79,14.79,0,0,0-4.45.21,6.44,6.44,0,0,0-2,.5c-.51.27-1.22.54-1.49,1.08a1,1,0,0,0,.36,1.37,2.06,2.06,0,0,0,2.05.06,4.13,4.13,0,0,1,1-.59c.12,0,.28,0,.4,0,.29-.09.32.39.08-.2l.69-1.23c-.74.31-1.58.4-2.34.65A10.74,10.74,0,0,0,37.39,58c-.66.41-1.36.79-2,1.25s-1.4,1.2-2.1,1.8c-1,.85.44,2.26,1.41,1.42Z"/></g><g class="cls-3"><path class="cls-4" d="M39.59,63c.38,0,.77.24,1.17.28a13.62,13.62,0,0,0,1.43,0,6,6,0,0,0,1.47-.11A7.81,7.81,0,0,0,45,62.55l-.51.14a2.14,2.14,0,0,0,1.34-.53l-.45.26A8.08,8.08,0,0,0,46.8,62a9.91,9.91,0,0,0,1.25-.76.59.59,0,0,1,.47-.15c.25,0,.3.09.35.32l.26-1-.1.09.44-.26c-.19.07-.65,0-.92.08a1,1,0,0,0-.24,1.83,2.78,2.78,0,0,0,1.57.39,1,1,0,0,0,0-2,.89.89,0,0,1-.56-.12l-.24,1.83a3.23,3.23,0,0,1,.54,0,1.65,1.65,0,0,0,.93-.42,1,1,0,0,0,.25-1,2.44,2.44,0,0,0-3.09-1.69,2.73,2.73,0,0,0-.93.51,7.19,7.19,0,0,1-.67.37,2.79,2.79,0,0,1-.82.34,2.51,2.51,0,0,0-1.11.57l.44-.26a5,5,0,0,0-1.24.46,3,3,0,0,1-1.19.12,7.28,7.28,0,0,1-1.32,0A4.31,4.31,0,0,0,39.59,61a1,1,0,0,0,0,2Z"/></g><g class="cls-8"><path class="cls-10" d="M43.55,9.83c.71,1,1.48,1.95,2.24,2.91a12.92,12.92,0,0,1,1.64,2.74A6.29,6.29,0,0,1,48,16.92c.09.48,0,.94.16,1.42a10.26,10.26,0,0,1,.11,3c0,.68.73.84,1.29.78s1.62-.41,1.63-1.07a11.82,11.82,0,0,0-.08-3.31,10.67,10.67,0,0,1-.2-1.49,5.91,5.91,0,0,0-.56-1.52,14.65,14.65,0,0,0-1.65-2.91c-.83-1.05-1.68-2.09-2.46-3.18-.67-.92-3.46.12-2.67,1.21Z"/></g><g class="cls-8"><path class="cls-10" d="M44,5.14c1.56,1.11,2.13,3,2.88,4.63A16.92,16.92,0,0,1,48,12.62c.29,1.2.53,2.44.77,3.66.14.7,3.05,0,2.9-.78-.24-1.22-.49-2.45-.77-3.66a18.23,18.23,0,0,0-1.16-3c-.75-1.71-1.4-3.59-3-4.72-.48-.35-1.38-.07-1.88.12-.18.07-1.29.58-.84.9Z"/></g><g class="cls-8"><path class="cls-10" d="M40.92,10.33a4.29,4.29,0,0,1-1.36.7c-.67.3-1.33.6-2,.88-1.33.58-2.71,1-4,1.66-.58.28-1.2.47-1.78.75a17.07,17.07,0,0,1-1.79,1c-.6.22-1.28.17-1.9.37a6.52,6.52,0,0,0-1,.36l-.48.3c-.21.16-.2.16,0,0-.62.12-1.34.78-1.16,1.46s1.12.8,1.74.69,1-.56,1.5-.72a20.69,20.69,0,0,0,2.31-.5c.69-.3,1.27-.77,1.93-1.11s1.27-.51,1.88-.81c1.35-.65,2.78-1.12,4.15-1.71s2.86-1,3.86-1.93c1.42-1.34-.84-2.52-2-1.46Z"/></g><g class="cls-8"><path class="cls-10" d="M42.33,4.11C39.84.81,34.64.72,31.43,2.94A23.93,23.93,0,0,0,29,5a11.36,11.36,0,0,0-1.92,2.44c-.23.39-.49.76-.7,1.15s-.62.88-.87,1.35A11,11,0,0,1,25,11.11a2.41,2.41,0,0,0-.41,1.49c0,.66,2.94.15,2.9-.78a1.83,1.83,0,0,1,.41-1.14,5.93,5.93,0,0,0,.4-1,9.52,9.52,0,0,1,.68-1c.19-.33.35-.67.56-1,.43-.67.85-1.32,1.34-1.95a13.07,13.07,0,0,1,1.95-1.84,4.61,4.61,0,0,1,1.65-1.12A3,3,0,0,1,36,2.92a6.22,6.22,0,0,1,3.6,2.23c.47.62,3.25-.33,2.71-1Z"/></g><g class="cls-8"><path class="cls-10" d="M35,5.12C34,5.7,33.09,6.41,32.08,7A5.62,5.62,0,0,0,30.7,8c-.38.4-.69.86-1.06,1.26-.73.78-1.43,1.58-2.13,2.38a9.58,9.58,0,0,1-2.14,1.95c-.39.25-.86.82-.25,1.13a2.37,2.37,0,0,0,2.05-.27c1.87-1.16,3.07-3,4.58-4.5a11.35,11.35,0,0,1,2-2.1c.51-.29,1-.56,1.51-.9s1-.7,1.51-1,.85-.83.26-1.13A2.39,2.39,0,0,0,35,5.12Z"/></g><g class="cls-8"><path class="cls-10" d="M36.33,7.62a3.27,3.27,0,0,1-1.67,1.26,7.9,7.9,0,0,0-1.23.77l-.52.4c-.08.07-.18.12-.27.19s0,0,.08,0A26.69,26.69,0,0,0,30,11.57a8.35,8.35,0,0,0-2.51,1.63c-.47.47.4.6.71.58a3.07,3.07,0,0,0,1.93-.72,8.3,8.3,0,0,1,2.12-1.25l.64-.37.31-.18.15-.08A10.86,10.86,0,0,0,35,10.4c.37-.24.69-.54,1-.79l.08-.06c.11-.07.23-.12.34-.18l.52-.27a5.08,5.08,0,0,0,2.25-1.95c.28-.51-1-.41-1.18-.38-.55.1-1.39.3-1.68.85Z"/></g><g class="cls-8"><path class="cls-10" d="M40.8,7.1C39,8.15,37.49,9.7,35.64,10.69a12.8,12.8,0,0,1-2.54,1,10.45,10.45,0,0,1-3,.1,2.66,2.66,0,0,0-1.93.73c-.4.53.35.63.73.63a16.9,16.9,0,0,0,4-.2,19.79,19.79,0,0,0,3.59-1.24c2.25-1,3.92-2.79,6-4,.33-.19.91-.66.31-.91a2.77,2.77,0,0,0-2,.33Z"/></g><g class="cls-8"><path class="cls-10" d="M24.61,14.06A36.47,36.47,0,0,0,22,20.41a15.49,15.49,0,0,0-1.09,5,41.31,41.31,0,0,0-.05,6.39,41.07,41.07,0,0,1,.5,6.26c0,.53,2.88.12,2.89-.77a46.26,46.26,0,0,0-.44-5.88,30,30,0,0,1-.25-3.29c0-1,.17-2,.22-3.05a10.45,10.45,0,0,1,0-1.77c.07-.32.24-.61.33-.92.29-1,.51-1.9.83-2.84a34.89,34.89,0,0,1,2.47-6c.28-.49-1-.36-1.17-.34a2.44,2.44,0,0,0-1.69.82Z"/></g><g class="cls-8"><path class="cls-10" d="M22.31,14.75A53.69,53.69,0,0,0,19.1,28.48a12.78,12.78,0,0,0,.06,3.44,24.44,24.44,0,0,1,.15,3.63,64.78,64.78,0,0,0,.92,7.61c.08.62,3,0,2.9-.78A67.62,67.62,0,0,1,22.21,35a32,32,0,0,0-.12-3.66A14.34,14.34,0,0,1,22,28.13a49.21,49.21,0,0,1,3.22-13.87c.22-.56-2.56-.28-2.87.49Z"/></g><g class="cls-8"><path class="cls-10" d="M46.73,22.91A3,3,0,0,0,46.4,25a4.4,4.4,0,0,0,.28,1,4,4,0,0,1,.2,1.19,6.59,6.59,0,0,0,1.95,4,1.79,1.79,0,0,0,2,.12c.38-.19,1.22-.82.72-1.33a5.74,5.74,0,0,1-1.72-3.4,4.32,4.32,0,0,0-.11-1.07,8.62,8.62,0,0,1-.32-1,3,3,0,0,1-.07-.76,1,1,0,0,1,.19-.67c.39-.58-.34-1-.84-1a2.14,2.14,0,0,0-1.9.84Z"/></g><g class="cls-8"><path class="cls-10" d="M34.24,5.55a.66.66,0,0,1,.61-.17l-.61,2.2A8.43,8.43,0,0,0,37,7.27a9.63,9.63,0,0,1,2.56-.4l-.16-2.14a4.22,4.22,0,0,1-1.81.11l-.34,0-.24,0c.14,0,.14,0,0,0l-.11,0h0c-.11-.08-.11-.08,0,0s.07.14,0,0L35.75,6.17s.44-.09.23-.07h.3c.32,0,.64.06,1,.09a6.86,6.86,0,0,0,2.35-.08c.68-.15,1.57-.95,1-1.69a4.77,4.77,0,0,0-2.22-1.52c-.4-.16-.82-.31-1.23-.46a5.42,5.42,0,0,0-.87-.26,3.39,3.39,0,0,0-.55,0c-.29,0-.23,0,.17.08l-.84,1.9c.54-.09,1.07-.15,1.61-.19l.52,0c.1,0,.57,0,.11,0l.53,0A4.27,4.27,0,0,0,41,3.39a1.09,1.09,0,0,0,.48-1.08c-.15-.73-1-1.13-1.57-1.38a4.36,4.36,0,0,0-1-.3,2.66,2.66,0,0,1-.8-.14L38,2.05a2.28,2.28,0,0,1-.4.17c-.17.09.08,0,.16,0-.21,0,0,0,.1,0s.24,0,.35.06l.15,0,.32.11.29.12c.06,0,.26.16,0,0a7.8,7.8,0,0,1,1,1,4.48,4.48,0,0,0,.64.51,2.22,2.22,0,0,0,.27.19.09.09,0,0,1,0,0l1.19-1.14c.22-.06-.19,0-.23,0,.13,0-.12,0-.13,0-.31,0-.62-.08-.94-.11a5.11,5.11,0,0,0-2.13.16c-.61.2-1.34.68-1.17,1.42a2,2,0,0,0,1.38,1.26l.71.27c.08,0,.06,0-.06,0l.15.1c-.09-.16-.14-.3-.12,0L40.69,4.7c-.09,0-.58,0-.8,0s-.45,0-.68.09c-.58.1.29,0-.2,0a3.83,3.83,0,0,0-2.17.74c-.34.27-.76.93-.36,1.35a2.75,2.75,0,0,0,1.88.86c.34,0,.68,0,1,0-.24,0,.13,0,.18,0s-.22-.11,0,0l-.11-1.32c0,.06-.22.17-.12.12l-.42.21c-.32.16-.64.3-.94.48s-.87.6-.81,1.14.5.74,1,.85A10.64,10.64,0,0,0,41,9.4l-.54-2-.09,0-.3.11c-.23.08-.46.16-.68.26a4.13,4.13,0,0,0-1.23.92.89.89,0,0,0,.39,1.47,3.89,3.89,0,0,0,1.31.15,3.78,3.78,0,0,0,.47-.06h.15c-.31-.07-.35-.06-.13,0l-.64-.91q0,.21,0,0c-.06.12-.05.12,0,0-.1.11-.08.1,0,0l-.16.12c.17-.11.19-.13,0-.05l-.19.1-.36.19a2.33,2.33,0,0,0-1.43,1.79.92.92,0,0,0,.64.92,3,3,0,0,0,1.32.23l.5,0c.17,0,.57.06.08-.06l-.56-1.2c0,.06.32-.43.38-.33a2.22,2.22,0,0,0-.31.1,3.73,3.73,0,0,0-1.09.55c-.57.44-.75,1.48.14,1.71a3.6,3.6,0,0,0,1.3.15c.65-.06,1.52-.46,1.59-1.21s-.75-1.06-1.36-1l.13.05.14,1.71c-.19.15-.29.12,0,0a3.94,3.94,0,0,0,.68-.25,2.69,2.69,0,0,0,1.17-1.12.87.87,0,0,0-.56-1.2,3.81,3.81,0,0,0-1.34-.14,4,4,0,0,0-.5.05H40c.29.06.33,0,.11,0l.64.91c0-.14,0-.13,0,0,0-.12,0-.1,0,.06s-.25.17-.13.11a7.24,7.24,0,0,0,.73-.38,2.52,2.52,0,0,0,1.45-2,.91.91,0,0,0-.64-.91,2.84,2.84,0,0,0-1.29-.22l-.47,0c-.2,0-.54-.07,0,.06l.4,1.47c-.12.12.37-.16.18-.08.32-.13.66-.24,1-.38a1.21,1.21,0,0,0,.79-1.28c-.15-.57-.82-.74-1.33-.72a7.94,7.94,0,0,1-2.18,0l.16,2a8.7,8.7,0,0,0,2.62-1.68.89.89,0,0,0-.11-1.32,3,3,0,0,0-1.82-.55h-.47s-.4,0-.24,0-.2,0-.23,0a.15.15,0,0,1,.13.06L38.78,7c-.15.13-.45.12-.08.08s.59-.12.89-.14a11.47,11.47,0,0,0,1.66-.15,1.4,1.4,0,0,0,1.17-1.43c-.06-.67-.76-1.06-1.31-1.29l-.72-.27-.14-.06c.14.08.15.08,0,0l0,0c0,.15.07.17,0,0L39.18,5.24a1.51,1.51,0,0,1,.35-.06c.31,0,.62.06.94.1a6.22,6.22,0,0,0,2.15-.09c.45-.12,1.21-.57,1.19-1.14a1.76,1.76,0,0,0-.48-1.29c-.27-.27-.62-.42-.9-.67s-.44-.53-.67-.77a3.34,3.34,0,0,0-1-.7c-1.43-.69-3.37-1-4.72,0-.49.36-.75,1.16-.14,1.56a6,6,0,0,0,2,.61,2.48,2.48,0,0,1,.53.2c-.16-.08.19.13.18.12l0-.05c.08.11.08.11,0,0L39.08,2a1.62,1.62,0,0,1,.37-.19c.12,0,.24,0,0,0h-.26c.15,0,0,0,0,0-.39,0-.77-.07-1.16-.08A17.06,17.06,0,0,0,34.55,2c-.77.13-1.76,1.29-.84,1.9a2.35,2.35,0,0,0,.94.39,4.87,4.87,0,0,0,.54,0c.24,0,.23,0,0,0l1.19.44a3.23,3.23,0,0,1,1.62,1L39,4c.22,0-.23,0-.25,0-.42,0,.13,0-.3,0l-1-.1a5.67,5.67,0,0,0-2.32.17c-.66.22-1.27.66-1.17,1.43.12,1,1.51,1.35,2.34,1.48a8.22,8.22,0,0,0,3.56-.19c.56-.16,1.26-.63,1.19-1.29s-.76-.89-1.35-.86a13.91,13.91,0,0,0-3,.42c-.28.08-.72.26-.9.29a9.08,9.08,0,0,1-1.38,0,1.67,1.67,0,0,0-1.55,1.06,1,1,0,0,0,.94,1.14,3.49,3.49,0,0,0,2.81-1.1A.9.9,0,0,0,36.29,5a2,2,0,0,0-2,.55Z"/></g><g class="cls-8"><path class="cls-10" d="M24.22,11.21a15.65,15.65,0,0,1-1.31,2.19,4.89,4.89,0,0,0-1.06,1.88c-.16.84,1.22.83,1.68.68,1.25-.43,1.68-1.2,2.44-2.21.37-.48.76-.94,1.18-1.39.19-.2.38-.39.55-.6s.21-.26.31-.4,0-.14-.4.15l-1.67-.44c.1.43-.93,1.29-1.15,1.63s-.5.89-.82,1.3a4.42,4.42,0,0,0-.87,1.34c-.18.5.58.74.91.76a4,4,0,0,0,3.21-1.66,2.81,2.81,0,0,1,1.06-.73,5.21,5.21,0,0,0,.78-.47l.29-.23q.54-.36-.51.12l-1.29-.75c0,.56-.68,1-1.09,1.37a9.58,9.58,0,0,0-1.95,1.81c-.52.76.7,1.06,1.2,1a6,6,0,0,0,2.72-1.33,2.87,2.87,0,0,1,1-.47,7.36,7.36,0,0,0,.92-.37l.32-.17c.34-.21.2-.19-.42.08L29,13.53c0,.05-.85.52-1,.67a7.22,7.22,0,0,0-1.45,1.47c-.57.78.75,1,1.19,1a10.42,10.42,0,0,0,3.76-1.35c.42-.2,1.07-.65.8-1.19s-1.17-.49-1.62-.34c-.84.3-1.59.71-2.4,1.06-.29.12-.58.21-.86.35s-.57.46-.87.62l1.1-.38h-.18l1.29.75c0-.34.24-.61.13-1a1.45,1.45,0,0,0-1-.84c-.37-.11-.46-.1-.46-.55a4.08,4.08,0,0,1,.25-1.19c.17-.46.44-.88.62-1.33a10.35,10.35,0,0,1,.56-1.39,11.89,11.89,0,0,0,1.36-2.44c.18-.66-.9-.8-1.29-.75-1.83.24-2.29,1.6-3,3a9,9,0,0,1-.66,1c-.19.27-.38.54-.58.8,0,.06-.14.15-.18.21-.31.49-.95-.16,1-.31l1.28.75a3.25,3.25,0,0,1,.34-.79c.16-.36.23-.75.39-1.11a10.5,10.5,0,0,1,.57-.9,4.58,4.58,0,0,1,.62-1L26,8.51c.14.51-.61,1.29-.85,1.71-.5.86-1,1.72-1.51,2.57-.37.59.33,1,.83,1a2.17,2.17,0,0,0,1.9-.83c.54-.75.87-1.62,1.37-2.4a21.22,21.22,0,0,1,1.58-2.37,17.44,17.44,0,0,1,2.1-2.11,13.51,13.51,0,0,0,2-1.56c.36-.42.38-.88-.17-1.12a2.21,2.21,0,0,0-1.93.29,17.62,17.62,0,0,0-3.47,3.43,36.38,36.38,0,0,0-2.66,4.66,43.22,43.22,0,0,0-2.24,5c-.42,1.1-1.29,2.31-1.23,3.52.05,1,2,.38,2.37.13A2.28,2.28,0,0,0,25,19.21,4.6,4.6,0,0,1,25.34,18c.39-.58-.34-1-.83-1a2.2,2.2,0,0,0-1.9.83,3.06,3.06,0,0,0-.37.92,2.6,2.6,0,0,0-.12.46c0,.2-.23.32.05.14l2.37.13a3.24,3.24,0,0,1,.5-1.24c.26-.55.47-1.1.69-1.67a39.16,39.16,0,0,1,2.1-4.67c.75-1.39,1.43-2.82,2.3-4.14a9.17,9.17,0,0,1,1.4-1.59c.53-.48,1-1.06,1.56-1.49L31,3.89a22.35,22.35,0,0,1-2.07,1.65,21.67,21.67,0,0,0-2.17,2.22,21.64,21.64,0,0,0-1.64,2.4c-.54.85-.92,1.81-1.51,2.63l2.73.16C26.91,12,27.42,11,28,10.09c.42-.66,1.07-1.52.84-2.35-.29-1-2.15-.41-2.64.07a9.5,9.5,0,0,0-1.54,2.36c-.2.39-.27.83-.45,1.22a4.28,4.28,0,0,0-.47,1.15c-.11.68.83.78,1.28.74,1.45-.1,2.27-1.5,3-2.58a7.25,7.25,0,0,0,.61-1c.15-.31.29-.63.45-.94.08-.15.18-.3.26-.45.2-.42.72.06-.86.27l-1.28-.75A13.49,13.49,0,0,1,25.93,10c-.23.46-.36,1-.55,1.43s-.41.8-.58,1.22a3.93,3.93,0,0,0-.34,2.26c.23,1,1,1,1.76,1.31l-.47-.27c.22.18.13-.08.12.13s-.1.3-.11.45c-.05.7.77.77,1.28.75a2.66,2.66,0,0,0,1.34-.43,4.24,4.24,0,0,0,.4-.31c.24-.18-.46.14.17-.11s1.37-.7,2.09-.95l-.83-1.52a8.15,8.15,0,0,1-2.22.94l1.2,1c.76-1,2.21-1.32,2.67-2.61.24-.67-.95-.77-1.28-.74a3.66,3.66,0,0,0-1.61.57c-.31.16-.84.27-1.27.46a5.75,5.75,0,0,0-1.19.73l-.44.33c-.32.23-.79.29,0,.17l1.19,1c.87-1.26,3.11-1.87,3.23-3.65,0-.69-.77-.77-1.29-.75a3.29,3.29,0,0,0-1.83.77,7.58,7.58,0,0,1-1.14.67,4.45,4.45,0,0,0-1.23.92c-.17.19-.33.39-.5.57-.54.56-.27,0,.61,0L26,15c.15-.43.67-.8.93-1.19a14.36,14.36,0,0,1,.78-1.24c.52-.65,1.33-1.38,1.12-2.3-.14-.63-1.25-.59-1.67-.44A6.32,6.32,0,0,0,24.51,12c-.42.45-.8.94-1.18,1.43-.17.23-.35.46-.51.7-.31.44-.39.35.26.13l1.68.67a4.77,4.77,0,0,1,1-1.62,16.87,16.87,0,0,0,1.15-2c.66-1.34-2.25-1.14-2.73-.17Z"/></g><g class="cls-8"><path class="cls-10" d="M46.88,5.94a5,5,0,0,0,.94,2c.33.54.45,1.19.83,1.7s.93.84,1.08,1.67.37,1.46.51,2.2a13,13,0,0,1,.09,2.33,6.57,6.57,0,0,1-.51,2.31,13.14,13.14,0,0,1-.66,2,7.4,7.4,0,0,1-.66.72c-.08.09-.31.59-.37.64l2.27,0c-.43-.64-.13-1.65-.16-2.38a9.21,9.21,0,0,0-.76-3.13c-.33-.82-.9-1.58-1.2-2.39s-.36-1.34-1.36-1.69c-.77-.26-2.13.16-2.32,1s.6,1.55,1.06,2.18a2.12,2.12,0,0,1,.57,1.25,11.78,11.78,0,0,1,0,1.68,29.81,29.81,0,0,0-.3,3.1c.07,1,.17,2-.81,2.54-.46.26-.73.87-.3,1.26a1.83,1.83,0,0,0,1.85.06c1.81-.81,2.11-2.83,2.79-4.5.37-.93.87-1.77,1.29-2.67a7.87,7.87,0,0,0,.61-3.18c0-1.39-2.9-.89-2.92.28a7.31,7.31,0,0,1-.37,2.54c-.3.75-.78,1.44-1.1,2.19s-.67,1.64-1,2.48c-.11.29-.34,1.25-.56,1.35L47,24.77A4.24,4.24,0,0,0,49,22.14a6.6,6.6,0,0,0-.07-1.66,12.24,12.24,0,0,1,.25-1.89A10.19,10.19,0,0,0,49.06,15a4.23,4.23,0,0,0-.73-1.18c-.18-.25-.86-1-.81-1.23l-2.32,1c.14,0,.14.5.19.66a3.64,3.64,0,0,0,.49.91A11.32,11.32,0,0,1,47,17.85a7.41,7.41,0,0,1,.29,2.61,3.41,3.41,0,0,0,.45,2.19c.43.65,1.79.34,2.27,0a18,18,0,0,0,1.33-1.56,4.85,4.85,0,0,0,1-2,20.57,20.57,0,0,0,.82-2.4,11.39,11.39,0,0,0,.06-2.86,12.12,12.12,0,0,0-.46-2.4,4.75,4.75,0,0,0-.69-2.22c-.2-.26-.48-.44-.69-.7a5.5,5.5,0,0,1-.51-1.1c-.36-.76-1-1.36-1.1-2.23-.14-1.19-3.05-.5-2.9.78Z"/></g><g class="cls-8"><path class="cls-10" d="M44,26.75c-.72.62-.61,1.45-.55,2.31,0,.49.23.94.27,1.43a4.37,4.37,0,0,0,.06.72,6.52,6.52,0,0,0,.29.73c.36.88.86,1.56,1.24,2.32a4.3,4.3,0,0,0,.59.93,2,2,0,0,0,1.41.5,2.56,2.56,0,0,0,1.92-.75c.42-.55-.36-.7-.74-.71l.34.05c-.08,0-.1-.05-.06,0s-.09-.08-.1-.09a1.49,1.49,0,0,1-.23-.27c-.15-.23-.26-.49-.39-.73s-.4-.61-.58-.93A11,11,0,0,1,46.88,31a3.51,3.51,0,0,1-.28-1.19c0-.44-.19-.84-.25-1.27a7.43,7.43,0,0,1-.07-.94,1.48,1.48,0,0,1,0-.42c0-.06,0-.12,0-.18s0-.06-.09,0c.14-.12.37-.33.31-.55s-.36-.3-.54-.33a2.89,2.89,0,0,0-2.05.55Z"/></g><g class="cls-8"><path class="cls-10" d="M45,26.62a18.2,18.2,0,0,0,.25,1.93,12.05,12.05,0,0,0,.52,1.87,6.7,6.7,0,0,0,1.62,2.74c.13.15.58.12.74.11A4.4,4.4,0,0,0,49.3,33c.24-.1,1.22-.48.85-.86a6.27,6.27,0,0,1-1.47-2.61,10.9,10.9,0,0,1-.49-1.78,15.67,15.67,0,0,1-.25-1.93c0-.18-.43-.22-.51-.22a3.21,3.21,0,0,0-1.07.13c-.36.11-1.33.35-1.32.87Z"/></g><g class="cls-8"><path class="cls-10" d="M24.57,20.82a13.76,13.76,0,0,0-.44,2.63c-.07.87-.34,1.69-.44,2.55a20.86,20.86,0,0,0-.17,5c.25,1.81.92,3.53,1.08,5.36a10.7,10.7,0,0,0,.86,2.73,7.47,7.47,0,0,1,.72,2c.09,1.52,3,1.08,2.94-.22-.1-1.61-1.14-3-1.5-4.55-.18-.78-.17-1.58-.36-2.38-.24-1-.5-2-.72-3a16.17,16.17,0,0,1,.09-5.1c.1-.86.37-1.68.43-2.55a14.76,14.76,0,0,1,.45-2.63c.19-.71-.84-1-1.34-1a1.69,1.69,0,0,0-1.6,1.17Z"/></g><g class="cls-11"><path class="cls-12" d="M18.54,61a29.83,29.83,0,0,1,5.27,2.94,7.17,7.17,0,0,1,1.87,2.25c.33.53.44,1.17,1.12,1.33s2.46-.06,2.61-.83c.21-1-.88-2.22-1.24-3.16-.52-1.35-1.22-2.63-1.67-4l-2.63,1c.6.17.75.93,1,1.43A6.52,6.52,0,0,0,26,63.71c.43.46,3-.17,2.81-.9A30.2,30.2,0,0,1,28,58.9a3.39,3.39,0,0,1,1.28-3.42l-2.57.3a4,4,0,0,1-.17,1.81c-.13.8-.22,1.57-.3,2.38s-.48,2.56.61,2.93a2.86,2.86,0,0,0,2.88-1.08c.81-1.25.72-3,2.15-3.82l-2.57.29c.13.32-.79,1.34-1,1.65a8.17,8.17,0,0,0-.94,3.42A11.55,11.55,0,0,0,27.73,67c.15.62.26,1.61,1,1.83s2.44-.08,2.62-.83-.21-1.85.08-2.67l-2.61.83c.35.14.5,1,.66,1.28a7.15,7.15,0,0,0,.64,1,2,2,0,0,0,2.46.54c2-.65,1.23-2.29,1.48-3.91l-2.8.75c.8.65.72,2.35,1.86,2.6a2.71,2.71,0,0,0,2.61-.83c.53-.9.15-1.76.38-2.7l-2.8.75c.45.46.55,1.21,1.07,1.67a1.67,1.67,0,0,0,1.56.31,2.5,2.5,0,0,0,1.77-.93c.16-.25.44-1.14.17-1l-2,.35c.26,0,.36.51.55.68a1.39,1.39,0,0,0,.94.37,4.07,4.07,0,0,0,2.62-1l-1.73.55c-.36,0,.47.33.55.34a3.57,3.57,0,0,0,1.34-.14,3.13,3.13,0,0,0,1.71-1.13,2.64,2.64,0,0,1,.43-.58c.3-.19.31-.3,0-.32.19-.18.76-.26,1-.38,1.32-.67-1-.15,0-.09a5,5,0,0,1,1.16,0L44.16,64c-.16.4-.43.59-.45,1,0,.29.71.26.84.25a5,5,0,0,0,3.27-1.32c.65-.6-.89-.55-1.07-.53a6.41,6.41,0,0,0-2.6,1c-.51.34-.3.63.2.74a3.2,3.2,0,0,0,2-.55l-.15,0-1.07-.53.59-.11.84.25c0-.19.34-.52.42-.72s-.1-.31-.25-.36a6.9,6.9,0,0,0-4.71.44,5.69,5.69,0,0,0-.52.33c.29-.13.21-.12-.22,0a3.4,3.4,0,0,0-.86.41c-.69.46-1,1.42-1.64,1.85l1.73-.55a3,3,0,0,0-.67-.33,2.88,2.88,0,0,0-.83,0,4.36,4.36,0,0,0-2,1l2.3-.5c-.49-.1-.56-.72-1-.94a2.61,2.61,0,0,0-1.94.12,2.29,2.29,0,0,0-1.27.92c-.18.31-.12.9-.37,1.15l1.57-.68-.12,0h.93c-.67-.31-.74-1.34-1.22-1.82s-2.64.08-2.79.74c-.22.94.14,1.82-.38,2.7l2.62-.83c-.6-.14-1-2-1.5-2.44s-2.69,0-2.79.75a8.32,8.32,0,0,0,0,1.32,12.52,12.52,0,0,1,0,1.57l1.37-.51-.11,0h.93c-1.2-.48-.91-2.51-2.14-3-.61-.24-2.36.11-2.62.83s.13,1.79-.08,2.67l2.61-.83c-.27-.08-.46-1.55-.52-1.82a9.65,9.65,0,0,1-.12-4.21,7.34,7.34,0,0,1,1-2.51c.21-.34.9-1.11.73-1.55-.31-.76-2.15,0-2.58.29A4.73,4.73,0,0,0,28,59.55c-.48.85-.58,2.1-1.24,2.82L29,61.65a15.8,15.8,0,0,0,.09-1.94c.06-.64.1-1.3.2-1.94s.61-2,.32-2.77-2.16,0-2.57.3a4.33,4.33,0,0,0-2,3.16,18.54,18.54,0,0,0,.9,5.12l2.81-.9c-.9-1-1.08-3-2.47-3.38-.44-.12-2.9.19-2.63,1,.4,1.24,1.08,2.38,1.52,3.61a11.86,11.86,0,0,0,.76,1.75c.25.43.76.94.65,1.48l2.62-.84c-.23-.05-.47-.74-.58-.91-.25-.41-.52-.82-.77-1.22A6.67,6.67,0,0,0,26,62.42a16,16,0,0,0-2.5-1.3c-.86-.44-1.67-.95-2.56-1.35-.67-.3-3.32.76-2.36,1.2Z"/></g><g class="cls-3"><path class="cls-4" d="M28.34,73.76a17.69,17.69,0,0,0,3.14-.57A11.17,11.17,0,0,1,32.74,73a6,6,0,0,0,1.46-.31c.95-.34,1.81-.84,2.72-1.27a9.53,9.53,0,0,0,2.48-1.51c.93-.89-.48-2.31-1.42-1.42a7.52,7.52,0,0,1-2.07,1.2,19.7,19.7,0,0,1-2.42,1.13,4.33,4.33,0,0,1-1,.2,9.17,9.17,0,0,0-1.46.28,15.38,15.38,0,0,1-2.69.51c-1.28,0-1.29,2,0,2Z"/></g></g></g></svg>